<svg width="44" height="45" viewBox="0 0 44 45" fill="none" xmlns="http://www.w3.org/2000/svg">
<circle cx="22" cy="22" r="22" fill="#E2F5F6"/>
<path d="M11.2634 1.62395C12.2771 0.605915 13.6537 0.0322732 15.0903 0.0292165L28.8161 1.22789e-05C30.2528 -0.0030445 31.6318 0.564736 32.6498 1.57845L42.376 11.2634C43.3941 12.2771 43.9677 13.6537 43.9708 15.0903L44 28.8161C44.003 30.2528 43.4353 31.6318 42.4216 32.6498L32.7366 42.376C31.7229 43.3941 30.3463 43.9677 28.9097 43.9708L15.1839 44C13.7472 44.003 12.3682 43.4353 11.3502 42.4216L1.62395 32.7366C0.605915 31.7229 0.0322732 30.3463 0.0292165 28.9097L1.22789e-05 15.1839C-0.0030445 13.7472 0.564736 12.3682 1.57845 11.3502L11.2634 1.62395Z" fill="#D9E5F8"/>
<path d="M31.6902 28.5477V31.6906H10.7378V28.5477C10.7378 27.9716 11.2092 27.5001 11.7854 27.5001H30.6426C31.2187 27.5001 31.6902 27.9716 31.6902 28.5477Z" fill="#3F7CDB" stroke="#3F7CDB" stroke-width="1.5" stroke-miterlimit="10" stroke-linecap="round" stroke-linejoin="round"/>
<path d="M15.9761 20.1667H13.8809V27.5001H15.9761V20.1667Z" fill="#3F7CDB"/>
<path d="M20.1665 20.1667H18.0713V27.5001H20.1665V20.1667Z" fill="#3F7CDB"/>
<path d="M24.357 20.1667H22.2617V27.5001H24.357V20.1667Z" fill="#3F7CDB"/>
<path d="M28.5474 20.1667H26.4521V27.5001H28.5474V20.1667Z" fill="#3F7CDB"/>
<path d="M32.7376 32.4763H9.69001C9.26049 32.4763 8.9043 32.1201 8.9043 31.6906C8.9043 31.2611 9.26049 30.9049 9.69001 30.9049H32.7376C33.1672 30.9049 33.5233 31.2611 33.5233 31.6906C33.5233 32.1201 33.1672 32.4763 32.7376 32.4763Z" fill="#3F7CDB"/>
<path d="M31.0302 14.6668L21.6016 10.8954C21.3921 10.8116 21.0359 10.8116 20.8264 10.8954L11.3978 14.6668C11.0311 14.8135 10.7378 15.243 10.7378 15.6411V19.1192C10.7378 19.6954 11.2092 20.1668 11.7854 20.1668H30.6426C31.2187 20.1668 31.6902 19.6954 31.6902 19.1192V15.6411C31.6902 15.243 31.3968 14.8135 31.0302 14.6668ZM21.214 17.5478C20.3445 17.5478 19.6426 16.8459 19.6426 15.9763C19.6426 15.1068 20.3445 14.4049 21.214 14.4049C22.0835 14.4049 22.7854 15.1068 22.7854 15.9763C22.7854 16.8459 22.0835 17.5478 21.214 17.5478Z" fill="#3F7CDB"/>
<path fill-rule="evenodd" clip-rule="evenodd" d="M0.00506998 15.321C0.00153109 15.4028 -0.000162611 15.4848 1.22789e-05 15.567L0.0292165 29.2928C0.0322732 30.7294 0.605915 32.106 1.62395 33.1197L11.3502 42.8047C12.3682 43.8184 13.7472 44.3862 15.1839 44.3831L28.9097 44.3539C30.3463 44.3508 31.7229 43.7772 32.7366 42.7592L42.4216 33.0329C43.4353 32.0149 44.003 30.6359 44 29.1992L43.9949 26.8221C43.9366 28.1694 43.3773 29.4501 42.4216 30.4099L32.7366 40.1361C31.7229 41.1541 30.3463 41.7278 28.9097 41.7308L15.1839 41.76C13.7472 41.7631 12.3682 41.1953 11.3502 40.1816L1.62395 30.4967C0.605915 29.483 0.0322732 28.1064 0.0292165 26.6697L0.00506998 15.321Z" fill="#0B1C56"/>
</svg>
