<svg width="40" height="40" viewBox="0 0 40 40" fill="none" xmlns="http://www.w3.org/2000/svg">
<circle opacity="0.5" cx="20" cy="20" r="20" fill="#D9E5F8"/>
<path d="M27.1831 17.2501C26.3165 13.3917 22.9498 11.6667 19.9998 11.6667C19.9998 11.6667 19.9998 11.6667 19.9915 11.6667C17.0498 11.6667 13.6915 13.3917 12.8165 17.2417C11.8331 21.5417 14.4665 25.1834 16.8498 27.4834C17.7331 28.3334 18.8665 28.7584 19.9998 28.7584C21.1331 28.7584 22.2665 28.3334 23.1415 27.4834C25.5248 25.1834 28.1581 21.5501 27.1831 17.2501ZM22.7331 17.9417L19.3998 21.2751C19.2748 21.4001 19.1165 21.4584 18.9581 21.4584C18.7998 21.4584 18.6415 21.4001 18.5165 21.2751L17.2665 20.0251C17.0248 19.7834 17.0248 19.3834 17.2665 19.1417C17.5081 18.9001 17.9081 18.9001 18.1498 19.1417L18.9581 19.9501L21.8498 17.0584C22.0915 16.8167 22.4915 16.8167 22.7331 17.0584C22.9748 17.3001 22.9748 17.7001 22.7331 17.9417Z" fill="#3F7CDB"/>
</svg>
