<svg width="56" height="57" viewBox="0 0 56 57" fill="none" xmlns="http://www.w3.org/2000/svg">
<circle cx="28" cy="28" r="28" fill="#E2F5F6"/>
<path d="M14.3352 2.06685C15.6254 0.771165 17.3774 0.041075 19.2059 0.0371846L36.675 1.56277e-05C38.5035 -0.00387481 40.2586 0.718754 41.5543 2.00893L53.9331 14.3352C55.2288 15.6254 55.9589 17.3774 55.9628 19.2059L56 36.675C56.0039 38.5035 55.2812 40.2586 53.9911 41.5543L41.6648 53.9331C40.3746 55.2288 38.6226 55.9589 36.7941 55.9628L19.325 56C17.4965 56.0039 15.7414 55.2812 14.4457 53.9911L2.06685 41.6648C0.771165 40.3746 0.041075 38.6226 0.0371846 36.7941L1.56277e-05 19.325C-0.00387481 17.4965 0.718754 15.7414 2.00893 14.4457L14.3352 2.06685Z" fill="white"/>
<path d="M33.8659 12.067H21.8659C18.9192 12.067 16.5326 14.4537 16.5326 17.4004V27.067C16.5326 27.8004 17.1326 28.4004 17.8659 28.4004H37.8659C38.5992 28.4004 39.1992 27.8004 39.1992 27.067V17.4004C39.1992 14.4537 36.8126 12.067 33.8659 12.067ZM21.8659 26.4004H20.5326C19.9859 26.4004 19.5326 25.947 19.5326 25.4004C19.5326 24.8537 19.9859 24.4004 20.5326 24.4004H21.8659C22.4126 24.4004 22.8659 24.8537 22.8659 25.4004C22.8659 25.947 22.4126 26.4004 21.8659 26.4004ZM21.8659 23.067H20.5326C19.9859 23.067 19.5326 22.6137 19.5326 22.067C19.5326 21.5204 19.9859 21.067 20.5326 21.067H21.8659C22.4126 21.067 22.8659 21.5204 22.8659 22.067C22.8659 22.6137 22.4126 23.067 21.8659 23.067ZM21.8659 19.7337H20.5326C19.9859 19.7337 19.5326 19.2804 19.5326 18.7337C19.5326 18.187 19.9859 17.7337 20.5326 17.7337H21.8659C22.4126 17.7337 22.8659 18.187 22.8659 18.7337C22.8659 19.2804 22.4126 19.7337 21.8659 19.7337Z" fill="#3F7CDB"/>
<path d="M16.5326 31.7337V33.4004C16.5326 36.3471 18.9192 38.7337 21.8659 38.7337H33.8659C36.8126 38.7337 39.1992 36.3471 39.1992 33.4004V31.7337C39.1992 31.0004 38.5992 30.4004 37.8659 30.4004H17.8659C17.1326 30.4004 16.5326 31.0004 16.5326 31.7337ZM34.8126 35.3471C34.5592 35.5871 34.2126 35.7337 33.8659 35.7337C33.5192 35.7337 33.1726 35.5871 32.9192 35.3471C32.6792 35.0937 32.5326 34.7471 32.5326 34.4004C32.5326 34.0537 32.6792 33.7071 32.9192 33.4537C33.4126 32.9604 34.3059 32.9604 34.8126 33.4537C35.0526 33.7071 35.1992 34.0537 35.1992 34.4004C35.1992 34.7471 35.0526 35.0937 34.8126 35.3471Z" fill="#3F7CDB"/>
<path fill-rule="evenodd" clip-rule="evenodd" d="M0.00645519 19.5C0.00194945 19.6041 -0.000207 19.7085 1.56278e-05 19.8131L0.0371846 37.2822C0.041075 39.1107 0.771165 40.8628 2.06685 42.1529L14.4457 54.4792C15.7414 55.7694 17.4965 56.492 19.325 56.4881L36.7941 56.451C38.6226 56.4471 40.3746 55.717 41.6648 54.4213L53.9911 42.0425C55.2812 40.7468 56.0039 38.9917 56 37.1632L55.9935 34.1366C55.9193 35.8514 55.2074 37.4813 53.9911 38.7028L41.6648 51.0816C40.3746 52.3773 38.6226 53.1074 36.7941 53.1113L19.325 53.1485C17.4965 53.1524 15.7414 52.4297 14.4457 51.1396L2.06685 38.8133C0.771165 37.5231 0.041075 35.7711 0.0371846 33.9426L0.00645519 19.5Z" fill="#0B1C56"/>
</svg>
