<svg width="44" height="45" viewBox="0 0 44 45" fill="none" xmlns="http://www.w3.org/2000/svg">
<circle cx="22" cy="22" r="22" fill="#E2F5F6"/>
<path d="M11.2634 1.62395C12.2771 0.605915 13.6537 0.0322732 15.0903 0.0292165L28.8161 1.22789e-05C30.2528 -0.0030445 31.6318 0.564736 32.6498 1.57845L42.376 11.2634C43.3941 12.2771 43.9677 13.6537 43.9708 15.0903L44 28.8161C44.003 30.2528 43.4353 31.6318 42.4216 32.6498L32.7366 42.376C31.7229 43.3941 30.3463 43.9677 28.9097 43.9708L15.1839 44C13.7472 44.003 12.3682 43.4353 11.3502 42.4216L1.62395 32.7366C0.605915 31.7229 0.0322732 30.3463 0.0292165 28.9097L1.22789e-05 15.1839C-0.0030445 13.7472 0.564736 12.3682 1.57845 11.3502L11.2634 1.62395Z" fill="#D9E5F8"/>
<path d="M30.2443 17.7572C29.1548 12.9067 24.9224 10.7382 21.2138 10.7382C21.2138 10.7382 21.2138 10.7382 21.2033 10.7382C17.5052 10.7382 13.2833 12.9067 12.1833 17.7467C10.9471 23.1524 14.2576 27.7305 17.2538 30.622C18.3643 31.6905 19.7891 32.2248 21.2138 32.2248C22.6386 32.2248 24.0633 31.6905 25.1633 30.622C28.1595 27.7305 31.47 23.1629 30.2443 17.7572ZM24.65 18.6267L20.4595 22.8172C20.3024 22.9743 20.1033 23.0477 19.9043 23.0477C19.7052 23.0477 19.5062 22.9743 19.3491 22.8172L17.7776 21.2458C17.4738 20.942 17.4738 20.4391 17.7776 20.1353C18.0814 19.8315 18.5843 19.8315 18.8881 20.1353L19.9043 21.1515L23.5395 17.5163C23.8433 17.2124 24.3462 17.2124 24.65 17.5163C24.9538 17.8201 24.9538 18.3229 24.65 18.6267Z" fill="#3F7CDB"/>
<path fill-rule="evenodd" clip-rule="evenodd" d="M0.00506998 15.321C0.00153109 15.4028 -0.000162611 15.4848 1.22789e-05 15.567L0.0292165 29.2928C0.0322732 30.7294 0.605915 32.106 1.62395 33.1197L11.3502 42.8047C12.3682 43.8184 13.7472 44.3862 15.1839 44.3831L28.9097 44.3539C30.3463 44.3508 31.7229 43.7772 32.7366 42.7592L42.4216 33.0329C43.4353 32.0149 44.003 30.6359 44 29.1992L43.9949 26.8221C43.9366 28.1694 43.3773 29.4501 42.4216 30.4099L32.7366 40.1361C31.7229 41.1541 30.3463 41.7278 28.9097 41.7308L15.1839 41.76C13.7472 41.7631 12.3682 41.1953 11.3502 40.1816L1.62395 30.4967C0.605915 29.483 0.0322732 28.1064 0.0292165 26.6697L0.00506998 15.321Z" fill="#0B1C56"/>
</svg>
