<svg width="56" height="57" viewBox="0 0 56 57" fill="none" xmlns="http://www.w3.org/2000/svg">
<circle cx="28" cy="28" r="28" fill="#E2F5F6"/>
<path d="M14.3352 2.06685C15.6254 0.771165 17.3774 0.041075 19.2059 0.0371846L36.675 1.56277e-05C38.5035 -0.00387481 40.2586 0.718754 41.5543 2.00893L53.9331 14.3352C55.2288 15.6254 55.9589 17.3774 55.9628 19.2059L56 36.675C56.0039 38.5035 55.2812 40.2586 53.9911 41.5543L41.6648 53.9331C40.3746 55.2288 38.6226 55.9589 36.7941 55.9628L19.325 56C17.4965 56.0039 15.7414 55.2812 14.4457 53.9911L2.06685 41.6648C0.771165 40.3746 0.041075 38.6226 0.0371846 36.7941L1.56277e-05 19.325C-0.00387481 17.4965 0.718754 15.7414 2.00893 14.4457L14.3352 2.06685Z" fill="white"/>
<path d="M40.95 28.2504C41.538 28.2504 42 27.7744 42 27.2004C42 26.6124 41.538 26.1504 40.95 26.1504H39.2V23.0704H40.95C41.538 23.0704 42 22.6084 42 22.0204C42 21.4464 41.538 20.9704 40.95 20.9704H38.878C38.206 18.7444 36.456 16.9944 34.23 16.3224V14.2504C34.23 13.6764 33.754 13.2004 33.18 13.2004C32.606 13.2004 32.13 13.6764 32.13 14.2504V16.0004H29.05V14.2504C29.05 13.6764 28.574 13.2004 28 13.2004C27.426 13.2004 26.95 13.6764 26.95 14.2504V16.0004H23.884V14.2504C23.884 13.6764 23.408 13.2004 22.834 13.2004C22.246 13.2004 21.784 13.6764 21.784 14.2504V16.3224C19.544 16.9944 17.794 18.7444 17.122 20.9704H15.05C14.476 20.9704 14 21.4464 14 22.0204C14 22.6084 14.476 23.0704 15.05 23.0704H16.8V26.1504H15.05C14.476 26.1504 14 26.6124 14 27.2004C14 27.7744 14.476 28.2504 15.05 28.2504H16.8V31.3304H15.05C14.476 31.3304 14 31.7924 14 32.3804C14 32.9544 14.476 33.4304 15.05 33.4304H17.122C17.78 35.6564 19.544 37.4064 21.784 38.0784V40.1504C21.784 40.7244 22.246 41.2004 22.834 41.2004C23.408 41.2004 23.884 40.7244 23.884 40.1504V38.4004H26.964V40.1504C26.964 40.7244 27.426 41.2004 28.014 41.2004C28.588 41.2004 29.064 40.7244 29.064 40.1504V38.4004H32.13V40.1504C32.13 40.7244 32.606 41.2004 33.18 41.2004C33.754 41.2004 34.23 40.7244 34.23 40.1504V38.0784C36.456 37.4064 38.206 35.6564 38.878 33.4304H40.95C41.538 33.4304 42 32.9544 42 32.3804C42 31.7924 41.538 31.3304 40.95 31.3304H39.2V28.2504H40.95ZM35.364 30.3644C35.364 32.6744 33.474 34.5644 31.164 34.5644H24.836C22.526 34.5644 20.636 32.6744 20.636 30.3644V24.0364C20.636 21.7264 22.526 19.8364 24.836 19.8364H31.164C33.474 19.8364 35.364 21.7264 35.364 24.0364V30.3644Z" fill="#3F7CDB"/>
<path d="M25.2283 33.1505H30.7863C32.5363 33.1505 33.9643 31.7364 33.9643 29.9724V24.4145C33.9643 22.6645 32.5503 21.2365 30.7863 21.2365H25.2283C23.4783 21.2365 22.0503 22.6505 22.0503 24.4145V29.9724C22.0503 31.7364 23.4643 33.1505 25.2283 33.1505Z" fill="#3F7CDB"/>
<path fill-rule="evenodd" clip-rule="evenodd" d="M0.00645321 19.5C0.00194882 19.6041 -0.000206967 19.7084 1.56277e-05 19.8131L0.0371846 37.2822C0.041075 39.1107 0.771165 40.8627 2.06685 42.1529L14.4457 54.4792C15.7414 55.7693 17.4965 56.492 19.325 56.4881L36.7941 56.4509C38.6226 56.447 40.3746 55.7169 41.6648 54.4212L53.9911 42.0424C55.2812 40.7467 56.0039 38.9916 56 37.1631L55.9935 34.1375C55.9193 35.8523 55.2074 37.4822 53.9911 38.7037L41.6648 51.0826C40.3746 52.3783 38.6226 53.1083 36.7941 53.1122L19.325 53.1494C17.4965 53.1533 15.7414 52.4307 14.4457 51.1405L2.06685 38.8142C0.771165 37.524 0.041075 35.772 0.0371846 33.9435L0.00645321 19.5Z" fill="#0B1C56"/>
</svg>
