<svg width="44" height="45" viewBox="0 0 44 45" fill="none" xmlns="http://www.w3.org/2000/svg">
<circle cx="22" cy="22" r="22" fill="#E2F5F6"/>
<path d="M11.2634 1.62395C12.2771 0.605915 13.6537 0.0322732 15.0903 0.0292165L28.8161 1.22789e-05C30.2528 -0.0030445 31.6318 0.564736 32.6498 1.57845L42.376 11.2634C43.3941 12.2771 43.9677 13.6537 43.9708 15.0903L44 28.8161C44.003 30.2528 43.4353 31.6318 42.4216 32.6498L32.7366 42.376C31.7229 43.3941 30.3463 43.9677 28.9097 43.9708L15.1839 44C13.7472 44.003 12.3682 43.4353 11.3502 42.4216L1.62395 32.7366C0.605915 31.7229 0.0322732 30.3463 0.0292165 28.9097L1.22789e-05 15.1839C-0.0030445 13.7472 0.564736 12.3682 1.57845 11.3502L11.2634 1.62395Z" fill="#D9E5F8"/>
<path d="M10.4238 29.8467C10.4342 29.8362 10.4342 29.8258 10.4342 29.8258L16.1961 24.0639C16.2066 24.0534 16.2171 24.0534 16.2276 24.0429C15.5676 23.582 14.7609 23.3096 13.8809 23.3096C11.5657 23.3096 9.69043 25.1848 9.69043 27.5C9.69043 28.2858 9.91043 29.0296 10.298 29.6581C10.34 29.721 10.3819 29.7839 10.4238 29.8467Z" fill="#3F7CDB"/>
<path d="M17.3377 25.1429C17.3272 25.1534 17.3272 25.1639 17.3168 25.1744L11.5549 30.9363C11.5444 30.9468 11.5339 30.9468 11.5234 30.9572C12.1939 31.4182 13.0006 31.6906 13.8806 31.6906C15.4101 31.6906 16.7406 30.8734 17.4634 29.6582C17.8511 29.0296 18.0711 28.2858 18.0711 27.5001C18.0711 26.6201 17.7987 25.8134 17.3377 25.1429Z" fill="#3F7CDB"/>
<path d="M26.4521 12.8334H15.9759C12.833 12.8334 10.7378 14.4048 10.7378 18.0715V21.801C10.7378 22.1886 11.1359 22.4296 11.4816 22.2724C12.5083 21.801 13.6921 21.6229 14.9387 21.8429C17.694 22.3353 19.7159 24.8915 19.6426 27.6886C19.6321 28.1286 19.5692 28.5581 19.454 28.9772C19.3702 29.3019 19.6321 29.6058 19.9673 29.6058H26.4521C29.5949 29.6058 31.6902 28.0343 31.6902 24.3677V18.0715C31.6902 14.4048 29.5949 12.8334 26.4521 12.8334ZM21.214 23.8334C19.7683 23.8334 18.5949 22.66 18.5949 21.2143C18.5949 19.7686 19.7683 18.5953 21.214 18.5953C22.6597 18.5953 23.833 19.7686 23.833 21.2143C23.833 22.66 22.6597 23.8334 21.214 23.8334ZM28.8092 23.3096C28.8092 23.7391 28.453 24.0953 28.0235 24.0953C27.594 24.0953 27.2378 23.7391 27.2378 23.3096V19.1191C27.2378 18.6896 27.594 18.3334 28.0235 18.3334C28.453 18.3334 28.8092 18.6896 28.8092 19.1191V23.3096Z" fill="#3F7CDB"/>
<path fill-rule="evenodd" clip-rule="evenodd" d="M0.00506998 15.321C0.00153109 15.4028 -0.000162611 15.4848 1.22789e-05 15.567L0.0292165 29.2928C0.0322732 30.7294 0.605915 32.106 1.62395 33.1197L11.3502 42.8047C12.3682 43.8184 13.7472 44.3862 15.1839 44.3831L28.9097 44.3539C30.3463 44.3508 31.7229 43.7772 32.7366 42.7592L42.4216 33.0329C43.4353 32.0149 44.003 30.6359 44 29.1992L43.9949 26.8221C43.9366 28.1694 43.3773 29.4501 42.4216 30.4099L32.7366 40.1361C31.7229 41.1541 30.3463 41.7278 28.9097 41.7308L15.1839 41.76C13.7472 41.7631 12.3682 41.1953 11.3502 40.1816L1.62395 30.4967C0.605915 29.483 0.0322732 28.1064 0.0292165 26.6697L0.00506998 15.321Z" fill="#0B1C56"/>
</svg>
