<svg width="52" height="53" viewBox="0 0 52 53" fill="none" xmlns="http://www.w3.org/2000/svg">
<path d="M13.3113 1.91921C14.5093 0.716082 16.1362 0.0381411 17.834 0.0345285L34.0554 1.45115e-05C35.7533 -0.00359804 37.383 0.667415 38.5862 1.86544L50.0808 13.3113C51.2839 14.5093 51.9619 16.1362 51.9655 17.834L52 34.0554C52.0036 35.7533 51.3326 37.383 50.1346 38.5862L38.6887 50.0808C37.4907 51.2839 35.8638 51.9619 34.166 51.9655L17.9446 52C16.2467 52.0036 14.617 51.3326 13.4138 50.1346L1.91921 38.6887C0.716082 37.4907 0.0381411 35.8638 0.0345285 34.166L1.45115e-05 17.9446C-0.00359804 16.2467 0.667415 14.617 1.86544 13.4138L13.3113 1.91921Z" fill="#D9E5F8"/>
<path fill-rule="evenodd" clip-rule="evenodd" d="M0.00397353 18.1581C0.00116926 18.2377 -0.000155541 18.3174 1.45115e-05 18.3974L0.0345285 34.6187C0.0381411 36.3166 0.716082 37.9435 1.91921 39.1415L13.4138 50.5873C14.617 51.7853 16.2467 52.4563 17.9446 52.4527L34.166 52.4182C35.8638 52.4146 37.4907 51.7367 38.6887 50.5335L50.1346 39.0389C51.3326 37.8358 52.0036 36.206 52 34.5081L51.996 32.6474C51.9393 34.2585 51.2762 35.7924 50.1346 36.9389L38.6887 48.4335C37.4907 49.6367 35.8638 50.3146 34.166 50.3182L17.9446 50.3527C16.2467 50.3564 14.617 49.6853 13.4138 48.4873L1.91921 37.0415C0.716082 35.8435 0.0381411 34.2166 0.0345285 32.5187L0.00397353 18.1581Z" fill="#9FBEED"/>
<path d="M23.0832 31.8083H22.6665C19.3332 31.8083 17.6665 30.9749 17.6665 26.8083V22.6416C17.6665 19.3083 19.3332 17.6416 22.6665 17.6416H29.3332C32.6665 17.6416 34.3332 19.3083 34.3332 22.6416V26.8083C34.3332 30.1416 32.6665 31.8083 29.3332 31.8083H28.9165C28.6582 31.8083 28.4082 31.9333 28.2498 32.1416L26.9998 33.8083C26.4498 34.5416 25.5498 34.5416 24.9998 33.8083L23.7498 32.1416C23.6165 31.9583 23.3165 31.8083 23.0832 31.8083Z" fill="#3F7CDB"/>
<path d="M22.6665 27.2084C22.5082 27.2084 22.3499 27.15 22.2249 27.025L20.5582 25.3583C20.3165 25.1167 20.3165 24.7167 20.5582 24.475L22.2249 22.8083C22.4665 22.5667 22.8665 22.5667 23.1082 22.8083C23.3499 23.05 23.3499 23.45 23.1082 23.6917L21.8832 24.9167L23.1082 26.1417C23.3499 26.3833 23.3499 26.7833 23.1082 27.025C22.9832 27.15 22.8249 27.2084 22.6665 27.2084Z" fill="white"/>
<path d="M29.3334 27.2084C29.175 27.2084 29.0167 27.15 28.8917 27.025C28.65 26.7833 28.65 26.3833 28.8917 26.1417L30.1167 24.9167L28.8917 23.6917C28.65 23.45 28.65 23.05 28.8917 22.8083C29.1334 22.5667 29.5334 22.5667 29.775 22.8083L31.4417 24.475C31.6834 24.7167 31.6834 25.1167 31.4417 25.3583L29.775 27.025C29.65 27.15 29.4917 27.2084 29.3334 27.2084Z" fill="white"/>
<path d="M25.1666 27.4834C25.0833 27.4834 25 27.4667 24.9167 27.4333C24.6 27.3 24.45 26.9334 24.5916 26.6084L26.2583 22.7167C26.3916 22.4 26.7583 22.25 27.0833 22.3917C27.4 22.525 27.55 22.8917 27.4083 23.2167L25.7416 27.1084C25.6416 27.3417 25.4083 27.4834 25.1666 27.4834Z" fill="white"/>
</svg>
