<svg width="44" height="45" viewBox="0 0 44 45" fill="none" xmlns="http://www.w3.org/2000/svg">
<circle cx="22" cy="22" r="22" fill="#E2F5F6"/>
<path d="M11.2634 1.62395C12.2771 0.605915 13.6537 0.0322732 15.0903 0.0292165L28.8161 1.22789e-05C30.2528 -0.0030445 31.6318 0.564736 32.6498 1.57845L42.376 11.2634C43.3941 12.2771 43.9677 13.6537 43.9708 15.0903L44 28.8161C44.003 30.2528 43.4353 31.6318 42.4216 32.6498L32.7366 42.376C31.7229 43.3941 30.3463 43.9677 28.9097 43.9708L15.1839 44C13.7472 44.003 12.3682 43.4353 11.3502 42.4216L1.62395 32.7366C0.605915 31.7229 0.0322732 30.3463 0.0292165 28.9097L1.22789e-05 15.1839C-0.0030445 13.7472 0.564736 12.3682 1.57845 11.3502L11.2634 1.62395Z" fill="#D9E5F8"/>
<path d="M31.2294 19.8944L29.8046 18.2392C29.5322 17.9249 29.3122 17.3382 29.3122 16.9192V15.1382C29.3122 14.0277 28.4008 13.1163 27.2903 13.1163H25.5094C25.1008 13.1163 24.5036 12.8963 24.1894 12.6239L22.5341 11.1992C21.8113 10.5811 20.6274 10.5811 19.8941 11.1992L18.2494 12.6344C17.9351 12.8963 17.3379 13.1163 16.9294 13.1163H15.117C14.0065 13.1163 13.0951 14.0277 13.0951 15.1382V16.9296C13.0951 17.3382 12.8751 17.9249 12.6132 18.2392L11.1989 19.9049C10.5913 20.6277 10.5913 21.8011 11.1989 22.5239L12.6132 24.1896C12.8751 24.5039 13.0951 25.0906 13.0951 25.4992V27.2906C13.0951 28.4011 14.0065 29.3125 15.117 29.3125H16.9294C17.3379 29.3125 17.9351 29.5325 18.2494 29.8049L19.9046 31.2296C20.6274 31.8477 21.8113 31.8477 22.5446 31.2296L24.1998 29.8049C24.5141 29.5325 25.1008 29.3125 25.5198 29.3125H27.3008C28.4113 29.3125 29.3227 28.4011 29.3227 27.2906V25.5096C29.3227 25.1011 29.5427 24.5039 29.8151 24.1896L31.2398 22.5344C31.8475 21.8115 31.8475 20.6173 31.2294 19.8944ZM25.5722 19.2344L20.5122 24.2944C20.3655 24.4411 20.1665 24.5249 19.957 24.5249C19.7474 24.5249 19.5484 24.4411 19.4017 24.2944L16.8665 21.7592C16.5627 21.4554 16.5627 20.9525 16.8665 20.6487C17.1703 20.3449 17.6732 20.3449 17.977 20.6487L19.957 22.6287L24.4617 18.1239C24.7655 17.8201 25.2684 17.8201 25.5722 18.1239C25.876 18.4277 25.876 18.9306 25.5722 19.2344Z" fill="#3F7CDB"/>
<path fill-rule="evenodd" clip-rule="evenodd" d="M0.00506998 15.321C0.00153109 15.4028 -0.000162611 15.4848 1.22789e-05 15.567L0.0292165 29.2928C0.0322732 30.7294 0.605915 32.106 1.62395 33.1197L11.3502 42.8047C12.3682 43.8184 13.7472 44.3862 15.1839 44.3831L28.9097 44.3539C30.3463 44.3508 31.7229 43.7772 32.7366 42.7592L42.4216 33.0329C43.4353 32.0149 44.003 30.6359 44 29.1992L43.9949 26.8221C43.9366 28.1694 43.3773 29.4501 42.4216 30.4099L32.7366 40.1361C31.7229 41.1541 30.3463 41.7278 28.9097 41.7308L15.1839 41.76C13.7472 41.7631 12.3682 41.1953 11.3502 40.1816L1.62395 30.4967C0.605915 29.483 0.0322732 28.1064 0.0292165 26.6697L0.00506998 15.321Z" fill="#0B1C56"/>
</svg>
