<svg width="40" height="40" viewBox="0 0 40 40" fill="none" xmlns="http://www.w3.org/2000/svg">
<circle opacity="0.5" cx="20" cy="20" r="20" fill="#D9E5F8"/>
<path d="M27.9667 18.95L26.8334 17.6333C26.6167 17.3833 26.4417 16.9166 26.4417 16.5833V15.1666C26.4417 14.2833 25.7167 13.5583 24.8334 13.5583H23.4167C23.0917 13.5583 22.6167 13.3833 22.3667 13.1666L21.0501 12.0333C20.4751 11.5416 19.5334 11.5416 18.9501 12.0333L17.6417 13.175C17.3917 13.3833 16.9167 13.5583 16.5917 13.5583H15.1501C14.2667 13.5583 13.5417 14.2833 13.5417 15.1666V16.5916C13.5417 16.9166 13.3667 17.3833 13.1584 17.6333L12.0334 18.9583C11.5501 19.5333 11.5501 20.4666 12.0334 21.0416L13.1584 22.3666C13.3667 22.6166 13.5417 23.0833 13.5417 23.4083V24.8333C13.5417 25.7166 14.2667 26.4416 15.1501 26.4416H16.5917C16.9167 26.4416 17.3917 26.6166 17.6417 26.8333L18.9584 27.9666C19.5334 28.4583 20.4751 28.4583 21.0584 27.9666L22.3751 26.8333C22.6251 26.6166 23.0917 26.4416 23.4251 26.4416H24.8417C25.7251 26.4416 26.4501 25.7166 26.4501 24.8333V23.4166C26.4501 23.0916 26.6251 22.6166 26.8417 22.3666L27.9751 21.05C28.4584 20.475 28.4584 19.525 27.9667 18.95ZM23.4667 18.425L19.4417 22.45C19.3251 22.5666 19.1667 22.6333 19.0001 22.6333C18.8334 22.6333 18.6751 22.5666 18.5584 22.45L16.5417 20.4333C16.3001 20.1916 16.3001 19.7916 16.5417 19.55C16.7834 19.3083 17.1834 19.3083 17.4251 19.55L19.0001 21.125L22.5834 17.5416C22.8251 17.3 23.2251 17.3 23.4667 17.5416C23.7084 17.7833 23.7084 18.1833 23.4667 18.425Z" fill="#3F7CDB"/>
</svg>
