<svg width="505" height="474" viewBox="0 0 505 474" fill="none" xmlns="http://www.w3.org/2000/svg">
<path d="M248.757 358.426C219.206 358.426 190.396 355.673 163.175 350.165C135.001 344.551 109.581 336.29 87.7617 325.592C66.1545 315 49.1016 302.608 37.027 288.732L36.6033 288.309C24.105 273.586 17.644 258.016 17.4321 241.811C17.2203 225.605 23.2576 209.823 35.4382 194.889C47.0892 180.484 64.0361 167.456 85.5375 156.229C107.039 145.002 132.247 135.999 160.21 129.643C189.231 122.971 220.159 119.475 251.935 119.052C283.816 118.628 314.744 121.382 343.977 127.207C372.152 132.821 397.572 141.189 419.391 151.78C440.998 162.372 458.157 174.765 470.126 188.746L470.55 189.169C483.048 203.786 489.509 219.356 489.721 235.562C489.933 251.767 483.895 267.549 471.715 282.483C459.958 296.888 443.117 309.916 421.615 321.249C400.114 332.477 375.011 341.48 346.943 347.835C317.922 354.507 287.099 358.003 255.112 358.426C253.1 358.426 250.981 358.426 248.757 358.426ZM178.322 352.707C203.001 356.626 228.845 358.532 255.218 358.109C283.498 357.685 310.931 354.825 336.987 349.635C311.143 354.825 283.604 357.685 255.218 358.109C228.739 358.532 202.789 356.626 178.322 352.707ZM252.147 119.369H252.041C189.019 120.217 130.023 133.457 85.7493 156.547C41.5815 179.743 17.4321 210.035 17.8558 241.811C18.0677 258.122 24.6346 273.692 37.3447 288.415C49.3135 302.184 66.3663 314.576 87.9736 325.168C131.294 346.352 188.172 357.897 248.757 357.897C250.876 357.897 252.994 357.897 255.112 357.897C318.133 357.05 377.13 343.81 421.404 320.72C465.571 297.629 489.721 267.337 489.297 235.456C488.873 203.68 463.983 174.023 419.179 152.098C375.859 130.915 318.981 119.369 258.396 119.369C256.383 119.369 254.265 119.369 252.147 119.369ZM56.5159 306.421C65.5189 313.305 76.0048 319.555 87.8677 325.38C102.908 332.794 119.643 339.043 137.861 344.022C119.855 339.043 103.014 332.794 87.8677 325.38C76.1107 319.555 65.6249 313.199 56.5159 306.421ZM456.886 297.418C447.142 305.785 435.385 313.729 421.615 320.826C405.728 329.193 387.828 336.184 368.656 341.797C388.145 336.078 405.834 329.087 421.615 320.826C435.279 313.729 447.142 305.891 456.886 297.418ZM479.023 200.82C485.802 211.836 489.403 223.487 489.615 235.456C489.827 247.636 486.331 259.605 479.659 271.044C486.543 259.499 489.827 247.636 489.721 235.562C489.509 223.593 485.908 211.942 479.023 200.82ZM24.6346 211.836C19.8683 221.58 17.4321 231.643 17.644 241.811C17.7499 247.636 18.5972 253.356 20.2919 259.075C18.5972 253.462 17.7499 247.636 17.644 241.811C17.5381 231.643 19.8683 221.58 24.6346 211.836ZM258.396 119.158C256.277 119.158 254.159 119.158 252.041 119.158C220.265 119.581 189.337 123.182 160.316 129.749C132.247 136.104 107.145 145.108 85.6434 156.335C72.4036 163.325 60.8585 170.952 51.22 179.107C60.7526 170.952 72.2977 163.325 85.6434 156.335C129.917 133.139 188.913 120.005 251.935 119.052H252.041C277.885 118.734 303.199 120.429 327.137 124.136C305 120.852 282.015 119.158 258.396 119.158ZM371.834 133.986C388.993 138.858 404.986 144.896 419.391 151.886C432.949 158.559 444.706 165.867 454.556 173.811C444.706 165.867 432.949 158.453 419.391 151.886C404.986 144.896 389.099 138.858 371.834 133.986Z" fill="#9FBEED"/>
<path d="M257.336 365.417C200.14 365.417 142.733 354.296 98.9884 334.701C76.4278 324.639 58.6336 312.882 46.0293 299.748C44.7583 298.371 43.5932 297.1 42.534 295.935C31.5186 283.225 25.9049 269.879 25.6931 256.216C25.4812 241.07 31.3067 224.229 42.4281 207.705C53.5495 191.288 69.755 175.189 89.2439 161.313C109.686 146.803 133.835 134.622 159.15 126.254C186.9 117.04 215.816 112.061 245.155 111.744C247.168 111.744 249.074 111.744 251.087 111.744C308.282 111.744 365.69 122.865 409.434 142.46C431.995 152.522 449.789 164.279 462.393 177.413C475.633 191.182 482.518 205.905 482.729 220.945C482.941 236.091 477.116 252.932 465.994 269.456C454.873 285.873 438.668 301.972 419.179 315.848C398.736 330.359 374.587 342.539 349.273 350.907C321.522 360.121 292.501 365.1 263.267 365.417C261.255 365.417 259.242 365.417 257.336 365.417ZM42.64 295.829C43.6991 296.994 44.8642 298.265 46.1353 299.642C58.7395 312.776 76.5337 324.427 99.0943 334.595C142.838 354.19 200.14 365.206 257.336 365.206C259.348 365.206 261.255 365.206 263.267 365.206C281.697 364.994 299.915 362.981 317.815 359.168C300.021 362.875 281.697 364.888 263.267 365.206C261.361 365.206 259.348 365.206 257.442 365.206C200.246 365.206 142.838 354.084 99.2002 334.595C76.6397 324.533 58.8454 312.776 46.3471 299.748C33.1073 285.979 26.3286 271.468 26.1168 256.428C26.0108 251.767 26.5404 247.001 27.5996 242.129C26.5404 247.001 26.0108 251.767 26.1168 256.428C26.0108 269.879 31.6245 283.225 42.64 295.829ZM251.087 112.061C249.074 112.061 247.168 112.061 245.155 112.061C188.701 112.803 133.412 130.385 89.4557 161.631C49.3128 190.123 25.5872 225.5 26.0108 256.216C26.2227 271.15 33.0014 285.661 46.2412 299.43C58.8454 312.458 76.5337 324.215 99.0943 334.277C144.321 354.508 204.059 365.629 263.161 364.888C319.616 364.146 374.905 346.564 418.861 315.318C459.004 286.826 482.729 251.45 482.306 220.733C482.094 207.176 476.48 193.936 465.571 181.332C464.406 180.061 463.241 178.79 462.075 177.519C449.471 164.491 431.677 152.734 409.222 142.672C365.584 123.183 308.282 112.061 251.087 112.061ZM437.926 300.49C432.101 305.68 425.746 310.658 418.967 315.53C413.671 319.343 408.163 322.838 402.55 326.228C408.269 322.838 413.671 319.237 418.967 315.53C425.746 310.764 432.101 305.786 437.926 300.49ZM465.783 181.226C476.692 193.83 482.412 207.176 482.518 220.733C482.624 225.606 482.094 230.478 480.929 235.562C482.094 230.478 482.624 225.606 482.518 220.733C482.306 205.693 475.527 191.182 462.287 177.413C449.683 164.279 431.889 152.628 409.328 142.46C364.101 122.23 304.258 111.002 245.155 111.85C226.408 112.061 207.766 114.18 189.442 118.099C207.66 114.18 226.302 112.061 245.155 111.85C304.258 111.108 364.101 122.23 409.328 142.46C431.889 152.522 449.683 164.279 462.181 177.413C463.452 178.684 464.617 179.955 465.783 181.226ZM105.979 150.721C100.259 154.111 94.6457 157.712 89.3498 161.525C81.6178 167.033 74.3095 172.858 67.7425 179.002C74.3095 172.964 81.5119 167.139 89.3498 161.631C94.7516 157.712 100.365 154.111 105.979 150.721Z" fill="#9FBEED"/>
<path d="M266.339 372.407C239.542 372.407 212.533 369.971 186.053 365.311C158.62 360.439 132.353 353.024 110.004 343.916C86.8078 334.489 68.3781 323.473 55.2442 311.399C52.7022 309.068 50.372 306.632 48.0418 303.984C38.721 293.287 33.9547 282.059 33.8488 270.726C33.6369 256.427 39.0388 239.057 49.4187 220.521C59.9046 201.773 75.0509 183.026 92.951 166.397C112.44 148.391 135.001 133.35 158.091 122.865C184.358 111.002 211.367 104.753 238.271 104.329C266.763 104.011 295.36 106.341 323.323 111.425C350.756 116.298 377.023 123.712 399.372 132.821C422.568 142.248 441.104 153.263 454.132 165.338C468.113 178.26 475.315 191.923 475.527 205.904C475.739 220.203 470.337 237.574 459.957 256.109C449.471 274.857 434.431 293.498 416.425 310.234C396.936 328.24 374.481 343.28 351.285 353.766C325.018 365.735 298.008 371.878 270.999 372.302C269.516 372.407 267.928 372.407 266.339 372.407ZM249.498 371.878C256.7 372.09 263.903 372.196 271.105 372.196C282.121 372.09 293.242 370.925 304.258 368.806C293.772 370.819 282.65 371.984 271.105 372.196C264.009 372.196 256.806 372.09 249.498 371.878ZM244.096 104.858C242.19 104.858 240.283 104.858 238.377 104.858C169.424 105.812 117.948 144.048 93.2688 166.715C75.2627 183.344 60.2224 201.985 49.7365 220.627C39.3565 239.057 34.0606 256.321 34.1665 270.62C34.3784 284.495 41.4749 298.053 55.4561 310.869C68.484 322.944 86.9137 333.853 110.11 343.28C154.701 361.498 210.944 371.772 265.28 371.772C267.186 371.772 269.093 371.772 270.999 371.772C339.952 370.819 391.428 332.582 416.107 309.916C434.113 293.287 449.153 274.645 459.533 255.898C469.913 237.468 475.209 220.203 475.103 205.904C474.997 194.677 470.231 183.661 461.016 172.964C458.792 170.422 456.356 167.986 453.92 165.655C440.892 153.581 422.462 142.671 399.266 133.244C354.675 115.133 298.432 104.858 244.096 104.858ZM48.2536 303.773C50.4779 306.315 52.914 308.857 55.4561 311.081C68.484 323.261 86.9137 334.171 110.11 343.704C119.431 347.517 129.493 351.012 140.085 354.19C129.705 351.012 119.642 347.517 110.11 343.704C86.8078 334.171 68.484 323.261 55.3501 311.187C41.369 298.265 34.1665 284.707 34.0606 270.726C33.8488 256.427 39.2506 239.057 49.6306 220.627C60.1164 201.879 75.1568 183.238 93.1629 166.609C104.814 155.911 122.396 141.718 145.063 129.643C126.633 139.494 108.945 152.098 93.1629 166.609C75.1568 183.238 60.1164 201.879 49.6306 220.627C39.2506 239.057 33.8488 256.427 34.0606 270.726C34.1665 282.059 38.9328 293.181 48.2536 303.773ZM362.195 120.534C375.223 124.136 387.721 128.372 399.372 133.139C422.674 142.671 441.104 153.581 454.132 165.655C456.674 167.986 459.004 170.422 461.228 172.964C470.443 183.661 475.209 194.783 475.421 206.01C475.633 220.309 470.231 237.68 459.851 256.109C449.365 274.857 434.325 293.498 416.319 310.128C406.892 318.813 393.546 329.828 376.811 340.102C390.793 331.523 404.244 321.461 416.425 310.128C434.431 293.498 449.471 274.857 459.957 256.109C470.337 237.68 475.739 220.309 475.527 206.01C475.315 192.135 468.113 178.472 454.238 165.55C441.104 153.475 422.674 142.459 399.478 133.033C387.933 128.478 375.329 124.241 362.195 120.534ZM244.096 104.647C268.775 104.647 293.878 106.765 318.133 110.79C291.865 106.341 265.068 104.329 238.377 104.647C225.878 104.858 213.274 106.235 200.776 108.989C212.638 106.447 225.137 104.858 238.377 104.753C240.283 104.647 242.19 104.647 244.096 104.647Z" fill="#9FBEED"/>
<path d="M273.859 379.398C222.807 379.398 166.141 369.654 121.232 353.025C97.294 344.127 78.2288 334.065 64.5654 322.944C60.7523 319.872 57.1511 316.377 53.9736 312.776C46.2415 303.879 42.2166 294.558 42.1107 285.343C41.8989 271.997 47.0889 253.567 56.5156 233.443C66.5778 212.259 80.4531 190.864 96.8704 171.693C115.194 150.191 136.06 132.291 157.244 119.687C181.817 105.176 206.919 97.5502 231.704 97.2324C284.028 96.491 343.13 106.341 389.628 123.606C413.565 132.503 432.631 142.565 446.294 153.687C461.017 165.761 468.643 178.472 468.749 191.394C468.96 204.739 463.77 223.169 454.344 243.293C444.387 264.477 430.406 285.872 413.989 305.044C395.665 326.545 374.799 344.445 353.616 357.049C329.043 371.56 304.046 379.186 279.155 379.504C277.355 379.398 275.554 379.398 273.859 379.398ZM54.0795 312.564C57.3629 316.271 60.8582 319.66 64.6713 322.732C78.2288 333.853 97.294 344.022 121.232 352.813C166.141 369.442 222.807 379.186 273.754 379.186C275.554 379.186 277.249 379.186 279.049 379.186C291.018 378.974 303.093 377.174 315.167 373.679C303.728 376.962 291.76 378.974 279.049 379.186C277.249 379.186 275.554 379.186 273.754 379.186C222.701 379.186 166.141 369.442 121.232 352.813C97.6118 344.127 78.0169 333.642 64.6713 322.732C49.9487 310.657 42.4285 298.053 42.2166 285.237C42.0048 271.891 47.1948 253.462 56.6215 233.443C66.5778 212.259 80.559 190.864 96.8704 171.799C108.204 158.453 125.574 140.659 147.605 125.83C129.811 137.799 112.334 153.475 96.7644 171.799C80.4531 190.97 66.4719 212.259 56.5156 233.443C47.0889 253.462 42.0048 271.891 42.1107 285.237C42.4285 294.452 46.3475 303.667 54.0795 312.564ZM236.788 97.6561C234.988 97.6561 233.293 97.6561 231.492 97.6561C168.895 98.5034 120.384 144.472 97.0822 171.905C80.7708 191.076 66.7896 212.365 56.8333 233.549C47.4066 253.567 42.3226 271.891 42.4285 285.237C42.6403 298.053 50.1605 310.551 64.7772 322.52C78.1229 333.43 97.7177 343.916 121.232 352.601C166.141 369.23 222.701 378.974 273.754 378.974C275.554 378.974 277.249 378.974 279.049 378.974C341.753 378.021 390.263 332.053 413.565 304.726C429.877 285.555 443.858 264.265 453.814 243.082C463.241 223.063 468.325 204.739 468.219 191.394C468.113 182.179 464.088 173.07 456.462 164.279C453.285 160.571 449.683 157.182 445.87 154.11C432.525 143.201 412.93 132.715 389.416 124.03C344.401 107.401 287.841 97.6561 236.788 97.6561ZM456.568 164.067C464.3 172.964 468.219 182.073 468.325 191.288C468.537 204.633 463.347 223.063 453.92 243.082C443.964 264.265 429.983 285.661 413.671 304.726C400.114 320.614 377.977 342.962 349.485 358.956C350.756 358.215 352.133 357.473 353.404 356.626C374.588 344.127 395.347 326.121 413.671 304.726C429.983 285.555 443.964 264.265 453.92 242.976C463.347 222.957 468.431 204.527 468.325 191.182C468.113 178.366 460.593 165.761 445.87 153.687C432.313 142.565 413.248 132.397 389.31 123.606C344.401 106.977 287.735 97.2324 236.682 97.2324C234.882 97.2324 233.187 97.2324 231.386 97.2324C221.642 97.3383 211.897 98.6094 202.047 100.94C211.368 98.7153 221.218 97.3383 231.386 97.2324C233.187 97.2324 234.882 97.2324 236.682 97.2324C287.735 97.2324 344.295 106.977 389.204 123.606C412.824 132.291 432.419 142.777 445.764 153.687C449.789 156.97 453.285 160.36 456.568 164.067Z" fill="#9FBEED"/>
<path d="M282.229 386.388C234.566 386.388 177.582 377.28 132.355 362.133C107.994 354.083 87.8693 344.445 73.8881 334.383C68.804 330.782 64.1436 326.651 60.0128 321.99C53.6577 314.682 50.3743 307.162 50.2684 299.642C50.0565 287.249 54.9287 267.76 63.5081 246.153C72.723 222.745 85.9627 198.172 100.579 176.777C117.844 151.462 136.592 131.126 156.08 116.403C178.853 99.2446 201.943 90.3475 224.821 90.0298C226.41 90.0298 227.999 90.0298 229.694 90.0298C277.357 90.0298 334.341 99.1387 379.568 114.285C403.929 122.335 424.053 131.973 438.034 142.036C453.498 153.263 461.442 164.914 461.654 176.777C461.866 189.169 456.994 208.658 448.414 230.265C439.199 253.673 425.96 278.246 411.343 299.642C394.078 324.956 375.331 345.292 355.842 360.015C333.07 377.174 309.979 386.071 287.207 386.388C285.512 386.388 283.818 386.388 282.229 386.388ZM63.7199 325.592C66.8975 328.769 70.3928 331.629 74.0999 334.277C87.9752 344.339 108.206 353.872 132.461 362.027C177.688 377.068 234.672 386.177 282.335 386.177C283.924 386.177 285.618 386.177 287.207 386.177C309.979 385.859 333.07 376.962 355.736 359.803C375.225 345.08 393.866 324.744 411.237 299.43C425.854 278.034 438.988 253.355 448.202 230.053C456.782 208.446 461.548 189.063 461.442 176.671C461.336 164.808 453.392 153.263 437.928 142.036C424.053 131.973 403.823 122.441 379.568 114.285C334.341 99.2447 277.357 90.1357 229.694 90.1357C228.105 90.1357 226.41 90.1357 224.821 90.1357C202.049 90.4535 178.959 99.3506 156.292 116.509C136.803 131.232 118.162 151.568 100.791 176.883C86.1746 198.278 73.0407 222.957 63.8259 246.259C55.2465 267.866 50.4802 287.355 50.5861 299.642C50.692 307.162 53.9755 314.576 60.3306 321.884C60.6483 322.202 60.9661 322.52 61.2838 322.944C54.3992 315.317 50.7979 307.585 50.692 299.642C50.4802 287.355 55.3524 267.866 63.9318 246.259C73.1467 222.957 86.2805 198.278 100.897 176.883C122.822 144.895 167.943 90.983 224.927 90.2416C226.516 90.2416 228.105 90.2416 229.799 90.2416C277.463 90.2416 334.446 99.3506 379.673 114.497C404.035 122.653 424.265 132.185 438.034 142.247C443.118 145.849 447.779 149.979 451.804 154.534C458.159 161.842 461.336 169.256 461.442 176.777C461.654 189.063 456.782 208.552 448.202 230.159C438.882 253.567 425.748 278.246 411.237 299.536C389.312 331.523 344.191 385.435 287.207 386.177C285.618 386.177 283.924 386.177 282.229 386.177C234.566 386.177 177.688 377.068 132.567 361.921C108.206 353.766 87.9752 344.233 74.2058 334.171C70.075 331.417 66.5797 328.451 63.7199 325.592ZM229.588 90.3475C227.999 90.3475 226.304 90.3475 224.715 90.3475C167.837 91.089 122.716 144.895 100.897 176.883C86.2805 198.384 73.1467 222.957 63.9318 246.365C55.3524 267.972 50.5861 287.355 50.7979 299.748C51.0098 311.504 58.8477 323.049 74.2058 334.171C87.9752 344.127 108.206 353.766 132.567 361.816C177.688 376.856 234.566 386.071 282.229 386.071C283.924 386.071 285.512 386.071 287.207 386.071C344.085 385.329 389.206 331.523 411.025 299.536C425.536 278.246 438.776 253.673 447.991 230.265C456.57 208.658 461.336 189.275 461.124 176.883C461.019 169.468 457.735 162.054 451.486 154.746C447.355 150.191 442.695 146.06 437.717 142.459C423.947 132.503 403.717 122.864 379.356 114.815C334.129 99.5624 277.251 90.3475 229.588 90.3475Z" fill="#9FBEED"/>
<path d="M290.488 393.379C269.304 393.379 245.261 391.472 220.37 387.871C193.361 383.952 166.67 378.232 143.474 371.242C118.477 363.828 97.611 355.036 83.2062 345.927C76.1097 341.373 70.3901 336.713 66.3652 332.052C61.1752 326.121 58.6332 320.083 58.5273 314.046C58.4214 302.395 62.764 282.271 70.6019 258.863C79.4991 232.277 90.9382 206.327 104.39 181.754C120.278 152.945 137.33 129.749 155.125 112.908C176.096 93.1011 197.174 82.827 218.04 82.6152C240.071 82.2974 265.915 84.2039 292.712 88.1229C319.721 92.0419 346.307 97.7615 369.609 104.752C394.605 112.166 415.471 120.958 429.876 130.066C446.081 140.341 454.449 151.038 454.555 161.948C454.661 173.599 450.318 193.723 442.48 217.131C433.583 243.717 422.144 269.666 408.692 294.239C392.805 323.155 375.752 346.245 357.958 363.086C337.092 382.893 315.908 393.167 295.042 393.379C293.559 393.379 291.971 393.379 290.488 393.379ZM100.047 190.122C88.5021 212.259 78.6517 235.349 70.7079 258.969C62.8699 282.377 58.5273 302.395 58.6332 314.046C58.7391 319.978 61.3871 326.015 66.4711 331.946C70.496 336.607 76.1097 341.267 83.2062 345.716C97.611 354.825 118.477 363.616 143.368 371.03C166.67 377.915 193.255 383.74 220.264 387.553C246.85 391.472 272.694 393.273 294.936 393.061C315.696 392.743 336.774 382.575 357.746 362.768C375.434 345.927 392.487 322.837 408.375 294.028C421.826 269.455 433.159 243.505 442.162 216.919C450 193.511 454.343 173.387 454.131 161.842C454.025 151.038 445.764 140.446 429.558 130.172C415.153 121.063 394.393 112.272 369.397 104.858C346.095 97.8674 319.509 92.1478 292.5 88.3348C265.703 84.4158 239.859 82.6152 217.828 82.827C197.068 83.1448 175.99 93.3129 155.019 113.12C137.966 129.325 121.549 151.356 106.19 178.683C121.549 151.356 138.072 129.219 155.125 113.12C175.99 93.3129 197.068 83.1448 217.828 82.9329C219.311 82.9329 220.794 82.9329 222.277 82.9329C266.656 82.9329 323.852 91.5123 369.291 104.964C394.393 112.378 415.153 121.169 429.452 130.278C436.549 134.833 442.162 139.387 446.187 144.048C451.271 149.979 453.919 155.91 453.919 161.948C454.025 173.599 449.683 193.617 441.951 217.025C433.053 243.611 421.72 269.561 408.163 294.028C392.275 322.837 375.222 346.033 357.534 362.768C336.668 382.575 315.59 392.743 294.83 392.955C293.348 392.955 291.865 392.955 290.382 392.955C245.896 392.955 188.806 384.376 143.368 370.924C118.265 363.51 97.5051 354.719 83.2062 345.61C67.0007 335.336 58.7391 324.744 58.6332 313.94C58.5273 302.289 62.8699 282.271 70.6019 258.863C78.6517 235.455 88.5021 212.259 100.047 190.122ZM222.383 83.1448C220.9 83.1448 219.417 83.1448 217.934 83.1448C197.174 83.4625 176.202 93.5247 155.336 113.331C137.648 130.066 120.595 153.263 104.708 182.072C91.256 206.645 79.9227 232.595 71.0256 259.075C63.2936 282.483 58.845 302.501 59.0569 314.046C59.1628 324.744 67.4244 335.336 83.5239 345.504C97.8229 354.613 118.583 363.298 143.685 370.818C189.124 384.376 246.214 392.849 290.7 392.849C292.182 392.849 293.665 392.849 295.148 392.849C315.908 392.531 336.88 382.469 357.746 362.663C375.434 345.927 392.487 322.731 408.375 293.922C421.826 269.349 433.159 243.399 442.057 216.919C449.789 193.511 454.237 173.493 454.025 161.948C453.919 156.016 451.377 150.085 446.293 144.259C442.268 139.599 436.655 135.045 429.558 130.49C415.259 121.381 394.499 112.696 369.397 105.176C323.852 91.6182 266.762 83.1448 222.383 83.1448Z" fill="#9FBEED"/>
<path d="M298.749 400.37C279.26 400.37 256.17 398.675 231.703 395.392C204.8 391.79 178.108 386.706 154.489 380.457C128.751 373.678 107.249 365.735 92.4208 357.579C83.7355 352.813 77.1686 347.834 72.9319 342.962C68.907 338.302 66.7886 333.43 66.6827 328.663C66.5768 317.966 70.6017 296.676 77.4863 271.891C85.5361 243.081 95.8102 214.484 107.991 187.157C122.502 154.746 137.966 128.69 153.853 109.942C172.919 87.4879 192.09 75.9428 210.943 75.731C231.173 75.5191 255.852 77.1079 282.12 80.6032C309.023 84.2044 335.715 89.2885 359.334 95.5376C385.072 102.316 406.574 110.26 421.402 118.416C438.349 127.843 447.034 137.481 447.14 147.332C447.246 158.029 443.221 179.319 436.337 204.104C428.287 232.913 418.013 261.511 405.832 288.838C391.322 321.249 375.857 347.305 359.97 366.052C340.905 388.507 321.733 400.052 302.88 400.264C301.609 400.37 300.232 400.37 298.749 400.37ZM73.1437 342.75C77.4863 347.729 83.9473 352.601 92.6326 357.367C107.461 365.523 128.963 373.467 154.701 380.245C178.32 386.495 205.012 391.684 231.915 395.18C256.382 398.463 279.366 400.158 298.855 400.158C300.232 400.158 301.715 400.158 303.092 400.158C321.945 399.946 341.116 388.401 360.076 365.946C375.963 347.093 391.427 321.143 405.938 288.732C418.119 261.405 428.287 232.807 436.443 203.998C443.327 179.213 447.458 157.923 447.246 147.226C447.14 137.481 438.455 127.843 421.614 118.522C406.786 110.366 385.284 102.422 359.546 95.6436C335.926 89.3944 309.235 84.2044 282.332 80.7091C255.958 77.2138 231.385 75.5191 211.155 75.8369C192.302 76.0487 173.13 87.5938 154.171 110.048C138.283 128.902 122.819 154.852 108.309 187.263C96.1279 214.695 85.9598 243.187 77.8041 271.997C70.9194 296.888 66.7886 318.071 67.0005 328.769C67.0005 333.324 69.1188 338.09 73.1437 342.75ZM298.855 400.158C257.547 400.158 200.245 392.32 154.701 380.245C128.963 373.467 107.567 365.523 92.6326 357.367C75.6857 347.94 67.1064 338.302 67.0005 328.557C66.8945 317.86 70.9194 296.676 77.8041 271.785C85.8539 242.976 96.1279 214.484 108.309 187.051C122.819 154.64 138.283 128.69 154.171 109.837C173.13 87.3819 192.302 75.9428 211.155 75.625C252.675 75.0955 312.307 83.0393 359.546 95.5376C385.284 102.316 406.68 110.26 421.614 118.416C430.299 123.182 436.866 128.16 441.103 133.033C445.128 137.693 447.246 142.459 447.246 147.12C447.352 157.817 443.327 179.001 436.443 203.892C428.393 232.702 418.119 261.193 405.938 288.626C391.427 321.037 375.963 346.987 360.076 365.84C341.116 388.295 321.945 399.734 303.092 400.052C301.609 400.158 300.232 400.158 298.855 400.158ZM215.18 75.9428C213.803 75.9428 212.426 75.9428 211.049 75.9428C192.302 76.1546 173.236 87.6997 154.277 110.048C138.389 128.796 122.925 154.852 108.414 187.157C96.2338 214.484 86.0657 243.081 77.91 271.891C71.0253 296.676 66.8945 317.86 67.1064 328.557C67.2123 338.196 75.7917 347.834 92.6326 357.049C107.461 365.205 128.857 373.149 154.595 379.928C200.139 392.002 257.441 399.84 298.749 399.84C300.126 399.84 301.503 399.84 302.88 399.84C321.627 399.628 340.799 388.083 359.652 365.735C375.54 346.881 391.004 320.931 405.515 288.626C417.695 261.299 427.863 232.702 436.019 203.892C442.904 179.001 447.034 157.817 446.823 147.226C446.717 142.565 444.704 137.905 440.679 133.244C436.443 128.372 429.876 123.394 421.296 118.628C406.468 110.472 385.072 102.528 359.334 95.7495C313.684 83.7807 256.488 75.9428 215.18 75.9428Z" fill="#9FBEED"/>
<path d="M307.118 407.361C268.882 407.361 211.58 400.158 165.717 389.566C139.238 383.423 117.101 376.327 101.849 369.018C91.5747 364.146 84.1604 359.062 79.8178 354.084C76.6403 350.483 75.0515 346.776 74.9456 343.068C74.8397 333.218 78.5468 310.869 84.5841 284.602C91.7865 253.356 101.001 222.322 111.805 192.135C124.833 156.123 138.708 127.313 152.901 106.447C169.954 81.3449 187.219 68.5288 204.272 68.2111C205.543 68.2111 206.814 68.2111 208.085 68.2111C246.321 68.2111 303.623 75.4135 349.485 86.0053C375.965 92.1486 398.102 99.2451 413.354 106.553C431.042 115.027 440.151 123.712 440.257 132.609C440.363 142.46 436.656 164.808 430.618 191.076C423.416 222.322 414.201 253.356 403.397 283.542C390.37 319.555 376.494 348.364 362.301 369.23C345.248 394.333 327.984 407.149 310.931 407.467C309.66 407.361 308.389 407.361 307.118 407.361ZM79.9237 353.978C84.2664 358.956 91.6806 364.04 101.849 368.912C117.101 376.221 139.238 383.317 165.717 389.461C211.58 400.052 268.882 407.255 307.012 407.255C308.283 407.255 309.66 407.255 310.931 407.255C327.878 407.043 345.037 394.227 362.089 369.124C376.282 348.258 390.052 319.449 403.186 283.437C413.989 253.25 423.204 222.216 430.407 190.97C436.444 164.702 440.151 142.354 440.045 132.503C439.939 123.818 430.936 115.133 413.248 106.659C397.89 99.351 375.859 92.2545 349.379 86.1112C303.517 75.5194 246.215 68.317 207.979 68.317C206.708 68.317 205.331 68.317 204.166 68.317C187.219 68.5288 170.06 81.3449 153.007 106.447C138.814 127.313 125.045 156.123 111.911 192.135C101.107 222.322 91.9984 253.356 84.69 284.602C78.6527 310.869 74.9456 333.218 75.0515 343.068C75.1574 346.67 76.8521 350.377 79.9237 353.978ZM307.118 407.149C268.987 407.149 211.58 399.946 165.717 389.355C139.238 383.211 117.207 376.115 101.849 368.807C84.2664 360.439 75.2633 351.754 75.1574 342.962C75.0515 333.112 78.6527 310.763 84.7959 284.496C91.9984 253.25 101.213 222.216 112.017 192.029C125.045 156.123 138.92 127.207 153.113 106.342C170.166 81.3449 187.325 68.5288 204.272 68.2111C242.402 67.6815 302.034 74.9898 349.485 86.0053C375.965 92.1486 397.996 99.2451 413.354 106.553C423.522 111.426 430.936 116.404 435.279 121.488C438.35 125.089 440.045 128.796 440.045 132.397C440.151 142.142 436.444 164.597 430.407 190.864C423.204 222.004 413.989 253.144 403.186 283.331C390.158 319.237 376.282 348.152 362.089 369.018C345.037 394.015 327.878 406.831 310.931 407.149C309.766 407.149 308.495 407.149 307.118 407.149ZM208.085 68.6348C206.814 68.6348 205.437 68.6348 204.166 68.6348C187.325 68.8466 170.166 81.6627 153.219 106.659C139.026 127.525 125.257 156.335 112.229 192.241C101.425 222.322 92.3161 253.462 85.0078 284.602C78.9705 310.763 75.2633 333.218 75.3692 342.962C75.4752 351.542 84.4782 360.227 101.955 368.595C117.207 375.903 139.344 383 165.717 389.037C211.58 399.629 268.882 406.831 307.012 406.831C308.283 406.831 309.554 406.831 310.825 406.831C327.666 406.619 344.825 393.803 361.772 368.807C375.965 347.941 389.734 319.131 402.762 283.225C413.566 253.144 422.78 222.004 429.983 190.864C436.02 164.597 439.727 142.248 439.621 132.503C439.516 128.902 437.927 125.301 434.855 121.7L434.961 121.594L434.855 121.7C430.512 116.722 423.204 111.743 412.93 106.871C397.678 99.5628 375.541 92.4663 349.167 86.429C303.623 75.8372 246.321 68.6348 208.085 68.6348Z" fill="#9FBEED"/>
<path d="M315.38 414.351C280.003 414.351 222.701 407.89 176.839 398.781C163.281 396.027 143.369 391.579 125.68 385.859C105.768 379.398 92.7399 372.725 86.8085 365.947C84.3724 363.193 83.2073 360.333 83.1014 357.579C82.8895 341.056 94.9642 267.549 115.512 197.325C127.057 157.818 139.238 126.148 151.736 103.164C166.883 75.4135 182.241 61.2205 197.281 61.0086C232.022 60.585 291.866 67.1519 339.423 76.5786C374.27 83.5692 432.843 98.1859 433.161 117.781C433.372 134.516 421.192 208.023 400.644 278.035C389.099 317.542 376.918 349.212 364.42 372.09C349.273 399.84 333.915 414.034 318.875 414.245C317.816 414.351 316.545 414.351 315.38 414.351ZM87.0203 365.735C92.9517 372.514 105.98 379.186 125.786 385.647C143.475 391.367 163.281 395.816 176.839 398.569C222.595 407.784 280.003 414.139 315.274 414.139C316.545 414.139 317.71 414.139 318.875 414.139C333.915 413.928 349.168 399.735 364.208 372.09C376.706 349.212 388.887 317.542 400.432 278.035C420.874 208.023 433.055 134.516 432.843 117.781C432.737 109.201 421.298 100.728 399.055 92.5722C379.672 85.4757 355.84 80.0739 339.317 76.6845C293.349 67.4696 236.047 61.1145 200.882 61.1145C199.611 61.1145 198.446 61.1145 197.281 61.1145C182.241 61.3264 166.988 75.5194 151.948 103.164C139.45 126.042 127.269 157.712 115.724 197.219C95.282 267.549 83.1014 340.95 83.3132 357.473C83.4191 360.227 84.5842 363.087 87.0203 365.735ZM315.38 414.139C280.215 414.139 222.807 407.678 176.945 398.464C149.724 393.062 127.057 386.813 111.276 380.352C92.9518 372.937 83.525 365.205 83.4191 357.473C83.2073 340.844 95.3879 267.443 115.83 197.325C127.375 157.818 139.556 126.148 152.054 103.27C167.2 75.6253 182.452 61.4323 197.387 61.2205C198.552 61.2205 199.717 61.2205 200.988 61.2205C236.153 61.2205 293.455 67.6815 339.423 76.7904C366.644 82.1922 389.31 88.5473 405.092 94.9024C416.955 99.7746 425.005 104.647 429.347 109.519C431.678 112.273 432.949 115.027 432.949 117.781C433.161 134.41 421.086 207.811 400.538 277.929C388.993 317.436 376.812 349.106 364.314 371.984C349.168 399.629 333.915 413.822 318.981 414.033C317.816 414.139 316.545 414.139 315.38 414.139ZM200.988 61.4323C199.717 61.4323 198.552 61.4323 197.387 61.4323C182.452 61.6441 167.306 75.7312 152.16 103.376C139.662 126.254 127.481 157.924 115.936 197.431C95.4938 267.443 83.4191 340.844 83.631 357.473C83.7369 365.099 93.0577 372.725 111.276 380.14C127.057 386.495 149.724 392.85 176.945 398.252C222.913 407.467 280.215 413.822 315.38 413.822C316.545 413.822 317.816 413.822 318.981 413.822C333.915 413.61 349.062 399.523 364.208 371.878C376.706 349 388.887 317.33 400.432 277.823C420.98 207.705 433.055 134.304 432.843 117.675C432.843 115.027 431.572 112.273 429.242 109.625C425.005 104.753 416.849 99.8806 405.092 95.0083C389.31 88.6532 366.644 82.2982 339.423 76.8963C293.455 67.8933 236.153 61.4323 200.988 61.4323Z" fill="#9FBEED"/>
<path d="M323.96 421.342C295.997 421.342 240.284 416.788 187.961 407.89C158.092 402.806 106.298 392.215 94.0115 378.127C92.2109 376.115 91.3635 373.997 91.3635 371.984C91.1517 357.685 101.532 278.776 119.326 202.409C135.108 134.834 160.21 54.1241 190.609 53.8063C217.3 53.3826 275.131 58.043 329.573 67.2579C346.732 70.2236 371.305 74.9899 391.218 81.1332C414.308 88.2297 426.065 95.7499 426.17 103.164C426.382 117.463 416.002 196.372 398.208 272.739C382.426 340.315 357.324 421.024 326.925 421.342C325.972 421.342 325.019 421.342 323.96 421.342ZM176.945 405.666C180.864 406.408 184.571 407.043 188.067 407.679C240.39 416.576 296.103 421.13 324.065 421.13C325.125 421.13 326.078 421.13 327.031 421.13C340.589 420.918 354.358 404.501 367.916 372.09C378.296 347.517 388.358 314.047 397.996 272.633C415.791 196.266 426.171 117.357 425.959 103.058C425.959 99.6688 423.417 96.3854 419.18 93.3137C420.875 94.4788 422.252 95.7499 423.311 97.0209C425.005 99.0333 425.959 101.046 425.959 103.058C426.171 117.357 415.791 196.266 397.996 272.633C387.934 315.742 377.342 350.271 366.539 375.162C353.405 405.454 340.059 420.918 326.925 421.13C298.221 421.554 244.415 416.576 198.976 409.479C191.244 408.208 183.936 406.937 176.945 405.666ZM193.892 54.23C192.727 54.23 191.668 54.23 190.609 54.23C177.581 54.4418 164.341 69.7999 151.207 100.092C140.404 124.983 129.812 159.407 119.75 202.515C101.955 278.776 91.5754 357.685 91.7872 371.984C91.7872 373.997 92.6345 375.903 94.3292 377.916C115.937 402.806 266.552 420.918 323.536 420.918C324.701 420.918 325.76 420.918 326.819 420.918C339.847 420.706 353.087 405.348 366.221 375.056C377.024 350.165 387.616 315.742 397.679 272.633C415.473 196.266 425.853 117.463 425.641 103.164C425.641 101.258 424.794 99.2452 422.993 97.2327C401.492 72.342 250.982 54.23 193.892 54.23ZM193.786 53.9122C192.727 53.9122 191.668 53.9122 190.609 53.9122C160.422 54.3359 135.32 134.834 119.538 202.409C101.743 278.882 91.3635 357.685 91.5754 371.984C91.5754 373.573 92.2109 375.162 93.2701 376.645C92.2109 375.056 91.6813 373.467 91.6813 371.984C91.4694 357.685 101.849 278.776 119.644 202.409C129.706 159.301 140.298 124.771 151.101 99.8807C164.235 69.5881 177.581 54.1241 190.715 53.9122C191.774 53.9122 192.833 53.9122 193.998 53.9122C223.443 53.9122 274.92 58.6785 318.664 65.5632C329.15 67.2579 339 68.9526 348.215 70.7532C341.648 69.4822 335.293 68.3171 329.573 67.3638C277.144 58.5726 221.643 53.9122 193.786 53.9122Z" fill="#9FBEED"/>
<path d="M332.221 428.332C306.483 428.332 249.817 424.095 199.082 416.999C169.955 412.868 146.547 408.42 129.706 403.653C114.771 399.417 105.239 395.074 101.426 390.731C100.155 389.248 99.5192 387.871 99.5192 386.389C99.3074 372.937 108.522 287.037 123.033 207.493C136.379 134.198 157.774 46.8153 183.724 46.4976C184.571 46.4976 185.525 46.4976 186.478 46.4976C212.216 46.4976 268.776 50.7343 319.511 57.8308C348.638 61.9616 372.046 66.4101 388.887 71.1765C408.8 76.7901 418.968 82.6156 419.074 88.4411C419.286 101.893 410.071 187.792 395.56 267.337C382.214 340.632 360.819 428.014 334.975 428.332C334.022 428.332 333.174 428.332 332.221 428.332ZM186.478 46.7094C185.525 46.7094 184.571 46.7094 183.724 46.7094C172.179 46.8153 160.422 64.7155 148.877 99.7743C140.086 126.466 131.506 162.69 123.245 207.493C108.734 287.037 99.5192 372.937 99.731 386.389C99.731 387.766 100.367 389.248 101.638 390.625C105.451 394.968 114.877 399.311 129.812 403.441C146.653 408.208 169.955 412.656 199.188 416.787C251.723 424.201 310.614 428.438 334.975 428.12C346.52 427.909 358.277 410.114 369.822 375.055C378.613 348.364 387.193 312.14 395.454 267.337C409.965 187.792 419.18 101.893 418.968 88.4411C418.862 82.7215 408.8 77.002 388.993 71.3883C372.152 66.622 348.85 62.1734 319.617 58.0426C268.776 50.9461 212.322 46.7094 186.478 46.7094ZM332.115 428.12C306.271 428.12 249.711 423.884 199.188 416.787C135.32 407.784 100.049 396.98 99.837 386.389C99.6251 372.937 108.84 287.037 123.351 207.493C136.696 134.304 157.986 47.0271 183.724 46.7094C184.571 46.7094 185.525 46.7094 186.478 46.7094C212.216 46.7094 268.776 50.9461 319.405 58.0426C375.118 65.8806 408.8 74.9895 416.85 84.2044C418.015 85.5813 418.65 86.9583 418.65 88.3352C418.862 101.787 409.647 187.686 395.136 267.231C381.791 340.42 360.501 427.697 334.763 428.014C334.022 428.12 333.069 428.12 332.115 428.12ZM186.478 46.9212C185.525 46.9212 184.571 46.9212 183.724 46.9212C172.285 47.1331 160.528 64.9273 149.089 99.8803C140.298 126.572 131.718 162.796 123.563 207.493C109.052 287.037 99.837 372.937 100.049 386.389C100.155 396.874 135.425 407.572 199.188 416.575C251.618 423.99 310.508 428.226 334.869 427.909C346.308 427.697 358.065 409.902 369.504 374.949C378.295 348.258 386.875 312.034 395.031 267.337C409.541 187.792 418.756 101.999 418.544 88.547C418.544 87.1701 417.909 85.8991 416.744 84.5221C412.825 79.9677 402.445 75.4132 385.922 70.9646C369.398 66.5161 346.944 62.2793 319.405 58.3604C268.776 51.1579 212.322 46.9212 186.478 46.9212Z" fill="#9FBEED"/>
<path d="M340.271 435.323C316.757 435.323 259.455 431.722 210.203 426.108C180.228 422.719 156.291 419.011 139.026 415.198C122.503 411.491 112.441 407.678 109.052 403.759C108.31 403.018 107.781 401.959 107.781 400.794C107.675 391.261 114.559 301.337 126.846 212.577C133.836 162.266 141.145 122.123 148.665 93.2075C157.986 57.5132 167.412 39.4012 176.839 39.1893C198.552 38.8716 258.29 42.5787 309.449 48.4042C339.423 51.7936 363.361 55.5007 380.625 59.3138C401.279 63.9742 411.765 68.7405 411.871 73.6127C411.977 83.2513 405.092 173.388 392.806 261.829C385.815 312.14 378.507 352.283 370.987 381.199C361.666 416.893 352.239 435.005 342.813 435.217C341.965 435.323 341.118 435.323 340.271 435.323ZM179.487 39.5071C178.64 39.5071 177.792 39.5071 176.945 39.5071C167.624 39.613 158.197 57.725 148.983 93.3135C141.462 122.229 134.154 162.372 127.164 212.683C114.771 301.442 107.886 391.367 107.992 400.899C108.098 401.959 108.522 402.912 109.263 403.653C112.653 407.466 122.609 411.279 139.132 414.987C156.397 418.906 180.334 422.507 210.309 425.896C259.561 431.404 316.757 435.111 340.271 435.111C341.224 435.111 342.071 435.111 342.813 435.111C352.133 435.005 361.56 416.893 370.775 381.305C378.295 352.389 385.604 312.246 392.594 261.935C404.881 173.493 411.765 83.3572 411.659 73.7186C411.554 68.9523 401.174 64.186 380.52 59.6315C363.255 55.7126 339.317 52.1113 309.343 48.722C260.303 43.1083 203.001 39.5071 179.487 39.5071ZM340.377 435.111C316.757 435.111 259.349 431.51 210.203 425.896C180.334 422.507 156.397 418.8 139.026 414.987C118.478 410.432 107.992 405.666 107.992 400.899C107.886 391.261 114.771 301.231 127.058 212.683C137.967 133.88 155.55 39.8249 176.839 39.5071C198.764 39.1893 258.502 42.8965 309.449 48.6161C339.317 52.0054 363.361 55.7126 380.625 59.5256C397.149 63.2327 407.105 67.0458 410.494 70.8588C411.236 71.6003 411.659 72.6594 411.765 73.6127C411.871 83.2513 404.987 173.282 392.7 261.829C386.027 310.128 378.931 349.106 371.728 377.809C362.196 415.622 352.557 434.899 342.919 435.005C342.071 435.111 341.224 435.111 340.377 435.111ZM179.381 39.7189C178.534 39.7189 177.686 39.7189 176.945 39.7189C167.412 39.8249 157.774 58.996 148.347 96.7028C141.145 125.407 134.048 164.384 127.375 212.683C115.089 301.231 108.204 391.261 108.31 400.899C108.416 405.56 118.796 410.22 139.238 414.775C156.503 418.694 180.44 422.295 210.415 425.684C259.561 431.192 316.969 434.899 340.588 434.899C341.436 434.899 342.283 434.899 343.025 434.899C352.557 434.793 362.196 415.622 371.622 377.915C378.825 349.211 385.921 310.234 392.594 261.935C404.881 173.387 411.765 83.3572 411.659 73.7186C411.554 72.7654 411.13 71.8121 410.494 71.0707C407.211 67.2576 397.255 63.5505 380.731 59.8434C363.467 55.9244 339.529 52.3232 309.554 48.9338C260.408 43.3201 202.895 39.7189 179.381 39.7189Z" fill="#9FBEED"/>
<path d="M348.532 442.314C329.361 442.314 273.118 439.772 221.325 435.323C177.58 431.616 123.88 425.367 116.783 417.211C116.254 416.682 116.042 416.046 115.936 415.411C115.83 406.302 121.232 310.976 130.553 217.768C135.955 163.855 141.674 120.853 147.606 89.9246C154.914 51.5822 162.434 32.0933 170.06 31.9874C186.901 31.7756 245.58 34.4235 299.492 38.978C328.831 41.52 352.663 44.2739 370.034 47.1337C393.018 50.9467 404.775 54.8657 404.775 58.9965C404.881 68.2114 399.479 163.644 390.158 256.64C384.756 310.552 379.037 353.555 373.105 384.483C365.797 422.825 358.277 442.314 350.651 442.42C350.121 442.314 349.379 442.314 348.532 442.314ZM172.284 32.1992C171.437 32.1992 170.802 32.1992 170.06 32.1992C162.646 32.3052 155.126 51.6882 147.817 89.9246C141.886 120.853 136.166 163.855 130.765 217.768C121.444 310.87 116.042 406.196 116.254 415.305C116.254 415.94 116.572 416.576 116.995 417C120.914 421.448 142.098 428.227 221.43 435.006C275.449 439.666 334.127 442.208 350.862 441.996C358.277 441.89 365.797 422.507 373.105 384.271C379.037 353.449 384.756 310.446 390.158 256.428C399.479 163.538 404.881 67.9995 404.775 58.8906C404.669 51.9 368.339 45.0153 299.598 39.1898C247.804 34.8472 191.562 32.1992 172.284 32.1992ZM348.532 442.102C329.255 442.102 273.118 439.56 221.325 435.112C182.135 431.722 116.36 424.732 116.148 415.411C116.042 406.196 121.444 310.764 130.765 217.874C139.238 133.351 153.007 32.6229 169.954 32.4111C170.59 32.4111 171.331 32.4111 172.179 32.4111C191.35 32.4111 247.486 34.9531 299.386 39.4017C330.314 42.0496 355.099 44.9094 372.893 47.981C390.688 51.0527 401.067 54.2302 403.821 57.4077C404.245 57.8314 404.563 58.4669 404.563 59.1024C404.669 68.1055 399.373 163.114 389.946 256.64C381.473 341.162 367.703 441.89 350.756 442.102C350.121 442.102 349.379 442.102 348.532 442.102ZM172.284 32.517C171.543 32.517 170.802 32.517 170.06 32.517C160.739 32.6229 146.441 64.9279 131.082 217.874C121.762 310.658 116.36 406.196 116.466 415.305C116.466 419.224 130.235 426.956 221.43 434.794C273.224 439.242 329.361 441.784 348.638 441.784C349.485 441.784 350.227 441.784 350.862 441.784C360.183 441.678 374.482 409.373 389.84 256.428C399.267 162.902 404.669 67.8936 404.457 58.8906C404.457 58.2551 404.139 57.7255 403.715 57.3018C398.314 51.0527 361.242 44.6976 299.492 39.4017C247.592 35.059 191.456 32.517 172.284 32.517Z" fill="#9FBEED"/>
<path d="M356.899 449.304C341.117 449.304 284.98 447.504 232.551 444.432C201.093 442.526 175.885 440.513 157.773 438.289C137.86 435.853 127.056 433.523 124.832 430.875C124.514 430.557 124.409 430.239 124.409 429.815C124.303 423.672 127.904 323.156 134.577 222.852C138.39 165.338 142.521 119.476 146.863 86.641C149.405 67.258 151.947 52.2176 154.595 41.9436C157.561 30.3985 160.421 24.7849 163.492 24.7849C175.885 24.573 234.669 26.3736 289.747 29.6571C321.204 31.5636 346.413 33.5761 364.525 35.8003C386.979 38.4483 397.889 41.3081 397.995 44.2738C398.101 50.6289 394.394 152.098 387.827 251.238C384.014 308.751 379.883 354.614 375.54 387.448C372.998 406.831 370.456 421.872 367.808 432.146C364.842 443.691 361.983 449.304 358.911 449.304C358.17 449.304 357.534 449.304 356.899 449.304ZM165.293 24.9967C164.551 24.9967 163.81 24.9967 163.28 24.9967C160.315 24.9967 157.455 30.6104 154.595 41.9436C151.947 52.2176 149.405 67.258 146.863 86.641C142.626 119.582 138.496 165.338 134.577 222.852C127.904 323.156 124.303 423.672 124.409 429.71C124.409 430.027 124.62 430.345 124.832 430.663C127.056 433.205 137.754 435.641 157.667 437.971C175.779 440.195 200.987 442.208 232.445 444.114C284.874 447.292 341.117 448.987 356.793 448.987C357.534 448.987 358.17 448.987 358.699 448.987C361.665 448.987 364.525 443.373 367.385 432.04C370.032 421.766 372.575 406.725 375.117 387.342C379.353 354.508 383.484 308.645 387.403 251.132C394.076 151.992 397.677 50.6289 397.571 44.2738C397.571 41.414 386.344 38.6601 364.313 36.0122C346.095 33.7879 320.992 31.7755 289.535 29.8689C236.999 26.6914 181.075 24.9967 165.293 24.9967ZM356.793 449.093C340.905 449.093 284.768 447.292 232.445 444.22C194.632 441.996 130.446 437.23 124.832 430.769C124.62 430.557 124.409 430.239 124.409 429.815C124.303 423.672 127.904 322.838 134.577 222.852C138.919 158.559 143.474 108.99 148.346 75.5196C153.218 42.0495 158.196 24.9967 163.175 24.9967C163.704 24.9967 164.34 24.9967 165.081 24.9967C180.969 24.9967 237.211 26.7973 289.429 29.8689C327.242 32.0932 391.428 36.8595 397.042 43.3205C397.253 43.5324 397.465 43.8501 397.465 44.2738C397.571 50.5229 393.97 151.357 387.297 251.238C382.955 315.53 378.4 365.1 373.528 398.57C368.656 432.04 363.677 449.093 358.699 449.093C358.17 449.093 357.534 449.093 356.793 449.093ZM165.187 25.2085C164.446 25.2085 163.81 25.2085 163.28 25.2085C158.408 25.3145 153.43 42.2613 148.664 75.6255C143.897 108.99 139.237 158.559 134.894 222.958C128.222 322.944 124.62 423.672 124.726 429.815C124.726 430.133 124.832 430.345 125.044 430.557C129.175 435.323 167.305 440.09 232.551 443.903C284.874 447.08 341.011 448.775 356.899 448.775C357.64 448.775 358.276 448.775 358.805 448.775C363.677 448.669 368.656 431.722 373.422 398.358C378.294 364.888 382.849 315.424 387.191 251.026C393.864 151.251 397.465 50.3111 397.359 44.1679C397.359 43.8501 397.253 43.6383 397.042 43.4264C392.911 38.6601 354.78 33.8938 289.535 30.0808C237.317 27.0091 181.075 25.2085 165.187 25.2085Z" fill="#9FBEED"/>
<path d="M365.054 456.295C352.874 456.295 298.326 455.448 243.566 453.541C211.156 452.376 185.312 451.211 166.882 449.834C156.184 449.093 147.817 448.245 141.991 447.292C136.483 446.445 133.412 445.597 132.564 444.75C132.458 444.644 132.353 444.432 132.353 444.22C132.353 440.195 134.153 332.583 138.072 227.936C140.614 158.559 143.474 105.494 146.546 70.4356C149.617 34.8471 152.795 17.4766 156.396 17.4766C164.022 17.3706 221.536 18.218 279.473 20.2304C311.884 21.3955 337.728 22.5606 356.157 23.9376C367.067 24.7849 375.54 25.6323 381.048 26.4796C389.522 27.7506 390.687 28.8098 390.687 29.5512C390.793 33.4702 388.886 140.13 384.967 245.836C382.425 315.212 379.565 368.277 376.494 403.336C373.422 438.924 370.244 456.295 366.643 456.295C366.325 456.295 365.796 456.295 365.054 456.295ZM151.418 31.4577C149.829 40.2489 148.346 53.3828 146.757 70.5415C143.686 105.6 140.932 158.559 138.284 228.042C134.365 332.689 132.458 440.196 132.564 444.326C132.564 444.432 132.67 444.644 132.776 444.75C133.518 445.597 136.589 446.445 141.991 447.186C147.817 448.033 156.184 448.881 166.882 449.622C185.312 450.999 211.05 452.164 243.461 453.329C301.292 455.342 358.805 456.189 366.537 456.083C366.643 456.083 366.855 456.083 366.961 455.977C366.855 456.083 366.643 456.083 366.537 456.083C366.22 456.083 365.69 456.083 365.16 456.083C353.298 456.083 298.008 455.236 243.461 453.329C174.826 450.999 135.53 447.928 132.67 444.644C132.564 444.538 132.458 444.432 132.458 444.22C132.458 440.09 134.259 332.371 138.178 227.936C140.72 159.619 143.58 106.871 146.546 71.3889C148.346 53.7005 149.829 40.3549 151.418 31.4577ZM158.197 18.0062C157.455 18.0062 156.926 18.0062 156.502 18.0062C154.278 18.0062 150.888 27.3269 147.075 71.4948C144.004 106.977 141.25 159.725 138.708 228.042C134.789 332.371 132.882 440.196 132.988 444.326C132.988 444.432 132.988 444.538 133.094 444.644C135.848 447.822 175.143 450.893 243.672 453.223C300.868 455.236 358.805 456.083 366.749 455.977C368.973 455.977 372.363 446.657 376.176 402.489C379.247 367.006 382.001 314.365 384.543 245.942C388.462 140.024 390.369 33.5761 390.263 29.6571C390.263 29.5512 390.157 29.4453 390.157 29.4453C387.403 26.2678 348.108 23.3021 279.579 20.8659C224.819 18.8535 170.483 18.0062 158.197 18.0062ZM390.263 29.1275C390.369 29.2335 390.475 29.3394 390.475 29.5512C390.581 33.4702 388.674 139.918 384.755 245.836C382.213 314.259 379.353 366.9 376.388 402.383C375.329 414.775 374.269 425.049 373.21 433.099C374.269 425.155 375.329 415.199 376.388 403.23C379.459 368.171 382.213 315.212 384.861 245.73C388.78 140.024 390.687 33.3643 390.581 29.4453C390.581 28.3861 387.509 27.4329 381.154 26.5855C375.54 25.7382 367.173 24.8908 356.263 24.0435C337.834 22.6665 312.095 21.5015 279.685 20.3364C221.747 18.3239 164.234 17.4766 156.608 17.5825C156.184 17.5825 155.655 17.9002 155.231 18.6417C155.655 18.0062 156.184 17.5825 156.608 17.5825C164.34 17.4766 221.853 18.3239 279.685 20.3364C348.108 22.8784 387.509 25.95 390.263 29.1275Z" fill="#9FBEED"/>
<path d="M367.704 463.285C350.015 463.285 301.928 463.179 254.689 462.65C209.462 462.226 177.157 461.485 158.727 460.743C143.369 460.002 141.039 459.366 140.721 458.943C140.615 458.837 140.615 458.731 140.615 458.731C140.615 456.613 140.721 346.034 141.886 233.126C142.522 168.198 143.475 116.722 144.534 79.968C146.547 10.2739 148.771 10.2739 149.618 10.2739C153.114 10.2739 211.474 10.2739 269.517 10.8035C318.134 11.3331 351.71 11.9686 369.292 12.9219C383.697 13.6633 383.697 14.2988 383.697 14.8284C383.697 16.9468 383.591 127.631 382.426 240.434C381.791 305.044 380.837 356.52 379.778 393.485C377.766 463.179 375.541 463.179 374.694 463.179C374.059 463.285 371.623 463.285 367.704 463.285ZM140.933 458.837C142.416 460.532 181.711 461.697 254.795 462.438C312.308 463.074 371.093 463.074 374.694 463.074C375.012 463.074 375.647 463.074 376.601 454.494C377.66 443.796 378.719 423.248 379.566 393.591C380.626 356.626 381.473 305.044 382.214 240.54C383.379 127.737 383.591 17.0527 383.485 14.9343C383.485 13.2396 345.143 11.9686 269.623 11.1213C211.58 10.4858 153.219 10.4858 149.724 10.5917C149.406 10.5917 148.771 10.5917 147.818 19.171C146.758 29.8688 145.699 50.4169 144.852 80.0739C143.793 116.722 142.945 168.304 142.204 233.126C141.039 346.034 140.827 456.613 140.933 458.731C140.827 458.837 140.827 458.837 140.933 458.837ZM366.538 463.074C348.215 463.074 302.034 462.968 255.113 462.438C222.384 462.12 195.904 461.697 176.733 461.167C153.219 460.532 141.145 459.684 140.933 458.731C140.933 455.871 141.039 344.551 142.204 233.126C142.84 168.939 143.793 117.463 144.852 79.968C145.487 58.1489 146.229 41.202 146.97 29.551C147.818 16.8408 148.665 10.4858 149.724 10.4858C153.219 10.4858 211.051 10.4858 269.306 11.0154C302.246 11.3331 328.62 11.7568 347.685 12.2864C370.246 12.9219 382.638 13.7692 383.379 14.6166V14.7225C383.379 16.8408 383.273 127.102 382.108 240.328C381.473 304.197 380.52 355.673 379.46 393.379C378.825 415.305 378.083 432.251 377.342 443.796C376.495 456.507 375.647 462.862 374.588 462.862C373.953 463.074 371.093 463.074 366.538 463.074ZM157.35 10.6976C153.008 10.6976 150.254 10.6976 149.618 10.6976C149.301 10.6976 148.241 12.0745 147.076 29.551C146.335 41.202 145.593 58.1489 144.958 79.968C143.899 117.463 142.945 168.939 142.31 233.02C141.145 344.551 140.933 455.871 141.039 458.625C141.145 458.943 144.958 459.896 176.627 460.849C195.904 461.379 222.278 461.803 255.007 462.12C313.685 462.756 371.199 462.756 374.588 462.65C374.906 462.65 375.965 461.273 377.13 443.796C377.872 432.251 378.613 415.305 379.249 393.379C380.308 355.673 381.261 304.197 381.897 240.328C383.062 127.313 383.168 17.3704 383.168 14.7225C382.85 14.2988 378.719 13.3455 347.579 12.4982C328.514 11.9686 302.14 11.5449 269.2 11.2272C222.278 10.9094 175.568 10.6976 157.35 10.6976Z" fill="#9FBEED"/>
<path d="M148.877 473.454V473.242L142.628 3.07162H142.84L376.601 0V0.211837L382.85 470.382H382.638L148.877 473.454ZM142.734 3.28346L148.983 473.242L382.532 470.17L376.283 0.211837L142.734 3.28346ZM149.089 473.136V473.03L142.734 3.28346H142.84L376.283 0.105918V0.211837L382.638 469.958H382.532L149.089 473.136ZM143.052 3.49529L149.301 472.924L382.426 469.852L376.071 0.423672L143.052 3.49529Z" fill="#9FBEED"/>
<g clip-path="url(#clip0_2270_28600)">
<path d="M472.579 282.248V295.972H89.0029V283.218L245.095 282.803L296.247 282.664L472.579 282.248Z" fill="#2D72B0"/>
<path d="M472.578 270.327V282.249L296.247 282.665V270.327H452.062H472.578Z" fill="#206692"/>
<path d="M452.062 32.3076V270.188H296.248H245.095H113.124V32.3076H452.062ZM438.616 263.118V41.8728H126.571V263.118H438.616Z" fill="#2D72B0"/>
<path d="M438.615 41.8726H126.569V263.118H438.615V41.8726Z" fill="#1E1E3E"/>
<path d="M296.247 270.327V282.665L245.095 282.803V270.327H296.247Z" fill="#2978A0"/>
<path d="M245.095 270.327V282.803L89.0029 283.219V270.327H113.124H245.095Z" fill="#206692"/>
<path d="M113.124 270.327V32.3076H452.062V270.327" stroke="white" stroke-width="0.693126" stroke-miterlimit="10"/>
<path d="M438.615 41.8726H126.569V263.118H438.615V41.8726Z" stroke="white" stroke-width="0.693126" stroke-miterlimit="10"/>
<path d="M296.247 270.327H452.062H472.579V282.249V295.973H89.0029V283.219V270.327H113.124H245.095" stroke="white" stroke-width="0.693126" stroke-miterlimit="10" stroke-linecap="round" stroke-linejoin="round"/>
<path d="M89.0029 283.218L245.095 282.803L296.247 282.664L472.579 282.248" stroke="white" stroke-width="0.693126" stroke-miterlimit="10" stroke-linecap="round" stroke-linejoin="round"/>
<path d="M245.095 282.803V270.327H296.247V282.665" stroke="white" stroke-width="0.693126" stroke-miterlimit="10"/>
<path d="M372.215 223.054V239.135H133.642V223.054H146.256H156.376H186.458H196.577H226.659H236.779H266.999H276.98H307.2H317.181H347.402H357.521H372.215Z" fill="#186492"/>
<path d="M321.895 79.8545L358.076 120.333L357.66 120.749H347.402H317.182H307.201H282.526L245.513 79.8545H321.895Z" fill="#2D72B0"/>
<path d="M357.661 120.749L357.522 223.054H347.402V120.749H357.661Z" fill="#2D72B0"/>
<path d="M317.32 120.749H307.2V223.054H317.32V120.749Z" fill="#2D72B0"/>
<path d="M245.511 79.8545L282.524 120.749H276.979H266.998H236.778H226.658H215.984L180.773 79.8545H245.511Z" fill="#2D72B0"/>
<path d="M277.119 120.749H266.999V223.054H277.119V120.749Z" fill="#2D72B0"/>
<path d="M236.778 120.749H226.658V223.054H236.778V120.749Z" fill="#2D72B0"/>
<path d="M180.775 79.8545L215.986 120.749H196.578H186.458H156.377H146.257H138.355L180.775 79.8545Z" fill="#186492"/>
<path d="M196.577 120.749H186.457V223.054H196.577V120.749Z" fill="#2D72B0"/>
<path d="M156.375 120.749H146.255V223.054H156.375V120.749Z" fill="#2D72B0"/>
<path d="M138.078 120.749H138.355H146.257H156.377H186.458H196.578H215.985H226.66H236.779H266.999H276.981H282.526H307.201H317.182H347.402H357.66L357.522 223.054" stroke="white" stroke-width="0.693126" stroke-miterlimit="10"/>
<path d="M133.642 125.185L138.355 120.749L180.774 79.8545L215.985 120.749L219.866 125.185" stroke="white" stroke-width="0.693126" stroke-miterlimit="10"/>
<path d="M180.773 79.8545H245.511H321.894L358.075 120.333L364.174 127.264" stroke="white" stroke-width="0.693126" stroke-miterlimit="10"/>
<path d="M245.513 79.8545L282.526 120.749" stroke="white" stroke-width="0.693126" stroke-miterlimit="10"/>
<path d="M146.255 120.749V223.054" stroke="white" stroke-width="0.693126" stroke-miterlimit="10"/>
<path d="M156.376 120.749V223.054" stroke="white" stroke-width="0.693126" stroke-miterlimit="10"/>
<path d="M186.457 120.749V223.054" stroke="white" stroke-width="0.693126" stroke-miterlimit="10"/>
<path d="M196.578 120.749V223.054" stroke="white" stroke-width="0.693126" stroke-miterlimit="10"/>
<path d="M226.658 120.749V223.054" stroke="white" stroke-width="0.693126" stroke-miterlimit="10"/>
<path d="M236.779 120.749V223.054" stroke="white" stroke-width="0.693126" stroke-miterlimit="10"/>
<path d="M266.999 120.749V223.054" stroke="white" stroke-width="0.693126" stroke-miterlimit="10"/>
<path d="M276.981 120.749V223.054" stroke="white" stroke-width="0.693126" stroke-miterlimit="10"/>
<path d="M307.2 120.749V223.054" stroke="white" stroke-width="0.693126" stroke-miterlimit="10"/>
<path d="M317.182 120.749V223.054" stroke="white" stroke-width="0.693126" stroke-miterlimit="10"/>
<path d="M347.402 120.749V223.054" stroke="white" stroke-width="0.693126" stroke-miterlimit="10"/>
<path d="M357.521 223.054H372.215V239.135H133.642V223.054H146.256H156.376H186.458H196.577H226.659H236.779H266.999H276.98H307.2H317.181H347.402H357.521Z" stroke="white" stroke-width="0.693126" stroke-miterlimit="10"/>
<path d="M179.665 114.65C182.651 114.65 185.072 112.23 185.072 109.244C185.072 106.258 182.651 103.837 179.665 103.837C176.679 103.837 174.259 106.258 174.259 109.244C174.259 112.23 176.679 114.65 179.665 114.65Z" fill="white"/>
<path d="M179.664 115.066C177.446 115.066 175.228 113.68 174.258 111.462C173.01 108.551 174.396 105.085 177.446 103.976C178.832 103.421 180.496 103.421 181.882 103.976C183.268 104.53 184.377 105.639 185.071 107.164C185.625 108.551 185.625 110.214 185.071 111.6C184.516 112.987 183.407 114.096 181.882 114.789C181.189 114.927 180.496 115.066 179.664 115.066ZM179.664 104.115C178.971 104.115 178.417 104.253 177.723 104.53C176.476 105.085 175.505 106.055 174.951 107.303C174.396 108.551 174.396 109.937 174.951 111.184C175.505 112.432 176.476 113.402 177.723 113.957C178.971 114.511 180.357 114.511 181.605 113.957C182.853 113.402 183.823 112.432 184.377 111.184C184.932 109.937 184.932 108.551 184.377 107.303C183.823 106.055 182.853 105.085 181.605 104.53C181.05 104.253 180.357 104.115 179.664 104.115Z" fill="white"/>
<path d="M182.436 108.55H177.029V109.105H182.436V108.55Z" fill="#2D72B0"/>
<path d="M177.861 112.016V107.025H178.554L180.218 109.521C180.634 110.075 180.911 110.63 181.05 111.184C181.05 110.491 180.911 109.937 180.911 109.105V107.025H181.466V112.016H180.772L179.248 109.521C178.832 108.966 178.554 108.412 178.277 107.857C178.277 108.55 178.277 109.105 178.277 109.937V112.016H177.861Z" fill="#2D72B0"/>
<path d="M182.436 109.937H177.029V110.492H182.436V109.937Z" fill="#2D72B0"/>
<path d="M427.25 121.582V248.424H352.531V121.582H427.25ZM410.061 233.729V220.976H366.81V233.729H410.061ZM410.061 210.579V197.825H366.81V210.579H410.061ZM410.061 187.29V174.536H366.81V187.29H410.061ZM406.179 147.782C406.179 138.771 398.832 131.424 389.821 131.424C380.811 131.424 373.464 138.771 373.464 147.782C373.464 156.792 380.811 164.139 389.821 164.139C398.971 164.139 406.179 156.792 406.179 147.782Z" fill="#73C7D1"/>
<path d="M410.062 220.976H366.811V233.729H410.062V220.976Z" fill="white"/>
<path d="M410.062 197.687H366.811V210.44H410.062V197.687Z" fill="white"/>
<path d="M410.062 174.537H366.811V187.29H410.062V174.537Z" fill="white"/>
<path d="M399.247 156.931C397.029 154.297 393.564 152.633 389.821 152.633C386.078 152.633 382.612 154.297 380.394 156.931H399.247ZM389.821 131.424C398.831 131.424 406.178 138.771 406.178 147.782C406.178 156.792 398.831 164.139 389.821 164.139C380.81 164.139 373.463 156.792 373.463 147.782C373.463 138.771 380.81 131.424 389.821 131.424ZM394.811 143.9C394.811 141.128 392.593 138.91 389.821 138.91C387.048 138.91 384.83 141.128 384.83 143.9C384.83 146.673 387.048 148.891 389.821 148.891C392.593 148.891 394.811 146.673 394.811 143.9Z" fill="#EB5F60"/>
<path d="M399.248 156.931H380.395C382.751 154.297 386.078 152.633 389.821 152.633C393.564 152.633 397.03 154.297 399.248 156.931Z" fill="#2D72B0"/>
<path d="M389.822 148.891C392.578 148.891 394.812 146.656 394.812 143.9C394.812 141.144 392.578 138.91 389.822 138.91C387.065 138.91 384.831 141.144 384.831 143.9C384.831 146.656 387.065 148.891 389.822 148.891Z" fill="#2D72B0"/>
<path d="M427.25 121.582H352.531V248.424H427.25V121.582Z" stroke="white" stroke-width="0.693126" stroke-miterlimit="10"/>
<path d="M389.821 164.139C398.855 164.139 406.178 156.816 406.178 147.782C406.178 138.747 398.855 131.424 389.821 131.424C380.786 131.424 373.463 138.747 373.463 147.782C373.463 156.816 380.786 164.139 389.821 164.139Z" stroke="white" stroke-width="0.693126" stroke-miterlimit="10"/>
<path d="M389.822 148.891C392.578 148.891 394.812 146.656 394.812 143.9C394.812 141.144 392.578 138.91 389.822 138.91C387.065 138.91 384.831 141.144 384.831 143.9C384.831 146.656 387.065 148.891 389.822 148.891Z" stroke="white" stroke-width="0.693126" stroke-miterlimit="10"/>
<path d="M380.395 156.931C382.751 154.297 386.078 152.633 389.821 152.633C393.564 152.633 397.03 154.297 399.248 156.931" stroke="white" stroke-width="0.693126" stroke-miterlimit="10" stroke-linejoin="round"/>
<path d="M399.386 156.931H399.248H380.395" stroke="white" stroke-width="0.693126" stroke-miterlimit="10" stroke-linecap="round" stroke-linejoin="round"/>
<path d="M410.062 174.537H366.811V187.29H410.062V174.537Z" stroke="white" stroke-width="0.693126" stroke-miterlimit="10" stroke-linecap="round" stroke-linejoin="round"/>
<path d="M410.062 197.687H366.811V210.44H410.062V197.687Z" stroke="white" stroke-width="0.693126" stroke-miterlimit="10" stroke-linecap="round" stroke-linejoin="round"/>
<path d="M410.062 220.976H366.811V233.729H410.062V220.976Z" stroke="white" stroke-width="0.693126" stroke-miterlimit="10" stroke-linecap="round" stroke-linejoin="round"/>
<path d="M251.613 201.707H56.0127V333.817H251.613V201.707Z" fill="#73C7D1"/>
<path d="M223.332 320.37C230.069 320.37 235.531 314.909 235.531 308.171C235.531 301.434 230.069 295.972 223.332 295.972C216.595 295.972 211.133 301.434 211.133 308.171C211.133 314.909 216.595 320.37 223.332 320.37Z" fill="#EB5F60"/>
<path d="M223.332 320.786C216.4 320.786 210.717 315.103 210.717 308.172C210.717 301.24 216.4 295.557 223.332 295.557C230.263 295.557 235.947 301.24 235.947 308.172C235.947 315.241 230.263 320.786 223.332 320.786ZM223.332 296.388C216.816 296.388 211.41 301.656 211.41 308.31C211.41 314.964 216.678 320.232 223.332 320.232C229.986 320.232 235.253 314.964 235.253 308.31C235.253 301.656 229.847 296.388 223.332 296.388Z" fill="white"/>
<path d="M211.133 320.37C217.87 320.37 223.332 314.908 223.332 308.171C223.332 301.433 217.87 295.972 211.133 295.972C204.395 295.972 198.934 301.433 198.934 308.171C198.934 314.908 204.395 320.37 211.133 320.37Z" fill="white"/>
<path d="M211.132 320.785C204.201 320.785 198.518 315.102 198.518 308.171C198.518 301.239 204.201 295.556 211.132 295.556C218.064 295.556 223.747 301.239 223.747 308.171C223.747 315.24 218.064 320.785 211.132 320.785ZM211.132 296.387C204.617 296.387 199.211 301.655 199.211 308.309C199.211 314.963 204.478 320.231 211.132 320.231C217.786 320.231 223.054 314.963 223.054 308.309C223.054 301.655 217.648 296.387 211.132 296.387Z" fill="white"/>
<path d="M130.314 253.136H95.7959V282.248H130.314V253.136Z" fill="white"/>
<path d="M130.313 282.525H95.7958C95.6572 282.525 95.5186 282.386 95.5186 282.247V253.136C95.5186 252.998 95.6572 252.859 95.7958 252.859H130.313C130.452 252.859 130.591 252.998 130.591 253.136V282.247C130.729 282.386 130.591 282.525 130.313 282.525ZM96.2117 281.832H130.036V253.413H96.2117V281.832Z" fill="white"/>
<path d="M73.7557 263.118L64.4678 271.158L73.7557 277.812V263.118Z" fill="#2D72B0"/>
<path d="M74.0327 278.505L63.9131 271.158L74.0327 262.425V278.505ZM65.0221 271.158L73.3396 277.119V263.95L65.0221 271.158Z" fill="white"/>
<path d="M175.228 308.171H73.7539V317.043H175.228V308.171Z" fill="white"/>
<path d="M175.227 317.459H73.7538C73.6152 317.459 73.4766 317.321 73.4766 317.182V308.31C73.4766 308.171 73.6152 308.033 73.7538 308.033H175.227C175.366 308.033 175.505 308.171 175.505 308.31V317.182C175.505 317.321 175.366 317.459 175.227 317.459ZM74.0311 316.766H174.812V308.587H74.0311V316.766Z" fill="white"/>
<path d="M97.8753 217.787H81.2402V234.422H97.8753V217.787Z" fill="#2D72B0"/>
<path d="M98.291 234.699H80.9629V217.371H98.291V234.699ZM81.656 234.006H97.5979V218.064H81.656V234.006Z" fill="white"/>
<path d="M235.53 270.327H153.741V275.04H235.53V270.327Z" fill="white"/>
<path d="M235.53 275.318H153.741C153.602 275.318 153.464 275.179 153.464 275.04V270.327C153.464 270.188 153.602 270.05 153.741 270.05H235.53C235.669 270.05 235.807 270.188 235.807 270.327V275.04C235.946 275.179 235.807 275.318 235.53 275.318ZM154.157 274.624H235.253V270.604H154.157V274.624Z" fill="white"/>
<g opacity="0.17">
<path d="M247.592 349.619C306.161 349.619 353.64 302.14 353.64 243.571C353.64 185.002 306.161 137.522 247.592 137.522C189.023 137.522 141.544 185.002 141.544 243.571C141.544 302.14 189.023 349.619 247.592 349.619Z" fill="#EB5F60"/>
<path d="M283.913 343.522C228.879 363.484 167.745 334.927 147.783 279.893C127.821 224.859 156.378 163.725 211.412 143.763C266.447 123.801 327.58 152.358 347.542 207.392C367.504 262.426 339.086 323.56 283.913 343.522ZM211.551 144.179C156.655 164.141 128.237 224.859 148.199 279.754C168.161 334.65 228.879 363.068 283.775 343.106C338.67 323.144 367.088 262.426 347.126 207.53C327.164 152.635 266.447 124.217 211.551 144.179Z" fill="#EB5F60"/>
</g>
<path d="M160.813 161.783C115.622 209.886 118.117 285.437 166.081 330.49C211.55 373.187 281.833 373.325 327.441 332.431L471.334 467.868L485.612 452.757L341.719 317.321C379.702 269.218 375.128 199.212 329.659 156.377C281.556 111.324 206.005 113.68 160.813 161.783ZM329.382 305.676C327.302 308.449 325.084 311.083 322.589 313.578C320.232 316.073 317.737 318.568 315.103 320.786C275.872 355.027 216.263 354.472 177.587 318.152C136.277 279.337 134.197 214.461 173.012 173.151C211.827 131.84 276.704 129.761 318.014 168.576C356.829 205.034 361.127 264.366 329.382 305.676Z" fill="#EB5F60"/>
<path d="M471.471 468.422L471.194 468.144L327.578 332.846C305.676 352.392 277.396 363.205 248.008 363.205C247.592 363.205 247.314 363.205 246.899 363.205C216.817 362.928 187.983 351.422 166.08 330.767C142.791 308.864 129.344 279.198 128.374 247.176C127.404 215.153 138.91 184.794 160.812 161.505L161.09 161.783L160.812 161.505C182.715 138.216 212.381 124.77 244.403 123.799C276.426 122.829 306.785 134.335 330.212 156.238C352.254 176.893 365.562 204.756 367.641 234.838C369.859 264.643 360.849 293.892 342.55 317.32L486.581 452.757L471.471 468.422ZM327.578 332.014L327.856 332.292L471.61 467.451L485.334 452.757L341.441 317.32L341.58 317.043C360.017 293.754 368.889 264.504 366.809 234.838C364.591 204.895 351.422 177.17 329.519 156.654C306.369 134.889 276.01 123.384 244.265 124.493C212.52 125.463 182.992 138.771 161.228 162.06C139.464 185.21 128.097 215.569 129.067 247.314C130.038 279.06 143.346 308.587 166.635 330.351C188.537 350.867 217.094 362.373 247.037 362.651C247.453 362.651 247.73 362.651 248.146 362.651C277.535 362.651 305.676 351.838 327.578 332.292V332.014ZM247.869 346.431C247.314 346.431 246.76 346.431 246.205 346.431C220.56 346.016 196.162 336.173 177.447 318.568C157.347 299.715 145.841 274.208 145.009 246.76C144.177 219.312 154.02 193.112 172.873 173.011C191.726 152.911 217.233 141.405 244.681 140.573C272.128 139.741 298.329 149.584 318.429 168.437C337.144 186.042 348.511 209.747 350.59 235.393C352.531 260.761 345.184 285.852 329.796 305.953C327.717 308.725 325.36 311.359 323.004 313.854C320.647 316.35 318.152 318.845 315.518 321.063C296.804 337.421 272.822 346.431 247.869 346.431ZM248.008 141.266C246.899 141.266 245.79 141.266 244.681 141.266C217.371 142.098 192.003 153.604 173.427 173.427C154.713 193.389 144.871 219.312 145.841 246.621C146.673 273.93 158.179 299.299 178.002 317.875C196.578 335.341 220.837 345.184 246.344 345.6C271.713 346.016 296.111 337.144 315.102 320.509C317.736 318.29 320.231 315.795 322.588 313.3C324.945 310.805 327.163 308.171 329.242 305.398C344.629 285.436 351.976 260.484 349.897 235.254C347.956 209.886 336.589 186.319 318.013 168.853C298.744 150.97 274.069 141.266 248.008 141.266Z" fill="white"/>
<path d="M471.47 468.282L471.332 468.144L327.577 332.846C305.397 352.669 276.702 363.482 246.898 363.205C216.816 362.927 188.121 351.421 166.079 330.766C142.79 308.864 129.344 279.198 128.373 247.314C127.403 215.43 138.909 184.933 160.673 161.644L160.811 161.782L160.673 161.644C182.576 138.355 212.241 124.908 244.125 123.938C276.009 122.967 306.506 134.473 329.795 156.237C351.837 176.892 365.006 204.756 367.224 234.838C369.442 264.642 360.432 293.892 341.994 317.32L486.026 452.756L485.887 452.895L471.47 468.282ZM327.577 332.153L327.716 332.291L471.47 467.589L485.333 452.756L341.44 317.32L341.579 317.181C360.016 293.892 368.888 264.642 366.808 234.838C364.59 204.895 351.421 177.17 329.518 156.515C306.368 134.75 276.009 123.244 244.264 124.353C212.519 125.324 182.991 138.632 161.089 161.921C139.325 185.071 127.819 215.43 128.928 247.175C129.898 278.92 143.206 308.448 166.495 330.35C188.398 350.867 216.955 362.373 246.898 362.65C276.702 362.927 305.259 352.115 327.439 332.291L327.577 332.153ZM283.079 340.054C271.434 344.352 258.958 346.431 246.343 346.154C220.697 345.738 196.299 335.895 177.585 318.29C157.623 299.437 146.117 274.069 145.147 246.621C144.176 219.173 154.157 192.973 173.01 173.011C191.863 153.049 217.232 141.543 244.68 140.573C272.127 139.741 298.328 149.583 318.29 168.436C337.004 186.042 348.371 209.747 350.451 235.254C352.391 260.622 345.044 285.713 329.657 305.814C327.577 308.586 325.359 311.22 322.864 313.715C320.508 316.211 318.012 318.706 315.378 320.924C305.813 329.38 294.862 335.895 283.079 340.054ZM212.934 147.227C198.102 152.633 184.516 161.505 173.288 173.427C154.573 193.389 144.731 219.312 145.563 246.759C146.394 274.069 157.9 299.437 177.862 318.151C196.438 335.618 220.836 345.461 246.343 345.876C271.712 346.292 296.11 337.42 315.101 320.785C317.735 318.567 320.23 316.072 322.587 313.577C324.944 311.082 327.162 308.448 329.241 305.675C344.628 285.713 351.975 260.761 349.896 235.392C347.955 210.024 336.588 186.319 317.874 168.852C297.912 150.138 271.989 140.295 244.541 141.127C233.728 141.543 222.915 143.622 212.934 147.227Z" fill="#EB5F60"/>
<path d="M471.471 468.699L471.055 468.283L327.439 333.262C305.536 352.808 277.257 363.482 247.868 363.482C247.453 363.482 247.175 363.482 246.759 363.482C216.539 363.205 187.705 351.699 165.664 331.044C142.236 309.141 128.928 279.337 127.819 247.314C126.849 215.431 138.216 184.933 159.98 161.644L160.396 161.089C182.299 137.939 211.965 124.492 243.848 123.522C275.871 122.552 306.368 134.058 329.796 155.96C351.837 176.615 365.145 204.618 367.363 234.838C369.443 264.642 360.571 293.892 342.272 317.32L486.304 452.757L485.888 453.173L471.471 468.699ZM327.578 331.598L327.994 332.014L471.471 467.035L484.917 452.757L341.025 317.32L341.302 316.904C359.6 293.615 368.611 264.504 366.393 234.838C364.175 205.034 351.006 177.309 329.241 156.792C306.091 135.028 275.871 123.661 244.126 124.631C212.38 125.601 182.992 138.909 161.228 162.06C139.464 185.21 128.096 215.431 129.067 247.176C130.037 278.921 143.345 308.309 166.495 330.074C188.26 350.59 216.816 361.957 246.759 362.235C247.175 362.235 247.453 362.235 247.868 362.235C277.257 362.235 305.259 351.56 327.162 332.014L327.578 331.598ZM247.868 346.57C247.314 346.57 246.759 346.57 246.205 346.57C220.559 346.154 196.023 336.312 177.17 318.568C157.069 299.715 145.563 274.208 144.593 246.621C143.761 219.035 153.603 192.835 172.456 172.734C191.309 152.633 216.816 141.127 244.403 140.157C271.989 139.325 298.189 149.168 318.29 168.021C337.004 185.626 348.51 209.47 350.59 235.115C352.669 260.622 345.183 285.713 329.657 305.953C327.578 308.725 325.221 311.359 322.865 313.993C320.508 316.488 318.013 318.984 315.379 321.202C305.814 329.519 294.862 336.034 282.941 340.332L282.802 340.055L282.941 340.332C271.851 344.491 260.067 346.57 247.868 346.57ZM213.074 147.504C197.963 152.911 184.794 161.783 173.565 173.566C154.99 193.389 145.147 219.312 145.979 246.621C146.811 273.792 158.317 299.16 178.14 317.736C196.716 335.203 220.837 344.906 246.344 345.322C271.573 345.738 295.971 336.866 314.824 320.37C317.458 318.152 319.954 315.657 322.31 313.161C324.667 310.666 326.885 308.032 328.964 305.26C344.213 285.298 351.56 260.484 349.619 235.254C347.679 209.886 336.311 186.319 317.736 168.991C297.912 150.277 271.989 140.573 244.68 141.405C233.867 141.821 223.193 143.9 213.074 147.504Z" fill="white"/>
</g>
<defs>
<clipPath id="clip0_2270_28600">
<rect width="505" height="437" fill="white" transform="translate(0 32)"/>
</clipPath>
</defs>
</svg>
