<svg width="433" height="460" viewBox="0 0 433 460" fill="none" xmlns="http://www.w3.org/2000/svg">
<g clip-path="url(#clip0_3120_22141)">
<path d="M432.112 0.888672H164.369V458.358H432.112V0.888672Z" fill="#242752"/>
<path d="M432.998 459.246H163.481V0.00390625H432.998V459.246ZM165.254 457.473H431.225V1.77704H165.254V457.473V457.473Z" fill="#242752"/>
<g opacity="0.18">
<path d="M418.46 43.2617H177.136V400.194H418.46V43.2617Z" fill="#2D72B0"/>
</g>
<g opacity="0.18">
<path d="M419.171 353.035H177.847V400.201H419.171V353.035Z" fill="#2D72B0"/>
</g>
<path d="M298.24 446.48C307.347 446.48 314.73 439.097 314.73 429.99C314.73 420.883 307.347 413.5 298.24 413.5C289.132 413.5 281.75 420.883 281.75 429.99C281.75 439.097 289.132 446.48 298.24 446.48Z" fill="white"/>
<path d="M298.24 447.012C288.843 447.012 281.218 439.388 281.218 429.99C281.218 420.592 288.843 412.968 298.24 412.968C307.638 412.968 315.262 420.592 315.262 429.99C315.262 439.388 307.638 447.012 298.24 447.012ZM298.24 413.854C289.375 413.854 282.105 421.124 282.105 429.99C282.105 438.856 289.375 446.125 298.24 446.125C307.106 446.125 314.376 438.856 314.376 429.99C314.376 421.124 307.106 413.854 298.24 413.854Z" fill="#3F74B9"/>
<path d="M322.709 20.2178H256.216V21.1043H322.709V20.2178Z" fill="white"/>
<path d="M341.327 20.2178H332.107V21.1043H341.327V20.2178Z" fill="white"/>
<path d="M383.352 211.893C383.352 234.943 374.132 255.866 359.237 271.293L359.415 270.938C349.13 256.576 333.704 246.291 315.441 242.745C315.441 242.39 315.441 242.036 315.441 241.504L314.732 227.319C320.583 223.773 324.661 218.099 326.612 211.715C329.981 211.183 332.64 207.637 332.64 203.381C332.64 199.658 330.69 196.289 327.676 195.225V187.601C329.803 186.537 331.222 184.409 331.222 181.927C331.222 180.685 330.867 179.444 330.158 178.38C330.867 177.316 331.222 176.075 331.222 174.834C331.222 172.352 329.803 170.224 327.676 169.16V168.983C328.385 167.209 328.207 165.082 327.321 163.309C326.434 161.713 324.839 160.649 322.888 160.472C322.711 160.472 322.533 160.472 322.533 160.472C322.001 157.457 319.342 155.329 316.327 155.329C315.086 155.329 313.845 155.684 312.781 156.393C311.717 154.443 309.59 153.024 307.107 153.024C305.689 153.024 304.27 153.556 303.206 154.266C301.965 152.847 300.192 151.783 298.241 151.783C296.114 151.783 294.163 152.847 292.922 154.62C292.213 154.443 291.504 154.266 290.794 154.266C288.489 154.266 286.361 155.507 285.298 157.457C284.411 157.103 283.524 156.925 282.638 156.925C280.333 156.925 278.028 158.166 276.964 160.294H275.545C271.999 160.294 269.162 163.131 269.162 166.678C269.162 167.741 269.517 168.805 270.049 169.869C268.63 171.11 267.743 172.884 267.743 174.657C267.743 176.075 268.098 177.316 268.985 178.38C268.098 179.444 267.743 180.863 267.743 182.104C267.743 184.941 269.517 187.246 272.176 188.132V194.87C269.162 195.934 267.212 199.126 267.212 203.027C267.212 207.282 269.871 211.006 273.418 211.361C274.659 215.793 277.141 219.872 280.333 223.063C281.751 224.482 283.524 225.9 285.298 226.964L284.588 243.1H284.234C266.148 247.533 250.544 258.703 240.614 273.952L240.792 274.13C223.77 258.526 213.131 236.184 213.131 211.361C213.131 164.372 251.253 126.25 298.241 126.25C345.23 126.782 383.352 164.904 383.352 211.893Z" fill="white"/>
<path d="M359.416 270.94L359.239 271.294C355.87 274.663 352.323 277.855 348.423 280.692C348.068 280.869 347.891 281.047 347.536 281.224C347.181 281.401 346.827 281.756 346.472 281.933C345.94 282.288 345.408 282.643 344.699 283.174C344.344 283.352 344.167 283.529 343.812 283.706C343.458 283.884 343.28 284.061 342.926 284.238C342.571 284.416 342.394 284.593 342.039 284.77C341.685 284.948 341.507 285.125 341.153 285.302C340.266 285.834 339.202 286.366 338.316 286.898C337.784 287.253 337.075 287.43 336.543 287.785C334.947 288.494 333.351 289.38 331.755 290.09C331.4 290.267 331.046 290.444 330.869 290.444C330.514 290.622 330.159 290.799 329.805 290.799C329.095 290.976 328.563 291.331 327.854 291.508C327.5 291.685 327.145 291.686 326.79 291.863C326.436 292.04 326.081 292.04 325.726 292.217C325.372 292.395 325.194 292.395 324.84 292.572C324.131 292.749 323.421 293.104 322.535 293.281C322.18 293.459 321.826 293.459 321.471 293.636C321.116 293.636 320.939 293.813 320.584 293.813C320.407 293.813 320.23 293.991 320.052 293.991C319.698 294.168 319.343 294.168 318.989 294.345C318.634 294.523 318.279 294.523 317.747 294.7C317.393 294.7 317.215 294.877 316.861 294.877C316.329 295.054 315.62 295.232 315.088 295.232C314.733 295.232 314.378 295.409 314.024 295.409C313.669 295.409 313.314 295.586 312.96 295.586C312.605 295.586 312.251 295.764 311.896 295.764C311.541 295.764 311.187 295.941 310.832 295.941C310.655 295.941 310.477 295.941 310.123 296.118C309.946 296.118 309.768 296.118 309.414 296.296C309.059 296.296 308.882 296.296 308.527 296.473C308.172 296.473 307.818 296.65 307.463 296.65C304.271 297.005 300.903 297.182 297.534 297.182C296.824 297.182 296.115 297.182 295.406 297.182C295.051 297.182 294.697 297.182 294.342 297.182C293.987 297.182 293.455 297.182 293.101 297.182C273.242 296.118 255.156 288.317 241.148 275.905C240.793 275.55 240.616 275.373 240.261 275.018L240.084 274.841C250.013 259.769 265.617 248.421 283.703 243.988H284.058C284.058 243.988 284.058 244.165 284.235 244.165C285.476 251.435 291.86 256.755 299.484 256.755C307.64 256.755 314.201 250.903 314.733 243.102C333.706 246.293 348.955 256.577 359.416 270.94Z" fill="#315EA9"/>
<path d="M347.533 281.225C347.888 281.048 348.065 280.871 348.42 280.693C348.065 280.871 347.711 281.048 347.533 281.225Z" fill="#315EA9"/>
<path d="M327.674 195.223C330.688 196.287 332.639 199.478 332.639 203.379C332.639 207.635 329.979 211.358 326.61 211.713V211.536V211.358C329.802 210.826 332.284 207.457 332.284 203.379C332.284 199.833 330.333 196.641 327.674 195.755V195.223Z" fill="#242752"/>
<path d="M327.674 195.578C330.334 196.642 332.284 199.656 332.284 203.203C332.284 207.281 329.802 210.65 326.61 211.182C326.61 211.004 326.61 210.827 326.788 210.827C329.625 210.295 331.93 207.104 331.93 203.203C331.93 199.834 330.157 196.997 327.674 195.933V195.578Z" fill="#242752"/>
<path d="M331.219 175.008C331.219 176.25 330.865 177.491 330.156 178.555L329.978 178.377C329.978 178.377 329.978 178.377 329.801 178.377C330.333 177.491 330.688 176.427 330.688 175.186C330.688 172.881 329.269 170.753 327.319 169.866L327.496 169.512C329.801 170.221 331.219 172.526 331.219 175.008Z" fill="#242752"/>
<path d="M330.156 178.381C330.865 179.445 331.22 180.686 331.22 181.927C331.22 184.41 329.802 186.537 327.674 187.601V187.424V187.247C329.624 186.183 330.865 184.232 330.865 181.927C330.865 180.686 330.511 179.622 329.979 178.735C329.979 178.735 329.979 178.735 330.156 178.735C329.979 178.558 330.156 178.558 330.156 178.381Z" fill="#242752"/>
<path d="M327.673 196.112C330.155 197.176 331.929 200.013 331.929 203.382C331.929 207.106 329.801 210.297 326.786 211.007C327.318 208.702 327.673 206.396 327.673 204.091V196.112Z" fill="#73C7D1"/>
<path d="M330.868 175.012C330.868 176.253 330.513 177.317 329.981 178.203C329.804 178.026 329.626 178.026 329.626 178.203C329.626 178.203 329.626 178.203 329.449 178.381C330.158 177.494 330.513 176.253 330.513 175.012C330.513 172.707 329.094 170.756 327.144 169.87H327.321C327.499 169.87 327.676 169.87 327.676 169.692C329.449 170.579 330.868 172.529 330.868 175.012Z" fill="#242752"/>
<path d="M329.981 178.731C330.513 179.618 330.868 180.681 330.868 181.923C330.868 184.228 329.626 186.178 327.676 187.242C327.676 187.065 327.499 187.065 327.321 187.065H327.144C329.094 186.178 330.336 184.228 330.336 181.923C330.336 180.681 329.981 179.618 329.272 178.554C329.272 178.554 329.272 178.554 329.449 178.731H329.626C329.804 178.908 329.804 178.908 329.981 178.731Z" fill="#242752"/>
<path d="M329.98 178.207L330.157 178.384L329.98 178.562C329.98 178.562 329.98 178.562 329.802 178.562C329.802 178.384 329.625 178.384 329.625 178.207C329.802 178.384 329.802 178.207 329.98 178.207Z" fill="#242752"/>
<path d="M329.627 178.383C329.627 178.56 329.804 178.56 329.804 178.737H329.627H329.45C329.45 178.737 329.45 178.737 329.272 178.56C329.272 178.56 329.272 178.56 329.272 178.383C329.272 178.383 329.272 178.383 329.45 178.205C329.627 178.028 329.804 178.028 329.804 178.205C329.804 178.205 329.804 178.383 329.627 178.383Z" fill="#242752"/>
<path d="M330.511 181.928C330.511 184.056 329.27 186.184 327.32 187.07C327.32 187.07 327.32 187.07 327.142 187.07L326.965 187.247V195.404V197.532C326.61 197.177 326.256 196.645 325.724 196.113C325.724 196.113 325.724 195.936 325.547 195.936C323.419 193.276 319.695 187.602 318.631 179.623C318.454 178.914 318.099 178.204 317.39 177.673C316.681 177.318 315.972 177.141 315.262 177.318C311.893 178.027 305.51 179.091 300.013 179.091C294.517 179.091 288.133 177.85 284.764 177.318C284.055 177.141 283.169 177.318 282.637 177.85C281.927 178.382 281.573 179.091 281.395 179.8C280.332 187.248 277.14 192.744 274.48 196.113H274.303C274.126 196.113 273.948 196.291 273.948 196.468C273.948 196.645 273.948 196.645 274.126 196.822C273.771 197.177 273.416 197.532 273.239 197.886V195.759V188.489C273.239 188.311 273.239 188.311 273.239 188.311C270.757 187.602 269.161 185.474 269.161 182.992C269.161 181.751 269.693 180.51 270.402 179.446C270.402 179.446 270.402 179.446 270.402 179.268C270.402 179.268 270.402 179.268 270.402 179.091C269.515 178.027 269.161 176.786 269.161 175.545C269.161 173.772 269.87 172.176 271.289 171.112C271.289 170.935 271.289 170.935 271.289 170.757C270.757 169.871 270.402 168.807 270.402 167.743C270.402 164.729 272.884 162.246 275.899 162.246H277.495C277.672 162.246 277.672 162.246 277.849 162.069C278.736 160.119 280.686 158.877 282.814 158.877C283.7 158.877 284.587 159.055 285.474 159.587C285.651 159.587 285.828 159.587 286.006 159.587C286.006 159.587 286.006 159.587 286.006 159.409C286.892 157.459 288.843 156.395 290.97 156.395C291.68 156.395 292.389 156.572 293.098 156.75H293.275C293.275 156.75 293.275 156.75 293.453 156.75C294.517 154.976 296.29 154.09 298.24 154.09C300.013 154.09 301.786 154.976 302.85 156.395H303.028C304.092 155.508 305.333 154.976 306.751 154.976C308.879 154.976 311.007 156.218 311.893 158.345C311.893 158.345 311.893 158.345 312.071 158.345C312.071 158.345 312.071 158.345 312.248 158.345C313.312 157.636 314.376 157.104 315.794 157.104C318.631 157.104 320.936 159.232 321.291 161.892C321.291 162.069 321.468 162.246 321.646 162.246C321.823 162.246 322.178 162.246 322.355 162.246C323.951 162.424 325.192 163.31 326.078 164.729C326.965 166.324 327.142 168.098 326.433 169.693L326.256 170.048C326.256 170.225 326.256 170.403 326.433 170.403C326.433 170.403 326.433 170.403 326.61 170.403C328.738 171.289 329.979 173.24 329.979 175.545C329.979 176.786 329.625 177.85 328.915 178.914C328.915 178.914 328.915 178.914 328.915 179.091C330.157 179.623 330.511 180.864 330.511 181.928Z" fill="#242752"/>
<path d="M329.447 178.207C329.269 178.207 329.269 178.384 329.447 178.207C329.269 178.384 329.269 178.207 329.447 178.207Z" fill="#242752"/>
<path d="M327.321 163.492C328.385 165.265 328.562 167.393 327.676 169.166V169.344C327.498 169.344 327.498 169.166 327.321 169.166V168.989C328.74 165.443 326.612 161.365 322.888 161.01C322.711 161.01 322.711 161.01 322.534 161.01C322.534 160.833 322.534 160.833 322.534 160.655C322.711 160.655 322.888 160.655 322.888 160.655C324.839 160.833 326.435 161.896 327.321 163.492Z" fill="#242752"/>
<path d="M327.672 196.119V203.921C327.672 206.226 327.317 208.709 326.785 210.836C326.608 210.836 326.431 210.836 326.431 210.836C327.14 208.531 327.317 206.226 327.317 203.744V198.424L327.495 198.07L327.317 197.892V195.765C327.495 195.942 327.672 195.942 327.672 196.119Z" fill="#242752"/>
<path d="M327.673 195.579V195.933C327.496 195.933 327.496 195.756 327.319 195.756V195.401C327.496 195.579 327.673 195.579 327.673 195.579Z" fill="#242752"/>
<path d="M327.673 195.225V195.58C327.496 195.58 327.496 195.402 327.319 195.402V195.048C327.319 195.048 327.319 195.048 327.496 195.048C327.496 195.225 327.673 195.225 327.673 195.225Z" fill="#242752"/>
<path d="M327.676 187.607V195.232C327.499 195.232 327.499 195.232 327.321 195.055C327.321 195.055 327.321 195.055 327.144 195.055V187.785H327.321C327.499 187.785 327.676 187.785 327.676 187.607Z" fill="#242752"/>
<path d="M327.673 187.427V187.605C327.673 187.605 327.496 187.605 327.496 187.782H327.319V187.427C327.496 187.427 327.496 187.25 327.673 187.427C327.673 187.427 327.673 187.25 327.673 187.427Z" fill="#242752"/>
<path d="M327.676 169.163L327.499 169.517C327.321 169.517 327.321 169.34 327.144 169.34L327.321 168.985C327.499 169.163 327.676 169.163 327.676 169.163Z" fill="#242752"/>
<path d="M327.677 187.247C327.499 187.247 327.499 187.425 327.322 187.425V187.779C327.145 187.779 326.967 187.779 326.967 187.602V187.425C326.967 187.425 326.967 187.247 327.145 187.247C327.145 187.247 327.145 187.247 327.322 187.247H327.499C327.499 187.07 327.677 187.07 327.677 187.247Z" fill="#242752"/>
<path d="M327.674 198.237L327.497 198.592V198.06C327.497 198.237 327.674 198.237 327.674 198.237Z" fill="#242752"/>
<path d="M327.142 169.346C327.319 169.346 327.319 169.524 327.496 169.524C327.496 169.701 327.319 169.701 327.142 169.701H326.964C326.964 169.701 326.965 169.701 326.787 169.701C326.61 169.524 326.61 169.346 326.61 169.346C326.787 169.169 326.964 168.992 327.142 169.169V169.346Z" fill="#242752"/>
<path d="M323.065 161.005C326.788 161.36 328.916 165.615 327.497 168.984V169.161C327.32 169.161 327.143 169.161 326.965 169.339L327.143 168.984C327.852 167.388 327.675 165.438 326.788 164.019C325.902 162.601 324.66 161.714 323.065 161.537C322.887 161.537 322.71 161.537 322.355 161.537C322.533 161.537 322.71 161.36 322.71 161.182C322.71 161.005 322.887 161.005 323.065 161.005Z" fill="#242752"/>
<path d="M327.317 198.596V203.915C327.317 206.398 326.963 208.703 326.431 211.008C327.14 208.703 327.317 206.398 327.317 203.915V198.596Z" fill="#242752"/>
<path d="M327.321 198.596V203.915C327.321 206.398 326.967 208.703 326.435 211.008H326.258C326.08 211.008 325.903 211.185 325.903 211.362C326.612 209.057 326.967 206.575 326.967 204.092V198.95L327.144 199.128L327.321 198.596Z" fill="#242752"/>
<path d="M327.322 198.596L327.145 198.95C327.145 198.95 327.145 198.95 326.967 198.773V198.241C327.145 198.419 327.145 198.419 327.322 198.596Z" fill="#242752"/>
<path d="M327.322 198.062V198.594C327.322 198.594 327.144 198.416 326.967 198.239V197.707C327.144 197.884 327.322 197.884 327.322 198.062Z" fill="#242752"/>
<path d="M327.322 195.933V198.061C327.144 197.883 327.144 197.883 326.967 197.706V195.578C326.967 195.755 327.144 195.933 327.322 195.933Z" fill="#242752"/>
<path d="M327.318 195.581V195.935C327.318 195.935 327.318 195.935 327.141 195.935C326.964 195.935 326.786 195.758 326.786 195.581C326.786 195.581 326.786 195.581 326.786 195.403C326.786 195.226 326.964 195.049 327.141 195.049V195.581H327.318Z" fill="#242752"/>
<path d="M327.322 187.78V195.05C327.144 195.05 326.967 195.228 326.967 195.405C326.967 195.405 326.967 195.405 326.967 195.582V187.426V187.603C326.967 187.78 327.144 187.78 327.322 187.78Z" fill="#242752"/>
<path d="M326.963 198.238C326.785 198.061 326.608 197.883 326.431 197.706C326.608 197.883 326.785 198.061 326.963 198.238Z" fill="#242752"/>
<path d="M326.965 198.771V203.913C326.965 206.395 326.611 208.878 325.902 211.183C324.128 217.743 319.873 223.24 314.199 226.786L314.022 226.964C309.766 229.446 304.979 230.865 300.191 230.865C295.226 230.865 290.439 229.446 286.183 226.964C284.41 225.9 282.637 224.481 281.219 223.063C278.027 219.871 275.545 215.793 274.303 211.36C273.594 209.055 273.239 206.573 273.239 204.09V198.948C273.417 198.771 274.126 198.062 275.013 196.998L279.977 197.352C280.155 202.14 284.056 205.863 288.843 205.863C293.63 205.863 297.531 202.14 297.709 197.352H299.482L297.531 209.41C297.531 210.296 298.063 211.183 298.95 211.537C299.659 211.715 300.191 211.892 300.9 211.892C304.092 211.892 305.688 209.232 305.688 209.232C305.865 209.055 305.688 208.878 305.511 208.7C305.333 208.523 305.156 208.7 304.979 208.878C304.979 209.055 303.028 212.069 299.127 210.828C298.595 210.651 298.241 210.119 298.241 209.587L300.191 197.352H302.673C302.851 201.962 306.752 205.863 311.539 205.863C316.327 205.863 320.228 202.14 320.405 197.352L325.192 196.82C326.079 197.884 326.788 198.593 326.965 198.771ZM306.22 219.516L305.865 218.807C300.191 222.353 296.29 218.985 296.113 218.807L295.581 219.339C295.581 219.339 297.709 221.112 300.9 221.112C302.319 221.29 304.092 220.935 306.22 219.516Z" fill="#73C7D1"/>
<path d="M326.967 198.239V198.771C326.79 198.593 326.081 197.884 325.194 196.82H325.372H325.549C325.726 196.998 325.903 197.175 326.081 197.352C326.081 197.53 326.258 197.53 326.258 197.707C326.613 197.884 326.79 198.062 326.967 198.239Z" fill="#242752"/>
<path d="M326.963 197.711V198.243C326.786 198.066 326.609 197.889 326.431 197.711C326.431 197.711 326.254 197.534 326.254 197.357C326.077 197.18 325.899 197.002 325.722 196.825C325.899 196.648 325.899 196.47 325.722 196.293C325.722 196.293 325.722 196.293 325.899 196.47C326.254 196.825 326.608 197.357 326.963 197.711Z" fill="#242752"/>
<path d="M326.786 210.832C326.786 211.009 326.786 211.187 326.609 211.187C326.431 211.187 326.254 211.187 326.254 211.187C326.254 211.009 326.254 210.832 326.431 210.832C326.609 211.009 326.609 211.009 326.786 210.832Z" fill="#242752"/>
<path d="M326.79 211.361C326.612 211.361 326.612 211.361 326.79 211.361C326.79 211.539 326.612 211.716 326.612 211.716C326.435 211.716 326.435 211.716 326.258 211.716C326.258 211.716 326.258 211.716 326.08 211.716C326.08 211.539 326.08 211.539 326.258 211.361C326.435 211.361 326.612 211.361 326.79 211.361Z" fill="#242752"/>
<path d="M326.256 211.717C326.434 211.717 326.434 211.717 326.611 211.717C324.661 218.277 320.582 223.774 314.731 227.32V227.143V226.966C320.228 223.419 324.306 218.1 326.256 211.717Z" fill="#242752"/>
<path d="M326.431 211.005C326.431 211.182 326.431 211.36 326.254 211.36C326.254 211.182 326.431 211.182 326.431 211.005Z" fill="#242752"/>
<path d="M326.431 211.005C326.431 211.182 326.431 211.36 326.254 211.36C326.254 211.537 326.254 211.537 326.077 211.714C325.899 211.714 325.722 211.537 325.722 211.36V211.182C325.899 211.182 326.077 211.005 326.431 211.005C326.431 211.005 326.254 211.005 326.431 211.005Z" fill="#242752"/>
<path d="M326.08 197.177C326.258 197.354 326.258 197.354 326.258 197.531C326.258 197.531 326.08 197.354 326.08 197.177Z" fill="#242752"/>
<path d="M325.903 211.361C325.903 211.539 326.08 211.716 326.257 211.716C324.307 218.099 320.229 223.419 314.732 226.965C314.732 226.788 314.555 226.788 314.377 226.788H314.2C319.874 223.241 324.13 217.745 325.903 211.361Z" fill="#242752"/>
<path d="M325.544 196.647C325.722 196.825 325.899 197.002 326.076 197.179C325.899 197.002 325.722 196.825 325.544 196.647Z" fill="#242752"/>
<path d="M325.545 196.117C325.723 196.294 325.723 196.471 325.545 196.649C325.545 196.471 325.368 196.471 325.368 196.294V195.939C325.368 195.939 325.545 196.117 325.545 196.117Z" fill="#242752"/>
<path d="M325.545 196.646L325.368 196.823V196.469L325.545 196.646Z" fill="#242752"/>
<path d="M325.368 196.469C325.368 196.646 325.545 196.646 325.545 196.823C325.545 196.646 325.368 196.469 325.368 196.469Z" fill="#242752"/>
<path d="M325.549 196.113H325.372H325.195C324.663 195.404 324.131 194.695 323.599 193.808C321.471 190.617 319.344 186.006 318.457 179.978C318.457 179.446 318.102 178.914 317.748 178.559C317.216 178.027 316.329 177.673 315.62 177.85C312.251 178.559 305.868 179.8 300.371 179.8C294.874 179.8 288.491 178.737 285.122 177.85C284.235 177.673 283.526 178.027 282.994 178.559C282.64 178.914 282.462 179.446 282.285 179.978C282.285 180.51 282.108 181.042 282.108 181.396C282.108 181.574 281.93 181.928 281.93 182.105C281.753 182.637 281.753 182.992 281.576 183.524C281.398 184.233 281.221 184.943 281.044 185.474C281.044 185.652 280.866 185.829 280.866 186.184C280.689 186.538 280.512 187.07 280.512 187.425C280.512 187.602 280.512 187.602 280.334 187.78C279.803 189.198 279.093 190.617 278.561 191.68C278.029 192.744 277.32 193.808 276.788 194.695C276.611 194.872 276.434 195.227 276.256 195.404C276.079 195.581 275.902 195.759 275.724 196.113L275.547 196.291H275.37H275.192C277.852 192.922 281.044 187.602 282.108 179.978C282.285 179.268 282.64 178.559 283.349 178.027C284.058 177.495 284.767 177.495 285.477 177.495C288.846 178.205 295.229 179.268 300.726 179.268C306.222 179.268 312.606 178.027 315.975 177.495C316.684 177.318 317.57 177.495 318.102 177.85C318.812 178.382 319.166 179.091 319.344 179.8C319.698 187.78 323.422 193.454 325.549 196.113Z" fill="#242752"/>
<path d="M325.37 196.297V196.651C325.192 196.651 325.192 196.651 325.015 196.474V196.297V196.119C325.015 195.942 325.015 195.942 325.192 195.765C325.192 196.119 325.192 196.297 325.37 196.297Z" fill="#242752"/>
<path d="M325.372 195.939V196.294C325.372 196.117 325.194 196.117 325.194 195.939C325.194 196.117 325.194 195.939 325.372 195.939Z" fill="#242752"/>
<path d="M325.372 196.294C325.372 196.117 325.194 196.117 325.194 195.939C325.194 196.117 325.194 196.294 325.372 196.294Z" fill="#242752"/>
<path d="M325.369 196.825C325.191 196.825 325.191 196.825 325.014 196.647C325.191 196.647 325.191 196.825 325.369 196.825Z" fill="#242752"/>
<path d="M325.372 195.939C325.372 195.939 325.194 195.939 325.194 196.117L325.372 195.939Z" fill="#242752"/>
<path d="M325.192 196.825L320.405 197.357C320.405 197.18 320.405 197.18 320.405 197.002C320.405 196.825 320.405 196.648 320.405 196.648L324.66 196.293C324.838 196.47 324.838 196.648 325.015 196.825H325.192C325.192 196.825 325.015 196.648 325.192 196.825Z" fill="#242752"/>
<path d="M325.016 195.939C325.016 196.117 325.016 196.117 325.016 195.939C325.016 196.117 324.839 196.117 324.839 196.294V196.471C324.662 196.294 324.662 196.117 324.484 195.939H325.016Z" fill="#242752"/>
<path d="M325.016 195.939C324.484 195.23 323.952 194.52 323.42 193.634C323.952 194.52 324.484 195.407 325.016 195.939Z" fill="#242752"/>
<path d="M325.013 195.942H324.481C322.354 193.105 318.807 187.431 317.744 179.807C317.744 179.275 317.389 178.743 316.857 178.388C316.325 178.034 315.793 178.034 315.261 178.034C311.892 178.743 305.509 179.984 299.835 179.984C294.515 179.984 288.487 178.92 284.586 178.034C284.054 177.856 283.522 178.034 282.99 178.388C282.458 178.743 282.281 179.275 282.103 179.807C281.04 187.254 277.848 192.573 275.366 196.12H274.834L275.011 195.942C275.188 195.765 275.366 195.588 275.543 195.233C275.72 195.056 275.897 194.701 276.075 194.524C276.607 193.637 277.316 192.751 277.848 191.509C278.557 190.268 279.089 189.027 279.621 187.609C279.621 187.431 279.798 187.431 279.798 187.254C279.976 186.899 280.153 186.367 280.153 186.013C280.153 185.835 280.33 185.658 280.33 185.303C280.508 184.594 280.685 184.062 280.862 183.353C281.04 182.821 281.04 182.466 281.217 181.934C281.217 181.757 281.394 181.403 281.394 181.225C281.572 180.693 281.572 180.161 281.572 179.807C281.572 179.275 281.926 178.743 282.281 178.388C282.813 177.856 283.699 177.502 284.409 177.679C287.955 178.388 294.161 179.629 299.658 179.629C305.154 179.629 311.538 178.566 314.907 177.679C315.793 177.502 316.502 177.856 317.034 178.388C317.389 178.743 317.566 179.275 317.744 179.807C318.63 185.835 320.935 190.446 322.886 193.637C323.95 194.524 324.481 195.41 325.013 195.942Z" fill="#242752"/>
<path d="M324.662 196.111L320.406 196.465C320.229 191.855 316.328 188.132 311.541 188.132C306.753 188.132 302.852 191.855 302.675 196.643H300.193L300.547 194.515C300.547 194.337 300.37 194.16 300.193 193.983C300.015 193.983 299.838 194.16 299.838 194.337L299.483 196.643H297.533C297.356 192.032 293.455 188.132 288.667 188.132C283.88 188.132 279.979 191.855 279.801 196.465L275.369 196.111C278.028 192.742 281.043 187.245 282.107 179.798C282.107 179.266 282.461 178.734 282.993 178.379C283.525 178.025 284.057 178.025 284.589 178.025C288.667 178.911 294.696 179.975 299.838 179.975C305.512 179.975 311.895 178.734 315.264 178.025C315.796 177.847 316.328 178.025 316.86 178.379C317.392 178.734 317.569 179.266 317.747 179.798C318.988 187.6 322.357 193.096 324.662 196.111Z" fill="#73C7D1"/>
<path d="M322.529 160.831C322.352 160.831 322.352 160.831 322.174 160.831C322.174 160.654 322.174 160.654 322.174 160.477C322.352 160.477 322.352 160.477 322.529 160.477C322.529 160.654 322.529 160.831 322.529 160.831Z" fill="#242752"/>
<path d="M322.354 161.01C322.532 161.01 322.532 161.01 322.709 161.01C322.709 161.187 322.532 161.365 322.354 161.365C322.177 161.365 322 161.187 322 161.01C322 160.833 322.177 160.655 322.354 160.655C322.177 160.655 322.177 160.833 322.354 161.01C322.354 161.01 322.177 161.01 322.354 161.01Z" fill="#242752"/>
<path d="M322.536 160.471C322.359 160.471 322.359 160.471 322.181 160.471C321.649 157.811 319.167 155.684 316.33 155.684C315.089 155.684 313.848 156.038 312.961 156.748C312.961 156.57 312.784 156.57 312.784 156.393C313.848 155.684 315.089 155.329 316.33 155.329C319.344 155.506 322.004 157.634 322.536 160.471Z" fill="#242752"/>
<path d="M322.355 161.36C322.178 161.36 322.178 161.36 322.355 161.36C322.178 161.36 322 161.183 322 161.005C321.646 158.346 319.163 156.218 316.504 156.218C315.262 156.218 314.021 156.573 312.957 157.459C313.135 157.282 313.135 157.104 313.135 156.927C314.021 156.218 315.262 155.863 316.504 155.863C319.341 155.863 321.823 157.814 322.355 160.651C322.178 160.651 322 160.828 322 161.005C321.823 161.183 322 161.36 322.355 161.36Z" fill="#242752"/>
<path d="M318.279 179.797C319.165 185.826 321.47 190.436 323.421 193.628C321.293 190.436 319.165 185.826 318.279 179.797C318.279 179.265 317.924 178.734 317.569 178.379C317.924 178.734 318.101 179.265 318.279 179.797Z" fill="#242752"/>
<path d="M319.519 294.161C319.874 294.161 320.229 293.984 320.583 293.807C320.229 293.984 319.874 294.161 319.519 294.161Z" fill="#315EA9"/>
<path d="M320.231 196.469C320.231 196.646 320.231 196.823 320.231 196.823C320.231 197.001 320.231 197.001 320.231 197.178H319.876C319.876 197.001 319.876 197.001 319.876 196.823C319.876 196.646 319.876 196.646 319.876 196.469H320.231Z" fill="#242752"/>
<path d="M320.228 196.465H319.874C319.696 192.032 315.973 188.486 311.363 188.486C306.753 188.486 303.206 192.032 302.852 196.465H302.497C302.674 191.855 306.575 187.954 311.363 187.954C316.15 188.131 320.051 191.855 320.228 196.465Z" fill="#242752"/>
<path d="M320.05 197.354H320.405C320.227 202.141 316.326 205.865 311.539 205.865C306.752 205.865 302.851 202.141 302.673 197.354H303.028C303.205 201.786 306.929 205.333 311.539 205.333C315.972 205.333 319.695 201.786 320.05 197.354C319.873 197.354 319.873 197.354 320.05 197.354C319.873 197.354 319.873 197.354 320.05 197.354Z" fill="#242752"/>
<path d="M319.874 196.467C319.874 196.644 319.874 196.644 319.874 196.821C319.874 196.999 319.874 196.999 319.874 197.176C319.697 197.176 319.519 196.999 319.519 196.821C319.519 196.644 319.697 196.467 319.874 196.467Z" fill="#242752"/>
<path d="M319.871 196.467C319.694 196.467 319.517 196.645 319.517 196.822C319.517 192.389 315.971 188.843 311.538 188.843C307.282 188.843 303.736 192.212 303.559 196.467H303.204C303.381 192.035 307.105 188.488 311.715 188.488C315.971 188.488 319.694 192.035 319.871 196.467Z" fill="#242752"/>
<path d="M319.517 196.995C319.517 197.172 319.695 197.35 319.872 197.35C319.695 201.783 315.971 205.329 311.361 205.329C306.751 205.329 303.204 201.783 302.85 197.35H303.204C303.382 201.605 306.928 204.974 311.184 204.974C315.971 204.974 319.517 201.428 319.517 196.995Z" fill="#242752"/>
<path d="M319.521 196.823C319.521 197 319.521 197 319.521 196.823C319.521 201.256 315.974 204.802 311.541 204.802C307.286 204.802 303.74 201.433 303.562 197.177H303.917C304.094 197.177 304.272 197 304.272 196.823C304.272 196.646 304.094 196.468 303.917 196.468H303.562C303.74 192.213 307.286 188.844 311.541 188.844C315.974 188.844 319.521 192.39 319.521 196.823ZM314.91 193.809C315.088 193.631 315.088 193.454 314.91 193.277C311.364 190.617 307.818 193.277 307.818 193.277C307.641 193.454 307.641 193.631 307.818 193.809C307.995 193.986 308.173 193.986 308.35 193.809C308.527 193.631 311.364 191.503 314.556 193.809H314.733H314.91ZM312.96 197.887C312.96 197 312.251 196.291 311.364 196.291C310.478 196.291 309.768 197 309.768 197.887C309.768 198.773 310.478 199.483 311.364 199.483C312.251 199.483 312.96 198.773 312.96 197.887Z" fill="#F6F6F6"/>
<path d="M317.393 294.701C317.748 294.701 317.925 294.523 318.28 294.523C317.925 294.523 317.748 294.701 317.393 294.701Z" fill="#315EA9"/>
<path d="M315.44 241.684C315.44 242.038 315.44 242.393 315.44 242.925C315.263 242.925 315.263 242.925 315.086 242.925C315.086 243.102 315.086 243.279 315.086 243.634C315.086 243.457 315.086 243.279 315.086 242.925C315.086 242.747 315.086 242.393 315.086 242.216C315.263 242.038 315.44 241.861 315.44 241.684Z" fill="#242752"/>
<path d="M315.442 241.506C315.442 241.683 315.442 241.683 315.442 241.506H315.087L314.555 229.094V227.498C314.555 227.498 314.733 227.498 314.733 227.321L314.91 227.144L315.442 241.506Z" fill="#242752"/>
<path d="M314.906 241.684H315.26C315.26 241.861 315.083 242.038 314.906 242.038C314.906 241.861 314.906 241.684 314.906 241.684Z" fill="#242752"/>
<path d="M314.909 242.748C315.086 242.748 315.086 242.748 315.264 242.748C314.554 250.55 307.994 256.401 300.015 256.401C292.39 256.401 285.83 251.082 284.766 243.812L284.943 243.989C284.943 244.167 284.943 244.344 285.12 244.699C286.539 251.259 292.568 256.224 299.837 256.224C304.27 256.224 308.348 254.451 311.008 251.436C311.363 251.082 311.54 250.727 311.895 250.373C312.249 250.018 312.427 249.663 312.604 249.309C312.781 248.954 313.136 248.599 313.313 248.067C313.668 247.358 313.845 246.649 314.2 245.94C314.377 245.23 314.554 244.344 314.732 243.635V243.457C314.909 243.103 314.909 242.925 314.909 242.748Z" fill="#315EA9"/>
<path d="M314.377 229.091L314.909 241.503H314.554L314.022 229.445C314.199 229.445 314.377 229.268 314.377 229.091Z" fill="#242752"/>
<path d="M314.91 241.684C314.91 241.861 314.91 241.861 314.91 242.038C314.733 242.038 314.555 241.861 314.555 241.684H314.91Z" fill="#242752"/>
<path d="M314.907 242.038C314.907 242.216 314.907 242.57 314.907 242.747C314.907 242.925 314.907 243.102 314.907 243.457V243.634C314.73 244.521 314.553 245.23 314.375 245.939C314.198 246.648 313.843 247.358 313.489 248.067C313.312 248.421 313.134 248.776 312.78 249.308C312.602 249.663 312.248 250.017 312.07 250.372C311.716 250.727 311.538 251.081 311.184 251.436C308.524 254.45 304.446 256.223 300.013 256.223C292.743 256.223 286.714 251.259 285.296 244.698C285.296 244.521 285.296 244.343 285.119 243.989C285.296 243.989 285.296 243.989 285.296 243.811H285.473C286.537 250.727 292.743 255.691 300.013 255.691C307.815 255.691 314.021 250.195 314.553 242.747C314.553 242.393 314.553 242.038 314.553 241.684C314.553 241.861 314.73 242.038 314.907 242.038Z" fill="#242752"/>
<path d="M314.911 193.274C315.088 193.451 315.088 193.629 314.911 193.806C314.911 193.983 314.733 193.983 314.556 193.983H314.379C311.364 191.678 308.35 193.806 308.173 193.983C307.995 194.161 307.818 194.161 307.641 193.983C307.463 193.806 307.463 193.629 307.641 193.451C307.818 193.097 311.364 190.614 314.911 193.274Z" fill="#242752"/>
<path d="M314.73 227.145V227.323L314.552 227.5C314.552 227.5 314.375 227.5 314.375 227.677V227.323C314.552 227.323 314.552 227.145 314.73 227.145C314.73 227.145 314.73 226.968 314.73 227.145Z" fill="#242752"/>
<path d="M314.731 226.968C314.554 226.968 314.554 227.146 314.377 227.146C314.377 227.146 314.377 227.146 314.199 227.146L314.022 227.323V227.146C314.022 226.968 314.022 226.968 314.199 226.791H314.377C314.377 226.791 314.554 226.791 314.731 226.968Z" fill="#242752"/>
<path d="M314.553 241.68C314.553 242.035 314.553 242.389 314.553 242.744C314.021 250.191 307.638 255.688 300.013 255.688C292.743 255.688 286.537 250.723 285.473 243.808H285.296V243.63L285.651 236.538C287.778 237.07 303.027 239.907 314.021 229.445L314.553 241.68Z" fill="#73C7D1"/>
<path d="M314.908 243.455C314.731 244.342 314.553 245.051 314.376 245.76C314.553 245.228 314.731 244.342 314.908 243.455Z" fill="#242752"/>
<path d="M314.377 227.674V229.27C314.199 229.447 314.199 229.447 314.022 229.624V228.028C314.022 227.851 314.199 227.674 314.377 227.674Z" fill="#242752"/>
<path d="M314.377 227.144V227.498C314.199 227.498 314.199 227.675 314.022 227.675V227.321C314.022 227.321 314.199 227.321 314.377 227.144C314.377 227.144 314.199 227.321 314.377 227.144Z" fill="#242752"/>
<path d="M314.377 227.144C314.377 227.144 314.198 227.323 314.377 227.144C314.198 227.323 314.377 227.144 314.377 227.144Z" fill="#242752"/>
<path d="M314.025 226.792C313.848 226.792 313.848 226.969 313.848 227.146V227.324C313.848 227.324 313.848 227.324 313.67 227.324C309.592 229.629 304.982 231.047 299.84 231.047C296.825 231.047 293.988 230.515 291.329 229.629C290.088 229.274 289.024 228.742 287.96 228.21C287.251 227.855 286.541 227.501 286.009 227.146V226.969C286.009 226.792 286.009 226.792 285.832 226.614C290.088 229.274 294.875 230.515 299.84 230.515C304.982 230.87 309.769 229.451 314.025 226.792Z" fill="#242752"/>
<path d="M314.023 227.846V229.442C303.207 239.903 287.78 236.889 285.653 236.534L286.007 227.846C290.263 230.328 295.05 231.569 300.015 231.569C304.98 231.569 309.767 230.328 314.023 227.846Z" fill="#50B5BB"/>
<path d="M314.023 227.501V227.856C309.768 230.338 304.98 231.579 300.015 231.579C295.051 231.579 290.263 230.338 286.008 227.856V227.501C286.717 227.856 287.426 228.21 287.958 228.565C289.022 229.097 290.263 229.629 291.327 229.983C293.987 230.87 296.824 231.402 299.838 231.402C305.158 231.225 309.768 229.806 314.023 227.501C313.846 227.501 313.846 227.501 314.023 227.501Z" fill="#242752"/>
<path d="M312.784 249.133C312.961 248.778 313.316 248.424 313.493 247.892C313.316 248.424 313.138 248.778 312.784 249.133Z" fill="#315EA9"/>
<path d="M312.958 156.928C312.958 157.105 312.958 157.282 312.781 157.46C312.781 157.46 312.781 157.46 312.603 157.46C312.603 157.46 312.603 157.46 312.426 157.46C312.426 157.282 312.426 157.105 312.603 156.928C312.603 157.105 312.781 157.105 312.781 157.282C312.781 157.105 312.781 156.928 312.958 156.928Z" fill="#242752"/>
<path d="M312.958 156.931C312.781 156.931 312.781 157.108 312.603 157.108C312.603 156.931 312.426 156.931 312.426 156.753C312.603 156.753 312.603 156.576 312.781 156.576C312.781 156.576 312.781 156.753 312.958 156.931Z" fill="#242752"/>
<path d="M312.783 156.567C312.605 156.567 312.605 156.745 312.428 156.745C311.364 154.794 309.414 153.553 307.109 153.553C305.69 153.553 304.449 154.085 303.562 154.794C303.562 154.617 303.385 154.617 303.385 154.439C304.449 153.553 305.867 153.198 307.286 153.198C309.414 153.198 311.719 154.439 312.783 156.567Z" fill="#242752"/>
<path d="M311.364 196.293C312.251 196.293 312.96 197.002 312.96 197.889C312.96 198.775 312.251 199.485 311.364 199.485C310.478 199.485 309.769 198.775 309.769 197.889C309.769 197.002 310.478 196.293 311.364 196.293Z" fill="#242752"/>
<path d="M312.07 250.19C312.425 249.835 312.602 249.481 312.78 249.126C312.602 249.481 312.248 249.835 312.07 250.19Z" fill="#315EA9"/>
<path d="M312.428 156.752C312.251 156.93 312.251 157.107 312.251 157.284C311.364 155.334 309.414 153.915 307.109 153.915C305.69 153.915 304.449 154.447 303.385 155.334C303.562 155.156 303.562 154.979 303.385 154.802C304.449 154.092 305.69 153.561 306.931 153.561C309.414 153.561 311.364 154.802 312.428 156.752Z" fill="#242752"/>
<path d="M311.184 251.26C311.539 250.906 311.716 250.551 312.071 250.196C311.716 250.551 311.539 250.906 311.184 251.26Z" fill="#315EA9"/>
<path d="M310.12 296.115C310.297 296.115 310.474 296.115 310.829 295.938C310.474 295.938 310.297 295.938 310.12 296.115Z" fill="#315EA9"/>
<path d="M300.013 256.04C304.446 256.04 308.524 254.267 311.184 251.253C308.524 254.267 304.446 256.04 300.013 256.04C292.743 256.04 286.715 251.075 285.296 244.515C286.715 251.075 292.743 256.04 300.013 256.04Z" fill="#315EA9"/>
<path d="M305.691 218.986L306.045 219.696C303.917 220.937 302.144 221.469 300.548 221.469C297.357 221.469 295.406 219.696 295.229 219.696L295.761 219.164C296.116 219.164 300.016 222.533 305.691 218.986Z" fill="#242752"/>
<path d="M305.334 208.702C305.511 208.879 305.511 209.056 305.511 209.234C305.511 209.234 303.915 211.893 300.723 211.893C300.192 211.893 299.482 211.716 298.773 211.539C297.886 211.184 297.354 210.297 297.354 209.411L299.305 197.354H300.014L298.064 209.588C298.064 210.12 298.418 210.652 298.95 210.829C302.674 212.071 304.624 208.879 304.802 208.879C304.979 208.524 305.156 208.524 305.334 208.702Z" fill="#242752"/>
<path d="M303.74 196.467C303.917 196.467 304.094 196.644 304.094 196.821C304.094 196.999 303.917 197.176 303.74 197.176H303.385C303.385 196.999 303.385 196.999 303.385 196.821C303.385 196.644 303.385 196.644 303.385 196.467H303.74Z" fill="#242752"/>
<path d="M303.56 154.801C303.738 154.978 303.56 155.155 303.56 155.333H303.383C303.206 155.155 303.206 154.978 303.383 154.801C303.383 154.978 303.56 154.978 303.56 155.155C303.383 154.978 303.383 154.801 303.56 154.801Z" fill="#242752"/>
<path d="M303.383 196.469C303.383 196.646 303.383 196.646 303.383 196.823C303.383 197.001 303.383 197.001 303.383 197.178H303.028C303.028 197.001 303.028 197.001 303.028 196.823C303.028 196.646 303.028 196.646 303.028 196.469H303.383Z" fill="#242752"/>
<path d="M303.559 154.798C303.382 154.798 303.382 154.975 303.205 154.975C303.205 154.798 303.027 154.798 303.027 154.621C303.205 154.621 303.205 154.443 303.382 154.443C303.382 154.621 303.382 154.621 303.559 154.798Z" fill="#242752"/>
<path d="M303.208 154.444C303.03 154.444 303.03 154.622 302.853 154.622C301.789 153.203 300.016 152.317 298.243 152.317C296.115 152.317 294.342 153.38 293.278 154.976C293.101 154.976 293.101 154.976 292.923 154.799C294.165 153.026 296.115 151.962 298.243 151.962C300.193 152.139 302.144 153.026 303.208 154.444Z" fill="#242752"/>
<path d="M303.028 196.821C303.028 196.999 303.028 196.999 303.028 197.176H302.673C302.673 196.999 302.673 196.999 302.673 196.821C302.673 196.644 302.673 196.644 302.673 196.467H303.028C303.028 196.644 303.028 196.821 303.028 196.821Z" fill="#242752"/>
<path d="M303.028 154.803C302.85 154.98 302.85 155.158 303.028 155.335C301.964 153.917 300.191 153.03 298.418 153.03C296.467 153.03 294.694 154.094 293.63 155.69C293.63 155.512 293.63 155.335 293.453 155.158C294.517 153.562 296.29 152.498 298.418 152.498C300.191 152.498 301.964 153.385 303.028 154.803Z" fill="#242752"/>
<path d="M302.674 196.823C302.674 197.001 302.674 197.001 302.674 197.178H300.191L300.369 196.469H302.851C302.674 196.646 302.674 196.823 302.674 196.823Z" fill="#242752"/>
<path d="M300.189 193.811C300.366 193.811 300.544 193.988 300.544 194.342L300.189 196.47H299.48L299.834 194.165C299.834 193.988 300.012 193.811 300.189 193.811Z" fill="#242752"/>
<path d="M300.192 196.469L300.014 197.355H299.305L299.482 196.469H300.192Z" fill="#242752"/>
<path d="M299.479 196.467L299.301 197.176H297.528C297.528 196.999 297.528 196.999 297.528 196.821C297.528 196.644 297.528 196.644 297.528 196.467H299.479Z" fill="#242752"/>
<path d="M297.532 196.469C297.532 196.646 297.532 196.646 297.532 196.823C297.532 197.001 297.532 197.001 297.532 197.178H297.177C297.177 197.001 297.177 197.001 297.177 196.823C297.177 196.646 297.177 196.646 297.177 196.469H297.532Z" fill="#242752"/>
<path d="M297.531 196.467H297.177C296.999 192.034 293.276 188.487 288.665 188.487C284.055 188.487 280.509 192.034 280.154 196.467H279.8C279.977 191.856 283.878 188.133 288.665 188.133C293.453 188.133 297.354 191.856 297.531 196.467Z" fill="#242752"/>
<path d="M297.177 197.354H297.531C297.354 201.964 293.453 205.865 288.665 205.865C283.878 205.865 279.977 202.141 279.8 197.354H280.154C280.332 201.786 284.055 205.333 288.665 205.333C293.276 205.333 296.999 201.786 297.177 197.354Z" fill="#242752"/>
<path d="M297.177 196.467C297.177 196.644 297.177 196.644 297.177 196.821C297.177 196.999 297.177 196.999 297.177 197.176C296.999 197.176 296.822 196.999 296.822 196.821C296.822 196.644 296.999 196.467 297.177 196.467Z" fill="#242752"/>
<path d="M297.177 196.467C297 196.467 296.822 196.645 296.822 196.822C296.822 192.389 293.276 188.843 288.843 188.843C284.41 188.843 280.864 192.389 280.864 196.822C280.864 196.645 280.687 196.467 280.509 196.467C280.687 192.035 284.41 188.488 289.02 188.488C293.276 188.488 297 192.035 297.177 196.467Z" fill="#242752"/>
<path d="M296.823 196.82C296.823 196.998 297 197.175 297.177 197.175C297 201.608 293.276 205.154 288.666 205.154C284.056 205.154 280.51 201.608 280.155 197.175C280.333 197.175 280.51 196.998 280.51 196.82C280.51 201.253 284.056 204.799 288.489 204.799C293.099 204.977 296.823 201.43 296.823 196.82Z" fill="#242752"/>
<path d="M288.665 188.844C293.098 188.844 296.644 192.39 296.644 196.823C296.644 201.256 293.098 204.802 288.665 204.802C284.232 204.802 280.686 201.256 280.686 196.823C280.686 192.39 284.232 188.844 288.665 188.844ZM292.389 193.809C292.566 193.631 292.566 193.454 292.389 193.277C288.842 190.617 285.296 193.277 285.296 193.277C285.119 193.454 285.119 193.631 285.296 193.809C285.473 193.986 285.651 193.986 285.828 193.809C286.005 193.631 289.02 191.503 292.034 193.809H292.211H292.389ZM290.438 197.887C290.438 197 289.729 196.291 288.842 196.291C287.956 196.291 287.247 197 287.247 197.887C287.247 198.773 287.956 199.483 288.842 199.483C289.729 199.483 290.438 198.773 290.438 197.887Z" fill="#F6F6F6"/>
<path d="M293.455 155.154C293.632 155.332 293.632 155.509 293.632 155.686C293.632 155.686 293.632 155.686 293.455 155.686H293.277C293.1 155.509 293.1 155.332 293.1 155.154C293.277 155.154 293.277 155.154 293.455 155.332C293.277 155.332 293.277 155.154 293.455 155.154Z" fill="#242752"/>
<path d="M293.455 155.153C293.455 155.33 293.278 155.33 293.278 155.508C293.101 155.508 293.101 155.33 292.923 155.33C292.923 155.153 293.101 155.153 293.101 154.976C293.101 154.976 293.278 154.976 293.455 155.153C293.455 155.153 293.278 155.153 293.455 155.153Z" fill="#242752"/>
<path d="M292.923 155.685C292.923 155.685 293.1 155.685 292.923 155.685C292.213 155.508 291.504 155.33 290.795 155.33C288.667 155.33 286.717 156.571 285.83 158.345C286.007 158.167 285.83 157.99 285.653 157.813C286.717 156.039 288.667 154.976 290.795 154.976C291.504 154.976 292.213 155.153 292.745 155.33C292.745 155.508 292.745 155.685 292.923 155.685Z" fill="#242752"/>
<path d="M293.097 154.975C293.097 155.153 292.92 155.153 292.92 155.33C292.388 155.153 291.679 154.975 290.97 154.975C288.842 154.975 286.891 156.216 285.827 157.812C285.65 157.812 285.65 157.635 285.473 157.635C286.537 155.685 288.664 154.443 290.97 154.443C291.679 154.621 292.388 154.621 293.097 154.975Z" fill="#242752"/>
<path d="M292.39 193.274C292.567 193.451 292.567 193.629 292.39 193.806C292.39 193.983 292.213 193.983 292.036 193.983H291.858C288.844 191.678 285.83 193.806 285.652 193.983C285.475 194.161 285.298 194.161 285.12 193.983C284.943 193.806 284.943 193.629 285.12 193.451C285.298 193.097 288.844 190.614 292.39 193.274Z" fill="#242752"/>
<path d="M288.843 196.293C289.729 196.293 290.438 197.002 290.438 197.889C290.438 198.775 289.729 199.485 288.843 199.485C287.956 199.485 287.247 198.775 287.247 197.889C287.247 197.002 287.956 196.293 288.843 196.293Z" fill="#242752"/>
<path d="M288.137 228.563C289.201 229.095 290.442 229.627 291.506 229.982C290.442 229.45 289.378 229.095 288.137 228.563Z" fill="#242752"/>
<path d="M286.182 227.318C286.892 227.673 287.601 228.028 288.133 228.382C287.423 228.205 286.892 227.85 286.182 227.318Z" fill="#242752"/>
<path d="M286.005 226.97C286.182 226.97 286.182 227.147 286.182 227.325V227.502C286.005 227.502 286.005 227.325 285.827 227.325C285.65 227.325 285.65 227.147 285.473 227.147C285.473 226.97 285.65 226.97 285.827 226.97C285.827 226.793 286.005 226.793 286.005 226.97C286.005 226.793 286.005 226.793 286.005 226.97Z" fill="#242752"/>
<path d="M286.183 227.323C286.006 227.323 286.006 227.146 285.828 227.146V227.5C285.828 227.5 285.651 227.5 285.651 227.323C285.651 227.323 285.474 227.323 285.474 227.146V226.968V226.791C285.651 226.791 285.651 226.968 285.828 226.968C285.828 227.323 286.006 227.323 286.183 227.323Z" fill="#242752"/>
<path d="M286.186 227.496V227.85C286.008 227.85 286.008 227.673 285.831 227.673V227.318C285.831 227.318 286.008 227.318 286.186 227.496Z" fill="#242752"/>
<path d="M286.182 227.851L285.827 236.54C285.65 236.54 285.65 236.54 285.65 236.54H285.473L285.827 227.674C285.827 227.674 286.005 227.851 286.182 227.851Z" fill="#242752"/>
<path d="M285.651 157.812C285.828 157.99 285.828 158.167 285.828 158.344C285.828 158.344 285.828 158.344 285.828 158.522C285.828 158.522 285.651 158.699 285.473 158.699H285.296C285.119 158.522 285.119 158.344 285.119 158.167C285.296 158.167 285.296 158.344 285.473 158.344C285.651 158.167 285.651 157.99 285.651 157.812Z" fill="#242752"/>
<path d="M286.004 226.792H285.827C285.649 226.792 285.649 226.792 285.472 226.969C283.699 225.906 282.28 224.664 280.862 223.246C277.67 220.054 275.365 216.153 273.947 211.72C274.124 211.72 274.124 211.543 274.301 211.366C274.301 211.366 274.301 211.366 274.301 211.188C275.542 215.621 277.847 219.522 281.216 222.891C282.458 224.487 284.231 225.728 286.004 226.792Z" fill="#242752"/>
<path d="M285.832 227.678L285.477 236.544L285.3 241.686V242.927V243.637H284.945L285.654 227.501C285.654 227.501 285.832 227.501 285.832 227.678C285.654 227.501 285.654 227.678 285.832 227.678Z" fill="#242752"/>
<path d="M285.83 236.545L285.476 243.637V243.815H285.121H284.766H284.589C284.589 243.815 284.589 243.815 284.589 243.637H284.944V242.928V241.687L285.121 236.545H285.298C285.476 236.545 285.653 236.545 285.83 236.545Z" fill="#242752"/>
<path d="M285.651 157.818C285.651 157.995 285.473 157.995 285.473 158.173C285.296 158.173 285.296 157.995 285.119 157.995C285.119 157.818 285.296 157.818 285.296 157.641C285.473 157.818 285.651 157.818 285.651 157.818Z" fill="#242752"/>
<path d="M285.473 158.525C285.651 158.525 285.651 158.525 285.828 158.348C285.651 158.525 285.473 158.525 285.296 158.348C285.473 158.525 285.473 158.525 285.473 158.525Z" fill="#242752"/>
<path d="M285.474 226.966V227.143V227.32C283.701 226.257 282.105 224.838 280.509 223.419C277.14 220.051 274.835 216.15 273.594 211.717H273.771C273.771 211.717 273.771 211.717 273.948 211.717C275.19 216.15 277.672 220.051 280.864 223.242C282.282 224.661 283.701 225.902 285.474 226.966Z" fill="#242752"/>
<path d="M285.474 157.634C285.474 157.811 285.297 157.811 285.297 157.988C284.587 157.634 283.701 157.456 282.814 157.456C280.509 157.456 278.559 158.697 277.672 160.471H277.495H277.318C278.382 158.343 280.509 157.102 282.992 157.102C283.701 157.102 284.587 157.279 285.474 157.634Z" fill="#242752"/>
<path d="M285.119 243.814H285.473C285.296 243.814 285.296 243.992 285.119 243.814C285.119 243.992 285.119 243.992 285.119 243.814Z" fill="#242752"/>
<path d="M285.119 243.987C285.119 244.165 285.119 244.342 285.296 244.697C285.119 244.342 285.119 244.165 285.119 243.987Z" fill="#315EA9"/>
<path d="M285.118 157.989C284.941 158.166 285.118 158.344 285.295 158.521C284.409 158.166 283.522 157.812 282.636 157.812C280.508 157.812 278.557 159.053 277.671 161.003V160.826C277.671 160.649 277.671 160.471 277.494 160.471C278.557 158.698 280.508 157.457 282.636 157.457C283.699 157.457 284.409 157.634 285.118 157.989Z" fill="#242752"/>
<path d="M285.12 243.812C285.12 243.812 285.12 243.99 285.12 243.812C285.12 243.99 285.12 243.99 285.12 243.812C284.943 243.99 285.12 243.99 285.12 243.812C284.943 243.99 284.943 243.99 284.766 243.812H285.12Z" fill="#315EA9"/>
<path d="M284.764 243.811L284.232 243.634H284.409L284.764 243.811Z" fill="#315EA9"/>
<path d="M284.768 243.813H284.413H284.768C284.59 243.635 284.59 243.635 284.768 243.813Z" fill="#73C7D1"/>
<path d="M282.639 178.381C282.284 178.735 282.107 179.267 281.93 179.799C281.93 180.331 281.752 180.863 281.752 181.218C281.93 180.686 281.93 180.154 281.93 179.799C281.93 179.267 282.284 178.735 282.639 178.381Z" fill="#242752"/>
<path d="M281.573 181.93C281.395 182.462 281.395 182.816 281.218 183.348C281.395 182.994 281.395 182.462 281.573 181.93Z" fill="#242752"/>
<path d="M281.218 183.349C281.041 184.058 280.863 184.767 280.686 185.299C280.863 184.767 281.041 184.058 281.218 183.349Z" fill="#242752"/>
<path d="M280.686 196.823C280.686 197.001 280.686 197.001 280.686 196.823C280.686 197.001 280.508 197.178 280.331 197.178C280.331 197.001 280.331 197.001 280.331 196.823C280.331 196.646 280.331 196.646 280.331 196.469C280.508 196.469 280.686 196.646 280.686 196.823Z" fill="#242752"/>
<path d="M280.332 196.821C280.332 196.999 280.332 196.999 280.332 197.176H279.977C279.977 196.999 279.977 196.999 279.977 196.821C279.977 196.644 279.977 196.467 279.977 196.467H280.332C280.332 196.644 280.332 196.821 280.332 196.821Z" fill="#242752"/>
<path d="M280.51 186.011C280.333 186.365 280.155 186.897 280.155 187.252C280.155 186.897 280.333 186.543 280.51 186.011Z" fill="#242752"/>
<path d="M279.975 196.467C279.975 196.644 279.975 196.822 279.975 196.822C279.975 196.999 279.975 196.999 279.975 197.176L275.01 196.822L275.188 196.644C275.365 196.467 275.542 196.29 275.542 196.112L279.975 196.467Z" fill="#242752"/>
<path d="M279.799 187.607C279.267 189.026 278.558 190.444 278.026 191.508C278.735 190.444 279.267 189.026 279.799 187.607Z" fill="#242752"/>
<path d="M277.671 161.01C277.671 161.187 277.671 161.187 277.671 161.187C277.671 161.187 277.494 161.365 277.316 161.365H277.139C276.962 161.365 276.962 161.187 276.962 161.01H277.316C277.316 160.833 277.494 160.833 277.494 160.655C277.671 160.655 277.671 160.833 277.671 161.01Z" fill="#242752"/>
<path d="M277.494 160.654C277.494 160.832 277.316 160.832 277.316 161.009H276.962V160.832C276.962 160.832 276.962 160.654 277.139 160.654H277.316C277.494 160.477 277.494 160.477 277.494 160.654Z" fill="#242752"/>
<path d="M277.316 161.365H275.721C272.706 161.365 270.224 163.847 270.224 166.861C270.224 167.925 270.579 168.989 271.111 169.876C270.933 169.698 270.756 169.698 270.579 169.698C270.047 168.812 269.692 167.748 269.692 166.684C269.692 163.315 272.352 160.655 275.721 160.655H276.962C276.962 161.01 277.139 161.187 277.316 161.365Z" fill="#242752"/>
<path d="M277.139 160.477C277.139 160.477 277.139 160.654 276.962 160.654V160.831H275.721C272.352 160.831 269.692 163.491 269.692 166.86C269.692 167.924 270.047 168.988 270.579 169.874C270.401 169.874 270.401 170.052 270.224 170.052C269.692 169.165 269.337 167.924 269.337 166.86C269.337 163.314 272.174 160.477 275.721 160.477H277.139Z" fill="#242752"/>
<path d="M278.025 191.509C277.493 192.573 276.784 193.637 276.252 194.523C276.784 193.637 277.493 192.75 278.025 191.509Z" fill="#242752"/>
<path d="M276.251 194.521C276.074 194.698 275.896 195.052 275.719 195.23C275.896 195.052 276.074 194.698 276.251 194.521Z" fill="#242752"/>
<path d="M275.014 196.112H275.546C275.369 196.29 275.192 196.467 275.192 196.644L275.014 196.822H274.483C274.66 196.644 274.66 196.644 274.837 196.467C275.014 196.29 275.014 196.112 275.014 196.112Z" fill="#242752"/>
<path d="M275.724 195.223C275.547 195.4 275.369 195.577 275.192 195.932C275.369 195.577 275.547 195.4 275.724 195.223Z" fill="#242752"/>
<path d="M274.832 196.117H275.01C275.01 196.294 274.832 196.294 274.832 196.471C274.655 196.649 274.655 196.649 274.478 196.826H274.3C274.3 196.826 274.123 196.826 274.123 196.649C274.3 196.471 274.3 196.294 274.478 196.117L274.655 195.939L274.832 196.117Z" fill="#242752"/>
<path d="M274.481 196.82H275.013C274.126 197.884 273.417 198.593 273.239 198.771V198.239C273.417 197.884 273.949 197.53 274.481 196.82Z" fill="#242752"/>
<path d="M274.837 196.467C274.66 196.644 274.66 196.644 274.483 196.821C274.66 196.644 274.66 196.644 274.837 196.467Z" fill="#242752"/>
<path d="M274.656 195.939L274.479 196.117C274.302 196.294 274.124 196.471 274.124 196.649C273.947 196.649 273.947 196.471 273.947 196.294C273.947 196.117 274.124 195.939 274.302 195.939H274.656Z" fill="#242752"/>
<path d="M274.303 196.825H274.48C273.948 197.534 273.416 198.066 273.239 198.243V197.711C273.416 197.534 273.771 197.179 274.125 196.647C274.125 196.647 274.125 196.825 274.303 196.825Z" fill="#242752"/>
<path d="M274.126 211.362C274.126 211.362 274.304 211.362 274.126 211.362C274.126 211.717 273.949 211.717 273.772 211.894C273.772 211.717 273.772 211.717 273.594 211.539C273.594 211.362 273.594 211.185 273.417 211.185H273.594C273.949 211.007 274.126 211.185 274.126 211.362C274.126 211.185 274.126 211.185 274.126 211.362Z" fill="#242752"/>
<path d="M273.771 211.36C273.771 211.537 273.771 211.537 273.948 211.714C273.948 211.714 273.948 211.714 273.771 211.714C273.594 211.714 273.594 211.714 273.594 211.714V211.537V211.36C273.594 211.36 273.771 211.36 273.771 211.36C273.771 211.182 273.771 211.005 273.594 211.005C273.771 211.182 273.771 211.182 273.771 211.36Z" fill="#242752"/>
<path d="M274.123 211.185C274.123 211.008 273.946 211.008 273.768 211.008H273.591C272.882 208.703 272.705 206.398 272.705 203.915V198.95C272.882 198.95 272.882 198.95 272.882 198.773C272.882 198.773 272.882 198.773 273.059 198.596V203.738C273.237 206.398 273.591 208.88 274.123 211.185Z" fill="#242752"/>
<path d="M273.772 211.005C273.772 211.182 273.772 211.36 273.949 211.36C273.772 211.36 273.594 211.36 273.594 211.36C273.594 211.182 273.594 211.005 273.417 211.005C273.417 211.005 273.594 211.005 273.772 211.005Z" fill="#242752"/>
<path d="M273.772 211.007C273.062 208.701 272.885 206.396 272.885 203.914V198.949V203.914C272.708 206.396 273.062 208.701 273.772 211.007Z" fill="#242752"/>
<path d="M273.772 211.011C273.595 211.011 273.417 211.011 273.417 211.011C272.886 208.706 272.531 206.401 272.531 204.096V198.776C272.531 198.776 272.531 198.954 272.708 198.954C272.708 198.954 272.886 199.131 273.063 199.131V204.096C272.708 206.401 273.063 208.706 273.772 211.011Z" fill="#242752"/>
<path d="M273.418 211.536V211.713C270.049 211.181 267.212 207.635 267.212 203.379C267.212 199.655 269.162 196.287 272.177 195.223V195.577C269.517 196.641 267.567 199.655 267.567 203.202C267.744 207.457 270.226 210.826 273.418 211.536C273.418 211.358 273.418 211.358 273.418 211.536Z" fill="#242752"/>
<path d="M274.481 196.82C273.949 197.53 273.417 198.062 273.239 198.239C273.417 197.884 273.949 197.53 274.481 196.82Z" fill="#242752"/>
<path d="M273.239 210.827C273.239 211.004 273.239 211.182 273.416 211.182C270.224 210.65 267.742 207.281 267.742 203.203C267.742 199.656 269.693 196.465 272.352 195.578V195.933C269.87 196.997 268.097 199.834 268.097 203.203C268.097 207.104 270.402 210.295 273.239 210.827Z" fill="#242752"/>
<path d="M273.063 188.133V188.31C273.24 188.133 273.063 188.133 273.063 188.133Z" fill="#242752"/>
<path d="M273.237 198.241V198.773L273.059 198.95L272.882 199.128V198.596C273.059 198.419 273.059 198.419 273.237 198.241C273.059 198.241 273.059 198.241 273.237 198.241Z" fill="#242752"/>
<path d="M273.241 197.707V198.239L273.064 198.416V197.884C272.886 198.062 273.064 197.884 273.241 197.707Z" fill="#242752"/>
<path d="M273.237 195.578V197.706C273.06 197.883 272.883 198.061 272.883 198.061V195.933C272.883 195.933 272.883 195.933 273.06 195.933C273.06 195.933 273.237 195.755 273.237 195.578Z" fill="#242752"/>
<path d="M273.237 188.308V195.577C273.237 195.577 273.237 195.577 273.237 195.4C273.237 195.223 273.059 195.046 272.882 195.046V188.485C272.882 188.662 273.059 188.485 273.237 188.308Z" fill="#242752"/>
<path d="M273.24 188.312C273.24 188.667 273.063 188.667 272.886 188.667V188.312C272.708 188.312 272.708 188.312 272.531 188.135C272.531 187.958 272.708 187.78 272.886 187.78C273.063 188.135 273.24 188.135 273.24 188.312Z" fill="#242752"/>
<path d="M273.059 195.4C273.237 195.4 273.237 195.577 273.059 195.4C273.059 195.755 272.882 195.755 272.882 195.932C272.882 195.932 272.882 195.932 272.705 195.932V195.577V195.223C272.882 195.223 273.059 195.223 273.059 195.4Z" fill="#242752"/>
<path d="M272.887 187.955C272.709 187.955 272.532 188.132 272.532 188.132C270.227 187.423 268.454 185.118 268.454 182.458C268.454 181.217 268.808 179.976 269.518 178.912H269.695H269.872C268.986 179.976 268.631 181.217 268.631 182.458C268.808 184.941 270.404 187.246 272.887 187.955Z" fill="#242752"/>
<path d="M272.707 198.591V198.945C272.53 198.945 272.53 198.945 272.352 198.768L272.175 198.591C272.175 198.413 272.175 198.413 272.352 198.236L272.53 198.059V198.591H272.707Z" fill="#242752"/>
<path d="M272.708 195.939V198.067C272.53 198.245 272.53 198.245 272.53 198.245C272.53 198.245 272.353 198.422 272.353 198.599V196.117C272.53 195.939 272.708 195.939 272.708 195.939Z" fill="#242752"/>
<path d="M272.708 195.578V195.933C272.53 195.933 272.53 195.933 272.353 196.11V195.755C272.53 195.578 272.708 195.578 272.708 195.578Z" fill="#242752"/>
<path d="M272.708 195.223V195.577C272.531 195.577 272.531 195.577 272.354 195.755V195.4C272.531 195.223 272.531 195.223 272.708 195.223Z" fill="#242752"/>
<path d="M272.707 188.672V195.232C272.707 195.232 272.707 195.232 272.53 195.232C272.352 195.232 272.352 195.232 272.175 195.41V188.672C272.53 188.672 272.53 188.672 272.707 188.672Z" fill="#242752"/>
<path d="M272.707 188.31V188.665C272.707 188.665 272.707 188.665 272.53 188.665C272.352 188.665 272.352 188.665 272.175 188.665V188.31C272.175 188.31 272.175 188.31 272.175 188.133C272.53 188.133 272.707 188.31 272.707 188.31Z" fill="#242752"/>
<path d="M272.355 203.919C272.355 206.224 272.71 208.706 273.242 210.834C270.405 210.302 268.1 207.11 268.1 203.209C268.1 199.84 269.873 197.003 272.355 195.939V198.422V203.919Z" fill="#73C7D1"/>
<path d="M272.351 188.142C272.351 188.142 272.351 188.319 272.351 188.142V188.496C269.691 187.61 267.918 185.305 267.918 182.468C267.918 181.049 268.273 179.808 269.159 178.744L269.337 178.921C268.627 179.985 268.273 181.049 268.273 182.468C268.273 185.127 270.046 187.433 272.351 188.142Z" fill="#242752"/>
<path d="M271.114 169.866C271.114 170.044 271.114 170.044 271.114 170.221H270.937C270.759 170.221 270.759 170.221 270.582 170.044C270.759 170.044 270.759 169.866 270.937 169.866C270.937 169.689 270.759 169.689 270.759 169.512C270.759 169.689 270.937 169.689 271.114 169.866Z" fill="#242752"/>
<path d="M270.759 170.581H270.936C269.518 171.645 268.809 173.24 268.809 175.013C268.809 176.255 269.163 177.496 270.05 178.56C269.872 178.382 269.695 178.382 269.518 178.56C268.808 177.496 268.454 176.432 268.454 175.013C268.454 173.24 269.34 171.645 270.582 170.403C270.582 170.581 270.582 170.581 270.759 170.581Z" fill="#242752"/>
<path d="M270.581 169.874C270.581 170.051 270.758 170.051 270.758 170.229C270.581 170.229 270.581 170.406 270.404 170.406C270.404 170.229 270.226 170.229 270.226 170.051C270.226 170.051 270.404 169.874 270.581 169.874Z" fill="#242752"/>
<path d="M270.4 170.404C269.159 171.468 268.273 173.064 268.273 175.014C268.273 176.255 268.627 177.496 269.337 178.56L269.159 178.738C268.273 177.674 267.918 176.255 267.918 175.014C267.918 173.064 268.805 171.29 270.223 170.227C270.223 170.227 270.4 170.227 270.4 170.404Z" fill="#242752"/>
<path d="M270.047 178.733C270.047 178.91 270.047 178.91 270.047 178.91C270.047 178.91 270.047 178.91 270.047 179.087H269.869H269.692C269.692 178.91 269.869 178.91 269.869 178.733C269.869 178.555 269.692 178.555 269.692 178.378C269.869 178.201 270.047 178.201 270.224 178.378C270.047 178.555 270.047 178.555 270.047 178.733C270.047 178.555 270.047 178.555 270.047 178.733C270.047 178.733 270.047 178.555 270.047 178.733Z" fill="#242752"/>
<path d="M269.515 178.379C269.515 178.556 269.692 178.556 269.692 178.734C269.692 178.911 269.515 178.911 269.515 179.088L269.337 178.911C269.337 178.556 269.337 178.556 269.515 178.379C269.515 178.379 269.337 178.379 269.515 178.379Z" fill="#242752"/>
<path d="M293.632 296.831C273.772 295.767 255.686 287.966 241.679 275.554C255.686 287.788 273.772 295.767 293.632 296.831Z" fill="#315EA9"/>
<path d="M308.168 296.474V295.942C308.522 295.942 308.877 295.942 309.231 295.765V296.297C308.877 296.474 308.522 296.474 308.168 296.474Z" fill="#242752"/>
<path d="M310.828 296.118V295.586C311.005 295.586 311.183 295.586 311.36 295.409C311.715 295.409 312.069 295.231 312.424 295.231V295.763C312.069 295.763 311.715 295.941 311.36 295.941C311.183 296.118 311.005 296.118 310.828 296.118Z" fill="#242752"/>
<path d="M313.668 295.764V295.233C314.022 295.233 314.377 295.055 314.732 295.055C315.086 295.055 315.441 294.878 315.796 294.878L315.973 295.41C315.618 295.41 315.264 295.587 314.909 295.587C314.2 295.587 314.022 295.764 313.668 295.764Z" fill="#242752"/>
<path d="M321.117 293.993L320.94 293.461C321.295 293.461 321.472 293.283 321.827 293.283C322.181 293.106 322.536 293.106 322.891 292.929L323.068 293.461C322.713 293.638 322.359 293.638 322.004 293.815C321.649 293.815 321.295 293.993 321.117 293.993Z" fill="#242752"/>
<path d="M325.193 292.752L325.015 292.22C325.37 292.22 325.547 292.042 325.902 291.865C326.257 291.688 326.611 291.688 326.966 291.51C327.321 291.333 327.675 291.333 328.03 291.156C328.739 290.979 329.448 290.624 329.98 290.447C330.335 290.269 330.689 290.269 330.867 290.092H331.044C331.221 289.915 331.576 289.915 331.753 289.737L331.931 290.269C331.576 290.447 331.399 290.447 331.044 290.624H330.867C330.512 290.801 330.158 290.979 329.803 290.979C329.094 291.156 328.562 291.51 327.852 291.688C327.498 291.865 327.143 291.865 326.789 292.042C326.434 292.22 326.079 292.22 325.902 292.397C325.725 292.574 325.37 292.752 325.193 292.752Z" fill="#242752"/>
<path d="M336.72 287.962L336.542 287.607C337.074 287.253 337.784 287.075 338.315 286.721L338.493 287.075C337.961 287.43 337.252 287.607 336.72 287.962Z" fill="#242752"/>
<path d="M341.328 285.485L341.151 285.131C341.506 284.953 341.683 284.776 342.037 284.599L342.215 284.953C341.86 285.131 341.683 285.308 341.328 285.485Z" fill="#242752"/>
<path d="M343.1 284.414L342.923 284.059C343.278 283.882 343.455 283.704 343.81 283.527C344.164 283.35 344.342 283.172 344.696 282.995C345.228 282.64 345.937 282.286 346.469 281.754L346.824 282.109C346.292 282.463 345.583 282.818 345.051 283.35C344.696 283.527 344.519 283.704 344.164 283.882C343.632 284.059 343.455 284.236 343.1 284.414Z" fill="#242752"/>
<path d="M240.614 274.842C222.883 258.706 212.776 235.655 212.776 211.895C212.776 164.907 251.076 126.607 298.064 126.607C345.052 126.607 383.352 164.907 383.352 211.895C383.352 234.237 374.663 255.514 359.06 271.473L358.705 271.118C374.309 255.16 382.82 234.237 382.82 211.895C382.82 165.084 344.697 127.139 298.064 127.139C251.253 127.139 213.308 165.262 213.308 211.895C213.308 235.655 223.415 258.529 240.969 274.487L240.614 274.842Z" fill="#242752"/>
<path d="M298.24 297.183C297.531 297.183 296.822 297.183 296.113 297.183C295.758 297.183 295.403 297.183 295.049 297.183C294.694 297.183 294.162 297.183 293.808 297.183C274.303 296.119 256.217 288.85 241.677 275.906C241.323 275.551 241.145 275.374 240.791 275.019L240.436 274.665L240.614 274.487C250.898 258.884 266.501 248.067 284.41 243.635L285.119 243.812H285.297V243.989C285.297 243.989 285.297 243.989 285.297 244.167C285.297 244.344 285.297 244.521 285.474 244.699C286.892 251.259 293.098 256.047 300.014 256.047C304.269 256.047 308.17 254.273 311.007 251.436C311.362 251.082 311.539 250.904 311.894 250.55V250.373C312.071 250.018 312.248 249.841 312.603 249.486V249.309C312.78 248.954 312.958 248.599 313.135 248.245C313.489 247.536 313.667 246.826 314.021 246.294C314.199 245.585 314.376 244.699 314.553 243.989V243.812C314.553 243.635 314.553 243.457 314.553 243.103V242.748H314.731C314.908 242.748 314.908 242.748 314.908 242.748H315.085C332.994 246.117 348.598 256.047 359.236 270.941L359.414 271.118L359.059 271.473C355.69 274.842 351.967 278.033 348.243 280.87C348.066 281.048 347.711 281.225 347.534 281.402H347.356C347.002 281.58 346.647 281.934 346.292 282.112C345.761 282.466 345.051 282.821 344.519 283.353C344.165 283.53 343.987 283.708 343.633 283.885C343.278 284.062 343.101 284.239 342.746 284.417L342.569 284.594C342.392 284.771 342.037 284.949 341.86 284.949C341.505 285.126 341.328 285.303 340.973 285.481C340.087 286.013 339.2 286.545 338.136 287.076C337.604 287.431 336.895 287.786 336.363 287.963C334.767 288.672 333.171 289.559 331.575 290.268C331.221 290.445 330.866 290.623 330.689 290.623C330.334 290.8 329.98 290.977 329.625 290.977C328.916 291.155 328.384 291.509 327.675 291.687C327.32 291.864 326.965 291.864 326.611 292.041H326.433C326.079 292.219 325.901 292.219 325.547 292.396H325.369C325.192 292.396 325.015 292.573 324.838 292.573C324.128 292.751 323.419 293.105 322.532 293.282C322.178 293.46 321.823 293.46 321.469 293.637L318.986 294.346C318.632 294.524 318.277 294.524 317.745 294.701C317.39 294.701 317.213 294.878 316.858 294.878C316.326 295.056 315.617 295.233 315.085 295.233C314.731 295.233 314.376 295.41 314.021 295.41C313.667 295.41 313.312 295.588 312.958 295.588C312.603 295.588 312.248 295.765 311.894 295.765C311.539 295.765 311.184 295.942 310.83 295.942C310.652 295.942 310.475 295.942 310.12 296.119C309.943 296.119 309.766 296.119 309.411 296.297C309.057 296.297 308.879 296.297 308.525 296.474C308.17 296.474 307.815 296.651 307.461 296.651C304.978 297.006 301.609 297.183 298.24 297.183ZM240.968 274.487C241.323 274.842 241.677 275.019 241.855 275.374C256.217 288.318 274.126 295.588 293.63 296.651C293.985 296.651 294.517 296.651 294.872 296.651C295.226 296.651 295.581 296.651 295.935 296.651C300.014 296.829 304.092 296.651 307.993 296.119C308.347 296.119 308.702 296.119 309.057 295.942C309.411 295.942 309.589 295.942 309.943 295.765C310.12 295.765 310.298 295.765 310.652 295.588C310.83 295.588 311.007 295.588 311.362 295.41C311.716 295.41 312.071 295.233 312.426 295.233C312.78 295.233 313.135 295.056 313.489 295.056C313.844 295.056 314.199 294.878 314.553 294.878C314.908 294.878 315.263 294.701 315.617 294.701C316.149 294.524 316.858 294.524 317.39 294.346C317.745 294.346 317.922 294.169 318.277 294.169C318.632 293.992 318.986 293.992 319.518 293.814L321.823 293.105C322.178 292.928 322.532 292.928 322.887 292.751C323.774 292.573 324.483 292.219 325.015 292.041C325.192 292.041 325.369 291.864 325.547 291.864H325.724C326.079 291.687 326.256 291.687 326.611 291.509H326.788C327.143 291.332 327.497 291.332 327.852 291.155C328.561 290.977 329.093 290.623 329.802 290.445C330.157 290.268 330.512 290.268 330.689 290.091C331.044 289.914 331.398 289.736 331.575 289.736C333.171 289.027 334.767 288.318 336.363 287.431C336.895 287.076 337.604 286.899 338.136 286.545C339.2 286.013 340.087 285.481 340.973 284.949C341.328 284.771 341.505 284.594 341.86 284.417C342.037 284.239 342.392 284.062 342.569 284.062L342.746 283.885C343.101 283.708 343.278 283.53 343.633 283.353C343.987 283.176 344.165 282.998 344.519 282.821C345.051 282.466 345.583 282.112 346.292 281.58C346.647 281.402 347.002 281.048 347.356 280.87H347.534C347.711 280.693 348.066 280.516 348.243 280.339C352.144 277.502 355.69 274.31 359.059 270.941L359.236 270.764C348.598 256.047 333.171 246.294 315.44 242.925H315.263C315.263 243.103 315.263 243.103 315.263 243.28V243.457C315.085 244.344 314.908 245.053 314.731 245.94C314.553 246.649 314.199 247.358 313.844 248.067C313.667 248.422 313.489 248.777 313.312 249.131L313.135 249.309C313.135 249.309 313.135 249.309 313.135 249.486C312.958 249.841 312.78 250.018 312.603 250.373L312.426 250.55C312.071 250.904 311.894 251.259 311.539 251.436C308.702 254.451 304.446 256.401 300.191 256.401C292.921 256.401 286.715 251.436 285.119 244.699C285.119 244.521 285.119 244.344 284.942 244.167L284.41 243.989C266.501 248.245 251.075 259.061 240.968 274.487Z" fill="#242752"/>
<path d="M298.598 388.144C304.963 388.144 310.123 382.983 310.123 376.618C310.123 370.253 304.963 365.093 298.598 365.093C292.233 365.093 287.073 370.253 287.073 376.618C287.073 382.983 292.233 388.144 298.598 388.144Z" fill="#EB5F60"/>
<path d="M298.594 392.042C290.083 392.042 283.168 385.127 283.168 376.616C283.168 368.105 290.083 361.189 298.594 361.189C307.105 361.189 314.021 368.105 314.021 376.616C314.021 385.127 307.105 392.042 298.594 392.042ZM298.594 362.253C290.615 362.253 284.055 368.814 284.055 376.793C284.055 384.772 290.615 391.333 298.594 391.333C306.573 391.333 313.134 384.772 313.134 376.793C313.134 368.637 306.573 362.253 298.594 362.253Z" fill="#EB5F60"/>
<path d="M195.399 114.373H194.512V97.7051H212.953V98.5916H195.399V114.373Z" fill="white"/>
<path d="M405.339 114.373H404.452V98.5916H387.075V97.7051H405.339V114.373Z" fill="white"/>
<path d="M405.339 329.629H387.075V328.743H404.452V312.962H405.339V329.629Z" fill="white"/>
<path d="M212.953 329.629H194.512V312.962H195.399V328.743H212.953V329.629Z" fill="white"/>
<path d="M140.077 325.371L136.708 325.725L127.311 326.789L129.084 311.54H129.793C129.793 285.83 127.311 267.212 124.474 253.913C128.552 267.744 135.467 294.695 140.077 325.371Z" fill="#BBD3FA"/>
<path d="M136.707 325.727L131.388 342.571C131.211 343.281 130.679 343.813 130.147 344.167C128.374 345.231 126.069 343.813 125.891 341.685V340.976L127.487 326.613L136.707 325.727Z" fill="#73C7D1"/>
<path d="M67.2007 265.795L57.6257 269.873L24.4681 252.142L25.1773 250.191L29.4329 237.07L29.7875 235.829L55.8526 245.759L84.0455 232.105L86.1732 231.042L113.302 224.658C113.302 224.658 119.686 231.751 124.65 254.092C127.487 267.391 129.792 286.009 129.97 311.719H129.26H71.4562H70.215L67.2007 265.795Z" fill="#D9E5F9"/>
<path d="M94.6835 349.843L87.059 371.475L80.853 435.84H79.6118H65.9587H64.1855L57.4476 367.929L71.4554 311.543H129.082L127.309 326.792L125.713 341.154L121.281 381.05L127.841 435.84H126.6H112.947H111.351L96.6339 371.475L94.6835 349.843Z" fill="#EB5F60"/>
<path d="M127.487 454.278V459.243H92.2011C90.9599 459.243 90.0733 458.534 89.5414 457.825L127.487 454.278Z" fill="#216BA1"/>
<path d="M126.601 442.398H127.665V454.278L89.7194 457.825C89.0101 456.406 89.1874 454.456 90.9606 453.569L113.125 442.398H126.601V442.398Z" fill="#2D72B0"/>
<path d="M126.6 435.838H112.947V442.398H126.6V435.838Z" fill="#73C7D1"/>
<path d="M109.223 218.095L113.123 224.655L86.1717 231.039L86.881 227.138L87.2356 225.187L89.718 224.478L107.095 218.804L109.223 218.095Z" fill="#F6F6F6"/>
<path d="M110.465 172.352C111.529 171.642 113.125 172.529 112.948 173.77L110.997 200.722C108.16 198.417 106.033 195.58 104.437 192.743C103.727 191.324 103.018 190.083 102.664 188.842C101.422 186.005 98.2308 183.7 94.8618 184.054C88.3012 184.764 84.0457 183.522 80.854 182.104L77.6624 171.997C77.3077 170.578 78.5489 169.515 79.9675 170.046L82.8045 171.465C83.5137 171.82 84.223 171.642 84.7549 170.933L86.1734 168.983C86.5281 168.628 87.06 168.451 87.4146 168.451C88.1239 168.451 88.8331 168.805 89.0105 169.692C89.3651 170.933 90.7836 171.288 91.6702 170.401L94.3299 167.919C95.2164 167.209 96.4576 167.387 96.8123 168.451L97.6988 170.224C98.0535 171.11 99.2946 171.465 100.181 170.933L103.018 168.805C103.727 168.273 104.791 168.451 105.323 169.16L107.451 172.174C107.983 172.884 108.87 173.061 109.579 172.529L110.465 172.352Z" fill="#242752"/>
<path d="M84.3998 192.742H86.3503C86.3503 195.756 88.8326 198.238 91.847 198.238C94.8613 198.238 97.3437 195.756 97.3437 192.742H104.791C106.387 195.579 108.337 198.416 111.351 200.721C111.351 204.622 109.933 208.168 107.451 210.828C107.273 211.005 107.096 211.182 106.919 211.36C104.259 214.019 100.358 215.793 96.2798 215.793C93.9747 215.793 91.847 215.261 90.0738 214.374C84.9317 212.069 81.2082 206.75 81.2082 200.721V192.564H84.3998V192.742Z" fill="#73C7D1"/>
<path d="M107.095 210.827V218.806L89.5414 224.48V214.551C91.4918 215.437 93.6196 215.969 95.7474 215.969C99.8256 215.969 103.726 214.196 106.386 211.536C106.741 211.182 106.918 211.004 107.095 210.827Z" fill="#73C7D1"/>
<path d="M84.4002 192.741H80.854V182.279C83.8683 183.52 88.3012 184.762 94.8618 184.23C98.408 183.875 101.6 186.003 102.664 189.017C103.196 190.258 103.727 191.5 104.437 192.918H96.9895C96.9895 189.904 94.5071 187.421 91.4928 187.421C88.4785 187.421 85.9961 189.904 85.9961 192.918H84.4002V192.741Z" fill="#73C7D1"/>
<path d="M91.6685 187.247C94.6828 187.247 97.1652 189.729 97.1652 192.744C97.1652 195.758 94.6828 198.241 91.6685 198.241C88.6541 198.241 86.1717 195.758 86.1717 192.744C86.1717 189.729 88.6541 187.247 91.6685 187.247ZM92.555 192.744C92.555 192.212 92.2004 191.857 91.6685 191.857C91.1365 191.857 90.7819 192.212 90.7819 192.744C90.7819 193.276 91.1365 193.63 91.6685 193.63C92.2004 193.63 92.555 193.098 92.555 192.744Z" fill="#73C7D1"/>
<path d="M91.6704 191.854C92.2024 191.854 92.557 192.208 92.557 192.74C92.557 193.272 92.2024 193.627 91.6704 193.627C91.1385 193.627 90.7839 193.272 90.7839 192.74C90.7839 192.208 91.1385 191.854 91.6704 191.854Z" fill="#242752"/>
<path d="M86.8828 227.142L86.1735 231.042L83.8685 232.106L84.5777 228.028L86.8828 227.142Z" fill="#DADADA"/>
<path d="M80.4983 454.278V459.243H45.0356C43.7944 459.243 42.9078 458.534 42.3759 457.825L80.4983 454.278Z" fill="#216BA1"/>
<path d="M79.6131 442.398H80.677V454.278L42.7319 457.825C42.0226 456.406 42.1999 454.456 43.9731 453.569L66.1373 442.398H79.6131V442.398Z" fill="#2D72B0"/>
<path d="M79.6136 435.838H65.9604V442.398H79.6136V435.838Z" fill="#73C7D1"/>
<path d="M74.826 191.854C75.358 191.854 75.7126 192.208 75.7126 192.74C75.7126 193.272 75.358 193.627 74.826 193.627C74.2941 193.627 73.9395 193.272 73.9395 192.74C73.9395 192.208 74.4714 191.854 74.826 191.854Z" fill="#242752"/>
<path d="M21.0987 234.23L28.9005 236.89L29.2552 237.067L24.9996 250.189L17.0205 246.82C13.1196 245.224 10.1053 242.209 8.33215 238.486L2.30349 226.251C1.94886 225.542 1.77155 224.833 1.77155 224.301V222.705C1.77155 220.222 3.89931 218.095 6.3817 218.095L10.2826 234.053L14.0062 233.344L11.7011 223.414C15.0701 224.123 17.9071 226.428 19.1483 229.62L21.0987 234.23Z" fill="#73C7D1"/>
<path d="M6.38129 218.096L0.529938 193.981L4.43084 193.095L11.7007 223.415L14.0058 233.345L10.2822 234.232L6.38129 218.096Z" fill="#2D72B0"/>
<path d="M130.147 312.069H69.8608L66.8464 265.79H67.733L70.7473 311.183H129.438C129.261 289.018 127.488 269.868 124.119 254.088C119.331 232.101 112.948 225.008 112.948 224.831L113.657 224.299C113.835 224.653 120.218 231.746 125.005 253.91C128.374 269.868 130.325 289.196 130.325 311.537L130.147 312.069Z" fill="white"/>
<path d="M81.2101 436.367H63.8334L57.0955 367.924L71.1033 311.538L71.8125 311.715L57.9821 368.101L64.72 435.48H80.5009L86.7069 371.47L94.5087 348.597L95.3952 348.774L95.0406 349.838L87.5934 371.647L81.2101 436.367Z" fill="white"/>
<path d="M126.07 341.149H125.184L129.084 306.928L129.971 307.105L126.07 341.149Z" fill="white"/>
<path d="M128.198 436.365H110.998L96.2813 371.468L92.9124 336.36H93.799L97.1679 371.468L111.708 435.479H127.311L120.751 381.221L125.183 341.148L126.07 341.325L121.637 381.221L128.198 436.365Z" fill="white"/>
<path d="M79.9665 435.834H79.0799V443.636H79.9665V435.834Z" fill="white"/>
<path d="M66.4914 435.834H65.6049V442.395H66.4914V435.834Z" fill="white"/>
<path d="M81.0326 459.77H45.2152C43.974 459.77 42.9102 459.061 42.2009 457.997C41.669 457.11 41.669 456.224 41.8463 455.16C42.0236 454.273 42.7329 453.564 43.6194 453.032L65.9609 441.861H81.0326V459.77ZM66.1383 442.925L43.974 453.919C43.0875 454.273 42.7329 454.983 42.7329 455.337C42.5555 456.046 42.5555 456.756 42.9102 457.465C43.2648 458.352 44.1514 458.706 45.0379 458.706H79.9687V442.748H66.1383V442.925Z" fill="white"/>
<path d="M42.1992 458.35V457.463L42.5538 457.286L80.4989 453.917L80.6763 454.804L42.1992 458.35Z" fill="white"/>
<path d="M126.955 435.834H126.068V443.636H126.955V435.834Z" fill="white"/>
<path d="M113.48 435.834H112.593V442.395H113.48V435.834Z" fill="white"/>
<path d="M128.019 459.77H92.2018C90.9606 459.77 89.8967 459.061 89.1875 457.997C88.6555 457.111 88.6555 456.224 88.8328 455.16C89.1875 454.274 89.7194 453.564 90.606 453.21L112.947 442.039H128.019V459.77V459.77ZM113.125 442.926L90.9606 453.919C90.2513 454.274 89.8967 454.806 89.7194 455.338C89.5421 456.047 89.5421 456.756 89.8967 457.465C90.4286 458.352 91.1379 458.707 92.0245 458.707H126.955V442.748H113.125V442.926Z" fill="white"/>
<path d="M89.1876 458.35V457.463L89.5422 457.286L127.487 453.917V454.804L89.1876 458.35Z" fill="white"/>
<path d="M127.31 327.318L127.133 326.432L139.367 325.191C134.048 290.614 126.069 262.244 123.764 254.265L124.65 254.088C127.665 264.372 135.112 291.678 140.254 325.545V326.077L127.31 327.318Z" fill="white"/>
<path d="M128.729 345.227C128.197 345.227 127.665 345.049 127.31 344.872C126.246 344.34 125.537 343.276 125.36 342.035V341.326H126.246V342.035C126.246 342.922 126.778 343.808 127.665 344.163C128.374 344.517 129.261 344.517 129.97 344.163C130.502 343.808 130.856 343.276 131.211 342.744L136.53 325.899L137.417 326.254L132.098 343.099C131.92 343.808 131.388 344.517 130.679 345.049H130.502C129.792 345.049 129.261 345.227 128.729 345.227Z" fill="white"/>
<path d="M28.9002 237.245L20.5664 234.408L20.9211 233.699H21.2757L29.0775 236.359L28.9002 237.245Z" fill="white"/>
<path d="M24.8232 250.54L16.8441 247.171C12.9432 245.576 9.75156 242.561 7.80111 238.66L1.94976 226.426C1.59513 225.716 1.41782 225.007 1.41782 224.298V222.702C1.41782 220.042 3.72289 217.737 6.3826 217.737V218.092V218.447C4.07752 218.447 2.12707 220.397 2.12707 222.525V224.121C2.12707 224.83 2.30438 225.362 2.4817 225.894L8.51036 238.128C10.2835 241.852 13.2978 244.689 17.0214 246.107L25.0005 249.476L24.8232 250.54Z" fill="white"/>
<path d="M9.92865 234.761L-0.000915527 193.624L4.78655 192.561L14.5388 233.697L9.92865 234.761ZM1.06297 194.334L10.6379 233.697L13.4749 233.165L4.25461 193.802L1.06297 194.334Z" fill="white"/>
<path d="M21.8102 237.067L18.6185 229.974C17.3773 226.96 14.5403 224.832 11.3487 224.123L11.526 223.236C15.0723 223.946 17.9093 226.428 19.3278 229.62L22.5194 236.889L21.8102 237.067Z" fill="white"/>
<path d="M57.6257 270.4L57.4484 270.223L23.9361 252.491L29.4328 235.292L55.8526 245.221L85.8186 230.682L86.3505 231.391L84.0454 232.455L55.8526 246.108H55.6752L29.9648 236.356L25 251.959L57.6257 269.336L82.9816 258.52L83.3362 259.406L57.6257 270.4Z" fill="white"/>
<path d="M86.1738 231.392C85.9964 231.392 85.9964 231.392 85.8191 231.215C85.6418 231.037 85.6418 231.037 85.6418 230.86L86.883 225.186C86.883 225.009 87.0603 224.831 87.2376 224.831L89.72 223.945L109.225 217.562C109.402 217.562 109.579 217.562 109.756 217.739L113.835 224.122C113.835 224.299 113.835 224.477 113.835 224.477C113.835 224.654 113.657 224.654 113.48 224.654L86.1738 231.392ZM87.5923 225.541L86.7057 230.328L112.593 224.122L109.047 218.448L87.5923 225.541Z" fill="white"/>
<path d="M84.4003 232.103L83.5137 231.925L84.223 227.847L86.7054 226.783L87.06 227.67L85.1096 228.379L84.4003 232.103Z" fill="white"/>
<path d="M11.8793 192.737L11.5247 191.851L47.342 176.247L47.6967 177.134L11.8793 192.737Z" fill="white"/>
<path d="M14.0522 212.201L13.7697 213.041L47.3849 224.339L47.6673 223.499L14.0522 212.201Z" fill="white"/>
<path d="M90.0742 214.544H89.1876V224.474H90.0742V214.544Z" fill="white"/>
<path d="M107.629 210.822H106.742V218.801H107.629V210.822Z" fill="white"/>
<path d="M95.9263 216.319C93.6212 216.319 91.4934 215.787 89.543 214.9L89.3657 214.723C84.0463 212.24 80.5 206.744 80.5 200.715V182.274L77.3083 172.167C77.131 171.458 77.3083 170.572 77.8403 170.04C78.5495 169.508 79.2588 169.33 80.1454 169.685L82.9824 171.104C83.5143 171.281 84.0463 171.281 84.4009 170.749L85.8194 168.798C86.174 168.267 86.8833 168.089 87.4152 168.089C88.3018 168.089 89.1884 168.621 89.3657 169.685C89.543 170.04 89.7203 170.394 90.0749 170.572C90.4296 170.749 90.9615 170.572 91.1388 170.394L93.7985 167.912C94.3305 167.38 94.8624 167.203 95.5717 167.38C96.2809 167.557 96.8129 167.912 96.9902 168.621L97.8767 170.394C98.054 170.749 98.2314 170.926 98.586 171.104C98.9406 171.104 99.2952 171.104 99.6499 170.926L102.487 168.798C102.842 168.444 103.551 168.267 104.083 168.444C104.615 168.621 105.147 168.798 105.501 169.33L107.452 172.345C107.629 172.522 107.806 172.699 108.161 172.877C108.516 172.877 108.693 172.877 109.047 172.699L109.934 172.167C110.643 171.813 111.353 171.635 112.062 172.167C112.771 172.522 113.126 173.231 113.126 174.118L111.175 201.07C111.175 204.97 109.757 208.694 107.274 211.531C107.097 211.708 106.92 211.886 106.742 212.063C104.083 214.723 100.182 216.319 95.9263 216.319ZM90.0749 214.191C91.8481 215.077 93.7985 215.432 95.9263 215.432C99.8272 215.432 103.551 213.836 106.21 211.176C106.388 210.999 106.565 210.822 106.742 210.645C109.225 207.985 110.466 204.439 110.466 200.892L112.594 173.763C112.594 173.231 112.416 172.877 112.062 172.699C111.707 172.522 111.175 172.522 110.821 172.699L109.934 173.231C109.402 173.586 108.87 173.586 108.338 173.586C107.806 173.409 107.274 173.231 107.097 172.699L105.147 169.685C104.969 169.508 104.615 169.33 104.437 169.153C104.083 169.153 103.905 169.153 103.551 169.33L100.536 171.458C100.004 171.813 99.4726 171.99 98.7633 171.813C98.2314 171.635 97.6994 171.281 97.5221 170.749L96.6355 168.976C96.4582 168.621 96.1036 168.444 95.749 168.267C95.3943 168.267 95.0397 168.267 94.6851 168.621L92.0254 171.104C91.4934 171.635 90.7842 171.813 90.0749 171.636C89.3657 171.458 88.8337 170.926 88.6564 170.217C88.4791 169.508 87.9472 169.33 87.5925 169.33C87.2379 169.33 86.8833 169.508 86.706 169.862L85.1101 171.281C84.5782 171.99 83.5143 172.345 82.6278 171.813L79.7907 170.572C79.4361 170.394 78.9042 170.394 78.5495 170.749C78.1949 170.926 78.0176 171.458 78.1949 171.99L81.3866 182.274V200.892C81.3866 206.566 84.7555 211.886 89.8976 214.191H90.0749Z" fill="white"/>
<path d="M110.82 201.07C108.161 199.12 106.033 196.283 104.26 192.914C103.551 191.673 103.019 190.432 102.487 189.013C101.246 186.176 98.2312 184.226 95.0395 184.58C87.947 185.289 83.5141 183.871 80.8544 182.63L81.2091 181.743C83.8688 182.807 88.1243 184.226 95.0395 183.694C98.5858 183.339 101.955 185.467 103.373 188.658C103.905 189.9 104.437 191.318 105.146 192.382C106.92 195.574 109.047 198.233 111.53 200.361L110.82 201.07Z" fill="white"/>
<path d="M86.7072 205.858C85.6433 205.858 84.5794 205.326 83.8702 204.616C83.1609 203.73 82.8063 202.843 82.8063 201.602L84.0475 191.141L84.9341 191.318L83.6929 201.779C83.6929 202.666 83.8702 203.375 84.5794 204.085C85.1114 204.616 85.9979 204.971 86.8845 204.971V205.858H86.7072Z" fill="white"/>
<path d="M74.8258 198.588C71.6342 198.588 68.9745 195.929 68.9745 192.737C68.9745 189.545 71.6342 186.886 74.8258 186.886C78.0175 186.886 80.6772 189.545 80.6772 192.737C80.6772 195.929 78.1948 198.588 74.8258 198.588ZM74.8258 187.595C72.1661 187.595 69.8611 189.9 69.8611 192.56C69.8611 195.397 72.1661 197.525 74.8258 197.525C77.6629 197.525 79.7906 195.219 79.7906 192.56C79.7906 189.9 77.6629 187.595 74.8258 187.595Z" fill="white"/>
<path d="M91.6712 198.588C88.4796 198.588 85.8199 195.929 85.8199 192.737C85.8199 189.545 88.4796 186.886 91.6712 186.886C94.8629 186.886 97.5226 189.545 97.5226 192.737C97.5226 195.929 94.8629 198.588 91.6712 198.588ZM91.6712 187.595C88.8342 187.595 86.7064 189.9 86.7064 192.56C86.7064 195.397 89.0115 197.525 91.6712 197.525C94.3309 197.525 96.636 195.219 96.636 192.56C96.636 189.9 94.5082 187.595 91.6712 187.595Z" fill="white"/>
<path d="M86.3499 192.205H80.3213V193.092H86.3499V192.205Z" fill="white"/>
<path d="M104.615 192.205H97.1675V193.092H104.615V192.205Z" fill="white"/>
<path d="M92.5558 208.873H88.3002V209.76H92.5558V208.873Z" fill="white"/>
<path d="M90.0747 190.61C89.8974 190.61 89.7201 190.61 89.7201 190.432C89.5427 190.255 89.7201 189.9 89.8974 189.9C90.6066 189.368 92.0251 188.836 93.621 189.9C93.7983 190.078 93.7983 190.255 93.7983 190.432C93.621 190.61 93.4436 190.61 93.2663 190.61C92.2024 189.9 91.1386 190.255 90.6066 190.61C90.252 190.61 90.252 190.61 90.0747 190.61Z" fill="white"/>
<path d="M73.2284 190.609C73.0511 190.609 72.8738 190.609 72.8738 190.432C72.6965 190.254 72.8738 189.9 73.0511 189.9C73.7603 189.545 75.1788 188.836 76.7747 189.9C76.952 190.077 76.952 190.254 76.952 190.432C76.7747 190.609 76.5974 190.609 76.42 190.609C75.3562 189.9 74.2923 190.254 73.7603 190.609C73.4057 190.609 73.4057 190.609 73.2284 190.609Z" fill="white"/>
</g>
<defs>
<clipPath id="clip0_3120_22141">
<rect width="433" height="459.774" fill="white"/>
</clipPath>
</defs>
</svg>
