<svg width="44" height="45" viewBox="0 0 44 45" fill="none" xmlns="http://www.w3.org/2000/svg">
<circle cx="22" cy="22" r="22" fill="#E2F5F6"/>
<path d="M11.2634 1.62395C12.2771 0.605915 13.6537 0.0322732 15.0903 0.0292165L28.8161 1.22789e-05C30.2528 -0.0030445 31.6318 0.564736 32.6498 1.57845L42.376 11.2634C43.3941 12.2771 43.9677 13.6537 43.9708 15.0903L44 28.8161C44.003 30.2528 43.4353 31.6318 42.4216 32.6498L32.7366 42.376C31.7229 43.3941 30.3463 43.9677 28.9097 43.9708L15.1839 44C13.7472 44.003 12.3682 43.4353 11.3502 42.4216L1.62395 32.7366C0.605915 31.7229 0.0322732 30.3463 0.0292165 28.9097L1.22789e-05 15.1839C-0.0030445 13.7472 0.564736 12.3682 1.57845 11.3502L11.2634 1.62395Z" fill="#D9E5F8"/>
<path d="M31.6903 18.8572C31.2608 18.8572 30.9046 18.501 30.9046 18.0715V15.9763C30.9046 13.2734 29.1551 11.5239 26.4522 11.5239H24.357C23.9275 11.5239 23.5713 11.1677 23.5713 10.7382C23.5713 10.3086 23.9275 9.95245 24.357 9.95245H26.4522C30.0561 9.95245 32.4761 12.3725 32.4761 15.9763V18.0715C32.4761 18.501 32.1199 18.8572 31.6903 18.8572Z" fill="#3F7CDB"/>
<path d="M10.7379 18.8572C10.3083 18.8572 9.95215 18.501 9.95215 18.0715V15.9763C9.95215 12.3725 12.3721 9.95245 15.976 9.95245H18.0712C18.5007 9.95245 18.8569 10.3086 18.8569 10.7382C18.8569 11.1677 18.5007 11.5239 18.0712 11.5239H15.976C13.2731 11.5239 11.5236 13.2734 11.5236 15.9763V18.0715C11.5236 18.501 11.1674 18.8572 10.7379 18.8572Z" fill="#3F7CDB"/>
<path d="M26.4522 32.4763H24.357C23.9275 32.4763 23.5713 32.1201 23.5713 31.6906C23.5713 31.2611 23.9275 30.9049 24.357 30.9049H26.4522C29.1551 30.9049 30.9046 29.1553 30.9046 26.4525V24.3572C30.9046 23.9277 31.2608 23.5715 31.6903 23.5715C32.1199 23.5715 32.4761 23.9277 32.4761 24.3572V26.4525C32.4761 30.0563 30.0561 32.4763 26.4522 32.4763Z" fill="#3F7CDB"/>
<path d="M18.0712 32.4763H15.976C12.3721 32.4763 9.95215 30.0563 9.95215 26.4525V24.3572C9.95215 23.9277 10.3083 23.5715 10.7379 23.5715C11.1674 23.5715 11.5236 23.9277 11.5236 24.3572V26.4525C11.5236 29.1553 13.2731 30.9049 15.976 30.9049H18.0712C18.5007 30.9049 18.8569 31.2611 18.8569 31.6906C18.8569 32.1201 18.5007 32.4763 18.0712 32.4763Z" fill="#3F7CDB"/>
<path d="M21.2139 18.983C20.7005 18.983 20.271 19.402 20.271 19.9258V22.5134C20.271 23.0373 20.69 23.4563 21.2139 23.4563C21.7377 23.4563 22.1567 23.0373 22.1567 22.5134V19.9258C22.1567 19.402 21.7272 18.983 21.2139 18.983Z" fill="#3F7CDB"/>
<path d="M24.912 16.3953C24.5559 16.0392 24.1473 15.7353 23.7073 15.4839C23.5606 15.4106 23.4035 15.3373 23.2463 15.2639C23.0892 15.2011 22.932 15.1382 22.7644 15.0963C22.5968 15.0439 22.4292 15.002 22.2616 14.9601C22.2511 14.9601 22.2301 14.9601 22.2197 14.9496C21.8949 14.8868 21.5597 14.8553 21.2244 14.8553H21.2035C20.8682 14.8553 20.5435 14.8868 20.2187 14.9496C20.1768 14.9601 20.1349 14.9601 20.1035 14.9811C19.9568 15.0125 19.8101 15.0439 19.6635 15.0963C19.4854 15.1382 19.3073 15.2115 19.1292 15.2849C18.993 15.3477 18.8568 15.4211 18.7311 15.4839C18.5739 15.5677 18.4378 15.662 18.2911 15.7563C18.0187 15.9449 17.7568 16.1544 17.5159 16.3953C17.4006 16.5106 17.2854 16.6363 17.1806 16.762C17.0759 16.8982 16.9711 17.0239 16.8768 17.1706C16.7825 17.3068 16.6987 17.4534 16.6149 17.6001C16.2168 18.3439 15.9863 19.1925 15.9863 20.0934V22.3353C15.9863 24.1477 16.9082 25.7401 18.2911 26.6725C18.4168 26.7668 18.553 26.8401 18.6892 26.9239L19.2654 27.1963C19.5587 27.3115 19.8625 27.4058 20.1663 27.4687C20.5016 27.5315 20.8473 27.5734 21.2035 27.5734C21.2139 27.5734 21.2139 27.5734 21.2244 27.5734C21.5806 27.5734 21.9263 27.5315 22.2616 27.4687C22.5759 27.4058 22.8797 27.3115 23.173 27.1963C23.372 27.1125 23.5606 27.0182 23.7387 26.9239C25.352 26.0334 26.4416 24.3049 26.4416 22.3353V20.0934C26.4416 18.6477 25.8549 17.3382 24.912 16.3953ZM23.7282 22.5134C23.7282 23.8963 22.5968 25.0277 21.2139 25.0277C19.8311 25.0277 18.6997 23.8963 18.6997 22.5134V19.9258C18.6997 18.543 19.8311 17.4115 21.2139 17.4115C22.5968 17.4115 23.7282 18.543 23.7282 19.9258V22.5134Z" fill="#3F7CDB"/>
<path fill-rule="evenodd" clip-rule="evenodd" d="M0.00506998 15.321C0.00153109 15.4028 -0.000162611 15.4848 1.22789e-05 15.567L0.0292165 29.2928C0.0322732 30.7294 0.605915 32.106 1.62395 33.1197L11.3502 42.8047C12.3682 43.8184 13.7472 44.3862 15.1839 44.3831L28.9097 44.3539C30.3463 44.3508 31.7229 43.7772 32.7366 42.7592L42.4216 33.0329C43.4353 32.0149 44.003 30.6359 44 29.1992L43.9949 26.8221C43.9366 28.1694 43.3773 29.4501 42.4216 30.4099L32.7366 40.1361C31.7229 41.1541 30.3463 41.7278 28.9097 41.7308L15.1839 41.76C13.7472 41.7631 12.3682 41.1953 11.3502 40.1816L1.62395 30.4967C0.605915 29.483 0.0322732 28.1064 0.0292165 26.6697L0.00506998 15.321Z" fill="#0B1C56"/>
</svg>
