<svg width="40" height="40" viewBox="0 0 40 40" fill="none" xmlns="http://www.w3.org/2000/svg">
<circle opacity="0.5" cx="20" cy="20" r="20" fill="#D9E5F8"/>
<path d="M28.3333 18.1251C27.9917 18.1251 27.7083 17.8417 27.7083 17.5001V15.8334C27.7083 13.6834 26.3167 12.2917 24.1667 12.2917H22.5C22.1583 12.2917 21.875 12.0084 21.875 11.6667C21.875 11.3251 22.1583 11.0417 22.5 11.0417H24.1667C27.0333 11.0417 28.9583 12.9667 28.9583 15.8334V17.5001C28.9583 17.8417 28.675 18.1251 28.3333 18.1251Z" fill="#3F7CDB"/>
<path d="M11.6665 18.1251C11.3248 18.1251 11.0415 17.8417 11.0415 17.5001V15.8334C11.0415 12.9667 12.9665 11.0417 15.8332 11.0417H17.4998C17.8415 11.0417 18.1248 11.3251 18.1248 11.6667C18.1248 12.0084 17.8415 12.2917 17.4998 12.2917H15.8332C13.6832 12.2917 12.2915 13.6834 12.2915 15.8334V17.5001C12.2915 17.8417 12.0082 18.1251 11.6665 18.1251Z" fill="#3F7CDB"/>
<path d="M24.1667 28.9583H22.5C22.1583 28.9583 21.875 28.675 21.875 28.3333C21.875 27.9917 22.1583 27.7083 22.5 27.7083H24.1667C26.3167 27.7083 27.7083 26.3167 27.7083 24.1667V22.5C27.7083 22.1583 27.9917 21.875 28.3333 21.875C28.675 21.875 28.9583 22.1583 28.9583 22.5V24.1667C28.9583 27.0333 27.0333 28.9583 24.1667 28.9583Z" fill="#3F7CDB"/>
<path d="M17.4998 28.9583H15.8332C12.9665 28.9583 11.0415 27.0333 11.0415 24.1667V22.5C11.0415 22.1583 11.3248 21.875 11.6665 21.875C12.0082 21.875 12.2915 22.1583 12.2915 22.5V24.1667C12.2915 26.3167 13.6832 27.7083 15.8332 27.7083H17.4998C17.8415 27.7083 18.1248 27.9917 18.1248 28.3333C18.1248 28.675 17.8415 28.9583 17.4998 28.9583Z" fill="#3F7CDB"/>
<path d="M20 18.2251C19.5917 18.2251 19.25 18.5584 19.25 18.9751V21.0334C19.25 21.4501 19.5833 21.7834 20 21.7834C20.4167 21.7834 20.75 21.4501 20.75 21.0334V18.9751C20.75 18.5584 20.4083 18.2251 20 18.2251Z" fill="#3F7CDB"/>
<path d="M22.9418 16.1667C22.6585 15.8833 22.3335 15.6417 21.9835 15.4417C21.8668 15.3833 21.7418 15.325 21.6168 15.2667C21.4918 15.2167 21.3668 15.1667 21.2335 15.1333C21.1001 15.0917 20.9668 15.0583 20.8335 15.025C20.8251 15.025 20.8085 15.025 20.8001 15.0167C20.5418 14.9667 20.2751 14.9417 20.0085 14.9417H19.9918C19.7251 14.9417 19.4668 14.9667 19.2085 15.0167C19.1751 15.025 19.1418 15.025 19.1168 15.0417C19.0001 15.0667 18.8835 15.0917 18.7668 15.1333C18.6251 15.1667 18.4835 15.225 18.3418 15.2833C18.2335 15.3333 18.1251 15.3917 18.0251 15.4417C17.9001 15.5083 17.7918 15.5833 17.6751 15.6583C17.4585 15.8083 17.2501 15.975 17.0585 16.1667C16.9668 16.2583 16.8751 16.3583 16.7918 16.4583C16.7085 16.5667 16.6251 16.6667 16.5501 16.7833C16.4751 16.8917 16.4085 17.0083 16.3418 17.125C16.0251 17.7167 15.8418 18.3917 15.8418 19.1083V20.8917C15.8418 22.3333 16.5751 23.6 17.6751 24.3416C17.7751 24.4166 17.8835 24.475 17.9918 24.5417L18.4501 24.7583C18.6835 24.85 18.9251 24.925 19.1668 24.975C19.4335 25.025 19.7085 25.0583 19.9918 25.0583C20.0001 25.0583 20.0001 25.0583 20.0085 25.0583C20.2918 25.0583 20.5668 25.025 20.8335 24.975C21.0835 24.925 21.3251 24.85 21.5585 24.7583C21.7168 24.6916 21.8668 24.6167 22.0085 24.5417C23.2918 23.8333 24.1585 22.4583 24.1585 20.8917V19.1083C24.1585 17.9583 23.6918 16.9167 22.9418 16.1667ZM22.0001 21.0333C22.0001 22.1333 21.1001 23.0333 20.0001 23.0333C18.9001 23.0333 18.0001 22.1333 18.0001 21.0333V18.975C18.0001 17.875 18.9001 16.975 20.0001 16.975C21.1001 16.975 22.0001 17.875 22.0001 18.975V21.0333Z" fill="#3F7CDB"/>
</svg>
