<svg width="754" height="410" viewBox="0 0 754 410" fill="none" xmlns="http://www.w3.org/2000/svg">
<g clip-path="url(#clip0_2041_22340)">
<path d="M-770.594 -39.0058L-656.213 -152.421C-622.43 -185.722 -567.894 -185.722 -534.593 -151.939L724.078 1116.39C757.379 1150.17 757.379 1204.7 723.596 1238.01L609.215 1351.42C575.432 1384.72 520.896 1384.72 487.595 1350.94L-771.077 82.6143C-804.377 48.831 -804.377 -5.22242 -770.594 -39.0058Z" stroke="#5F92E1" stroke-width="0.3529" stroke-miterlimit="10"/>
<path d="M-760.943 -1.36108L-619.053 -142.286C-584.787 -176.069 -529.769 -176.069 -495.985 -141.803L714.424 1077.29C748.208 1111.56 748.208 1166.58 713.942 1200.36L572.052 1341.29C537.786 1375.07 482.767 1375.07 448.984 1340.8L-761.426 121.707C-795.209 87.9235 -794.727 32.4223 -760.943 -1.36108Z" stroke="#5F92E1" stroke-width="0.3529" stroke-miterlimit="10"/>
<path d="M-751.289 36.2827L-581.407 -132.152C-547.141 -166.418 -491.157 -166.418 -456.891 -131.669L704.774 1038.2C739.04 1072.47 739.04 1128.45 704.291 1162.72L534.409 1331.15C500.143 1365.42 444.159 1365.42 409.893 1330.67L-751.289 160.798C-785.555 126.533 -785.555 70.5486 -751.289 36.2827Z" stroke="#5F92E1" stroke-width="0.3529" stroke-miterlimit="10"/>
<path d="M-741.155 73.927L-543.763 -122.016C-509.015 -156.765 -452.548 -156.282 -417.8 -121.534L695.121 999.109C729.87 1033.86 729.387 1090.32 694.638 1125.07L497.247 1321.02C462.498 1355.76 406.032 1355.28 371.283 1320.53L-741.637 199.891C-776.386 165.142 -776.386 108.676 -741.155 73.927Z" stroke="#5F92E1" stroke-width="0.3529" stroke-miterlimit="10"/>
<path d="M-731.502 111.572L-506.119 -112.364C-470.888 -147.595 -413.938 -147.112 -378.707 -111.881L685.469 960.017C720.7 995.248 720.217 1052.2 684.986 1087.43L459.603 1311.36C424.372 1346.6 367.422 1346.11 332.191 1310.88L-731.985 238.983C-767.216 203.752 -766.733 146.803 -731.502 111.572Z" stroke="#5F92E1" stroke-width="0.3529" stroke-miterlimit="10"/>
<path d="M-721.849 149.215L-468.474 -102.229C-432.76 -137.461 -375.329 -137.461 -339.615 -101.747L675.334 920.924C710.565 956.638 710.565 1014.07 674.851 1049.78L421.476 1301.23C385.762 1336.46 328.331 1336.46 292.617 1300.75L-722.332 278.075C-757.563 242.361 -757.563 184.929 -721.849 149.215Z" stroke="#5F92E1" stroke-width="0.3529" stroke-miterlimit="10"/>
<path d="M-712.199 186.86L-431.314 -92.094C-395.118 -127.808 -336.721 -127.808 -301.007 -91.6114L665.197 881.832C700.911 918.029 700.911 976.426 664.715 1012.14L383.83 1291.09C347.634 1326.81 289.237 1326.81 253.523 1290.61L-712.681 317.167C-748.395 280.971 -747.912 223.057 -712.199 186.86Z" stroke="#5F92E1" stroke-width="0.3529" stroke-miterlimit="10"/>
<path d="M-702.063 224.505L-393.186 -81.9586C-356.507 -118.155 -297.628 -118.155 -261.431 -81.476L656.028 842.74C692.225 879.419 692.225 938.299 655.546 974.495L346.669 1280.96C309.99 1317.16 251.111 1317.16 214.914 1280.48L-702.545 356.26C-738.742 319.581 -738.742 260.701 -702.063 224.505Z" stroke="#5F92E1" stroke-width="0.3529" stroke-miterlimit="10"/>
<path d="M-692.41 262.149L-356.024 -71.8236C-319.345 -108.503 -259.5 -108.02 -222.821 -71.341L645.894 803.648C682.573 840.327 682.09 900.172 645.411 936.851L309.026 1271.31C272.346 1307.99 212.502 1307.5 175.823 1270.82L-692.893 395.835C-729.572 358.673 -729.572 298.828 -692.41 262.149Z" stroke="#5F92E1" stroke-width="0.3529" stroke-miterlimit="10"/>
<path d="M-682.757 299.793L-318.38 -62.1716C-281.218 -99.3333 -220.89 -98.8507 -183.729 -61.689L636.242 764.556C673.403 801.717 672.921 862.045 635.759 899.207L271.381 1261.17C234.22 1298.33 173.892 1297.85 136.731 1260.69L-683.24 434.444C-720.402 397.282 -719.919 336.955 -682.757 299.793Z" stroke="#5F92E1" stroke-width="0.3529" stroke-miterlimit="10"/>
<path d="M-673.105 337.438L-280.735 -52.0362C-243.091 -89.6805 -182.281 -89.1979 -144.636 -51.5536L626.589 725.464C664.234 763.108 663.751 823.918 626.107 861.563L233.737 1251.04C196.093 1288.68 135.283 1288.2 97.6386 1250.55L-673.587 473.536C-710.749 435.892 -710.749 375.082 -673.105 337.438Z" stroke="#5F92E1" stroke-width="0.3529" stroke-miterlimit="10"/>
<path d="M-663.454 375.082L-243.575 -41.901C-205.448 -79.5453 -144.155 -79.5453 -106.028 -41.4184L616.453 686.372C654.097 724.499 654.097 785.791 615.97 823.918L196.091 1240.9C157.964 1278.55 96.6718 1278.55 58.5449 1240.42L-663.937 512.629C-701.581 474.502 -701.098 413.209 -663.454 375.082Z" stroke="#5F92E1" stroke-width="0.3529" stroke-miterlimit="10"/>
<path d="M-653.318 412.726L-205.447 -31.7666C-166.838 -69.8935 -104.58 -69.8935 -66.4529 -31.284L607.284 647.279C645.411 685.889 645.411 748.147 606.801 786.273L158.93 1230.77C120.321 1268.89 58.0629 1268.89 19.936 1230.28L-653.801 551.72C-691.928 513.111 -691.928 450.853 -653.318 412.726Z" stroke="#5F92E1" stroke-width="0.3529" stroke-miterlimit="10"/>
<path d="M-643.665 450.371L-167.802 -22.1136C-128.71 -60.7232 -65.9697 -60.7232 -27.3601 -21.631L597.632 608.187C636.241 647.28 636.242 710.02 597.149 748.63L121.287 1221.11C82.1945 1259.72 19.4539 1259.72 -19.1556 1220.63L-644.148 590.813C-682.757 551.721 -682.757 488.98 -643.665 450.371Z" stroke="#5F92E1" stroke-width="0.3529" stroke-miterlimit="10"/>
<path d="M-634.013 488.015L-130.641 -11.4963C-91.5485 -50.5884 -27.8426 -50.1058 11.2496 -11.0136L587.497 569.577C626.589 608.67 626.107 672.375 587.015 711.468L83.6425 1210.98C44.5503 1250.07 -19.1555 1249.59 -58.2477 1210.5L-634.495 629.905C-673.587 590.813 -673.105 527.107 -634.013 488.015Z" stroke="#5F92E1" stroke-width="0.3529" stroke-miterlimit="10"/>
<path d="M-97.3392 1200.36L-624.842 668.997C-664.417 629.422 -663.934 565.234 -624.36 525.659L-92.9957 -1.84426C-53.4209 -41.4191 10.7675 -40.9364 50.3423 -1.36165L577.846 530.002C617.42 569.577 616.938 633.766 577.363 673.34L45.9988 1200.84C6.42399 1240.42 -57.7644 1239.94 -97.3392 1200.36Z" stroke="#5F92E1" stroke-width="0.3529" stroke-miterlimit="10"/>
<path d="M-134.984 1210.01L-634.495 706.641C-673.587 667.549 -673.105 603.843 -634.013 564.751L-53.9042 -11.4963C-14.812 -50.5884 48.8938 -50.1058 87.9859 -11.0136L587.98 492.358C627.072 531.451 626.589 595.156 587.497 634.249L6.90588 1210.5C-32.1863 1249.59 -95.8921 1249.59 -134.984 1210.01Z" stroke="#5F92E1" stroke-width="0.3529" stroke-miterlimit="10"/>
<path d="M-172.628 1219.67L-645.113 743.803C-683.722 704.711 -683.722 641.97 -644.63 603.361L-14.8116 -21.1488C24.2806 -59.7583 87.0211 -59.7583 125.631 -20.6662L598.115 455.197C636.725 494.289 636.725 557.029 597.632 595.639L-32.1859 1220.15C-71.2781 1258.76 -134.019 1258.76 -172.628 1219.67Z" stroke="#5F92E1" stroke-width="0.3529" stroke-miterlimit="10"/>
<path d="M-210.273 1229.8L-654.766 781.93C-692.893 743.321 -692.893 681.063 -654.283 642.936L24.28 -30.8008C62.8896 -68.9277 125.147 -68.9277 163.274 -30.3182L607.767 417.553C645.894 456.162 645.894 518.42 607.284 556.547L-71.2787 1230.28C-109.888 1268.41 -172.146 1267.93 -210.273 1229.8Z" stroke="#5F92E1" stroke-width="0.3529" stroke-miterlimit="10"/>
<path d="M-247.918 1239.45L-664.901 819.574C-702.545 781.447 -702.545 720.155 -664.418 682.028L63.3718 -40.9362C101.499 -78.5805 162.791 -78.5805 200.918 -40.4536L617.902 379.425C655.546 417.552 655.546 478.845 617.419 516.972L-110.371 1239.94C-148.498 1277.58 -209.791 1277.58 -247.918 1239.45Z" stroke="#5F92E1" stroke-width="0.3529" stroke-miterlimit="10"/>
<path d="M-285.56 1249.11L-675.034 856.736C-712.679 819.091 -712.196 758.281 -674.552 720.637L102.466 -50.5889C140.11 -88.2333 200.92 -87.7506 238.564 -50.1063L628.038 342.263C665.683 379.908 665.2 440.718 627.556 478.362L-149.462 1249.59C-187.106 1287.23 -247.916 1286.75 -285.56 1249.11Z" stroke="#5F92E1" stroke-width="0.3529" stroke-miterlimit="10"/>
<path d="M-323.205 1258.76L-685.17 894.38C-722.331 857.219 -721.849 796.891 -684.687 759.73L141.558 -60.2409C178.719 -97.4026 239.047 -96.92 276.208 -59.7583L638.173 304.619C675.335 341.781 674.852 402.109 637.691 439.27L-188.554 1259.24C-225.716 1296.4 -286.043 1295.92 -323.205 1258.76Z" stroke="#5F92E1" stroke-width="0.3529" stroke-miterlimit="10"/>
<path d="M-360.85 1268.41L-694.823 932.024C-731.502 895.345 -731.019 835.5 -694.34 798.821L180.649 -69.8939C217.328 -106.573 277.173 -106.09 313.852 -69.4113L648.307 267.457C684.986 304.136 684.504 363.981 647.825 400.66L-227.164 1269.37C-264.326 1305.57 -324.171 1305.57 -360.85 1268.41Z" stroke="#5F92E1" stroke-width="0.3529" stroke-miterlimit="10"/>
<path d="M-398.494 1278.55L-704.958 969.669C-741.154 932.99 -741.154 874.11 -704.475 837.914L219.741 -79.5455C256.42 -115.742 315.3 -115.742 351.496 -79.0629L657.96 229.814C694.156 266.493 694.156 325.372 657.477 361.569L-266.739 1279.03C-303.418 1315.22 -362.298 1314.74 -398.494 1278.55Z" stroke="#5F92E1" stroke-width="0.3529" stroke-miterlimit="10"/>
<path d="M-436.139 1288.2L-715.093 1007.31C-750.807 971.117 -750.807 912.72 -714.61 877.006L258.833 -89.6809C295.03 -125.395 353.427 -125.395 389.141 -89.1983L668.094 191.686C703.808 227.883 703.808 286.28 667.612 321.994L-305.832 1288.68C-342.028 1324.39 -399.942 1324.39 -436.139 1288.2Z" stroke="#5F92E1" stroke-width="0.3529" stroke-miterlimit="10"/>
<path d="M-473.782 1297.85L-725.226 1044.48C-760.458 1008.76 -760.458 951.33 -724.744 915.616L297.927 -99.3329C333.641 -134.564 391.072 -134.564 426.786 -98.8503L678.231 154.525C713.462 190.239 713.462 247.671 677.749 283.384L-344.922 1298.33C-380.636 1334.05 -438.068 1333.56 -473.782 1297.85Z" stroke="#5F92E1" stroke-width="0.3529" stroke-miterlimit="10"/>
<path d="M-511.428 1307.5L-735.364 1082.12C-770.595 1046.89 -770.112 989.939 -734.881 954.708L337.017 -108.986C372.248 -144.217 429.197 -143.734 464.428 -108.503L688.364 116.88C723.595 152.111 723.112 209.061 687.881 244.292L-384.017 1307.98C-419.248 1343.22 -476.197 1342.73 -511.428 1307.5Z" stroke="#5F92E1" stroke-width="0.3529" stroke-miterlimit="10"/>
<path d="M-549.071 1317.64L-745.015 1120.25C-779.763 1085.5 -779.281 1029.03 -744.532 994.283L376.11 -118.638C410.859 -153.386 467.326 -152.904 502.074 -118.155L698.018 79.2364C732.766 113.985 732.284 170.451 697.535 205.2L-423.107 1318.12C-457.856 1352.39 -514.322 1352.39 -549.071 1317.64Z" stroke="#5F92E1" stroke-width="0.3529" stroke-miterlimit="10"/>
<path d="M-586.715 1327.29L-755.15 1157.41C-789.416 1123.14 -789.416 1067.16 -754.667 1032.89L415.203 -128.29C449.469 -162.556 505.452 -162.556 539.718 -127.808L708.153 42.0745C742.419 76.3404 742.419 132.324 707.67 166.59L-462.2 1327.77C-496.466 1362.04 -552.449 1361.56 -586.715 1327.29Z" stroke="#5F92E1" stroke-width="0.3529" stroke-miterlimit="10"/>
<path d="M-624.36 1336.94L-765.285 1195.05C-799.068 1160.79 -799.068 1105.77 -764.802 1071.98L454.294 -138.426C488.56 -172.209 543.579 -172.209 577.362 -137.943L718.287 3.94714C752.071 38.2131 752.071 93.2317 717.805 127.015L-501.292 1337.42C-535.076 1371.21 -590.577 1371.21 -624.36 1336.94Z" stroke="#5F92E1" stroke-width="0.3529" stroke-miterlimit="10"/>
<path d="M-662.005 1346.59L-775.42 1232.7C-808.721 1198.91 -808.721 1144.38 -774.938 1111.08L493.386 -148.078C527.17 -181.378 581.706 -181.378 615.006 -147.595L728.422 -33.2142C761.723 0.569172 761.723 55.1052 727.939 88.4059L-540.385 1347.08C-574.168 1380.38 -628.221 1380.38 -662.005 1346.59Z" stroke="#5F92E1" stroke-width="0.3529" stroke-miterlimit="10"/>
</g>
<defs>
<clipPath id="clip0_2041_22340">
<rect width="754" height="410" fill="white"/>
</clipPath>
</defs>
</svg>
