<svg width="56" height="57" viewBox="0 0 56 57" fill="none" xmlns="http://www.w3.org/2000/svg">
<circle cx="28" cy="28" r="28" fill="#E2F5F6"/>
<path d="M14.3352 2.06685C15.6254 0.771165 17.3774 0.041075 19.2059 0.0371846L36.675 1.56277e-05C38.5035 -0.00387481 40.2586 0.718754 41.5543 2.00893L53.9331 14.3352C55.2288 15.6254 55.9589 17.3774 55.9628 19.2059L56 36.675C56.0039 38.5035 55.2812 40.2586 53.9911 41.5543L41.6648 53.9331C40.3746 55.2288 38.6226 55.9589 36.7941 55.9628L19.325 56C17.4965 56.0039 15.7414 55.2812 14.4457 53.9911L2.06685 41.6648C0.771165 40.3746 0.041075 38.6226 0.0371846 36.7941L1.56277e-05 19.325C-0.00387481 17.4965 0.718754 15.7414 2.00893 14.4457L14.3352 2.06685Z" fill="white"/>
<path d="M26.3326 15.9337C26.3326 16.187 26.1192 16.4004 25.8659 16.4004H24.3592C21.4792 16.4004 19.1326 18.747 19.1326 21.627V33.9337C19.1326 34.187 18.9192 34.4004 18.6659 34.4004H17.7326C16.1459 34.4004 14.8659 33.1204 14.8659 31.5337V15.9337C14.8659 14.347 16.1459 13.067 17.7326 13.067H23.4659C25.0526 13.067 26.3326 14.347 26.3326 15.9337Z" fill="#3F7CDB"/>
<path d="M41.5325 15.9337V31.5337C41.5325 33.1204 40.2525 34.4004 38.6659 34.4004H37.8259C37.5725 34.4004 37.3592 34.187 37.3592 33.9337V21.627C37.3592 18.747 35.0125 16.4004 32.1325 16.4004H30.5325C30.2792 16.4004 30.0659 16.187 30.0659 15.9337C30.0659 14.347 31.3459 13.067 32.9325 13.067H38.6659C40.2525 13.067 41.5325 14.347 41.5325 15.9337Z" fill="#3F7CDB"/>
<path d="M32.1326 18.4004H24.3592C22.5726 18.4004 21.1326 19.8404 21.1326 21.6271V36.5071C21.1326 38.2937 22.5726 39.7337 24.3592 39.7337H26.5326C26.9059 39.7337 27.1992 39.4404 27.1992 39.0671V35.7337C27.1992 35.1871 27.6526 34.7337 28.1992 34.7337C28.7459 34.7337 29.1992 35.1871 29.1992 35.7337V39.0671C29.1992 39.4404 29.4926 39.7337 29.8659 39.7337H32.1459C33.9192 39.7337 35.3592 38.2937 35.3592 36.5204V21.6271C35.3592 19.8404 33.9192 18.4004 32.1326 18.4004ZM30.8659 30.0671H25.5326C24.9859 30.0671 24.5326 29.6137 24.5326 29.0671C24.5326 28.5204 24.9859 28.0671 25.5326 28.0671H30.8659C31.4126 28.0671 31.8659 28.5204 31.8659 29.0671C31.8659 29.6137 31.4126 30.0671 30.8659 30.0671ZM30.8659 26.0671H25.5326C24.9859 26.0671 24.5326 25.6137 24.5326 25.0671C24.5326 24.5204 24.9859 24.0671 25.5326 24.0671H30.8659C31.4126 24.0671 31.8659 24.5204 31.8659 25.0671C31.8659 25.6137 31.4126 26.0671 30.8659 26.0671Z" fill="#3F7CDB"/>
<path fill-rule="evenodd" clip-rule="evenodd" d="M0.00645519 19.5C0.00194945 19.6041 -0.000207 19.7085 1.56278e-05 19.8131L0.0371846 37.2822C0.041075 39.1107 0.771165 40.8628 2.06685 42.1529L14.4457 54.4792C15.7414 55.7694 17.4965 56.492 19.325 56.4881L36.7941 56.451C38.6226 56.4471 40.3746 55.717 41.6648 54.4213L53.9911 42.0425C55.2812 40.7468 56.0039 38.9917 56 37.1632L55.9935 34.1366C55.9193 35.8514 55.2074 37.4813 53.9911 38.7028L41.6648 51.0816C40.3746 52.3773 38.6226 53.1074 36.7941 53.1113L19.325 53.1485C17.4965 53.1524 15.7414 52.4297 14.4457 51.1396L2.06685 38.8133C0.771165 37.5231 0.041075 35.7711 0.0371846 33.9426L0.00645519 19.5Z" fill="#0B1C56"/>
</svg>
