<svg width="1440" height="702" viewBox="0 0 1440 702" fill="none" xmlns="http://www.w3.org/2000/svg">
<g clip-path="url(#clip0_2106_13232)">
<path d="M925.405 -1034.01L1039.79 -1147.42C1073.57 -1180.72 1128.11 -1180.72 1161.41 -1146.94L2420.08 121.385C2453.38 155.169 2453.38 209.705 2419.59 243.005L2305.21 356.421C2271.43 389.722 2216.89 389.722 2183.59 355.938L924.922 -912.386C891.622 -946.169 891.622 -1000.22 925.405 -1034.01Z" stroke="#9FBEED" stroke-width="0.3529" stroke-miterlimit="10"/>
<path d="M935.058 -996.362L1076.95 -1137.29C1111.21 -1171.07 1166.23 -1171.07 1200.02 -1136.8L2410.43 82.2925C2444.21 116.558 2444.21 171.577 2409.94 205.36L2268.05 346.285C2233.79 380.069 2178.77 380.069 2144.98 345.803L934.575 -873.294C900.792 -907.077 901.274 -962.579 935.058 -996.362Z" stroke="#9FBEED" stroke-width="0.3529" stroke-miterlimit="10"/>
<path d="M944.709 -958.717L1114.59 -1127.15C1148.86 -1161.42 1204.84 -1161.42 1239.11 -1126.67L2400.77 43.2007C2435.04 77.4667 2435.04 133.45 2400.29 167.716L2230.41 336.151C2196.14 370.417 2140.16 370.417 2105.89 335.668L944.709 -834.202C910.443 -868.467 910.443 -924.451 944.709 -958.717Z" stroke="#9FBEED" stroke-width="0.3529" stroke-miterlimit="10"/>
<path d="M954.844 -921.073L1152.24 -1117.02C1186.98 -1151.77 1243.45 -1151.28 1278.2 -1116.53L2391.12 4.10852C2425.87 38.8571 2425.39 95.3237 2390.64 130.072L2193.25 326.016C2158.5 360.764 2102.03 360.282 2067.28 325.533L954.362 -795.109C919.613 -829.858 919.613 -886.324 954.844 -921.073Z" stroke="#9FBEED" stroke-width="0.3529" stroke-miterlimit="10"/>
<path d="M964.497 -883.428L1189.88 -1107.36C1225.11 -1142.59 1282.06 -1142.11 1317.29 -1106.88L2381.47 -34.9831C2416.7 0.248071 2416.22 57.1972 2380.98 92.4284L2155.6 316.364C2120.37 351.595 2063.42 351.112 2028.19 315.881L964.014 -756.017C928.783 -791.248 929.266 -848.197 964.497 -883.428Z" stroke="#9FBEED" stroke-width="0.3529" stroke-miterlimit="10"/>
<path d="M974.15 -845.784L1227.52 -1097.23C1263.24 -1132.46 1320.67 -1132.46 1356.38 -1096.75L2371.33 -74.075C2406.56 -38.3612 2406.56 19.0705 2370.85 54.7843L2117.48 306.229C2081.76 341.46 2024.33 341.46 1988.62 305.747L973.667 -716.924C938.436 -752.638 938.436 -810.07 974.15 -845.784Z" stroke="#9FBEED" stroke-width="0.3529" stroke-miterlimit="10"/>
<path d="M983.801 -808.14L1264.69 -1087.09C1300.88 -1122.81 1359.28 -1122.81 1394.99 -1086.61L2361.2 -113.168C2396.91 -76.9713 2396.91 -18.5743 2360.71 17.1395L2079.83 296.093C2043.63 331.807 1985.24 331.807 1949.52 295.611L983.319 -677.833C947.605 -714.029 948.088 -771.943 983.801 -808.14Z" stroke="#9FBEED" stroke-width="0.3529" stroke-miterlimit="10"/>
<path d="M993.937 -770.496L1302.81 -1076.96C1339.49 -1113.16 1398.37 -1113.16 1434.57 -1076.48L2352.03 -152.261C2388.22 -115.582 2388.22 -56.7021 2351.55 -20.5057L2042.67 285.958C2005.99 322.154 1947.11 322.154 1910.91 285.475L993.455 -638.741C957.258 -675.42 957.258 -734.3 993.937 -770.496Z" stroke="#9FBEED" stroke-width="0.3529" stroke-miterlimit="10"/>
<path d="M1003.59 -732.851L1339.97 -1066.82C1376.65 -1103.5 1436.5 -1103.02 1473.18 -1066.34L2341.89 -191.352C2378.57 -154.673 2378.09 -94.8279 2341.41 -58.1488L2005.02 276.306C1968.35 312.985 1908.5 312.503 1871.82 275.824L1003.11 -599.165C966.427 -636.327 966.427 -696.172 1003.59 -732.851Z" stroke="#9FBEED" stroke-width="0.3529" stroke-miterlimit="10"/>
<path d="M1013.24 -695.207L1377.62 -1057.17C1414.78 -1094.33 1475.11 -1093.85 1512.27 -1056.69L2332.24 -230.444C2369.4 -193.283 2368.92 -132.955 2331.76 -95.7935L1967.38 266.171C1930.22 303.333 1869.89 302.85 1832.73 265.689L1012.76 -560.556C975.597 -597.718 976.08 -658.045 1013.24 -695.207Z" stroke="#9FBEED" stroke-width="0.3529" stroke-miterlimit="10"/>
<path d="M1022.89 -657.562L1415.26 -1047.04C1452.91 -1084.68 1513.72 -1084.2 1551.36 -1046.55L2322.59 -269.536C2360.23 -231.892 2359.75 -171.082 2322.11 -133.437L1929.74 256.036C1892.09 293.681 1831.28 293.198 1793.64 255.554L1022.41 -521.464C985.25 -559.108 985.25 -619.918 1022.89 -657.562Z" stroke="#9FBEED" stroke-width="0.3529" stroke-miterlimit="10"/>
<path d="M1032.55 -619.918L1452.42 -1036.9C1490.55 -1074.55 1551.84 -1074.55 1589.97 -1036.42L2312.45 -308.628C2350.1 -270.501 2350.1 -209.209 2311.97 -171.082L1892.09 245.902C1853.96 283.546 1792.67 283.546 1754.54 245.419L1032.06 -482.371C994.419 -520.498 994.902 -581.791 1032.55 -619.918Z" stroke="#9FBEED" stroke-width="0.3529" stroke-miterlimit="10"/>
<path d="M1042.68 -582.274L1490.55 -1026.77C1529.16 -1064.89 1591.42 -1064.89 1629.55 -1026.28L2303.28 -347.721C2341.41 -309.111 2341.41 -246.853 2302.8 -208.727L1854.93 235.766C1816.32 273.893 1754.06 273.893 1715.94 235.283L1042.2 -443.28C1004.07 -481.889 1004.07 -544.147 1042.68 -582.274Z" stroke="#9FBEED" stroke-width="0.3529" stroke-miterlimit="10"/>
<path d="M1052.33 -544.629L1528.2 -1017.11C1567.29 -1055.72 1630.03 -1055.72 1668.64 -1016.63L2293.63 -386.813C2332.24 -347.72 2332.24 -284.98 2293.15 -246.37L1817.29 226.114C1778.19 264.724 1715.45 264.724 1676.84 225.631L1051.85 -404.187C1013.24 -443.279 1013.24 -506.02 1052.33 -544.629Z" stroke="#9FBEED" stroke-width="0.3529" stroke-miterlimit="10"/>
<path d="M1061.99 -506.985L1565.36 -1006.5C1604.45 -1045.59 1668.16 -1045.11 1707.25 -1006.01L2283.5 -425.423C2322.59 -386.33 2322.11 -322.625 2283.01 -283.532L1779.64 215.979C1740.55 255.071 1676.84 254.588 1637.75 215.496L1061.5 -365.095C1022.41 -404.187 1022.89 -467.893 1061.99 -506.985Z" stroke="#9FBEED" stroke-width="0.3529" stroke-miterlimit="10"/>
<path d="M1598.66 205.361L1071.16 -326.003C1031.58 -365.578 1032.06 -429.766 1071.64 -469.341L1603 -996.844C1642.58 -1036.42 1706.77 -1035.94 1746.34 -996.362L2273.84 -464.998C2313.42 -425.423 2312.94 -361.234 2273.36 -321.66L1742 205.844C1702.42 245.418 1638.23 244.936 1598.66 205.361Z" stroke="#9FBEED" stroke-width="0.3529" stroke-miterlimit="10"/>
<path d="M1561.01 215.014L1061.5 -288.359C1022.41 -327.451 1022.89 -391.157 1061.99 -430.249L1642.09 -1006.5C1681.19 -1045.59 1744.89 -1045.11 1783.98 -1006.01L2283.98 -502.642C2323.07 -463.549 2322.59 -399.844 2283.5 -360.751L1702.9 215.496C1663.81 254.588 1600.11 254.588 1561.01 215.014Z" stroke="#9FBEED" stroke-width="0.3529" stroke-miterlimit="10"/>
<path d="M1523.37 224.666L1050.89 -251.197C1012.28 -290.289 1012.28 -353.03 1051.37 -391.639L1681.19 -1016.15C1720.28 -1054.76 1783.02 -1054.76 1821.63 -1015.67L2294.11 -539.803C2332.72 -500.711 2332.72 -437.971 2293.63 -399.361L1663.81 225.148C1624.72 263.758 1561.98 263.758 1523.37 224.666Z" stroke="#9FBEED" stroke-width="0.3529" stroke-miterlimit="10"/>
<path d="M1485.73 234.801L1041.23 -213.07C1003.11 -251.679 1003.11 -313.937 1041.72 -352.064L1720.28 -1025.8C1758.89 -1063.93 1821.15 -1063.93 1859.27 -1025.32L2303.77 -577.447C2341.89 -538.838 2341.89 -476.58 2303.28 -438.453L1624.72 235.284C1586.11 273.411 1523.85 272.928 1485.73 234.801Z" stroke="#9FBEED" stroke-width="0.3529" stroke-miterlimit="10"/>
<path d="M1448.08 244.453L1031.1 -175.426C993.455 -213.553 993.455 -274.845 1031.58 -312.972L1759.37 -1035.94C1797.5 -1073.58 1858.79 -1073.58 1896.92 -1035.45L2313.9 -615.575C2351.55 -577.448 2351.55 -516.155 2313.42 -478.028L1585.63 244.936C1547.5 282.58 1486.21 282.58 1448.08 244.453Z" stroke="#9FBEED" stroke-width="0.3529" stroke-miterlimit="10"/>
<path d="M1410.44 254.105L1020.96 -138.264C983.319 -175.909 983.802 -236.719 1021.45 -274.363L1798.46 -1045.59C1836.11 -1083.23 1896.92 -1082.75 1934.56 -1045.11L2324.04 -652.737C2361.68 -615.092 2361.2 -554.282 2323.55 -516.638L1546.54 254.588C1508.89 292.232 1448.08 291.75 1410.44 254.105Z" stroke="#9FBEED" stroke-width="0.3529" stroke-miterlimit="10"/>
<path d="M1372.79 263.758L1010.83 -100.62C973.667 -137.781 974.149 -198.109 1011.31 -235.27L1837.56 -1055.24C1874.72 -1092.4 1935.04 -1091.92 1972.21 -1054.76L2334.17 -690.381C2371.33 -653.219 2370.85 -592.891 2333.69 -555.73L1507.44 264.241C1470.28 301.402 1409.95 300.92 1372.79 263.758Z" stroke="#9FBEED" stroke-width="0.3529" stroke-miterlimit="10"/>
<path d="M1335.15 273.411L1001.18 -62.975C964.497 -99.6541 964.98 -159.499 1001.66 -196.178L1876.65 -1064.89C1913.33 -1101.57 1973.17 -1101.09 2009.85 -1064.41L2344.31 -727.542C2380.99 -690.863 2380.5 -631.018 2343.82 -594.339L1468.83 274.376C1431.67 310.572 1371.83 310.572 1335.15 273.411Z" stroke="#9FBEED" stroke-width="0.3529" stroke-miterlimit="10"/>
<path d="M1297.5 283.545L991.041 -25.331C954.845 -62.0101 954.845 -120.89 991.524 -157.086L1915.74 -1074.55C1952.42 -1110.74 2011.3 -1110.74 2047.5 -1074.06L2353.96 -765.186C2390.16 -728.507 2390.16 -669.628 2353.48 -633.431L1429.26 284.028C1392.58 320.224 1333.7 319.742 1297.5 283.545Z" stroke="#9FBEED" stroke-width="0.3529" stroke-miterlimit="10"/>
<path d="M1259.86 293.198L980.906 12.3132C945.192 -23.8832 945.192 -82.2802 981.389 -117.994L1954.83 -1084.68C1991.03 -1120.39 2049.43 -1120.39 2085.14 -1084.2L2364.09 -803.314C2399.81 -767.117 2399.81 -708.72 2363.61 -673.006L1390.17 293.68C1353.97 329.394 1296.06 329.394 1259.86 293.198Z" stroke="#9FBEED" stroke-width="0.3529" stroke-miterlimit="10"/>
<path d="M1222.22 302.849L970.771 49.4743C935.539 13.7605 935.539 -43.6712 971.253 -79.3851L1993.92 -1094.33C2029.64 -1129.57 2087.07 -1129.57 2122.78 -1093.85L2374.23 -840.476C2409.46 -804.762 2409.46 -747.33 2373.75 -711.617L1351.07 303.332C1315.36 339.046 1257.93 338.563 1222.22 302.849Z" stroke="#9FBEED" stroke-width="0.3529" stroke-miterlimit="10"/>
<path d="M1184.57 312.502L960.636 87.1192C925.405 51.888 925.888 -5.06116 961.119 -40.2924L2033.02 -1103.99C2068.25 -1139.22 2125.2 -1138.73 2160.43 -1103.5L2384.36 -878.12C2419.6 -842.889 2419.11 -785.939 2383.88 -750.708L1311.98 312.985C1276.75 348.216 1219.8 347.734 1184.57 312.502Z" stroke="#9FBEED" stroke-width="0.3529" stroke-miterlimit="10"/>
<path d="M1146.93 322.638L950.984 125.247C916.235 90.498 916.718 34.0315 951.466 -0.717093L2072.11 -1113.64C2106.86 -1148.39 2163.32 -1147.9 2198.07 -1113.15L2394.02 -915.764C2428.76 -881.015 2428.28 -824.549 2393.53 -789.8L1272.89 323.121C1238.14 357.387 1181.68 357.387 1146.93 322.638Z" stroke="#9FBEED" stroke-width="0.3529" stroke-miterlimit="10"/>
<path d="M1109.28 332.29L940.848 162.408C906.582 128.142 906.582 72.1582 941.331 37.8922L2111.2 -1123.29C2145.47 -1157.56 2201.45 -1157.56 2235.72 -1122.81L2404.15 -952.926C2438.42 -918.66 2438.42 -862.676 2403.67 -828.41L1233.8 332.773C1199.53 367.039 1143.55 366.556 1109.28 332.29Z" stroke="#9FBEED" stroke-width="0.3529" stroke-miterlimit="10"/>
<path d="M1071.64 341.942L930.714 200.052C896.931 165.786 896.931 110.767 931.197 76.984L2150.29 -1133.43C2184.56 -1167.21 2239.58 -1167.21 2273.36 -1132.94L2414.29 -991.053C2448.07 -956.787 2448.07 -901.768 2413.8 -867.985L1194.71 342.425C1160.92 376.208 1105.42 376.208 1071.64 341.942Z" stroke="#9FBEED" stroke-width="0.3529" stroke-miterlimit="10"/>
<path d="M1033.99 351.595L920.579 237.696C887.278 203.913 887.278 149.377 921.061 116.076L2189.39 -1143.08C2223.17 -1176.38 2277.7 -1176.38 2311.01 -1142.59L2424.42 -1028.21C2457.72 -994.431 2457.72 -939.895 2423.94 -906.594L1155.61 352.077C1121.83 385.378 1067.78 385.378 1033.99 351.595Z" stroke="#9FBEED" stroke-width="0.3529" stroke-miterlimit="10"/>
</g>
<g clip-path="url(#clip1_2106_13232)">
<path d="M-988.595 353.994L-874.214 240.579C-840.431 207.278 -785.895 207.278 -752.594 241.061L506.077 1509.39C539.378 1543.17 539.378 1597.7 505.595 1631.01L391.214 1744.42C357.431 1777.72 302.895 1777.72 269.594 1743.94L-989.078 475.614C-1022.38 441.831 -1022.38 387.778 -988.595 353.994Z" stroke="#9FBEED" stroke-width="0.3529" stroke-miterlimit="10"/>
<path d="M-978.942 391.638L-837.052 250.713C-802.786 216.93 -747.768 216.93 -713.984 251.196L496.425 1470.29C530.209 1504.56 530.209 1559.58 495.943 1593.36L354.053 1734.29C319.787 1768.07 264.768 1768.07 230.985 1733.8L-979.425 514.706C-1013.21 480.923 -1012.73 425.421 -978.942 391.638Z" stroke="#9FBEED" stroke-width="0.3529" stroke-miterlimit="10"/>
<path d="M-969.291 429.283L-799.409 260.848C-765.143 226.582 -709.159 226.582 -674.893 261.331L486.772 1431.2C521.038 1465.47 521.038 1521.45 486.289 1555.72L316.407 1724.15C282.141 1758.42 226.158 1758.42 191.892 1723.67L-969.291 553.798C-1003.56 519.533 -1003.56 463.549 -969.291 429.283Z" stroke="#9FBEED" stroke-width="0.3529" stroke-miterlimit="10"/>
<path d="M-959.156 466.927L-761.764 270.984C-727.016 236.235 -670.549 236.718 -635.801 271.466L477.12 1392.11C511.869 1426.86 511.386 1483.32 476.637 1518.07L279.246 1714.02C244.497 1748.76 188.031 1748.28 153.282 1713.53L-959.638 592.891C-994.387 558.142 -994.387 501.676 -959.156 466.927Z" stroke="#9FBEED" stroke-width="0.3529" stroke-miterlimit="10"/>
<path d="M-949.503 504.572L-724.12 280.636C-688.889 245.405 -631.939 245.888 -596.708 281.119L467.468 1353.02C502.699 1388.25 502.216 1445.2 466.985 1480.43L241.602 1704.36C206.371 1739.6 149.421 1739.11 114.19 1703.88L-949.986 631.983C-985.217 596.752 -984.734 539.803 -949.503 504.572Z" stroke="#9FBEED" stroke-width="0.3529" stroke-miterlimit="10"/>
<path d="M-939.85 542.216L-686.475 290.772C-650.761 255.54 -593.329 255.54 -557.616 291.254L457.333 1313.92C492.564 1349.64 492.564 1407.07 456.85 1442.78L203.475 1694.23C167.761 1729.46 110.33 1729.46 74.6159 1693.75L-940.333 671.076C-975.564 635.362 -975.564 577.93 -939.85 542.216Z" stroke="#9FBEED" stroke-width="0.3529" stroke-miterlimit="10"/>
<path d="M-930.199 579.86L-649.314 300.906C-613.118 265.192 -554.721 265.192 -519.007 301.389L447.197 1274.83C482.911 1311.03 482.911 1369.43 446.715 1405.14L165.83 1684.09C129.634 1719.81 71.2368 1719.81 35.5229 1683.61L-930.681 710.167C-966.395 673.971 -965.912 616.057 -930.199 579.86Z" stroke="#9FBEED" stroke-width="0.3529" stroke-miterlimit="10"/>
<path d="M-920.063 617.505L-611.186 311.041C-574.507 274.845 -515.628 274.845 -479.431 311.524L438.028 1235.74C474.225 1272.42 474.225 1331.3 437.546 1367.5L128.669 1673.96C91.9901 1710.16 33.1106 1710.16 -3.0859 1673.48L-920.545 749.26C-956.742 712.581 -956.742 653.701 -920.063 617.505Z" stroke="#9FBEED" stroke-width="0.3529" stroke-miterlimit="10"/>
<path d="M-910.411 655.149L-574.025 321.176C-537.346 284.497 -477.501 284.98 -440.822 321.659L427.893 1196.65C464.572 1233.33 464.089 1293.17 427.41 1329.85L91.0246 1664.31C54.3455 1700.99 -5.49936 1700.5 -42.1784 1663.82L-910.893 788.835C-947.573 751.673 -947.573 691.828 -910.411 655.149Z" stroke="#9FBEED" stroke-width="0.3529" stroke-miterlimit="10"/>
<path d="M-900.758 692.793L-536.381 330.828C-499.219 293.667 -438.891 294.149 -401.73 331.311L418.241 1157.56C455.402 1194.72 454.92 1255.04 417.758 1292.21L53.3804 1654.17C16.2187 1691.33 -44.1087 1690.85 -81.2704 1653.69L-901.241 827.444C-938.403 790.282 -937.92 729.955 -900.758 692.793Z" stroke="#9FBEED" stroke-width="0.3529" stroke-miterlimit="10"/>
<path d="M-891.106 730.438L-498.736 340.964C-461.092 303.319 -400.282 303.802 -362.637 341.446L408.588 1118.46C446.233 1156.11 445.75 1216.92 408.106 1254.56L15.7363 1644.04C-21.908 1681.68 -82.718 1681.2 -120.362 1643.55L-891.588 866.536C-928.75 828.892 -928.75 768.082 -891.106 730.438Z" stroke="#9FBEED" stroke-width="0.3529" stroke-miterlimit="10"/>
<path d="M-881.454 768.082L-461.575 351.099C-423.448 313.455 -362.155 313.455 -324.028 351.582L398.453 1079.37C436.097 1117.5 436.097 1178.79 397.97 1216.92L-21.9086 1633.9C-60.0355 1671.55 -121.328 1671.55 -159.455 1633.42L-881.937 905.629C-919.581 867.502 -919.098 806.209 -881.454 768.082Z" stroke="#9FBEED" stroke-width="0.3529" stroke-miterlimit="10"/>
<path d="M-871.318 805.726L-423.447 361.233C-384.838 323.106 -322.58 323.106 -284.453 361.716L389.284 1040.28C427.411 1078.89 427.411 1141.15 388.801 1179.27L-59.0696 1623.77C-97.6792 1661.89 -159.937 1661.89 -198.064 1623.28L-871.801 944.72C-909.928 906.111 -909.928 843.853 -871.318 805.726Z" stroke="#9FBEED" stroke-width="0.3529" stroke-miterlimit="10"/>
<path d="M-861.666 843.371L-385.803 370.886C-346.711 332.277 -283.971 332.277 -245.361 371.369L379.631 1001.19C418.24 1040.28 418.241 1103.02 379.148 1141.63L-96.7143 1614.11C-135.806 1652.72 -198.547 1652.72 -237.157 1613.63L-862.149 983.813C-900.758 944.721 -900.758 881.98 -861.666 843.371Z" stroke="#9FBEED" stroke-width="0.3529" stroke-miterlimit="10"/>
<path d="M-852.014 881.015L-348.642 381.504C-309.549 342.412 -245.844 342.894 -206.751 381.986L369.496 962.577C408.588 1001.67 408.106 1065.38 369.014 1104.47L-134.359 1603.98C-173.451 1643.07 -237.157 1642.59 -276.249 1603.5L-852.496 1022.9C-891.588 983.813 -891.106 920.107 -852.014 881.015Z" stroke="#9FBEED" stroke-width="0.3529" stroke-miterlimit="10"/>
<path d="M-315.341 1593.36L-842.844 1062C-882.419 1022.42 -881.936 958.234 -842.362 918.659L-310.998 391.156C-271.423 351.581 -207.234 352.064 -167.66 391.638L359.844 923.002C399.418 962.577 398.936 1026.77 359.361 1066.34L-172.003 1593.84C-211.578 1633.42 -275.766 1632.94 -315.341 1593.36Z" stroke="#9FBEED" stroke-width="0.3529" stroke-miterlimit="10"/>
<path d="M-352.985 1603.01L-852.496 1099.64C-891.588 1060.55 -891.106 996.843 -852.014 957.751L-271.905 381.504C-232.813 342.412 -169.107 342.894 -130.015 381.986L369.979 885.358C409.071 924.451 408.588 988.156 369.496 1027.25L-211.095 1603.5C-250.187 1642.59 -313.893 1642.59 -352.985 1603.01Z" stroke="#9FBEED" stroke-width="0.3529" stroke-miterlimit="10"/>
<path d="M-390.629 1612.67L-863.114 1136.8C-901.723 1097.71 -901.723 1034.97 -862.631 996.361L-232.813 371.851C-193.72 333.242 -130.98 333.242 -92.3703 372.334L380.114 848.197C418.724 887.289 418.724 950.029 379.631 988.639L-250.187 1613.15C-289.279 1651.76 -352.02 1651.76 -390.629 1612.67Z" stroke="#9FBEED" stroke-width="0.3529" stroke-miterlimit="10"/>
<path d="M-428.274 1622.8L-872.767 1174.93C-910.894 1136.32 -910.894 1074.06 -872.284 1035.94L-193.721 362.199C-155.111 324.072 -92.8535 324.072 -54.7265 362.682L389.766 810.553C427.893 849.162 427.893 911.42 389.283 949.547L-289.28 1623.28C-327.889 1661.41 -390.147 1660.93 -428.274 1622.8Z" stroke="#9FBEED" stroke-width="0.3529" stroke-miterlimit="10"/>
<path d="M-465.918 1632.45L-882.901 1212.57C-920.545 1174.45 -920.545 1113.15 -882.418 1075.03L-154.628 352.064C-116.501 314.42 -55.2086 314.42 -17.0817 352.546L399.902 772.425C437.546 810.552 437.546 871.845 399.419 909.972L-328.371 1632.94C-366.498 1670.58 -427.791 1670.58 -465.918 1632.45Z" stroke="#9FBEED" stroke-width="0.3529" stroke-miterlimit="10"/>
<path d="M-503.562 1642.11L-893.036 1249.74C-930.681 1212.09 -930.198 1151.28 -892.554 1113.64L-115.536 342.411C-77.8918 304.767 -17.0818 305.249 20.5625 342.894L410.036 735.263C447.681 772.908 447.198 833.718 409.554 871.362L-367.464 1642.59C-405.108 1680.23 -465.918 1679.75 -503.562 1642.11Z" stroke="#9FBEED" stroke-width="0.3529" stroke-miterlimit="10"/>
<path d="M-541.207 1651.76L-903.172 1287.38C-940.333 1250.22 -939.851 1189.89 -902.689 1152.73L-76.4443 332.759C-39.2826 295.597 21.0448 296.08 58.2065 333.242L420.171 697.619C457.333 734.781 456.85 795.109 419.689 832.27L-406.556 1652.24C-443.718 1689.4 -504.045 1688.92 -541.207 1651.76Z" stroke="#9FBEED" stroke-width="0.3529" stroke-miterlimit="10"/>
<path d="M-578.851 1661.41L-912.824 1325.03C-949.503 1288.35 -949.02 1228.5 -912.341 1191.82L-37.3518 323.107C-0.67277 286.428 59.1721 286.911 95.8512 323.59L430.306 660.458C466.985 697.137 466.503 756.982 429.824 793.661L-445.165 1662.38C-482.327 1698.57 -542.172 1698.57 -578.851 1661.41Z" stroke="#9FBEED" stroke-width="0.3529" stroke-miterlimit="10"/>
<path d="M-616.495 1671.55L-922.959 1362.67C-959.155 1325.99 -959.155 1267.11 -922.476 1230.91L1.74021 313.454C38.4193 277.258 97.2989 277.258 133.495 313.937L439.959 622.814C476.155 659.493 476.155 718.372 439.476 754.569L-484.74 1672.03C-521.419 1708.22 -580.299 1707.74 -616.495 1671.55Z" stroke="#9FBEED" stroke-width="0.3529" stroke-miterlimit="10"/>
<path d="M-654.14 1681.2L-933.094 1400.31C-968.808 1364.12 -968.808 1305.72 -932.611 1270.01L40.8323 303.319C77.0287 267.605 135.426 267.605 171.14 303.802L450.093 584.686C485.807 620.883 485.807 679.28 449.611 714.994L-523.833 1681.68C-560.029 1717.39 -617.943 1717.39 -654.14 1681.2Z" stroke="#9FBEED" stroke-width="0.3529" stroke-miterlimit="10"/>
<path d="M-691.785 1690.85L-943.229 1437.48C-978.461 1401.76 -978.461 1344.33 -942.747 1308.62L79.924 293.667C115.638 258.436 173.07 258.436 208.783 294.15L460.228 547.525C495.459 583.239 495.459 640.671 459.746 676.384L-562.925 1691.33C-598.639 1727.05 -656.071 1726.56 -691.785 1690.85Z" stroke="#9FBEED" stroke-width="0.3529" stroke-miterlimit="10"/>
<path d="M-729.428 1700.5L-953.364 1475.12C-988.595 1439.89 -988.112 1382.94 -952.881 1347.71L119.017 284.014C154.248 248.783 211.197 249.266 246.428 284.497L470.364 509.88C505.595 545.111 505.112 602.061 469.881 637.292L-602.017 1700.98C-637.248 1736.22 -694.197 1735.73 -729.428 1700.5Z" stroke="#9FBEED" stroke-width="0.3529" stroke-miterlimit="10"/>
<path d="M-767.073 1710.64L-963.016 1513.25C-997.765 1478.5 -997.282 1422.03 -962.534 1387.28L158.109 274.362C192.857 239.614 249.324 240.096 284.072 274.845L480.016 472.236C514.764 506.985 514.282 563.451 479.533 598.2L-641.109 1711.12C-675.858 1745.39 -732.324 1745.39 -767.073 1710.64Z" stroke="#9FBEED" stroke-width="0.3529" stroke-miterlimit="10"/>
<path d="M-804.717 1720.29L-973.152 1550.41C-1007.42 1516.14 -1007.42 1460.16 -972.669 1425.89L197.201 264.71C231.467 230.444 287.45 230.444 321.716 265.192L490.151 435.074C524.417 469.34 524.417 525.324 489.668 559.59L-680.202 1720.77C-714.467 1755.04 -770.451 1754.56 -804.717 1720.29Z" stroke="#9FBEED" stroke-width="0.3529" stroke-miterlimit="10"/>
<path d="M-842.361 1729.94L-983.286 1588.05C-1017.07 1553.79 -1017.07 1498.77 -982.803 1464.98L236.293 254.574C270.559 220.791 325.578 220.791 359.361 255.057L500.286 396.947C534.07 431.213 534.07 486.232 499.804 520.015L-719.293 1730.42C-753.076 1764.21 -808.578 1764.21 -842.361 1729.94Z" stroke="#9FBEED" stroke-width="0.3529" stroke-miterlimit="10"/>
<path d="M-880.006 1739.59L-993.421 1625.7C-1026.72 1591.91 -1026.72 1537.38 -992.939 1504.08L275.385 244.922C309.169 211.622 363.705 211.622 397.005 245.405L510.421 359.786C543.722 393.569 543.722 448.105 509.938 481.406L-758.386 1740.08C-792.169 1773.38 -846.222 1773.38 -880.006 1739.59Z" stroke="#9FBEED" stroke-width="0.3529" stroke-miterlimit="10"/>
</g>
<defs>
<clipPath id="clip0_2106_13232">
<rect width="545" height="382" fill="white" transform="translate(895)"/>
</clipPath>
<clipPath id="clip1_2106_13232">
<rect width="536" height="487" fill="white" transform="translate(0 215)"/>
</clipPath>
</defs>
</svg>
