<svg width="52" height="53" viewBox="0 0 52 53" fill="none" xmlns="http://www.w3.org/2000/svg">
<circle cx="26" cy="26" r="26" fill="#E2F5F6"/>
<path d="M13.3113 1.91921C14.5093 0.716082 16.1362 0.0381411 17.834 0.0345285L34.0554 1.45115e-05C35.7533 -0.00359804 37.383 0.667415 38.5862 1.86544L50.0808 13.3113C51.2839 14.5093 51.9619 16.1362 51.9655 17.834L52 34.0554C52.0036 35.7533 51.3326 37.383 50.1346 38.5862L38.6887 50.0808C37.4907 51.2839 35.8638 51.9619 34.166 51.9655L17.9446 52C16.2467 52.0036 14.617 51.3326 13.4138 50.1346L1.91921 38.6887C0.716082 37.4907 0.0381411 35.8638 0.0345285 34.166L1.45115e-05 17.9446C-0.00359804 16.2467 0.667415 14.617 1.86544 13.4138L13.3113 1.91921Z" fill="#D9E5F8"/>
<path fill-rule="evenodd" clip-rule="evenodd" d="M0.00599179 18.1064C0.00180947 18.2031 -0.000192176 18.3 1.45115e-05 18.3971L0.0345285 34.6185C0.0381411 36.3164 0.716082 37.9433 1.91921 39.1413L13.4138 50.5871C14.617 51.7851 16.2467 52.4561 17.9446 52.4525L34.166 52.418C35.8638 52.4144 37.4907 51.7364 38.6887 50.5333L50.1346 39.0387C51.3326 37.8356 52.0036 36.2058 52 34.5079L51.994 31.6986C51.9251 33.2909 51.264 34.8044 50.1346 35.9387L38.6887 47.4333C37.4907 48.6365 35.8638 49.3144 34.166 49.318L17.9446 49.3525C16.2467 49.3562 14.617 48.6851 13.4138 47.4871L1.91921 36.0413C0.716082 34.8433 0.0381411 33.2164 0.0345285 31.5185L0.00599179 18.1064Z" fill="#0B1C56"/>
<path d="M22.0622 14.0701C21.1762 14.1826 20.3934 14.3888 19.6341 14.7123C17.3841 15.6779 15.6825 17.3748 14.7262 19.606C13.6622 22.0857 13.7887 25.0857 15.0591 27.4388L15.27 27.8279L14.6559 30.0357C14.3184 31.2545 14.0512 32.2576 14.0653 32.267C14.0747 32.2763 15.0778 32.0091 16.2919 31.6716L18.5044 31.0576L18.8887 31.2685C20.0653 31.9013 21.4247 32.2576 22.8591 32.3091C27.1622 32.4685 30.9872 29.581 32.0466 25.3857C32.8341 22.2498 31.9153 18.9685 29.6091 16.6716C27.6169 14.6841 24.8325 13.7279 22.0622 14.0701ZM23.7591 18.2841C24.57 18.4576 25.3012 19.0295 25.6716 19.7795C25.8778 20.206 25.9528 20.5248 25.9528 21.031C25.9528 21.5185 25.8872 21.8138 25.6997 22.231C25.5122 22.6388 25.2966 22.892 24.5372 23.5904L23.8434 24.2232V24.7623V25.2966H23.1637H22.4841V24.4341V23.5716L23.0325 23.0607C24.5044 21.706 24.5466 21.6498 24.5466 21.031C24.5466 20.581 24.4153 20.2904 24.0872 19.9951C23.8294 19.7607 23.4872 19.6248 23.1637 19.6248C22.4934 19.6248 21.7809 20.2576 21.7809 20.8529V21.031H21.0778H20.3747V20.806C20.3747 20.1123 20.8528 19.2498 21.4856 18.7857C22.1653 18.2935 22.9622 18.1154 23.7591 18.2841ZM23.8434 27.406V28.1091H23.1637H22.4841V27.406V26.7029H23.1637H23.8434V27.406Z" fill="#0B1C56"/>
<path d="M33.6968 23.9936C33.2515 29.1967 29.1968 33.2514 24.0078 33.692C23.6468 33.7248 23.3468 33.7529 23.3375 33.7576C23.3046 33.7811 23.8109 34.592 24.0734 34.9389C24.4343 35.4217 25.2593 36.2092 25.789 36.5889C26.2953 36.9451 27.2656 37.4279 27.8609 37.6201C28.6906 37.892 29.2531 37.9717 30.2421 37.9717C30.9781 37.9717 31.2218 37.9529 31.6625 37.8686C32.3843 37.7232 33.0828 37.4889 33.6968 37.1795L34.2078 36.9264L36.064 37.442C37.0859 37.7232 37.9296 37.9482 37.939 37.9389C37.9484 37.9295 37.7234 37.0857 37.4421 36.0639L36.9265 34.2076L37.1796 33.6967C37.489 33.0826 37.7234 32.3842 37.8687 31.6623C37.9531 31.2217 37.9718 30.9779 37.9718 30.242C37.9718 29.2529 37.8921 28.6904 37.6203 27.8607C37.4281 27.2654 36.9453 26.2951 36.589 25.7889C36.2093 25.2592 35.4218 24.4342 34.939 24.0732C34.6437 23.8529 33.8187 23.3279 33.7671 23.3279C33.7578 23.3279 33.725 23.6279 33.6968 23.9936Z" fill="#0B1C56"/>
</svg>
