<svg width="412" height="268" viewBox="0 0 412 268" fill="none" xmlns="http://www.w3.org/2000/svg">
<g clip-path="url(#clip0_2096_12742)">
<path d="M30.405 -868.006L144.786 -981.421C178.569 -1014.72 233.105 -1014.72 266.406 -980.939L1525.08 287.385C1558.38 321.169 1558.38 375.705 1524.59 409.005L1410.21 522.421C1376.43 555.722 1321.89 555.722 1288.59 521.938L29.9224 -746.386C-3.37835 -780.169 -3.37835 -834.222 30.405 -868.006Z" stroke="#9FBEED" stroke-width="0.3529" stroke-miterlimit="10"/>
<path d="M40.0577 -830.362L181.948 -971.287C216.214 -1005.07 271.232 -1005.07 305.016 -970.804L1515.43 248.292C1549.21 282.558 1549.21 337.577 1514.94 371.36L1373.05 512.285C1338.79 546.069 1283.77 546.069 1249.98 511.803L39.575 -707.294C5.79168 -741.077 6.2743 -796.579 40.0577 -830.362Z" stroke="#9FBEED" stroke-width="0.3529" stroke-miterlimit="10"/>
<path d="M49.7092 -792.717L219.591 -961.152C253.857 -995.418 309.841 -995.418 344.107 -960.669L1505.77 209.201C1540.04 243.467 1540.04 299.45 1505.29 333.716L1335.41 502.151C1301.14 536.417 1245.16 536.417 1210.89 501.668L49.7092 -668.202C15.4433 -702.467 15.4433 -758.451 49.7092 -792.717Z" stroke="#9FBEED" stroke-width="0.3529" stroke-miterlimit="10"/>
<path d="M59.8444 -755.073L257.236 -951.016C291.984 -985.765 348.451 -985.282 383.199 -950.534L1496.12 170.109C1530.87 204.857 1530.39 261.324 1495.64 296.072L1298.25 492.016C1263.5 526.764 1207.03 526.282 1172.28 491.533L59.3618 -629.109C24.6132 -663.858 24.6132 -720.324 59.8444 -755.073Z" stroke="#9FBEED" stroke-width="0.3529" stroke-miterlimit="10"/>
<path d="M69.497 -717.428L294.88 -941.364C330.111 -976.595 387.061 -976.112 422.292 -940.881L1486.47 131.017C1521.7 166.248 1521.22 223.197 1485.98 258.428L1260.6 482.364C1225.37 517.595 1168.42 517.112 1133.19 481.881L69.0144 -590.017C33.7832 -625.248 34.2658 -682.197 69.497 -717.428Z" stroke="#9FBEED" stroke-width="0.3529" stroke-miterlimit="10"/>
<path d="M79.1497 -679.784L332.525 -931.228C368.239 -966.46 425.671 -966.46 461.384 -930.746L1476.33 91.925C1511.56 127.639 1511.56 185.071 1475.85 220.784L1222.48 472.229C1186.76 507.46 1129.33 507.46 1093.62 471.747L78.6671 -550.924C43.4359 -586.638 43.4359 -644.07 79.1497 -679.784Z" stroke="#9FBEED" stroke-width="0.3529" stroke-miterlimit="10"/>
<path d="M88.8014 -642.14L369.686 -921.094C405.882 -956.808 464.279 -956.808 499.993 -920.611L1466.2 52.8323C1501.91 89.0287 1501.91 147.426 1465.71 183.14L1184.83 462.093C1148.63 497.807 1090.24 497.807 1054.52 461.611L88.3187 -511.833C52.6049 -548.029 53.0875 -605.943 88.8014 -642.14Z" stroke="#9FBEED" stroke-width="0.3529" stroke-miterlimit="10"/>
<path d="M98.9371 -604.496L407.814 -910.96C444.493 -947.156 503.372 -947.156 539.569 -910.477L1457.03 13.7392C1493.22 50.4183 1493.22 109.298 1456.55 145.494L1147.67 451.958C1110.99 488.154 1052.11 488.154 1015.91 451.475L98.4545 -472.741C62.258 -509.42 62.258 -568.3 98.9371 -604.496Z" stroke="#9FBEED" stroke-width="0.3529" stroke-miterlimit="10"/>
<path d="M108.589 -566.851L444.975 -900.824C481.654 -937.503 541.499 -937.02 578.178 -900.341L1446.89 -25.3518C1483.57 11.3272 1483.09 71.1721 1446.41 107.851L1110.02 442.306C1073.35 478.985 1013.5 478.503 976.822 441.824L108.107 -433.165C71.4274 -470.327 71.4274 -530.172 108.589 -566.851Z" stroke="#9FBEED" stroke-width="0.3529" stroke-miterlimit="10"/>
<path d="M118.242 -529.207L482.619 -891.172C519.781 -928.333 580.109 -927.851 617.27 -890.689L1437.24 -64.4443C1474.4 -27.2826 1473.92 33.0448 1436.76 70.2065L1072.38 432.171C1035.22 469.333 974.891 468.85 937.73 431.689L117.759 -394.556C80.5974 -431.718 81.08 -492.045 118.242 -529.207Z" stroke="#9FBEED" stroke-width="0.3529" stroke-miterlimit="10"/>
<path d="M127.894 -491.562L520.264 -881.036C557.908 -918.681 618.718 -918.198 656.363 -880.554L1427.59 -103.536C1465.23 -65.8918 1464.75 -5.0818 1427.11 32.5625L1034.74 422.036C997.092 459.681 936.282 459.198 898.638 421.554L127.412 -355.464C90.2501 -393.108 90.2501 -453.918 127.894 -491.562Z" stroke="#9FBEED" stroke-width="0.3529" stroke-miterlimit="10"/>
<path d="M137.546 -453.918L557.425 -870.901C595.552 -908.545 656.845 -908.545 694.972 -870.418L1417.45 -142.628C1455.1 -104.501 1455.1 -43.2086 1416.97 -5.08166L997.091 411.902C958.964 449.546 897.672 449.546 859.545 411.419L137.063 -316.371C99.4191 -354.498 99.9017 -415.791 137.546 -453.918Z" stroke="#9FBEED" stroke-width="0.3529" stroke-miterlimit="10"/>
<path d="M147.682 -416.274L595.553 -860.767C634.162 -898.894 696.42 -898.894 734.547 -860.284L1408.28 -181.721C1446.41 -143.111 1446.41 -80.8535 1407.8 -42.7265L959.93 401.766C921.321 439.893 859.063 439.893 820.936 401.283L147.199 -277.28C109.072 -315.889 109.072 -378.147 147.682 -416.274Z" stroke="#9FBEED" stroke-width="0.3529" stroke-miterlimit="10"/>
<path d="M157.334 -378.629L633.197 -851.114C672.289 -889.723 735.029 -889.723 773.639 -850.631L1398.63 -220.813C1437.24 -181.72 1437.24 -118.98 1398.15 -80.3703L922.286 392.114C883.194 430.724 820.453 430.724 781.843 391.631L156.851 -238.187C118.242 -277.279 118.242 -340.02 157.334 -378.629Z" stroke="#9FBEED" stroke-width="0.3529" stroke-miterlimit="10"/>
<path d="M166.986 -340.985L670.358 -840.496C709.451 -879.588 773.156 -879.106 812.249 -840.014L1388.5 -259.423C1427.59 -220.33 1427.11 -156.625 1388.01 -117.532L884.641 381.979C845.549 421.071 781.843 420.588 742.751 381.496L166.504 -199.095C127.412 -238.187 127.894 -301.893 166.986 -340.985Z" stroke="#9FBEED" stroke-width="0.3529" stroke-miterlimit="10"/>
<path d="M703.659 371.361L176.156 -160.003C136.581 -199.578 137.064 -263.766 176.638 -303.341L708.002 -830.844C747.577 -870.419 811.766 -869.936 851.34 -830.362L1378.84 -298.998C1418.42 -259.423 1417.94 -195.234 1378.36 -155.66L846.997 371.844C807.422 411.418 743.234 410.936 703.659 371.361Z" stroke="#9FBEED" stroke-width="0.3529" stroke-miterlimit="10"/>
<path d="M666.015 381.014L166.504 -122.359C127.412 -161.451 127.894 -225.157 166.986 -264.249L747.095 -840.496C786.187 -879.588 849.893 -879.106 888.985 -840.014L1388.98 -336.642C1428.07 -297.549 1427.59 -233.844 1388.5 -194.751L807.905 381.496C768.813 420.588 705.107 420.588 666.015 381.014Z" stroke="#9FBEED" stroke-width="0.3529" stroke-miterlimit="10"/>
<path d="M628.371 390.666L155.886 -85.197C117.277 -124.289 117.277 -187.03 156.369 -225.639L786.187 -850.149C825.28 -888.758 888.02 -888.758 926.63 -849.666L1399.11 -373.803C1437.72 -334.711 1437.72 -271.971 1398.63 -233.361L768.813 391.148C729.721 429.758 666.98 429.758 628.371 390.666Z" stroke="#9FBEED" stroke-width="0.3529" stroke-miterlimit="10"/>
<path d="M590.726 400.801L146.233 -47.0696C108.106 -85.6792 108.106 -147.937 146.716 -186.064L825.279 -859.801C863.889 -897.928 926.147 -897.928 964.273 -859.318L1408.77 -411.447C1446.89 -372.838 1446.89 -310.58 1408.28 -272.453L729.72 401.284C691.111 439.411 628.853 438.928 590.726 400.801Z" stroke="#9FBEED" stroke-width="0.3529" stroke-miterlimit="10"/>
<path d="M553.082 410.453L136.099 -9.42566C98.4547 -47.5526 98.4547 -108.845 136.582 -146.972L864.372 -869.936C902.499 -907.58 963.791 -907.58 1001.92 -869.454L1418.9 -449.575C1456.55 -411.448 1456.55 -350.155 1418.42 -312.028L690.629 410.936C652.502 448.58 591.209 448.58 553.082 410.453Z" stroke="#9FBEED" stroke-width="0.3529" stroke-miterlimit="10"/>
<path d="M515.438 420.105L125.964 27.7356C88.3195 -9.90869 88.8021 -70.7187 126.446 -108.363L903.464 -879.589C941.108 -917.233 1001.92 -916.751 1039.56 -879.106L1429.04 -486.737C1466.68 -449.092 1466.2 -388.282 1428.55 -350.638L651.536 420.588C613.892 458.232 553.082 457.75 515.438 420.105Z" stroke="#9FBEED" stroke-width="0.3529" stroke-miterlimit="10"/>
<path d="M477.793 429.758L115.828 65.3804C78.6667 28.2187 79.1493 -32.1087 116.311 -69.2704L942.556 -889.241C979.717 -926.403 1040.04 -925.92 1077.21 -888.758L1439.17 -524.381C1476.33 -487.219 1475.85 -426.891 1438.69 -389.73L612.444 430.241C575.282 467.402 514.955 466.92 477.793 429.758Z" stroke="#9FBEED" stroke-width="0.3529" stroke-miterlimit="10"/>
<path d="M440.149 439.411L106.176 103.025C69.4973 66.3459 69.98 6.50108 106.659 -30.178L981.648 -898.893C1018.33 -935.572 1078.17 -935.089 1114.85 -898.41L1449.31 -561.542C1485.99 -524.863 1485.5 -465.018 1448.82 -428.339L573.835 440.376C536.673 476.572 476.828 476.572 440.149 439.411Z" stroke="#9FBEED" stroke-width="0.3529" stroke-miterlimit="10"/>
<path d="M402.505 449.545L96.0414 140.669C59.845 103.99 59.845 45.1104 96.524 8.91391L1020.74 -908.546C1057.42 -944.742 1116.3 -944.742 1152.5 -908.063L1458.96 -599.186C1495.16 -562.507 1495.16 -503.628 1458.48 -467.431L534.26 450.028C497.581 486.224 438.701 485.742 402.505 449.545Z" stroke="#9FBEED" stroke-width="0.3529" stroke-miterlimit="10"/>
<path d="M364.86 459.198L85.906 178.313C50.1922 142.117 50.1922 83.7198 86.3886 48.006L1059.83 -918.681C1096.03 -954.395 1154.43 -954.395 1190.14 -918.198L1469.09 -637.314C1504.81 -601.117 1504.81 -542.72 1468.61 -507.006L495.167 459.68C458.971 495.394 401.057 495.394 364.86 459.198Z" stroke="#9FBEED" stroke-width="0.3529" stroke-miterlimit="10"/>
<path d="M327.215 468.849L75.7706 215.474C40.5394 179.76 40.5394 122.329 76.2532 86.6149L1098.92 -928.334C1134.64 -963.565 1192.07 -963.565 1227.78 -927.851L1479.23 -674.476C1514.46 -638.762 1514.46 -581.33 1478.75 -545.617L456.075 469.332C420.361 505.046 362.929 504.563 327.215 468.849Z" stroke="#9FBEED" stroke-width="0.3529" stroke-miterlimit="10"/>
<path d="M289.572 478.502L65.6365 253.119C30.4053 217.888 30.8879 160.939 66.1191 125.708L1138.02 -937.986C1173.25 -973.217 1230.2 -972.734 1265.43 -937.503L1489.36 -712.12C1524.6 -676.889 1524.11 -619.939 1488.88 -584.708L416.983 478.985C381.752 514.216 324.803 513.734 289.572 478.502Z" stroke="#9FBEED" stroke-width="0.3529" stroke-miterlimit="10"/>
<path d="M251.927 488.638L55.9835 291.247C21.2349 256.498 21.7175 200.032 56.4661 165.283L1177.11 -947.638C1211.86 -982.386 1268.32 -981.904 1303.07 -947.155L1499.02 -749.764C1533.76 -715.015 1533.28 -658.549 1498.53 -623.8L377.891 489.121C343.142 523.387 286.676 523.387 251.927 488.638Z" stroke="#9FBEED" stroke-width="0.3529" stroke-miterlimit="10"/>
<path d="M214.283 498.29L45.8485 328.408C11.5825 294.142 11.5825 238.158 46.3311 203.892L1216.2 -957.29C1250.47 -991.556 1306.45 -991.556 1340.72 -956.808L1509.15 -786.926C1543.42 -752.66 1543.42 -696.676 1508.67 -662.41L338.798 498.773C304.533 533.039 248.549 532.556 214.283 498.29Z" stroke="#9FBEED" stroke-width="0.3529" stroke-miterlimit="10"/>
<path d="M176.639 507.942L35.714 366.052C1.93068 331.786 1.93068 276.767 36.1967 242.984L1255.29 -967.426C1289.56 -1001.21 1344.58 -1001.21 1378.36 -966.943L1519.29 -825.053C1553.07 -790.787 1553.07 -735.768 1518.8 -701.985L299.707 508.425C265.924 542.208 210.422 542.208 176.639 507.942Z" stroke="#9FBEED" stroke-width="0.3529" stroke-miterlimit="10"/>
<path d="M138.994 517.595L25.5786 403.696C-7.7221 369.913 -7.7221 315.377 26.0613 282.076L1294.39 -977.078C1328.17 -1010.38 1382.7 -1010.38 1416.01 -976.595L1529.42 -862.214C1562.72 -828.431 1562.72 -773.895 1528.94 -740.594L260.614 518.077C226.831 551.378 172.778 551.378 138.994 517.595Z" stroke="#9FBEED" stroke-width="0.3529" stroke-miterlimit="10"/>
</g>
<defs>
<clipPath id="clip0_2096_12742">
<rect width="412" height="268" fill="white"/>
</clipPath>
</defs>
</svg>
