<svg width="44" height="45" viewBox="0 0 44 45" fill="none" xmlns="http://www.w3.org/2000/svg">
<circle cx="22" cy="22" r="22" fill="#E2F5F6"/>
<path d="M11.2634 1.62395C12.2771 0.605915 13.6537 0.0322732 15.0903 0.0292165L28.8161 1.22789e-05C30.2528 -0.0030445 31.6318 0.564736 32.6498 1.57845L42.376 11.2634C43.3941 12.2771 43.9677 13.6537 43.9708 15.0903L44 28.8161C44.003 30.2528 43.4353 31.6318 42.4215 32.6498L32.7366 42.376C31.7229 43.3941 30.3463 43.9677 28.9097 43.9708L15.1839 44C13.7472 44.003 12.3682 43.4353 11.3502 42.4215L1.62395 32.7366C0.605915 31.7229 0.0322732 30.3463 0.0292165 28.9097L1.22789e-05 15.1839C-0.0030445 13.7472 0.564736 12.3682 1.57845 11.3502L11.2634 1.62395Z" fill="#D9E5F8"/>
<path d="M25.1948 10.9582C24.7653 10.5286 24.0215 10.822 24.0215 11.4191V15.0753C24.0215 16.6048 25.3205 17.8724 26.9024 17.8724C27.8977 17.8829 29.2805 17.8829 30.4643 17.8829C31.0615 17.8829 31.3758 17.181 30.9567 16.762C29.4481 15.2429 26.7453 12.5086 25.1948 10.9582Z" fill="#3F7CDB"/>
<path d="M30.1189 19.3182H27.0912C24.6084 19.3182 22.5865 17.2963 22.5865 14.8134V11.7858C22.5865 11.2096 22.1151 10.7382 21.5389 10.7382H17.097C13.8703 10.7382 11.2617 12.8334 11.2617 16.5734V25.8553C11.2617 29.5953 13.8703 31.6905 17.097 31.6905H25.3312C28.5579 31.6905 31.1665 29.5953 31.1665 25.8553V20.3658C31.1665 19.7896 30.6951 19.3182 30.1189 19.3182ZM20.6903 27.2382H16.4998C16.0703 27.2382 15.7141 26.882 15.7141 26.4524C15.7141 26.0229 16.0703 25.6667 16.4998 25.6667H20.6903C21.1198 25.6667 21.476 26.0229 21.476 26.4524C21.476 26.882 21.1198 27.2382 20.6903 27.2382ZM22.7855 23.0477H16.4998C16.0703 23.0477 15.7141 22.6915 15.7141 22.262C15.7141 21.8324 16.0703 21.4763 16.4998 21.4763H22.7855C23.2151 21.4763 23.5712 21.8324 23.5712 22.262C23.5712 22.6915 23.2151 23.0477 22.7855 23.0477Z" fill="#3F7CDB"/>
<path fill-rule="evenodd" clip-rule="evenodd" d="M0.00506998 15.321C0.00153109 15.4028 -0.000162611 15.4848 1.22789e-05 15.567L0.0292165 29.2928C0.0322732 30.7294 0.605915 32.106 1.62395 33.1197L11.3502 42.8047C12.3682 43.8184 13.7472 44.3862 15.1839 44.3831L28.9097 44.3539C30.3463 44.3508 31.7229 43.7772 32.7366 42.7592L42.4216 33.0329C43.4353 32.0149 44.003 30.6359 44 29.1992L43.9949 26.8221C43.9366 28.1694 43.3773 29.4501 42.4216 30.4099L32.7366 40.1361C31.7229 41.1541 30.3463 41.7278 28.9097 41.7308L15.1839 41.7601C13.7472 41.7631 12.3682 41.1953 11.3502 40.1816L1.62395 30.4967C0.605915 29.483 0.0322732 28.1064 0.0292165 26.6697L0.00506998 15.321Z" fill="#0B1C56"/>
</svg>
