<svg width="44" height="45" viewBox="0 0 44 45" fill="none" xmlns="http://www.w3.org/2000/svg">
<circle cx="22" cy="22" r="22" fill="#E2F5F6"/>
<path d="M11.2634 1.62395C12.2771 0.605915 13.6537 0.0322732 15.0903 0.0292165L28.8161 1.22789e-05C30.2528 -0.0030445 31.6318 0.564736 32.6498 1.57845L42.376 11.2634C43.3941 12.2771 43.9677 13.6537 43.9708 15.0903L44 28.8161C44.003 30.2528 43.4353 31.6318 42.4216 32.6498L32.7366 42.376C31.7229 43.3941 30.3463 43.9677 28.9097 43.9708L15.1839 44C13.7472 44.003 12.3682 43.4353 11.3502 42.4216L1.62395 32.7366C0.605915 31.7229 0.0322732 30.3463 0.0292165 28.9097L1.22789e-05 15.1839C-0.0030445 13.7472 0.564736 12.3682 1.57845 11.3502L11.2634 1.62395Z" fill="#D9E5F8"/>
<path d="M21.2138 23.3096C15.9652 23.3096 11.6909 26.8296 11.6909 31.1667C11.6909 31.46 11.9214 31.6905 12.2147 31.6905H30.2128C30.5062 31.6905 30.7366 31.46 30.7366 31.1667C30.7366 26.8296 26.4623 23.3096 21.2138 23.3096Z" fill="#3F7CDB"/>
<path d="M26.1589 19.4858L25.1532 18.4801C25.677 17.6943 25.9808 16.7515 25.9808 15.7353C25.9808 12.9696 23.7389 10.7382 20.9837 10.7382C18.2285 10.7382 15.9761 12.9801 15.9761 15.7353C15.9761 18.4905 18.218 20.7324 20.9732 20.7324C21.9894 20.7324 22.9323 20.4286 23.718 19.9048L24.7237 20.9105C24.9227 21.1096 25.1846 21.2039 25.4361 21.2039C25.698 21.2039 25.9599 21.1096 26.1485 20.9105C26.5465 20.5229 26.5465 19.8839 26.1589 19.4858Z" fill="#3F7CDB"/>
<path fill-rule="evenodd" clip-rule="evenodd" d="M0.00506998 15.321C0.00153109 15.4028 -0.000162611 15.4848 1.22789e-05 15.567L0.0292165 29.2928C0.0322732 30.7294 0.605915 32.106 1.62395 33.1197L11.3502 42.8047C12.3682 43.8184 13.7472 44.3862 15.1839 44.3831L28.9097 44.3539C30.3463 44.3508 31.7229 43.7772 32.7366 42.7592L42.4216 33.0329C43.4353 32.0149 44.003 30.6359 44 29.1992L43.9949 26.8221C43.9366 28.1694 43.3773 29.4501 42.4216 30.4099L32.7366 40.1361C31.7229 41.1541 30.3463 41.7278 28.9097 41.7308L15.1839 41.76C13.7472 41.7631 12.3682 41.1953 11.3502 40.1816L1.62395 30.4967C0.605915 29.483 0.0322732 28.1064 0.0292165 26.6697L0.00506998 15.321Z" fill="#0B1C56"/>
</svg>
