<svg width="44" height="45" viewBox="0 0 44 45" fill="none" xmlns="http://www.w3.org/2000/svg">
<circle cx="22" cy="22" r="22" fill="#E2F5F6"/>
<path d="M11.2634 1.62395C12.2771 0.605915 13.6537 0.0322732 15.0903 0.0292165L28.8161 1.22789e-05C30.2528 -0.0030445 31.6318 0.564736 32.6498 1.57845L42.376 11.2634C43.3941 12.2771 43.9677 13.6537 43.9708 15.0903L44 28.8161C44.003 30.2528 43.4353 31.6318 42.4216 32.6498L32.7366 42.376C31.7229 43.3941 30.3463 43.9677 28.9097 43.9708L15.1839 44C13.7472 44.003 12.3682 43.4353 11.3502 42.4216L1.62395 32.7366C0.605915 31.7229 0.0322732 30.3463 0.0292165 28.9097L1.22789e-05 15.1839C-0.0030445 13.7472 0.564736 12.3682 1.57845 11.3502L11.2634 1.62395Z" fill="#D9E5F8"/>
<path d="M24.3568 24.8808C24.3568 28.6418 21.3083 31.6903 17.5473 31.6903C13.7864 31.6903 10.7378 28.6418 10.7378 24.8808C10.7378 21.1199 13.7864 18.0713 17.5473 18.0713C17.7254 18.0713 17.914 18.0818 18.0921 18.0922C21.413 18.3541 24.074 21.0151 24.3359 24.3361C24.3464 24.5141 24.3568 24.7027 24.3568 24.8808Z" fill="#3F7CDB"/>
<path d="M31.69 17.5476C31.69 20.9628 29.1757 23.7809 25.9072 24.2733V24.2104C25.5824 20.1457 22.2824 16.8457 18.1862 16.5209H18.1548C18.6472 13.2523 21.4653 10.738 24.8805 10.738C28.6415 10.738 31.69 13.7866 31.69 17.5476Z" fill="#3F7CDB"/>
<path d="M14.4987 10.738H11.7854C11.2092 10.738 10.7378 11.2095 10.7378 11.7857V14.499C10.7378 15.4314 11.8692 15.9028 12.5292 15.2428L15.2426 12.5295C15.8921 11.8695 15.4311 10.738 14.4987 10.738Z" fill="#3F7CDB"/>
<path d="M27.929 31.6905H30.6423C31.2185 31.6905 31.69 31.219 31.69 30.6428V27.9295C31.69 26.9971 30.5585 26.5257 29.8985 27.1857L27.1852 29.899C26.5357 30.559 26.9966 31.6905 27.929 31.6905Z" fill="#3F7CDB"/>
<path fill-rule="evenodd" clip-rule="evenodd" d="M0.00506998 15.321C0.00153109 15.4028 -0.000162611 15.4848 1.22789e-05 15.567L0.0292165 29.2928C0.0322732 30.7294 0.605915 32.106 1.62395 33.1197L11.3502 42.8047C12.3682 43.8184 13.7472 44.3862 15.1839 44.3831L28.9097 44.3539C30.3463 44.3508 31.7229 43.7772 32.7366 42.7592L42.4216 33.0329C43.4353 32.0149 44.003 30.6359 44 29.1992L43.9949 26.8221C43.9366 28.1694 43.3773 29.4501 42.4216 30.4099L32.7366 40.1361C31.7229 41.1541 30.3463 41.7278 28.9097 41.7308L15.1839 41.76C13.7472 41.7631 12.3682 41.1953 11.3502 40.1816L1.62395 30.4967C0.605915 29.483 0.0322732 28.1064 0.0292165 26.6697L0.00506998 15.321Z" fill="#0B1C56"/>
</svg>
