<svg width="44" height="45" viewBox="0 0 44 45" fill="none" xmlns="http://www.w3.org/2000/svg">
<circle cx="22" cy="22" r="22" fill="#E2F5F6"/>
<path d="M11.2634 1.62395C12.2771 0.605915 13.6537 0.0322732 15.0903 0.0292165L28.8161 1.22789e-05C30.2528 -0.0030445 31.6318 0.564736 32.6498 1.57845L42.376 11.2634C43.3941 12.2771 43.9677 13.6537 43.9708 15.0903L44 28.8161C44.003 30.2528 43.4353 31.6318 42.4216 32.6498L32.7366 42.376C31.7229 43.3941 30.3463 43.9677 28.9097 43.9708L15.1839 44C13.7472 44.003 12.3682 43.4353 11.3502 42.4216L1.62395 32.7366C0.605915 31.7229 0.0322732 30.3463 0.0292165 28.9097L1.22789e-05 15.1839C-0.0030445 13.7472 0.564736 12.3682 1.57845 11.3502L11.2634 1.62395Z" fill="#D9E5F8"/>
<path d="M25.6035 10.738H16.8245C13.0111 10.738 10.7378 13.0114 10.7378 16.8247V25.5933C10.7378 29.4171 13.0111 31.6904 16.8245 31.6904H25.593C29.4064 31.6904 31.6797 29.4171 31.6797 25.6038V16.8247C31.6902 13.0114 29.4168 10.738 25.6035 10.738ZM17.5159 20.1457C17.8197 19.8418 18.3226 19.8418 18.6264 20.1457L20.4283 21.9476V15.4628C20.4283 15.0333 20.7845 14.6771 21.214 14.6771C21.6435 14.6771 21.9997 15.0333 21.9997 15.4628V21.9476L23.8016 20.1457C24.1054 19.8418 24.6083 19.8418 24.9121 20.1457C25.2159 20.4495 25.2159 20.9523 24.9121 21.2561L21.7692 24.399C21.6959 24.4723 21.6121 24.5247 21.5178 24.5666C21.4235 24.6085 21.3187 24.6295 21.214 24.6295C21.1092 24.6295 21.0149 24.6085 20.9102 24.5666C20.8159 24.5247 20.7321 24.4723 20.6587 24.399L17.5159 21.2561C17.2121 20.9523 17.2121 20.4599 17.5159 20.1457ZM27.7511 26.6828C25.6454 27.3847 23.4349 27.7409 21.214 27.7409C18.993 27.7409 16.7826 27.3847 14.6768 26.6828C14.2683 26.5466 14.0483 26.0961 14.1845 25.6876C14.3206 25.279 14.7606 25.0485 15.1797 25.1952C19.0768 26.4942 23.3616 26.4942 27.2587 25.1952C27.6673 25.059 28.1178 25.279 28.254 25.6876C28.3797 26.1066 28.1597 26.5466 27.7511 26.6828Z" fill="#3F7CDB"/>
<path fill-rule="evenodd" clip-rule="evenodd" d="M0.00506998 15.321C0.00153109 15.4028 -0.000162611 15.4848 1.22789e-05 15.567L0.0292165 29.2928C0.0322732 30.7294 0.605915 32.106 1.62395 33.1197L11.3502 42.8047C12.3682 43.8184 13.7472 44.3862 15.1839 44.3831L28.9097 44.3539C30.3463 44.3508 31.7229 43.7772 32.7366 42.7592L42.4216 33.0329C43.4353 32.0149 44.003 30.6359 44 29.1992L43.9949 26.8221C43.9366 28.1694 43.3773 29.4501 42.4216 30.4099L32.7366 40.1361C31.7229 41.1541 30.3463 41.7278 28.9097 41.7308L15.1839 41.76C13.7472 41.7631 12.3682 41.1953 11.3502 40.1816L1.62395 30.4967C0.605915 29.483 0.0322732 28.1064 0.0292165 26.6697L0.00506998 15.321Z" fill="#0B1C56"/>
</svg>
