<svg width="56" height="57" viewBox="0 0 56 57" fill="none" xmlns="http://www.w3.org/2000/svg">
<circle cx="28" cy="28" r="28" fill="#E2F5F6"/>
<path d="M14.3352 2.06685C15.6254 0.771165 17.3774 0.041075 19.2059 0.0371846L36.675 1.56277e-05C38.5035 -0.00387481 40.2586 0.718754 41.5543 2.00893L53.9331 14.3352C55.2288 15.6254 55.9589 17.3774 55.9628 19.2059L56 36.675C56.0039 38.5035 55.2812 40.2586 53.9911 41.5543L41.6648 53.9331C40.3746 55.2288 38.6226 55.9589 36.7941 55.9628L19.325 56C17.4965 56.0039 15.7414 55.2812 14.4457 53.9911L2.06685 41.6648C0.771165 40.3746 0.041075 38.6226 0.0371846 36.7941L1.56277e-05 19.325C-0.00387481 17.4965 0.718754 15.7414 2.00893 14.4457L14.3352 2.06685Z" fill="white"/>
<path d="M41.5326 36.7338H40.1992V21.7071C40.1992 20.8804 39.8259 20.1071 39.1726 19.6004L37.5326 18.3204L37.5059 15.0538C37.5059 14.3204 36.9059 13.7338 36.1726 13.7338H31.6259L29.8392 12.3471C28.8792 11.5871 27.5192 11.5871 26.5592 12.3471L17.2259 19.6004C16.5726 20.1071 16.1992 20.8804 16.1992 21.6938L16.1326 36.7338H14.8659C14.3192 36.7338 13.8659 37.1871 13.8659 37.7338C13.8659 38.2804 14.3192 38.7338 14.8659 38.7338H41.5326C42.0792 38.7338 42.5326 38.2804 42.5326 37.7338C42.5326 37.1871 42.0792 36.7338 41.5326 36.7338ZM20.8659 25.4004V23.4004C20.8659 22.6671 21.4659 22.0671 22.1992 22.0671H24.8659C25.5992 22.0671 26.1992 22.6671 26.1992 23.4004V25.4004C26.1992 26.1338 25.5992 26.7338 24.8659 26.7338H22.1992C21.4659 26.7338 20.8659 26.1338 20.8659 25.4004ZM31.5326 36.7338H24.8659V33.0671C24.8659 31.9604 25.7592 31.0671 26.8659 31.0671H29.5326C30.6392 31.0671 31.5326 31.9604 31.5326 33.0671V36.7338ZM35.5326 25.4004C35.5326 26.1338 34.9326 26.7338 34.1992 26.7338H31.5326C30.7992 26.7338 30.1992 26.1338 30.1992 25.4004V23.4004C30.1992 22.6671 30.7992 22.0671 31.5326 22.0671H34.1992C34.9326 22.0671 35.5326 22.6671 35.5326 23.4004V25.4004Z" fill="#3F7CDB"/>
<path fill-rule="evenodd" clip-rule="evenodd" d="M0.00645519 19.5C0.00194945 19.6041 -0.000207 19.7085 1.56278e-05 19.8131L0.0371846 37.2822C0.041075 39.1107 0.771165 40.8628 2.06685 42.1529L14.4457 54.4792C15.7414 55.7694 17.4965 56.492 19.325 56.4881L36.7941 56.451C38.6226 56.4471 40.3746 55.717 41.6648 54.4213L53.9911 42.0425C55.2812 40.7468 56.0039 38.9917 56 37.1632L55.9935 34.1366C55.9193 35.8514 55.2074 37.4813 53.9911 38.7028L41.6648 51.0816C40.3746 52.3773 38.6226 53.1074 36.7941 53.1113L19.325 53.1485C17.4965 53.1524 15.7414 52.4297 14.4457 51.1396L2.06685 38.8133C0.771165 37.5231 0.041075 35.7711 0.0371846 33.9426L0.00645519 19.5Z" fill="#0B1C56"/>
</svg>
