<svg width="44" height="45" viewBox="0 0 44 45" fill="none" xmlns="http://www.w3.org/2000/svg">
<circle cx="22" cy="22" r="22" fill="#E2F5F6"/>
<path d="M11.2634 1.62395C12.2771 0.605915 13.6537 0.0322732 15.0903 0.0292165L28.8161 1.22789e-05C30.2528 -0.0030445 31.6318 0.564736 32.6498 1.57845L42.376 11.2634C43.3941 12.2771 43.9677 13.6537 43.9708 15.0903L44 28.8161C44.003 30.2528 43.4353 31.6318 42.4216 32.6498L32.7366 42.376C31.7229 43.3941 30.3463 43.9677 28.9097 43.9708L15.1839 44C13.7472 44.003 12.3682 43.4353 11.3502 42.4216L1.62395 32.7366C0.605915 31.7229 0.0322732 30.3463 0.0292165 28.9097L1.22789e-05 15.1839C-0.0030445 13.7472 0.564736 12.3682 1.57845 11.3502L11.2634 1.62395Z" fill="#D9E5F8"/>
<path d="M29.0712 17.0239C30.5177 17.0239 31.6902 15.8513 31.6902 14.4048C31.6902 12.9584 30.5177 11.7858 29.0712 11.7858C27.6247 11.7858 26.4521 12.9584 26.4521 14.4048C26.4521 15.8513 27.6247 17.0239 29.0712 17.0239Z" fill="#3F7CDB"/>
<path d="M29.0712 17.0239C30.5177 17.0239 31.6902 15.8513 31.6902 14.4048C31.6902 12.9584 30.5177 11.7858 29.0712 11.7858C27.6247 11.7858 26.4521 12.9584 26.4521 14.4048C26.4521 15.8513 27.6247 17.0239 29.0712 17.0239Z" fill="#3F7CDB"/>
<path d="M30.3492 18.3962C29.6159 18.6267 28.8092 18.6686 27.9711 18.4591C26.5673 18.0924 25.4254 16.9715 25.0378 15.5677C24.8492 14.8867 24.8387 14.2162 24.954 13.6086C25.0902 12.9381 24.6187 12.3096 23.9483 12.3096H15.9759C12.833 12.3096 10.7378 13.881 10.7378 17.5477V24.881C10.7378 28.5477 12.833 30.1191 15.9759 30.1191H26.4521C29.5949 30.1191 31.6902 28.5477 31.6902 24.881V19.3915C31.6902 18.7 31.0197 18.1762 30.3492 18.3962ZM24.9016 20.3239L23.6654 21.3086C22.974 21.8639 22.094 22.1362 21.214 22.1362C20.334 22.1362 19.4435 21.8639 18.7626 21.3086L15.4835 18.6896C15.1483 18.4172 15.0959 17.9143 15.3578 17.5791C15.6302 17.2439 16.1226 17.181 16.4578 17.4534L19.7368 20.0724C20.533 20.7115 21.8845 20.7115 22.6807 20.0724L23.9168 19.0877C24.2521 18.8153 24.7549 18.8677 25.0168 19.2134C25.2892 19.5486 25.2368 20.0515 24.9016 20.3239Z" fill="#3F7CDB"/>
<path fill-rule="evenodd" clip-rule="evenodd" d="M0.00506998 15.321C0.00153109 15.4028 -0.000162611 15.4848 1.22789e-05 15.567L0.0292165 29.2928C0.0322732 30.7294 0.605915 32.106 1.62395 33.1197L11.3502 42.8047C12.3682 43.8184 13.7472 44.3862 15.1839 44.3831L28.9097 44.3539C30.3463 44.3508 31.7229 43.7772 32.7366 42.7592L42.4216 33.0329C43.4353 32.0149 44.003 30.6359 44 29.1992L43.9949 26.8221C43.9366 28.1694 43.3773 29.4501 42.4216 30.4099L32.7366 40.1361C31.7229 41.1541 30.3463 41.7278 28.9097 41.7308L15.1839 41.76C13.7472 41.7631 12.3682 41.1953 11.3502 40.1816L1.62395 30.4967C0.605915 29.483 0.0322732 28.1064 0.0292165 26.6697L0.00506998 15.321Z" fill="#0B1C56"/>
</svg>
