<svg width="608" height="800" viewBox="0 0 608 800" fill="none" xmlns="http://www.w3.org/2000/svg">
<g clip-path="url(#clip0_2385_23668)">
<path d="M607.9 798.922H0V799.546H607.9V798.922Z" fill="#242752"/>
<path d="M117.235 759.969V799.297H45.1963V759.969H46.9442H47.8182H64.6731H66.9204H75.2854H93.6385H105.25H114.738H115.363H117.235Z" fill="#242752"/>
<path d="M116.361 728.132C121.106 729.879 120.856 742.989 115.737 757.472C115.612 757.846 115.488 758.096 115.363 758.47C115.363 758.346 115.363 758.096 115.363 757.971C115.363 745.736 112.741 735.373 109.12 731.627C111.742 728.756 114.364 727.382 116.361 728.132Z" fill="#8DCFD3"/>
<path d="M115.362 758.47C115.237 758.97 114.988 759.469 114.863 759.968H105.249C105.874 756.348 106.123 752.228 106.123 747.983C106.123 743.987 105.874 740.117 105.374 736.621C105.124 734.499 104.625 732.501 104.25 730.753C104.875 730.379 105.499 730.129 106.248 730.129C107.247 730.129 108.371 730.628 109.245 731.627C112.865 735.373 115.487 745.735 115.487 757.971C115.362 758.096 115.362 758.22 115.362 758.47Z" fill="#73C7D1"/>
<path d="M105.249 736.621C105.748 740.117 105.998 743.862 105.998 747.982C105.998 752.227 105.624 756.347 105.124 759.968H93.6379C93.6379 758.72 93.7627 757.596 93.7627 756.347C93.7627 746.11 92.0148 737.245 89.2681 732.376C90.8911 725.01 93.7627 720.141 96.884 720.141C99.8804 720.141 102.502 724.261 104.125 730.878C104.625 732.501 104.999 734.499 105.249 736.621Z" fill="#45A7AA"/>
<path d="M93.763 756.223C93.763 757.471 93.763 758.72 93.6381 759.843H75.285C75.285 758.595 75.1602 757.471 75.1602 756.223C75.1602 747.109 76.6584 738.993 78.9057 733.999C80.4039 730.503 82.4015 728.381 84.524 728.381C86.2719 728.381 87.895 729.879 89.2683 732.376C91.8902 737.12 93.763 745.985 93.763 756.223Z" fill="#73C7D1"/>
<path d="M78.9062 733.999C76.6589 739.118 75.1607 747.233 75.1607 756.347C75.1607 757.596 75.1607 758.844 75.2855 759.968H66.9205C66.4211 757.846 65.7969 755.598 65.0477 753.226C65.0477 752.727 65.0477 752.227 65.0477 751.728C65.0477 743.862 64.0489 736.871 62.301 731.752C63.7992 723.012 66.9205 717.019 70.4163 717.019C74.1619 716.894 77.5329 724.011 78.9062 733.999Z" fill="#45A7AA"/>
<path d="M65.0475 751.728C65.0475 752.228 65.0475 752.727 65.0475 753.227C65.0475 755.599 64.9227 757.846 64.673 759.969H47.8181C47.5684 759.344 47.3187 758.595 47.069 757.971C46.9441 757.597 46.8193 757.222 46.6944 756.847C46.5696 755.224 46.5696 753.476 46.5696 751.728C46.5696 742.49 48.0678 734.374 50.3151 729.255C51.8133 725.884 53.8109 723.887 55.8086 723.887C58.3056 723.887 60.5529 726.883 62.3008 731.877C63.9239 736.871 65.0475 743.863 65.0475 751.728Z" fill="#73C7D1"/>
<path d="M46.4445 728.506C47.5681 728.132 48.9415 728.382 50.3149 729.256C48.0675 734.374 46.5693 742.49 46.5693 751.729C46.5693 753.477 46.5693 755.225 46.6942 756.848C41.825 742.739 41.7001 730.13 46.4445 728.506Z" fill="#8DCFD3"/>
<path d="M115.363 759.969H117.235V799.297H45.1963V759.969H46.9442H47.8182H64.6731H66.9204H75.2854H93.6385H105.25H114.738H115.363Z" stroke="#242752" stroke-width="0.624255" stroke-miterlimit="10"/>
<path d="M62.176 731.752C63.9239 736.871 64.9228 743.863 64.9228 751.728C64.9228 752.228 64.9228 752.727 64.9228 753.226C64.9228 755.599 64.7979 757.846 64.5482 759.968" stroke="#242752" stroke-width="0.624255" stroke-miterlimit="10"/>
<path d="M46.6944 756.847C46.5696 755.224 46.5696 753.476 46.5696 751.728C46.5696 742.49 48.0678 734.374 50.3151 729.255C51.8133 725.884 53.8109 723.887 55.8086 723.887C58.3056 723.887 60.5529 726.883 62.3008 731.877" stroke="#242752" stroke-width="0.624255" stroke-miterlimit="10"/>
<path d="M46.9445 759.969C46.8197 758.97 46.8197 757.971 46.6948 756.848" stroke="#242752" stroke-width="0.624255" stroke-miterlimit="10"/>
<path d="M66.9201 759.969C66.4207 757.846 65.7965 755.599 65.0474 753.227" stroke="#242752" stroke-width="0.624255" stroke-miterlimit="10"/>
<path d="M50.3148 729.256C48.9414 728.382 47.5681 728.132 46.4444 728.506C41.7001 730.13 41.9498 742.739 46.6941 756.723C46.819 757.097 46.9438 757.472 47.0687 757.846C47.3184 758.471 47.5681 759.22 47.8178 759.844" stroke="#242752" stroke-width="0.624255" stroke-miterlimit="10"/>
<path d="M115.362 758.471C115.237 758.97 114.988 759.47 114.863 759.969" stroke="#242752" stroke-width="0.624255" stroke-miterlimit="10"/>
<path d="M109.12 731.627C111.742 728.756 114.364 727.382 116.361 728.132C121.106 729.879 120.856 742.989 115.737 757.472C115.612 757.846 115.488 758.096 115.363 758.47" stroke="#242752" stroke-width="0.624255" stroke-miterlimit="10"/>
<path d="M62.176 731.752C63.6742 723.012 66.7955 717.02 70.2913 717.02C74.1617 717.02 77.4079 724.011 78.7812 733.999" stroke="#242752" stroke-width="0.624255" stroke-miterlimit="10"/>
<path d="M75.285 759.968C75.285 758.72 75.1602 757.596 75.1602 756.348C75.1602 747.234 76.6584 739.118 78.9057 734.124C80.4039 730.628 82.4015 728.506 84.524 728.506C86.2719 728.506 87.895 730.004 89.2683 732.501C92.0151 737.37 93.763 746.235 93.763 756.473C93.763 757.721 93.763 758.97 93.6381 760.093" stroke="#242752" stroke-width="0.624255" stroke-miterlimit="10"/>
<path d="M105.249 759.968C105.874 756.347 106.123 752.227 106.123 747.982C106.123 743.987 105.874 740.117 105.374 736.621C105.125 734.498 104.625 732.501 104.251 730.753C102.628 724.261 99.8808 720.016 97.0092 720.016C93.8879 720.016 91.0164 724.885 89.3933 732.251" stroke="#242752" stroke-width="0.624255" stroke-miterlimit="10"/>
<path d="M115.363 759.968C115.363 759.469 115.363 758.97 115.363 758.47C115.363 758.345 115.363 758.096 115.363 757.971C115.363 745.735 112.741 735.373 109.12 731.627C108.121 730.628 107.122 730.129 106.124 730.129C105.499 730.129 104.75 730.379 104.126 730.753" stroke="#242752" stroke-width="0.624255" stroke-miterlimit="10"/>
<path d="M403.893 781.443C414.755 781.443 423.87 789.059 426.117 799.172H381.67C383.917 789.059 393.031 781.443 403.893 781.443Z" fill="#73C7D1"/>
<path d="M381.67 799.297C383.917 789.059 393.031 781.568 403.893 781.568C414.755 781.568 423.87 789.184 426.117 799.297" stroke="#242752" stroke-width="0.624255" stroke-miterlimit="10"/>
<path d="M426.117 799.297H381.67" stroke="#242752" stroke-width="0.624255" stroke-miterlimit="10"/>
<path d="M403.893 781.443V789.059" stroke="#242752" stroke-width="0.624255" stroke-miterlimit="10"/>
<path d="M400.772 789.059H403.893H406.39" stroke="#242752" stroke-width="0.624255" stroke-miterlimit="10"/>
<path d="M471.188 769.332H466.194V779.32H476.182V769.332H471.188ZM471.188 749.605H489.167V764.088V788.559V799.171H439.476V749.48H471.188V749.605Z" fill="white"/>
<path d="M476.182 769.332V779.32H466.319V769.332H471.188H476.182Z" fill="#417DBE"/>
<path d="M489.166 788.684V799.296H439.601V749.605H471.188H489.166V764.088V788.684Z" stroke="#242752" stroke-width="0.624255" stroke-miterlimit="10"/>
<path d="M471.188 749.605V769.332" stroke="#242752" stroke-width="0.624255" stroke-miterlimit="10"/>
<path d="M476.182 779.32H466.319V769.332H471.188H476.182V779.32Z" stroke="#242752" stroke-width="0.624255" stroke-miterlimit="10"/>
<path d="M489.167 788.684H501.028V764.088H489.167" stroke="#242752" stroke-width="0.624255" stroke-miterlimit="10"/>
<path d="M583.928 761.842H521.752V779.196H583.928V761.842Z" fill="#417DBE"/>
<path d="M577.561 786.938V795.427L571.318 791.182L565.2 795.427V786.938H577.561Z" fill="#EB5F60"/>
<path d="M593.292 799.296H588.298H516.758V779.32H521.752H583.928H588.298H593.292" stroke="#242752" stroke-width="0.624255" stroke-miterlimit="10"/>
<path d="M588.298 779.32V799.296" stroke="#242752" stroke-width="0.624255" stroke-miterlimit="10"/>
<path d="M588.298 779.321H583.928H521.752V761.842H583.928H588.298" stroke="#242752" stroke-width="0.624255" stroke-miterlimit="10"/>
<path d="M583.928 761.842V779.321" stroke="#242752" stroke-width="0.624255" stroke-miterlimit="10"/>
<path d="M565.2 786.938H577.561V795.427L571.318 791.182L565.2 795.427V786.938Z" stroke="#242752" stroke-width="0.624255" stroke-miterlimit="10" stroke-linejoin="round"/>
<path d="M397.651 709.279V744.862H312.502H263.811H178.662V709.279H397.651ZM292.277 727.882C292.277 725.635 290.404 723.762 288.157 723.762C285.909 723.762 284.036 725.635 284.036 727.882C284.036 730.129 285.909 732.002 288.157 732.002C290.404 732.002 292.277 730.129 292.277 727.882Z" fill="#417DBE"/>
<path d="M397.651 570.695V709.28H178.662V570.695H397.651ZM387.787 699.791V579.435H189.274V699.791H387.787Z" fill="#276AA6"/>
<path d="M387.913 579.561H189.275V699.917H387.913V579.561Z" fill="white"/>
<path d="M334.477 784.19V799.297H241.962V784.19H334.477C334.477 784.065 334.477 784.19 334.477 784.19Z" fill="#1F6397"/>
<path d="M334.477 784.066H241.962C260.94 773.454 263.936 755.6 263.936 744.738H312.628C312.378 755.6 315.499 773.454 334.477 784.066Z" fill="#276AA6"/>
<path d="M288.157 723.764C290.404 723.764 292.277 725.636 292.277 727.884C292.277 730.131 290.404 732.004 288.157 732.004C285.909 732.004 284.037 730.131 284.037 727.884C284.037 725.636 285.909 723.764 288.157 723.764Z" fill="#1F6397"/>
<path d="M397.651 709.28V744.863H312.502H263.81H178.662V709.28V570.695H397.651V709.28Z" stroke="#242752" stroke-width="0.624255" stroke-miterlimit="10"/>
<path d="M178.662 709.279H397.651" stroke="#242752" stroke-width="0.624255" stroke-miterlimit="10"/>
<path d="M387.913 579.561H189.275V699.917H387.913V579.561Z" stroke="#242752" stroke-width="0.624255" stroke-miterlimit="10"/>
<path d="M334.476 784.191V799.298H241.837V784.191V784.066H241.962H334.476V784.191Z" stroke="#242752" stroke-width="0.624255" stroke-miterlimit="10"/>
<path d="M263.811 744.863C263.936 755.725 260.814 773.579 241.837 784.191" stroke="#242752" stroke-width="0.624255" stroke-miterlimit="10"/>
<path d="M312.503 744.863C312.378 755.725 315.499 773.579 334.476 784.191" stroke="#242752" stroke-width="0.624255" stroke-miterlimit="10"/>
<path d="M284.037 727.884C284.037 725.636 285.909 723.764 288.157 723.764C290.404 723.764 292.277 725.636 292.277 727.884C292.277 730.131 290.404 732.004 288.157 732.004C285.909 732.004 284.037 730.131 284.037 727.884Z" stroke="#242752" stroke-width="0.624255" stroke-miterlimit="10"/>
<path d="M556.086 365.065C556.086 365.439 556.086 365.689 556.086 366.064C556.086 371.932 553.714 377.3 549.844 381.046C545.973 384.916 540.605 387.288 534.737 387.288H468.566C456.83 387.288 447.341 377.8 447.341 366.064H447.466C447.341 365.315 447.341 364.441 447.341 363.691C447.341 350.582 457.953 340.095 470.938 340.095C471.812 340.095 472.686 340.095 473.56 340.219C478.928 332.728 487.793 327.734 497.781 327.734C509.642 327.734 520.004 334.726 524.749 344.714C527.495 343.466 530.617 342.717 533.863 342.717C546.098 342.841 556.086 352.705 556.086 365.065Z" fill="#417DBE"/>
<path d="M518.632 288.156C512.264 288.156 507.145 283.037 507.145 276.67C507.145 270.303 512.264 265.184 518.632 265.184C524.874 265.184 529.993 270.303 529.993 276.67C529.993 283.037 524.874 288.156 518.632 288.156Z" fill="#242752"/>
<path d="M518.631 185.529C521.378 185.529 523.626 187.777 523.626 190.523C523.626 193.27 521.378 195.517 518.631 195.517C515.885 195.517 513.637 193.27 513.637 190.523C513.637 187.777 515.885 185.529 518.631 185.529Z" fill="#3E7DBE"/>
<path d="M475.433 91.2661C481.301 94.0128 486.045 98.7572 488.792 104.75C491.414 103.502 494.285 102.877 497.407 102.877C509.018 102.877 518.506 112.366 518.506 123.977C518.506 124.227 518.506 124.601 518.506 124.976C518.506 130.594 516.259 135.588 512.639 139.209C509.018 142.83 503.899 145.077 498.405 145.077H473.435H435.48C424.369 145.077 415.255 136.088 415.255 124.851H415.379C415.255 124.102 415.255 123.353 415.255 122.604C415.255 110.243 425.243 100.131 437.728 100.131C438.477 100.131 439.226 100.131 439.975 100.255C440.1 100.255 440.1 100.255 440.225 100.255C445.344 93.1389 453.709 88.3945 463.197 88.3945C467.692 88.5194 471.812 89.5182 475.433 91.2661Z" fill="#417DBE"/>
<path d="M481.176 13.2345C486.67 16.3558 488.542 23.3475 485.296 28.8409C482.05 34.3344 475.183 36.2071 469.69 33.0859C464.196 29.9646 462.324 22.9729 465.445 17.4795C468.691 11.986 475.683 10.1133 481.176 13.2345Z" fill="#242752"/>
<path d="M473.56 314.875C467.193 314.875 462.074 309.756 462.074 303.389C462.074 297.021 467.193 291.902 473.56 291.902C479.927 291.902 485.046 297.021 485.046 303.389C485.046 309.756 479.803 314.875 473.56 314.875Z" fill="#242752"/>
<path d="M421.498 26.2188C424.869 26.2188 427.615 28.9655 427.615 32.3365C427.615 35.7074 424.869 38.4542 421.498 38.4542C418.127 38.4542 415.38 35.7074 415.38 32.3365C415.38 28.9655 418.127 26.2188 421.498 26.2188Z" fill="#3E7DBE"/>
<path d="M411.509 308.507C414.88 308.507 417.752 311.254 417.752 314.749C417.752 318.12 415.005 320.992 411.509 320.992C408.138 320.992 405.267 318.245 405.267 314.749C405.392 311.254 408.138 308.507 411.509 308.507Z" fill="#3E7DBE"/>
<path d="M392.781 171.171C395.746 171.171 398.15 168.767 398.15 165.802C398.15 162.837 395.746 160.434 392.781 160.434C389.816 160.434 387.413 162.837 387.413 165.802C387.413 168.767 389.816 171.171 392.781 171.171Z" fill="#3E7DBE"/>
<path d="M375.178 278.793C375.178 287.782 371.557 296.022 365.564 302.015C359.571 308.008 351.456 311.629 342.342 311.629H315.374H286.284H244.084H240.089C221.985 311.629 207.253 296.896 207.253 278.793H207.378C207.253 277.544 207.253 276.421 207.253 275.172C207.253 263.936 212.372 253.823 220.362 247.206C226.73 241.962 234.845 238.716 243.709 238.716C245.083 238.716 246.331 238.84 247.705 238.965C256.07 227.354 269.678 219.738 285.035 219.738C303.388 219.738 319.244 230.475 326.611 245.957C330.856 243.959 335.6 242.961 340.594 242.961C344.714 242.961 348.709 243.71 352.455 245.083C362.193 248.704 369.934 256.569 373.18 266.433C374.304 269.804 374.928 273.424 374.928 277.295C375.178 277.669 375.178 278.293 375.178 278.793Z" fill="#242752"/>
<path d="M352.704 201.011C359.072 201.011 364.191 206.13 364.191 212.372C364.191 218.615 359.072 223.858 352.704 223.858C346.337 223.858 341.218 218.74 341.218 212.372C341.218 206.005 346.337 201.011 352.704 201.011Z" fill="#242752"/>
<path d="M347.336 79.1553C350.707 79.1553 353.453 81.902 353.453 85.273C353.453 88.644 350.707 91.3907 347.336 91.3907C343.965 91.3907 341.218 88.644 341.218 85.273C341.218 81.902 343.965 79.1553 347.336 79.1553Z" fill="#3E7DBE"/>
<path d="M347.336 382.294C350.083 382.294 352.33 384.541 352.33 387.288C352.33 390.035 350.083 392.282 347.336 392.282C344.59 392.282 342.342 390.035 342.342 387.288C342.342 384.541 344.59 382.294 347.336 382.294Z" fill="#3E7DBE"/>
<path d="M342.342 327.359C348.709 327.359 353.828 332.478 353.828 338.721C353.828 345.088 348.709 350.207 342.342 350.207C335.974 350.207 330.855 345.088 330.855 338.721C330.98 332.478 336.099 327.359 342.342 327.359Z" fill="#242752"/>
<path d="M292.151 111.867C297.645 114.988 299.518 121.98 296.396 127.473C293.275 132.967 286.283 134.839 280.79 131.593C275.297 128.472 273.424 121.48 276.545 115.987C279.666 110.493 286.658 108.621 292.151 111.867Z" fill="#242752"/>
<path d="M286.908 167.676C293.275 167.676 298.394 172.795 298.394 179.162C298.394 185.529 293.275 190.648 286.908 190.648C280.54 190.648 275.421 185.529 275.421 179.162C275.421 172.795 280.54 167.676 286.908 167.676Z" fill="#242752"/>
<path d="M253.447 88.5202C258.941 91.6415 260.814 98.6331 257.692 104.127C254.571 109.62 247.579 111.493 242.086 108.247C238.465 106.124 236.343 102.254 236.343 98.3834C236.343 96.3858 236.842 94.513 237.841 92.6403C240.962 87.2717 247.954 85.3989 253.447 88.5202Z" fill="#242752"/>
<path d="M206.879 127.848C206.879 121.48 211.998 116.361 218.24 116.361C224.608 116.361 229.726 121.48 229.726 127.848C229.726 134.09 224.608 139.209 218.24 139.209C211.998 139.209 206.879 134.09 206.879 127.848Z" fill="#242752"/>
<path d="M196.89 43.6977C200.407 43.6977 203.258 40.8469 203.258 37.3303C203.258 33.8137 200.407 30.9629 196.89 30.9629C193.373 30.9629 190.523 33.8137 190.523 37.3303C190.523 40.8469 193.373 43.6977 196.89 43.6977Z" fill="#3E7DBE"/>
<path d="M155.814 91.8908C156.563 91.7659 157.312 91.7659 158.061 91.7659C164.179 91.7659 169.673 94.3878 173.543 98.5079C177.039 102.253 179.161 107.372 179.161 112.866C179.161 113.115 179.161 113.49 179.161 113.865C179.161 119.483 176.914 124.477 173.293 128.098C169.673 131.718 164.554 133.966 159.06 133.966H138.959H111.117H96.1353C85.0236 133.966 75.9094 124.976 75.9094 113.74H76.1591C76.0343 112.991 76.0343 112.242 76.0343 111.492C76.0343 99.1321 86.0224 89.0192 98.5075 89.0192C99.3814 89.0192 100.131 89.0192 101.004 89.1441C106.123 82.0275 114.488 77.2832 123.977 77.2832C135.214 77.2832 144.952 83.9003 149.572 93.389C151.444 92.6399 153.567 92.1405 155.814 91.8908Z" fill="#417DBE"/>
<path d="M173.543 185.529C176.29 185.529 178.537 187.777 178.537 190.523C178.537 193.27 176.29 195.517 173.543 195.517C170.796 195.517 168.549 193.27 168.549 190.523C168.549 187.777 170.796 185.529 173.543 185.529Z" fill="#3E7DBE"/>
<path d="M167.176 319.993C173.543 319.993 178.662 325.112 178.662 331.479C178.662 337.722 173.543 342.841 167.176 342.841C160.808 342.841 155.689 337.722 155.689 331.479C155.814 325.112 160.933 319.993 167.176 319.993Z" fill="#242752"/>
<path d="M162.057 288.905C168.424 288.905 173.543 294.024 173.543 300.392C173.543 306.759 168.424 311.878 162.057 311.878C155.689 311.878 150.571 306.759 150.571 300.392C150.695 293.899 155.814 288.905 162.057 288.905Z" fill="#242752"/>
<path d="M155.814 387.288C158.561 387.288 160.808 389.535 160.808 392.282C160.808 395.029 158.561 397.276 155.814 397.276C153.067 397.276 150.82 395.029 150.82 392.282C150.82 389.535 153.067 387.288 155.814 387.288Z" fill="#3E7DBE"/>
<path d="M123.852 0.25C130.22 0.25 135.339 5.3689 135.339 11.7363C135.339 18.1037 130.22 23.0978 123.852 23.0978C117.485 23.0978 112.366 17.9789 112.366 11.7363C112.491 5.3689 117.61 0.25 123.852 0.25Z" fill="#242752"/>
<path d="M50.3147 335.6C43.1982 333.602 37.8296 327.11 37.4551 319.494C37.4551 319.244 37.4551 318.995 37.4551 318.62H37.5799C37.4551 317.996 37.4551 317.372 37.4551 316.623C37.4551 305.761 46.1947 297.021 57.0567 297.021C57.8058 297.021 58.4301 297.021 59.1792 297.146C63.6738 290.903 71.04 286.783 79.2802 286.783C89.1434 286.783 97.6333 292.526 101.629 300.891C103.876 299.893 106.498 299.268 109.12 299.268C119.357 299.268 127.598 307.508 127.598 317.746C127.598 317.996 127.598 318.246 127.598 318.62C127.598 323.489 125.6 327.859 122.479 331.105C122.354 331.23 122.229 331.355 122.104 331.48C118.983 334.476 114.738 336.349 109.994 336.349H79.1553H55.0591C53.436 336.224 51.813 335.975 50.3147 335.6Z" fill="#417DBE"/>
<path d="M116.111 263.686C122.354 263.686 127.598 268.804 127.598 275.172C127.598 281.539 122.479 286.658 116.111 286.658C109.744 286.658 104.625 281.539 104.625 275.172C104.75 268.804 109.869 263.686 116.111 263.686Z" fill="#242752"/>
<path d="M111.117 197.515C117.485 197.515 122.603 202.634 122.603 208.876C122.603 215.244 117.485 220.362 111.117 220.362C104.75 220.362 99.6309 215.244 99.6309 208.876C99.6309 202.758 104.75 197.515 111.117 197.515Z" fill="#242752"/>
<path d="M71.5398 175.791C77.9072 175.791 83.0261 180.91 83.0261 187.277C83.0261 193.645 77.9072 198.764 71.5398 198.764C65.1724 198.764 60.0535 193.645 60.0535 187.277C60.1783 180.91 65.2972 175.791 71.5398 175.791Z" fill="#242752"/>
<path d="M59.0549 60.1778C52.6875 60.1778 47.5686 55.0589 47.5686 48.6915C47.5686 42.449 52.6875 37.3301 59.0549 37.3301C65.2975 37.3301 70.5412 42.449 70.5412 48.6915C70.5412 55.0589 65.4223 60.1778 59.0549 60.1778Z" fill="#242752"/>
<path d="M50.3154 385.79C56.558 385.79 61.8017 390.909 61.8017 397.151C61.8017 403.519 56.6828 408.638 50.3154 408.638C43.948 408.638 38.8291 403.519 38.8291 397.151C38.954 390.784 44.0728 385.79 50.3154 385.79Z" fill="#242752"/>
<path d="M50.3152 251.575C52.7975 251.575 54.8098 249.563 54.8098 247.081C54.8098 244.598 52.7975 242.586 50.3152 242.586C47.8329 242.586 45.8206 244.598 45.8206 247.081C45.8206 249.563 47.8329 251.575 50.3152 251.575Z" fill="#3E7DBE"/>
<path d="M220.612 247.081C226.979 241.837 235.095 238.591 243.959 238.591C245.333 238.591 246.581 238.716 247.954 238.84C256.319 227.229 269.928 219.613 285.285 219.613C303.638 219.613 319.494 230.35 326.86 245.832C331.105 243.834 335.85 242.836 340.844 242.836C344.964 242.836 348.959 243.585 352.704 244.958C362.443 248.579 370.184 256.444 373.43 266.308C374.553 269.679 375.178 273.299 375.178 277.17C375.178 277.669 375.178 278.168 375.178 278.668C375.178 287.657 371.557 295.897 365.564 301.89C359.571 307.883 351.456 311.504 342.342 311.504H315.374H286.284H244.084H240.089C221.985 311.504 207.253 296.771 207.253 278.668H207.378C207.253 277.419 207.253 276.296 207.253 275.047C207.503 263.811 212.497 253.822 220.612 247.081Z" stroke="#242752" stroke-width="0.624255" stroke-miterlimit="10"/>
<path d="M556.086 366.064C556.086 371.932 553.714 377.3 549.844 381.171C545.973 385.041 540.605 387.413 534.737 387.413H468.566C456.83 387.413 447.341 377.925 447.341 366.189H447.466C447.341 365.44 447.341 364.566 447.341 363.816C447.341 350.707 457.953 340.22 470.938 340.22C471.812 340.22 472.686 340.22 473.56 340.344C478.928 332.853 487.793 327.859 497.781 327.859C509.642 327.859 520.004 334.851 524.749 344.839C527.495 343.591 530.617 342.842 533.863 342.842C546.223 342.842 556.086 352.83 556.086 365.065C556.086 365.315 556.086 365.689 556.086 366.064Z" stroke="#242752" stroke-width="0.624255" stroke-miterlimit="10"/>
<path d="M122.104 331.355C118.983 334.351 114.738 336.224 109.994 336.224H79.1553H55.0591C53.436 336.224 51.813 335.975 50.3147 335.6C43.1982 333.602 37.8296 327.11 37.4551 319.494C37.4551 319.244 37.4551 318.995 37.4551 318.62H37.5799C37.4551 317.996 37.4551 317.372 37.4551 316.623C37.4551 305.761 46.1947 297.021 57.0567 297.021C57.8058 297.021 58.4301 297.021 59.1792 297.146C63.6738 290.903 71.04 286.783 79.2802 286.783C89.1434 286.783 97.6333 292.526 101.629 300.891C103.876 299.893 106.498 299.268 109.12 299.268C119.357 299.268 127.598 307.508 127.598 317.746C127.598 317.996 127.598 318.246 127.598 318.62C127.598 323.489 125.6 327.859 122.479 331.105C122.354 331.23 122.229 331.355 122.104 331.355Z" stroke="#242752" stroke-width="0.624255" stroke-miterlimit="10"/>
<path d="M173.543 98.5079C177.039 102.253 179.161 107.372 179.161 112.866C179.161 113.115 179.161 113.49 179.161 113.865C179.161 119.483 176.914 124.477 173.293 128.098C169.673 131.718 164.554 133.966 159.06 133.966H138.959H111.117H96.1353C85.0236 133.966 75.9094 124.976 75.9094 113.74H76.1591C76.0343 112.991 76.0343 112.242 76.0343 111.492C76.0343 99.1321 86.0224 89.0192 98.5075 89.0192C99.3814 89.0192 100.131 89.0192 101.004 89.1441C106.123 82.0275 114.488 77.2832 123.977 77.2832C135.214 77.2832 144.952 83.9003 149.572 93.389C151.569 92.515 153.692 91.8908 155.939 91.6411C156.688 91.5162 157.437 91.5162 158.186 91.5162C164.179 91.7659 169.673 94.3878 173.543 98.5079Z" stroke="#242752" stroke-width="0.624255" stroke-miterlimit="10"/>
<path d="M518.631 123.977C518.631 124.227 518.631 124.601 518.631 124.976C518.631 130.594 516.384 135.588 512.763 139.209C509.143 142.83 504.024 145.077 498.53 145.077H473.56H435.605C424.494 145.077 415.379 136.088 415.379 124.851H415.504C415.379 124.102 415.379 123.353 415.379 122.604C415.379 110.243 425.367 100.131 437.853 100.131C438.602 100.131 439.351 100.131 440.1 100.255C440.225 100.255 440.225 100.255 440.35 100.255C445.469 93.1389 453.834 88.3945 463.322 88.3945C467.692 88.3945 471.812 89.3933 475.433 91.1413C481.301 93.888 486.045 98.6323 488.792 104.625C491.414 103.377 494.285 102.752 497.407 102.752C509.143 102.752 518.631 112.241 518.631 123.977Z" stroke="#242752" stroke-width="0.624255" stroke-miterlimit="10"/>
<path d="M286.408 311.504V570.695" stroke="#242752" stroke-width="0.624255" stroke-miterlimit="10"/>
<path d="M315.498 311.504V366.064H447.341" stroke="#242752" stroke-width="0.624255" stroke-miterlimit="10"/>
<path d="M79.1555 336.224V366.064H244.334V311.504" stroke="#242752" stroke-width="0.624255" stroke-miterlimit="10"/>
<path d="M76.034 111.492H71.5393H59.0542H9.11377V319.494H37.455H37.5798" stroke="#242752" stroke-width="0.624255" stroke-miterlimit="10"/>
<path d="M207.502 275.047H127.598" stroke="#242752" stroke-width="0.624255" stroke-miterlimit="10"/>
<path d="M122.104 331.355H155.814" stroke="#242752" stroke-width="0.624255" stroke-miterlimit="10"/>
<path d="M115.362 300.268H150.695" stroke="#242752" stroke-width="0.624255" stroke-miterlimit="10"/>
<path d="M111.118 133.966V197.515" stroke="#242752" stroke-width="0.624255" stroke-miterlimit="10"/>
<path d="M71.5398 111.492V175.791" stroke="#242752" stroke-width="0.624255" stroke-miterlimit="10"/>
<path d="M59.0542 111.492V60.1781V58.8047" stroke="#242752" stroke-width="0.624255" stroke-miterlimit="10"/>
<path d="M123.852 77.408V23.2227" stroke="#242752" stroke-width="0.624255" stroke-miterlimit="10"/>
<path d="M173.543 98.5078H236.218" stroke="#242752" stroke-width="0.624255" stroke-miterlimit="10"/>
<path d="M173.543 127.848H206.878H207.502" stroke="#242752" stroke-width="0.624255" stroke-miterlimit="10"/>
<path d="M138.959 133.966V247.081H220.487H220.612" stroke="#242752" stroke-width="0.624255" stroke-miterlimit="10"/>
<path d="M50.3147 334.601V335.599V385.79" stroke="#242752" stroke-width="0.624255" stroke-miterlimit="10"/>
<path d="M440.1 100.381V100.256V52.6875H155.814V91.8907V92.0156" stroke="#242752" stroke-width="0.624255" stroke-miterlimit="10"/>
<path d="M297.894 121.73H415.504" stroke="#242752" stroke-width="0.624255" stroke-miterlimit="10"/>
<path d="M475.433 91.2661V35.208" stroke="#242752" stroke-width="0.624255" stroke-miterlimit="10"/>
<path d="M518.632 123.978H589.172V366.064H556.087" stroke="#242752" stroke-width="0.624255" stroke-miterlimit="10"/>
<path d="M518.632 336.224V288.157V286.908" stroke="#242752" stroke-width="0.624255" stroke-miterlimit="10"/>
<path d="M473.56 340.22V314.875V314.75" stroke="#242752" stroke-width="0.624255" stroke-miterlimit="10"/>
<path d="M462.073 303.514C462.073 297.146 467.192 292.027 473.56 292.027C479.927 292.027 485.046 297.146 485.046 303.514C485.046 309.881 479.927 315 473.56 315C467.192 314.875 462.073 309.756 462.073 303.514Z" stroke="#242752" stroke-width="0.624255" stroke-miterlimit="10"/>
<path d="M330.979 338.846C330.979 332.478 336.098 327.484 342.466 327.484C348.833 327.484 353.952 332.603 353.952 338.846C353.952 345.213 348.833 350.332 342.466 350.332C336.098 350.332 330.979 345.088 330.979 338.846Z" stroke="#242752" stroke-width="0.624255" stroke-miterlimit="10"/>
<path d="M341.218 212.372C341.218 206.005 346.337 201.011 352.704 201.011C359.072 201.011 364.191 206.13 364.191 212.372C364.191 218.615 359.072 223.858 352.704 223.858C346.337 223.858 341.218 218.74 341.218 212.372Z" stroke="#242752" stroke-width="0.624255" stroke-miterlimit="10"/>
<path d="M275.421 179.162C275.421 172.795 280.54 167.676 286.907 167.676C293.275 167.676 298.393 172.795 298.393 179.162C298.393 185.529 293.275 190.648 286.907 190.648C280.54 190.524 275.421 185.405 275.421 179.162Z" stroke="#242752" stroke-width="0.624255" stroke-miterlimit="10"/>
<path d="M38.9531 397.151C38.9531 390.784 44.072 385.79 50.4394 385.79C56.682 385.79 61.9257 390.909 61.9257 397.151C61.9257 403.519 56.8068 408.638 50.4394 408.638C44.072 408.638 38.9531 403.519 38.9531 397.151Z" stroke="#242752" stroke-width="0.624255" stroke-miterlimit="10"/>
<path d="M104.75 275.047C104.75 268.679 109.869 263.561 116.237 263.561C122.479 263.561 127.723 268.679 127.723 275.047C127.723 281.414 122.604 286.533 116.237 286.533C109.869 286.533 104.75 281.414 104.75 275.047Z" stroke="#242752" stroke-width="0.624255" stroke-miterlimit="10"/>
<path d="M99.6309 209.001C99.6309 202.759 104.75 197.64 111.117 197.64C117.485 197.64 122.603 202.759 122.603 209.001C122.603 215.368 117.485 220.487 111.117 220.487C104.75 220.487 99.6309 215.368 99.6309 209.001Z" stroke="#242752" stroke-width="0.624255" stroke-miterlimit="10"/>
<path d="M60.178 187.152C60.178 180.785 65.2969 175.666 71.6643 175.666C78.0317 175.666 83.1506 180.785 83.1506 187.152C83.1506 193.52 78.0317 198.639 71.6643 198.639C65.2969 198.639 60.178 193.52 60.178 187.152Z" stroke="#242752" stroke-width="0.624255" stroke-miterlimit="10"/>
<path d="M47.6926 48.6915C47.6926 42.449 52.8115 37.3301 59.1789 37.3301C65.4215 37.3301 70.6652 42.449 70.6652 48.6915C70.6652 55.0589 65.5463 60.1778 59.1789 60.1778C52.8115 60.1778 47.6926 55.0589 47.6926 48.6915Z" stroke="#242752" stroke-width="0.624255" stroke-miterlimit="10"/>
<path d="M112.49 11.7363C112.49 5.36889 117.609 0.25 123.977 0.25C130.344 0.25 135.463 5.36889 135.463 11.7363C135.463 18.1037 130.344 23.0977 123.977 23.0977C117.609 23.2226 112.49 18.1037 112.49 11.7363Z" stroke="#242752" stroke-width="0.624255" stroke-miterlimit="10"/>
<path d="M206.878 127.848C206.878 121.48 211.997 116.361 218.24 116.361C224.607 116.361 229.726 121.48 229.726 127.848C229.726 134.09 224.607 139.209 218.24 139.209C211.997 139.209 206.878 134.09 206.878 127.848Z" stroke="#242752" stroke-width="0.624255" stroke-miterlimit="10"/>
<path d="M280.665 131.593C275.172 128.472 273.299 121.48 276.42 115.987C279.541 110.493 286.533 108.621 292.026 111.867C297.52 114.988 299.393 121.98 296.271 127.473C293.15 132.967 286.158 134.839 280.665 131.593Z" stroke="#242752" stroke-width="0.624255" stroke-miterlimit="10"/>
<path d="M469.689 33.0855C464.196 29.9642 462.323 22.9725 465.444 17.4791C468.566 11.9856 475.557 10.1129 481.051 13.359C486.544 16.4803 488.417 23.4719 485.171 28.9654C481.925 34.4588 475.183 36.2067 469.689 33.0855Z" stroke="#242752" stroke-width="0.624255" stroke-miterlimit="10"/>
<path d="M241.961 108.371C238.34 106.249 236.218 102.378 236.218 98.5078C236.218 96.5102 236.717 94.6374 237.716 92.7646C240.837 87.2712 247.829 85.3984 253.322 88.5197C258.816 91.641 260.689 98.6326 257.567 104.126C254.446 109.62 247.454 111.492 241.961 108.371Z" stroke="#242752" stroke-width="0.624255" stroke-miterlimit="10"/>
<path d="M155.814 331.355C155.814 324.988 160.933 319.869 167.3 319.869C173.668 319.869 178.787 324.988 178.787 331.355C178.787 337.598 173.668 342.717 167.3 342.717C160.933 342.842 155.814 337.723 155.814 331.355Z" stroke="#242752" stroke-width="0.624255" stroke-miterlimit="10"/>
<path d="M150.695 300.268C150.695 293.9 155.813 288.781 162.181 288.781C168.548 288.781 173.667 293.9 173.667 300.268C173.667 306.635 168.548 311.754 162.181 311.754C155.813 311.754 150.695 306.635 150.695 300.268Z" stroke="#242752" stroke-width="0.624255" stroke-miterlimit="10"/>
<path d="M507.145 276.67C507.145 270.303 512.264 265.184 518.631 265.184C524.874 265.184 529.993 270.303 529.993 276.67C529.993 283.037 524.874 288.156 518.631 288.156C512.264 288.156 507.145 283.037 507.145 276.67Z" stroke="#242752" stroke-width="0.624255" stroke-miterlimit="10"/>
<path d="M342.341 311.504V327.36V327.485" stroke="#242752" stroke-width="0.624255" stroke-miterlimit="10"/>
<path d="M352.704 244.958V223.858" stroke="#242752" stroke-width="0.624255" stroke-miterlimit="10"/>
<path d="M286.908 219.613V190.522" stroke="#242752" stroke-width="0.624255" stroke-miterlimit="10"/>
<path d="M373.429 266.432H473.56V145.077" stroke="#242752" stroke-width="0.624255" stroke-miterlimit="10"/>
<path d="M50.3145 251.575C52.7968 251.575 54.8091 249.563 54.8091 247.081C54.8091 244.598 52.7968 242.586 50.3145 242.586C47.8321 242.586 45.8198 244.598 45.8198 247.081C45.8198 249.563 47.8321 251.575 50.3145 251.575Z" stroke="#242752" stroke-width="0.624255" stroke-miterlimit="10"/>
<path d="M168.549 190.523C168.549 187.777 170.796 185.529 173.543 185.529C176.29 185.529 178.537 187.777 178.537 190.523C178.537 193.27 176.29 195.517 173.543 195.517C170.796 195.517 168.549 193.27 168.549 190.523Z" stroke="#242752" stroke-width="0.624255" stroke-miterlimit="10"/>
<path d="M196.89 43.6977C200.406 43.6977 203.257 40.8469 203.257 37.3303C203.257 33.8137 200.406 30.9629 196.89 30.9629C193.373 30.9629 190.522 33.8137 190.522 37.3303C190.522 40.8469 193.373 43.6977 196.89 43.6977Z" stroke="#242752" stroke-width="0.624255" stroke-miterlimit="10"/>
<path d="M341.218 85.149C341.218 81.778 343.965 79.0312 347.336 79.0312C350.707 79.0312 353.453 81.778 353.453 85.149C353.453 88.5199 350.707 91.2667 347.336 91.2667C343.965 91.2667 341.218 88.5199 341.218 85.149Z" stroke="#242752" stroke-width="0.624255" stroke-miterlimit="10"/>
<path d="M415.504 32.3365C415.504 28.9655 418.251 26.2188 421.622 26.2188C424.993 26.2188 427.74 28.9655 427.74 32.3365C427.74 35.7074 424.993 38.4542 421.622 38.4542C418.126 38.4542 415.504 35.7074 415.504 32.3365Z" stroke="#242752" stroke-width="0.624255" stroke-miterlimit="10"/>
<path d="M392.781 171.171C395.746 171.171 398.15 168.767 398.15 165.802C398.15 162.837 395.746 160.434 392.781 160.434C389.816 160.434 387.413 162.837 387.413 165.802C387.413 168.767 389.816 171.171 392.781 171.171Z" stroke="#242752" stroke-width="0.624255" stroke-miterlimit="10"/>
<path d="M513.637 190.523C513.637 187.777 515.885 185.529 518.631 185.529C521.378 185.529 523.626 187.777 523.626 190.523C523.626 193.27 521.378 195.517 518.631 195.517C515.885 195.517 513.637 193.27 513.637 190.523Z" stroke="#242752" stroke-width="0.624255" stroke-miterlimit="10"/>
<path d="M405.391 314.749C405.391 311.378 408.138 308.507 411.634 308.507C415.005 308.507 417.876 311.254 417.876 314.749C417.876 318.12 415.129 320.992 411.634 320.992C408.138 320.867 405.391 318.12 405.391 314.749Z" stroke="#242752" stroke-width="0.624255" stroke-miterlimit="10"/>
<path d="M342.341 387.288C342.341 384.541 344.589 382.294 347.335 382.294C350.082 382.294 352.329 384.541 352.329 387.288C352.329 390.035 350.082 392.282 347.335 392.282C344.589 392.282 342.341 390.035 342.341 387.288Z" stroke="#242752" stroke-width="0.624255" stroke-miterlimit="10"/>
<path d="M150.82 392.282C150.82 389.535 153.067 387.288 155.814 387.288C158.561 387.288 160.808 389.535 160.808 392.282C160.808 395.029 158.561 397.276 155.814 397.276C153.067 397.276 150.82 395.029 150.82 392.282Z" stroke="#242752" stroke-width="0.624255" stroke-miterlimit="10"/>
<path d="M305.76 257.693L299.268 251.325C297.77 249.827 295.897 249.078 293.775 249.078H283.662C281.664 249.078 279.667 249.952 278.168 251.325L271.676 257.693C270.178 259.191 269.429 261.189 269.429 263.186V273.174C269.429 275.297 270.303 277.294 271.801 278.668L279.666 286.409C280.166 286.908 280.416 287.532 280.416 288.157V291.278C280.416 293.026 281.914 294.524 283.662 294.524H293.9C295.647 294.524 297.146 293.026 297.146 291.278V288.406C297.146 287.782 297.395 287.158 297.895 286.658L305.885 278.668C307.383 277.17 308.133 275.172 308.133 273.174V263.186C308.133 261.189 307.259 259.191 305.76 257.693ZM299.892 271.801C299.892 272.8 299.518 273.923 298.769 274.673L295.647 278.044C294.649 279.167 294.274 280.79 294.898 282.164L296.646 286.533H280.79L282.538 282.164C283.037 280.79 282.788 279.167 281.789 278.044L278.668 274.673C277.919 273.923 277.544 272.925 277.544 271.801V264.56C277.544 263.561 277.919 262.562 278.668 261.813L282.164 257.943C282.913 257.069 284.036 256.569 285.285 256.569H292.027C293.275 256.569 294.399 257.069 295.148 257.943L298.644 261.938C299.393 262.687 299.768 263.686 299.768 264.685L299.892 271.801Z" fill="white"/>
</g>
<defs>
<clipPath id="clip0_2385_23668">
<rect width="607.9" height="799.547" fill="white"/>
</clipPath>
</defs>
</svg>
