<svg width="848" height="1115" viewBox="0 0 848 1115" fill="none" xmlns="http://www.w3.org/2000/svg">
<g opacity="0.6" clip-path="url(#clip0_2385_23493)">
<path d="M30.405 -6.00578L144.786 -119.421C178.569 -152.722 233.105 -152.722 266.406 -118.939L1525.08 1149.39C1558.38 1183.17 1558.38 1237.7 1524.59 1271.01L1410.21 1384.42C1376.43 1417.72 1321.89 1417.72 1288.59 1383.94L29.9224 115.614C-3.37835 81.831 -3.37835 27.7776 30.405 -6.00578Z" stroke="#9FBEED" stroke-width="0.3529" stroke-miterlimit="10"/>
<path d="M40.0579 31.6379L181.948 -109.287C216.214 -143.07 271.233 -143.07 305.016 -108.804L1515.43 1110.29C1549.21 1144.56 1549.21 1199.58 1514.94 1233.36L1373.05 1374.29C1338.79 1408.07 1283.77 1408.07 1249.98 1373.8L39.5753 154.706C5.79193 120.923 6.27455 65.4213 40.0579 31.6379Z" stroke="#9FBEED" stroke-width="0.3529" stroke-miterlimit="10"/>
<path d="M49.7095 69.2827L219.592 -99.1515C253.858 -133.418 309.841 -133.418 344.107 -98.6689L1505.77 1071.2C1540.04 1105.47 1540.04 1161.45 1505.29 1195.72L1335.41 1364.15C1301.14 1398.42 1245.16 1398.42 1210.89 1363.67L49.7095 193.798C15.4435 159.533 15.4435 103.549 49.7095 69.2827Z" stroke="#9FBEED" stroke-width="0.3529" stroke-miterlimit="10"/>
<path d="M59.8449 106.927L257.236 -89.0165C291.985 -123.765 348.451 -123.282 383.2 -88.5339L1496.12 1032.11C1530.87 1066.86 1530.39 1123.32 1495.64 1158.07L1298.25 1354.02C1263.5 1388.76 1207.03 1388.28 1172.28 1353.53L59.3623 232.891C24.6137 198.142 24.6137 141.676 59.8449 106.927Z" stroke="#9FBEED" stroke-width="0.3529" stroke-miterlimit="10"/>
<path d="M69.4973 144.572L294.881 -79.3635C330.112 -114.595 387.061 -114.112 422.292 -78.8809L1486.47 993.017C1521.7 1028.25 1521.22 1085.2 1485.99 1120.43L1260.6 1344.36C1225.37 1379.6 1168.42 1379.11 1133.19 1343.88L69.0146 271.983C33.7834 236.752 34.266 179.803 69.4973 144.572Z" stroke="#9FBEED" stroke-width="0.3529" stroke-miterlimit="10"/>
<path d="M79.15 182.216L332.525 -69.2284C368.239 -104.46 425.671 -104.46 461.385 -68.7458L1476.33 953.925C1511.56 989.639 1511.56 1047.07 1475.85 1082.78L1222.48 1334.23C1186.76 1369.46 1129.33 1369.46 1093.62 1333.75L78.6674 311.076C43.4361 275.362 43.4361 217.93 79.15 182.216Z" stroke="#9FBEED" stroke-width="0.3529" stroke-miterlimit="10"/>
<path d="M88.8016 219.86L369.686 -59.094C405.883 -94.8078 464.28 -94.8078 499.993 -58.6114L1466.2 914.832C1501.91 951.029 1501.91 1009.43 1465.72 1045.14L1184.83 1324.09C1148.63 1359.81 1090.24 1359.81 1054.52 1323.61L88.319 350.167C52.6051 313.971 53.0878 256.057 88.8016 219.86Z" stroke="#9FBEED" stroke-width="0.3529" stroke-miterlimit="10"/>
<path d="M98.9374 257.504L407.814 -48.9596C444.493 -85.156 503.373 -85.156 539.569 -48.4769L1457.03 875.739C1493.22 912.418 1493.22 971.298 1456.55 1007.49L1147.67 1313.96C1110.99 1350.15 1052.11 1350.15 1015.91 1313.48L98.4547 389.259C62.2583 352.58 62.2583 293.7 98.9374 257.504Z" stroke="#9FBEED" stroke-width="0.3529" stroke-miterlimit="10"/>
<path d="M108.589 295.149L444.975 -38.8236C481.654 -75.5027 541.499 -75.02 578.178 -38.341L1446.89 836.648C1483.57 873.327 1483.09 933.172 1446.41 969.851L1110.02 1304.31C1073.35 1340.99 1013.5 1340.5 976.822 1303.82L108.107 428.835C71.4277 391.673 71.4277 331.828 108.589 295.149Z" stroke="#9FBEED" stroke-width="0.3529" stroke-miterlimit="10"/>
<path d="M118.242 332.793L482.62 -29.1716C519.781 -66.3333 580.109 -65.8507 617.27 -28.689L1437.24 797.556C1474.4 834.717 1473.92 895.045 1436.76 932.207L1072.38 1294.17C1035.22 1331.33 974.892 1330.85 937.73 1293.69L117.759 467.444C80.5976 430.282 81.0802 369.955 118.242 332.793Z" stroke="#9FBEED" stroke-width="0.3529" stroke-miterlimit="10"/>
<path d="M127.895 370.438L520.264 -19.0362C557.909 -56.6805 618.719 -56.1979 656.363 -18.5536L1427.59 758.464C1465.23 796.108 1464.75 856.918 1427.11 894.563L1034.74 1284.04C997.092 1321.68 936.282 1321.2 898.638 1283.55L127.412 506.536C90.2504 468.892 90.2504 408.082 127.895 370.438Z" stroke="#9FBEED" stroke-width="0.3529" stroke-miterlimit="10"/>
<path d="M137.546 408.082L557.425 -8.90101C595.552 -46.5453 656.845 -46.5453 694.972 -8.4184L1417.45 719.372C1455.1 757.499 1455.1 818.791 1416.97 856.918L997.092 1273.9C958.965 1311.55 897.672 1311.55 859.545 1273.42L137.064 545.629C99.4193 507.502 99.9019 446.209 137.546 408.082Z" stroke="#9FBEED" stroke-width="0.3529" stroke-miterlimit="10"/>
<path d="M147.682 445.726L595.553 1.2334C634.163 -36.8935 696.42 -36.8935 734.547 1.71602L1408.28 680.279C1446.41 718.889 1446.41 781.147 1407.8 819.273L959.931 1263.77C921.321 1301.89 859.063 1301.89 820.936 1263.28L147.199 584.72C109.073 546.111 109.073 483.853 147.682 445.726Z" stroke="#9FBEED" stroke-width="0.3529" stroke-miterlimit="10"/>
<path d="M157.334 483.371L633.197 10.8864C672.289 -27.7232 735.03 -27.7232 773.639 11.369L1398.63 641.187C1437.24 680.28 1437.24 743.02 1398.15 781.63L922.286 1254.11C883.194 1292.72 820.453 1292.72 781.844 1253.63L156.851 623.813C118.242 584.721 118.242 521.98 157.334 483.371Z" stroke="#9FBEED" stroke-width="0.3529" stroke-miterlimit="10"/>
<path d="M166.987 521.015L670.359 21.5037C709.451 -17.5884 773.157 -17.1058 812.249 21.9864L1388.5 602.577C1427.59 641.67 1427.11 705.375 1388.01 744.468L884.642 1243.98C845.55 1283.07 781.844 1282.59 742.752 1243.5L166.504 662.905C127.412 623.813 127.894 560.107 166.987 521.015Z" stroke="#9FBEED" stroke-width="0.3529" stroke-miterlimit="10"/>
<path d="M703.659 1233.36L176.156 701.997C136.581 662.422 137.064 598.234 176.639 558.659L708.003 31.1557C747.578 -8.41906 811.766 -7.93645 851.341 31.6384L1378.84 563.002C1418.42 602.577 1417.94 666.766 1378.36 706.34L846.997 1233.84C807.423 1273.42 743.234 1272.94 703.659 1233.36Z" stroke="#9FBEED" stroke-width="0.3529" stroke-miterlimit="10"/>
<path d="M666.015 1243.01L166.504 739.641C127.412 700.549 127.894 636.843 166.987 597.751L747.095 21.5037C786.187 -17.5884 849.893 -17.1058 888.985 21.9864L1388.98 525.358C1428.07 564.451 1427.59 628.156 1388.5 667.249L807.905 1243.5C768.813 1282.59 705.107 1282.59 666.015 1243.01Z" stroke="#9FBEED" stroke-width="0.3529" stroke-miterlimit="10"/>
<path d="M628.371 1252.67L155.887 776.803C117.277 737.711 117.277 674.97 156.369 636.361L786.188 11.8512C825.28 -26.7583 888.02 -26.7583 926.63 12.3338L1399.11 488.197C1437.72 527.289 1437.72 590.029 1398.63 628.639L768.813 1253.15C729.721 1291.76 666.981 1291.76 628.371 1252.67Z" stroke="#9FBEED" stroke-width="0.3529" stroke-miterlimit="10"/>
<path d="M590.726 1262.8L146.234 814.93C108.107 776.321 108.107 714.063 146.716 675.936L825.279 2.19922C863.889 -35.9277 926.147 -35.9277 964.274 2.68185L1408.77 450.553C1446.89 489.162 1446.89 551.42 1408.28 589.547L729.721 1263.28C691.111 1301.41 628.853 1300.93 590.726 1262.8Z" stroke="#9FBEED" stroke-width="0.3529" stroke-miterlimit="10"/>
<path d="M553.082 1272.45L136.099 852.574C98.4549 814.447 98.4549 753.155 136.582 715.028L864.372 -7.93617C902.499 -45.5805 963.792 -45.5805 1001.92 -7.45355L1418.9 412.425C1456.55 450.552 1456.55 511.845 1418.42 549.972L690.629 1272.94C652.502 1310.58 591.209 1310.58 553.082 1272.45Z" stroke="#9FBEED" stroke-width="0.3529" stroke-miterlimit="10"/>
<path d="M515.438 1282.11L125.964 889.736C88.3197 852.091 88.8023 791.281 126.447 753.637L903.464 -17.5889C941.108 -55.2333 1001.92 -54.7506 1039.56 -17.1063L1429.04 375.263C1466.68 412.908 1466.2 473.718 1428.55 511.362L651.537 1282.59C613.892 1320.23 553.082 1319.75 515.438 1282.11Z" stroke="#9FBEED" stroke-width="0.3529" stroke-miterlimit="10"/>
<path d="M477.793 1291.76L115.829 927.38C78.6669 890.219 79.1496 829.891 116.311 792.73L942.556 -27.2409C979.718 -64.4026 1040.05 -63.92 1077.21 -26.7583L1439.17 337.619C1476.33 374.781 1475.85 435.109 1438.69 472.27L612.444 1292.24C575.282 1329.4 514.955 1328.92 477.793 1291.76Z" stroke="#9FBEED" stroke-width="0.3529" stroke-miterlimit="10"/>
<path d="M440.149 1301.41L106.177 965.025C69.4976 928.346 69.9802 868.501 106.659 831.822L981.648 -36.8929C1018.33 -73.572 1078.17 -73.0894 1114.85 -36.4103L1449.31 300.458C1485.99 337.137 1485.5 396.982 1448.82 433.661L573.835 1302.38C536.673 1338.57 476.828 1338.57 440.149 1301.41Z" stroke="#9FBEED" stroke-width="0.3529" stroke-miterlimit="10"/>
<path d="M402.505 1311.55L96.0417 1002.67C59.8452 965.99 59.8452 907.11 96.5243 870.914L1020.74 -46.5455C1057.42 -82.742 1116.3 -82.742 1152.5 -46.0629L1458.96 262.814C1495.16 299.493 1495.16 358.372 1458.48 394.569L534.26 1312.03C497.581 1348.22 438.701 1347.74 402.505 1311.55Z" stroke="#9FBEED" stroke-width="0.3529" stroke-miterlimit="10"/>
<path d="M364.86 1321.2L85.9063 1040.31C50.1924 1004.12 50.1924 945.72 86.3889 910.006L1059.83 -56.6809C1096.03 -92.3947 1154.43 -92.3947 1190.14 -56.1983L1469.09 224.686C1504.81 260.883 1504.81 319.28 1468.61 354.994L495.168 1321.68C458.971 1357.39 401.057 1357.39 364.86 1321.2Z" stroke="#9FBEED" stroke-width="0.3529" stroke-miterlimit="10"/>
<path d="M327.216 1330.85L75.7709 1077.47C40.5396 1041.76 40.5396 984.329 76.2535 948.615L1098.92 -66.3339C1134.64 -101.565 1192.07 -101.565 1227.78 -65.8512L1479.23 187.524C1514.46 223.238 1514.46 280.67 1478.75 316.383L456.075 1331.33C420.361 1367.05 362.93 1366.56 327.216 1330.85Z" stroke="#9FBEED" stroke-width="0.3529" stroke-miterlimit="10"/>
<path d="M289.572 1340.5L65.6367 1115.12C30.4055 1079.89 30.8881 1022.94 66.1193 987.708L1138.02 -75.9856C1173.25 -111.217 1230.2 -110.734 1265.43 -75.503L1489.36 149.88C1524.6 185.111 1524.11 242.061 1488.88 277.292L416.984 1340.98C381.752 1376.22 324.803 1375.73 289.572 1340.5Z" stroke="#9FBEED" stroke-width="0.3529" stroke-miterlimit="10"/>
<path d="M251.927 1350.64L55.9838 1153.25C21.2352 1118.5 21.7178 1062.03 56.4664 1027.28L1177.11 -85.6376C1211.86 -120.386 1268.32 -119.904 1303.07 -85.155L1499.02 112.236C1533.76 146.985 1533.28 203.451 1498.53 238.2L377.891 1351.12C343.142 1385.39 286.676 1385.39 251.927 1350.64Z" stroke="#9FBEED" stroke-width="0.3529" stroke-miterlimit="10"/>
<path d="M214.283 1360.29L45.8489 1190.41C11.583 1156.14 11.583 1100.16 46.3316 1065.89L1216.2 -95.2902C1250.47 -129.556 1306.45 -129.556 1340.72 -94.8076L1509.15 75.0745C1543.42 109.34 1543.42 165.324 1508.67 199.59L338.799 1360.77C304.533 1395.04 248.549 1394.56 214.283 1360.29Z" stroke="#9FBEED" stroke-width="0.3529" stroke-miterlimit="10"/>
<path d="M176.639 1369.94L35.7143 1228.05C1.93092 1193.79 1.93092 1138.77 36.1969 1104.98L1255.29 -105.426C1289.56 -139.209 1344.58 -139.209 1378.36 -104.943L1519.29 36.9471C1553.07 71.2131 1553.07 126.232 1518.8 160.015L299.707 1370.42C265.924 1404.21 210.423 1404.21 176.639 1369.94Z" stroke="#9FBEED" stroke-width="0.3529" stroke-miterlimit="10"/>
<path d="M138.994 1379.59L25.5789 1265.7C-7.72186 1231.91 -7.72186 1177.38 26.0615 1144.08L1294.39 -115.078C1328.17 -148.378 1382.7 -148.378 1416.01 -114.595L1529.42 -0.214188C1562.72 33.5692 1562.72 88.1052 1528.94 121.406L260.615 1380.08C226.831 1413.38 172.778 1413.38 138.994 1379.59Z" stroke="#9FBEED" stroke-width="0.3529" stroke-miterlimit="10"/>
</g>
<defs>
<clipPath id="clip0_2385_23493">
<rect width="848" height="1115" fill="white"/>
</clipPath>
</defs>
</svg>
