<svg width="44" height="45" viewBox="0 0 44 45" fill="none" xmlns="http://www.w3.org/2000/svg">
<circle cx="22" cy="22" r="22" fill="#E2F5F6"/>
<path d="M11.2634 1.62395C12.2771 0.605915 13.6537 0.0322732 15.0903 0.0292165L28.8161 1.22789e-05C30.2528 -0.0030445 31.6318 0.564736 32.6498 1.57845L42.376 11.2634C43.3941 12.2771 43.9677 13.6537 43.9708 15.0903L44 28.8161C44.003 30.2528 43.4353 31.6318 42.4216 32.6498L32.7366 42.376C31.7229 43.3941 30.3463 43.9677 28.9097 43.9708L15.1839 44C13.7472 44.003 12.3682 43.4353 11.3502 42.4216L1.62395 32.7366C0.605915 31.7229 0.0322732 30.3463 0.0292165 28.9097L1.22789e-05 15.1839C-0.0030445 13.7472 0.564736 12.3682 1.57845 11.3502L11.2634 1.62395Z" fill="#D9E5F8"/>
<path d="M21.1512 10.9582L18.6265 16.8353H16.1017C15.6826 16.8353 15.2741 16.8668 14.876 16.9506L15.9236 14.4363L15.9655 14.342L16.0284 14.1744C16.0598 14.101 16.0807 14.0382 16.1122 13.9858C17.3274 11.1677 18.6893 10.2877 21.1512 10.9582Z" fill="#3F7CDB"/>
<path d="M28.2643 17.1182L28.2433 17.1077C27.6147 16.9296 26.9757 16.8353 26.3262 16.8353H19.7681L22.1252 11.3563L22.1566 11.283C22.3033 11.3353 22.4604 11.4087 22.6176 11.4611L24.9328 12.4353C26.2214 12.9696 27.1224 13.5249 27.6776 14.1953C27.7719 14.3211 27.8557 14.4363 27.9395 14.5725C28.0338 14.7191 28.1071 14.8658 28.149 15.023C28.1909 15.1172 28.2224 15.2011 28.2433 15.2953C28.4004 15.8296 28.4109 16.4372 28.2643 17.1182Z" fill="#3F7CDB"/>
<path d="M27.8035 18.6163C27.3321 18.4801 26.8397 18.4067 26.3264 18.4067H16.1016C15.3893 18.4067 14.7188 18.5429 14.0902 18.8153C12.2674 19.601 10.9893 21.4134 10.9893 23.5191V25.562C10.9893 25.8134 11.0102 26.0544 11.0416 26.3058C11.2721 29.6372 13.0531 31.4182 16.3845 31.6382C16.6254 31.6696 16.8664 31.6905 17.1283 31.6905H25.2997C29.1759 31.6905 31.2188 29.8467 31.4178 26.1801C31.4283 25.981 31.4388 25.7715 31.4388 25.562V23.5191C31.4388 21.2039 29.8988 19.2553 27.8035 18.6163ZM23.8331 26.1905H18.595C18.1654 26.1905 17.8093 25.8344 17.8093 25.4048C17.8093 24.9753 18.1654 24.6191 18.595 24.6191H23.8331C24.2626 24.6191 24.6188 24.9753 24.6188 25.4048C24.6188 25.8344 24.2626 26.1905 23.8331 26.1905Z" fill="#3F7CDB"/>
<path fill-rule="evenodd" clip-rule="evenodd" d="M0.00506998 15.321C0.00153109 15.4028 -0.000162611 15.4848 1.22789e-05 15.567L0.0292165 29.2928C0.0322732 30.7294 0.605915 32.106 1.62395 33.1197L11.3502 42.8047C12.3682 43.8184 13.7472 44.3862 15.1839 44.3831L28.9097 44.3539C30.3463 44.3508 31.7229 43.7772 32.7366 42.7592L42.4216 33.0329C43.4353 32.0149 44.003 30.6359 44 29.1992L43.9949 26.8221C43.9366 28.1694 43.3773 29.4501 42.4216 30.4099L32.7366 40.1361C31.7229 41.1541 30.3463 41.7278 28.9097 41.7308L15.1839 41.76C13.7472 41.7631 12.3682 41.1953 11.3502 40.1816L1.62395 30.4967C0.605915 29.483 0.0322732 28.1064 0.0292165 26.6697L0.00506998 15.321Z" fill="#0B1C56"/>
</svg>
