<svg width="720" height="720" viewBox="0 0 720 720" fill="none" xmlns="http://www.w3.org/2000/svg">
<path d="M286.892 473.051C258.511 456.32 232.391 437.38 209.346 416.712C185.445 395.402 165.679 373.125 150.742 350.562C135.949 328.22 126.543 306.738 122.753 286.659L122.585 286.015C118.864 264.887 121.419 246.369 130.333 230.783C139.247 215.197 153.925 203.553 174.026 196.196C193.32 189.045 216.926 186.206 243.893 187.665C270.86 189.123 300.136 194.803 330.567 204.57C362.195 214.633 393.865 228.808 424.621 246.394C455.479 264.04 483.634 284.179 508.433 306.29C532.333 327.6 552.04 349.978 567.036 372.44C581.829 394.782 591.336 416.324 594.965 436.444L595.134 437.089C598.914 458.115 596.359 476.633 587.445 492.219C578.531 507.805 563.854 519.449 543.753 526.806C524.357 533.897 500.852 536.796 473.826 535.438C446.859 533.98 417.684 528.36 387.151 518.533C355.524 508.47 323.955 494.355 292.996 476.649C291.063 475.51 289.028 474.31 286.892 473.051ZM222.462 427.713C243.96 445.426 267.708 461.878 293.276 476.406C320.675 492.013 348.631 504.816 376.576 514.615C348.835 504.936 320.777 492.073 293.276 476.406C267.606 461.818 243.756 445.306 222.462 427.713ZM424.646 246.817L424.544 246.757C363.54 211.885 299.43 191.118 243.918 188.088C188.447 185.219 148.211 200.457 130.74 231.023C121.766 246.71 119.313 265.288 123.237 286.535C126.985 306.453 136.391 327.935 151.184 350.277C180.871 395.022 229.003 438.243 287.19 472.546C289.225 473.745 291.259 474.944 293.294 476.144C354.297 511.016 418.408 531.783 473.92 534.813C529.331 537.783 569.568 522.545 587.098 491.878C604.568 461.312 597.349 418.915 566.654 372.623C536.966 327.879 488.835 284.657 430.648 250.355C428.715 249.216 426.68 248.017 424.646 246.817ZM131.519 314.574C136.292 326.242 142.847 338.143 150.963 350.42C161.237 366.011 173.793 381.45 188.49 396.516C173.997 381.57 161.338 366.071 150.963 350.42C142.949 338.203 136.454 326.201 131.519 314.574ZM521.109 532.663C507.042 535.132 491.281 536.057 474.064 535.034C454.097 534.024 432.973 530.562 411.402 525.065C433.337 530.64 454.259 533.983 474.064 535.034C491.179 535.997 506.982 535.233 521.109 532.663ZM596.717 453.006C597.03 467.357 593.933 480.515 587.403 492.058C580.753 503.803 570.663 513.247 557.818 520.386C570.926 513.265 580.753 503.803 587.445 492.219C593.976 480.676 597.072 467.518 596.717 453.006ZM154.115 206.253C144.055 212.855 136.054 221.079 130.537 230.903C127.361 236.523 124.957 242.461 123.366 248.879C124.897 242.562 127.361 236.523 130.537 230.903C136.156 221.139 144.055 212.855 154.115 206.253ZM430.767 250.153C428.732 248.954 426.698 247.754 424.663 246.555C393.907 228.969 362.177 214.895 330.609 204.731C300.077 194.904 270.902 189.284 243.935 187.826C227.286 187.002 211.908 187.743 198.062 190.07C211.806 187.683 227.185 186.942 243.935 187.826C299.507 190.755 363.558 211.622 424.621 246.394L424.723 246.454C449.723 260.783 473.082 276.733 493.986 293.824C474.573 278.157 453.452 263.526 430.767 250.153ZM531.373 328.532C545.111 342.897 557.075 357.714 566.977 372.541C576.243 386.586 583.423 400.217 588.414 413.376C583.423 400.217 576.303 386.485 566.977 372.541C557.075 357.714 545.213 342.957 531.373 328.532Z" fill="#9FBEED" fill-opacity="0.6"/>
<path d="M291.198 484.58C236.266 452.197 187.388 409.08 156.399 365.612C140.393 343.236 129.918 321.94 125.202 302.269C124.756 300.236 124.352 298.363 123.99 296.651C120.562 278.284 122.679 262.369 130.163 249.209C138.481 234.633 153.551 221.859 173.528 212.386C193.446 203.014 218.068 196.824 244.592 194.616C272.39 192.341 302.436 194.389 331.456 200.736C363.293 207.653 393.865 219.273 422.222 235.581C424.155 236.721 425.986 237.8 427.919 238.94C482.851 271.323 531.729 314.44 562.717 357.908C578.724 380.284 589.199 401.58 593.915 421.251C598.884 441.888 597.213 459.837 588.954 474.311C580.636 488.887 565.566 501.661 545.589 511.134C525.671 520.506 501.049 526.696 474.524 528.904C446.727 531.179 416.681 529.131 387.66 522.784C355.824 515.867 325.15 504.187 296.895 487.939C294.962 486.799 293.029 485.66 291.198 484.58ZM124.151 296.61C124.513 298.322 124.917 300.194 125.363 302.228C130.079 321.899 140.614 343.093 156.561 365.571C187.549 409.039 236.385 451.995 291.317 484.378C293.25 485.518 295.081 486.597 297.014 487.736C314.834 497.969 333.463 506.363 352.8 512.858C333.624 506.322 314.893 497.868 297.014 487.736C295.183 486.657 293.25 485.518 291.419 484.438C236.487 452.055 187.609 408.938 156.663 365.631C140.656 343.255 130.181 321.959 125.507 302.449C120.538 281.812 122.192 264.125 130.45 249.651C132.971 245.143 136.161 240.894 139.919 236.844C136.161 240.894 132.971 245.143 130.45 249.651C122.78 262.429 120.663 278.344 124.151 296.61ZM427.74 239.243C425.807 238.103 423.976 237.024 422.043 235.885C367.406 204.629 304.413 190.106 244.617 195.039C190.033 199.504 147.342 219.834 130.468 249.389C122.269 263.762 120.615 281.449 125.584 302.086C130.36 321.656 140.733 342.891 156.74 365.268C188.795 410.182 239.911 454.618 297.091 487.373C351.728 518.629 414.721 533.152 474.517 528.219C529.102 523.754 571.792 503.424 588.667 473.869C596.091 460.81 598.148 444.996 594.762 426.79C594.358 424.917 593.954 423.045 593.55 421.172C588.775 401.602 578.299 380.307 562.395 357.99C531.448 314.683 482.672 271.626 427.74 239.243ZM501.171 524.861C492.656 526.516 483.751 527.669 474.5 528.481C467.268 529.121 460.012 529.339 452.713 529.395C460.114 529.399 467.328 529.02 474.5 528.481C483.692 527.77 492.596 526.617 501.171 524.861ZM595.025 426.809C598.411 445.015 596.396 460.99 588.87 473.989C586.23 478.699 582.981 483.049 579.001 487.242C582.981 483.049 586.23 478.699 588.87 473.989C597.129 459.515 598.782 441.828 593.813 421.191C589.097 401.52 578.562 380.325 562.616 357.848C530.561 312.934 479.402 268.336 422.162 235.682C404.038 225.27 384.942 216.737 365.139 210.103C384.84 216.677 403.936 225.21 422.162 235.682C479.343 268.437 530.561 312.934 562.616 357.848C578.622 380.224 589.097 401.52 593.712 421.131C594.217 423.063 594.621 424.936 595.025 426.809ZM266.624 193.983C259.224 193.979 251.806 194.238 244.575 194.878C234.05 195.757 223.753 197.179 213.99 199.324C223.694 197.28 233.889 195.798 244.515 194.979C251.908 194.298 259.326 194.039 266.624 193.983Z" fill="#9FBEED" fill-opacity="0.6"/>
<path d="M295.911 496.351C270.175 481.179 245.605 463.562 222.796 444.122C199.19 423.94 178.133 401.992 161.794 380.645C144.82 358.515 133.317 337.568 127.496 318.608C126.366 314.945 125.499 311.3 124.751 307.454C121.817 291.967 123.556 278.553 129.831 267.677C137.672 253.91 152.634 240.39 173.031 228.577C193.65 216.622 218.744 207.305 245.292 201.569C274.14 195.418 304.27 193.837 332.346 196.903C364.248 200.453 393.704 209.781 419.781 224.609C447.324 240.437 473.479 258.853 497.474 279.536C521.08 299.718 542.137 321.667 558.476 343.013C575.45 365.143 587.055 386.151 592.774 405.051C598.931 425.299 598.161 442.417 590.499 455.881C582.657 469.647 567.696 483.167 547.298 494.98C526.68 506.936 501.747 516.212 475.038 521.989C446.189 528.139 416.162 529.78 387.984 526.655C356.022 523.205 326.626 513.776 300.447 498.889C298.963 498.15 297.437 497.251 295.911 496.351ZM280.035 486.311C286.833 490.591 293.691 494.77 300.608 498.848C311.247 504.983 322.584 510.168 334.355 514.383C323.152 510.367 311.816 505.182 300.608 498.848C293.793 494.83 286.935 490.651 280.035 486.311ZM425.078 228.413C423.247 227.333 421.416 226.254 419.585 225.174C352.825 187.045 281.873 194.392 245.418 202.052C218.769 207.728 193.836 217.004 173.277 228.858C152.939 240.57 138.139 254.049 130.196 267.756C122.593 281.118 121.781 298.075 127.998 318.222C133.717 337.122 145.279 357.969 162.253 380.099C194.83 422.732 243.066 464.381 295.252 495.145C297.083 496.224 298.914 497.304 300.745 498.383C367.505 536.513 438.456 529.165 474.911 521.506C501.561 515.83 526.494 506.554 547.011 494.538C567.349 482.826 582.149 469.348 590.092 455.641C596.307 444.866 597.927 431.654 595.095 416.227C594.389 412.542 593.42 408.837 592.391 405.234C586.673 386.334 575.11 365.488 558.136 343.358C525.499 300.825 477.263 259.176 425.078 228.413ZM125.073 307.372C125.779 311.057 126.689 314.862 127.879 318.424C133.538 337.426 145.1 358.272 162.015 380.503C168.822 389.419 176.519 398.452 184.904 407.482C176.723 398.572 169.025 389.539 162.015 380.503C144.999 358.212 133.538 337.426 127.717 318.466C121.56 298.217 122.27 281.2 130.034 267.797C137.876 254.03 152.837 240.51 173.175 228.798C193.794 216.843 218.727 207.567 245.376 201.891C262.585 198.278 287.457 194.687 316.02 195.996C292.777 194.963 268.698 196.977 245.376 201.891C218.727 207.567 193.794 216.843 173.175 228.798C152.837 240.51 137.876 254.03 130.034 267.797C123.76 278.673 122.08 291.986 125.073 307.372ZM529.683 310.238C540.169 321.052 549.789 332.171 558.297 343.317C575.314 365.608 586.876 386.454 592.595 405.354C593.725 409.017 594.593 412.662 595.299 416.347C598.13 431.774 596.451 445.087 590.337 455.922C582.496 469.688 567.535 483.208 547.197 494.92C526.578 506.876 501.645 516.152 474.995 521.828C461.055 524.78 442.04 527.737 420.187 528.067C438.442 527.795 457.022 525.808 475.097 521.888C501.747 516.212 526.68 506.936 547.298 494.98C567.636 483.268 582.598 469.748 590.439 455.982C598.042 442.62 598.812 425.501 592.756 405.313C586.936 386.353 575.433 365.405 558.458 343.276C549.933 332.392 540.211 321.213 529.683 310.238ZM425.197 228.21C448.899 242.183 471.816 258.417 492.847 275.992C470.122 256.874 445.517 239.781 419.704 224.972C407.581 218.098 394.701 212.276 381.148 207.828C393.971 212.118 406.869 217.678 419.644 225.073C421.535 226.052 423.366 227.131 425.197 228.21Z" fill="#9FBEED" fill-opacity="0.6"/>
<path d="M299.201 507.281C250.169 478.376 201.228 436.992 167.452 395.695C149.468 373.651 136.819 353.253 129.953 334.903C128.019 329.813 126.527 324.438 125.501 319.202C123.081 306.333 124.459 295.159 129.542 286.304C136.847 273.447 152.201 258.797 172.577 244.927C194.159 230.407 219.523 217.844 246.076 208.842C275.772 198.696 305.883 193.426 333.32 193.39C365.084 193.454 393.484 200.389 417.467 214.118C468.136 243.035 519.357 285.898 554.302 328.702C572.286 350.746 584.936 371.143 591.801 389.494C599.148 409.353 599.321 425.801 592.152 438.194C584.847 451.051 569.494 465.701 549.118 479.571C527.637 494.151 502.172 506.654 475.618 515.656C445.922 525.802 415.811 531.072 388.375 531.108C356.61 531.044 328.312 524.169 304.228 510.38C302.558 509.259 300.829 508.24 299.201 507.281ZM125.722 319.06C126.79 324.457 128.24 329.671 130.174 334.761C136.938 353.051 149.528 373.55 167.572 395.493C201.347 436.79 250.288 478.173 299.219 507.018C300.948 508.038 302.576 508.997 304.305 510.017C315.919 516.591 328.529 521.709 342.092 525.21C329.259 521.867 316.631 517.011 304.305 510.017C302.576 508.997 300.948 508.038 299.219 507.018C250.187 478.114 201.347 436.79 167.572 395.493C149.773 373.831 136.853 352.729 130.174 334.761C122.827 314.902 122.696 298.615 129.703 286.263C137.009 273.406 152.362 258.756 172.679 244.987C194.159 230.407 219.625 217.903 246.017 208.943C264.41 202.623 291.105 195.475 320.606 193.796C296.783 195.144 271.178 200.21 245.915 208.883C219.463 217.945 194.057 230.347 172.577 244.927C152.26 258.696 137.009 273.406 129.602 286.203C124.722 295.178 123.302 306.191 125.722 319.06ZM422.111 217.401C420.382 216.381 418.754 215.422 417.025 214.402C356.428 179.77 283.975 196.176 246.161 209.164C219.709 218.226 194.303 230.628 172.822 245.208C152.506 258.977 137.314 273.586 129.907 286.383C122.9 298.734 123.091 314.921 130.395 334.619C137.074 352.587 149.994 373.689 167.691 395.291C201.467 436.588 250.306 477.911 299.338 506.816C301.067 507.836 302.695 508.795 304.424 509.815C365.182 544.406 437.636 528 475.39 515.113C501.842 506.051 527.248 493.649 548.728 479.069C569.045 465.3 584.237 450.691 591.644 437.894C596.726 429.039 597.986 418.067 595.608 405.359C594.642 400.022 593.09 394.748 591.156 389.658C584.476 371.69 571.557 350.588 553.86 328.986C519.982 287.629 471.143 246.306 422.111 217.401ZM595.828 405.217C598.249 418.086 596.888 428.998 591.805 437.853C584.5 450.71 569.146 465.36 548.83 479.128C527.349 493.709 501.884 506.212 475.492 515.173C453.532 522.66 419.697 531.456 383.335 530.588C384.973 530.6 386.712 530.672 388.41 530.583C415.787 530.649 445.856 525.218 475.492 515.173C501.944 506.111 527.349 493.709 548.89 479.027C569.206 465.259 584.458 450.549 591.865 437.752C598.872 425.4 598.741 409.113 591.394 389.254C584.63 370.964 572.04 350.465 553.997 328.522C520.221 287.225 471.28 245.841 422.248 216.936C420.518 215.917 418.891 214.958 417.161 213.938C407.743 208.522 397.669 204.218 386.898 200.865C397.101 204.019 407.336 208.282 417.161 213.938C418.891 214.958 420.518 215.917 422.248 216.936C471.28 245.841 520.119 287.165 553.895 328.462C571.693 350.124 584.613 371.226 591.292 389.194C593.311 394.606 594.761 399.82 595.828 405.217Z" fill="#9FBEED" fill-opacity="0.6"/>
<path d="M303.305 518.688C257.528 491.702 207.925 450.746 173.009 410.684C154.141 389.209 140.236 368.616 132.47 351.097C129.613 344.781 127.461 338.2 126.116 331.414C124.124 320.84 125.202 311.804 129.331 304.567C136.1 292.62 151.744 276.779 172.14 261.014C194.16 243.891 220.701 227.935 246.777 215.792C277.601 201.407 307.048 192.612 334.049 189.596C365.574 186.113 392.756 190.695 414.907 203.345C416.433 204.244 417.959 205.144 419.587 206.103C465.363 233.089 514.967 274.046 549.882 314.108C568.75 335.583 582.656 356.176 590.422 373.695C598.957 393.166 600.032 408.783 593.561 420.224C586.792 432.172 571.148 448.013 550.751 463.777C528.731 480.9 502.19 496.856 476.115 509C445.291 523.385 415.844 532.179 388.843 535.196C357.318 538.679 330.136 534.097 308.086 521.507C306.459 520.547 304.831 519.588 303.305 518.688ZM127.65 336.949C128.914 341.781 130.662 346.489 132.733 351.115C140.398 368.575 154.464 389.126 173.171 410.643C208.146 450.604 257.749 491.56 303.526 518.546C305.052 519.446 306.68 520.405 308.205 521.305C330.255 533.895 357.437 538.477 388.86 534.934C415.861 531.917 445.207 523.063 476.132 508.738C502.208 496.594 528.707 480.477 550.667 463.455C571.064 447.691 586.547 431.891 593.417 420.003C599.99 408.622 598.856 393.106 590.32 373.635C582.656 356.176 568.589 335.624 549.882 314.108C514.907 274.147 465.304 233.19 419.527 206.204C418.001 205.305 416.374 204.345 414.848 203.446C392.798 190.856 365.616 186.274 334.193 189.817C307.192 192.834 277.846 201.688 246.921 216.013C220.845 228.156 194.346 244.274 172.386 261.295C151.989 277.06 136.447 292.961 129.636 304.747C125.507 311.984 124.489 320.919 126.481 331.492C126.607 331.975 126.733 332.459 126.8 333.043C124.479 321.867 125.37 312.448 129.738 304.807C136.447 292.961 152.091 277.12 172.488 261.355C194.448 244.334 220.947 228.216 247.023 216.073C286.077 197.958 359.744 172.051 414.89 203.607C416.416 204.506 417.942 205.406 419.569 206.365C465.346 233.351 514.95 274.308 549.865 314.37C568.673 335.946 582.74 356.498 590.303 373.897C593.16 380.213 595.312 386.794 596.615 393.419C598.606 403.992 597.487 412.867 593.358 420.105C586.648 431.951 571.004 447.792 550.608 463.556C528.486 480.619 501.987 496.736 476.073 508.839C437.019 526.954 363.351 552.86 308.205 521.305C306.68 520.405 305.052 519.446 303.424 518.486C257.648 491.5 208.146 450.604 173.332 410.602C154.524 389.025 140.457 368.473 132.894 351.074C130.476 346.107 128.788 341.298 127.65 336.949ZM419.306 206.347C417.78 205.447 416.153 204.487 414.627 203.588C359.583 172.092 285.975 197.898 247.023 216.073C220.887 228.317 194.448 244.334 172.428 261.456C152.032 277.221 136.549 293.021 129.78 304.968C123.369 316.309 124.401 331.765 132.894 351.074C140.517 368.372 154.524 389.025 173.392 410.501C208.265 450.402 257.707 491.399 303.484 518.385C305.111 519.345 306.637 520.244 308.265 521.204C363.309 552.699 436.917 526.894 475.869 508.719C501.784 496.616 528.325 480.66 550.344 463.537C570.741 447.773 586.224 431.973 592.993 420.026C597.062 412.89 598.08 403.955 596.19 393.441C594.785 386.756 592.634 380.175 589.879 373.919C582.256 356.621 568.249 335.968 549.381 314.493C514.525 274.33 465.083 233.332 419.306 206.347Z" fill="#9FBEED" fill-opacity="0.6"/>
<path d="M307.306 530.038C286.961 518.045 264.942 502.612 243.062 485.083C219.327 466.05 196.91 445.48 178.565 425.675C158.729 404.446 143.635 384.242 134.925 367.393C130.672 359.028 127.801 351.342 126.558 344.616C124.91 336.016 125.865 328.815 129.16 322.993C135.614 311.814 151.107 295.066 171.804 277.163C195.307 256.828 220.893 238.538 247.638 222.702C279.106 204.202 308.534 191.719 335.099 185.721C366.385 178.691 392.408 180.82 412.568 192.431C433.905 204.601 457.654 221.053 481.186 239.966C504.921 258.998 527.236 279.509 545.683 299.373C565.519 320.602 580.613 340.806 589.323 357.655C599.106 376.636 601.124 391.583 595.088 402.055C588.634 413.235 573.141 429.982 552.444 447.885C528.941 468.22 503.355 486.51 476.61 502.346C445.083 520.947 415.714 533.329 389.149 539.327C357.965 546.417 331.84 544.229 311.68 532.617C310.256 531.777 308.73 530.878 307.306 530.038ZM238.759 228.229C215.217 242.82 192.765 259.28 171.847 277.324C151.149 295.227 135.716 311.874 129.262 323.053C126.027 328.774 125.173 336.035 126.719 344.574C127.962 351.301 130.732 358.927 135.045 367.191C143.755 384.04 158.848 404.244 178.583 425.413C197.089 445.176 219.345 465.788 243.139 484.719C266.468 503.512 290.276 519.862 311.757 532.254C331.874 543.704 357.839 545.934 389.124 538.904C415.587 532.846 444.956 520.464 476.424 501.964C503.169 486.128 528.653 467.778 552.258 447.503C572.955 429.6 588.448 412.853 594.74 401.714C600.717 391.343 598.742 376.557 588.958 357.576C580.248 340.727 565.256 320.583 545.42 299.355C526.973 279.49 504.658 258.979 480.863 240.048C457.331 221.136 433.523 204.785 412.245 192.514C392.128 181.063 366.164 178.834 334.878 185.863C309.383 191.674 281.22 203.405 251.095 220.79C281.22 203.405 309.544 191.633 334.98 185.923C366.164 178.834 392.128 181.063 412.185 192.615C413.61 193.454 415.034 194.294 416.458 195.133C459.081 220.26 509.186 260.831 545.259 299.396C565.196 320.684 580.188 340.828 588.797 357.618C593.05 365.982 595.879 373.507 597.122 380.234C598.668 388.773 597.874 395.933 594.477 401.695C588.024 412.875 572.59 429.521 551.995 447.484C528.492 467.819 503.007 486.169 476.221 501.844C444.753 520.344 415.324 532.827 388.921 538.784C357.737 545.874 331.773 543.644 311.715 532.093C310.291 531.253 308.867 530.414 307.443 529.574C264.718 504.387 214.714 463.876 178.642 425.312C158.705 404.023 143.712 383.879 135.104 367.09C125.321 348.109 123.345 333.323 129.322 322.952C135.775 311.772 151.209 295.126 171.804 277.163C192.705 259.381 215.217 242.82 238.759 228.229ZM416.441 195.395C415.016 194.556 413.592 193.716 412.168 192.877C392.051 181.426 366.248 179.156 335.064 186.245C308.661 192.202 279.232 204.685 247.764 223.185C221.02 239.021 195.535 257.371 172.092 277.605C151.496 295.568 135.961 312.155 129.669 323.293C123.752 333.563 125.727 348.349 135.469 367.168C144.077 383.958 159.129 404.001 179.007 425.39C215.02 464.056 265.083 504.466 307.808 529.653C309.232 530.492 310.656 531.332 312.08 532.171C332.197 543.622 358 545.893 389.184 538.803C415.587 532.846 445.016 520.363 476.484 501.863C503.228 486.027 528.713 467.677 552.156 447.443C572.752 429.48 588.287 412.894 594.579 401.755C597.814 396.034 598.71 388.934 597.105 380.496C595.861 373.769 593.032 366.244 588.779 357.88C580.171 341.091 565.119 321.048 545.241 299.658C509.127 260.932 459.064 220.522 416.441 195.395Z" fill="#9FBEED" fill-opacity="0.6"/>
<path d="M311.308 541.388C292.59 530.354 271.367 515.663 249.716 498.677C225.904 480.008 203.129 460.044 183.96 440.707C163.055 419.665 146.874 399.909 137.221 383.73C131.561 374.264 128.055 365.795 126.727 358.746C125.483 352.019 126.19 346.17 128.77 341.561C134.687 331.291 150.53 313.252 171.087 293.496C195.027 270.558 220.984 249.081 248.057 229.897C280.229 207.18 309.741 191.068 335.547 182.171C366.491 171.535 391.399 171.371 409.626 181.843C429.174 193.095 451.983 208.584 475.244 226.792C499.057 245.461 521.831 265.425 541 284.762C561.906 305.804 578.087 325.56 587.74 341.739C598.712 360.33 601.631 374.447 596.191 383.908C590.273 394.178 574.43 412.217 553.873 431.974C529.933 454.911 503.976 476.388 476.903 495.572C444.731 518.289 415.22 534.401 389.413 543.298C358.469 553.934 333.561 554.098 315.335 543.626C314.054 543.007 312.732 542.228 311.308 541.388ZM127.049 358.664C128.419 365.874 131.883 374.182 137.543 383.648C147.196 399.827 163.377 419.582 184.283 440.624C203.452 459.961 226.167 480.027 250.039 498.595C271.69 515.581 292.811 530.212 311.529 541.246C312.851 542.025 314.275 542.865 315.598 543.645C333.824 554.117 358.732 553.953 389.574 543.257C415.441 534.258 444.893 518.248 477.064 495.531C504.137 476.347 529.993 454.81 554.035 431.932C574.591 412.176 590.537 394.196 596.352 383.867C601.733 374.507 598.814 360.39 587.884 341.96C578.23 325.781 562.049 306.025 541.144 284.984C521.975 265.646 499.26 245.581 475.388 227.013C452.025 208.745 429.378 193.215 409.769 182.064C391.543 171.592 366.635 171.756 335.793 182.452C309.927 191.45 280.475 207.461 248.303 230.178C221.17 249.463 195.374 270.898 171.333 293.776C150.716 313.634 134.831 331.512 129.015 341.842C126.453 346.189 125.806 351.937 127.049 358.664ZM311.529 541.246C271.856 517.858 221.232 477.935 184.283 440.624C163.377 419.582 147.298 399.887 137.543 383.648C126.571 365.056 123.754 351 129.135 341.64C135.052 331.37 150.836 313.432 171.452 293.574C195.392 270.636 221.289 249.261 248.422 229.976C280.594 207.259 310.046 191.248 335.912 182.25C366.754 171.554 391.603 171.491 409.889 181.862C450.063 204.864 502.866 246.208 541.204 284.882C562.109 305.924 578.188 325.619 587.943 341.859C593.603 351.325 597.109 359.794 598.437 366.843C599.681 373.57 599.033 379.318 596.411 383.766C590.494 394.035 574.71 411.974 554.094 431.831C530.154 454.769 504.256 476.145 477.124 495.43C444.952 518.147 415.5 534.157 389.634 543.156C358.792 553.852 333.943 553.915 315.657 543.544C314.174 542.805 312.851 542.025 311.529 541.246ZM413.575 184.444C412.253 183.665 410.931 182.885 409.608 182.105C391.483 171.693 366.677 171.917 335.894 182.512C310.088 191.409 280.576 207.521 248.464 230.137C221.391 249.321 195.536 270.857 171.494 293.735C150.937 313.492 135.052 331.37 129.236 341.7C123.915 350.959 126.732 365.015 137.722 383.345C147.375 399.524 163.454 419.219 184.36 440.261C221.309 477.571 271.933 517.495 311.606 540.883C312.928 541.662 314.251 542.442 315.573 543.221C333.698 553.634 358.606 553.469 389.287 542.815C415.153 533.816 444.605 517.806 476.717 495.19C503.79 476.006 529.645 454.469 553.687 431.591C574.304 411.734 590.189 393.855 595.945 383.627C598.465 379.119 599.155 373.532 597.911 366.805C596.583 359.756 593.077 351.287 587.519 341.881C577.866 325.702 561.786 306.007 540.881 284.965C503.771 247.695 453.249 207.832 413.575 184.444Z" fill="#9FBEED" fill-opacity="0.6"/>
<path d="M315.412 552.796C278.689 531.147 227.707 491.83 189.619 455.755C167.644 434.9 150.376 415.593 139.839 399.983C132.713 389.516 128.452 380.466 127.083 373.256C126.057 368.02 126.617 363.583 128.601 359.985C134.041 350.524 150.175 331.293 170.752 309.642C195.249 283.899 221.56 259.498 248.92 236.805C281.693 209.812 311.228 190.172 336.599 178.294C367.1 163.991 390.892 161.535 407.449 170.886C408.669 171.606 409.89 172.326 411.111 173.045C447.834 194.694 498.815 234.011 536.904 270.086C558.879 290.941 576.147 310.247 586.684 325.858C598.904 343.959 602.766 357.406 597.862 365.957C592.422 375.418 576.288 394.649 555.711 416.3C531.214 442.043 504.903 466.444 477.544 489.137C444.77 516.13 415.235 535.77 389.864 547.648C359.363 561.951 335.571 564.407 319.014 555.056C317.853 554.235 316.633 553.515 315.412 552.796ZM127.244 373.215C128.614 380.425 132.874 389.475 139.899 399.882C150.435 415.492 167.703 434.799 189.679 455.654C227.767 491.729 278.748 531.046 315.37 552.634C316.59 553.354 317.913 554.134 319.134 554.853C335.529 564.246 359.219 561.73 389.72 547.427C415.091 535.549 444.524 515.849 477.4 488.916C504.759 466.223 531.07 441.822 555.567 416.079C576.144 394.427 592.278 375.197 597.719 365.736C602.503 357.387 598.743 344.001 586.522 325.899C575.884 310.228 558.717 290.982 536.742 270.127C498.654 234.052 447.673 194.735 410.949 173.086C409.729 172.367 408.406 171.587 407.287 170.927C390.892 161.535 367.202 164.051 336.701 178.354C311.33 190.232 281.896 209.932 249.021 236.865C221.662 259.558 195.453 284.019 170.854 309.702C150.277 331.353 134.143 350.584 128.702 360.045C126.778 363.542 126.32 368.039 127.244 373.215ZM315.531 552.593C278.91 531.005 227.826 491.628 189.738 455.553C167.763 434.698 150.597 415.451 139.958 399.781C127.78 381.84 124.019 368.454 128.864 360.004C134.304 350.543 150.337 331.252 171.015 309.661C195.512 283.918 221.823 259.517 249.183 236.824C281.896 209.932 311.491 190.191 336.862 178.313C367.304 164.111 390.994 161.595 407.449 170.886C444.368 191.97 497.528 232.707 536.904 270.086C558.879 290.941 576.045 310.187 586.684 325.858C593.708 336.265 598.028 345.214 599.338 352.524C600.262 357.7 599.804 362.198 597.778 365.635C592.397 374.995 576.204 394.326 555.626 415.978C531.189 441.619 504.819 466.122 477.459 488.814C444.745 515.707 415.151 535.448 389.78 547.326C359.338 561.527 335.648 564.044 319.193 554.752C318.074 554.093 316.853 553.373 315.531 552.593ZM410.872 173.45C409.652 172.73 408.329 171.95 407.109 171.231C390.815 161.898 367.125 164.414 336.785 178.676C311.414 190.554 281.981 210.254 249.267 237.146C221.967 259.738 195.698 284.3 171.159 309.882C150.642 331.432 134.448 350.764 129.067 360.124C124.342 368.372 128.102 381.758 140.179 399.639C150.716 415.249 167.984 434.555 189.917 455.249C228.005 491.325 278.987 530.641 315.608 552.23C316.829 552.95 318.05 553.669 319.27 554.389C335.564 563.722 359.254 561.205 389.594 546.944C414.965 535.065 444.398 515.366 477.112 488.474C504.412 465.882 530.782 441.379 555.22 415.738C575.797 394.087 591.931 374.856 597.312 365.496C599.236 361.999 599.736 357.663 598.812 352.487L598.974 352.446L598.812 352.487C597.442 345.277 593.224 336.388 586.098 325.921C575.561 310.311 558.293 291.004 536.36 270.31C498.577 234.415 447.595 195.098 410.872 173.45Z" fill="#9FBEED" fill-opacity="0.6"/>
<path d="M319.413 564.148C285.436 544.119 234.038 505.509 195.115 470.849C183.644 460.545 167.022 445.025 153.252 429.552C137.762 412.112 129.004 398.367 127.122 388.539C126.331 384.532 126.821 381.143 128.269 378.455C137.362 362.565 190.315 299.247 249.559 243.861C282.875 212.692 312.392 189.363 337.327 174.504C367.487 156.595 390.222 151.744 404.786 160.058C438.391 179.323 492.171 219.473 532.543 255.395C562.078 281.797 610.108 328.909 599.389 347.79C590.177 363.882 537.122 427.14 477.997 482.324C444.681 513.493 415.165 536.821 390.289 551.58C360.129 569.489 337.394 574.339 322.829 566.026C321.753 565.527 320.532 564.808 319.413 564.148ZM127.444 388.457C129.327 398.285 138.085 412.029 153.473 429.41C167.243 444.883 183.763 460.343 195.235 470.647C233.996 505.348 285.556 543.916 319.43 563.886C320.651 564.606 321.77 565.265 322.889 565.925C337.453 574.238 360.087 569.328 390.086 551.46C414.961 536.702 444.478 513.373 477.793 482.204C536.817 426.96 589.872 363.702 599.084 347.61C603.809 339.362 597.59 324.799 580.816 304.422C566.193 286.675 546.344 268.026 532.381 255.436C493.417 220.616 441.959 182.107 408.186 162.198C406.965 161.478 405.846 160.819 404.727 160.159C390.163 151.845 367.529 156.756 337.53 174.624C312.655 189.382 283.138 212.711 249.823 243.88C190.621 299.427 137.625 362.584 128.532 378.473C127.084 381.162 126.594 384.551 127.444 388.457ZM319.532 563.946C285.759 544.036 234.259 505.367 195.396 470.606C172.291 450.039 154.038 431.241 142.516 416.14C129.089 398.689 124.385 385.973 128.634 378.533C137.786 362.543 190.782 299.386 249.865 244.041C283.181 212.872 312.697 189.543 337.572 174.785C367.673 156.977 390.306 152.067 404.769 160.32C405.888 160.98 407.007 161.639 408.228 162.359C442.001 182.268 493.399 220.878 532.424 255.598C555.528 276.165 573.722 295.063 585.304 310.064C593.956 321.43 598.946 330.638 600.375 337.747C601.064 341.694 600.735 345.042 599.186 347.67C590.033 363.661 537.139 426.878 477.955 482.163C444.639 513.332 415.123 536.66 390.247 551.419C360.147 569.227 337.513 574.137 323.05 565.884C321.872 565.325 320.651 564.606 319.532 563.946ZM408.109 162.561C406.888 161.841 405.769 161.182 404.65 160.522C390.187 152.269 367.715 157.138 337.615 174.946C312.739 189.704 283.223 213.033 249.907 244.202C190.884 299.446 137.99 362.663 128.837 378.653C124.648 385.992 129.31 398.547 142.635 415.938C154.217 430.938 172.411 449.837 195.515 470.404C234.48 505.225 285.938 543.733 319.711 563.643C320.83 564.302 322.051 565.022 323.17 565.682C337.632 573.935 360.105 569.066 390.205 551.258C415.08 536.499 444.597 513.171 477.913 482.002C537.097 426.717 589.991 363.5 599.144 347.509C600.633 344.982 600.962 341.634 600.214 337.788C598.886 330.739 593.794 321.471 585.244 310.165C573.662 295.164 555.468 276.266 532.364 255.699C493.28 221.08 441.882 182.471 408.109 162.561Z" fill="#9FBEED" fill-opacity="0.6"/>
<path d="M323.72 575.674C296.865 559.842 245.919 523.952 200.672 485.836C174.846 464.073 131.061 424.639 127.187 404.238C126.59 401.298 126.968 398.797 128.1 396.876C135.941 383.11 190.306 313.677 250.362 250.868C303.539 195.31 373.057 132.495 402.431 149.402C428.304 164.11 481.224 201.301 528.327 240.919C543.138 253.464 564.057 271.926 579.725 289.063C597.909 308.909 604.969 322.743 600.9 329.879C593.058 343.645 538.693 413.078 478.638 475.887C425.461 531.445 355.943 594.26 326.569 577.353C325.653 576.813 324.738 576.273 323.72 575.674ZM191.344 477.476C194.691 480.403 197.894 483.108 200.893 485.694C246.14 523.81 297.086 559.7 323.941 575.531C324.959 576.131 325.874 576.671 326.79 577.211C339.93 584.684 362.391 576.812 393.647 553.555C417.441 535.98 445.936 509.734 478.494 475.666C538.549 412.857 592.914 343.424 600.756 329.658C602.663 326.423 602.069 321.85 599.728 316.52C600.7 318.591 601.307 320.584 601.609 322.397C602.105 325.277 601.888 327.737 600.756 329.658C592.914 343.424 538.549 412.857 478.494 475.666C444.576 511.111 414.976 538.069 390.596 555.707C360.939 577.182 339.421 584.385 326.688 577.151C298.882 561.303 250.006 526.088 210.358 493.589C203.647 487.998 197.343 482.647 191.344 477.476ZM405.346 151.666C404.227 151.006 403.21 150.406 402.192 149.807C389.561 142.633 368.204 149.794 338.547 171.269C314.167 188.907 284.627 215.764 250.709 251.209C190.713 313.917 136.348 383.349 128.507 397.116C127.375 399.037 127.116 401.336 127.611 404.216C134.359 440.205 268.823 542.766 323.552 575.029C324.671 575.689 325.688 576.289 326.705 576.888C339.337 584.062 360.693 576.901 390.351 555.426C414.731 537.788 444.271 510.931 478.189 475.486C538.244 412.677 592.55 343.346 600.391 329.579C601.464 327.759 601.782 325.359 601.185 322.419C594.539 286.49 460.176 183.989 405.346 151.666ZM405.423 151.302C404.406 150.703 403.388 150.103 402.371 149.503C373.141 132.817 303.742 195.43 250.565 250.988C190.45 313.898 136.145 383.23 128.303 396.996C127.409 398.512 127.126 400.389 127.309 402.404C127.186 400.287 127.571 398.471 128.405 397.056C136.247 383.29 190.612 313.857 250.667 251.048C284.585 215.603 314.184 188.645 338.565 171.007C368.222 149.532 389.74 142.329 402.473 149.563C403.49 150.163 404.507 150.763 405.626 151.422C433.906 168.094 480.663 201.787 518.803 233.125C527.92 240.679 536.427 247.874 544.264 254.809C538.672 249.878 533.224 245.168 528.268 241.02C482.859 202.945 432.177 167.074 405.423 151.302Z" fill="#9FBEED" fill-opacity="0.6"/>
<path d="M327.722 587.024C303.003 572.452 250.963 536.325 206.229 500.827C180.578 480.394 160.6 462.895 147.107 448.811C135.147 436.312 128.435 426.77 127.216 420.467C126.83 418.332 126.994 416.658 127.828 415.243C135.193 402.285 192.372 325.521 251.062 257.82C305.117 195.424 374.829 124.142 399.93 138.531C400.744 139.01 401.66 139.55 402.575 140.09C427.295 154.662 479.233 190.729 523.967 226.227C549.617 246.66 569.596 264.159 583.089 278.243C599.055 294.875 605.543 306.191 602.367 311.811C595.003 324.769 537.823 401.533 479.134 469.234C425.079 531.63 355.367 602.912 330.367 588.583C329.451 588.044 328.638 587.564 327.722 587.024ZM402.456 140.292C401.541 139.752 400.625 139.212 399.811 138.733C388.663 132.297 367.301 142.724 336.488 169.648C313.028 190.144 284.407 219.858 251.265 257.94C192.576 325.641 135.397 402.405 128.032 415.363C127.257 416.677 127.033 418.452 127.479 420.486C128.698 426.789 135.308 436.271 147.328 448.669C160.821 462.753 180.697 480.191 206.45 500.685C252.734 537.506 306.91 574.892 330.486 588.381C341.693 594.716 362.996 584.39 393.809 557.466C417.27 536.97 445.89 507.256 479.032 469.174C537.722 401.473 594.901 324.709 602.265 311.751C605.382 306.232 598.936 295.077 583.071 278.505C569.578 264.421 549.702 246.982 523.949 226.489C479.113 190.931 427.277 154.924 402.456 140.292ZM327.739 586.762C302.918 572.13 250.98 536.063 206.45 500.685C150.174 455.932 122.378 425.651 128.134 415.423C135.498 402.465 192.677 325.701 251.367 258C305.363 195.705 374.913 124.464 399.811 138.733C400.625 139.212 401.541 139.752 402.456 140.292C427.176 154.864 479.114 190.931 523.746 226.369C572.844 265.393 600.068 293.156 602.615 306.508C602.959 308.482 602.795 310.156 602.02 311.47C594.655 324.428 537.476 401.192 478.786 468.893C424.791 531.187 355.24 602.429 330.342 588.16C329.571 587.841 328.655 587.302 327.739 586.762ZM402.337 140.494C401.421 139.954 400.506 139.415 399.692 138.935C388.586 132.66 367.283 142.987 336.632 169.869C313.171 190.365 284.551 220.079 251.571 258.12C192.881 325.821 135.702 402.585 128.337 415.543C122.539 425.61 150.395 455.79 206.569 500.483C252.752 537.244 306.928 574.63 330.504 588.119C341.609 594.393 362.912 584.067 393.564 557.185C417.024 536.689 445.644 506.975 478.625 468.934C537.315 401.233 594.434 324.57 601.799 311.612C602.574 310.298 602.678 308.725 602.334 306.752C601.133 300.186 593.726 289.962 580.36 276.362C566.993 262.761 547.811 246.004 523.567 226.672C478.994 191.133 427.158 155.126 402.337 140.494Z" fill="#9FBEED" fill-opacity="0.6"/>
<path d="M331.52 598.254C308.936 584.941 255.929 549.061 211.785 515.818C184.903 495.612 163.999 478.521 149.563 465.107C135.779 452.214 128.26 442.878 127.21 437.219C126.915 436.092 127.002 434.781 127.658 433.669C132.92 424.511 190.125 342.586 251.863 264.832C286.883 220.774 316.488 186.6 339.979 163.261C369.013 134.472 388.257 122.523 397.429 127.658C418.462 139.649 473.75 177.009 519.606 211.534C546.487 231.739 567.392 248.83 581.828 262.244C599.042 278.386 606.432 288.872 603.792 293.582C598.471 302.841 541.146 384.967 479.587 462.419C444.567 506.477 414.963 540.651 391.472 563.99C362.437 592.779 343.193 604.727 334.021 599.592C333.147 599.214 332.333 598.734 331.52 598.254ZM399.794 129.461C398.98 128.981 398.166 128.501 397.352 128.022C388.341 122.845 369.097 134.794 340.224 163.542C316.733 186.881 287.129 221.055 252.109 265.113C190.269 342.807 133.063 424.732 127.802 433.89C127.308 434.961 127.178 436.11 127.473 437.238C128.583 442.796 136 452.072 149.784 464.965C164.16 478.48 185.124 495.47 212.005 515.676C256.209 548.818 309.056 584.739 331.639 598.052C332.554 598.592 333.368 599.071 334.08 599.491C343.092 604.667 362.336 592.719 391.208 563.971C414.7 540.632 444.304 506.458 479.324 462.4C540.883 384.949 598.208 302.822 603.529 293.563C606.109 288.954 598.821 278.528 581.547 262.488C567.171 248.973 546.207 231.983 519.325 211.777C475.385 178.654 422.377 142.774 399.794 129.461ZM331.741 598.112C309.056 584.739 255.946 548.799 211.904 515.616C185.124 495.47 164.22 478.379 149.682 464.905C132.509 448.925 125.12 438.439 127.802 433.89C133.123 424.631 190.388 342.605 252.007 265.053C306.821 196.021 376.625 116.211 397.251 127.962C418.487 140.072 473.775 177.432 519.487 211.736C546.267 231.882 567.273 249.032 581.709 262.446C595.492 275.34 602.909 284.616 604.019 290.174C604.314 291.301 604.125 292.552 603.69 293.522C598.369 302.781 541.104 384.806 479.485 462.359C445.903 504.676 417.157 537.858 394.091 561.175C363.661 591.866 343.558 604.806 334.242 599.45C333.368 599.071 332.554 598.592 331.741 598.112ZM399.573 129.603C398.759 129.123 397.945 128.643 397.233 128.224C388.018 122.928 367.975 135.767 337.707 166.417C314.64 189.733 285.895 222.916 252.312 265.233C190.693 342.785 133.428 424.811 128.107 434.07C125.587 438.578 132.934 448.902 150.004 464.823C164.381 478.338 185.345 495.328 212.226 515.534C256.328 548.616 309.378 584.657 332.063 598.03C332.877 598.51 333.691 598.989 334.403 599.409C343.618 604.705 363.661 591.866 393.929 561.216C416.996 537.899 445.741 504.717 479.324 462.4C540.943 384.848 598.208 302.822 603.529 293.563C603.964 292.593 604.093 291.444 603.9 290.376C602.892 284.878 595.415 275.703 581.632 262.81C567.255 249.295 546.291 232.305 519.41 212.099C475.367 178.916 422.156 142.916 399.573 129.603Z" fill="#9FBEED" fill-opacity="0.6"/>
<path d="M335.521 609.603C317.109 598.749 264.522 564.479 217.281 530.909C177.354 502.604 129.295 466.236 127.068 454.434C126.857 453.629 127.011 452.903 127.267 452.236C132.29 443.483 191.111 355.563 252.503 271.884C288.024 223.489 317.711 185.686 340.809 159.527C369.4 127.072 387.587 112.729 394.971 116.946C411.265 126.279 466.131 162.029 515.347 196.899C542.095 215.937 563.434 232.058 578.508 244.622C598.437 261.274 607.524 271.671 605.2 275.614C600.117 284.468 541.237 372.489 479.964 455.966C444.443 504.361 414.756 542.163 391.659 568.323C363.067 600.778 344.88 615.12 337.496 610.904C337.047 610.503 336.335 610.083 335.521 609.603ZM396.988 118.408C396.174 117.928 395.564 117.568 394.852 117.148C387.672 113.052 369.544 127.293 341.012 159.647C317.915 185.806 288.227 223.609 252.707 272.004C191.374 355.582 132.553 443.502 127.632 452.315C127.274 452.922 127.222 453.708 127.391 454.352C128.652 460.817 145.183 479.28 217.562 530.666C266.82 565.698 321.746 601.346 337.938 610.619C345.118 614.716 363.246 600.475 391.778 568.12C414.816 542.062 444.503 504.259 480.083 455.764C541.297 372.388 600.237 284.266 605.26 275.513C609.091 268.781 578.072 241.641 515.33 197.162C468.029 163.692 415.502 129.322 396.988 118.408ZM335.64 609.401C317.126 598.487 264.642 564.277 217.4 530.707C181.669 505.284 122.43 461.372 127.471 452.356C132.553 443.502 191.434 355.481 252.647 272.105C308.34 196.235 378.236 107.898 394.631 117.291C395.241 117.65 395.954 118.07 396.767 118.55C415.18 129.404 467.664 163.614 515.007 197.244C543.221 217.282 565.416 234.044 580.778 247.05C596.14 260.056 604.321 268.966 605.178 273.558C605.347 274.202 605.295 274.988 604.937 275.595C599.973 284.247 541.433 371.923 479.76 455.846C424.068 531.716 354.172 620.053 337.777 610.66C337.166 610.301 336.454 609.881 335.64 609.401ZM396.809 118.711C396.097 118.291 395.385 117.871 394.673 117.452C385.662 112.275 353.753 135.011 252.953 272.285C191.798 355.56 132.859 443.682 127.835 452.435C125.63 456.175 134.505 471.35 217.681 530.464C264.922 564.034 317.407 598.243 335.921 609.158C336.735 609.637 337.447 610.057 338.057 610.417C347.068 615.593 378.977 592.858 479.778 455.584C541.451 371.661 600.093 284.045 604.954 275.333C605.312 274.726 605.305 274.041 605.136 273.397C603.464 264.374 571.436 237.32 515.109 197.304C467.706 163.775 415.222 129.565 396.809 118.711Z" fill="#9FBEED" fill-opacity="0.6"/>
<path d="M339.626 621.011C324.468 612.076 271.567 578.574 222.941 545.958C193.801 526.328 170.722 510.134 154.578 497.757C136.824 484.158 127.759 475.817 127.113 472.031C126.987 471.548 127.064 471.184 127.302 470.78C130.657 464.857 190.668 370.965 253.51 279.014C289.53 226.282 319.301 184.851 341.945 155.972C355.292 138.913 366.195 125.998 374.519 117.691C383.863 108.352 389.768 104.614 392.718 106.353C404.739 113.167 460.184 148.168 511.234 182.485C540.374 202.116 563.452 218.309 579.596 230.686C599.672 245.927 608.541 254.833 606.974 257.723C603.5 263.848 542.851 358.591 480.766 449.49C444.746 502.221 414.975 543.653 392.331 572.531C378.984 589.59 368.081 602.506 359.757 610.812C350.413 620.151 344.508 623.889 341.558 622.15C340.846 621.731 340.236 621.371 339.626 621.011ZM394.328 107.574C393.616 107.155 392.904 106.735 392.395 106.435C389.547 104.756 383.642 108.494 374.519 117.691C366.195 125.998 355.292 138.913 341.945 155.972C319.343 185.012 289.632 226.342 253.51 279.014C190.668 370.965 130.657 464.857 127.362 470.679C127.183 470.982 127.207 471.405 127.232 471.829C127.938 475.514 136.842 483.896 154.655 497.394C170.799 509.771 193.878 525.964 223.018 545.595C271.584 578.312 324.647 611.772 339.703 620.648C340.415 621.068 341.025 621.427 341.534 621.727C344.382 623.406 350.287 619.668 359.41 610.471C367.733 602.165 378.637 589.25 391.984 572.19C414.526 543.252 444.297 501.82 480.419 449.149C542.605 358.309 603.093 263.608 606.567 257.483C608.176 254.754 598.943 245.769 579.273 230.768C563.028 218.331 540.051 202.198 510.911 182.568C462.243 149.791 409.485 116.51 394.328 107.574ZM339.643 620.749C324.384 611.754 271.482 578.252 222.958 545.696C187.893 522.164 128.929 481.274 127.173 471.93C127.088 471.608 127.064 471.184 127.302 470.78C130.657 464.857 190.847 370.661 253.51 279.014C293.853 220.113 326.116 175.383 349.626 146.198C373.137 117.013 387.512 103.557 392.293 106.375C392.802 106.675 393.412 107.035 394.124 107.454C409.383 116.45 462.387 150.012 510.809 182.508C545.874 206.039 604.838 246.929 606.595 256.274C606.679 256.596 606.704 257.019 606.465 257.423C603.051 263.447 542.861 357.643 480.258 449.19C439.915 508.091 407.651 552.821 384.141 582.006C360.631 611.19 346.255 624.647 341.474 621.828C340.966 621.528 340.355 621.169 339.643 620.749ZM394.107 107.717C393.395 107.297 392.784 106.937 392.276 106.637C387.537 103.98 373.221 117.335 349.872 146.479C326.523 175.623 294.158 220.292 253.755 279.295C191.092 370.942 130.962 465.037 127.607 470.96C127.428 471.263 127.411 471.525 127.495 471.847C128.781 478.735 162.721 504.873 223.238 545.452C271.703 578.11 324.665 611.51 339.924 620.506C340.636 620.925 341.246 621.285 341.755 621.585C346.494 624.242 360.809 610.887 384.158 581.743C407.669 552.559 439.872 507.93 480.275 448.928C542.819 357.482 603.069 263.185 606.423 257.262C606.602 256.959 606.62 256.697 606.535 256.375C605.25 249.487 571.31 223.349 510.792 182.77C462.369 150.274 409.366 116.712 394.107 107.717Z" fill="#9FBEED" fill-opacity="0.6"/>
<path d="M343.524 632.302C331.826 625.406 279.914 593.713 228.394 560.89C197.921 541.427 173.756 525.683 156.83 513.934C146.973 507.17 139.413 501.624 134.355 497.416C129.542 493.489 127.068 490.941 126.731 489.652C126.689 489.491 126.707 489.229 126.826 489.027C129.09 485.186 191.365 383.501 254.005 285.846C295.479 221.074 328.081 172.048 350.756 140.328C373.729 108.102 386.554 93.3226 390.013 95.3615C397.396 99.5781 452.157 132.95 506.669 167.673C537.141 187.136 561.307 202.88 578.233 214.629C588.234 221.614 595.895 227.22 600.708 231.147C608.131 237.158 608.654 238.828 608.237 239.536C606.134 243.336 544.294 344.051 481.058 442.717C439.584 507.489 406.981 556.515 384.307 588.235C361.334 620.461 348.509 635.24 345.05 633.201C344.745 633.022 344.236 632.722 343.524 632.302ZM377.365 105.886C370.893 113.377 362.08 125.072 350.9 140.549C328.225 172.269 295.784 221.254 254.149 286.067C191.509 383.722 129.192 485.246 126.97 489.248C126.91 489.349 126.893 489.611 126.935 489.772C127.17 491.001 129.643 493.549 134.414 497.315C139.532 501.422 147.092 506.968 156.949 513.732C173.875 525.481 197.939 541.165 228.411 560.628C282.822 595.291 337.582 628.663 345.068 632.939C345.169 632.999 345.373 633.119 345.534 633.078C345.373 633.119 345.169 632.999 345.068 632.939C344.762 632.759 344.254 632.46 343.745 632.16C332.352 625.443 279.728 593.331 228.411 560.628C163.804 519.544 127.792 494.364 126.893 489.611C126.85 489.45 126.808 489.289 126.927 489.087C129.252 485.145 191.586 383.359 254.107 285.906C294.985 222.145 327.408 173.423 350.22 141.238C361.901 125.376 370.834 113.478 377.365 105.886ZM391.444 96.8864C390.732 96.4666 390.223 96.1668 389.816 95.9269C387.68 94.6676 379.181 101.644 350.669 141.638C327.756 173.763 295.434 222.545 254.556 286.307C192.094 383.659 129.599 485.486 127.377 489.488C127.317 489.589 127.257 489.69 127.299 489.851C128.157 494.443 164.169 519.623 228.674 560.646C282.474 594.95 337.642 628.562 345.331 632.958C347.467 634.218 355.966 627.241 384.478 587.247C407.391 555.122 439.653 506.441 480.591 442.578C543.947 343.71 605.667 243.197 607.771 239.397C607.83 239.296 607.788 239.135 607.788 239.135C606.931 234.543 570.859 209.464 506.413 168.34C454.953 135.415 403.244 103.843 391.444 96.8864ZM608.069 238.892C608.111 239.053 608.153 239.214 608.034 239.416C605.93 243.216 544.21 343.729 480.854 442.597C439.916 506.46 407.553 555.081 384.741 587.265C376.752 598.493 369.954 607.699 364.408 614.782C369.894 607.8 376.513 598.897 384.264 588.074C406.939 556.354 439.38 507.369 481.015 442.556C544.252 343.89 606.092 243.175 608.195 239.375C608.791 238.364 606.377 235.715 600.75 231.308C595.836 227.321 588.276 221.775 578.275 214.79C561.349 203.041 537.285 187.357 506.813 167.894C452.301 133.171 397.54 99.7992 390.156 95.5825C389.75 95.3426 389.062 95.3461 388.238 95.8138C389.003 95.4471 389.75 95.3426 390.156 95.5825C397.642 99.8591 452.403 133.231 506.813 167.894C571.098 209.06 607.211 234.3 608.069 238.892Z" fill="#9FBEED" fill-opacity="0.6"/>
<path d="M342.134 640.474C325.145 630.46 279.021 603.133 233.949 575.881C190.751 549.87 160.142 530.872 142.858 519.73C128.525 510.327 126.645 508.401 126.578 507.817C126.536 507.656 126.595 507.555 126.595 507.555C127.787 505.533 190.103 400.059 254.747 292.96C291.887 231.353 321.764 182.765 343.459 148.288C384.603 82.9119 386.74 84.1713 387.554 84.651C390.91 86.63 446.961 119.673 502.409 153.041C548.804 181.072 580.693 200.688 597.043 211.553C610.461 220.416 610.103 221.023 609.805 221.528C608.614 223.55 546.239 329.126 481.654 436.123C444.693 497.427 414.816 546.015 393.001 580.695C351.857 646.07 349.721 644.811 348.907 644.331C348.237 644.072 345.897 642.693 342.134 640.474ZM126.841 507.836C127.312 510.293 164.397 533.653 234.17 575.739C289.05 608.909 345.508 642.191 348.967 644.23C349.272 644.41 349.882 644.77 355.625 637.121C362.661 627.511 375.239 608.5 392.738 580.676C414.553 545.996 444.388 497.247 481.391 436.105C545.976 329.107 608.452 223.591 609.542 221.509C610.496 219.892 574.386 196.97 502.332 153.404C446.944 119.935 390.893 86.8921 387.476 85.0143C387.171 84.8344 386.561 84.4745 380.818 92.1229C373.782 101.733 361.204 120.744 343.705 148.569C322.069 182.945 292.234 231.694 255.052 293.14C190.408 400.239 127.991 505.653 126.901 507.735C126.739 507.776 126.739 507.776 126.841 507.836ZM341.134 639.612C323.535 629.238 279.242 602.99 234.476 575.919C203.221 557.085 178.028 541.689 159.913 530.329C137.688 516.41 126.568 508.765 126.901 507.735C128.51 505.005 191.242 398.823 255.052 293.14C291.775 232.241 321.652 183.653 343.764 148.468C356.651 128.003 366.897 112.249 374.165 101.55C382.129 89.899 386.519 84.3135 387.536 84.9132C390.893 86.8921 446.435 119.635 502.087 153.123C533.545 172.077 558.636 187.413 576.649 198.713C597.959 212.093 609.384 219.918 609.62 221.146L609.56 221.247C608.368 223.269 546.231 328.44 481.409 435.842C444.865 496.438 414.988 545.026 392.756 580.414C379.81 600.979 369.563 616.733 362.355 627.331C354.391 638.982 350.001 644.568 348.984 643.968C348.255 643.81 345.508 642.191 341.134 639.612ZM394.741 89.4331C390.57 86.9744 387.925 85.4152 387.315 85.0554C387.01 84.8755 385.218 85.5899 374.266 101.61C366.999 112.309 356.752 128.063 343.866 148.527C321.753 183.713 291.876 232.301 255.213 293.099C191.344 398.883 128.51 505.005 127.062 507.694C126.985 508.057 130.111 511.126 159.99 529.966C178.207 541.386 203.298 556.722 234.553 575.556C290.551 609.385 345.788 641.948 349.103 643.766C349.408 643.946 351.2 643.231 362.152 627.212C369.36 616.613 379.606 600.859 392.552 580.294C414.784 544.906 444.661 496.318 481.205 435.723C545.909 328.523 607.867 223.655 609.356 221.127C609.29 220.543 605.859 217.295 576.428 198.855C558.415 187.555 533.324 172.219 501.866 153.265C456.98 126.396 412.238 99.7477 394.741 89.4331Z" fill="#9FBEED" fill-opacity="0.6"/>
<path d="M126.248 526.283L126.367 526.08L384.893 73.8182L385.096 73.9382L611.334 203.357L611.215 203.559L352.689 655.822L352.485 655.702L126.248 526.283ZM384.875 74.0804L126.469 526.14L352.503 655.44L610.909 203.38L384.875 74.0804ZM126.63 526.099L126.69 525.998L384.875 74.0804L384.977 74.1403L610.969 203.278L610.909 203.38L352.724 655.297L352.622 655.237L126.63 526.099ZM385.061 74.4625L126.953 526.017L352.58 655.076L610.587 203.462L385.061 74.4625Z" fill="#9FBEED" fill-opacity="0.6"/>
<path d="M386.277 564.397C385.381 564.397 384.575 564.397 383.68 564.397V563.143C385.381 563.143 387.083 563.143 388.785 563.143V564.397C387.979 564.397 387.083 564.397 386.277 564.397ZM401.682 563.77L401.592 562.516C403.294 562.337 404.995 562.247 406.697 561.979L406.876 563.233C405.085 563.501 403.383 563.68 401.682 563.77ZM370.783 563.77C369.081 563.591 367.379 563.501 365.678 563.233L365.857 561.979C367.559 562.158 369.26 562.337 370.962 562.516L370.783 563.77ZM419.594 561.441L419.325 560.188C421.027 559.919 422.639 559.561 424.341 559.202L424.609 560.456C422.908 560.815 421.206 561.083 419.594 561.441ZM352.87 561.441C351.169 561.173 349.467 560.815 347.855 560.456L348.124 559.202C349.825 559.561 351.438 559.919 353.139 560.188L352.87 561.441ZM437.148 557.322L436.79 556.068C438.402 555.62 440.104 555.083 441.716 554.545L442.074 555.799C440.462 556.336 438.76 556.874 437.148 557.322ZM335.316 557.322C333.704 556.874 332.003 556.336 330.391 555.799L330.749 554.545C332.361 555.083 333.973 555.53 335.675 556.068L335.316 557.322ZM454.165 551.5L453.717 550.336C455.329 549.709 456.852 549.082 458.464 548.365L459.001 549.53C457.389 550.246 455.777 550.873 454.165 551.5ZM318.21 551.5C316.598 550.873 314.986 550.246 313.463 549.53L314.001 548.365C315.613 549.082 317.135 549.709 318.748 550.336L318.21 551.5ZM470.554 544.066L469.928 542.902C471.45 542.096 472.973 541.29 474.406 540.484L475.033 541.648C473.6 542.454 472.077 543.26 470.554 544.066ZM301.82 543.977C300.298 543.171 298.775 542.365 297.253 541.559L297.88 540.394C299.402 541.201 300.925 542.007 302.447 542.813L301.82 543.977ZM486.228 535.021L485.511 533.946C486.944 533.05 488.377 532.065 489.81 531.08L490.527 532.155C489.094 533.14 487.661 534.036 486.228 535.021ZM286.147 534.931C284.714 534.036 283.281 533.05 281.848 532.065L282.565 530.991C283.998 531.976 285.431 532.871 286.864 533.856L286.147 534.931ZM500.826 524.452L500.02 523.467C501.364 522.393 502.707 521.318 503.961 520.243L504.767 521.228C503.513 522.303 502.17 523.378 500.826 524.452ZM271.459 524.363C270.116 523.288 268.772 522.213 267.429 521.049L268.235 520.064C269.578 521.139 270.832 522.213 272.175 523.288L271.459 524.363ZM514.35 512.63L513.454 511.735C514.708 510.57 515.873 509.317 517.126 508.152L518.022 509.048C516.858 510.212 515.604 511.376 514.35 512.63ZM257.935 512.451C256.681 511.287 255.517 510.033 254.263 508.779L255.159 507.884C256.323 509.137 257.577 510.302 258.831 511.466L257.935 512.451ZM526.71 499.465L525.724 498.659C526.799 497.315 527.963 496.061 528.949 494.718L529.934 495.524C528.949 496.778 527.874 498.121 526.71 499.465ZM245.576 499.286C244.501 497.942 243.337 496.688 242.262 495.345L243.247 494.539C244.322 495.882 245.397 497.226 246.471 498.48L245.576 499.286ZM537.726 485.135L536.651 484.418C537.636 482.985 538.621 481.642 539.517 480.209L540.592 480.926C539.696 482.269 538.711 483.702 537.726 485.135ZM234.649 484.956C233.664 483.523 232.679 482.09 231.783 480.657L232.858 479.94C233.754 481.373 234.739 482.806 235.724 484.15L234.649 484.956ZM547.309 469.82L546.144 469.193C546.951 467.67 547.757 466.237 548.563 464.715L549.727 465.342C549.01 466.775 548.115 468.297 547.309 469.82ZM225.066 469.73C224.26 468.208 223.454 466.685 222.648 465.163L223.812 464.536C224.618 466.058 225.424 467.581 226.23 469.014L225.066 469.73ZM555.369 453.609L554.205 453.072C554.921 451.46 555.548 449.937 556.175 448.325L557.34 448.773C556.713 450.475 555.996 452.087 555.369 453.609ZM217.095 453.52C216.379 451.908 215.752 450.385 215.125 448.773L216.289 448.325C216.916 449.937 217.543 451.46 218.259 453.072L217.095 453.52ZM561.728 436.682L560.474 436.324C561.012 434.712 561.459 433.1 561.997 431.398L563.251 431.756C562.803 433.458 562.266 435.07 561.728 436.682ZM210.736 436.682C210.199 435.07 209.661 433.368 209.214 431.756L210.468 431.398C210.915 433.01 211.453 434.712 211.99 436.324L210.736 436.682ZM566.385 419.307L565.131 419.039C565.49 417.337 565.848 415.725 566.117 414.023L567.371 414.292C567.102 415.904 566.744 417.606 566.385 419.307ZM206.079 419.307C205.721 417.606 205.363 415.904 205.094 414.292L206.348 414.023C206.706 415.725 206.975 417.337 207.333 419.039L206.079 419.307ZM569.341 401.484L568.087 401.305C568.266 399.604 568.445 397.902 568.624 396.2L569.878 396.29C569.699 398.081 569.61 399.783 569.341 401.484ZM203.123 401.484C202.944 399.783 202.765 398.081 202.586 396.379L203.84 396.29C204.019 397.992 204.198 399.693 204.377 401.395L203.123 401.484ZM570.595 383.483H569.341C569.341 382.318 569.341 381.244 569.341 380.079V378.378H570.595V380.079C570.595 381.244 570.595 382.318 570.595 383.483ZM201.87 383.483C201.87 382.318 201.87 381.244 201.87 380.079C201.87 378.378 201.87 376.676 201.959 374.885H203.213C203.123 376.586 203.123 378.288 203.123 379.99C203.123 381.154 203.123 382.229 203.123 383.393L201.87 383.483ZM568.714 365.57C568.624 363.869 568.445 362.167 568.266 360.465L569.52 360.286C569.699 361.988 569.878 363.689 569.968 365.391L568.714 365.57ZM204.019 362.167L202.765 362.077C202.944 360.376 203.123 358.674 203.303 356.972L204.556 357.151C204.377 358.764 204.198 360.465 204.019 362.167ZM566.475 347.837C566.206 346.135 565.848 344.434 565.49 342.822L566.744 342.553C567.102 344.255 567.46 345.956 567.729 347.658L566.475 347.837ZM206.616 344.434L205.363 344.165C205.721 342.463 206.079 340.762 206.437 339.15L207.691 339.418C207.333 341.12 206.975 342.732 206.616 344.434ZM562.445 330.373C561.997 328.76 561.459 327.059 561.012 325.447L562.266 325.088C562.803 326.701 563.251 328.402 563.698 330.014L562.445 330.373ZM210.915 327.059L209.661 326.701C210.199 325.088 210.647 323.387 211.184 321.775L212.438 322.222C211.99 323.745 211.453 325.447 210.915 327.059ZM556.802 313.356C556.175 311.744 555.548 310.221 554.832 308.609L555.996 308.072C556.623 309.684 557.34 311.206 557.967 312.818L556.802 313.356ZM217.006 310.132L215.841 309.684C216.468 308.072 217.185 306.549 217.901 304.937L219.065 305.474C218.259 306.997 217.632 308.519 217.006 310.132ZM549.458 297.056C548.652 295.533 547.846 294.011 547.04 292.578L548.204 291.951C549.01 293.473 549.816 294.996 550.623 296.518L549.458 297.056ZM224.618 293.921L223.454 293.294C224.26 291.771 225.066 290.249 225.962 288.816L227.036 289.443C226.23 290.876 225.424 292.398 224.618 293.921ZM540.592 281.472C539.696 280.039 538.711 278.606 537.815 277.173L538.89 276.456C539.875 277.889 540.771 279.322 541.756 280.755L540.592 281.472ZM233.843 278.516L232.768 277.8C233.754 276.367 234.739 274.934 235.724 273.59L236.799 274.307C235.813 275.74 234.828 277.083 233.843 278.516ZM530.202 266.963C529.128 265.619 528.053 264.276 526.978 263.022L527.963 262.216C529.038 263.56 530.113 264.903 531.188 266.246L530.202 266.963ZM244.501 264.097L243.516 263.291C244.591 261.947 245.755 260.604 246.83 259.35L247.815 260.156C246.74 261.5 245.576 262.843 244.501 264.097ZM518.47 253.439C517.306 252.185 516.052 251.021 514.887 249.767L515.783 248.871C517.037 250.036 518.201 251.29 519.366 252.543L518.47 253.439ZM256.502 250.842L255.607 249.946C256.86 248.692 258.025 247.528 259.279 246.364L260.174 247.259C258.92 248.424 257.756 249.588 256.502 250.842ZM505.394 241.08C504.14 240.005 502.797 238.841 501.453 237.766L502.259 236.781C503.603 237.855 504.946 238.93 506.2 240.094L505.394 241.08ZM269.757 238.751L268.951 237.766C270.295 236.691 271.638 235.616 272.982 234.542L273.788 235.527C272.444 236.602 271.101 237.676 269.757 238.751ZM491.243 230.064C489.81 229.078 488.467 228.093 487.034 227.198L487.75 226.123C489.183 227.108 490.616 228.004 492.049 228.989L491.243 230.064ZM284.087 228.093L283.371 227.018C284.804 226.033 286.237 225.138 287.67 224.242L288.386 225.317C286.953 226.212 285.52 227.108 284.087 228.093ZM476.107 220.48C474.585 219.674 473.152 218.779 471.629 218.062L472.256 216.898C473.779 217.704 475.301 218.51 476.824 219.406L476.107 220.48ZM299.492 218.779L298.865 217.614C300.387 216.808 301.91 216.002 303.432 215.196L303.97 216.361C302.447 217.167 300.925 217.973 299.492 218.779ZM460.076 212.509C458.553 211.793 456.941 211.166 455.329 210.539L455.777 209.375C457.389 210.002 459.001 210.718 460.524 211.435L460.076 212.509ZM315.613 211.076L315.075 209.912C316.688 209.285 318.21 208.569 319.822 208.031L320.27 209.196C318.748 209.823 317.135 210.45 315.613 211.076ZM443.328 206.061C441.716 205.524 440.103 204.986 438.402 204.538L438.76 203.285C440.372 203.732 442.074 204.27 443.686 204.807L443.328 206.061ZM332.45 204.986L332.092 203.732C333.704 203.195 335.406 202.747 337.018 202.299L337.376 203.553C335.675 204.001 334.063 204.538 332.45 204.986ZM426.042 201.314C424.341 200.956 422.729 200.598 421.027 200.24L421.296 198.986C422.997 199.344 424.699 199.702 426.311 200.06L426.042 201.314ZM349.825 200.598L349.557 199.344C351.258 198.986 352.96 198.717 354.662 198.359L354.841 199.613C353.139 199.971 351.438 200.24 349.825 200.598ZM408.399 198.269C406.697 198.09 404.995 197.911 403.294 197.732L403.383 196.478C405.085 196.657 406.787 196.836 408.488 197.015L408.399 198.269ZM367.469 197.911L367.379 196.657C369.081 196.478 370.783 196.299 372.484 196.209L372.574 197.463C370.872 197.553 369.171 197.732 367.469 197.911ZM390.486 197.015C389.053 197.015 387.62 196.926 386.187 196.926H385.381V195.672H386.187C387.62 195.672 389.053 195.672 390.486 195.761V197.015Z" fill="white"/>
<path d="M443.598 325.628V461.493H590.926V286.938H482.288L443.598 325.628Z" fill="#73C7D1"/>
<path d="M591.554 462.21H442.971V325.359L482.02 286.311H591.554V462.21ZM444.314 460.866H590.3V287.654H482.557L444.225 325.986V460.866H444.314Z" fill="#242752"/>
<path d="M466.795 369.153V505.018H614.124V330.463H505.486L466.795 369.153Z" fill="#D9E4F6"/>
<path d="M614.75 505.645H466.167V368.885L505.216 329.836H614.75V505.645ZM467.421 504.302H613.406V331.09H505.753L467.421 369.422V504.302Z" fill="#242752"/>
<path d="M482.288 286.938L483.811 325.628H443.598L482.288 286.938Z" fill="#56B5BB"/>
<path d="M483.812 326.256H443.599C443.33 326.256 443.061 326.077 442.972 325.898C442.882 325.629 442.972 325.36 443.151 325.181L481.842 286.491C482.021 286.312 482.289 286.222 482.558 286.312C482.827 286.401 482.916 286.67 483.006 286.849L484.528 325.539C484.528 325.719 484.439 325.898 484.349 325.987C484.17 326.256 483.991 326.256 483.812 326.256ZM445.211 325.002H483.185L481.752 288.461L445.211 325.002Z" fill="#242752"/>
<path d="M505.484 330.463L507.007 369.153H466.794L505.484 330.463Z" fill="#9FBEED"/>
<path d="M507.007 369.78H466.794C466.525 369.78 466.257 369.601 466.167 369.422C466.078 369.153 466.167 368.885 466.346 368.706L505.037 330.015C505.216 329.836 505.485 329.746 505.753 329.836C506.022 329.925 506.112 330.194 506.201 330.373L507.724 369.064C507.724 369.243 507.634 369.422 507.545 369.512C507.365 369.691 507.186 369.78 507.007 369.78ZM468.406 368.437H506.38L504.947 331.896L468.406 368.437Z" fill="#242752"/>
<path d="M595.226 395.578H494.917V396.832H595.226V395.578Z" fill="#242752"/>
<path d="M595.226 422.713H494.917V423.967H595.226V422.713Z" fill="#242752"/>
<path d="M595.226 449.852H494.917V451.105H595.226V449.852Z" fill="#242752"/>
<path d="M429.536 174.626H225.604V418.054H429.536V174.626Z" fill="#D9E4F6"/>
<path d="M430.162 418.682H224.976V174H430.251V418.682H430.162ZM226.23 417.428H428.908V175.254H226.23V417.428Z" fill="#242752"/>
<path d="M303.433 265.893L360.394 289.447C351.17 311.838 329.137 327.601 303.433 327.601C291.163 327.601 279.699 324.018 270.116 317.749L303.433 265.893Z" fill="#73C7D1"/>
<path d="M365.052 265.893C365.052 274.222 363.44 282.193 360.395 289.447L303.434 265.893V204.274C337.467 204.274 365.052 231.859 365.052 265.893Z" fill="#242752"/>
<path d="M303.434 204.274V265.893L263.579 218.873C274.326 209.827 288.298 204.274 303.434 204.274Z" fill="#2D72B0"/>
<path d="M263.58 218.873L303.434 265.893L244.772 247.175C248.265 236.069 254.892 226.307 263.58 218.873Z" fill="#EB5F60"/>
<path d="M303.433 328.226C291.431 328.226 279.788 324.823 269.757 318.285C251.845 306.732 241.187 287.207 241.187 265.892C241.187 259.354 242.172 252.995 244.143 246.994C247.636 235.888 254.263 226.037 263.219 218.334C274.415 208.841 288.744 203.557 303.433 203.557C337.735 203.557 365.678 231.5 365.678 265.802C365.678 274.042 364.066 282.013 361.021 289.536C351.348 313.09 328.778 328.226 303.433 328.226ZM303.433 204.99C289.013 204.99 275.042 210.095 264.025 219.409C255.248 226.843 248.8 236.515 245.397 247.442C243.516 253.353 242.531 259.533 242.531 265.892C242.531 286.67 253.009 305.836 270.474 317.121C280.326 323.48 291.7 326.793 303.522 326.793C328.331 326.793 350.452 312.016 359.856 289.088C362.901 281.744 364.424 273.862 364.424 265.802C364.424 232.306 337.108 204.99 303.433 204.99Z" fill="#242752"/>
<path d="M270.654 318.105L269.579 317.389L303.254 265.085L360.663 288.819L360.126 290.073L303.702 266.697L270.654 318.105Z" fill="#242752"/>
<path d="M304.06 204.274H302.806V265.893H304.06V204.274Z" fill="#242752"/>
<path d="M264.112 218.511L263.155 219.321L302.991 266.33L303.948 265.519L264.112 218.511Z" fill="#242752"/>
<path d="M303.253 266.518L244.59 247.89L244.769 247.263V246.636H244.948L303.611 265.354L303.253 266.518Z" fill="#242752"/>
<path d="M365.143 344.257H244.772V345.511H365.143V344.257Z" fill="#242752"/>
<path d="M365.143 374.262H244.772V375.516H365.143V374.262Z" fill="#242752"/>
<path d="M412.43 234.455H373.292V235.709H412.43V234.455Z" fill="#242752"/>
<path d="M412.43 255.948H373.292V257.202H412.43V255.948Z" fill="#242752"/>
<path d="M412.43 277.443H373.292V278.697H412.43V277.443Z" fill="#242752"/>
<path d="M412.43 298.85H373.292V300.103H412.43V298.85Z" fill="#242752"/>
<path d="M428.463 436.504C451.809 436.504 470.736 417.578 470.736 394.231C470.736 370.884 451.809 351.958 428.463 351.958C405.116 351.958 386.19 370.884 386.19 394.231C386.19 417.578 405.116 436.504 428.463 436.504Z" fill="#242752"/>
<path d="M428.462 437.13C404.817 437.13 385.562 417.874 385.562 394.23C385.562 370.586 404.817 351.33 428.462 351.33C452.106 351.33 471.362 370.586 471.362 394.23C471.362 417.874 452.106 437.13 428.462 437.13ZM428.462 352.584C405.534 352.584 386.815 371.213 386.815 394.23C386.815 417.247 405.444 435.876 428.462 435.876C451.479 435.876 470.108 417.247 470.108 394.23C470.108 371.213 451.389 352.584 428.462 352.584Z" fill="#242752"/>
<path d="M433.209 436.504C456.555 436.504 475.482 417.578 475.482 394.231C475.482 370.884 456.555 351.958 433.209 351.958C409.862 351.958 390.935 370.884 390.935 394.231C390.935 417.578 409.862 436.504 433.209 436.504Z" fill="white"/>
<path d="M433.208 437.13C409.564 437.13 390.308 417.874 390.308 394.23C390.308 370.586 409.564 351.33 433.208 351.33C456.852 351.33 476.108 370.586 476.108 394.23C476.108 417.874 456.852 437.13 433.208 437.13ZM433.208 352.584C410.28 352.584 391.562 371.213 391.562 394.23C391.562 417.247 410.191 435.876 433.208 435.876C456.136 435.876 474.854 417.247 474.854 394.23C474.854 371.213 456.136 352.584 433.208 352.584Z" fill="#242752"/>
<path d="M447.807 414.475C447.449 414.475 447.001 414.296 446.732 413.938L421.655 380.263V413.132H419.058V376.412C419.058 375.874 419.416 375.337 419.953 375.158C420.491 374.979 421.028 375.158 421.386 375.606L446.464 409.281V373.814H449.061V413.132C449.061 413.669 448.703 414.207 448.165 414.386C448.076 414.475 447.897 414.475 447.807 414.475Z" fill="#242752"/>
<path d="M454.258 388.504H412.074V391.101H454.258V388.504Z" fill="#242752"/>
<path d="M454.257 400.417H412.074V403.014H454.257V400.417Z" fill="#242752"/>
<path d="M356.185 431.847L355.379 427.369C392.368 432.205 415.385 440.535 415.385 450.297C415.385 465.343 356.364 477.613 283.461 477.613C210.647 477.613 151.626 465.343 151.626 450.297C151.626 439.997 176.166 431.399 216.648 426.742L216.021 430.504L214.409 440.893C214.409 440.893 283.55 479.942 358.065 442.505L356.185 431.847Z" fill="#2D72B0"/>
<path d="M379.829 502.334C379.829 506.275 377.232 509.768 373.47 510.932L369.619 512.096L369.171 526.605C368.903 536.815 364.514 546.04 357.708 552.668C350.901 559.295 341.586 563.415 331.287 563.415C312.927 563.415 297.164 550.16 294.029 532.068L293.761 530.546C293.402 528.665 292.507 527.143 291.163 525.978C289.82 524.904 288.118 524.187 286.237 524.187C282.565 524.187 279.341 526.874 278.714 530.546L278.446 532.068C276.833 541.114 272.176 548.906 265.459 554.548C258.832 560.101 250.323 563.415 241.098 563.415C220.589 563.415 203.841 547.115 203.214 526.605L202.945 512.096L199.094 510.932C197.213 510.305 195.601 509.23 194.437 507.708C193.272 506.185 192.646 504.304 192.646 502.334C192.646 497.677 196.138 493.826 200.796 493.378C218.081 491.766 262.235 491.497 282.028 508.962C283.013 509.857 284.267 510.395 285.61 510.395H286.506C287.849 510.395 289.103 509.857 290.089 508.962C309.882 491.497 354.304 491.766 371.679 493.378C374.008 493.557 375.978 494.632 377.411 496.244C379.023 497.856 379.829 500.005 379.829 502.334Z" fill="white"/>
<path d="M356.186 431.846L357.977 442.415C283.551 479.941 214.41 440.892 214.41 440.892L216.111 430.503C216.022 430.503 286.059 466.417 356.186 431.846Z" fill="white"/>
<path d="M355.469 427.369L356.275 431.848C286.149 466.418 216.111 430.504 216.111 430.504L216.738 426.743L222.56 390.828C231.158 363.064 256.862 344.077 285.969 344.077C300.389 344.077 314.002 348.734 325.018 356.795C336.124 364.855 344.722 376.409 349.11 390.112L355.469 427.369Z" fill="#2D72B0"/>
<path d="M283.551 478.242C209.215 478.242 151 465.972 151 450.299C151 439.731 174.913 430.954 216.559 426.117L216.738 427.371C176.346 432.028 152.343 440.537 152.343 450.299C152.343 464.987 211.185 476.988 283.551 476.988C355.917 476.988 414.848 464.987 414.848 450.299C414.848 441.253 392.637 432.924 355.38 428.088L355.559 426.834C394.07 431.849 416.102 440.447 416.102 450.388C416.102 465.972 357.887 478.242 283.551 478.242Z" fill="#242752"/>
<path d="M289.731 459.255C246.383 459.255 214.589 441.701 214.051 441.433L213.693 441.253L221.843 390.741C230.62 362.439 256.324 343.452 285.88 343.452C300.12 343.452 313.823 347.93 325.376 356.259C336.93 364.678 345.349 376.321 349.737 389.935L358.872 442.776L358.425 442.955C334.243 455.135 310.599 459.255 289.731 459.255ZM215.036 440.537C220.768 443.582 286.954 477.168 357.26 442.149L348.304 390.293C344.005 377.038 335.765 365.663 324.481 357.424C313.196 349.184 299.762 344.796 285.79 344.796C256.862 344.796 231.605 363.424 223.007 391.009L215.036 440.537Z" fill="#242752"/>
<path d="M290.538 447.432C248.354 447.432 216.291 431.311 215.754 431.132L216.381 429.968C217.097 430.326 286.955 465.345 356.007 431.311C356.007 431.311 356.097 431.222 356.186 431.222L356.903 432.296C356.813 432.386 356.724 432.386 356.634 432.386C333.885 443.581 310.958 447.432 290.538 447.432Z" fill="#242752"/>
<path d="M331.378 564.041C312.659 564.041 296.717 550.696 293.403 532.247L293.135 530.724C292.866 529.112 291.97 527.59 290.717 526.515C289.463 525.44 287.851 524.903 286.239 524.903C282.835 524.903 279.88 527.321 279.342 530.724L279.074 532.247C277.461 541.113 272.804 549.263 265.908 555.085C258.922 560.906 250.145 564.131 241.099 564.131C220.142 564.131 203.215 547.741 202.588 526.694L202.319 512.543L198.916 511.468C196.856 510.842 195.154 509.677 193.99 507.976C192.736 506.363 192.109 504.304 192.109 502.244C192.109 497.228 195.871 493.108 200.797 492.661C203.125 492.481 258.743 487.466 282.477 508.423C283.373 509.229 284.537 509.677 285.701 509.677H286.597C287.761 509.677 288.925 509.229 289.821 508.423C298.508 500.721 312.659 495.616 331.915 493.287C346.961 491.496 362.455 491.765 371.949 492.661C374.367 492.84 376.517 494.004 378.129 495.795C379.741 497.497 380.636 499.825 380.636 502.244C380.636 506.543 377.86 510.215 373.83 511.468L370.426 512.543L370.068 526.604C369.799 536.725 365.68 546.129 358.425 553.115C350.992 560.19 341.498 564.041 331.378 564.041ZM286.239 523.649C288.209 523.649 290 524.276 291.523 525.619C293.045 526.873 294.03 528.664 294.389 530.545L294.657 532.068C297.792 549.89 313.197 562.877 331.288 562.877C341.05 562.877 350.275 559.115 357.261 552.309C364.247 545.591 368.277 536.456 368.546 526.694L368.993 511.737L373.292 510.394C376.875 509.319 379.203 506.095 379.203 502.423C379.203 500.363 378.397 498.303 377.054 496.87C375.711 495.347 373.74 494.362 371.68 494.183C351.798 492.302 309.256 493.108 290.627 509.588C289.463 510.573 288.03 511.2 286.597 511.2H285.701C284.268 511.2 282.835 510.662 281.671 509.588C273.162 502.065 259.28 497.049 240.473 494.81C225.605 493.019 210.29 493.287 200.886 494.183C196.587 494.541 193.363 498.124 193.363 502.423C193.363 504.214 193.99 506.005 194.975 507.349C196.05 508.782 197.483 509.856 199.274 510.394L203.573 511.737L204.021 526.694C204.558 546.935 220.948 562.877 241.189 562.877C249.876 562.877 258.385 559.742 265.102 554.189C271.819 548.547 276.297 540.755 277.82 532.157L278.088 530.635C278.805 526.515 282.208 523.649 286.239 523.649Z" fill="#242752"/>
<g opacity="0.49">
<path d="M593.524 518.276C614.448 518.276 631.409 501.314 631.409 480.391C631.409 459.468 614.448 442.507 593.524 442.507C572.601 442.507 555.64 459.468 555.64 480.391C555.64 501.314 572.601 518.276 593.524 518.276Z" fill="white"/>
</g>
<path d="M556.983 513.264C542.205 496.516 540.146 471.349 553.401 452.183C568.984 429.703 599.973 424.061 622.453 439.644C644.933 455.228 650.575 486.216 634.902 508.696C621.288 528.31 596.122 535.117 574.985 526.161C571.85 524.817 568.805 523.205 565.85 521.145C562.626 518.906 559.58 516.13 556.983 513.264ZM625.408 502.069C637.32 484.873 633.111 461.229 615.825 449.317C598.629 437.405 574.985 441.704 563.073 458.9C551.162 476.096 555.461 499.74 572.656 511.652C589.852 523.564 613.497 519.265 625.408 502.069Z" fill="#2D72B0"/>
<path d="M575.074 526.25L533.876 585.629C530.383 590.645 523.397 591.899 518.382 588.406C515.247 586.256 513.635 582.763 513.635 579.271C513.635 577.121 514.262 574.882 515.605 572.912L556.983 513.264C559.58 516.219 562.535 518.906 565.939 521.235C568.894 523.205 571.939 524.907 575.074 526.25Z" fill="#2D72B0"/>
<path d="M594.151 530.637C587.703 530.637 581.075 529.383 574.895 526.786C571.671 525.443 568.536 523.741 565.67 521.681C562.357 519.353 559.311 516.666 556.625 513.621C541.31 496.246 539.787 470.81 553.042 451.733C568.805 428.985 600.241 423.253 622.99 439.105C634.006 446.718 641.439 458.271 643.768 471.437C646.186 484.692 643.231 498.037 635.618 509.053C625.945 522.935 610.272 530.637 594.151 530.637ZM594.33 431.493C578.836 431.493 563.521 438.837 554.027 452.54C541.13 471.079 542.563 495.887 557.52 512.814C560.118 515.77 563.073 518.457 566.387 520.696C569.253 522.666 572.208 524.278 575.343 525.622C596.569 534.578 621.378 527.234 634.543 508.336C641.977 497.589 644.843 484.603 642.514 471.706C640.186 458.809 633.021 447.614 622.273 440.18C613.675 434.269 604.003 431.493 594.33 431.493Z" fill="#242752"/>
<path d="M594.151 518.995C586.359 518.995 578.746 516.666 572.298 512.099C554.833 500.008 550.445 475.916 562.625 458.451C568.536 450.032 577.313 444.3 587.434 442.509C597.554 440.718 607.854 442.867 616.273 448.779C624.781 454.69 630.423 463.467 632.214 473.587C634.006 483.708 631.856 494.007 625.945 502.426C620.034 510.845 611.257 516.577 601.137 518.368C598.808 518.816 596.479 518.995 594.151 518.995ZM563.61 459.168C551.878 476.095 556.087 499.381 573.014 511.024C581.164 516.666 591.106 518.816 600.868 517.025C610.63 515.233 619.228 509.77 624.87 501.62C630.513 493.47 632.662 483.528 630.961 473.766C629.169 464.004 623.706 455.406 615.466 449.764C607.316 444.121 597.375 441.972 587.613 443.674C577.851 445.465 569.342 451.018 563.61 459.168Z" fill="#242752"/>
<path d="M524.741 591.001C522.413 591.001 520.084 590.284 518.024 588.941C514.89 586.702 513.009 583.119 513.009 579.268C513.009 576.85 513.725 574.521 515.069 572.551L556.715 512.455L557.79 513.172L557.521 513.619L516.143 573.267C514.89 575.059 514.263 577.119 514.263 579.268C514.263 582.671 515.964 585.896 518.741 587.866C523.487 591.18 530.025 589.926 533.339 585.179L574.985 525.083L576.06 525.8L575.523 526.516L534.324 585.896C532.175 589.209 528.503 591.001 524.741 591.001Z" fill="#242752"/>
</svg>
