<svg width="712" height="724" viewBox="0 0 712 724" fill="none" xmlns="http://www.w3.org/2000/svg">
<path d="M309.141 499.589C275.283 488.264 243.33 474.068 214.252 457.326C184.123 440.096 158.164 420.889 137.264 400.27C116.567 379.853 101.778 359.12 93.2609 338.595L92.9379 337.947C84.2602 316.289 82.8245 295.973 88.7923 277.325C94.7601 258.676 107.726 242.908 127.405 230.465C146.274 218.426 170.684 209.993 199.622 205.37C228.56 200.746 260.893 200.092 295.366 203.527C331.175 207.004 367.95 214.852 404.519 226.544C441.209 238.276 475.59 253.284 506.851 271.162C536.981 288.392 562.899 307.721 583.839 328.218C604.537 348.634 619.447 369.409 627.802 390.015L628.125 390.662C636.843 412.199 638.279 432.515 632.311 451.163C626.343 469.812 613.378 485.58 593.699 498.023C574.708 510.022 550.419 518.494 521.441 523.239C492.503 527.863 460.292 528.558 425.697 525.082C389.888 521.606 353.234 513.798 316.422 502.025C314.117 501.254 311.69 500.442 309.141 499.589ZM230.632 466.043C257.406 479.991 286.286 492.079 316.666 501.701C349.23 512.054 381.757 519.291 413.599 523.33C382 519.372 349.351 512.095 316.666 501.701C286.164 492.039 257.163 479.909 230.632 466.043ZM404.64 226.989L404.519 226.948C331.987 203.767 259.318 196.327 199.743 205.815C140.248 215.465 100.97 240.918 89.2777 277.487C83.2693 296.257 84.8263 316.613 93.7468 338.352C102.183 358.715 116.972 379.449 137.669 399.866C179.185 440.739 239.929 475.764 309.344 498.983C311.771 499.794 314.198 500.606 316.625 501.418C389.157 524.599 461.826 532.039 521.401 522.551C580.855 513.023 620.134 487.57 631.866 450.879C643.559 414.31 626.406 370.792 583.475 328.501C541.959 287.628 481.215 252.602 411.8 229.384C409.494 228.613 407.067 227.801 404.64 226.989ZM108.812 366.33C116.488 377.668 126.108 388.847 137.467 400.068C151.858 414.327 168.637 427.9 187.602 440.585C168.88 427.981 151.979 414.367 137.467 400.068C126.229 388.887 116.65 377.587 108.812 366.33ZM570.985 509.451C556.614 515.304 540.099 519.9 521.603 522.754C500.193 526.252 477.005 527.402 452.888 526.486C477.41 527.402 500.355 526.171 521.603 522.754C539.978 519.859 556.573 515.425 570.985 509.451ZM633.368 407.259C636.914 422.478 636.575 437.207 632.23 451.001C627.805 465.038 619.214 477.412 607.184 487.961C619.497 477.372 627.805 465.038 632.311 451.163C636.655 437.369 636.994 422.64 633.368 407.259ZM108.532 245.741C99.3365 255.079 92.6891 265.675 89.035 277.406C86.9238 284.121 85.7027 290.999 85.4524 298.202C85.6621 291.12 86.9238 284.121 89.035 277.406C92.8104 265.715 99.3365 255.079 108.532 245.741ZM411.881 229.141C409.454 228.329 407.027 227.518 404.6 226.706C368.031 215.014 331.215 207.287 295.447 203.689C260.852 200.213 228.641 200.908 199.703 205.532C181.854 208.467 165.704 212.78 151.535 218.431C165.583 212.74 181.733 208.427 199.703 205.532C259.319 195.922 331.947 203.484 404.519 226.544L404.64 226.584C434.373 236.125 462.727 247.768 488.733 261.189C464.628 248.943 438.943 238.193 411.881 229.141ZM536.17 289.605C553.962 301.763 569.973 314.809 583.799 328.339C596.775 341.181 607.445 354.06 615.686 366.936C607.445 354.06 596.815 341.059 583.799 328.339C569.973 314.809 554.084 301.803 536.17 289.605Z" fill="#9FBEED" fill-opacity="0.6"/>
<path d="M316.292 510.889C250.76 488.97 189.247 454.227 146.637 415.012C124.644 394.837 108.762 374.547 99.3545 354.669C98.4259 352.604 97.5781 350.701 96.8111 348.96C89.0611 330.176 87.7438 312.734 92.7374 296.998C98.2993 279.563 111.428 262.5 130.503 247.83C149.537 233.283 174.274 221.047 201.921 212.618C230.904 203.827 263.241 199.126 295.451 199.24C330.778 199.317 365.816 204.695 399.553 215.575C401.859 216.346 404.043 217.077 406.349 217.848C471.881 239.768 533.393 274.511 576.004 313.726C597.996 333.901 613.878 354.19 623.286 374.069C633.179 394.919 635.425 414.426 629.903 431.74C624.341 449.175 611.213 466.238 592.138 480.907C573.104 495.455 548.367 507.69 520.72 516.119C491.737 524.911 459.4 529.612 427.189 529.497C391.863 529.42 356.704 524.002 323.088 513.163C320.782 512.391 318.476 511.62 316.292 510.889ZM96.973 348.879C97.7401 350.62 98.5879 352.523 99.5164 354.588C108.924 374.466 124.847 394.635 146.799 414.931C189.409 454.146 250.841 488.727 316.373 510.647C318.679 511.418 320.863 512.149 323.169 512.92C344.366 519.74 366.01 524.416 387.981 526.907C366.172 524.335 344.407 519.619 323.169 512.92C320.985 512.189 318.679 511.418 316.494 510.687C250.962 488.768 189.45 454.025 146.92 414.972C124.928 394.797 109.046 374.507 99.7186 354.79C89.8261 333.94 87.6204 314.717 93.1417 297.403C94.8064 292.023 97.2398 286.765 100.321 281.588C97.2398 286.765 94.8064 292.023 93.1417 297.403C87.8652 312.774 89.1825 330.217 96.973 348.879ZM406.227 218.212C403.921 217.441 401.737 216.71 399.431 215.939C334.465 195.153 264.379 194.109 202.042 213.064C145.129 230.324 104.388 261.764 93.1015 297.12C87.6208 314.312 89.8265 333.535 99.719 354.386C109.168 374.143 124.928 394.392 146.921 414.567C190.986 455.078 255.169 490.714 323.169 512.515C388.136 533.301 458.222 534.345 520.559 515.391C577.472 498.13 618.213 466.69 629.499 431.335C634.452 415.72 633.094 398.399 625.425 379.777C624.577 377.874 623.729 375.971 622.882 374.069C613.433 354.311 597.551 334.022 575.68 313.887C533.15 274.834 471.759 240.132 406.227 218.212ZM548.086 505.707C539.422 509.421 530.233 512.689 520.599 515.674C513.07 518.013 505.42 519.907 497.689 521.639C505.541 519.948 513.111 517.892 520.599 515.674C530.192 512.811 539.381 509.543 548.086 505.707ZM625.708 379.737C633.378 398.359 634.816 415.842 629.742 431.416C627.996 437.039 625.522 442.418 622.239 447.797C625.522 442.418 627.996 437.039 629.742 431.416C635.263 414.102 633.057 394.879 623.165 374.028C613.757 354.15 597.834 333.981 575.882 313.685C531.817 273.174 467.554 237.376 399.513 215.696C377.951 208.754 355.781 204.037 333.285 201.505C355.66 203.997 377.83 208.714 399.513 215.696C467.513 237.497 531.817 273.174 575.882 313.685C597.875 333.86 613.757 354.15 623.044 373.988C624.013 375.931 624.861 377.834 625.708 379.737ZM225.154 206.896C217.302 208.588 209.49 210.562 201.961 212.902C190.991 216.249 180.385 220.123 170.507 224.645C180.345 220.244 190.829 216.33 201.92 213.023C209.612 210.603 217.423 208.628 225.154 206.896Z" fill="#9FBEED" fill-opacity="0.6"/>
<path d="M323.928 522.349C293.225 512.079 263.213 498.937 234.66 483.45C205.096 467.354 177.842 448.792 155.726 429.791C132.762 410.101 115.868 390.417 105.447 371.549C103.428 367.905 101.692 364.221 100.037 360.294C93.4571 344.465 92.2988 329.775 96.5208 316.749C101.758 300.285 114.604 282.453 133.601 265.193C152.799 247.732 177.338 232.057 204.22 219.864C233.45 206.702 265.063 198.116 295.537 194.951C330.179 191.426 363.52 194.617 394.506 204.441C427.273 214.997 459.146 228.626 489.235 245.167C518.799 261.263 546.054 279.825 568.169 298.826C591.133 318.516 608.149 338.241 618.448 357.068C629.515 377.232 632.531 395.647 627.415 411.747C622.178 428.211 609.332 446.043 590.336 463.302C571.137 480.764 546.76 496.358 519.716 508.632C490.486 521.793 458.995 530.42 428.399 533.545C393.716 537.191 360.416 533.879 329.308 524.014C327.569 523.567 325.748 522.958 323.928 522.349ZM304.835 515.288C313.006 518.291 321.218 521.173 329.47 523.933C342.132 528.033 355.321 530.96 368.753 532.755C355.968 531.042 342.779 528.115 329.47 523.933C321.339 521.213 313.128 518.332 304.835 515.288ZM400.978 207.281C398.794 206.55 396.609 205.82 394.425 205.089C315.057 179.756 241.425 203.838 204.462 220.35C177.459 232.502 153.082 248.097 133.924 265.437C114.968 282.574 102.284 300.326 96.9254 316.749C91.8506 332.728 94.7857 350.981 105.893 371.023C116.192 389.851 133.127 409.413 156.091 429.104C200.2 467.066 260.703 500.391 322.958 521.215C325.142 521.946 327.327 522.676 329.511 523.407C408.879 548.74 482.511 524.658 519.474 508.146C546.477 495.994 570.854 480.399 589.931 462.897C608.887 445.759 621.571 428.008 626.93 411.584C631.111 398.68 629.872 384.233 623.414 368.444C621.839 364.679 619.982 360.954 618.084 357.351C607.784 338.524 590.849 318.961 567.885 299.271C523.736 261.43 463.233 228.104 400.978 207.281ZM100.361 360.132C101.935 363.897 103.752 367.743 105.812 371.266C116.071 390.215 133.005 409.777 155.929 429.589C165.147 437.53 175.336 445.391 186.254 453.091C175.579 445.472 165.39 437.611 155.929 429.589C132.884 409.737 116.071 390.215 105.65 371.347C94.5832 351.183 91.5267 332.89 96.7635 316.83C102.001 300.366 114.847 282.534 133.803 265.396C153.002 247.935 177.378 232.34 204.381 220.188C221.83 212.396 247.415 202.873 278.012 197.725C253.121 201.948 228.025 209.61 204.381 220.188C177.378 232.34 153.002 247.935 133.803 265.396C114.847 282.534 102.001 300.366 96.7635 316.83C92.5415 329.856 93.7404 344.425 100.361 360.132ZM530.282 270.501C543.828 279.62 556.525 289.264 568.047 299.19C591.092 319.042 608.027 338.605 618.326 357.432C620.346 361.076 622.082 364.76 623.656 368.525C630.114 384.314 631.313 398.883 627.253 411.828C622.016 428.292 609.17 446.124 590.214 463.262C571.015 480.723 546.639 496.318 519.635 508.47C505.506 514.808 485.994 522.315 462.882 527.673C482.189 523.201 501.458 516.827 519.757 508.51C546.76 496.358 571.137 480.764 590.336 463.302C609.291 446.164 622.138 428.332 627.375 411.868C632.45 395.889 629.434 377.474 618.488 357.351C608.068 338.484 591.173 318.8 568.209 299.109C556.727 289.467 543.909 279.782 530.282 270.501ZM401.059 207.038C429.335 216.496 457.284 228.543 483.532 242.45C455.141 227.287 425.209 214.711 394.506 204.846C380.105 200.299 365.136 197.046 349.761 195.412C364.327 197.045 379.255 200.015 394.465 204.968C396.69 205.577 398.875 206.307 401.059 207.038Z" fill="#9FBEED" fill-opacity="0.6"/>
<path d="M329.866 533.241C271.373 513.675 210.182 480.794 165.1 444.53C141.083 425.163 123.096 406.328 111.703 388.349C108.511 383.368 105.725 377.984 103.464 372.64C98.015 359.483 96.9756 347.261 100.386 336.662C105.258 321.29 118.267 302.164 136.78 282.719C156.427 262.304 180.524 243.107 206.681 227.434C235.916 209.821 266.683 197.309 295.785 190.986C329.5 183.777 361.184 184.66 389.703 193.794C449.937 212.997 513.878 246.933 560.537 284.534C584.553 303.902 602.541 322.737 613.934 340.715C626.175 360.192 630.041 377.677 625.21 392.523C620.339 407.895 607.329 427.022 588.816 446.467C569.29 466.923 545.072 486.078 518.915 501.752C489.68 519.365 458.913 531.877 429.812 538.2C396.096 545.409 364.534 544.567 335.893 535.392C333.871 534.58 331.808 533.89 329.866 533.241ZM103.667 372.438C106.008 377.943 108.714 383.166 111.906 388.147C123.177 406.085 141.124 425.042 165.181 444.288C210.263 480.551 271.454 513.433 329.826 532.957C331.889 533.647 333.831 534.297 335.894 534.987C349.688 539.331 364.213 541.896 379.387 542.518C365.022 541.896 350.537 539.615 335.894 534.987C333.831 534.297 331.889 533.647 329.826 532.957C271.332 513.392 210.263 480.551 165.181 444.288C141.448 425.285 123.015 405.761 111.906 388.147C99.6646 368.67 95.8787 351.347 100.548 336.582C105.419 321.21 118.429 302.083 136.901 282.759C156.427 262.304 180.646 243.148 206.641 227.555C224.74 216.608 251.462 202.877 282.387 194.33C257.412 201.224 231.381 212.487 206.519 227.515C180.484 243.229 156.306 262.263 136.78 282.719C118.307 302.042 105.419 321.21 100.426 336.541C97.2589 347.221 98.2175 359.281 103.667 372.438ZM395.366 196.228C393.303 195.538 391.361 194.888 389.298 194.198C317.252 171.18 244.054 205.257 206.843 227.758C180.807 243.472 156.629 262.506 137.103 282.962C118.631 302.285 105.784 321.331 100.79 336.663C96.1215 351.428 99.9479 368.63 112.108 387.945C123.218 405.559 141.65 425.083 165.262 444.045C210.344 480.309 271.414 513.149 329.907 532.715C331.97 533.405 333.912 534.054 335.975 534.744C408.183 557.682 481.38 523.605 518.551 501.226C544.587 485.511 568.765 466.477 588.29 446.021C606.763 426.698 619.61 407.652 624.604 392.321C628.014 381.722 626.893 369.743 621.525 356.748C619.305 351.283 616.477 346.019 613.286 341.039C602.176 323.424 583.744 303.901 560.131 284.938C514.928 248.634 453.859 215.793 395.366 196.228ZM621.727 356.546C627.176 369.703 628.176 381.641 624.766 392.24C619.894 407.612 606.884 426.739 588.412 446.062C568.886 466.518 544.668 485.673 518.672 501.266C497.05 514.274 463.122 531.396 424.348 538.802C426.088 538.439 427.95 538.117 429.731 537.634C458.792 531.432 489.478 518.758 518.672 501.266C544.708 485.552 568.886 466.518 588.452 445.941C606.925 426.617 619.813 407.45 624.806 392.118C629.475 377.353 625.689 360.03 613.448 340.553C602.177 322.615 584.23 303.658 560.172 284.412C515.091 248.148 453.9 215.267 395.407 195.702C393.343 195.012 391.402 194.362 389.339 193.672C378.133 190.059 366.482 187.781 354.303 186.676C365.834 187.7 377.648 189.897 389.339 193.672C391.402 194.362 393.343 195.012 395.407 195.702C453.9 215.267 514.969 248.108 560.051 284.372C583.785 303.375 602.217 322.898 613.327 340.513C616.68 345.817 619.386 351.04 621.727 356.546Z" fill="#9FBEED" fill-opacity="0.6"/>
<path d="M336.774 544.455C282.164 526.189 220.365 493.914 174.351 459.227C149.524 440.668 130.161 421.912 117.998 405.025C113.553 398.951 109.797 392.432 106.85 385.509C102.369 374.7 101.489 364.826 104.25 356.169C108.756 341.889 121.808 321.427 139.918 299.958C159.447 276.67 184.033 253.59 208.98 234.678C238.462 212.29 267.736 196.175 295.708 186.775C328.375 175.843 358.24 174.498 384.575 182.902C386.395 183.51 388.215 184.119 390.157 184.769C444.767 203.035 506.565 235.31 552.579 269.996C577.406 288.556 596.77 307.311 608.933 324.198C622.348 342.988 626.984 359.382 622.681 373.055C618.174 387.335 605.123 407.797 587.013 429.265C567.484 452.553 542.897 475.634 517.951 494.546C488.468 516.934 459.195 533.049 431.223 542.449C398.556 553.381 368.691 554.726 342.477 546.363C340.536 545.713 338.594 545.064 336.774 544.455ZM109.717 391.056C112.14 395.915 115.049 400.531 118.281 404.985C130.323 421.832 149.848 440.507 174.513 459.146C220.568 493.712 282.366 525.987 336.976 544.253C338.797 544.862 340.738 545.511 342.559 546.12C368.772 554.483 398.637 553.138 431.183 542.165C459.155 532.766 488.307 516.61 517.91 494.263C542.857 475.351 567.363 452.108 586.851 428.941C604.962 407.473 617.851 387.091 622.479 372.852C626.904 359.22 622.226 342.948 608.811 324.158C596.77 307.311 577.244 288.636 552.579 269.996C506.525 235.431 444.726 203.156 390.116 184.89C388.296 184.281 386.354 183.632 384.534 183.023C358.321 174.66 328.456 176.005 295.91 186.978C267.938 196.377 238.786 212.533 209.182 234.88C184.236 253.792 159.73 277.035 140.242 300.202C122.131 321.67 109.201 342.173 104.614 356.291C101.853 364.948 102.774 374.701 107.254 385.51C107.497 385.996 107.739 386.481 107.941 387.089C102.975 375.713 101.812 365.474 104.735 356.331C109.201 342.173 122.252 321.711 140.363 300.242C159.851 277.075 184.357 253.833 209.304 234.921C246.683 206.674 319.041 162.196 384.615 183.185C386.435 183.794 388.255 184.403 390.197 185.052C444.807 203.318 506.605 235.593 552.62 270.28C577.406 288.96 596.932 307.635 608.852 324.441C613.296 330.515 617.053 337.034 619.919 343.795C624.4 354.604 625.199 364.317 622.438 372.974C617.972 387.132 604.921 407.594 586.81 429.063C567.16 452.31 542.654 475.553 517.87 494.384C480.491 522.631 408.132 567.109 342.559 546.12C340.738 545.511 338.797 544.862 336.855 544.212C282.245 525.946 220.568 493.712 174.675 459.066C149.889 440.385 130.363 421.71 118.443 404.905C114.766 400.166 111.898 395.429 109.717 391.056ZM389.914 185.092C388.094 184.483 386.152 183.834 384.332 183.225C318.879 162.277 246.561 206.633 209.304 234.921C184.316 253.954 159.851 277.075 140.322 300.363C122.212 321.832 109.323 342.213 104.816 356.493C100.553 370.045 105.109 386.276 118.443 404.905C130.404 421.589 149.889 440.385 174.716 458.944C220.649 493.469 282.286 525.825 336.895 544.091C338.837 544.74 340.657 545.349 342.599 545.999C408.051 566.947 480.369 522.59 517.627 494.303C542.412 475.472 566.998 452.391 586.527 429.103C604.638 407.634 617.527 387.253 622.033 372.973C624.754 364.438 623.833 354.684 619.474 343.916C616.486 337.115 612.73 330.596 608.406 324.562C596.446 307.878 576.961 289.081 552.134 270.522C506.16 235.714 444.524 203.359 389.914 185.092Z" fill="#9FBEED" fill-opacity="0.6"/>
<path d="M343.559 555.631C319.288 547.513 292.471 536.114 265.333 522.449C235.889 507.608 207.5 490.826 183.602 473.927C157.803 455.852 137.265 437.783 124.252 421.826C117.866 413.888 113.099 406.357 110.274 399.474C106.601 390.69 106.002 382.798 108.194 375.84C112.538 362.451 125.226 341.057 143.177 317.241C163.559 290.191 186.611 264.843 211.44 241.843C240.684 214.924 269.112 194.882 295.954 182.406C327.573 167.749 355.66 164.056 379.648 171.81C405.012 179.889 433.892 191.977 463.093 206.737C492.537 221.578 520.805 238.32 544.824 255.26C570.623 273.334 591.161 291.403 604.174 307.36C618.804 325.342 624.292 340.806 620.232 353.346C615.888 366.736 603.2 388.129 585.249 411.945C564.867 438.995 541.815 464.344 516.986 487.343C487.701 514.384 459.314 534.304 432.472 546.781C400.974 561.477 372.766 565.131 348.778 557.377C347.079 556.808 345.258 556.2 343.559 555.631ZM203.258 249.766C181.546 270.705 161.411 293.386 143.258 317.403C125.307 341.219 112.659 362.491 108.316 375.881C106.164 382.717 106.884 390.649 110.436 399.394C113.261 406.276 117.907 413.767 124.333 421.583C137.347 437.54 157.884 455.609 183.562 473.643C207.621 490.462 235.849 507.325 265.333 522.044C294.292 536.723 323.212 548.691 348.778 556.972C372.686 564.564 400.732 560.992 432.351 546.335C459.072 533.819 487.459 513.898 516.703 486.978C541.533 463.979 564.463 438.59 584.966 411.58C602.917 387.765 615.605 366.371 619.787 353.062C623.806 340.644 618.4 325.342 603.77 307.36C590.756 291.403 570.34 273.374 544.541 255.3C520.522 238.36 492.254 221.618 462.769 206.899C433.568 192.139 404.648 180.172 379.324 171.971C355.417 164.379 327.371 167.952 295.751 182.608C270.003 194.64 242.75 213.59 214.68 239.014C242.75 213.59 270.165 194.559 295.873 182.649C327.371 167.952 355.417 164.379 379.284 172.092C380.983 172.661 382.682 173.229 384.381 173.797C435.229 190.805 497.473 222.555 544.379 255.381C570.299 273.496 590.716 291.524 603.608 307.441C609.993 315.379 614.679 322.748 617.505 329.63C621.057 338.375 621.818 346.185 619.504 353.103C615.16 366.492 602.513 387.764 584.683 411.621C564.301 438.671 541.371 464.06 516.46 486.897C487.216 513.817 458.788 533.859 432.108 546.254C400.611 560.951 372.564 564.523 348.697 556.81C346.998 556.242 345.299 555.674 343.6 555.105C292.631 538.057 230.508 506.348 183.602 473.522C157.682 455.407 137.266 437.378 124.374 421.462C109.744 403.48 104.337 388.178 108.356 375.759C112.7 362.37 125.347 341.098 143.177 317.241C161.371 293.507 181.546 270.705 203.258 249.766ZM384.421 174.081C382.722 173.512 381.023 172.944 379.324 172.376C355.417 164.784 327.532 168.276 296.034 182.972C269.354 195.368 240.927 215.409 211.682 242.329C186.853 265.329 163.923 290.717 143.581 317.647C125.751 341.503 112.983 362.734 108.801 376.043C104.823 388.341 110.229 403.642 124.778 421.462C137.67 437.379 158.128 455.286 184.007 473.523C230.873 506.47 293.036 538.057 344.005 555.106C345.704 555.674 347.403 556.242 349.102 556.811C373.01 564.402 400.894 560.911 432.392 546.214C459.072 533.819 487.499 513.777 516.744 486.857C541.573 463.858 564.503 438.469 584.845 411.54C602.675 387.683 615.443 366.452 619.625 353.143C621.777 346.307 621.138 338.537 617.545 329.914C614.72 323.032 610.033 315.662 603.648 307.724C590.756 291.807 570.299 273.9 544.419 255.664C497.432 222.676 435.269 191.089 384.421 174.081Z" fill="#9FBEED" fill-opacity="0.6"/>
<path d="M350.346 566.807C328.017 559.338 302.211 548.548 275.436 535.409C245.992 520.973 217.359 504.918 192.691 488.707C165.8 471.076 144.209 453.734 130.345 438.707C122.22 429.918 116.604 421.697 113.617 414.491C110.792 407.609 110.232 401.215 111.937 395.713C115.916 383.416 128.686 360.566 146.073 334.807C166.337 304.883 189.068 276.055 213.496 249.413C242.543 217.839 270.247 193.912 295.635 178.521C326.084 160.1 352.474 154.22 374.156 161.202C397.416 168.713 425.083 179.991 453.84 194.062C483.284 208.499 511.917 224.553 536.585 240.765C563.476 258.395 585.067 275.737 598.931 290.764C614.735 308.06 620.993 322.431 617.339 333.758C613.361 346.056 600.59 368.906 583.204 394.664C562.94 424.588 540.208 453.417 515.78 480.058C486.733 511.632 459.03 535.559 433.642 550.95C403.192 569.371 376.802 575.252 355.12 568.269C353.623 567.903 352.045 567.376 350.346 566.807ZM113.941 414.33C117.009 421.698 122.544 429.756 130.669 438.545C144.533 453.573 166.124 470.914 193.015 488.545C217.683 504.757 246.275 520.932 275.76 535.247C302.535 548.386 328.22 559.136 350.549 566.605C352.127 567.133 353.826 567.701 355.403 568.229C377.086 575.211 403.475 569.331 433.804 550.869C459.232 535.357 486.895 511.551 515.942 479.977C540.37 453.336 562.98 424.467 583.366 394.583C600.752 368.825 613.644 346.015 617.501 333.677C621.114 322.472 614.857 308.1 599.133 290.967C585.269 275.94 563.678 258.598 536.787 240.967C512.119 224.755 483.527 208.58 454.042 194.265C425.164 180.153 397.659 168.794 374.358 161.405C352.676 154.422 326.286 160.303 295.958 178.764C270.529 194.277 242.867 218.082 213.82 249.656C189.351 276.419 166.781 305.167 146.396 335.05C128.969 360.93 116.118 383.618 112.261 395.956C110.515 401.175 111.116 407.447 113.941 414.33ZM350.549 566.605C303.22 550.774 240.571 519.834 193.015 488.545C166.124 470.914 144.654 453.613 130.669 438.545C114.865 421.25 108.729 406.919 112.342 395.714C116.32 383.416 129.05 360.688 146.477 334.807C166.741 304.884 189.432 276.177 213.901 249.413C242.948 217.84 270.611 194.034 296.039 178.522C326.367 160.06 352.717 154.301 374.44 161.162C422.214 176.467 487.493 208.422 536.827 240.846C563.719 258.476 585.188 275.778 599.174 290.845C607.298 299.635 612.915 307.855 615.902 315.061C618.727 321.943 619.328 328.216 617.542 333.556C613.563 345.853 600.833 368.582 583.406 394.462C563.142 424.386 540.451 453.093 515.982 479.856C486.936 511.43 459.273 535.235 433.844 550.748C403.516 569.209 377.167 574.969 355.444 568.107C353.704 567.661 352.127 567.133 350.549 566.605ZM378.929 163.069C377.352 162.541 375.774 162.013 374.196 161.486C352.635 154.544 326.367 160.465 296.079 178.805C270.691 194.196 242.988 218.123 213.982 249.575C189.553 276.217 166.943 305.086 146.558 334.969C129.171 360.728 116.32 383.416 112.463 395.754C108.891 406.838 115.027 421.169 130.791 438.181C144.655 453.209 166.124 470.51 193.016 488.14C240.571 519.429 303.221 550.37 350.549 566.2C352.127 566.728 353.705 567.256 355.282 567.784C376.843 574.726 403.233 568.845 433.399 550.464C458.828 534.952 486.491 511.146 515.497 479.694C539.925 453.052 562.535 424.183 582.921 394.3C600.348 368.42 613.199 345.732 617.016 333.515C618.68 328.135 618.16 322.024 615.335 315.142C612.348 307.936 606.732 299.715 598.729 290.966C584.864 275.939 563.395 258.638 536.503 241.007C488.786 209.799 426.258 178.899 378.929 163.069Z" fill="#9FBEED" fill-opacity="0.6"/>
<path d="M357.255 578.023C313.445 563.369 250.552 533.157 202.065 503.445C174.08 486.258 151.436 469.644 136.762 455.425C126.858 445.905 120.311 437.239 117.244 429.871C114.983 424.527 114.583 419.671 115.883 415.383C119.536 404.056 132.349 379.871 149.333 352.088C169.559 319.049 192.011 287.023 215.958 256.577C244.686 220.309 271.624 192.618 295.882 174.15C325.041 151.924 349.733 143.857 369.393 150.028C370.85 150.515 372.306 151.002 373.762 151.489C417.571 166.143 480.464 196.355 528.952 226.067C556.937 243.253 579.58 259.868 594.255 274.087C611.274 290.574 618.382 304.016 615.094 314.25C611.44 325.577 598.628 349.762 581.644 377.545C561.417 410.584 538.965 442.61 515.019 473.056C486.291 509.324 459.352 537.015 435.094 555.483C405.936 577.709 381.243 585.776 361.583 579.605C360.167 578.997 358.711 578.51 357.255 578.023ZM117.406 429.79C120.473 437.158 127.02 445.825 136.803 455.304C151.477 469.523 174.121 486.137 202.105 503.324C250.593 533.035 313.486 563.248 357.174 577.861C358.63 578.348 360.208 578.875 361.664 579.363C381.162 585.615 405.733 577.506 434.892 555.28C459.15 536.813 485.967 509.081 514.817 472.853C538.763 442.407 561.215 410.382 581.441 377.342C598.425 349.56 611.238 325.374 614.891 314.048C618.099 304.056 611.112 290.655 594.093 274.167C579.297 259.908 556.775 243.334 528.79 226.148C480.303 196.436 417.409 166.224 373.6 151.57C372.144 151.083 370.566 150.555 369.231 150.109C349.733 143.857 325.162 151.965 296.004 174.191C271.745 192.659 244.928 220.39 216.079 256.618C192.132 287.064 169.802 319.13 149.454 352.129C132.47 379.911 119.658 404.097 116.004 415.423C114.745 419.59 115.266 424.487 117.406 429.79ZM357.336 577.78C313.648 563.167 250.634 532.914 202.146 503.202C174.161 486.016 151.639 469.442 136.843 455.183C119.905 438.857 112.918 425.456 116.166 415.343C119.82 404.016 132.511 379.79 149.616 352.048C169.843 319.009 192.294 286.983 216.241 256.537C244.928 220.39 271.907 192.578 296.166 174.11C325.283 152.005 349.855 143.897 369.393 150.028C413.284 164.034 478.807 195.261 528.952 226.067C556.937 243.253 579.459 259.827 594.255 274.087C604.038 283.566 610.625 292.111 613.652 299.6C615.791 304.903 616.312 309.8 614.932 313.926C611.319 325.132 598.466 349.438 581.482 377.221C561.296 410.139 538.804 442.286 514.857 472.732C486.17 508.879 459.191 536.691 434.932 555.159C405.815 577.264 381.243 585.372 361.705 579.241C360.37 578.795 358.914 578.308 357.336 577.78ZM373.6 151.975C372.143 151.487 370.566 150.96 369.11 150.473C349.733 144.261 325.162 152.369 296.165 174.515C271.907 192.982 245.09 220.714 216.402 256.861C192.496 287.185 170.126 319.373 149.818 352.251C132.875 379.912 120.022 404.219 116.409 415.424C113.242 425.294 120.229 438.696 137.046 454.98C151.72 469.199 174.364 485.814 202.268 502.838C250.755 532.55 313.648 562.762 357.336 577.375C358.793 577.862 360.249 578.349 361.705 578.837C381.082 585.048 405.653 576.94 434.65 554.795C458.908 536.327 485.725 508.595 514.412 472.448C538.319 442.124 560.81 409.977 580.997 377.058C597.981 349.276 610.793 325.091 614.406 313.885C615.665 309.719 615.225 304.984 613.085 299.68L613.247 299.6L613.085 299.68C610.018 292.313 603.552 283.808 593.648 274.288C578.973 260.07 556.33 243.455 528.426 226.43C480.302 196.84 417.409 166.628 373.6 151.975Z" fill="#9FBEED" fill-opacity="0.6"/>
<path d="M364.041 589.199C323.508 575.642 260.331 546.279 211.275 518.266C196.797 509.915 175.687 497.187 157.612 483.855C137.274 468.821 124.904 456.183 120.706 446.143C118.97 442.054 118.732 438.331 119.666 435.135C125.755 416.122 167.76 336.529 218.216 263.945C246.584 223.104 272.677 191.487 295.805 169.943C323.794 143.952 346.83 133.576 364.144 139.098C404.111 151.926 470.16 182.385 521.036 211.411C558.283 232.775 619.79 271.969 612.645 294.542C606.474 313.797 564.348 393.35 513.974 465.691C485.605 506.532 459.512 538.149 436.425 559.572C408.436 585.563 385.4 595.939 368.086 590.417C366.832 590.133 365.376 589.646 364.041 589.199ZM121.03 445.981C125.228 456.021 137.598 468.659 157.815 483.653C175.889 496.985 196.878 509.672 211.356 518.023C260.25 546.117 323.589 575.399 364.001 588.916C365.457 589.403 366.792 589.849 368.127 590.296C385.441 595.817 408.355 585.401 436.182 559.491C459.27 538.068 485.363 506.451 513.731 465.61C563.984 393.228 606.11 313.675 612.281 294.42C615.448 284.55 605.588 270.457 583.229 252.589C563.741 237.03 538.506 221.707 520.874 211.492C471.737 183.317 408.519 154.075 368.229 140.599C366.773 140.112 365.438 139.665 364.103 139.219C346.789 133.698 323.875 144.114 296.048 170.024C272.96 191.447 246.867 223.064 218.499 263.905C168.124 336.651 126.038 416.082 119.949 435.095C119.015 438.291 119.254 442.014 121.03 445.981ZM364.122 588.956C323.832 575.48 260.534 546.077 211.518 517.942C182.4 501.321 158.825 485.475 143.219 472.024C125.066 456.507 117.228 444.035 120.07 435.135C126.2 416.001 168.286 336.57 218.58 264.067C246.948 223.226 273.041 191.609 296.129 170.186C324.077 144.317 346.991 133.9 364.184 139.381C365.519 139.827 366.854 140.274 368.31 140.761C408.6 154.237 471.777 183.6 520.954 211.654C550.073 228.275 573.607 244.243 589.254 257.572C600.978 267.701 608.334 276.368 611.442 283.615C613.057 287.663 613.458 291.305 612.402 294.461C606.272 313.595 564.308 393.066 513.893 465.529C485.524 506.37 459.432 537.987 436.344 559.41C408.396 585.28 385.481 595.696 368.289 590.215C366.913 589.89 365.457 589.403 364.122 588.956ZM368.229 141.004C366.772 140.517 365.437 140.07 364.103 139.624C346.91 134.143 324.158 144.478 296.209 170.348C273.122 191.771 247.029 223.388 218.66 264.229C168.408 336.611 126.443 416.083 120.313 435.217C117.512 443.995 125.268 456.304 143.3 471.781C158.947 485.111 182.481 501.079 211.599 517.7C260.736 545.875 323.954 575.116 364.244 588.592C365.579 589.039 367.035 589.526 368.37 589.973C385.562 595.453 408.315 585.118 436.263 559.248C459.351 537.825 485.444 506.208 513.812 465.367C564.227 392.905 606.191 313.433 612.322 294.299C613.336 291.265 612.935 287.622 611.28 283.696C608.293 276.49 600.816 267.782 589.213 257.694C573.567 244.364 550.032 228.396 520.914 211.775C471.696 183.843 408.519 154.48 368.229 141.004Z" fill="#9FBEED" fill-opacity="0.6"/>
<path d="M371.193 600.495C339.155 589.779 277.067 563.209 220.527 532.963C188.253 515.691 132.97 483.706 124.291 462.858C122.999 459.862 122.84 457.11 123.612 454.804C128.849 438.34 170.982 351.908 220.637 271.23C264.616 199.854 324.308 117.001 359.259 128.287C390.003 138.03 454.477 165.533 513.322 196.955C531.845 206.929 558.173 221.807 578.634 236.477C602.37 253.457 612.958 266.579 610.238 275.114C605.001 291.579 562.867 378.01 513.213 458.688C469.233 530.065 409.541 612.917 374.59 601.632C373.498 601.266 372.406 600.901 371.193 600.495ZM208.759 526.193C212.965 528.545 216.969 530.693 220.73 532.761C277.27 563.007 339.357 589.577 371.395 600.293C372.609 600.699 373.701 601.064 374.793 601.43C390.408 606.383 412.476 592.849 440.43 560.91C461.74 536.734 486.096 502.242 513.011 458.486C562.665 377.808 604.799 291.376 610.036 274.912C611.335 271.028 609.681 266.292 606.004 261.149C607.499 263.134 608.589 265.118 609.316 266.98C610.486 269.935 610.807 272.606 610.036 274.912C604.799 291.376 562.665 377.808 513.011 458.486C484.961 504.021 459.593 539.524 437.675 563.902C411.018 593.576 389.801 606.18 374.672 601.389C341.622 590.874 281.881 564.55 232.539 539.005C224.167 534.586 216.281 530.329 208.759 526.193ZM362.859 130.03C361.524 129.584 360.31 129.178 359.097 128.772C344.089 124.022 323.034 136.545 296.376 166.219C274.459 190.597 249.131 225.978 221.082 271.514C171.468 352.07 129.334 438.502 124.097 454.966C123.326 457.272 123.566 459.781 124.736 462.737C139.954 499.536 305.58 578.009 370.869 599.847C372.204 600.294 373.418 600.7 374.631 601.106C389.639 605.856 410.695 593.333 437.352 563.659C459.269 539.281 484.597 503.899 512.647 458.364C562.301 377.686 604.394 291.376 609.631 274.911C610.362 272.727 610.162 270.096 608.87 267.101C593.774 230.342 428.269 151.909 362.859 130.03ZM362.859 129.626C361.646 129.22 360.432 128.814 359.219 128.408C324.47 117.325 264.859 199.935 220.88 271.311C171.185 352.111 129.092 438.421 123.854 454.885C123.245 456.706 123.365 458.77 124.01 460.874C123.405 458.648 123.407 456.625 123.976 454.926C129.213 438.462 171.347 352.03 221.001 271.352C249.05 225.817 274.419 190.314 296.336 165.936C322.994 136.261 344.211 123.658 359.34 128.449C360.554 128.855 361.767 129.261 363.102 129.707C396.839 140.992 453.991 166.18 501.472 190.833C512.837 196.793 523.474 202.51 533.341 208.104C526.305 204.131 519.47 200.361 513.282 197.077C456.58 166.911 394.776 140.301 362.859 129.626Z" fill="#9FBEED" fill-opacity="0.6"/>
<path d="M377.979 611.672C348.49 601.808 285.188 575.237 229.779 547.663C197.989 531.767 172.874 517.7 155.406 505.785C139.918 495.207 130.66 486.578 127.956 480.141C127.068 477.955 126.867 476.134 127.436 474.435C132.348 458.942 175.826 364.054 222.936 278.477C266.316 199.614 324.318 107.695 354.172 117.276C355.143 117.6 356.235 117.966 357.327 118.331C386.817 128.195 449.997 154.725 505.407 182.299C537.196 198.195 562.311 212.263 579.78 224.178C600.443 238.241 609.861 248.812 607.75 255.527C602.837 271.021 559.359 365.908 512.249 451.485C468.869 530.349 410.867 622.267 381.135 612.727C380.042 612.362 379.072 612.037 377.979 611.672ZM357.246 118.574C356.154 118.208 355.062 117.843 354.091 117.518C340.823 113.215 320.492 129.219 293.829 164.963C273.527 192.175 249.815 230.391 223.179 278.558C176.069 364.135 132.591 459.023 127.678 474.516C127.151 476.094 127.311 478.036 128.239 480.101C130.944 486.538 140.08 495.126 155.608 505.582C173.077 517.498 198.07 531.525 229.981 547.461C287.332 576.089 353.182 603.512 381.216 612.484C394.525 616.666 414.815 600.784 441.478 565.04C461.78 537.828 485.492 499.612 512.128 451.445C559.238 365.868 602.716 270.98 607.628 255.487C609.699 248.893 600.362 238.483 579.82 224.461C562.351 212.546 537.358 198.519 505.447 182.583C449.916 154.968 386.857 128.478 357.246 118.574ZM377.939 611.388C348.328 601.484 285.148 574.954 229.981 547.461C160.254 512.669 123.983 486.774 127.8 474.557C132.712 459.063 176.19 364.176 223.3 278.599C266.64 199.857 324.48 108.019 354.091 117.518C355.062 117.843 356.154 118.208 357.246 118.574C386.736 128.438 449.916 154.968 505.204 182.501C566.033 212.833 601.133 236.178 606.825 249.821C607.632 251.845 607.833 253.666 607.305 255.244C602.392 270.737 558.915 365.625 511.805 451.202C468.465 529.944 410.625 621.782 381.014 612.282C380.124 612.119 379.031 611.754 377.939 611.388ZM357.165 118.816C356.073 118.451 354.981 118.086 354.01 117.761C340.822 113.62 320.532 129.502 294.031 165.165C273.729 192.378 250.017 230.593 223.543 278.68C176.433 364.257 132.955 459.145 128.043 474.638C124.145 486.693 160.457 512.467 230.063 547.218C287.292 575.806 353.142 603.229 381.176 612.201C394.363 616.342 414.653 600.46 441.155 564.797C461.456 537.584 485.168 499.369 511.643 451.282C558.753 365.705 602.19 270.939 607.102 255.446C607.63 253.868 607.389 252.168 606.582 250.144C603.837 243.424 593.69 234.228 576.463 222.798C559.236 211.369 535.133 197.909 505.082 182.865C449.835 155.21 386.776 128.721 357.165 118.816Z" fill="#9FBEED" fill-opacity="0.6"/>
<path d="M384.522 622.768C357.581 613.756 293.308 587.67 239.029 562.363C205.985 546.992 179.979 533.571 161.659 522.586C144.148 512.006 134.081 503.781 131.7 497.992C131.134 496.859 130.933 495.442 131.38 494.107C134.912 483.144 177.262 382.752 225.355 285.765C252.646 230.8 276.404 187.607 296.101 157.359C320.46 120.034 338.202 102.895 349.084 106.265C374.083 114.223 441.107 141.364 497.489 167.644C530.534 183.015 556.54 196.436 574.859 207.421C596.737 220.676 606.925 230.156 605.179 235.779C601.607 246.863 559.175 347.498 511.204 444.121C483.913 499.086 460.155 542.279 440.458 572.527C416.099 609.851 398.357 626.991 387.475 623.621C386.464 623.417 385.493 623.092 384.522 622.768ZM351.996 107.644C351.025 107.319 350.054 106.995 349.083 106.67C338.363 103.219 320.622 120.358 296.425 157.602C276.727 187.85 252.969 231.043 225.679 286.008C177.464 382.955 135.114 483.347 131.582 494.31C131.297 495.564 131.417 496.818 131.983 497.952C134.405 503.62 144.351 511.804 161.862 522.384C180.141 533.49 206.187 546.79 239.232 562.161C293.551 587.347 357.662 613.514 384.603 622.525C385.696 622.89 386.666 623.215 387.516 623.499C398.236 626.95 415.978 609.811 440.174 572.567C459.872 542.319 483.63 499.126 510.92 444.161C558.892 347.538 601.323 246.903 604.896 235.819C606.601 230.317 596.535 220.878 574.616 207.745C556.337 196.638 530.291 183.338 497.246 167.968C443.21 142.742 378.937 116.656 351.996 107.644ZM384.725 622.566C357.662 613.514 293.268 587.387 239.11 562.121C206.187 546.79 180.181 533.369 161.74 522.343C139.943 509.25 129.755 499.771 131.582 494.31C135.154 483.226 177.546 382.712 225.557 285.967C268.257 199.86 324.448 98.8345 348.962 106.629C374.204 114.668 441.228 141.809 497.408 167.887C530.331 183.217 556.458 196.679 574.778 207.664C592.289 218.244 602.235 226.428 604.657 232.096C605.222 233.23 605.302 234.605 605.058 235.738C601.485 246.822 559.094 347.336 511.082 444.08C484.927 496.861 461.859 538.8 442.606 568.927C417.193 608.598 398.762 626.991 387.678 623.418C386.666 623.215 385.696 622.89 384.725 622.566ZM351.793 107.846C350.822 107.522 349.852 107.197 349.002 106.913C338.04 103.381 319.649 121.652 294.398 161.242C275.145 191.369 252.077 233.308 225.921 286.089C177.91 382.834 135.519 483.347 131.946 494.431C130.281 499.812 140.388 509.129 162.064 522.182C180.343 533.288 206.39 546.588 239.434 561.959C293.632 587.104 357.986 613.352 385.049 622.404C386.019 622.729 386.99 623.054 387.84 623.338C398.802 626.87 417.193 608.598 442.444 569.008C461.697 538.881 484.765 496.942 510.92 444.161C558.932 347.417 601.323 246.903 604.896 235.819C605.14 234.686 605.02 233.432 604.576 232.339C602.275 226.711 592.288 218.648 574.778 208.069C556.499 196.962 530.452 183.662 497.408 168.291C443.25 143.025 378.734 116.858 351.793 107.846Z" fill="#9FBEED" fill-opacity="0.6"/>
<path d="M391.309 633.941C369.344 626.594 305.878 602.127 248.24 577.181C199.541 556.169 140.409 528.429 135.403 516.365C135 515.555 135 514.746 135.123 513.977C138.492 503.5 181.214 396.35 227.614 293.13C254.464 233.43 277.498 186.351 296.146 153.189C319.214 112.059 335.299 92.6115 344.077 95.4127C363.454 101.624 429.67 127.146 489.695 153.025C522.336 167.182 548.585 179.47 567.392 189.404C592.265 202.581 604.233 211.577 602.65 216.31C599.24 226.908 556.478 334.179 510.159 437.157C483.309 496.857 460.275 543.935 441.626 577.098C418.559 618.228 402.474 637.675 393.695 634.874C393.129 634.55 392.28 634.266 391.309 633.941ZM346.545 96.5079C345.574 96.1831 344.846 95.9396 343.996 95.6555C335.461 92.9354 319.416 112.261 296.389 153.27C277.74 186.433 254.707 233.511 227.857 293.211C181.497 396.31 138.775 503.46 135.527 513.978C135.284 514.706 135.404 515.556 135.727 516.203C138.513 522.802 160.186 538.687 248.483 576.857C308.588 602.899 374.845 628.299 394.101 634.47C402.636 637.19 418.681 617.864 441.708 576.855C460.316 543.814 483.349 496.736 510.24 436.915C556.518 334.058 599.321 226.665 602.691 216.188C605.248 208.138 566.262 186.327 489.735 153.309C432.056 128.484 368.631 103.896 346.545 96.5079ZM391.39 633.698C369.303 626.31 305.959 601.884 248.321 576.938C204.719 558.036 132.036 524.819 135.365 514.058C138.775 503.46 181.538 396.189 227.816 293.332C269.917 199.738 324.295 89.6056 343.794 95.8576C344.522 96.1011 345.371 96.3853 346.342 96.71C368.307 104.057 431.652 128.483 489.411 153.47C523.832 168.357 551.133 181.132 570.344 191.471C589.554 201.809 600.229 209.428 602.167 214.124C602.49 214.772 602.61 215.622 602.367 216.35C599.038 226.706 556.559 333.532 509.916 437.076C467.816 530.67 413.437 640.803 393.939 634.551C393.21 634.307 392.361 634.023 391.39 633.698ZM346.423 96.8719C345.573 96.5878 344.724 96.3037 343.874 96.0195C333.154 92.5688 304.391 124.102 228.18 293.454C181.942 396.189 139.14 503.582 135.77 514.059C134.268 518.549 147.081 532.685 248.564 576.615C306.202 601.561 369.547 625.987 391.633 633.375C392.604 633.699 393.454 633.984 394.182 634.227C404.902 637.678 433.665 606.144 509.876 436.793C556.519 333.249 599.119 226.463 602.327 216.066C602.57 215.338 602.409 214.61 602.086 213.962C598.292 204.732 558.253 183.243 489.532 153.511C431.732 128.645 368.388 104.219 346.423 96.8719Z" fill="#9FBEED" fill-opacity="0.6"/>
<path d="M398.218 645.158C380.136 639.11 316.508 615.533 257.614 591.921C222.302 577.681 194.191 565.714 174.291 556.225C152.41 545.802 140.925 538.992 139.391 535.106C139.149 534.62 139.149 534.215 139.312 533.73C141.545 526.651 184.192 412.864 230.278 300.498C256.688 236.063 278.997 185.1 296.556 149.144C306.897 127.91 315.573 111.652 322.545 100.895C330.367 88.8036 335.795 83.4678 339.314 84.6449C353.594 89.1515 420.256 113.743 482.103 138.613C517.415 152.853 545.526 164.819 565.426 174.309C590.138 185.948 601.542 193.406 600.527 196.844C598.212 204.166 555.078 319.004 509.56 430.076C483.15 494.511 460.841 545.475 443.282 581.431C432.941 602.665 424.265 618.923 417.293 629.679C409.471 641.771 404.043 647.107 400.524 645.929C399.674 645.645 398.946 645.402 398.218 645.158ZM341.296 85.5777C340.447 85.2936 339.597 85.0094 338.991 84.8065C335.593 83.6699 330.165 89.0058 322.545 100.895C315.573 111.652 306.897 127.91 296.556 149.144C279.078 185.262 256.809 236.104 230.278 300.498C184.192 412.864 141.545 526.651 139.352 533.609C139.23 533.973 139.351 534.418 139.472 534.863C141.046 538.628 152.37 545.519 174.292 555.82C194.191 565.31 222.302 577.276 257.614 591.516C316.467 615.25 380.258 638.746 398.218 644.753C399.068 645.038 399.796 645.281 400.403 645.484C403.801 646.621 409.229 641.285 416.849 629.396C423.82 618.639 432.496 602.381 442.837 581.147C460.275 545.15 482.584 494.187 509.115 429.792C554.755 318.761 597.727 204.004 600.041 196.682C601.137 193.405 589.329 185.947 565.102 174.471C545.081 164.94 517.091 153.014 481.779 138.774C422.804 115 359.378 91.6259 341.296 85.5777ZM398.178 644.875C379.974 638.786 316.346 615.209 257.574 591.638C215.102 574.598 143.387 544.539 139.432 534.985C139.27 534.661 139.149 534.215 139.312 533.73C141.545 526.651 184.314 412.5 230.278 300.498C259.893 228.5 284.108 173.451 302.517 136.97C320.926 100.488 333.165 82.8581 338.869 84.7659C339.476 84.9688 340.204 85.2124 341.054 85.4965C359.257 91.5853 423.007 115.203 481.658 138.734C524.129 155.773 595.844 185.833 599.8 195.387C599.961 195.711 600.082 196.156 599.92 196.641C597.646 203.842 554.877 317.992 508.953 429.873C479.339 501.872 455.124 556.921 436.714 593.402C418.305 629.883 406.066 647.513 400.362 645.605C399.755 645.403 399.027 645.159 398.178 644.875ZM341.094 85.7798C340.244 85.4957 339.516 85.2521 338.909 85.0492C333.286 83.3033 321.088 100.812 302.841 137.213C284.593 173.613 260.257 228.621 230.601 300.741C184.637 412.744 141.909 526.772 139.676 533.852C139.554 534.216 139.594 534.499 139.756 534.823C142.662 541.867 184.523 561.941 257.817 591.314C316.549 615.007 380.218 638.463 398.421 644.551C399.27 644.836 399.998 645.079 400.605 645.282C406.228 647.028 418.427 629.519 436.674 593.118C455.083 556.637 479.258 501.71 508.913 429.59C554.796 317.83 597.606 203.559 599.839 196.479C599.961 196.115 599.921 195.832 599.759 195.508C596.853 188.464 554.992 168.39 481.698 139.017C423.047 115.486 359.297 91.8686 341.094 85.7798Z" fill="#9FBEED" fill-opacity="0.6"/>
<path d="M404.883 656.294C390.927 651.626 328.753 629.75 266.743 606.58C230.055 592.824 200.891 581.585 180.303 572.944C168.33 567.995 159.067 563.817 152.758 560.493C146.773 557.411 143.578 555.263 142.932 553.967C142.851 553.805 142.811 553.522 142.892 553.279C144.435 548.668 187.739 426.061 232.334 307.663C261.834 229.15 285.447 169.447 302.402 130.455C319.56 90.8569 329.858 72.1724 333.984 73.5525C342.762 76.3538 408.333 99.3659 473.943 123.875C510.632 137.631 539.796 148.871 560.384 157.511C572.559 162.663 581.943 166.881 587.928 169.963C597.15 174.666 598.079 176.326 597.795 177.176C596.414 181.707 553.354 303.181 508.353 422.792C478.853 501.305 455.24 561.009 438.285 600C421.127 639.598 410.829 658.283 406.703 656.903C406.339 656.781 405.732 656.578 404.883 656.294ZM322.922 87.6636C317.733 97.1273 311 111.607 302.604 130.658C285.649 169.649 262.198 229.272 232.536 307.866C187.941 426.263 144.556 548.709 143.094 553.482C143.054 553.603 143.094 553.887 143.175 554.049C143.699 555.304 146.894 557.452 152.799 560.371C159.149 563.575 168.411 567.752 180.384 572.701C200.972 581.342 230.015 592.541 266.703 606.297C332.192 630.766 397.763 653.778 406.663 656.619C406.784 656.66 407.027 656.741 407.189 656.661C407.027 656.741 406.784 656.66 406.663 656.619C406.299 656.498 405.692 656.295 405.085 656.092C391.493 651.546 328.47 629.386 266.703 606.297C188.958 577.323 145.112 558.745 143.094 553.887C143.013 553.725 142.932 553.563 143.013 553.32C144.597 548.587 187.941 425.859 232.455 307.704C261.549 230.404 285.04 171.065 302.037 131.547C310.878 111.971 317.692 97.2486 322.922 87.6636ZM335.844 74.8493C334.994 74.5652 334.388 74.3623 333.902 74.1999C331.354 73.3475 323.898 82.7278 302.603 131.872C285.485 171.349 262.115 230.728 233.021 308.028C188.548 426.062 145.041 548.871 143.58 553.644C143.539 553.766 143.498 553.887 143.579 554.049C145.517 558.745 189.362 577.324 266.986 606.257C331.747 630.482 397.804 653.656 406.946 656.579C409.494 657.432 416.95 648.051 438.246 598.907C455.363 559.431 478.692 500.172 507.827 422.751C552.909 302.897 595.888 181.666 597.269 177.135C597.309 177.014 597.228 176.852 597.228 176.852C595.291 172.156 551.405 153.698 473.821 124.644C411.852 101.352 349.921 79.558 335.844 74.8493ZM597.472 176.528C597.552 176.69 597.633 176.852 597.552 177.095C596.171 181.625 553.192 302.857 508.11 422.711C478.976 500.132 455.525 559.35 438.529 598.867C432.566 612.66 427.415 624.026 423.117 632.843C427.374 624.147 432.404 613.145 438.204 599.838C455.159 560.847 478.61 501.224 508.272 422.63C553.273 303.019 596.333 181.545 597.714 177.014C598.12 175.8 594.966 173.531 588.009 170.125C581.902 167.002 572.64 162.825 560.465 157.673C539.877 149.033 510.834 137.834 474.146 124.078C408.535 99.5684 342.964 76.5563 334.186 73.755C333.7 73.5927 332.972 73.7538 332.202 74.4409C332.931 73.8752 333.7 73.5927 334.186 73.755C343.085 76.5969 408.657 99.609 474.146 124.078C551.567 153.213 595.534 171.832 597.472 176.528Z" fill="#9FBEED" fill-opacity="0.6"/>
<path d="M405.238 665.318C384.972 658.539 329.917 639.989 275.995 621.278C224.339 603.46 187.61 590.23 166.778 582.318C149.465 575.583 147.039 573.961 146.837 573.354C146.757 573.192 146.797 573.071 146.797 573.071C147.609 570.644 190.108 443.989 234.714 315.071C260.325 240.924 281.145 182.31 296.443 140.606C325.459 61.5251 328.007 62.3775 328.978 62.7022C332.983 64.0418 399.849 86.4078 466.149 109.259C521.648 128.497 559.875 142.093 579.654 149.923C595.874 156.293 595.631 157.021 595.428 157.628C594.616 160.055 552.076 286.831 507.511 415.628C482.022 489.412 461.203 548.025 445.822 589.972C416.807 669.053 414.259 668.2 413.288 667.876C412.519 667.753 409.728 666.82 405.238 665.318ZM147.121 573.314C148.17 575.824 192.747 592.219 276.198 621.076C341.85 643.846 409.203 666.374 413.329 667.754C413.693 667.876 414.421 668.12 418.801 658.655C424.114 646.804 433.203 623.667 445.539 590.012C460.919 548.065 481.658 489.29 507.228 415.668C551.793 286.871 594.454 160.136 595.145 157.668C595.794 155.727 552.351 139.576 466.149 109.663C399.89 86.6911 333.023 64.3251 328.977 63.1069C328.613 62.9851 327.885 62.7416 323.505 72.206C318.192 84.057 309.103 107.194 296.767 140.849C281.509 182.432 260.77 241.207 235.078 315.193C190.472 444.111 147.852 570.725 147.161 573.193C146.999 573.274 146.999 573.274 147.121 573.314ZM403.984 664.629C382.99 657.606 330.119 639.787 276.562 621.198C239.185 608.291 209.008 597.658 187.246 589.704C160.549 579.964 147.039 574.366 147.161 573.193C148.257 569.916 191.041 442.412 235.078 315.193C260.405 241.895 281.224 183.281 296.807 140.728C305.897 115.972 313.242 96.8391 318.556 83.7742C324.398 69.5362 327.804 62.5796 329.018 62.9855C333.023 64.3251 399.283 86.4881 465.825 109.42C503.445 122.408 533.5 133.001 555.141 140.914C580.746 150.289 594.62 156.009 595.145 157.264L595.104 157.385C594.293 159.812 551.915 286.103 507.188 415.385C481.983 488.319 461.163 546.932 445.499 589.729C436.368 614.606 429.024 633.739 423.75 646.682C417.908 660.92 414.502 667.877 413.288 667.471C412.479 667.47 409.203 666.374 403.984 664.629ZM337.674 66.1509C332.699 64.4866 329.544 63.4312 328.815 63.1877C328.451 63.0659 326.71 64.2376 318.678 83.8147C313.363 96.8797 306.019 116.012 296.929 140.768C281.346 183.322 260.526 241.935 235.24 315.112C191.162 442.453 148.257 569.916 147.323 573.112C147.323 573.517 151.326 576.07 187.246 589.299C209.13 597.294 239.185 607.886 276.562 620.793C343.55 644.009 409.446 666.051 413.37 667.228C413.734 667.35 415.475 666.178 423.507 646.601C428.781 633.658 436.126 614.525 445.256 589.648C460.92 546.851 481.74 488.238 506.945 415.304C551.591 286.264 593.847 160.338 594.862 157.304C594.66 156.697 590.293 154.021 554.939 141.117C533.298 133.203 503.243 122.611 465.623 109.622C411.984 91.2763 358.548 73.1326 337.674 66.1509Z" fill="#9FBEED" fill-opacity="0.6"/>
<path d="M150.62 593.106L150.701 592.863L323.728 51.7713L323.971 51.8524L592.98 137.919L592.898 138.162L419.872 679.254L419.629 679.172L150.62 593.106ZM323.768 52.0546L150.823 592.904L419.589 678.889L592.534 138.04L323.768 52.0546ZM150.985 592.823L151.025 592.702L323.768 52.0546L323.89 52.0952L592.575 137.919L592.534 138.04L419.791 678.687L419.67 678.646L150.985 592.823ZM324.051 52.4191L151.309 592.661L419.589 678.484L592.21 138.202L324.051 52.4191Z" fill="#9FBEED" fill-opacity="0.6"/>
</svg>
