<svg width="44" height="45" viewBox="0 0 44 45" fill="none" xmlns="http://www.w3.org/2000/svg">
<circle cx="22" cy="22" r="22" fill="#E2F5F6"/>
<path d="M11.2634 1.62395C12.2771 0.605915 13.6537 0.0322732 15.0903 0.0292165L28.8161 1.22789e-05C30.2528 -0.0030445 31.6318 0.564736 32.6498 1.57845L42.376 11.2634C43.3941 12.2771 43.9677 13.6537 43.9708 15.0903L44 28.8161C44.003 30.2528 43.4353 31.6318 42.4216 32.6498L32.7366 42.376C31.7229 43.3941 30.3463 43.9677 28.9097 43.9708L15.1839 44C13.7472 44.003 12.3682 43.4353 11.3502 42.4216L1.62395 32.7366C0.605915 31.7229 0.0322732 30.3463 0.0292165 28.9097L1.22789e-05 15.1839C-0.0030445 13.7472 0.564736 12.3682 1.57845 11.3502L11.2634 1.62395Z" fill="#D9E5F8"/>
<path d="M31.114 22.9325V23.9801C31.114 24.263 30.894 24.4935 30.6006 24.5039H29.0711C28.5159 24.5039 28.013 24.0954 27.9711 23.5506C27.9397 23.2258 28.0654 22.922 28.2749 22.7125C28.4635 22.5135 28.7254 22.4087 29.0082 22.4087H30.5901C30.894 22.4192 31.114 22.6496 31.114 22.9325Z" fill="#3F7CDB"/>
<path d="M27.4895 21.9373C26.9657 22.4506 26.7142 23.2154 26.9238 24.0116C27.1961 24.9858 28.1495 25.6039 29.1552 25.6039H30.0666C30.6428 25.6039 31.1142 26.0754 31.1142 26.6516V26.8506C31.1142 29.0192 29.3438 30.7897 27.1752 30.7897H15.1485C12.9799 30.7897 11.2095 29.0192 11.2095 26.8506V19.8001C11.2095 18.5116 11.8276 17.3697 12.7809 16.6573C13.4409 16.1544 14.258 15.8611 15.1485 15.8611H27.1752C29.3438 15.8611 31.1142 17.6316 31.1142 19.8001V20.2611C31.1142 20.8373 30.6428 21.3087 30.0666 21.3087H28.998C28.4114 21.3087 27.8771 21.5392 27.4895 21.9373Z" fill="#3F7CDB"/>
<path d="M25.614 13.6924C25.8969 13.9753 25.656 14.4153 25.2579 14.4153L17.2121 14.4048C16.7512 14.4048 16.5102 13.8391 16.8455 13.5143L18.5426 11.8067C19.9779 10.382 22.3036 10.382 23.7388 11.8067L25.5721 13.661C25.5826 13.6715 25.6036 13.682 25.614 13.6924Z" fill="#3F7CDB"/>
<path fill-rule="evenodd" clip-rule="evenodd" d="M0.00506998 15.321C0.00153109 15.4028 -0.000162611 15.4848 1.22789e-05 15.567L0.0292165 29.2928C0.0322732 30.7294 0.605915 32.106 1.62395 33.1197L11.3502 42.8047C12.3682 43.8184 13.7472 44.3862 15.1839 44.3831L28.9097 44.3539C30.3463 44.3508 31.7229 43.7772 32.7366 42.7592L42.4216 33.0329C43.4353 32.0149 44.003 30.6359 44 29.1992L43.9949 26.8221C43.9366 28.1694 43.3773 29.4501 42.4216 30.4099L32.7366 40.1361C31.7229 41.1541 30.3463 41.7278 28.9097 41.7308L15.1839 41.76C13.7472 41.7631 12.3682 41.1953 11.3502 40.1816L1.62395 30.4967C0.605915 29.483 0.0322732 28.1064 0.0292165 26.6697L0.00506998 15.321Z" fill="#0B1C56"/>
</svg>
