<svg width="25" height="74" viewBox="0 0 25 74" fill="none" xmlns="http://www.w3.org/2000/svg">
<path d="M24.0621 4.91539C23.3147 4.0808 21.8197 3.3544 19.7841 2.84438L19.7682 0.850644C17.6213 0.294252 14.9813 0.000601536 12.2619 0.031512C9.54239 0.0624225 6.90244 0.386984 4.75549 0.974285L4.77139 2.96802C2.75167 3.52441 1.27267 4.26627 0.541113 5.11631C-0.190439 5.96635 -0.126826 6.86276 0.700146 7.68189C1.54302 8.50102 3.10155 9.21196 5.20078 9.69108C7.28412 10.1856 9.79684 10.4329 12.3573 10.402C14.9177 10.3866 17.4145 10.0775 19.4979 9.55198C21.5812 9.0265 23.1397 8.28465 23.9508 7.45006C24.7778 6.63093 24.8096 5.73452 24.0621 4.91539Z" stroke="#9FBEED" stroke-width="0.3126" stroke-miterlimit="10"/>
<path d="M24.0777 6.72415C23.3303 5.88957 21.8354 5.16317 19.7997 4.65314L19.7838 2.65941C17.6369 2.11847 14.981 1.82482 12.2616 1.85573C9.54211 1.87119 6.91806 2.19575 4.77111 2.78305L4.78702 4.79224C2.7673 5.34863 1.28829 6.09049 0.556738 6.94053C-0.174814 7.79057 -0.111201 8.68698 0.715771 9.50611C1.55865 10.3252 3.11717 11.0362 5.21641 11.5153C7.31564 11.9944 9.81246 12.2572 12.3729 12.2262C14.9333 12.2108 17.4301 11.9017 19.5135 11.3762C21.5968 10.8507 23.1553 10.1089 23.9664 9.27428C24.7934 8.45515 24.8252 7.55874 24.0777 6.72415Z" stroke="#9FBEED" stroke-width="0.3282" stroke-miterlimit="10"/>
<path d="M24.0936 8.53275C23.3462 7.69816 21.8513 6.97176 19.8156 6.46174L19.7997 4.468C17.6528 3.92707 14.9969 3.63342 12.2775 3.66433C9.55801 3.69524 6.91806 4.0198 4.77112 4.6071L4.78702 6.60083C2.7673 7.15722 1.28829 7.89908 0.556738 8.74912C-0.174814 9.59916 -0.111201 10.4956 0.715771 11.3147C1.55865 12.1338 3.11717 12.8448 5.21641 13.3239C7.29974 13.8185 9.81246 14.0657 12.3729 14.0348C14.9333 14.0194 17.4301 13.7103 19.5135 13.1848C21.5968 12.6593 23.1553 11.9175 23.9664 11.0829C24.8093 10.2637 24.8411 9.36733 24.0936 8.53275Z" stroke="#9FBEED" stroke-width="0.3438" stroke-miterlimit="10"/>
<path d="M24.1249 10.355C23.3774 9.52043 21.8825 8.79403 19.8469 8.284L19.831 6.29027C17.684 5.74933 15.0282 5.45568 12.3087 5.48659C9.58926 5.5175 6.94931 5.84206 4.80236 6.42937L4.81827 8.4231C2.79855 8.97949 1.31954 9.72135 0.587988 10.5714C-0.143564 11.4214 -0.0799506 12.3178 0.747021 13.137C1.5899 13.9406 3.14842 14.6516 5.24766 15.1462C7.33099 15.6407 9.84371 15.888 12.4041 15.8571C14.9646 15.8416 17.4614 15.5325 19.5447 15.0071C21.6281 14.4816 23.1866 13.7397 23.9977 12.9051C24.8246 12.086 24.8564 11.1896 24.1249 10.355Z" stroke="#9FBEED" stroke-width="0.3594" stroke-miterlimit="10"/>
<path d="M24.1425 12.1636C23.395 11.329 21.9001 10.6026 19.8645 10.0926L19.8486 8.09886C17.7016 7.55793 15.0458 7.26428 12.3263 7.29519C9.60684 7.3261 6.96689 7.65066 4.81994 8.23796L4.83585 10.2317C2.81613 10.7881 1.33712 11.5299 0.605566 12.38C-0.125986 13.23 -0.0623725 14.1264 0.764599 14.9456C1.60747 15.7647 3.166 16.4756 5.26524 16.9548C7.34857 17.4493 9.86129 17.6966 12.4217 17.6657C14.9822 17.6502 17.479 17.3411 19.5623 16.8157C21.6456 16.2902 23.2042 15.5483 24.0152 14.7137C24.8422 13.8946 24.8899 12.9982 24.1425 12.1636Z" stroke="#9FBEED" stroke-width="0.3751" stroke-miterlimit="10"/>
<path d="M24.1581 13.9878C23.4106 13.1532 21.9157 12.4268 19.8801 11.9168L19.8642 9.92308C17.7172 9.38214 15.0614 9.08849 12.3419 9.1194C9.62246 9.1194 6.98251 9.45942 4.83557 10.0467L4.85147 12.0405C2.83175 12.5968 1.35274 13.3387 0.621191 14.1887C-0.110361 15.0388 -0.0467475 15.9352 0.780224 16.7543C1.6231 17.5735 3.18162 18.2844 5.28086 18.7635C7.36419 19.2581 9.87692 19.5054 12.4373 19.4745C14.9978 19.459 17.4946 19.1499 19.5779 18.6244C21.6613 18.0989 23.2198 17.3571 24.0309 16.5225C24.8578 15.7188 24.9055 14.807 24.1581 13.9878Z" stroke="#9FBEED" stroke-width="0.3907" stroke-miterlimit="10"/>
<path d="M24.1737 15.7964C23.4263 14.9618 21.9313 14.2354 19.8957 13.7254L19.8798 11.7317C17.7329 11.1907 15.077 10.8971 12.3576 10.928C9.63809 10.9589 6.99814 11.2835 4.85119 11.8708L4.8671 13.8645C2.84738 14.4209 1.36837 15.1628 0.636817 16.0128C-0.0947357 16.8628 -0.0311225 17.7592 0.795849 18.5784C1.63872 19.3975 3.19725 20.1084 5.29649 20.5876C7.39572 21.0667 9.89254 21.3294 12.453 21.2985C15.0134 21.2831 17.5102 20.9739 19.5936 20.4485C21.6769 19.923 23.2354 19.1811 24.0465 18.3465C24.8735 17.5274 24.9212 16.631 24.1737 15.7964Z" stroke="#9FBEED" stroke-width="0.4063" stroke-miterlimit="10"/>
<path d="M24.1893 17.6187C23.4419 16.7841 21.947 16.0577 19.9113 15.5477L19.8954 13.5539C17.7485 13.013 15.0926 12.7194 12.3732 12.7503C9.65371 12.7812 7.01376 13.1057 4.86682 13.693L4.88272 15.6868C2.863 16.2432 1.38399 16.985 0.652441 17.8351C-0.0791107 18.6851 -0.0154975 19.5815 0.811474 20.4006C1.65435 21.2198 3.21287 21.9307 5.31211 22.4098C7.39544 22.9044 9.90817 23.1517 12.4686 23.1208C15.029 23.1053 17.5259 22.7962 19.6092 22.2707C21.6925 21.7453 23.251 21.0034 24.0621 20.1688C24.8891 19.3342 24.9368 18.4378 24.1893 17.6187Z" stroke="#9FBEED" stroke-width="0.4219" stroke-miterlimit="10"/>
<path d="M24.205 19.4273C23.4575 18.5927 21.9626 17.8663 19.927 17.3563L19.9111 15.3625C17.7641 14.8216 15.1083 14.5279 12.3888 14.5589C9.66934 14.5898 7.02939 14.9143 4.88244 15.5016L4.89835 17.4954C2.87863 18.0518 1.39962 18.7936 0.668067 19.6437C-0.0634857 20.4937 0.000127479 21.3901 0.827099 22.2092C1.66997 23.0284 3.2285 23.7393 5.32774 24.2184C7.42697 24.6975 9.92379 24.9603 12.4842 24.9294C15.0447 24.9139 17.5415 24.6048 19.6248 24.0793C21.7081 23.5538 23.2667 22.812 24.0777 21.9774C24.9047 21.1583 24.9524 20.2619 24.205 19.4273Z" stroke="#9FBEED" stroke-width="0.4376" stroke-miterlimit="10"/>
<path d="M24.2206 21.2359C23.4731 20.4013 21.9782 19.6749 19.9426 19.1649L19.9267 17.1711C17.7797 16.6302 15.1239 16.3365 12.4044 16.3675C9.68496 16.3984 7.04502 16.7229 4.89807 17.3102L4.91397 19.304C2.89425 19.8603 1.41524 20.6022 0.683692 21.4522C-0.0478607 22.3023 0.0157525 23.1987 0.842724 24.0178C1.6856 24.837 3.24412 25.5479 5.34336 26.027C7.42669 26.5216 9.93942 26.7689 12.4998 26.738C15.0603 26.7225 17.5571 26.4134 19.6404 25.8879C21.7238 25.3624 23.2823 24.6206 24.0934 23.786C24.9203 22.9669 24.968 22.0705 24.2206 21.2359Z" stroke="#9FBEED" stroke-width="0.4532" stroke-miterlimit="10"/>
<path d="M24.2362 23.0601C23.4888 22.2255 21.9938 21.4991 19.9582 20.9891L19.9423 18.9953C17.7954 18.4544 15.1395 18.1608 12.4201 18.1917C9.70059 18.2226 7.06064 18.5471 4.91369 19.1344L4.9296 21.1282C2.90988 21.6846 1.43087 22.4264 0.699317 23.2765C-0.0322357 24.1265 0.0313775 25.0229 0.858349 25.842C1.70122 26.6612 3.25975 27.3721 5.35899 27.8512C7.45822 28.3304 9.95504 28.5931 12.5155 28.5622C15.0759 28.5467 17.5727 28.2376 19.6561 27.7121C21.7394 27.1867 23.2979 26.4448 24.109 25.6102C24.9519 24.7911 24.9837 23.8947 24.2362 23.0601Z" stroke="#9FBEED" stroke-width="0.4688" stroke-miterlimit="10"/>
<path d="M24.2538 24.8687C23.5063 24.0341 22.0114 23.3077 19.9758 22.7977L19.9599 20.8039C17.813 20.263 15.1571 19.9694 12.4376 20.0003C9.71817 20.0312 7.07822 20.3557 4.93127 20.943L4.94717 22.9368C2.92745 23.4932 1.44845 24.235 0.716895 25.0851C-0.0146576 25.9351 0.0489556 26.8315 0.875928 27.6506C1.7188 28.4698 3.27733 29.1807 5.37656 29.6598C7.4599 30.1544 9.97262 30.4017 12.5331 30.3708C15.0935 30.3553 17.5903 30.0462 19.6736 29.5207C21.757 28.9953 23.3155 28.2534 24.1266 27.4188C24.9694 26.5997 25.0012 25.7033 24.2538 24.8687Z" stroke="#9FBEED" stroke-width="0.4845" stroke-miterlimit="10"/>
<path d="M24.2694 26.6929C23.522 25.8583 22.0271 25.1319 19.9914 24.6219L19.9755 22.6282C17.8286 22.0872 15.1727 21.7936 12.4533 21.8245C9.73379 21.8554 7.09384 22.18 4.9469 22.7673L4.9628 24.761C2.94308 25.3174 1.46407 26.0592 0.73252 26.9093C0.000967371 27.7593 0.0645806 28.6557 0.891553 29.4749C1.73443 30.294 3.29295 31.0049 5.39219 31.484C7.49143 31.9632 9.98825 32.2259 12.5487 32.195C15.1091 32.1795 17.6059 31.8704 19.6893 31.3449C21.7726 30.8195 23.3311 30.0776 24.1422 29.243C24.9851 28.4084 25.0169 27.512 24.2694 26.6929Z" stroke="#9FBEED" stroke-width="0.5001" stroke-miterlimit="10"/>
<path d="M24.285 28.4995C23.5376 27.665 22.0427 26.9386 20.0071 26.4285L19.9911 24.4348C17.8442 23.8939 15.1884 23.6002 12.4689 23.6311C9.74942 23.662 7.10947 23.9866 4.96252 24.5739L4.97842 26.5676C2.9587 27.124 1.4797 27.8659 0.748145 28.7159C0.0165924 29.566 0.0802056 30.4624 0.907178 31.2815C1.75005 32.1006 3.30858 32.8116 5.40781 33.2907C7.49115 33.7853 10.0039 34.0325 12.5643 34.0016C15.1247 33.9862 17.6216 33.6771 19.7049 33.1516C21.7882 32.6261 23.3467 31.8843 24.1578 31.0497C25.0007 30.2305 25.0325 29.3341 24.285 28.4995Z" stroke="#9FBEED" stroke-width="0.5157" stroke-miterlimit="10"/>
<path d="M24.3007 30.3081C23.5532 29.4736 22.0583 28.7472 20.0227 28.2371L20.0068 26.2434C17.8598 25.7025 15.204 25.4088 12.4845 25.4397C9.76504 25.4706 7.12509 25.7952 4.97815 26.3825L4.99405 28.3762C2.97433 28.9326 1.49532 29.6745 0.76377 30.5245C0.0322174 31.3746 0.0958306 32.271 0.922803 33.0901C1.76568 33.9092 3.3242 34.6202 5.42344 35.0993C7.50677 35.5939 10.0195 35.8411 12.5799 35.8102C15.1404 35.7948 17.6372 35.4857 19.7205 34.9602C21.8039 34.4347 23.3624 33.6928 24.1734 32.8583C25.0163 32.0391 25.0481 31.1427 24.3007 30.3081Z" stroke="#9FBEED" stroke-width="0.5313" stroke-miterlimit="10"/>
<path d="M24.3319 32.1324C23.5845 31.2978 22.0896 30.5714 20.0539 30.0613L20.038 28.0676C17.8911 27.5267 15.2352 27.233 12.5158 27.2639C9.79629 27.2948 7.15634 27.6194 5.0094 28.2067L5.0253 30.2004C3.00558 30.7568 1.52657 31.4987 0.79502 32.3487C0.0634674 33.1988 0.127081 34.0952 0.954053 34.9143C1.79693 35.7334 3.35545 36.4444 5.45469 36.9235C7.55393 37.4026 10.0507 37.6654 12.6112 37.6344C15.1716 37.619 17.6684 37.3099 19.7518 36.7844C21.8351 36.2589 23.3936 35.5171 24.2047 34.6825C25.0317 33.8634 25.0635 32.9669 24.3319 32.1324Z" stroke="#9FBEED" stroke-width="0.547" stroke-miterlimit="10"/>
<path d="M24.3475 33.941C23.6001 33.1064 22.1052 32.38 20.0695 31.8699L20.0536 29.8762C17.9067 29.3353 15.2508 29.0416 12.5314 29.0725C9.81192 29.1034 7.17197 29.428 5.02502 30.0153L5.04092 32.009C3.0212 32.5654 1.5422 33.3073 0.810645 34.1573C0.0790924 35.0074 0.142706 35.9038 0.969678 36.7229C1.81255 37.542 3.37108 38.253 5.47031 38.7321C7.55365 39.2267 10.0664 39.4739 12.6268 39.443C15.1872 39.4276 17.6841 39.1185 19.7674 38.593C21.8507 38.0675 23.4092 37.3257 24.2203 36.4911C25.0473 35.6719 25.095 34.7755 24.3475 33.941Z" stroke="#9FBEED" stroke-width="0.5626" stroke-miterlimit="10"/>
<path d="M24.3651 35.7652C23.6177 34.9306 22.1228 34.2042 20.0871 33.6942L20.0712 31.7004C17.9243 31.1595 15.2684 30.8658 12.549 30.8967C9.8295 30.9277 7.18955 31.2522 5.0426 31.8395L5.0585 33.8333C3.03878 34.3896 1.55978 35.1315 0.828223 35.9815C0.0966705 36.8316 0.160284 37.728 0.987256 38.5471C1.83013 39.3663 3.38866 40.0772 5.48789 40.5563C7.58713 41.0354 10.084 41.2982 12.6444 41.2673C15.2048 41.2518 17.7016 40.9427 19.785 40.4172C21.8683 39.8917 23.4268 39.1499 24.2379 38.3153C25.0649 37.4807 25.1126 36.5843 24.3651 35.7652Z" stroke="#9FBEED" stroke-width="0.5782" stroke-miterlimit="10"/>
<path d="M24.3807 37.5718C23.6333 36.7372 22.1384 36.0108 20.1028 35.5008L20.0869 33.5071C17.9399 32.9661 15.2841 32.6725 12.5646 32.7034C9.84512 32.7343 7.20517 33.0589 5.05822 33.6462L5.07413 35.6399C3.05441 36.1963 1.5754 36.9381 0.843848 37.7882C0.112296 38.6382 0.175909 39.5346 1.00288 40.3538C1.84576 41.1729 3.40428 41.8838 5.50352 42.363C7.58685 42.8575 10.0996 43.1048 12.66 43.0739C15.2204 43.0584 17.7173 42.7493 19.8006 42.2239C21.8839 41.6984 23.4424 40.9565 24.2535 40.1219C25.0805 39.3028 25.1282 38.4064 24.3807 37.5718Z" stroke="#9FBEED" stroke-width="0.5939" stroke-miterlimit="10"/>
<path d="M24.3964 39.396C23.6489 38.5614 22.154 37.835 20.1184 37.325L20.1025 35.3313C17.9555 34.7903 15.2997 34.4967 12.5802 34.5276C9.86075 34.5585 7.2208 34.8831 5.07385 35.4704L5.08975 37.4641C3.07003 38.0205 1.59102 38.7624 0.859473 39.6124C0.127921 40.4624 0.191534 41.3589 1.01851 42.178C1.86138 42.9971 3.41991 43.7081 5.51914 44.1872C7.60248 44.6817 10.1152 44.929 12.6756 44.8981C15.2361 44.8827 17.7329 44.5736 19.8162 44.0481C21.8995 43.5226 23.4581 42.7807 24.2691 41.9462C25.0961 41.1116 25.1438 40.2152 24.3964 39.396Z" stroke="#9FBEED" stroke-width="0.6095" stroke-miterlimit="10"/>
<path d="M24.4286 41.2815C23.6812 40.4469 22.2022 39.705 20.1666 39.1795L20.1666 37.1858C18.0196 36.6294 15.3797 36.3203 12.6602 36.3203C9.94073 36.3203 7.30078 36.6449 5.15383 37.2167L5.15383 39.2105C3.11821 39.7514 1.6392 40.4932 0.90765 41.3278C0.176098 42.1624 0.223808 43.0588 1.05078 43.8934C1.87775 44.7125 3.45218 45.4389 5.53551 45.9335C7.61885 46.4281 10.1316 46.7063 12.692 46.7063C15.2524 46.7063 17.7493 46.4281 19.8326 45.9026C21.9159 45.3926 23.4903 44.6662 24.3014 43.8316C25.1125 43.0125 25.1602 42.1161 24.4286 41.2815Z" stroke="#9FBEED" stroke-width="0.6251" stroke-miterlimit="10"/>
<path d="M24.4288 42.7187C23.6972 41.8841 22.2182 41.1268 20.1826 40.5859L20.1985 38.5921C18.0516 38.0203 15.4116 37.6957 12.6922 37.6803C9.97269 37.6648 7.33274 37.9585 5.16989 38.5303L5.15399 40.524C3.11836 41.0495 1.62345 41.7759 0.8919 42.6105C0.144445 43.4451 0.192154 44.3415 1.01913 45.1761C1.8461 46.0107 3.40462 46.7371 5.48796 47.2471C7.57129 47.7726 10.0681 48.0508 12.6444 48.0662C15.2049 48.0817 17.7017 47.819 19.8009 47.3089C21.8843 46.8144 23.4587 46.1034 24.2857 45.2688C25.1126 44.4651 25.1604 43.5687 24.4288 42.7187Z" stroke="#9FBEED" stroke-width="0.6251" stroke-miterlimit="10"/>
<path d="M24.4288 44.08C23.6972 43.2454 22.2182 42.4881 20.1826 41.9472L20.1985 39.9535C18.0516 39.3816 15.4116 39.0571 12.6922 39.0416C9.97269 39.0261 7.33274 39.3198 5.16989 39.8916L5.15399 41.8854C3.11836 42.4109 1.62345 43.1372 0.8919 43.9718C0.144445 44.8064 0.192154 45.7028 1.01913 46.5374C1.8461 47.372 3.40462 48.0984 5.48796 48.6084C7.57129 49.1339 10.0681 49.4121 12.6444 49.4276C15.2049 49.443 17.7017 49.1803 19.8009 48.6702C21.8843 48.1757 23.4587 47.4647 24.2857 46.6302C25.1126 45.8265 25.1604 44.9301 24.4288 44.08Z" stroke="#9FBEED" stroke-width="0.6251" stroke-miterlimit="10"/>
<path d="M24.4112 45.4394C23.6797 44.6048 22.2007 43.8475 20.165 43.3066L20.1809 41.3128C18.034 40.741 15.394 40.4164 12.6746 40.401C9.95511 40.3855 7.31516 40.6792 5.15231 41.251L5.13641 43.2447C3.10079 43.7702 1.60587 44.4966 0.874322 45.3312C0.126866 46.1658 0.174576 47.0622 1.00155 47.8968C1.82852 48.7314 3.38704 49.4578 5.47038 49.9678C7.55371 50.4933 10.0505 50.7715 12.6269 50.7869C15.1873 50.8024 17.6841 50.5397 19.7834 50.0296C21.8667 49.5351 23.4411 48.8241 24.2681 47.9895C25.0951 47.1859 25.1428 46.2894 24.4112 45.4394Z" stroke="#9FBEED" stroke-width="0.6251" stroke-miterlimit="10"/>
<path d="M24.4112 46.8144C23.6797 45.9798 22.2007 45.2225 20.165 44.6816L20.1809 42.6878C18.034 42.116 15.394 41.7914 12.6746 41.776C9.95511 41.7605 7.31516 42.0542 5.15231 42.626L5.13641 44.6198C3.10079 45.1452 1.60587 45.8716 0.874322 46.7062C0.126866 47.5408 0.174576 48.4372 1.00155 49.2718C1.82852 50.1064 3.38704 50.8328 5.47038 51.3428C7.55371 51.8683 10.0505 52.1465 12.6269 52.1619C15.1873 52.1774 17.6841 51.9147 19.7834 51.4046C21.8667 50.9101 23.4411 50.1991 24.2681 49.3645C25.0951 48.5454 25.1428 47.649 24.4112 46.8144Z" stroke="#9FBEED" stroke-width="0.6251" stroke-miterlimit="10"/>
<path d="M24.3956 48.1757C23.664 47.3411 22.185 46.5838 20.1494 46.0429L20.1653 44.0492C18.0184 43.4773 15.3784 43.1528 12.6589 43.1373C9.93948 43.1218 7.29954 43.4155 5.13669 43.9873L5.12078 45.9811C3.08516 46.5066 1.59025 47.233 0.858697 48.0675C0.111241 48.9021 0.158951 49.7985 0.985923 50.6331C1.81289 51.4677 3.37142 52.1941 5.45475 52.7041C7.53808 53.2296 10.0349 53.5078 12.6112 53.5233C15.1717 53.5387 17.6685 53.276 19.7677 52.766C21.8511 52.2714 23.4255 51.5604 24.2525 50.7259C25.0794 49.9067 25.143 49.0103 24.3956 48.1757Z" stroke="#9FBEED" stroke-width="0.6251" stroke-miterlimit="10"/>
<path d="M24.3956 49.5351C23.664 48.7005 22.185 47.9432 20.1494 47.4023L20.1653 45.4085C18.0184 44.8367 15.3784 44.5121 12.659 44.4967C9.93949 44.4812 7.29954 44.7749 5.13669 45.3467L5.12078 47.3404C3.08516 47.8659 1.59025 48.5923 0.858697 49.4269C0.111241 50.2615 0.158951 51.1579 0.985923 51.9925C1.8129 52.8271 3.37142 53.5535 5.45475 54.0635C7.53809 54.589 10.0349 54.8672 12.6112 54.8826C15.1717 54.8981 17.6685 54.6354 19.7677 54.1253C21.8511 53.6308 23.4255 52.9198 24.2525 52.0852C25.0794 51.2661 25.1271 50.3697 24.3956 49.5351Z" stroke="#9FBEED" stroke-width="0.6251" stroke-miterlimit="10"/>
<path d="M24.3956 50.8945C23.664 50.0599 22.185 49.3026 20.1494 48.7616L20.1653 46.7679C18.0184 46.1961 15.3784 45.8715 12.659 45.856C9.93949 45.8406 7.29954 46.1342 5.13669 46.7061L5.12078 48.6998C3.08516 49.2253 1.59025 49.9517 0.858697 50.7863C0.111241 51.6209 0.158951 52.5173 0.985923 53.3519C1.8129 54.1865 3.37142 54.9129 5.45475 55.4229C7.53809 55.9329 10.0349 56.2266 12.6112 56.242C15.1717 56.2575 17.6685 55.9947 19.7677 55.4847C21.8511 54.9901 23.4255 54.2792 24.2525 53.4446C25.0794 52.6255 25.1271 51.7291 24.3956 50.8945Z" stroke="#9FBEED" stroke-width="0.6251" stroke-miterlimit="10"/>
<path d="M24.38 52.2558C23.6484 51.4212 22.1694 50.6639 20.1338 50.123L20.1497 48.1292C18.0027 47.5574 15.3628 47.2328 12.6433 47.2174C9.92386 47.2019 7.28391 47.4956 5.12106 48.0674L5.10516 50.0612C3.06954 50.5866 1.57462 51.313 0.843072 52.1476C0.0956164 52.9822 0.143326 53.8786 0.970298 54.7132C1.79727 55.5478 3.35579 56.2742 5.43913 56.7842C7.52246 57.2942 10.0193 57.5879 12.5956 57.6033C15.1561 57.6188 17.6529 57.3561 19.7521 56.846C21.8354 56.3515 23.4099 55.6405 24.2368 54.8059C25.0638 53.9868 25.1115 53.0904 24.38 52.2558Z" stroke="#9FBEED" stroke-width="0.6251" stroke-miterlimit="10"/>
<path d="M24.38 53.6149C23.6484 52.7804 22.1694 52.023 20.1338 51.4821L20.1497 49.4884C18.0027 48.9165 15.3628 48.592 12.6433 48.5765C9.92386 48.5611 7.28391 48.8547 5.12106 49.4266L5.10516 51.4203C3.06954 51.9458 1.57462 52.6722 0.843072 53.5068C0.0956164 54.3413 0.143326 55.2377 0.970298 56.0723C1.79727 56.9069 3.35579 57.6333 5.43913 58.1433C7.52246 58.6534 10.0193 58.947 12.5956 58.9625C15.1561 58.9779 17.6529 58.7152 19.7521 58.2052C21.8354 57.7106 23.4099 56.9997 24.2368 56.1651C25.0638 55.3614 25.1115 54.465 24.38 53.6149Z" stroke="#9FBEED" stroke-width="0.6251" stroke-miterlimit="10"/>
<path d="M24.3643 54.9746C23.6328 54.14 22.1538 53.3827 20.1182 52.8417L20.1341 50.848C17.9871 50.2761 15.3472 49.9516 12.6277 49.9361C9.90824 49.9207 7.26829 50.2143 5.10544 50.7862L5.08953 52.7799C3.05391 53.3054 1.559 54.0318 0.827447 54.8664C0.0799914 55.701 0.127701 56.5974 0.954673 57.4319C1.78165 58.2665 3.34017 58.9929 5.4235 59.503C7.50684 60.013 10.0037 60.3066 12.58 60.3221C15.1404 60.3375 17.6372 60.0748 19.7365 59.5648C21.8198 59.0702 23.3942 58.3593 24.2212 57.5247C25.0482 56.721 25.1118 55.8246 24.3643 54.9746Z" stroke="#9FBEED" stroke-width="0.6251" stroke-miterlimit="10"/>
<path d="M24.3643 56.3359C23.6328 55.5013 22.1538 54.744 20.1182 54.2031L20.1341 52.2093C17.9871 51.6375 15.3472 51.3129 12.6277 51.2975C9.90824 51.282 7.26829 51.5757 5.10544 52.1475L5.08953 54.1412C3.05391 54.6667 1.559 55.3931 0.827447 56.2277C0.0799914 57.0623 0.127701 57.9587 0.954673 58.7933C1.78165 59.6279 3.34017 60.3543 5.4235 60.8643C7.50684 61.3898 10.0037 61.668 12.58 61.6834C15.1404 61.6989 17.6372 61.4361 19.7365 60.9261C21.8198 60.4315 23.3942 59.7206 24.2212 58.886C25.0482 58.0823 25.0959 57.1859 24.3643 56.3359Z" stroke="#9FBEED" stroke-width="0.6251" stroke-miterlimit="10"/>
<path d="M24.3643 57.7106C23.6328 56.8761 22.1538 56.1187 20.1182 55.5778L20.1341 53.5841C17.9871 53.0122 15.3472 52.6877 12.6277 52.6722C9.90824 52.6568 7.26829 52.9504 5.10544 53.5223L5.08953 55.516C3.05391 56.0415 1.559 56.7679 0.827447 57.6025C0.0799914 58.437 0.127701 59.3335 0.954673 60.168C1.78165 61.0026 3.34017 61.729 5.4235 62.2391C7.50684 62.7645 10.0037 63.0427 12.58 63.0582C15.1404 63.0736 17.6372 62.8109 19.7365 62.3009C21.8198 61.8063 23.3942 61.0954 24.2212 60.2608C25.0482 59.4416 25.0959 58.5452 24.3643 57.7106Z" stroke="#9FBEED" stroke-width="0.6251" stroke-miterlimit="10"/>
<path d="M24.3484 59.0703C23.6169 58.2357 22.1379 57.4784 20.1023 56.9374L20.1182 54.9437C17.9712 54.3718 15.3313 54.0473 12.6118 54.0318C9.89233 54.0164 7.25238 54.31 5.08953 54.8819L5.08953 56.8756C3.05391 57.4011 1.559 58.1275 0.827447 58.9621C0.0799914 59.7967 0.127701 60.6931 0.954673 61.5277C1.78165 62.3622 3.34017 63.0886 5.4235 63.5987C7.50684 64.1241 10.0037 64.4023 12.58 64.4178C15.1404 64.4333 17.6372 64.1705 19.7365 63.6605C21.8198 63.1659 23.3942 62.455 24.2212 61.6204C25.0323 60.8013 25.08 59.9048 24.3484 59.0703Z" stroke="#9FBEED" stroke-width="0.6251" stroke-miterlimit="10"/>
<path d="M24.3487 60.4316C23.6172 59.597 22.1382 58.8397 20.1025 58.2988L20.1184 56.305C17.9715 55.7332 15.3315 55.4086 12.6121 55.3932C9.89261 55.3777 7.25266 55.6714 5.08981 56.2432L5.07391 58.2369C3.03829 58.7624 1.54337 59.4888 0.811822 60.3234C0.0643664 61.158 0.112076 62.0544 0.939048 62.889C1.76602 63.7236 3.32454 64.45 5.40788 64.96C7.49121 65.4855 9.98803 65.7637 12.5644 65.7791C15.1248 65.7946 17.6216 65.5318 19.7209 65.0218C21.8042 64.5272 23.3786 63.8163 24.2056 62.9817C25.0326 62.1626 25.0803 61.2662 24.3487 60.4316Z" stroke="#9FBEED" stroke-width="0.6251" stroke-miterlimit="10"/>
<path d="M24.3331 61.791C23.6015 60.9564 22.1225 60.1991 20.0869 59.6581L20.1028 57.6644C17.9559 57.0925 15.3159 56.768 12.5965 56.7525C9.87699 56.7371 7.23704 57.0307 5.07419 57.6026L5.05828 59.5963C3.02266 60.1218 1.52775 60.8482 0.796197 61.6828C0.0487414 62.5174 0.0964513 63.4138 0.923423 64.2484C1.7504 65.0829 3.30892 65.8093 5.39225 66.3194C7.47559 66.8449 9.97241 67.123 12.5487 67.1385C15.1092 67.154 17.606 66.8912 19.7052 66.3812C21.7886 65.8866 23.363 65.1757 24.19 64.3411C25.0169 63.522 25.0806 62.6255 24.3331 61.791Z" stroke="#9FBEED" stroke-width="0.6251" stroke-miterlimit="10"/>
<path d="M24.3331 63.1503C23.6015 62.3158 22.1225 61.5584 20.0869 61.0175L20.1028 59.0238C17.9559 58.4519 15.3159 58.1274 12.5965 58.1119C9.87699 58.0965 7.23704 58.3901 5.07419 58.962L5.05828 60.9557C3.02266 61.4812 1.52775 62.2076 0.796197 63.0421C0.0487414 63.8767 0.0964513 64.7731 0.923423 65.6077C1.7504 66.4423 3.30892 67.1687 5.39225 67.6787C7.47559 68.2042 9.97241 68.4824 12.5487 68.4979C15.1092 68.5133 17.606 68.2506 19.7052 67.7406C21.7886 67.246 23.363 66.5351 24.19 65.7005C25.0169 64.8813 25.0646 63.9849 24.3331 63.1503Z" stroke="#9FBEED" stroke-width="0.6251" stroke-miterlimit="10"/>
<path d="M24.3331 64.5117C23.6015 63.6771 22.1225 62.9198 20.0869 62.3788L20.1028 60.3851C17.9559 59.8133 15.3159 59.4887 12.5965 59.4732C9.87699 59.4578 7.23704 59.7514 5.07419 60.3233L5.05828 62.317C3.02266 62.8425 1.54365 63.5844 0.796197 64.4035C0.0487414 65.2381 0.0964513 66.1345 0.923423 66.9691C1.7504 67.8036 3.30892 68.53 5.39225 69.0401C7.47559 69.5501 9.97241 69.8437 12.5487 69.8592C15.1092 69.8747 17.606 69.6119 19.7052 69.1019C21.7886 68.6073 23.363 67.8964 24.19 67.0618C25.0169 66.2581 25.0646 65.3617 24.3331 64.5117Z" stroke="#9FBEED" stroke-width="0.6251" stroke-miterlimit="10"/>
<path d="M24.3172 65.871C23.5856 65.0365 22.1066 64.2791 20.071 63.7382L20.0869 61.7445C17.94 61.1726 15.3 60.8481 12.5805 60.8326C9.86108 60.8172 7.22113 61.1108 5.05828 61.6827L5.04238 63.6764C3.02266 64.2019 1.52775 64.9437 0.796197 65.7783C0.0487414 66.6129 0.0964513 67.5093 0.923423 68.3439C1.75039 69.1785 3.30892 69.9049 5.39225 70.4149C7.47558 70.9249 9.9724 71.2186 12.5487 71.234C15.1092 71.2495 17.606 70.9867 19.7052 70.4767C21.7886 69.9822 23.363 69.2712 24.19 68.4366C25.001 67.6175 25.0487 66.7211 24.3172 65.871Z" stroke="#9FBEED" stroke-width="0.6251" stroke-miterlimit="10"/>
<path d="M24.3175 67.2324C23.5859 66.3978 22.1069 65.6405 20.0713 65.0995L20.0872 63.1058C17.9402 62.534 15.3003 62.2094 12.5808 62.1939C9.86136 62.1785 7.22141 62.4721 5.05856 63.044L5.04266 65.0377C3.00704 65.5632 1.51212 66.2896 0.780572 67.1242C0.0331164 67.9588 0.0808262 68.8552 0.907798 69.6898C1.73477 70.5244 3.29329 71.2508 5.37663 71.7608C7.45996 72.2708 9.95678 72.5645 12.5331 72.5799C15.0936 72.5954 17.5904 72.3326 19.6896 71.8226C21.7729 71.328 23.3474 70.6171 24.1743 69.7825C25.0013 68.9788 25.049 68.0824 24.3175 67.2324Z" stroke="#9FBEED" stroke-width="0.6251" stroke-miterlimit="10"/>
<path d="M24.3175 68.6074C23.5859 67.7728 22.1069 67.0155 20.0713 66.4745L20.0872 64.4808C17.9402 63.909 15.3003 63.5844 12.5808 63.5689C9.86136 63.5535 7.22141 63.8471 5.05856 64.419L5.04266 66.4127C3.00704 66.9382 1.51212 67.6646 0.780572 68.4992C0.0331164 69.3338 0.0808262 70.2302 0.907798 71.0648C1.73477 71.8994 3.29329 72.6258 5.37663 73.1358C7.45996 73.6458 9.95678 73.9395 12.5331 73.9549C15.0935 73.9704 17.5904 73.7076 19.6896 73.1976C21.7729 72.703 23.3474 71.9921 24.1743 71.1575C24.9854 70.3384 25.049 69.442 24.3175 68.6074Z" stroke="#9FBEED" stroke-width="0.6251" stroke-miterlimit="10"/>
</svg>
