<svg width="74" height="25" viewBox="0 0 74 25" fill="none" xmlns="http://www.w3.org/2000/svg">
<g clip-path="url(#clip0_2199_14314)">
<path d="M4.9149 0.937891C4.08031 1.68535 3.35391 3.18026 2.84389 5.21588L0.850154 5.23179C0.293763 7.37873 0.000112601 10.0187 0.0310232 12.7381C0.0619338 15.4576 0.386495 18.0976 0.973797 20.2445L2.96753 20.2286C3.52392 22.2483 4.26578 23.7273 5.11582 24.4589C5.96586 25.1904 6.86227 25.1268 7.6814 24.2999C8.50053 23.457 9.21148 21.8985 9.69059 19.7992C10.1852 17.7159 10.4324 15.2032 10.4015 12.6427C10.3861 10.0823 10.077 7.58548 9.55149 5.50214C9.02601 3.41881 8.28416 1.86028 7.44957 1.04921C6.63044 0.222242 5.73403 0.190435 4.9149 0.937891Z" stroke="#9FBEED" stroke-width="0.3126" stroke-miterlimit="10"/>
<path d="M6.72318 0.922271C5.88859 1.66973 5.16219 3.16464 4.65217 5.20026L2.65843 5.21616C2.1175 7.36311 1.82384 10.019 1.85476 12.7384C1.87021 15.4579 2.19477 18.0819 2.78207 20.2289L4.79126 20.213C5.34765 22.2327 6.08951 23.7117 6.93955 24.4433C7.78959 25.1748 8.686 25.1112 9.50513 24.2842C10.3243 23.4414 11.0352 21.8828 11.5143 19.7836C11.9934 17.6844 12.2562 15.1875 12.2253 12.6271C12.2098 10.0667 11.9007 7.56985 11.3752 5.48652C10.8497 3.40319 10.1079 1.84466 9.2733 1.03359C8.45417 0.206621 7.55776 0.174815 6.72318 0.922271Z" stroke="#9FBEED" stroke-width="0.3282" stroke-miterlimit="10"/>
<path d="M8.53128 0.906364C7.6967 1.65382 6.9703 3.14873 6.46027 5.18435L4.46654 5.20026C3.9256 7.3472 3.63195 10.0031 3.66286 12.7225C3.69377 15.442 4.01833 18.0819 4.60563 20.2289L6.59937 20.213C7.15576 22.2327 7.89761 23.7117 8.74766 24.4433C9.5977 25.1748 10.4941 25.1112 11.3132 24.2842C12.1324 23.4414 12.8433 21.8828 13.3224 19.7836C13.817 17.7003 14.0643 15.1875 14.0334 12.6271C14.0179 10.0667 13.7088 7.56985 13.1833 5.48652C12.6578 3.40318 11.916 1.84466 11.0814 1.03359C10.2623 0.190716 9.36587 0.158909 8.53128 0.906364Z" stroke="#9FBEED" stroke-width="0.3438" stroke-miterlimit="10"/>
<path d="M10.355 0.875116C9.52043 1.62257 8.79403 3.11748 8.284 5.15311L6.29027 5.16901C5.74933 7.31596 5.45568 9.97181 5.48659 12.6913C5.5175 15.4107 5.84206 18.0507 6.42936 20.1976L8.4231 20.1817C8.97949 22.2015 9.72135 23.6805 10.5714 24.412C11.4214 25.1436 12.3178 25.08 13.137 24.253C13.9406 23.4101 14.6516 21.8516 15.1462 19.7523C15.6407 17.669 15.888 15.1563 15.8571 12.5959C15.8416 10.0354 15.5325 7.5386 15.0071 5.45527C14.4816 3.37193 13.7397 1.81341 12.9051 1.00234C12.086 0.175371 11.1896 0.143564 10.355 0.875116Z" stroke="#9FBEED" stroke-width="0.3594" stroke-miterlimit="10"/>
<path d="M12.1636 0.857536C11.329 1.60499 10.6026 3.0999 10.0926 5.13553L8.09886 5.15143C7.55793 7.29838 7.26427 9.95423 7.29519 12.6737C7.3261 15.3932 7.65066 18.0331 8.23796 20.1801L10.2317 20.1642C10.7881 22.1839 11.5299 23.6629 12.38 24.3944C13.23 25.126 14.1264 25.0624 14.9456 24.2354C15.7647 23.3925 16.4756 21.834 16.9548 19.7348C17.4493 17.6514 17.6966 15.1387 17.6657 12.5783C17.6502 10.0178 17.3411 7.52102 16.8157 5.43769C16.2902 3.35436 15.5483 1.79583 14.7137 0.984763C13.8946 0.157791 12.9982 0.11008 12.1636 0.857536Z" stroke="#9FBEED" stroke-width="0.3751" stroke-miterlimit="10"/>
<path d="M13.9873 0.841913C13.1528 1.58937 12.4264 3.08428 11.9163 5.1199L9.92259 5.13581C9.38166 7.28275 9.088 9.93861 9.11892 12.6581C9.11892 15.3775 9.45893 18.0175 10.0462 20.1644L12.04 20.1485C12.5964 22.1682 13.3382 23.6473 14.1883 24.3788C15.0383 25.1104 15.9347 25.0467 16.7538 24.2198C17.573 23.3769 18.2839 21.8184 18.763 19.7191C19.2576 17.6358 19.5049 15.1231 19.474 12.5627C19.4585 10.0022 19.1494 7.5054 18.6239 5.42207C18.0984 3.33873 17.3566 1.78021 16.522 0.969138C15.7183 0.142166 14.8065 0.0944578 13.9873 0.841913Z" stroke="#9FBEED" stroke-width="0.3907" stroke-miterlimit="10"/>
<path d="M15.7954 0.826286C14.9609 1.57374 14.2345 3.06865 13.7244 5.10428L11.7307 5.12018C11.1898 7.26713 10.8961 9.92298 10.927 12.6424C10.9579 15.3619 11.2825 18.0019 11.8698 20.1488L13.8635 20.1329C14.4199 22.1526 15.1618 23.6316 16.0118 24.3632C16.8619 25.0947 17.7583 25.0311 18.5774 24.2042C19.3965 23.3613 20.1075 21.8028 20.5866 19.7035C21.0657 17.6043 21.3284 15.1075 21.2975 12.547C21.2821 9.98659 20.973 7.48977 20.4475 5.40644C19.922 3.32311 19.1802 1.76458 18.3456 0.953513C17.5264 0.126541 16.63 0.0788305 15.7954 0.826286Z" stroke="#9FBEED" stroke-width="0.4063" stroke-miterlimit="10"/>
<path d="M17.6192 0.810663C16.7846 1.55812 16.0582 3.05303 15.5482 5.08865L13.5544 5.10456C13.0135 7.2515 12.7198 9.90735 12.7508 12.6268C12.7817 15.3463 13.1062 17.9862 13.6935 20.1332L15.6873 20.1173C16.2437 22.137 16.9855 23.616 17.8355 24.3476C18.6856 25.0791 19.582 25.0155 20.4011 24.1885C21.2203 23.3456 21.9312 21.7871 22.4103 19.6879C22.9049 17.6046 23.1522 15.0918 23.1213 12.5314C23.1058 9.97097 22.7967 7.47415 22.2712 5.39082C21.7457 3.30748 21.0039 1.74896 20.1693 0.93789C19.3347 0.110918 18.4383 0.0632078 17.6192 0.810663Z" stroke="#9FBEED" stroke-width="0.4219" stroke-miterlimit="10"/>
<path d="M19.4273 0.795036C18.5927 1.54249 17.8663 3.0374 17.3563 5.07303L15.3625 5.08893C14.8216 7.23588 14.5279 9.89173 14.5589 12.6112C14.5898 15.3307 14.9143 17.9706 15.5016 20.1176L17.4954 20.1017C18.0518 22.1214 18.7936 23.6004 19.6437 24.3319C20.4937 25.0635 21.3901 24.9999 22.2092 24.1729C23.0284 23.33 23.7393 21.7715 24.2184 19.6723C24.6975 17.573 24.9603 15.0762 24.9294 12.5158C24.9139 9.95534 24.6048 7.45852 24.0793 5.37519C23.5538 3.29185 22.812 1.73333 21.9774 0.922263C21.1583 0.0952909 20.2619 0.0475805 19.4273 0.795036Z" stroke="#9FBEED" stroke-width="0.4376" stroke-miterlimit="10"/>
<path d="M21.2359 0.779411C20.4013 1.52687 19.6749 3.02178 19.1649 5.0574L17.1711 5.0733C16.6302 7.22025 16.3365 9.8761 16.3675 12.5956C16.3984 15.315 16.7229 17.955 17.3102 20.1019L19.304 20.086C19.8603 22.1057 20.6022 23.5848 21.4522 24.3163C22.3023 25.0479 23.1987 24.9842 24.0178 24.1573C24.837 23.3144 25.5479 21.7559 26.027 19.6566C26.5216 17.5733 26.7689 15.0606 26.738 12.5002C26.7225 9.93972 26.4134 7.4429 25.8879 5.35956C25.3624 3.27623 24.6206 1.71771 23.786 0.906638C22.9669 0.0796659 22.0705 0.0319555 21.2359 0.779411Z" stroke="#9FBEED" stroke-width="0.4532" stroke-miterlimit="10"/>
<path d="M23.0596 0.763786C22.225 1.51124 21.4986 3.00615 20.9886 5.04178L18.9949 5.05768C18.4539 7.20463 18.1603 9.86048 18.1912 12.5799C18.2221 15.2994 18.5467 17.9394 19.134 20.0863L21.1277 20.0704C21.6841 22.0901 22.4259 23.5691 23.276 24.3007C24.126 25.0322 25.0224 24.9686 25.8416 24.1417C26.6607 23.2988 27.3716 21.7403 27.8507 19.641C28.3299 17.5418 28.5926 15.045 28.5617 12.4845C28.5462 9.92409 28.2371 7.42727 27.7117 5.34394C27.1862 3.26061 26.4443 1.70208 25.6097 0.891011C24.7906 0.0481351 23.8942 0.0163305 23.0596 0.763786Z" stroke="#9FBEED" stroke-width="0.4688" stroke-miterlimit="10"/>
<path d="M24.8677 0.746208C24.0331 1.49366 23.3067 2.98857 22.7967 5.0242L20.803 5.0401C20.262 7.18705 19.9684 9.8429 19.9993 12.5624C20.0302 15.2818 20.3548 17.9218 20.9421 20.0687L22.9358 20.0528C23.4922 22.0725 24.234 23.5516 25.0841 24.2831C25.9341 25.0147 26.8305 24.951 27.6497 24.1241C28.4688 23.2812 29.1797 21.7227 29.6589 19.6234C30.1534 17.5401 30.4007 15.0274 30.3698 12.4669C30.3543 9.90651 30.0452 7.40969 29.5198 5.32636C28.9943 3.24303 28.2524 1.6845 27.4178 0.873435C26.5987 0.0305594 25.7023 -0.00124764 24.8677 0.746208Z" stroke="#9FBEED" stroke-width="0.4845" stroke-miterlimit="10"/>
<path d="M26.6914 0.730581C25.8569 1.47804 25.1305 2.97295 24.6204 5.00857L22.6267 5.02447C22.0858 7.17142 21.7921 9.82727 21.823 12.5467C21.8539 15.2662 22.1785 17.9062 22.7658 20.0531L24.7595 20.0372C25.3159 22.0569 26.0578 23.5359 26.9078 24.2675C27.7579 24.999 28.6543 24.9354 29.4734 24.1084C30.2925 23.2656 31.0035 21.707 31.4826 19.6078C31.9617 17.5086 32.2244 15.0118 32.1935 12.4513C32.1781 9.89089 31.869 7.39407 31.3435 5.31073C30.818 3.2274 30.0761 1.66888 29.2416 0.857808C28.407 0.0149321 27.5106 -0.016875 26.6914 0.730581Z" stroke="#9FBEED" stroke-width="0.5001" stroke-miterlimit="10"/>
<path d="M28.4995 0.714958C27.665 1.46241 26.9386 2.95732 26.4285 4.99295L24.4348 5.00885C23.8939 7.1558 23.6002 9.81165 23.6311 12.5311C23.662 15.2506 23.9866 17.8905 24.5739 20.0375L26.5676 20.0216C27.124 22.0413 27.8659 23.5203 28.7159 24.2519C29.566 24.9834 30.4624 24.9198 31.2815 24.0928C32.1006 23.2499 32.8116 21.6914 33.2907 19.5922C33.7853 17.5089 34.0325 14.9961 34.0016 12.4357C33.9862 9.87526 33.6771 7.37844 33.1516 5.29511C32.6261 3.21178 31.8843 1.65325 31.0497 0.842185C30.2305 -0.000690601 29.3341 -0.0324976 28.4995 0.714958Z" stroke="#9FBEED" stroke-width="0.5157" stroke-miterlimit="10"/>
<path d="M30.3079 0.699328C29.4733 1.44678 28.7469 2.9417 28.2369 4.97732L26.2431 4.99322C25.7022 7.14017 25.4086 9.79602 25.4395 12.5155C25.4704 15.235 25.7949 17.8749 26.3822 20.0219L28.376 20.0059C28.9324 22.0257 29.6742 23.5047 30.5243 24.2362C31.3743 24.9678 32.2707 24.9042 33.0898 24.0772C33.909 23.2343 34.6199 21.6758 35.099 19.5766C35.5936 17.4932 35.8409 14.9805 35.81 12.4201C35.7945 9.85964 35.4854 7.36282 34.9599 5.27948C34.4345 3.19615 33.6926 1.63762 32.858 0.826555C32.0389 -0.0163202 31.1425 -0.0481273 30.3079 0.699328Z" stroke="#9FBEED" stroke-width="0.5313" stroke-miterlimit="10"/>
<path d="M32.1319 0.668083C31.2973 1.41554 30.5709 2.91045 30.0609 4.94607L28.0671 4.96198C27.5262 7.10892 27.2325 9.76478 27.2634 12.4842C27.2944 15.2037 27.6189 17.8437 28.2062 19.9906L30.2 19.9747C30.7563 21.9944 31.4982 23.4734 32.3482 24.205C33.1983 24.9365 34.0947 24.8729 34.9138 24.0459C35.733 23.2031 36.4439 21.6445 36.923 19.5453C37.4021 17.4461 37.6649 14.9493 37.634 12.3888C37.6185 9.82839 37.3094 7.33157 36.7839 5.24824C36.2584 3.1649 35.5166 1.60638 34.682 0.79531C33.8629 -0.0316622 32.9665 -0.0634693 32.1319 0.668083Z" stroke="#9FBEED" stroke-width="0.547" stroke-miterlimit="10"/>
<path d="M33.94 0.65246C33.1054 1.39992 32.379 2.89483 31.869 4.93045L29.8752 4.94635C29.3343 7.0933 29.0406 9.74915 29.0716 12.4686C29.1025 15.1881 29.427 17.828 30.0143 19.975L32.0081 19.9591C32.5645 21.9788 33.3063 23.4578 34.1563 24.1894C35.0064 24.9209 35.9028 24.8573 36.7219 24.0303C37.5411 23.1874 38.252 21.6289 38.7311 19.5297C39.2257 17.4464 39.473 14.9336 39.4421 12.3732C39.4266 9.81276 39.1175 7.31595 38.592 5.23261C38.0665 3.14928 37.3247 1.59076 36.4901 0.779687C35.671 -0.0472849 34.7746 -0.0949953 33.94 0.65246Z" stroke="#9FBEED" stroke-width="0.5626" stroke-miterlimit="10"/>
<path d="M35.7637 0.634875C34.9291 1.38233 34.2027 2.87724 33.6927 4.91287L31.699 4.92877C31.158 7.07572 30.8644 9.73157 30.8953 12.451C30.9262 15.1705 31.2508 17.8105 31.8381 19.9574L33.8318 19.9415C34.3882 21.9612 35.13 23.4402 35.9801 24.1718C36.8301 24.9033 37.7265 24.8397 38.5457 24.0127C39.3648 23.1699 40.0757 21.6113 40.5548 19.5121C41.034 17.4129 41.2967 14.916 41.2658 12.3556C41.2503 9.79518 40.9412 7.29836 40.4158 5.21503C39.8903 3.13169 39.1484 1.57317 38.3138 0.762102C37.4792 -0.06487 36.5828 -0.11258 35.7637 0.634875Z" stroke="#9FBEED" stroke-width="0.5782" stroke-miterlimit="10"/>
<path d="M37.5718 0.619255C36.7372 1.36671 36.0108 2.86162 35.5008 4.89725L33.5071 4.91315C32.9661 7.06009 32.6725 9.71595 32.7034 12.4354C32.7343 15.1549 33.0589 17.7948 33.6462 19.9418L35.6399 19.9259C36.1963 21.9456 36.9381 23.4246 37.7882 24.1562C38.6382 24.8877 39.5346 24.8241 40.3538 23.9971C41.1729 23.1542 41.8838 21.5957 42.363 19.4965C42.8575 17.4131 43.1048 14.9004 43.0739 12.34C43.0584 9.77956 42.7493 7.28274 42.2239 5.19941C41.6984 3.11607 40.9565 1.55755 40.1219 0.746482C39.3028 -0.0804904 38.4064 -0.128201 37.5718 0.619255Z" stroke="#9FBEED" stroke-width="0.5939" stroke-miterlimit="10"/>
<path d="M39.3955 0.60363C38.561 1.35109 37.8346 2.846 37.3245 4.88162L35.3308 4.89752C34.7899 7.04447 34.4962 9.70032 34.5271 12.4198C34.558 15.1393 34.8826 17.7792 35.4699 19.9262L37.4636 19.9102C38.02 21.93 38.7619 23.409 39.6119 24.1405C40.462 24.8721 41.3584 24.8085 42.1775 23.9815C42.9966 23.1386 43.7076 21.5801 44.1867 19.4809C44.6813 17.3975 44.9285 14.8848 44.8976 12.3244C44.8822 9.76394 44.5731 7.26712 44.0476 5.18378C43.5221 3.10045 42.7803 1.54192 41.9457 0.730854C41.1111 -0.0961178 40.2147 -0.143826 39.3955 0.60363Z" stroke="#9FBEED" stroke-width="0.6095" stroke-miterlimit="10"/>
<path d="M41.2815 0.571357C40.4469 1.31881 39.705 2.79782 39.1795 4.83344H37.1858C36.6294 6.98039 36.3203 9.62034 36.3203 12.3398C36.3203 15.0593 36.6449 17.6992 37.2167 19.8462H39.2105C39.7514 21.8818 40.4932 23.3608 41.3278 24.0923C42.1624 24.8239 43.0588 24.7762 43.8934 23.9492C44.7125 23.1222 45.4389 21.5478 45.9335 19.4645C46.4281 17.3812 46.7063 14.8684 46.7063 12.308C46.7063 9.74757 46.4281 7.25075 45.9026 5.16741C45.3926 3.08408 44.6662 1.50965 43.8316 0.698584C43.0125 -0.112485 42.1161 -0.160195 41.2815 0.571357Z" stroke="#9FBEED" stroke-width="0.6251" stroke-miterlimit="10"/>
<path d="M42.7187 0.571202C41.8841 1.30275 41.1268 2.78176 40.5859 4.81739L38.5921 4.80148C38.0203 6.94843 37.6957 9.58838 37.6803 12.3078C37.6648 15.0273 37.9585 17.6673 38.5303 19.8301L40.524 19.846C41.0495 21.8816 41.7759 23.3765 42.6105 24.1081C43.4451 24.8556 44.3415 24.8078 45.1761 23.9809C46.0107 23.1539 46.7371 21.5954 47.2471 19.512C47.7726 17.4287 48.0508 14.9319 48.0662 12.3556C48.0817 9.79512 47.8189 7.2983 47.3089 5.19907C46.8144 3.11573 46.1034 1.54131 45.2688 0.714333C44.4651 -0.112639 43.5687 -0.16035 42.7187 0.571202Z" stroke="#9FBEED" stroke-width="0.6251" stroke-miterlimit="10"/>
<path d="M44.0786 0.571202C43.244 1.30275 42.4867 2.78176 41.9457 4.81739L39.952 4.80148C39.3801 6.94843 39.0556 9.58838 39.0401 12.3078C39.0247 15.0273 39.3183 17.6673 39.8902 19.8301L41.8839 19.846C42.4094 21.8816 43.1358 23.3765 43.9704 24.1081C44.805 24.8556 45.7014 24.8078 46.536 23.9809C47.3705 23.1539 48.0969 21.5954 48.607 19.512C49.1324 17.4287 49.4106 14.9319 49.4261 12.3556C49.4415 9.79512 49.1788 7.2983 48.6688 5.19907C48.1742 3.11573 47.4633 1.54131 46.6287 0.714333C45.825 -0.112639 44.9286 -0.16035 44.0786 0.571202Z" stroke="#9FBEED" stroke-width="0.6251" stroke-miterlimit="10"/>
<path d="M45.4389 0.588778C44.6043 1.32033 43.847 2.79934 43.3061 4.83496L41.3123 4.81906C40.7405 6.96601 40.4159 9.60596 40.4005 12.3254C40.385 15.0449 40.6787 17.6848 41.2505 19.8477L43.2443 19.8636C43.7697 21.8992 44.4961 23.3941 45.3307 24.1257C46.1653 24.8731 47.0617 24.8254 47.8963 23.9985C48.7309 23.1715 49.4573 21.613 49.9673 19.5296C50.4928 17.4463 50.771 14.9495 50.7865 12.3731C50.8019 9.8127 50.5392 7.31588 50.0291 5.21664C49.5346 3.13331 48.8236 1.55888 47.989 0.731907C47.1854 -0.0950655 46.289 -0.142774 45.4389 0.588778Z" stroke="#9FBEED" stroke-width="0.6251" stroke-miterlimit="10"/>
<path d="M46.8144 0.588778C45.9798 1.32033 45.2225 2.79934 44.6816 4.83496L42.6878 4.81906C42.116 6.96601 41.7914 9.60596 41.776 12.3254C41.7605 15.0449 42.0542 17.6848 42.626 19.8477L44.6198 19.8636C45.1452 21.8992 45.8716 23.3941 46.7062 24.1257C47.5408 24.8731 48.4372 24.8254 49.2718 23.9985C50.1064 23.1715 50.8328 21.613 51.3428 19.5296C51.8683 17.4463 52.1465 14.9495 52.1619 12.3731C52.1774 9.8127 51.9147 7.31588 51.4046 5.21664C50.9101 3.13331 50.1991 1.55888 49.3645 0.731907C48.5454 -0.0950655 47.649 -0.142774 46.8144 0.588778Z" stroke="#9FBEED" stroke-width="0.6251" stroke-miterlimit="10"/>
<path d="M48.1743 0.604414C47.3397 1.33597 46.5824 2.81497 46.0414 4.85059L44.0477 4.83469C43.4758 6.98164 43.1513 9.62159 43.1358 12.3411C43.1204 15.0605 43.414 17.7005 43.9859 19.8633L45.9796 19.8792C46.5051 21.9148 47.2315 23.4098 48.0661 24.1413C48.9007 24.8888 49.7971 24.841 50.6317 24.0141C51.4662 23.1871 52.1926 21.6286 52.7027 19.5452C53.2281 17.4619 53.5063 14.9651 53.5218 12.3888C53.5372 9.82833 53.2745 7.33151 52.7645 5.23227C52.2699 3.14894 51.559 1.57451 50.7244 0.747543C49.9053 -0.0794288 49.0088 -0.143041 48.1743 0.604414Z" stroke="#9FBEED" stroke-width="0.6251" stroke-miterlimit="10"/>
<path d="M49.5341 0.604407C48.6995 1.33596 47.9422 2.81497 47.4013 4.85059L45.4076 4.83468C44.8357 6.98163 44.5112 9.62158 44.4957 12.341C44.4802 15.0605 44.7739 17.7005 45.3457 19.8633L47.3395 19.8792C47.865 21.9148 48.5914 23.4098 49.4259 24.1413C50.2605 24.8888 51.1569 24.841 51.9915 24.0141C52.8261 23.1871 53.5525 21.6286 54.0625 19.5452C54.588 17.4619 54.8662 14.9651 54.8817 12.3888C54.8971 9.82832 54.6344 7.3315 54.1244 5.23227C53.6298 3.14893 52.9188 1.57451 52.0843 0.747536C51.2651 -0.0794358 50.3687 -0.127145 49.5341 0.604407Z" stroke="#9FBEED" stroke-width="0.6251" stroke-miterlimit="10"/>
<path d="M50.8945 0.604407C50.0599 1.33596 49.3026 2.81497 48.7616 4.85059L46.7679 4.83468C46.1961 6.98163 45.8715 9.62158 45.856 12.341C45.8406 15.0605 46.1342 17.7005 46.7061 19.8633L48.6998 19.8792C49.2253 21.9148 49.9517 23.4098 50.7863 24.1413C51.6209 24.8888 52.5173 24.841 53.3519 24.0141C54.1865 23.1871 54.9129 21.6286 55.4229 19.5452C55.9329 17.4619 56.2266 14.9651 56.242 12.3888C56.2575 9.82832 55.9947 7.3315 55.4847 5.23227C54.9901 3.14893 54.2792 1.57451 53.4446 0.747536C52.6255 -0.0794358 51.7291 -0.127145 50.8945 0.604407Z" stroke="#9FBEED" stroke-width="0.6251" stroke-miterlimit="10"/>
<path d="M52.2546 0.619784C51.42 1.35134 50.6627 2.83034 50.1218 4.86597L48.128 4.85007C47.5562 6.99701 47.2316 9.63696 47.2162 12.3564C47.2007 15.0759 47.4944 17.7158 48.0662 19.8787L50.0599 19.8946C50.5854 21.9302 51.3118 23.4251 52.1464 24.1567C52.981 24.9041 53.8774 24.8564 54.712 24.0295C55.5466 23.2025 56.273 21.644 56.783 19.5606C57.293 17.4773 57.5867 14.9805 57.6021 12.4041C57.6176 9.8437 57.3548 7.34688 56.8448 5.24765C56.3502 3.16431 55.6393 1.58989 54.8047 0.762915C53.9856 -0.0640572 53.0892 -0.111769 52.2546 0.619784Z" stroke="#9FBEED" stroke-width="0.6251" stroke-miterlimit="10"/>
<path d="M53.6145 0.619784C52.7799 1.35134 52.0226 2.83034 51.4816 4.86597L49.4879 4.85007C48.916 6.99701 48.5915 9.63696 48.576 12.3564C48.5606 15.0759 48.8542 17.7158 49.4261 19.8787L51.4198 19.8946C51.9453 21.9302 52.6717 23.4251 53.5063 24.1567C54.3409 24.9041 55.2373 24.8564 56.0718 24.0295C56.9064 23.2025 57.6328 21.644 58.1429 19.5606C58.6529 17.4773 58.9465 14.9805 58.962 12.4041C58.9774 9.8437 58.7147 7.34688 58.2047 5.24765C57.7101 3.16431 56.9992 1.58989 56.1646 0.762915C55.3609 -0.0640572 54.4645 -0.111769 53.6145 0.619784Z" stroke="#9FBEED" stroke-width="0.6251" stroke-miterlimit="10"/>
<path d="M54.9746 0.635775C54.14 1.36733 53.3827 2.84634 52.8417 4.88196L50.848 4.86606C50.2761 7.013 49.9516 9.65295 49.9361 12.3724C49.9207 15.0919 50.2143 17.7318 50.7862 19.8947L52.7799 19.9106C53.3054 21.9462 54.0318 23.4411 54.8664 24.1727C55.701 24.9201 56.5974 24.8724 57.4319 24.0454C58.2665 23.2185 58.9929 21.66 59.503 19.5766C60.013 17.4933 60.3066 14.9965 60.3221 12.4201C60.3375 9.8597 60.0748 7.36288 59.5648 5.26364C59.0702 3.18031 58.3593 1.60588 57.5247 0.778904C56.721 -0.0480684 55.8246 -0.111681 54.9746 0.635775Z" stroke="#9FBEED" stroke-width="0.6251" stroke-miterlimit="10"/>
<path d="M56.3349 0.635775C55.5003 1.36733 54.743 2.84634 54.2021 4.88196L52.2083 4.86606C51.6365 7.013 51.3119 9.65295 51.2965 12.3724C51.281 15.0919 51.5747 17.7318 52.1465 19.8947L54.1403 19.9106C54.6657 21.9462 55.3921 23.4411 56.2267 24.1727C57.0613 24.9201 57.9577 24.8724 58.7923 24.0454C59.6269 23.2185 60.3533 21.66 60.8633 19.5766C61.3888 17.4933 61.667 14.9965 61.6824 12.4201C61.6979 9.8597 61.4352 7.36288 60.9251 5.26364C60.4306 3.18031 59.7196 1.60588 58.885 0.778904C58.0814 -0.0480684 57.1849 -0.0957774 56.3349 0.635775Z" stroke="#9FBEED" stroke-width="0.6251" stroke-miterlimit="10"/>
<path d="M57.7104 0.635775C56.8758 1.36733 56.1185 2.84634 55.5776 4.88196L53.5838 4.86606C53.012 7.013 52.6874 9.65295 52.672 12.3724C52.6565 15.0919 52.9502 17.7318 53.522 19.8947L55.5157 19.9106C56.0412 21.9462 56.7676 23.4411 57.6022 24.1727C58.4368 24.9201 59.3332 24.8724 60.1678 24.0454C61.0024 23.2185 61.7288 21.66 62.2388 19.5766C62.7643 17.4933 63.0425 14.9965 63.0579 12.4201C63.0734 9.8597 62.8107 7.36288 62.3006 5.26364C61.8061 3.18031 61.0951 1.60588 60.2605 0.778904C59.4414 -0.0480684 58.545 -0.0957774 57.7104 0.635775Z" stroke="#9FBEED" stroke-width="0.6251" stroke-miterlimit="10"/>
<path d="M59.0703 0.651679C58.2357 1.38323 57.4784 2.86224 56.9374 4.89786L54.9437 4.88196C54.3718 7.02891 54.0473 9.66886 54.0318 12.3883C54.0164 15.1078 54.31 17.7477 54.8819 19.9106H56.8756C57.4011 21.9462 58.1275 23.4411 58.9621 24.1727C59.7967 24.9201 60.6931 24.8724 61.5277 24.0454C62.3622 23.2185 63.0886 21.66 63.5987 19.5766C64.1241 17.4933 64.4023 14.9965 64.4178 12.4201C64.4333 9.8597 64.1705 7.36288 63.6605 5.26364C63.1659 3.18031 62.455 1.60588 61.6204 0.778906C60.8013 -0.0321628 59.9048 -0.0798732 59.0703 0.651679Z" stroke="#9FBEED" stroke-width="0.6251" stroke-miterlimit="10"/>
<path d="M60.4306 0.651278C59.596 1.38283 58.8387 2.86184 58.2978 4.89746L56.304 4.88156C55.7322 7.02851 55.4076 9.66846 55.3922 12.3879C55.3767 15.1074 55.6704 17.7473 56.2422 19.9102L58.236 19.9261C58.7614 21.9617 59.4878 23.4566 60.3224 24.1882C61.157 24.9356 62.0534 24.8879 62.888 24.061C63.7226 23.234 64.449 21.6755 64.959 19.5921C65.4845 17.5088 65.7627 15.012 65.7781 12.4356C65.7936 9.8752 65.5309 7.37838 65.0208 5.27914C64.5263 3.19581 63.8153 1.62138 62.9807 0.794409C62.1616 -0.0325631 61.2652 -0.0802745 60.4306 0.651278Z" stroke="#9FBEED" stroke-width="0.6251" stroke-miterlimit="10"/>
<path d="M61.7905 0.666903C60.9559 1.39846 60.1986 2.87746 59.6576 4.91309L57.6639 4.89718C57.0921 7.04413 56.7675 9.68408 56.752 12.4035C56.7366 15.123 57.0302 17.763 57.6021 19.9258L59.5958 19.9417C60.1213 21.9773 60.8477 23.4723 61.6823 24.2038C62.5169 24.9513 63.4133 24.9035 64.2479 24.0766C65.0825 23.2496 65.8089 21.6911 66.3189 19.6077C66.8444 17.5244 67.1226 15.0276 67.138 12.4513C67.1535 9.89082 66.8907 7.394 66.3807 5.29477C65.8861 3.21143 65.1752 1.637 64.3406 0.810032C63.5215 -0.0169405 62.6251 -0.0805528 61.7905 0.666903Z" stroke="#9FBEED" stroke-width="0.6251" stroke-miterlimit="10"/>
<path d="M63.1503 0.666903C62.3158 1.39846 61.5584 2.87746 61.0175 4.91309L59.0238 4.89718C58.4519 7.04413 58.1274 9.68408 58.1119 12.4035C58.0965 15.123 58.3901 17.763 58.9619 19.9258L60.9557 19.9417C61.4812 21.9773 62.2076 23.4723 63.0421 24.2038C63.8767 24.9513 64.7731 24.9035 65.6077 24.0766C66.4423 23.2496 67.1687 21.6911 67.6787 19.6077C68.2042 17.5244 68.4824 15.0276 68.4979 12.4513C68.5133 9.89082 68.2506 7.394 67.7406 5.29477C67.246 3.21143 66.535 1.637 65.7005 0.810032C64.8813 -0.0169405 63.9849 -0.0646495 63.1503 0.666903Z" stroke="#9FBEED" stroke-width="0.6251" stroke-miterlimit="10"/>
<path d="M64.5107 0.666903C63.6761 1.39846 62.9188 2.87746 62.3779 4.91309L60.3841 4.89718C59.8123 7.04413 59.4877 9.68408 59.4723 12.4035C59.4568 15.123 59.7505 17.763 60.3223 19.9258L62.316 19.9417C62.8415 21.9773 63.5834 23.4563 64.4025 24.2038C65.2371 24.9513 66.1335 24.9035 66.9681 24.0766C67.8027 23.2496 68.5291 21.6911 69.0391 19.6077C69.5491 17.5244 69.8428 15.0276 69.8582 12.4513C69.8737 9.89082 69.6109 7.394 69.1009 5.29477C68.6063 3.21143 67.8954 1.637 67.0608 0.810032C66.2571 -0.0169405 65.3607 -0.0646495 64.5107 0.666903Z" stroke="#9FBEED" stroke-width="0.6251" stroke-miterlimit="10"/>
<path d="M65.8706 0.682816C65.036 1.41437 64.2787 2.89337 63.7377 4.929L61.744 4.91309C61.1721 7.06004 60.8476 9.69999 60.8321 12.4195C60.8167 15.1389 61.1103 17.7789 61.6822 19.9417L63.6759 19.9576C64.2014 21.9773 64.9432 23.4723 65.7778 24.2038C66.6124 24.9513 67.5088 24.9035 68.3434 24.0766C69.178 23.2496 69.9044 21.6911 70.4144 19.6077C70.9244 17.5244 71.2181 15.0276 71.2335 12.4513C71.249 9.89083 70.9863 7.39401 70.4762 5.29477C69.9817 3.21144 69.2707 1.63701 68.4361 0.810041C67.617 -0.00102793 66.7206 -0.0487359 65.8706 0.682816Z" stroke="#9FBEED" stroke-width="0.6251" stroke-miterlimit="10"/>
<path d="M67.2309 0.68253C66.3963 1.41408 65.639 2.89309 65.0981 4.92871L63.1043 4.91281C62.5325 7.05976 62.2079 9.69971 62.1925 12.4192C62.177 15.1386 62.4707 17.7786 63.0425 19.9414L65.0363 19.9573C65.5617 21.993 66.2881 23.4879 67.1227 24.2194C67.9573 24.9669 68.8537 24.9192 69.6883 24.0922C70.5229 23.2652 71.2493 21.7067 71.7593 19.6234C72.2693 17.54 72.563 15.0432 72.5784 12.4669C72.5939 9.90645 72.3312 7.40963 71.8211 5.31039C71.3266 3.22706 70.6156 1.65263 69.781 0.825659C68.9774 -0.00131307 68.0809 -0.049022 67.2309 0.68253Z" stroke="#9FBEED" stroke-width="0.6251" stroke-miterlimit="10"/>
<path d="M68.6064 0.682535C67.7718 1.41409 67.0145 2.89309 66.4736 4.92872L64.4798 4.91281C63.908 7.05976 63.5834 9.69971 63.568 12.4192C63.5525 15.1386 63.8462 17.7786 64.418 19.9414L66.4117 19.9573C66.9372 21.993 67.6636 23.4879 68.4982 24.2194C69.3328 24.9669 70.2292 24.9192 71.0638 24.0922C71.8984 23.2652 72.6248 21.7067 73.1348 19.6234C73.6448 17.54 73.9385 15.0432 73.9539 12.4669C73.9694 9.90645 73.7067 7.40963 73.1966 5.31039C72.7021 3.22706 71.9911 1.65264 71.1565 0.825664C70.3374 0.0145949 69.441 -0.0490174 68.6064 0.682535Z" stroke="#9FBEED" stroke-width="0.6251" stroke-miterlimit="10"/>
</g>
<defs>
<clipPath id="clip0_2199_14314">
<rect width="74" height="25" fill="white" transform="matrix(1 0 0 -1 0 25)"/>
</clipPath>
</defs>
</svg>
