<svg width="852" height="417" viewBox="0 0 852 417" fill="none" xmlns="http://www.w3.org/2000/svg">
<g clip-path="url(#clip0_2036_9359)">
<path d="M757.286 72.106C943.571 -148.299 1004.05 -403.364 892.375 -497.599C780.698 -591.833 539.151 -489.552 352.865 -269.147C166.58 -48.7422 106.098 206.323 217.776 300.558C329.453 394.792 571 292.511 757.286 72.106Z" stroke="#2A5392" stroke-width="0.2647" stroke-miterlimit="10"/>
<path d="M857.453 -507.063C962.228 -418.766 955.229 -137.7 780.457 68.8372C605.686 275.374 358.73 396.237 253.955 307.721C149.18 219.205 156.179 -61.6419 330.951 -268.179C505.722 -474.716 752.896 -595.36 857.453 -507.063Z" stroke="#2A5392" stroke-width="0.2693" stroke-miterlimit="10"/>
<path d="M822.673 -516.461C920.449 -434.065 966.822 -126.991 803.862 65.7774C640.902 258.545 387.822 397.548 290.047 314.933C192.271 232.319 145.898 -74.5368 308.858 -267.305C471.818 -460.073 724.898 -599.076 822.673 -516.461Z" stroke="#2A5392" stroke-width="0.2739" stroke-miterlimit="10"/>
<path d="M787.675 -526.078C878.452 -449.582 978.415 -116.5 827.048 62.499C675.682 241.498 416.915 398.641 326.138 322.146C235.362 245.651 135.399 -87.4318 286.766 -266.431C438.132 -445.43 697.118 -602.573 787.675 -526.078Z" stroke="#2A5392" stroke-width="0.2785" stroke-miterlimit="10"/>
<path d="M752.896 -535.476C836.673 -464.881 990.227 -105.791 850.453 59.4392C710.68 224.669 446.226 400.171 362.449 329.577C278.672 258.983 125.118 -100.108 264.892 -265.557C404.665 -431.005 669.119 -606.288 752.896 -535.476Z" stroke="#2A5392" stroke-width="0.2831" stroke-miterlimit="10"/>
<path d="M718.117 -545.092C794.894 -480.399 1001.82 -95.2999 873.858 56.1608C745.896 207.622 475.536 401.482 398.759 336.571C321.982 271.659 114.838 -113.003 242.799 -264.464C370.761 -415.924 641.121 -609.785 718.117 -545.092Z" stroke="#2A5392" stroke-width="0.2877" stroke-miterlimit="10"/>
<path d="M683.118 -554.49C752.895 -495.698 1013.41 -84.5906 897.044 53.101C780.675 190.792 504.409 402.794 434.632 344.002C364.854 285.209 104.337 -125.898 220.706 -263.59C337.075 -401.281 613.34 -613.501 683.118 -554.49Z" stroke="#2A5392" stroke-width="0.2923" stroke-miterlimit="10"/>
<path d="M648.339 -564.107C711.117 -510.997 1025.01 -74.0998 920.23 49.8226C815.455 173.745 533.502 404.324 470.724 351.214C407.946 298.104 94.0572 -138.793 198.833 -262.715C303.608 -386.638 585.343 -616.998 648.339 -564.107Z" stroke="#2A5392" stroke-width="0.2969" stroke-miterlimit="10"/>
<path d="M613.341 -573.505C669.12 -526.296 1036.6 -63.3904 943.417 46.7628C850.235 156.916 562.594 405.635 506.816 358.427C451.038 311.437 83.5582 -151.688 176.741 -261.841C269.923 -371.994 557.563 -620.713 613.341 -573.505Z" stroke="#2A5392" stroke-width="0.3015" stroke-miterlimit="10"/>
<path d="M578.561 -582.903C627.34 -541.814 1048.19 -52.6811 966.821 43.7029C885.45 140.087 591.904 406.946 542.907 365.857C493.91 324.768 73.2766 -164.583 154.647 -260.967C236.018 -357.351 529.564 -624.21 578.561 -582.903Z" stroke="#2A5392" stroke-width="0.3061" stroke-miterlimit="10"/>
<path d="M543.563 -592.519C585.342 -557.113 1059.78 -42.1902 990.008 40.4247C920.23 123.04 620.997 408.258 578.999 373.07C537.001 337.882 62.7774 -177.259 132.774 -260.093C202.77 -342.926 501.784 -627.926 543.563 -592.519Z" stroke="#2A5392" stroke-width="0.3108" stroke-miterlimit="10"/>
<path d="M508.784 -601.917C543.782 -572.412 1071.6 -31.481 1013.41 37.3647C955.228 106.21 650.307 409.787 615.309 380.282C580.311 350.777 52.4966 -190.154 110.681 -259C168.865 -327.846 473.786 -631.423 508.784 -601.917Z" stroke="#2A5392" stroke-width="0.3154" stroke-miterlimit="10"/>
<path d="M473.786 -611.534C501.785 -587.93 1082.97 -20.9901 1036.38 34.0865C989.789 89.1631 679.181 410.88 651.183 387.276C623.403 363.891 41.9976 -203.049 88.5888 -258.126C135.18 -313.202 446.007 -635.138 473.786 -611.534Z" stroke="#2A5392" stroke-width="0.32" stroke-miterlimit="10"/>
<path d="M439.007 -620.932C460.005 -603.229 1094.78 -10.2808 1059.78 31.0266C1024.79 72.3341 708.492 412.41 687.493 394.707C666.494 377.004 31.7166 -215.944 66.7147 -257.251C101.713 -298.559 418.008 -638.635 439.007 -620.932Z" stroke="#2A5392" stroke-width="0.3246" stroke-miterlimit="10"/>
<path d="M404.009 -630.548C418.008 -618.746 1106.38 0.209923 1082.97 27.7482C1059.78 55.2865 737.365 413.722 723.585 401.919C709.804 390.117 21.2175 -228.839 44.6224 -256.377C67.8086 -283.915 390.01 -642.351 404.009 -630.548Z" stroke="#2A5392" stroke-width="0.3292" stroke-miterlimit="10"/>
<path d="M369.23 -639.946C376.229 -634.045 1117.97 10.9192 1106.38 24.6884C1094.78 38.4575 766.676 415.033 759.677 409.132C752.677 403.231 10.9369 -241.734 22.53 -255.503C34.1231 -269.272 362.23 -645.847 369.23 -639.946Z" stroke="#2A5392" stroke-width="0.3338" stroke-miterlimit="10"/>
<path d="M334.4 -649.456L0.62793 -254.553L795.932 416.531L1129.7 21.6275L334.4 -649.456Z" stroke="#2A5392" stroke-width="0.3384" stroke-miterlimit="10"/>
</g>
<defs>
<clipPath id="clip0_2036_9359">
<rect width="852" height="417" fill="white"/>
</clipPath>
</defs>
</svg>
