<svg width="40" height="40" viewBox="0 0 40 40" fill="none" xmlns="http://www.w3.org/2000/svg">
<circle opacity="0.5" cx="20" cy="20" r="20" fill="#D9E5F8"/>
<path d="M28.3083 11.9418C27.7083 11.2585 26.8167 10.8335 25.8333 10.8335C24.9 10.8335 24.05 11.2168 23.4417 11.8418C23.0917 12.2002 22.825 12.6335 22.6667 13.1168C22.5583 13.4502 22.5 13.8002 22.5 14.1668C22.5 14.7918 22.675 15.3835 22.9833 15.8835C23.15 16.1668 23.3667 16.4252 23.6167 16.6418C24.2 17.1752 24.975 17.5002 25.8333 17.5002C26.2 17.5002 26.55 17.4418 26.875 17.3252C27.6417 17.0835 28.2833 16.5585 28.6833 15.8835C28.8583 15.6002 28.9917 15.2752 29.0667 14.9418C29.1333 14.6918 29.1667 14.4335 29.1667 14.1668C29.1667 13.3168 28.8417 12.5335 28.3083 11.9418ZM27.075 14.7752H26.4583V15.4252C26.4583 15.7668 26.175 16.0502 25.8333 16.0502C25.4917 16.0502 25.2083 15.7668 25.2083 15.4252V14.7752H24.5917C24.25 14.7752 23.9667 14.4918 23.9667 14.1502C23.9667 13.8085 24.25 13.5252 24.5917 13.5252H25.2083V12.9335C25.2083 12.5918 25.4917 12.3085 25.8333 12.3085C26.175 12.3085 26.4583 12.5918 26.4583 12.9335V13.5252H27.075C27.4167 13.5252 27.7 13.8085 27.7 14.1502C27.7 14.4918 27.425 14.7752 27.075 14.7752Z" fill="#3F7CDB"/>
<path d="M28.3332 19.9998C28.3332 18.9082 28.1248 17.8582 27.7332 16.8998C27.4748 17.0832 27.1832 17.2248 26.8748 17.3248C26.7832 17.3582 26.6915 17.3832 26.5915 17.4082C26.9082 18.2082 27.0832 19.0832 27.0832 19.9998C27.0832 21.9332 26.2998 23.6915 25.0332 24.9748C24.7915 24.6665 24.4832 24.3832 24.1165 24.1415C21.8582 22.6248 18.1582 22.6248 15.8832 24.1415C15.5165 24.3832 15.2165 24.6665 14.9665 24.9748C13.6998 23.6915 12.9165 21.9332 12.9165 19.9998C12.9165 16.0915 16.0915 12.9165 19.9998 12.9165C20.9082 12.9165 21.7832 13.0915 22.5832 13.4082C22.6082 13.3082 22.6332 13.2165 22.6665 13.1165C22.7665 12.8082 22.9082 12.5248 23.0998 12.2665C22.1415 11.8748 21.0915 11.6665 19.9998 11.6665C15.4082 11.6665 11.6665 15.4082 11.6665 19.9998C11.6665 22.4165 12.7082 24.5915 14.3582 26.1165C14.3582 26.1248 14.3582 26.1248 14.3498 26.1332C14.4332 26.2165 14.5332 26.2832 14.6165 26.3582C14.6665 26.3998 14.7082 26.4415 14.7582 26.4748C14.9082 26.5998 15.0748 26.7165 15.2332 26.8332C15.2915 26.8748 15.3415 26.9082 15.3998 26.9498C15.5582 27.0582 15.7248 27.1582 15.8998 27.2498C15.9582 27.2832 16.0248 27.3248 16.0832 27.3582C16.2498 27.4498 16.4248 27.5332 16.6082 27.6082C16.6748 27.6415 16.7415 27.6748 16.8082 27.6998C16.9915 27.7748 17.1748 27.8415 17.3582 27.8998C17.4248 27.9248 17.4915 27.9498 17.5582 27.9665C17.7582 28.0248 17.9582 28.0748 18.1582 28.1248C18.2165 28.1415 18.2748 28.1582 18.3415 28.1665C18.5748 28.2165 18.8082 28.2498 19.0498 28.2748C19.0832 28.2748 19.1165 28.2832 19.1498 28.2915C19.4332 28.3165 19.7165 28.3332 19.9998 28.3332C20.2832 28.3332 20.5665 28.3165 20.8415 28.2915C20.8748 28.2915 20.9082 28.2832 20.9415 28.2748C21.1832 28.2498 21.4165 28.2165 21.6498 28.1665C21.7082 28.1582 21.7665 28.1332 21.8332 28.1248C22.0332 28.0748 22.2415 28.0332 22.4332 27.9665C22.4998 27.9415 22.5665 27.9165 22.6332 27.8998C22.8165 27.8332 23.0082 27.7748 23.1832 27.6998C23.2498 27.6748 23.3165 27.6415 23.3832 27.6082C23.5582 27.5332 23.7332 27.4498 23.9082 27.3582C23.9748 27.3248 24.0332 27.2832 24.0915 27.2498C24.2582 27.1498 24.4248 27.0582 24.5915 26.9498C24.6498 26.9165 24.6998 26.8748 24.7582 26.8332C24.9248 26.7165 25.0832 26.5998 25.2332 26.4748C25.2832 26.4332 25.3248 26.3915 25.3748 26.3582C25.4665 26.2832 25.5582 26.2082 25.6415 26.1332C25.6415 26.1248 25.6415 26.1248 25.6332 26.1165C27.2915 24.5915 28.3332 22.4165 28.3332 19.9998Z" fill="#3F7CDB"/>
<path d="M20 15.7749C18.275 15.7749 16.875 17.1749 16.875 18.8999C16.875 20.5916 18.2 21.9666 19.9583 22.0166C19.9833 22.0166 20.0167 22.0166 20.0333 22.0166C20.05 22.0166 20.075 22.0166 20.0917 22.0166C20.1 22.0166 20.1083 22.0166 20.1083 22.0166C21.7917 21.9582 23.1167 20.5916 23.125 18.8999C23.125 17.1749 21.725 15.7749 20 15.7749Z" fill="#3F7CDB"/>
</svg>
