<svg width="754" height="702" viewBox="0 0 754 702" fill="none" xmlns="http://www.w3.org/2000/svg">
<g clip-path="url(#clip0_2199_15865)">
<path d="M-770.595 -39.0056L-656.214 -152.421C-622.431 -185.722 -567.895 -185.722 -534.594 -151.939L724.077 1116.39C757.378 1150.17 757.378 1204.7 723.595 1238.01L609.214 1351.42C575.431 1384.72 520.895 1384.72 487.594 1350.94L-771.078 82.6145C-804.378 48.8311 -804.378 -5.22224 -770.595 -39.0056Z" stroke="#9FBEED" stroke-width="0.3529" stroke-miterlimit="10"/>
<path d="M-760.943 -1.3609L-619.053 -142.286C-584.787 -176.069 -529.769 -176.069 -495.985 -141.803L714.424 1077.29C748.208 1111.56 748.208 1166.58 713.942 1200.36L572.052 1341.29C537.786 1375.07 482.767 1375.07 448.984 1340.8L-761.426 121.707C-795.209 87.9237 -794.727 32.4225 -760.943 -1.3609Z" stroke="#9FBEED" stroke-width="0.3529" stroke-miterlimit="10"/>
<path d="M-751.291 36.283L-581.409 -132.151C-547.143 -166.417 -491.159 -166.417 -456.893 -131.669L704.772 1038.2C739.038 1072.47 739.038 1128.45 704.289 1162.72L534.407 1331.15C500.141 1365.42 444.158 1365.42 409.892 1330.67L-751.291 160.799C-785.557 126.533 -785.557 70.549 -751.291 36.283Z" stroke="#9FBEED" stroke-width="0.3529" stroke-miterlimit="10"/>
<path d="M-741.156 73.9274L-543.764 -122.016C-509.016 -156.765 -452.549 -156.282 -417.801 -121.534L695.12 999.109C729.869 1033.86 729.386 1090.32 694.637 1125.07L497.246 1321.02C462.497 1355.76 406.031 1355.28 371.282 1320.53L-741.638 199.891C-776.387 165.142 -776.387 108.676 -741.156 73.9274Z" stroke="#9FBEED" stroke-width="0.3529" stroke-miterlimit="10"/>
<path d="M-731.503 111.572L-506.12 -112.363C-470.889 -147.595 -413.939 -147.112 -378.708 -111.881L685.468 960.017C720.699 995.248 720.216 1052.2 684.985 1087.43L459.602 1311.36C424.371 1346.6 367.421 1346.11 332.19 1310.88L-731.986 238.984C-767.217 203.752 -766.734 146.803 -731.503 111.572Z" stroke="#9FBEED" stroke-width="0.3529" stroke-miterlimit="10"/>
<path d="M-721.85 149.216L-468.475 -102.229C-432.761 -137.46 -375.329 -137.46 -339.616 -101.747L675.333 920.924C710.564 956.638 710.564 1014.07 674.85 1049.78L421.475 1301.23C385.761 1336.46 328.33 1336.46 292.616 1300.75L-722.333 278.075C-757.564 242.361 -757.564 184.929 -721.85 149.216Z" stroke="#9FBEED" stroke-width="0.3529" stroke-miterlimit="10"/>
<path d="M-712.199 186.86L-431.314 -92.0937C-395.118 -127.808 -336.721 -127.808 -301.007 -91.6111L665.197 881.833C700.911 918.029 700.911 976.426 664.715 1012.14L383.83 1291.09C347.634 1326.81 289.237 1326.81 253.523 1290.61L-712.681 317.168C-748.395 280.971 -747.912 223.057 -712.199 186.86Z" stroke="#9FBEED" stroke-width="0.3529" stroke-miterlimit="10"/>
<path d="M-702.063 224.505L-393.186 -81.9584C-356.507 -118.155 -297.628 -118.155 -261.431 -81.4758L656.028 842.74C692.225 879.419 692.225 938.299 655.546 974.496L346.669 1280.96C309.99 1317.16 251.111 1317.16 214.914 1280.48L-702.545 356.26C-738.742 319.581 -738.742 260.701 -702.063 224.505Z" stroke="#9FBEED" stroke-width="0.3529" stroke-miterlimit="10"/>
<path d="M-692.411 262.149L-356.025 -71.8234C-319.346 -108.502 -259.501 -108.02 -222.822 -71.3408L645.893 803.648C682.572 840.327 682.089 900.172 645.41 936.851L309.025 1271.31C272.345 1307.99 212.501 1307.5 175.822 1270.82L-692.893 395.835C-729.573 358.673 -729.573 298.828 -692.411 262.149Z" stroke="#9FBEED" stroke-width="0.3529" stroke-miterlimit="10"/>
<path d="M-682.758 299.793L-318.381 -62.1713C-281.219 -99.333 -220.891 -98.8504 -183.73 -61.6887L636.241 764.556C673.402 801.718 672.92 862.045 635.758 899.207L271.38 1261.17C234.219 1298.33 173.891 1297.85 136.73 1260.69L-683.241 434.444C-720.403 397.282 -719.92 336.955 -682.758 299.793Z" stroke="#9FBEED" stroke-width="0.3529" stroke-miterlimit="10"/>
<path d="M-673.107 337.438L-280.737 -52.036C-243.093 -89.6803 -182.283 -89.1977 -144.638 -51.5534L626.587 725.464C664.232 763.108 663.749 823.918 626.105 861.563L233.735 1251.04C196.091 1288.68 135.281 1288.2 97.6367 1250.55L-673.589 473.537C-710.751 435.892 -710.751 375.082 -673.107 337.438Z" stroke="#9FBEED" stroke-width="0.3529" stroke-miterlimit="10"/>
<path d="M-663.454 375.082L-243.575 -41.9008C-205.448 -79.5452 -144.155 -79.5452 -106.028 -41.4182L616.453 686.372C654.097 724.499 654.097 785.792 615.97 823.919L196.091 1240.9C157.964 1278.55 96.6718 1278.55 58.5449 1240.42L-663.937 512.629C-701.581 474.502 -701.098 413.209 -663.454 375.082Z" stroke="#9FBEED" stroke-width="0.3529" stroke-miterlimit="10"/>
<path d="M-653.318 412.726L-205.447 -31.7663C-166.838 -69.8933 -104.58 -69.8933 -66.4529 -31.2837L607.284 647.279C645.411 685.889 645.411 748.147 606.801 786.274L158.93 1230.77C120.321 1268.89 58.0629 1268.89 19.936 1230.28L-653.801 551.721C-691.928 513.111 -691.928 450.853 -653.318 412.726Z" stroke="#9FBEED" stroke-width="0.3529" stroke-miterlimit="10"/>
<path d="M-643.666 450.371L-167.803 -22.1134C-128.711 -60.723 -65.9707 -60.723 -27.3611 -21.6308L597.631 608.188C636.24 647.28 636.241 710.02 597.148 748.63L121.286 1221.11C82.1935 1259.72 19.453 1259.72 -19.1566 1220.63L-644.149 590.813C-682.758 551.721 -682.758 488.981 -643.666 450.371Z" stroke="#9FBEED" stroke-width="0.3529" stroke-miterlimit="10"/>
<path d="M-634.014 488.015L-130.642 -11.4961C-91.5494 -50.5882 -27.8436 -50.1056 11.2486 -11.0135L587.496 569.578C626.588 608.67 626.106 672.376 587.014 711.468L83.6415 1210.98C44.5493 1250.07 -19.1565 1249.59 -58.2487 1210.5L-634.496 629.905C-673.588 590.813 -673.106 527.107 -634.014 488.015Z" stroke="#9FBEED" stroke-width="0.3529" stroke-miterlimit="10"/>
<path d="M-97.3412 1200.36L-624.844 668.997C-664.419 629.422 -663.936 565.234 -624.362 525.659L-92.9976 -1.84391C-53.4228 -41.4187 10.7656 -40.9361 50.3404 -1.3613L577.844 530.003C617.418 569.578 616.936 633.766 577.361 673.341L45.9968 1200.84C6.42204 1240.42 -57.7664 1239.94 -97.3412 1200.36Z" stroke="#9FBEED" stroke-width="0.3529" stroke-miterlimit="10"/>
<path d="M-134.985 1210.01L-634.496 706.642C-673.588 667.55 -673.106 603.844 -634.014 564.751L-53.9051 -11.4961C-14.813 -50.5882 48.8928 -50.1056 87.985 -11.0135L587.979 492.359C627.071 531.451 626.588 595.157 587.496 634.249L6.9049 1210.5C-32.1873 1249.59 -95.893 1249.59 -134.985 1210.01Z" stroke="#9FBEED" stroke-width="0.3529" stroke-miterlimit="10"/>
<path d="M-172.629 1219.67L-645.114 743.803C-683.723 704.711 -683.723 641.97 -644.631 603.361L-14.8126 -21.1487C24.2796 -59.7582 87.0201 -59.7582 125.63 -20.6661L598.114 455.197C636.724 494.289 636.724 557.029 597.631 595.639L-32.1869 1220.15C-71.279 1258.76 -134.02 1258.76 -172.629 1219.67Z" stroke="#9FBEED" stroke-width="0.3529" stroke-miterlimit="10"/>
<path d="M-210.274 1229.8L-654.767 781.931C-692.894 743.321 -692.894 681.063 -654.284 642.936L24.279 -30.8006C62.8886 -68.9275 125.147 -68.9275 163.273 -30.318L607.766 417.553C645.893 456.162 645.893 518.42 607.283 556.547L-71.2797 1230.28C-109.889 1268.41 -172.147 1267.93 -210.274 1229.8Z" stroke="#9FBEED" stroke-width="0.3529" stroke-miterlimit="10"/>
<path d="M-247.918 1239.45L-664.901 819.574C-702.545 781.447 -702.545 720.155 -664.418 682.028L63.3718 -40.9361C101.499 -78.5804 162.791 -78.5804 200.918 -40.4535L617.902 379.425C655.546 417.552 655.546 478.845 617.419 516.972L-110.371 1239.94C-148.498 1277.58 -209.791 1277.58 -247.918 1239.45Z" stroke="#9FBEED" stroke-width="0.3529" stroke-miterlimit="10"/>
<path d="M-285.562 1249.11L-675.036 856.736C-712.681 819.091 -712.198 758.281 -674.554 720.637L102.464 -50.5888C140.108 -88.2331 200.918 -87.7505 238.563 -50.1061L628.036 342.263C665.681 379.908 665.198 440.718 627.554 478.362L-149.464 1249.59C-187.108 1287.23 -247.918 1286.75 -285.562 1249.11Z" stroke="#9FBEED" stroke-width="0.3529" stroke-miterlimit="10"/>
<path d="M-323.207 1258.76L-685.172 894.38C-722.333 857.219 -721.851 796.891 -684.689 759.73L141.556 -60.2408C178.717 -97.4025 239.045 -96.9199 276.207 -59.7582L638.171 304.619C675.333 341.781 674.85 402.109 637.689 439.27L-188.556 1259.24C-225.718 1296.4 -286.045 1295.92 -323.207 1258.76Z" stroke="#9FBEED" stroke-width="0.3529" stroke-miterlimit="10"/>
<path d="M-360.851 1268.41L-694.824 932.024C-731.503 895.345 -731.02 835.5 -694.341 798.821L180.648 -69.8937C217.327 -106.573 277.172 -106.09 313.851 -69.4111L648.306 267.457C684.985 304.136 684.503 363.981 647.824 400.66L-227.165 1269.38C-264.327 1305.57 -324.172 1305.57 -360.851 1268.41Z" stroke="#9FBEED" stroke-width="0.3529" stroke-miterlimit="10"/>
<path d="M-398.495 1278.55L-704.959 969.669C-741.155 932.99 -741.155 874.111 -704.476 837.914L219.74 -79.5453C256.419 -115.742 315.299 -115.742 351.495 -79.0627L657.959 229.814C694.155 266.493 694.155 325.372 657.476 361.569L-266.74 1279.03C-303.419 1315.22 -362.299 1314.74 -398.495 1278.55Z" stroke="#9FBEED" stroke-width="0.3529" stroke-miterlimit="10"/>
<path d="M-436.14 1288.2L-715.094 1007.31C-750.808 971.117 -750.808 912.72 -714.611 877.006L258.832 -89.6806C295.029 -125.394 353.426 -125.394 389.14 -89.198L668.093 191.687C703.807 227.883 703.807 286.28 667.611 321.994L-305.833 1288.68C-342.029 1324.39 -399.943 1324.39 -436.14 1288.2Z" stroke="#9FBEED" stroke-width="0.3529" stroke-miterlimit="10"/>
<path d="M-473.784 1297.85L-725.228 1044.48C-760.46 1008.76 -760.46 951.33 -724.746 915.616L297.925 -99.3327C333.639 -134.564 391.071 -134.564 426.784 -98.8501L678.229 154.525C713.46 190.239 713.46 247.671 677.747 283.385L-344.924 1298.33C-380.638 1334.05 -438.07 1333.56 -473.784 1297.85Z" stroke="#9FBEED" stroke-width="0.3529" stroke-miterlimit="10"/>
<path d="M-511.428 1307.5L-735.364 1082.12C-770.595 1046.89 -770.112 989.939 -734.881 954.708L337.017 -108.985C372.248 -144.217 429.197 -143.734 464.428 -108.503L688.364 116.88C723.595 152.112 723.112 209.061 687.881 244.292L-384.017 1307.99C-419.248 1343.22 -476.197 1342.73 -511.428 1307.5Z" stroke="#9FBEED" stroke-width="0.3529" stroke-miterlimit="10"/>
<path d="M-549.073 1317.64L-745.016 1120.25C-779.765 1085.5 -779.282 1029.03 -744.534 994.283L376.109 -118.637C410.857 -153.386 467.324 -152.903 502.072 -118.155L698.016 79.2366C732.764 113.985 732.282 170.452 697.533 205.2L-423.109 1318.12C-457.858 1352.39 -514.324 1352.39 -549.073 1317.64Z" stroke="#9FBEED" stroke-width="0.3529" stroke-miterlimit="10"/>
<path d="M-586.717 1327.29L-755.152 1157.41C-789.418 1123.14 -789.418 1067.16 -754.669 1032.89L415.201 -128.29C449.467 -162.556 505.45 -162.556 539.716 -127.808L708.151 42.0745C742.417 76.3404 742.417 132.324 707.668 166.59L-462.202 1327.77C-496.467 1362.04 -552.451 1361.56 -586.717 1327.29Z" stroke="#9FBEED" stroke-width="0.3529" stroke-miterlimit="10"/>
<path d="M-624.361 1336.94L-765.286 1195.05C-799.069 1160.79 -799.069 1105.77 -764.803 1071.98L454.293 -138.425C488.559 -172.209 543.578 -172.209 577.361 -137.943L718.286 3.94754C752.07 38.2135 752.07 93.2321 717.804 127.016L-501.293 1337.43C-535.076 1371.21 -590.578 1371.21 -624.361 1336.94Z" stroke="#9FBEED" stroke-width="0.3529" stroke-miterlimit="10"/>
<path d="M-662.006 1346.59L-775.421 1232.7C-808.722 1198.91 -808.722 1144.38 -774.939 1111.08L493.385 -148.078C527.169 -181.378 581.705 -181.378 615.005 -147.595L728.421 -33.2142C761.722 0.56918 761.722 55.1052 727.938 88.4059L-540.386 1347.08C-574.169 1380.38 -628.222 1380.38 -662.006 1346.59Z" stroke="#9FBEED" stroke-width="0.3529" stroke-miterlimit="10"/>
</g>
<defs>
<clipPath id="clip0_2199_15865">
<rect width="754" height="702" fill="white"/>
</clipPath>
</defs>
</svg>
