<svg width="315" height="663" viewBox="0 0 315 663" fill="none" xmlns="http://www.w3.org/2000/svg">
<g clip-path="url(#clip0_2357_17771)">
<path d="M-419.354 -19.0495L-364.26 -73.6786C-347.988 -89.7186 -321.719 -89.7186 -305.679 -73.4461L300.588 537.47C316.628 553.743 316.628 580.011 300.355 596.051L245.261 650.68C228.989 666.72 202.72 666.72 186.68 650.448L-419.587 39.5315C-435.627 23.259 -435.627 -2.77695 -419.354 -19.0495Z" stroke="#2A5392" stroke-width="0.3529" stroke-miterlimit="10"/>
<path d="M-414.704 -0.917608L-346.36 -68.7972C-329.855 -85.0697 -303.354 -85.0697 -287.081 -68.5647L295.939 518.64C312.212 535.145 312.212 561.646 295.707 577.919L227.362 645.798C210.857 662.071 184.356 662.071 168.084 645.566L-414.937 58.3608C-431.209 42.0883 -430.977 15.3549 -414.704 -0.917608Z" stroke="#2A5392" stroke-width="0.3529" stroke-miterlimit="10"/>
<path d="M-410.055 17.2142L-328.227 -63.9158C-311.722 -80.4208 -284.757 -80.4208 -268.252 -63.6833L291.29 499.81C307.795 516.315 307.795 543.281 291.057 559.786L209.23 640.916C192.725 657.421 165.759 657.421 149.254 640.683L-410.055 77.19C-426.56 60.6851 -426.56 33.7192 -410.055 17.2142Z" stroke="#2A5392" stroke-width="0.3529" stroke-miterlimit="10"/>
<path d="M-405.173 35.3472L-310.095 -59.0333C-293.358 -75.7707 -266.159 -75.5382 -249.422 -58.8008L286.641 480.981C303.378 497.719 303.146 524.917 286.408 541.654L191.33 636.035C174.593 652.772 147.395 652.54 130.657 635.803L-405.406 96.0204C-422.143 79.283 -422.143 52.0847 -405.173 35.3472Z" stroke="#2A5392" stroke-width="0.3529" stroke-miterlimit="10"/>
<path d="M-400.525 53.4791L-291.964 -54.3843C-274.994 -71.3542 -247.563 -71.1217 -230.594 -54.1518L281.99 462.151C298.96 479.121 298.728 506.552 281.758 523.522L173.197 631.385C156.227 648.355 128.796 648.123 111.826 631.153L-400.757 114.85C-417.727 97.8798 -417.495 70.449 -400.525 53.4791Z" stroke="#2A5392" stroke-width="0.3529" stroke-miterlimit="10"/>
<path d="M-395.876 71.6113L-273.832 -49.5027C-256.63 -66.4726 -228.966 -66.4726 -211.764 -49.2702L277.108 443.322C294.078 460.524 294.078 488.187 276.876 505.39L154.832 626.504C137.63 643.473 109.967 643.473 92.7643 626.271L-396.108 133.679C-413.078 116.477 -413.078 88.8136 -395.876 71.6113Z" stroke="#2A5392" stroke-width="0.3529" stroke-miterlimit="10"/>
<path d="M-391.226 89.7431L-255.932 -44.6213C-238.497 -61.8236 -210.369 -61.8236 -193.166 -44.3888L272.227 424.492C289.43 441.927 289.43 470.055 271.995 487.257L136.701 621.621C119.266 638.824 91.1376 638.824 73.9353 621.389L-391.458 152.508C-408.661 135.074 -408.428 107.178 -391.226 89.7431Z" stroke="#2A5392" stroke-width="0.3529" stroke-miterlimit="10"/>
<path d="M-386.343 107.877L-237.566 -39.738C-219.899 -57.1728 -191.538 -57.1728 -174.103 -39.5055L267.811 405.664C285.246 423.331 285.246 451.692 267.579 469.126L118.802 616.741C101.134 634.176 72.7736 634.176 55.3388 616.509L-386.576 171.34C-404.011 153.672 -404.011 125.312 -386.343 107.877Z" stroke="#2A5392" stroke-width="0.3529" stroke-miterlimit="10"/>
<path d="M-381.694 126.008L-219.667 -34.8574C-202 -52.5247 -173.174 -52.2922 -155.507 -34.6249L262.929 386.833C280.596 404.5 280.364 433.326 262.697 450.993L100.669 612.091C83.0018 629.758 54.1762 629.526 36.5089 611.858L-381.927 190.401C-399.594 172.501 -399.594 143.675 -381.694 126.008Z" stroke="#2A5392" stroke-width="0.3529" stroke-miterlimit="10"/>
<path d="M-377.046 144.14L-201.536 -30.2084C-183.636 -48.1082 -154.578 -47.8757 -136.678 -29.976L258.279 368.003C276.178 385.903 275.946 414.961 258.046 432.86L82.5357 607.209C64.6359 625.109 35.5779 624.876 17.6781 606.976L-377.279 208.997C-395.178 191.098 -394.946 162.04 -377.046 144.14Z" stroke="#2A5392" stroke-width="0.3529" stroke-miterlimit="10"/>
<path d="M-372.397 162.274L-183.404 -25.3251C-165.271 -43.4573 -135.981 -43.2249 -117.849 -25.0926L253.629 349.175C271.761 367.307 271.529 396.598 253.397 414.73L64.4034 602.329C46.2711 620.461 16.9807 620.228 -1.15156 602.096L-372.629 227.829C-390.529 209.696 -390.529 180.406 -372.397 162.274Z" stroke="#2A5392" stroke-width="0.3529" stroke-miterlimit="10"/>
<path d="M-367.747 180.406L-165.503 -20.4434C-147.138 -38.5756 -117.615 -38.5756 -99.2506 -20.211L248.749 330.345C266.881 348.71 266.881 378.233 248.516 396.598L46.2721 597.447C27.9074 615.579 -1.6156 615.579 -19.9803 597.214L-367.979 246.658C-386.112 228.293 -385.879 198.77 -367.747 180.406Z" stroke="#2A5392" stroke-width="0.3529" stroke-miterlimit="10"/>
<path d="M-362.865 198.538L-147.138 -15.5621C-128.541 -33.9267 -98.5529 -33.9267 -80.1882 -15.3296L244.332 311.515C262.697 330.112 262.697 360.1 244.1 378.465L28.3726 592.564C9.77548 610.929 -20.2124 610.929 -38.5771 592.332L-363.097 265.487C-381.462 246.89 -381.462 216.902 -362.865 198.538Z" stroke="#2A5392" stroke-width="0.3529" stroke-miterlimit="10"/>
<path d="M-358.216 216.669L-129.006 -10.9131C-110.176 -29.5102 -79.956 -29.5102 -61.3589 -10.6806L239.682 292.685C258.279 311.515 258.279 341.735 239.45 360.332L10.2401 587.915C-8.58951 606.512 -38.8099 606.512 -57.407 587.682L-358.448 284.317C-377.045 265.487 -377.045 235.267 -358.216 216.669Z" stroke="#2A5392" stroke-width="0.3529" stroke-miterlimit="10"/>
<path d="M-353.566 234.802L-111.106 -5.79818C-92.2759 -24.6278 -61.5906 -24.3953 -42.761 -5.56572L234.801 274.089C253.631 292.918 253.399 323.604 234.569 342.433L-7.89133 583.034C-26.7209 601.863 -57.4063 601.631 -76.2359 582.801L-353.798 303.147C-372.628 284.317 -372.395 253.632 -353.566 234.802Z" stroke="#2A5392" stroke-width="0.3529" stroke-miterlimit="10"/>
<path d="M-95.0658 577.919L-349.149 321.976C-368.211 302.914 -367.979 271.996 -348.917 252.934L-92.9736 -1.14922C-73.9115 -20.2113 -42.9938 -19.9788 -23.9317 -0.916763L230.152 255.026C249.214 274.088 248.981 305.006 229.919 324.068L-26.0238 578.152C-45.0859 597.214 -76.0037 596.981 -95.0658 577.919Z" stroke="#2A5392" stroke-width="0.3529" stroke-miterlimit="10"/>
<path d="M-113.198 582.569L-353.798 340.109C-372.628 321.279 -372.395 290.594 -353.566 271.764L-74.1437 -5.79817C-55.3141 -24.6278 -24.6288 -24.3953 -5.7992 -5.56571L235.034 236.895C253.863 255.724 253.631 286.409 234.801 305.239L-44.8532 582.801C-63.6828 601.631 -94.3681 601.631 -113.198 582.569Z" stroke="#2A5392" stroke-width="0.3529" stroke-miterlimit="10"/>
<path d="M-131.331 587.217L-358.913 358.008C-377.51 339.178 -377.51 308.958 -358.681 290.361L-55.3147 -10.4483C-36.4851 -29.0454 -6.26473 -29.0454 12.3324 -10.2158L239.915 218.994C258.512 237.824 258.512 268.044 239.682 286.641L-63.6834 587.45C-82.513 606.047 -112.733 606.047 -131.331 587.217Z" stroke="#2A5392" stroke-width="0.3529" stroke-miterlimit="10"/>
<path d="M-149.462 592.1L-363.562 376.373C-381.927 357.775 -381.927 327.788 -363.33 309.423L-36.4848 -15.0972C-17.8876 -33.4619 12.1003 -33.4619 30.4649 -14.8647L244.564 200.862C262.929 219.459 262.929 249.447 244.332 267.812L-82.5127 592.332C-101.11 610.697 -131.098 610.464 -149.462 592.1Z" stroke="#2A5392" stroke-width="0.3529" stroke-miterlimit="10"/>
<path d="M-167.594 596.749L-368.443 394.505C-386.576 376.141 -386.576 346.618 -368.211 328.253L-17.6548 -19.9786C0.709911 -38.1108 30.2329 -38.1108 48.5976 -19.7461L249.447 182.498C267.579 200.863 267.579 230.385 249.214 248.75L-101.342 596.982C-119.707 615.114 -149.23 615.114 -167.594 596.749Z" stroke="#2A5392" stroke-width="0.3529" stroke-miterlimit="10"/>
<path d="M-185.726 601.397L-373.325 412.403C-391.457 394.271 -391.225 364.98 -373.093 346.848L1.1749 -24.6298C19.3071 -42.762 48.5976 -42.5295 66.7298 -24.3973L254.329 164.596C272.461 182.728 272.228 212.019 254.096 230.151L-120.171 601.629C-138.304 619.761 -167.594 619.529 -185.726 601.397Z" stroke="#2A5392" stroke-width="0.3529" stroke-miterlimit="10"/>
<path d="M-203.86 606.048L-378.208 430.538C-396.108 412.638 -395.876 383.58 -377.976 365.68L20.003 -29.2768C37.9027 -47.1765 66.9607 -46.9441 84.8605 -29.0443L259.209 146.466C277.109 164.366 276.876 193.424 258.976 211.324L-139.003 606.281C-156.902 624.18 -185.96 623.948 -203.86 606.048Z" stroke="#2A5392" stroke-width="0.3529" stroke-miterlimit="10"/>
<path d="M-221.992 610.696L-382.857 448.668C-400.525 431.001 -400.292 402.175 -382.625 384.508L38.8329 -33.9277C56.5002 -51.595 85.3258 -51.3625 102.993 -33.6952L264.091 128.565C281.758 146.232 281.526 175.058 263.858 192.725L-157.599 611.161C-175.499 628.595 -204.325 628.595 -221.992 610.696Z" stroke="#2A5392" stroke-width="0.3529" stroke-miterlimit="10"/>
<path d="M-240.123 615.579L-387.738 466.801C-405.173 449.134 -405.173 420.774 -387.505 403.339L57.6636 -38.5758C75.3309 -56.0107 103.692 -56.0107 121.126 -38.3434L268.741 110.434C286.176 128.101 286.176 156.462 268.509 173.897L-176.66 615.811C-194.328 633.246 -222.688 633.013 -240.123 615.579Z" stroke="#2A5392" stroke-width="0.3529" stroke-miterlimit="10"/>
<path d="M-258.257 620.226L-392.621 484.932C-409.824 467.497 -409.824 439.369 -392.389 422.167L76.4917 -43.4592C93.9265 -60.6615 122.055 -60.6615 139.257 -43.2267L273.621 92.0675C290.824 109.502 290.824 137.631 273.389 154.833L-195.492 620.459C-212.926 637.661 -240.822 637.661 -258.257 620.226Z" stroke="#2A5392" stroke-width="0.3529" stroke-miterlimit="10"/>
<path d="M-276.389 624.876L-397.503 502.832C-414.473 485.63 -414.473 457.967 -397.27 440.764L95.3217 -48.1081C112.524 -65.078 140.187 -65.078 157.39 -47.8757L278.504 74.1681C295.473 91.3704 295.473 119.034 278.271 136.236L-214.321 625.108C-231.523 642.311 -259.186 642.078 -276.389 624.876Z" stroke="#2A5392" stroke-width="0.3529" stroke-miterlimit="10"/>
<path d="M-294.521 629.525L-402.384 520.964C-419.354 503.995 -419.122 476.564 -402.152 459.594L114.151 -52.7574C131.121 -69.7272 158.552 -69.4948 175.522 -52.5249L283.385 56.0359C300.355 73.0058 300.123 100.437 283.153 117.406L-233.15 629.758C-250.12 646.728 -277.551 646.495 -294.521 629.525Z" stroke="#2A5392" stroke-width="0.3529" stroke-miterlimit="10"/>
<path d="M-312.653 634.407L-407.033 539.33C-423.771 522.592 -423.538 495.394 -406.801 478.656L132.981 -57.4063C149.719 -74.1437 176.917 -73.9113 193.654 -57.1738L288.035 37.9041C304.772 54.6415 304.54 81.8398 287.803 98.5773L-251.98 634.64C-268.717 651.145 -295.915 651.145 -312.653 634.407Z" stroke="#2A5392" stroke-width="0.3529" stroke-miterlimit="10"/>
<path d="M-330.786 639.056L-411.916 557.229C-428.421 540.724 -428.421 513.758 -411.683 497.253L151.81 -62.0564C168.315 -78.5614 195.281 -78.5614 211.786 -61.824L292.916 20.0035C309.421 36.5084 309.421 63.4743 292.683 79.9793L-270.81 639.288C-287.315 655.793 -314.281 655.561 -330.786 639.056Z" stroke="#2A5392" stroke-width="0.3529" stroke-miterlimit="10"/>
<path d="M-348.918 643.706L-416.797 575.361C-433.07 558.856 -433.07 532.355 -416.565 516.083L170.64 -66.9378C187.145 -83.2103 213.646 -83.2103 229.919 -66.7053L297.798 1.63917C314.071 18.1441 314.071 44.6451 297.566 60.9176L-289.639 643.938C-305.912 660.211 -332.645 660.211 -348.918 643.706Z" stroke="#2A5392" stroke-width="0.3529" stroke-miterlimit="10"/>
<path d="M-367.049 648.355L-421.679 593.493C-437.719 577.221 -437.719 550.953 -421.446 534.912L189.47 -71.5868C205.743 -87.6268 232.011 -87.6268 248.051 -71.3543L302.68 -16.2603C318.72 0.0122301 318.72 26.2807 302.448 42.3207L-308.468 648.588C-324.741 664.628 -350.777 664.628 -367.049 648.355Z" stroke="#2A5392" stroke-width="0.3529" stroke-miterlimit="10"/>
</g>
<defs>
<clipPath id="clip0_2357_17771">
<rect width="315" height="663" fill="white"/>
</clipPath>
</defs>
</svg>
