<svg width="315" height="665" viewBox="0 0 315 665" fill="none" xmlns="http://www.w3.org/2000/svg">
<g clip-path="url(#clip0_2041_15502)">
<path d="M-419.354 -17.0504L-364.26 -71.6795C-347.988 -87.7196 -321.719 -87.7196 -305.679 -71.4471L300.588 539.469C316.628 555.742 316.628 582.01 300.355 598.05L245.261 652.679C228.989 668.719 202.72 668.719 186.68 652.447L-419.587 41.5306C-435.627 25.2581 -435.627 -0.777931 -419.354 -17.0504Z" stroke="#2A5392" stroke-width="0.3529" stroke-miterlimit="10"/>
<path d="M-414.704 1.08142L-346.36 -66.7982C-329.855 -83.0707 -303.354 -83.0707 -287.081 -66.5657L295.939 520.639C312.212 537.144 312.212 563.645 295.707 579.918L227.362 647.797C210.857 664.07 184.356 664.07 168.084 647.565L-414.937 60.3598C-431.209 44.0873 -430.977 17.3539 -414.704 1.08142Z" stroke="#2A5392" stroke-width="0.3529" stroke-miterlimit="10"/>
<path d="M-410.055 19.2142L-328.227 -61.9158C-311.722 -78.4208 -284.757 -78.4208 -268.252 -61.6833L291.29 501.81C307.795 518.315 307.795 545.281 291.057 561.786L209.23 642.916C192.725 659.421 165.759 659.421 149.254 642.683L-410.055 79.19C-426.56 62.6851 -426.56 35.7192 -410.055 19.2142Z" stroke="#2A5392" stroke-width="0.3529" stroke-miterlimit="10"/>
<path d="M-405.173 37.3463L-310.095 -57.0342C-293.358 -73.7717 -266.159 -73.5392 -249.422 -56.8018L286.641 482.98C303.378 499.718 303.146 526.916 286.408 543.654L191.33 638.034C174.593 654.771 147.395 654.539 130.657 637.802L-405.406 98.0195C-422.143 81.282 -422.143 54.0837 -405.173 37.3463Z" stroke="#2A5392" stroke-width="0.3529" stroke-miterlimit="10"/>
<path d="M-400.525 55.4781L-291.964 -52.3853C-274.994 -69.3552 -247.563 -69.1227 -230.594 -52.1528L281.99 464.15C298.96 481.12 298.728 508.551 281.758 525.521L173.197 633.384C156.227 650.354 128.796 650.122 111.826 633.152L-400.757 116.849C-417.727 99.8788 -417.495 72.448 -400.525 55.4781Z" stroke="#2A5392" stroke-width="0.3529" stroke-miterlimit="10"/>
<path d="M-395.876 73.6103L-273.832 -47.5036C-256.63 -64.4735 -228.966 -64.4735 -211.764 -47.2712L277.108 445.321C294.078 462.523 294.078 490.186 276.876 507.389L154.832 628.503C137.63 645.473 109.967 645.472 92.7643 628.27L-396.108 135.678C-413.078 118.476 -413.078 90.8126 -395.876 73.6103Z" stroke="#2A5392" stroke-width="0.3529" stroke-miterlimit="10"/>
<path d="M-391.226 91.7431L-255.931 -42.6213C-238.497 -59.8236 -210.368 -59.8236 -193.166 -42.3888L272.228 426.492C289.43 443.927 289.43 472.055 271.995 489.257L136.701 623.621C119.266 640.824 91.1379 640.824 73.9355 623.389L-391.458 154.508C-408.66 137.074 -408.428 109.178 -391.226 91.7431Z" stroke="#2A5392" stroke-width="0.3529" stroke-miterlimit="10"/>
<path d="M-386.343 109.875L-237.566 -37.7399C-219.899 -55.1747 -191.538 -55.1747 -174.103 -37.5074L267.811 407.662C285.246 425.329 285.246 453.69 267.579 471.124L118.802 618.739C101.134 636.174 72.7736 636.174 55.3388 618.507L-386.576 173.338C-404.011 155.67 -404.011 127.31 -386.343 109.875Z" stroke="#2A5392" stroke-width="0.3529" stroke-miterlimit="10"/>
<path d="M-381.694 128.007L-219.667 -32.8584C-202 -50.5256 -173.174 -50.2932 -155.507 -32.6259L262.929 388.832C280.596 406.499 280.364 435.325 262.697 452.992L100.669 614.09C83.0018 631.757 54.1762 631.525 36.5089 613.857L-381.927 192.4C-399.594 174.5 -399.594 145.674 -381.694 128.007Z" stroke="#2A5392" stroke-width="0.3529" stroke-miterlimit="10"/>
<path d="M-377.046 146.14L-201.536 -28.2084C-183.636 -46.1082 -154.578 -45.8757 -136.678 -27.976L258.279 370.003C276.178 387.903 275.946 416.961 258.046 434.86L82.5357 609.209C64.6359 627.109 35.5779 626.876 17.6781 608.976L-377.279 210.997C-395.178 193.098 -394.946 164.04 -377.046 146.14Z" stroke="#2A5392" stroke-width="0.3529" stroke-miterlimit="10"/>
<path d="M-372.397 164.272L-183.404 -23.3271C-165.271 -41.4593 -135.981 -41.2268 -117.849 -23.0946L253.629 351.173C271.761 369.305 271.529 398.596 253.397 416.728L64.4034 604.327C46.2711 622.459 16.9807 622.226 -1.15156 604.094L-372.629 229.827C-390.529 211.694 -390.529 182.404 -372.397 164.272Z" stroke="#2A5392" stroke-width="0.3529" stroke-miterlimit="10"/>
<path d="M-367.747 182.404L-165.503 -18.4454C-147.138 -36.5776 -117.615 -36.5776 -99.2506 -18.2129L248.749 332.343C266.881 350.708 266.881 380.231 248.516 398.596L46.2721 599.445C27.9074 617.577 -1.6156 617.577 -19.9803 599.212L-367.979 248.656C-386.112 230.291 -385.879 200.768 -367.747 182.404Z" stroke="#2A5392" stroke-width="0.3529" stroke-miterlimit="10"/>
<path d="M-362.865 200.537L-147.138 -13.563C-128.541 -31.9277 -98.5529 -31.9277 -80.1882 -13.3306L244.332 313.514C262.697 332.111 262.697 362.099 244.1 380.464L28.3726 594.564C9.77548 612.928 -20.2124 612.928 -38.5771 594.331L-363.097 267.486C-381.462 248.889 -381.462 218.901 -362.865 200.537Z" stroke="#2A5392" stroke-width="0.3529" stroke-miterlimit="10"/>
<path d="M-358.216 218.668L-129.006 -8.91407C-110.176 -27.5112 -79.956 -27.5112 -61.3589 -8.6816L239.682 294.684C258.279 313.514 258.279 343.734 239.45 362.331L10.2401 589.914C-8.58951 608.511 -38.8099 608.511 -57.407 589.682L-358.448 286.316C-377.045 267.486 -377.045 237.266 -358.216 218.668Z" stroke="#2A5392" stroke-width="0.3529" stroke-miterlimit="10"/>
<path d="M-353.566 236.8L-111.106 -3.80013C-92.2759 -22.6297 -61.5906 -22.3973 -42.761 -3.56767L234.801 276.087C253.631 294.916 253.399 325.602 234.569 344.431L-7.89133 585.032C-26.7209 603.861 -57.4063 603.629 -76.2359 584.799L-353.798 305.145C-372.628 286.315 -372.395 255.63 -353.566 236.8Z" stroke="#2A5392" stroke-width="0.3529" stroke-miterlimit="10"/>
<path d="M-95.0658 579.918L-349.149 323.975C-368.211 304.913 -367.979 273.995 -348.917 254.933L-92.9736 0.8498C-73.9115 -18.2123 -42.9938 -17.9798 -23.9317 1.08226L230.152 257.025C249.214 276.088 248.981 307.005 229.919 326.067L-26.0238 580.151C-45.0859 599.213 -76.0037 598.98 -95.0658 579.918Z" stroke="#2A5392" stroke-width="0.3529" stroke-miterlimit="10"/>
<path d="M-113.198 584.567L-353.798 342.107C-372.628 323.277 -372.395 292.592 -353.566 273.762L-74.1437 -3.80013C-55.3141 -22.6297 -24.6288 -22.3973 -5.7992 -3.56767L235.034 238.893C253.863 257.722 253.631 288.408 234.801 307.237L-44.8532 584.799C-63.6828 603.629 -94.3681 603.629 -113.198 584.567Z" stroke="#2A5392" stroke-width="0.3529" stroke-miterlimit="10"/>
<path d="M-131.331 589.216L-358.913 360.007C-377.51 341.177 -377.51 310.957 -358.681 292.36L-55.3147 -8.44923C-36.4851 -27.0464 -6.26473 -27.0464 12.3324 -8.21677L239.915 220.993C258.512 239.823 258.512 270.043 239.682 288.64L-63.6834 589.449C-82.513 608.046 -112.733 608.046 -131.331 589.216Z" stroke="#2A5392" stroke-width="0.3529" stroke-miterlimit="10"/>
<path d="M-149.462 594.099L-363.562 378.372C-381.927 359.775 -381.927 329.787 -363.33 311.422L-36.4848 -13.0982C-17.8876 -31.4629 12.1003 -31.4629 30.4649 -12.8657L244.564 202.861C262.929 221.458 262.929 251.446 244.332 269.811L-82.5127 594.331C-101.11 612.696 -131.098 612.463 -149.462 594.099Z" stroke="#2A5392" stroke-width="0.3529" stroke-miterlimit="10"/>
<path d="M-167.594 598.747L-368.443 396.503C-386.576 378.139 -386.576 348.616 -368.211 330.251L-17.6548 -17.9805C0.709911 -36.1128 30.2329 -36.1128 48.5976 -17.7481L249.447 184.496C267.579 202.861 267.579 232.384 249.214 250.748L-101.342 598.98C-119.707 617.112 -149.23 617.112 -167.594 598.747Z" stroke="#2A5392" stroke-width="0.3529" stroke-miterlimit="10"/>
<path d="M-185.726 603.397L-373.325 414.403C-391.457 396.271 -391.225 366.98 -373.093 348.848L1.1749 -22.6298C19.3071 -40.762 48.5976 -40.5295 66.7298 -22.3973L254.329 166.596C272.461 184.728 272.228 214.019 254.096 232.151L-120.171 603.629C-138.304 621.761 -167.594 621.529 -185.726 603.397Z" stroke="#2A5392" stroke-width="0.3529" stroke-miterlimit="10"/>
<path d="M-203.86 608.046L-378.208 432.536C-396.108 414.636 -395.876 385.578 -377.976 367.678L20.003 -27.2787C37.9027 -45.1785 66.9607 -44.946 84.8605 -27.0463L259.209 148.464C277.109 166.364 276.876 195.422 258.976 213.322L-139.003 608.279C-156.902 626.178 -185.96 625.946 -203.86 608.046Z" stroke="#2A5392" stroke-width="0.3529" stroke-miterlimit="10"/>
<path d="M-221.992 612.696L-382.857 450.668C-400.525 433.001 -400.292 404.175 -382.625 386.508L38.8329 -31.9277C56.5002 -49.595 85.3258 -49.3625 102.993 -31.6952L264.091 130.565C281.758 148.232 281.526 177.058 263.858 194.725L-157.599 613.161C-175.499 630.595 -204.325 630.595 -221.992 612.696Z" stroke="#2A5392" stroke-width="0.3529" stroke-miterlimit="10"/>
<path d="M-240.123 617.577L-387.738 468.8C-405.173 451.132 -405.173 422.772 -387.505 405.337L57.6636 -36.5778C75.3309 -54.0126 103.692 -54.0126 121.126 -36.3453L268.741 112.432C286.176 130.099 286.176 158.46 268.509 175.895L-176.66 617.809C-194.328 635.244 -222.688 635.011 -240.123 617.577Z" stroke="#2A5392" stroke-width="0.3529" stroke-miterlimit="10"/>
<path d="M-258.257 622.226L-392.621 486.932C-409.824 469.497 -409.824 441.369 -392.389 424.167L76.4917 -41.4592C93.9265 -58.6615 122.055 -58.6615 139.257 -41.2267L273.621 94.0675C290.824 111.502 290.824 139.631 273.389 156.833L-195.492 622.459C-212.926 639.661 -240.822 639.661 -258.257 622.226Z" stroke="#2A5392" stroke-width="0.3529" stroke-miterlimit="10"/>
<path d="M-276.389 626.876L-397.503 504.832C-414.473 487.63 -414.473 459.967 -397.27 442.764L95.3217 -46.1081C112.524 -63.078 140.187 -63.078 157.39 -45.8757L278.504 76.1681C295.473 93.3704 295.473 121.034 278.271 138.236L-214.321 627.108C-231.523 644.311 -259.186 644.078 -276.389 626.876Z" stroke="#2A5392" stroke-width="0.3529" stroke-miterlimit="10"/>
<path d="M-294.521 631.525L-402.384 522.964C-419.354 505.995 -419.122 478.564 -402.152 461.594L114.151 -50.7574C131.121 -67.7272 158.552 -67.4948 175.522 -50.5249L283.385 58.0359C300.355 75.0058 300.123 102.437 283.153 119.406L-233.15 631.758C-250.12 648.728 -277.551 648.495 -294.521 631.525Z" stroke="#2A5392" stroke-width="0.3529" stroke-miterlimit="10"/>
<path d="M-312.653 636.407L-407.033 541.329C-423.771 524.591 -423.538 497.393 -406.801 480.655L132.981 -55.4073C149.719 -72.1447 176.917 -71.9122 193.654 -55.1748L288.035 39.9031C304.772 56.6405 304.54 83.8389 287.803 100.576L-251.98 636.639C-268.717 653.144 -295.915 653.144 -312.653 636.407Z" stroke="#2A5392" stroke-width="0.3529" stroke-miterlimit="10"/>
<path d="M-330.786 641.056L-411.916 559.229C-428.421 542.724 -428.421 515.758 -411.683 499.253L151.81 -60.0564C168.315 -76.5614 195.281 -76.5614 211.786 -59.824L292.916 22.0035C309.421 38.5084 309.421 65.4743 292.683 81.9793L-270.81 641.288C-287.315 657.793 -314.281 657.561 -330.786 641.056Z" stroke="#2A5392" stroke-width="0.3529" stroke-miterlimit="10"/>
<path d="M-348.918 645.706L-416.797 577.361C-433.07 560.856 -433.07 534.355 -416.565 518.083L170.64 -64.9378C187.145 -81.2103 213.646 -81.2103 229.919 -64.7053L297.798 3.63917C314.071 20.1441 314.071 46.6451 297.566 62.9176L-289.639 645.938C-305.912 662.211 -332.645 662.211 -348.918 645.706Z" stroke="#2A5392" stroke-width="0.3529" stroke-miterlimit="10"/>
<path d="M-367.049 650.354L-421.679 595.492C-437.719 579.22 -437.719 552.952 -421.446 536.912L189.47 -69.5877C205.743 -85.6278 232.011 -85.6278 248.051 -69.3553L302.68 -14.2612C318.72 2.01125 318.72 28.2797 302.448 44.3198L-308.468 650.587C-324.741 666.627 -350.777 666.627 -367.049 650.354Z" stroke="#2A5392" stroke-width="0.3529" stroke-miterlimit="10"/>
</g>
<defs>
<clipPath id="clip0_2041_15502">
<rect width="315" height="665" fill="white"/>
</clipPath>
</defs>
</svg>
