<svg width="505" height="561" viewBox="0 0 505 561" fill="none" xmlns="http://www.w3.org/2000/svg">
<g clip-path="url(#clip0_1711_8967)">
<path d="M438.786 228.954L458.819 217.377C459.339 217.116 459.86 217.247 460.12 217.767L471.698 237.8C471.958 238.321 471.828 238.841 471.307 239.101L451.274 250.679C450.754 250.939 450.233 250.809 449.973 250.289L438.395 230.255C438.135 229.865 438.395 229.215 438.786 228.954Z" fill="white"/>
<path d="M471.958 238.581L471.697 238.451L472.868 234.288L460.38 212.824L440.737 224.141L438.395 229.605L438.135 229.475L440.476 223.881C440.476 223.881 440.476 223.881 440.476 223.751L460.25 212.303C460.38 212.303 460.38 212.303 460.51 212.303L473.128 234.028V234.158L471.958 238.581Z" fill="white"/>
<path d="M460.354 212.437L459.169 218.303L459.424 218.354L460.609 212.489L460.354 212.437Z" fill="white"/>
<path d="M456.868 308.177C430.33 308.177 408.735 294.518 408.735 277.607C408.735 260.695 430.33 247.036 456.868 247.036C483.406 247.036 505 260.695 505 277.607C505 294.518 483.406 308.177 456.868 308.177ZM456.868 247.817C430.72 247.817 409.386 261.216 409.386 277.737C409.386 294.258 430.72 307.657 456.868 307.657C483.015 307.657 504.35 294.258 504.35 277.737C504.35 261.216 483.145 247.817 456.868 247.817Z" fill="white"/>
<path d="M456.868 287.104C430.33 287.104 408.735 273.444 408.735 256.533C408.735 239.752 430.33 225.962 456.868 225.962C483.406 225.962 505 239.622 505 256.533C505 273.444 483.406 287.104 456.868 287.104ZM456.868 226.743C430.72 226.743 409.386 240.142 409.386 256.663C409.386 273.184 430.72 286.583 456.868 286.583C483.015 286.583 504.35 273.184 504.35 256.663C504.35 240.142 483.145 226.743 456.868 226.743Z" fill="white"/>
<path d="M456.868 266.029C430.33 266.029 408.735 252.37 408.735 235.459C408.735 218.547 430.33 204.888 456.868 204.888C483.406 204.888 505 218.547 505 235.459C505 252.37 483.406 266.029 456.868 266.029ZM456.868 205.669C430.72 205.669 409.386 219.068 409.386 235.589C409.386 252.11 430.72 265.509 456.868 265.509C483.015 265.509 504.35 252.11 504.35 235.589C504.35 219.068 483.145 205.669 456.868 205.669Z" fill="white"/>
<path d="M456.868 244.955C430.33 244.955 408.735 231.296 408.735 214.385C408.735 197.473 430.33 183.814 456.868 183.814C483.406 183.814 505 197.473 505 214.385C505 231.296 483.406 244.955 456.868 244.955ZM456.868 184.464C430.72 184.464 409.386 197.863 409.386 214.385C409.386 230.906 430.72 244.305 456.868 244.305C483.015 244.305 504.35 230.906 504.35 214.385C504.35 197.863 483.145 184.464 456.868 184.464Z" fill="white"/>
<path d="M456.868 223.881C430.33 223.881 408.735 210.222 408.735 193.31C408.735 176.399 430.33 162.74 456.868 162.74C483.406 162.74 505 176.399 505 193.31C505 210.222 483.406 223.881 456.868 223.881ZM456.868 163.39C430.72 163.39 409.386 176.789 409.386 193.31C409.386 209.831 430.72 223.23 456.868 223.23C483.015 223.23 504.35 209.831 504.35 193.31C504.35 176.789 483.145 163.39 456.868 163.39Z" fill="white"/>
<path d="M457.258 57.2383H456.607V184.204H457.258V57.2383Z" fill="white"/>
<path d="M467.925 100.037H447.241V100.688H467.925V100.037Z" fill="white"/>
<path d="M102.899 390.783C94.3136 390.783 87.4189 379.855 87.4189 366.456C87.4189 353.057 94.4437 342.13 102.899 342.13C111.355 342.13 118.38 353.057 118.38 366.456C118.38 379.855 111.485 390.783 102.899 390.783ZM102.899 342.78C94.7039 342.78 88.0694 353.448 88.0694 366.456C88.0694 379.465 94.7039 390.132 102.899 390.132C111.095 390.132 117.729 379.465 117.729 366.456C117.729 353.448 111.095 342.78 102.899 342.78Z" fill="white"/>
<path d="M92.3623 390.783C83.7765 390.783 76.8818 379.855 76.8818 366.456C76.8818 353.057 83.7765 342.13 92.3623 342.13C100.948 342.13 107.843 353.057 107.843 366.456C107.843 379.855 100.818 390.783 92.3623 390.783ZM92.3623 342.78C84.1667 342.78 77.5323 353.448 77.5323 366.456C77.5323 379.465 84.1667 390.132 92.3623 390.132C100.558 390.132 107.192 379.465 107.192 366.456C107.192 353.448 100.558 342.78 92.3623 342.78Z" fill="white"/>
<path d="M81.6958 390.783C73.11 390.783 66.2153 379.855 66.2153 366.456C66.2153 353.057 73.2401 342.13 81.6958 342.13C90.1514 342.13 97.1762 353.057 97.1762 366.456C97.1762 379.855 90.2815 390.783 81.6958 390.783ZM81.6958 342.78C73.5002 342.78 66.8658 353.448 66.8658 366.456C66.8658 379.465 73.5002 390.132 81.6958 390.132C89.8913 390.132 96.5257 379.465 96.5257 366.456C96.5257 353.448 89.8913 342.78 81.6958 342.78Z" fill="white"/>
<path d="M71.1582 390.783C62.5724 390.783 55.6777 379.855 55.6777 366.456C55.6777 353.057 62.7025 342.13 71.1582 342.13C79.6139 342.13 86.6386 353.057 86.6386 366.456C86.6386 379.855 79.7439 390.783 71.1582 390.783ZM71.1582 342.78C62.9626 342.78 56.3282 353.448 56.3282 366.456C56.3282 379.465 62.9626 390.132 71.1582 390.132C79.3537 390.132 85.9881 379.465 85.9881 366.456C85.9881 353.448 79.3537 342.78 71.1582 342.78Z" fill="white"/>
<path d="M60.621 390.783C52.0353 390.783 45.1406 379.855 45.1406 366.456C45.1406 353.057 52.0353 342.13 60.621 342.13C69.2068 342.13 76.1015 353.057 76.1015 366.456C76.1015 379.855 69.0767 390.783 60.621 390.783ZM60.621 342.78C52.4255 342.78 45.7911 353.448 45.7911 366.456C45.7911 379.465 52.4255 390.132 60.621 390.132C68.8166 390.132 75.451 379.465 75.451 366.456C75.451 353.448 68.8166 342.78 60.621 342.78Z" fill="white"/>
<path d="M132.429 436.444H0V366.196H132.429V436.444ZM0.650438 435.793H131.779V366.847H0.650438V435.793Z" fill="white"/>
<path d="M75.581 413.809H39.937V496.024H75.581V413.809Z" fill="white"/>
<g opacity="0.5">
<path d="M75.5812 416.28C70.5077 415.89 65.5644 415.11 60.6211 414.069L60.7512 413.418C65.5644 414.459 70.6378 415.11 75.5812 415.5V416.28Z" fill="#D9D9D9"/>
<path d="M75.581 428.249C69.0766 427.728 62.7023 426.688 56.5882 425.127C50.6042 423.696 45.0104 421.744 39.937 419.533L40.1972 418.882C45.2706 421.094 50.8644 423.045 56.8484 424.476C62.9625 426.037 69.3368 427.078 75.7111 427.598L75.581 428.249Z" fill="#D9D9D9"/>
<path d="M75.581 440.216C69.0766 439.696 62.7023 438.655 56.5882 437.094C50.6042 435.663 45.0104 433.712 39.937 431.5L40.1972 430.85C45.2706 433.061 50.8644 435.012 56.8484 436.443C62.9625 438.004 69.3368 439.045 75.7111 439.565L75.581 440.216Z" fill="#D9D9D9"/>
<path d="M75.581 452.184C69.0766 451.664 62.7023 450.623 56.5882 449.062C50.6042 447.631 45.0104 445.68 39.937 443.468L40.1972 442.818C45.2706 445.029 50.8644 446.981 56.8484 448.412C62.9625 449.973 69.3368 451.013 75.7111 451.534L75.581 452.184Z" fill="#D9D9D9"/>
<path d="M75.581 464.282C69.0766 463.762 62.7023 462.721 56.5882 461.16C50.6042 459.729 45.0104 457.778 39.937 455.566L40.1972 454.916C45.2706 457.128 50.8644 459.079 56.8484 460.51C62.9625 462.071 69.3368 463.112 75.7111 463.632L75.581 464.282Z" fill="#D9D9D9"/>
<path d="M75.581 476.251C69.0766 475.73 62.7023 474.69 56.5882 473.129C50.6042 471.698 45.0104 469.746 39.937 467.535L40.1972 466.884C45.2706 469.096 50.8644 471.047 56.8484 472.478C62.9625 474.039 69.3368 475.08 75.7111 475.6L75.581 476.251Z" fill="#D9D9D9"/>
<path d="M75.581 488.218C69.0766 487.698 62.7023 486.657 56.5882 485.096C50.6042 483.665 45.0104 481.714 39.937 479.502L40.1972 478.852C45.2706 481.064 50.8644 483.015 56.8484 484.446C62.9625 486.007 69.3368 487.048 75.7111 487.568L75.581 488.218Z" fill="#D9D9D9"/>
<path d="M53.3357 496.284C48.5225 494.983 43.9694 493.292 39.8066 491.471L40.0668 490.82C44.2296 492.642 48.7827 494.203 53.4658 495.634L53.3357 496.284Z" fill="#D9D9D9"/>
<path d="M40.0668 418.752L39.8066 418.102C43.9694 416.28 48.3924 414.719 53.0756 413.418L53.2057 414.069C48.6526 415.37 44.2296 416.931 40.0668 418.752Z" fill="#D9D9D9"/>
<path d="M40.0668 430.72L39.8066 430.07C44.8801 427.858 50.6039 425.907 56.4579 424.476C62.572 422.915 69.0763 421.874 75.4506 421.354V422.004C69.0763 422.525 62.7021 423.565 56.5879 425.127C50.734 426.688 45.1402 428.509 40.0668 430.72Z" fill="#D9D9D9"/>
<path d="M40.0668 442.688L39.8066 442.038C44.8801 439.826 50.4738 437.875 56.4579 436.444C62.572 434.883 69.0763 433.842 75.4506 433.322V433.972C69.0763 434.493 62.7021 435.533 56.5879 437.094C50.734 438.655 45.1402 440.477 40.0668 442.688Z" fill="#D9D9D9"/>
<path d="M40.0668 454.786L39.8066 454.136C44.8801 451.924 50.6039 449.973 56.4579 448.542C62.572 446.981 69.0763 445.94 75.4506 445.42V446.07C69.0763 446.591 62.7021 447.631 56.5879 449.192C50.734 450.623 45.1402 452.445 40.0668 454.786Z" fill="#D9D9D9"/>
<path d="M40.0668 466.754L39.8066 466.104C44.8801 463.892 50.6039 461.941 56.4579 460.51C62.572 458.949 69.0763 457.908 75.4506 457.388V458.038C69.0763 458.558 62.7021 459.599 56.5879 461.16C50.734 462.591 45.1402 464.542 40.0668 466.754Z" fill="#D9D9D9"/>
<path d="M40.0668 478.722L39.8066 478.072C44.8801 475.86 50.6039 473.909 56.4579 472.478C62.572 470.917 69.0763 469.876 75.4506 469.356V470.006C69.0763 470.527 62.7021 471.567 56.5879 473.129C50.734 474.559 45.1402 476.511 40.0668 478.722Z" fill="#D9D9D9"/>
<path d="M40.0668 490.691L39.8066 490.041C44.8801 487.829 50.6039 485.878 56.4579 484.447C62.572 482.886 69.0763 481.845 75.4506 481.325V481.975C69.0763 482.495 62.7021 483.536 56.5879 485.097C50.734 486.658 45.1402 488.48 40.0668 490.691Z" fill="#D9D9D9"/>
<path d="M60.361 496.284L60.231 495.633C65.1743 494.593 70.3778 493.812 75.5813 493.422V494.072C70.3778 494.463 65.1743 495.243 60.361 496.284Z" fill="#D9D9D9"/>
</g>
<path d="M325.74 377.644H235.589V435.663H325.74V377.644Z" fill="#3E7DBE" stroke="white" stroke-width="0.650438" stroke-miterlimit="10"/>
<path d="M279.818 426.687C306.904 426.687 328.861 404.73 328.861 377.644C328.861 350.558 306.904 328.601 279.818 328.601C252.733 328.601 230.775 350.558 230.775 377.644C230.775 404.73 252.733 426.687 279.818 426.687Z" fill="#3E7DBE" stroke="white" stroke-width="0.650438" stroke-miterlimit="10"/>
<path d="M335.756 435.793H227.653V453.745H335.756V435.793Z" fill="white"/>
<path d="M346.944 453.355H218.547V560.287H346.944V453.355Z" fill="#73C7D1" stroke="white" stroke-width="0.650438" stroke-miterlimit="10"/>
<g opacity="0.64">
<path d="M227.523 514.236C224.401 514.236 221.409 513.976 218.547 513.455L218.677 512.805C223.231 513.716 228.174 513.846 233.507 513.325C248.337 511.764 264.338 504.61 278.258 493.292C292.307 481.974 302.584 467.925 307.137 453.615L307.267 453.355H307.527V453.485L307.918 453.615V453.745L307.787 454.005C303.104 468.315 292.697 482.365 278.778 493.682C264.728 505.13 248.598 512.285 233.638 513.846C231.426 514.236 229.475 514.236 227.523 514.236Z" fill="#3E7DBE"/>
<path d="M218.937 482.235L218.417 481.975C220.498 477.682 223.1 473.389 226.222 469.226L226.352 469.096C227.133 468.055 227.913 467.014 228.824 465.974L228.954 465.844C232.597 461.421 236.629 457.258 240.922 453.485L241.312 454.006C237.02 457.778 232.987 461.811 229.474 466.234L229.344 466.364C228.434 467.535 227.653 468.576 226.743 469.616V469.876H226.613C223.62 473.779 221.019 477.942 218.937 482.235Z" fill="#3E7DBE"/>
<path d="M245.996 537.132C240.532 537.132 235.589 536.351 231.166 534.66C225.962 532.709 221.799 529.717 218.547 525.814L218.417 525.684L218.937 525.294L219.067 525.424C222.19 529.327 226.352 532.189 231.426 534.14C237.41 536.351 244.304 537.132 251.98 536.221C266.81 534.66 282.81 527.505 296.73 516.188C310.779 504.87 321.056 490.821 325.609 476.511C327.951 469.356 328.731 462.462 327.951 456.217V455.957C327.821 455.307 327.691 454.526 327.56 453.746L328.211 453.616C328.341 454.396 328.471 455.047 328.601 455.697V455.957C329.512 462.201 328.731 469.486 326.26 476.771C321.576 491.081 311.169 505.26 297.12 516.708C283.071 528.156 266.94 535.311 251.98 536.872C249.898 537.002 247.947 537.132 245.996 537.132Z" fill="#3E7DBE"/>
<path d="M264.467 560.027C259.004 560.027 254.06 559.247 249.637 557.556C244.434 555.604 240.271 552.612 237.019 548.71C233.767 544.677 231.815 539.994 230.905 534.53C229.994 528.156 230.645 521.131 233.116 513.716C237.799 499.407 248.207 485.227 262.256 473.779C276.305 462.332 292.306 455.177 307.396 453.616C307.917 453.616 308.437 453.486 308.957 453.486C311.949 453.225 314.941 453.225 317.803 453.486C321.576 453.876 325.088 454.656 328.34 455.827C333.544 457.779 337.707 460.771 340.959 464.673C343.821 468.186 345.642 472.218 346.683 476.901C346.813 477.552 346.943 478.202 347.073 478.853L346.423 478.983C346.293 478.332 346.162 477.682 346.032 477.032C345.122 472.478 343.17 468.446 340.439 465.063C337.317 461.161 333.154 458.299 328.08 456.348C324.958 455.177 321.446 454.396 317.803 454.136C315.072 453.876 312.08 453.876 309.088 454.136C308.567 454.136 308.047 454.266 307.526 454.266C292.566 455.827 276.696 462.982 262.776 474.3C248.727 485.617 238.45 499.667 233.897 513.976C231.425 521.391 230.775 528.286 231.685 534.53C232.466 539.864 234.417 544.547 237.539 548.45C240.661 552.352 244.824 555.214 249.898 557.165C255.882 559.377 262.776 560.157 270.451 559.247C285.281 557.686 301.282 550.531 315.202 539.213C329.251 527.896 339.528 513.846 344.081 499.537C344.862 497.065 345.512 494.593 346.032 492.122L346.683 492.252C346.293 494.723 345.642 497.195 344.731 499.667C340.048 513.976 329.641 528.156 315.592 539.604C301.542 551.051 285.412 558.206 270.451 559.767C268.37 559.897 266.419 560.027 264.467 560.027Z" fill="#3E7DBE"/>
<path d="M336.667 560.158L336.277 559.637C339.789 556.645 343.172 553.263 346.164 549.881L346.684 550.271C343.562 553.783 340.179 557.166 336.667 560.158Z" fill="#3E7DBE"/>
<path d="M249.898 560.027C249.637 559.117 249.507 558.076 249.377 557.165C248.467 550.791 249.247 543.766 251.589 536.351C256.272 522.042 266.679 507.862 280.728 496.414C294.778 484.967 310.909 477.812 325.869 476.251C333.544 475.47 340.438 476.121 346.422 478.332C346.553 478.332 346.683 478.462 346.813 478.462L346.553 479.113C346.422 479.113 346.292 478.983 346.292 478.983C340.438 476.901 333.544 476.121 325.999 477.031C311.169 478.592 295.168 485.747 281.249 497.065C267.199 508.382 256.922 522.432 252.369 536.742C249.898 544.026 249.247 551.051 250.158 557.295C250.288 558.206 250.418 559.117 250.678 560.027H249.898Z" fill="#3E7DBE"/>
<path d="M270.582 560.027L269.932 559.897C270.062 559.636 270.062 559.506 270.192 559.246C274.875 544.937 285.282 530.757 299.331 519.309C313.381 507.862 329.512 500.707 344.472 499.146C345.122 499.146 345.643 499.016 346.293 499.016H346.423V499.666H346.293C345.773 499.666 345.122 499.796 344.472 499.796C329.642 501.357 313.641 508.512 299.722 519.83C285.672 531.147 275.395 545.197 270.842 559.506C270.712 559.636 270.582 559.767 270.582 560.027Z" fill="#3E7DBE"/>
</g>
<path d="M234.028 481.064C238.554 481.064 242.223 477.395 242.223 472.868C242.223 468.342 238.554 464.673 234.028 464.673C229.501 464.673 225.832 468.342 225.832 472.868C225.832 477.395 229.501 481.064 234.028 481.064Z" fill="white"/>
<path d="M310.519 40.5879H82.8657V410.427H310.519V40.5879Z" fill="#131944" stroke="white" stroke-width="0.650438" stroke-miterlimit="10"/>
<path d="M310.519 0.260254H82.8657V40.4573H310.519V0.260254Z" fill="#131944" stroke="white" stroke-width="0.650438" stroke-miterlimit="10"/>
<path d="M104.461 28.229C107.119 28.229 109.274 26.0741 109.274 23.4158C109.274 20.7575 107.119 18.6025 104.461 18.6025C101.802 18.6025 99.6475 20.7575 99.6475 23.4158C99.6475 26.0741 101.802 28.229 104.461 28.229Z" stroke="white" stroke-width="0.650438" stroke-miterlimit="10"/>
<path d="M104.46 24.9761C105.323 24.9761 106.022 24.2772 106.022 23.4151C106.022 22.5529 105.323 21.854 104.46 21.854C103.598 21.854 102.899 22.5529 102.899 23.4151C102.899 24.2772 103.598 24.9761 104.46 24.9761Z" fill="white"/>
<path d="M196.953 402.361C204.353 402.361 210.352 396.362 210.352 388.962C210.352 381.562 204.353 375.563 196.953 375.563C189.553 375.563 183.554 381.562 183.554 388.962C183.554 396.362 189.553 402.361 196.953 402.361Z" fill="white"/>
<path d="M181.342 20.6836H220.759" stroke="white" stroke-width="0.650438" stroke-miterlimit="10"/>
<path d="M326.39 357.481H221.409C212.043 357.481 204.498 349.935 204.498 340.569V338.358C204.498 328.991 212.043 321.446 221.409 321.446H326.39V357.481Z" fill="#3E7DBE" stroke="white" stroke-width="0.650438" stroke-miterlimit="10"/>
<path d="M244.955 313.251H219.718V339.399H244.955V313.251Z" fill="white"/>
<path d="M120.071 69.4668H107.583V84.8171" stroke="white" stroke-width="0.650438" stroke-miterlimit="10"/>
<path d="M270.192 69.4668H282.68V84.8171" stroke="white" stroke-width="0.650438" stroke-miterlimit="10"/>
<path d="M120.071 257.704H107.583V242.224" stroke="white" stroke-width="0.650438" stroke-miterlimit="10"/>
<path d="M270.192 257.704H282.68V242.224" stroke="white" stroke-width="0.650438" stroke-miterlimit="10"/>
<path d="M261.086 231.165H130.218C135.031 205.148 154.804 184.203 180.302 177.959L180.952 178.089C181.993 184.464 187.716 189.407 194.611 189.407C201.896 189.407 207.75 184.073 208.27 177.179C235.849 182.252 256.012 203.847 261.086 231.165Z" fill="#417DBE"/>
<path d="M219.718 136.722V133.86C222.32 134.64 224.271 137.502 224.271 141.015C224.271 144.917 221.799 148.169 218.677 148.43C219.328 146.218 219.588 144.007 219.588 141.535V136.722H219.718Z" fill="#73C7D1"/>
<path d="M171.456 134.641C170.415 135.941 169.634 136.592 169.634 136.592V133.73V127.095C167.293 126.445 165.602 124.364 165.602 121.762C165.602 120.461 166.122 119.29 166.772 118.25C165.992 117.339 165.602 116.038 165.602 114.737C165.602 112.916 166.512 111.355 167.813 110.314C167.293 109.404 166.902 108.363 166.902 107.322C166.902 104.33 169.374 101.858 172.366 101.858H173.927C174.838 100.037 176.659 98.7364 178.87 98.7364C179.781 98.7364 180.692 98.9965 181.472 99.3868C182.383 97.5656 184.204 96.3948 186.416 96.3948C187.196 96.3948 187.847 96.5249 188.497 96.7851C189.408 95.224 191.229 94.0532 193.18 94.0532C195.001 94.0532 196.692 94.9638 197.733 96.3948C198.644 95.6143 199.945 95.0939 201.376 95.0939C203.587 95.0939 205.538 96.3948 206.449 98.3461C207.36 97.5656 208.53 97.1753 209.831 97.1753C212.563 97.1753 214.905 99.2567 215.295 101.858C215.555 101.858 215.685 101.858 215.945 101.858C219.328 102.249 221.279 106.021 219.978 109.273L219.848 109.664C221.799 110.444 223.23 112.396 223.23 114.737C223.23 115.908 222.84 117.079 222.19 117.989C222.84 118.9 223.23 120.071 223.23 121.242C223.23 123.453 221.929 125.404 219.978 126.185V133.6V136.462C219.848 136.332 219.068 135.681 218.157 134.51C216.076 131.909 212.693 126.705 211.653 119.29C211.522 117.989 210.222 117.079 209.051 117.339C205.929 117.989 200.075 119.03 195.001 119.03C189.928 119.03 184.204 117.989 180.952 117.339C179.651 117.079 178.48 117.989 178.35 119.29C177.049 126.835 173.667 132.039 171.456 134.641Z" fill="#242752"/>
<path d="M219.718 136.722V141.665C219.718 144.007 219.328 146.348 218.807 148.56C217.116 154.674 213.083 159.877 207.88 162.999C204.107 165.341 199.554 166.642 194.741 166.642C189.928 166.642 185.375 165.341 181.602 162.999C179.911 161.959 178.35 160.788 177.049 159.357C174.057 156.365 171.846 152.592 170.675 148.43C170.024 146.218 169.764 144.007 169.764 141.535V136.592C169.764 136.592 170.545 135.941 171.585 134.64C173.667 132.039 177.049 126.835 178.22 119.42C178.35 118.119 179.651 117.209 180.822 117.469C183.944 118.119 189.798 119.16 194.871 119.16C199.944 119.16 205.668 118.119 208.921 117.469C210.221 117.209 211.392 118.119 211.522 119.42C212.563 126.835 215.945 132.039 218.027 134.64C218.937 135.811 219.588 136.592 219.718 136.722Z" fill="#73C7D1"/>
<g opacity="0.27">
<path d="M197.474 135.161C197.474 130.868 200.986 127.355 205.279 127.355C209.572 127.355 213.084 130.868 213.084 135.161C213.084 139.454 209.572 142.966 205.279 142.966C200.986 142.966 197.474 139.454 197.474 135.161ZM206.45 136.071C206.45 135.291 205.799 134.64 205.019 134.64C204.238 134.64 203.588 135.291 203.588 136.071C203.588 136.852 204.238 137.502 205.019 137.502C205.799 137.502 206.45 136.852 206.45 136.071Z" fill="#F6F6F6"/>
</g>
<path d="M208.4 177.179C207.88 184.074 201.896 189.407 194.741 189.407C187.847 189.407 182.123 184.464 181.082 178.09L180.432 177.96L181.082 177.829V177.179V176.008L181.342 171.325H181.472C181.472 171.325 197.343 175.358 208.01 164.561L208.531 176.008C208.4 176.529 208.4 176.919 208.4 177.179Z" fill="#73C7D1"/>
<path d="M207.881 163L208.011 164.821C197.213 175.618 181.473 171.585 181.473 171.585H181.343L181.733 163C185.506 165.341 190.059 166.642 194.872 166.642C199.555 166.642 203.978 165.341 207.881 163Z" fill="#50B5BB"/>
<path d="M205.018 134.641C205.798 134.641 206.449 135.291 206.449 136.072C206.449 136.852 205.798 137.503 205.018 137.503C204.237 137.503 203.587 136.852 203.587 136.072C203.717 135.291 204.237 134.641 205.018 134.641Z" fill="#242752"/>
<g opacity="0.27">
<path d="M184.334 127.355C188.627 127.355 192.139 130.868 192.139 135.161C192.139 139.454 188.627 142.966 184.334 142.966C180.041 142.966 176.529 139.454 176.529 135.161C176.529 130.868 180.041 127.355 184.334 127.355ZM185.895 136.071C185.895 135.291 185.245 134.64 184.464 134.64C183.684 134.64 183.033 135.291 183.033 136.071C183.033 136.852 183.684 137.502 184.464 137.502C185.245 137.502 185.895 136.852 185.895 136.071Z" fill="#F6F6F6"/>
</g>
<path d="M184.464 134.641C185.245 134.641 185.895 135.291 185.895 136.072C185.895 136.852 185.245 137.503 184.464 137.503C183.684 137.503 183.033 136.852 183.033 136.072C183.033 135.291 183.684 134.641 184.464 134.641Z" fill="#242752"/>
<path d="M169.634 141.535C169.634 143.877 170.025 146.218 170.545 148.43C167.423 148.169 164.951 144.917 164.951 141.015C164.951 137.502 166.902 134.64 169.504 133.86V136.722V141.535H169.634Z" fill="#73C7D1"/>
<path d="M180.952 178.35C180.692 178.35 180.562 178.22 180.562 177.96L181.212 162.869C181.212 162.739 181.24 163 181.5 163C181.63 163 182 162.74 182 163L181.343 177.96C181.212 178.22 181.082 178.35 180.952 178.35Z" fill="#242752"/>
<path d="M208.401 176.529C208.27 176.529 208.01 176.399 208.01 176.139L207.36 162.87C207.36 162.74 207.49 162.479 207.75 162.479C207.88 162.479 208.14 162.61 208.14 162.87L208.791 176.139C208.791 176.399 208.661 176.529 208.401 176.529Z" fill="#242752"/>
<path d="M170.675 148.82C167.293 148.56 164.821 145.177 164.821 141.145C164.821 137.502 166.773 134.51 169.635 133.6C169.765 133.6 170.025 133.6 170.025 133.86C170.025 133.99 170.025 134.25 169.765 134.25C167.163 135.031 165.472 137.762 165.472 141.145C165.472 144.787 167.813 147.909 170.675 148.169C170.805 148.169 171.065 148.3 170.935 148.56C170.935 148.69 170.805 148.82 170.675 148.82Z" fill="#242752"/>
<path d="M218.808 148.82C218.678 148.82 218.417 148.69 218.417 148.56C218.417 148.43 218.548 148.169 218.678 148.169C221.54 147.909 223.881 144.787 223.881 141.145C223.881 137.893 222.06 135.031 219.588 134.25C219.458 134.25 219.328 133.99 219.328 133.86C219.328 133.73 219.588 133.6 219.718 133.6C222.58 134.38 224.532 137.502 224.532 141.145C224.662 145.047 222.06 148.43 218.808 148.82Z" fill="#242752"/>
<path d="M194.741 167.032C190.058 167.032 185.505 165.731 181.472 163.26C179.781 162.219 178.22 160.918 176.789 159.617C173.667 156.495 171.456 152.723 170.285 148.56C169.634 146.348 169.244 144.007 169.244 141.665V127.225C169.244 126.965 169.374 126.835 169.634 126.835C169.895 126.835 170.025 126.965 170.025 127.225V141.665C170.025 144.007 170.285 146.218 170.935 148.43C172.106 152.462 174.187 156.105 177.179 159.097C178.48 160.398 180.041 161.699 181.733 162.739C185.635 165.081 190.058 166.382 194.611 166.382C199.164 166.382 203.587 165.211 207.36 162.869L207.49 162.739C212.823 159.487 216.596 154.414 218.287 148.43C218.938 146.218 219.198 144.007 219.198 141.665V126.445C219.198 126.185 219.328 126.055 219.588 126.055C219.848 126.055 219.978 126.185 219.978 126.445V141.535C219.978 143.877 219.588 146.218 218.938 148.43C217.246 154.544 213.344 159.617 208.01 163L207.88 163.13C203.978 165.731 199.424 167.032 194.741 167.032Z" fill="#242752"/>
<path d="M195.262 148.82C194.742 148.82 194.091 148.69 193.571 148.56C192.79 148.3 192.27 147.519 192.27 146.609L194.482 132.689C194.482 132.559 194.742 132.299 194.872 132.429C195.002 132.429 195.132 132.689 195.132 132.819L192.92 146.739C192.92 147.259 193.181 147.779 193.701 147.909C197.213 148.95 198.904 146.218 199.035 146.088C199.165 145.958 199.295 145.828 199.555 145.958C199.685 146.088 199.815 146.218 199.685 146.478C199.685 146.348 198.124 148.82 195.262 148.82Z" fill="#242752"/>
<path d="M187.327 132.429C187.197 132.429 187.197 132.429 187.067 132.299C184.335 130.217 181.603 132.169 181.473 132.299C181.343 132.429 181.083 132.429 180.953 132.169C180.823 132.039 180.823 131.778 181.083 131.648C181.083 131.648 184.335 129.177 187.587 131.648C187.717 131.778 187.717 132.039 187.717 132.169C187.587 132.299 187.457 132.429 187.327 132.429Z" fill="#242752"/>
<path d="M208.141 132.429C208.011 132.429 208.011 132.429 207.881 132.299C205.149 130.217 202.417 132.169 202.287 132.299C202.157 132.429 201.897 132.429 201.767 132.169C201.637 132.039 201.637 131.778 201.897 131.648C201.897 131.648 205.149 129.177 208.401 131.648C208.531 131.778 208.531 132.039 208.531 132.169C208.271 132.299 208.271 132.429 208.141 132.429Z" fill="#242752"/>
<path d="M169.634 127.616C167.032 126.966 165.211 124.624 165.211 122.022C165.211 120.721 165.731 119.42 166.512 118.38C166.642 118.25 166.902 118.25 167.032 118.38C167.162 118.51 167.162 118.77 167.032 118.9C166.252 119.811 165.861 120.982 165.861 122.152C165.861 124.494 167.422 126.575 169.634 127.096C169.764 127.096 169.894 127.356 169.894 127.486C170.024 127.486 169.764 127.616 169.634 127.616Z" fill="#242752"/>
<path d="M166.772 118.769C166.642 118.769 166.512 118.769 166.512 118.639C165.601 117.598 165.211 116.298 165.211 114.997C165.211 113.175 166.122 111.484 167.553 110.313C167.683 110.183 167.943 110.183 168.073 110.444C168.203 110.574 168.203 110.834 167.943 110.964C166.642 111.875 165.861 113.436 165.861 114.997C165.861 116.167 166.252 117.338 167.032 118.249C167.162 118.379 167.162 118.639 167.032 118.769C167.032 118.769 166.902 118.769 166.772 118.769Z" fill="#242752"/>
<path d="M167.813 110.964C167.683 110.964 167.553 110.964 167.553 110.834C166.902 109.924 166.512 108.753 166.512 107.582C166.512 104.33 169.114 101.728 172.366 101.728H173.927C174.187 101.728 174.317 101.858 174.317 102.118C174.317 102.378 174.187 102.509 173.927 102.509H172.366C169.504 102.509 167.293 104.85 167.293 107.582C167.293 108.623 167.553 109.533 168.203 110.444C168.333 110.574 168.333 110.834 168.073 110.964C167.943 110.964 167.813 110.964 167.813 110.964Z" fill="#242752"/>
<path d="M173.928 102.509H173.798C173.668 102.379 173.538 102.249 173.668 101.989C174.578 100.037 176.66 98.7363 178.871 98.7363C179.782 98.7363 180.822 98.9965 181.603 99.3868C181.733 99.5169 181.863 99.6469 181.733 99.9071C181.603 100.037 181.473 100.167 181.213 100.037C180.432 99.6469 179.652 99.5169 178.871 99.5169C176.92 99.5169 175.099 100.688 174.188 102.379C174.188 102.379 174.058 102.509 173.928 102.509Z" fill="#242752"/>
<path d="M181.342 99.9071H181.212C181.082 99.777 180.952 99.6469 181.082 99.3868C182.123 97.4354 184.074 96.2646 186.286 96.2646C187.066 96.2646 187.847 96.3947 188.497 96.6549C188.627 96.785 188.757 96.9151 188.627 97.1753C188.497 97.3053 188.367 97.4354 188.107 97.3054C187.457 97.0452 186.806 96.9151 186.156 96.9151C184.204 96.9151 182.513 97.9558 181.603 99.6469C181.603 99.9071 181.472 99.9071 181.342 99.9071Z" fill="#242752"/>
<path d="M188.367 97.4355H188.237C188.107 97.3054 187.977 97.1753 188.107 96.9151C189.147 95.0939 191.099 94.0532 193.18 94.0532C195.131 94.0532 196.822 94.9638 197.993 96.5249C198.123 96.655 198.123 96.9151 197.863 97.0452C197.733 97.1753 197.473 97.1753 197.343 96.9151C196.432 95.4842 194.741 94.7037 193.18 94.7037C191.359 94.7037 189.668 95.6143 188.757 97.1753C188.627 97.3054 188.497 97.4355 188.367 97.4355Z" fill="#242752"/>
<path d="M206.189 98.9959C206.059 98.9959 205.928 98.8658 205.928 98.7357C205.148 96.9145 203.197 95.7437 201.245 95.7437C199.944 95.7437 198.774 96.134 197.863 97.0446C197.733 97.1747 197.473 97.1747 197.343 97.0446C197.213 96.9145 197.213 96.6543 197.343 96.5242C198.383 95.6136 199.814 95.0933 201.245 95.0933C203.587 95.0933 205.668 96.3941 206.579 98.6056C206.709 98.7357 206.579 98.9959 206.449 99.126C206.319 98.9959 206.319 98.9959 206.189 98.9959Z" fill="#242752"/>
<path d="M215.034 102.508C214.904 102.508 214.644 102.378 214.644 102.248C214.254 99.7766 212.173 97.8252 209.571 97.8252C208.4 97.8252 207.229 98.2155 206.319 98.996C206.189 99.1261 205.928 99.1261 205.798 98.996C205.668 98.8659 205.668 98.6058 205.798 98.4757C206.839 97.6952 208.14 97.1748 209.441 97.1748C212.303 97.1748 214.774 99.3863 215.165 102.118C215.425 102.248 215.295 102.378 215.034 102.508C215.165 102.508 215.034 102.508 215.034 102.508Z" fill="#242752"/>
<path d="M221.93 118.509C221.799 118.509 221.799 118.509 221.669 118.379C221.539 118.249 221.539 117.989 221.539 117.858C222.19 116.948 222.58 115.907 222.58 114.866C222.58 112.785 221.409 110.964 219.458 110.183C219.328 110.053 219.198 109.923 219.328 109.663C219.458 109.533 219.588 109.403 219.848 109.533C222.06 110.443 223.361 112.525 223.361 114.866C223.361 116.167 222.97 117.338 222.19 118.379C222.19 118.509 222.06 118.509 221.93 118.509Z" fill="#242752"/>
<path d="M219.718 126.835C219.588 126.835 219.458 126.705 219.458 126.575C219.328 126.445 219.458 126.184 219.588 126.054C221.409 125.274 222.58 123.453 222.58 121.371C222.58 120.331 222.19 119.16 221.539 118.379C221.409 118.249 221.409 117.989 221.669 117.859C221.799 117.729 222.059 117.729 222.19 117.989C222.97 119.03 223.36 120.2 223.36 121.501C223.36 123.843 222.059 125.924 219.978 126.835C219.848 126.835 219.848 126.835 219.718 126.835Z" fill="#242752"/>
<path d="M219.718 110.314H219.588C219.458 110.184 219.327 110.054 219.458 109.794L219.588 109.403C220.238 107.973 220.108 106.151 219.197 104.85C218.417 103.55 217.246 102.769 215.815 102.639C215.555 102.639 215.425 102.639 215.165 102.639C214.904 102.639 214.774 102.509 214.774 102.249C214.774 101.988 214.904 101.858 215.165 101.858C215.425 101.858 215.555 101.858 215.815 101.858C217.506 101.988 218.937 103.029 219.848 104.46C220.758 106.021 220.889 107.973 220.238 109.664L220.108 110.054C219.978 110.184 219.848 110.314 219.718 110.314Z" fill="#242752"/>
<path d="M169.635 137.112C169.505 137.112 169.505 137.112 169.374 136.982C169.244 136.852 169.244 136.592 169.374 136.462C169.374 136.462 170.155 135.811 171.196 134.511C173.667 131.519 176.659 126.445 177.7 119.42C177.83 118.64 178.22 117.989 178.741 117.599C179.261 117.209 180.042 117.079 180.692 117.209C183.684 117.859 189.538 118.9 194.611 118.9C199.685 118.9 205.539 117.859 208.531 117.209C209.181 117.079 209.962 117.209 210.482 117.599C211.133 117.989 211.523 118.64 211.523 119.42C212.564 126.835 216.076 132.039 218.027 134.511C218.157 134.641 218.157 134.901 218.027 135.031C217.897 135.161 217.637 135.161 217.507 135.031C215.556 132.559 212.043 127.226 210.872 119.681C210.742 119.16 210.482 118.64 210.092 118.38C209.702 118.12 209.181 117.989 208.661 118.12C205.539 118.77 199.685 119.811 194.611 119.811C189.798 119.811 184.335 118.9 180.562 118.12C180.042 117.989 179.521 118.12 179.131 118.38C178.741 118.64 178.35 119.16 178.35 119.681C177.31 126.835 174.188 132.039 171.716 135.161C170.675 136.462 169.895 137.242 169.895 137.242C169.895 136.982 169.765 137.112 169.635 137.112Z" fill="#242752"/>
<path d="M219.589 136.982C219.589 136.982 219.458 136.982 219.589 136.982C219.589 136.982 218.808 136.201 217.767 134.9L217.637 134.77V134.64C217.637 134.38 217.767 134.25 218.027 134.25C218.158 134.25 218.288 134.38 218.288 134.38C219.328 135.681 219.979 136.331 219.979 136.331L219.719 136.592L219.589 136.982Z" fill="#242752"/>
<path d="M195.262 157.536C192.4 157.536 190.449 155.975 190.449 155.975L190.969 155.455C191.099 155.585 194.872 158.707 199.945 155.455L200.335 156.106C198.384 157.146 196.693 157.536 195.262 157.536Z" fill="#242752"/>
<path d="M194.611 189.798C187.587 189.798 181.603 184.984 180.562 178.22L181.212 178.09C182.253 184.464 187.847 189.017 194.611 189.017C201.636 189.017 207.49 183.944 208.01 177.049C208.01 176.659 208.01 176.399 208.01 176.008H208.661C208.661 176.399 208.661 176.659 208.661 177.049C208.141 184.464 202.157 189.798 194.611 189.798Z" fill="#242752"/>
<path d="M261.476 231.556H129.698L129.828 231.165C134.641 205.018 154.414 184.074 180.172 177.699L180.822 177.569L180.952 178.22L180.302 178.35C154.935 184.594 135.422 205.148 130.608 230.775H260.566C255.362 203.197 234.939 182.252 208.271 177.439C208.141 177.439 207.88 177.309 207.75 177.309L207.88 176.659C208.141 176.659 208.271 176.789 208.531 176.789C235.589 181.732 256.273 202.936 261.476 231.035V231.556Z" fill="#242752"/>
<path d="M184.334 143.226C179.911 143.226 176.269 139.584 176.269 135.161C176.269 130.738 179.911 127.095 184.334 127.095C188.757 127.095 192.399 130.738 192.399 135.161C192.399 139.584 188.757 143.226 184.334 143.226ZM184.334 127.746C180.301 127.746 176.919 130.998 176.919 135.161C176.919 139.193 180.301 142.576 184.334 142.576C188.367 142.576 191.749 139.193 191.749 135.161C191.749 131.128 188.367 127.746 184.334 127.746Z" fill="#242752"/>
<path d="M205.148 143.226C200.725 143.226 197.083 139.584 197.083 135.161C197.083 130.738 200.725 127.095 205.148 127.095C209.571 127.095 213.213 130.738 213.213 135.161C213.343 139.584 209.701 143.226 205.148 143.226ZM205.148 127.746C201.115 127.746 197.733 130.998 197.733 135.161C197.733 139.193 201.115 142.576 205.148 142.576C209.181 142.576 212.563 139.193 212.563 135.161C212.563 131.128 209.311 127.746 205.148 127.746Z" fill="#242752"/>
<path d="M198.124 135.551H192.01C191.75 135.551 191.62 135.42 191.62 135.16C191.62 134.9 191.75 134.77 192.01 134.77H198.124C198.384 134.77 198.514 134.9 198.514 135.16C198.514 135.42 198.384 135.551 198.124 135.551Z" fill="#242752"/>
<path d="M212.954 135.551C212.824 135.551 212.563 135.421 212.563 135.29C212.563 135.16 212.694 134.9 212.824 134.9L217.767 134.38V134.77V135.16L212.954 135.551Z" fill="#242752"/>
<path d="M176.529 135.551L171.066 135.031C170.936 135.031 170.675 134.901 170.805 134.64C170.805 134.51 170.936 134.25 171.196 134.38H171.586L176.659 134.77C176.79 134.77 177.05 134.901 176.92 135.161C176.92 135.421 176.789 135.551 176.529 135.551Z" fill="#242752"/>
</g>
<defs>
<clipPath id="clip0_1711_8967">
<rect width="505" height="560.677" fill="white"/>
</clipPath>
</defs>
</svg>
