<svg width="774" height="702" viewBox="0 0 774 702" fill="none" xmlns="http://www.w3.org/2000/svg">
<g clip-path="url(#clip0_1621_6930)">
<path d="M-750.595 -87.0058L-636.214 -200.421C-602.431 -233.722 -547.895 -233.722 -514.594 -199.939L744.077 1068.39C777.378 1102.17 777.378 1156.7 743.595 1190.01L629.214 1303.42C595.431 1336.72 540.895 1336.72 507.594 1302.94L-751.078 34.6143C-784.378 0.830966 -784.378 -53.2224 -750.595 -87.0058Z" stroke="#2A5392" stroke-width="0.3529" stroke-miterlimit="10"/>
<path d="M-740.943 -49.3616L-599.052 -190.286C-564.786 -224.07 -509.768 -224.07 -475.985 -189.804L734.425 1029.29C768.208 1063.56 768.208 1118.58 733.942 1152.36L592.052 1293.29C557.786 1327.07 502.768 1327.07 468.984 1292.8L-741.425 73.7064C-775.209 39.923 -774.726 -15.5782 -740.943 -49.3616Z" stroke="#2A5392" stroke-width="0.3529" stroke-miterlimit="10"/>
<path d="M-731.29 -11.7173L-561.408 -180.152C-527.142 -214.418 -471.158 -214.418 -436.892 -179.669L724.773 990.201C759.039 1024.47 759.038 1080.45 724.29 1114.72L554.408 1283.15C520.142 1317.42 464.158 1317.42 429.892 1282.67L-731.29 112.798C-765.556 78.5325 -765.556 22.5486 -731.29 -11.7173Z" stroke="#2A5392" stroke-width="0.3529" stroke-miterlimit="10"/>
<path d="M-721.155 25.927L-523.764 -170.016C-489.015 -204.765 -432.549 -204.282 -397.8 -169.534L715.121 951.109C749.869 985.857 749.387 1042.32 714.638 1077.07L517.247 1273.02C482.498 1307.76 426.032 1307.28 391.283 1272.53L-721.638 151.891C-756.386 117.142 -756.386 60.6756 -721.155 25.927Z" stroke="#2A5392" stroke-width="0.3529" stroke-miterlimit="10"/>
<path d="M-711.503 63.5714L-486.119 -160.364C-450.888 -195.595 -393.939 -195.113 -358.708 -159.881L705.468 912.016C740.699 947.248 740.216 1004.2 704.985 1039.43L479.602 1263.36C444.371 1298.59 387.422 1298.11 352.191 1262.88L-711.985 190.983C-747.217 155.752 -746.734 98.8026 -711.503 63.5714Z" stroke="#2A5392" stroke-width="0.3529" stroke-miterlimit="10"/>
<path d="M-701.85 101.216L-448.475 -150.229C-412.761 -185.46 -355.329 -185.46 -319.616 -149.746L695.333 872.924C730.564 908.638 730.564 966.07 694.85 1001.78L441.475 1253.23C405.761 1288.46 348.33 1288.46 312.616 1252.75L-702.333 230.075C-737.564 194.361 -737.564 136.93 -701.85 101.216Z" stroke="#2A5392" stroke-width="0.3529" stroke-miterlimit="10"/>
<path d="M-692.198 138.86L-411.313 -140.094C-375.117 -175.808 -316.72 -175.808 -281.006 -139.611L685.198 833.832C720.912 870.029 720.912 928.426 684.716 964.14L403.831 1243.09C367.634 1278.81 309.238 1278.81 273.524 1242.61L-692.681 269.167C-728.394 232.971 -727.912 175.057 -692.198 138.86Z" stroke="#2A5392" stroke-width="0.3529" stroke-miterlimit="10"/>
<path d="M-682.063 176.504L-373.186 -129.959C-336.507 -166.156 -277.628 -166.156 -241.431 -129.476L676.028 794.74C712.225 831.419 712.225 890.298 675.546 926.495L366.669 1232.96C329.99 1269.15 271.111 1269.15 234.914 1232.48L-682.545 308.259C-718.742 271.58 -718.742 212.701 -682.063 176.504Z" stroke="#2A5392" stroke-width="0.3529" stroke-miterlimit="10"/>
<path d="M-672.411 214.149L-336.025 -119.824C-299.346 -156.503 -239.501 -156.021 -202.822 -119.341L665.893 755.648C702.572 792.327 702.09 852.172 665.411 888.851L329.025 1223.31C292.346 1259.98 232.501 1259.5 195.822 1222.82L-672.893 347.834C-709.572 310.673 -709.572 250.828 -672.411 214.149Z" stroke="#2A5392" stroke-width="0.3529" stroke-miterlimit="10"/>
<path d="M-662.758 251.793L-298.38 -110.172C-261.219 -147.333 -200.891 -146.851 -163.73 -109.689L656.241 716.556C693.403 753.717 692.92 814.045 655.758 851.207L291.381 1213.17C254.219 1250.33 193.892 1249.85 156.73 1212.69L-663.241 386.444C-700.402 349.282 -699.92 288.955 -662.758 251.793Z" stroke="#2A5392" stroke-width="0.3529" stroke-miterlimit="10"/>
<path d="M-653.106 289.437L-260.736 -100.037C-223.092 -137.681 -162.282 -137.198 -124.638 -99.5541L646.588 677.463C684.233 715.108 683.75 775.918 646.106 813.562L253.736 1203.04C216.092 1240.68 155.282 1240.2 117.637 1202.55L-653.588 425.536C-690.75 387.892 -690.75 327.082 -653.106 289.437Z" stroke="#2A5392" stroke-width="0.3529" stroke-miterlimit="10"/>
<path d="M-643.453 327.082L-223.575 -89.9015C-185.448 -127.546 -124.155 -127.546 -86.0279 -89.4189L636.454 638.371C674.098 676.498 674.098 737.791 635.971 775.918L216.092 1192.9C177.965 1230.55 116.672 1230.55 78.5453 1192.42L-643.936 464.628C-681.58 426.501 -681.098 365.209 -643.453 327.082Z" stroke="#2A5392" stroke-width="0.3529" stroke-miterlimit="10"/>
<path d="M-633.318 364.726L-185.448 -79.7666C-146.838 -117.894 -84.5801 -117.894 -46.4531 -79.284L627.284 599.279C665.411 637.889 665.411 700.147 626.801 738.273L178.93 1182.77C140.321 1220.89 78.0627 1220.89 39.9358 1182.28L-633.801 503.72C-671.928 465.111 -671.928 402.853 -633.318 364.726Z" stroke="#2A5392" stroke-width="0.3529" stroke-miterlimit="10"/>
<path d="M-623.666 402.37L-147.803 -70.1141C-108.711 -108.724 -45.9704 -108.724 -7.36086 -69.6315L617.631 560.187C656.241 599.279 656.241 662.02 617.149 700.629L141.286 1173.11C102.194 1211.72 39.4532 1211.72 0.843653 1172.63L-624.149 542.813C-662.758 503.72 -662.758 440.98 -623.666 402.37Z" stroke="#2A5392" stroke-width="0.3529" stroke-miterlimit="10"/>
<path d="M-614.013 440.015L-110.641 -59.4963C-71.5492 -98.5884 -7.84335 -98.1058 31.2488 -59.0136L607.496 521.577C646.589 560.67 646.106 624.375 607.014 663.468L103.642 1162.98C64.5496 1202.07 0.843725 1201.59 -38.2485 1162.5L-614.496 581.905C-653.588 542.813 -653.106 479.107 -614.013 440.015Z" stroke="#2A5392" stroke-width="0.3529" stroke-miterlimit="10"/>
<path d="M-77.3407 1152.36L-604.844 620.997C-644.419 581.422 -643.936 517.234 -604.361 477.659L-72.9971 -49.8443C-33.4223 -89.4191 30.7661 -88.9364 70.3409 -49.3616L597.844 482.002C637.419 521.577 636.936 585.766 597.361 625.34L65.9973 1152.84C26.4225 1192.42 -37.7659 1191.94 -77.3407 1152.36Z" stroke="#2A5392" stroke-width="0.3529" stroke-miterlimit="10"/>
<path d="M-114.985 1162.01L-614.496 658.641C-653.588 619.549 -653.106 555.843 -614.013 516.751L-33.9049 -59.4963C5.18728 -98.5884 68.893 -98.1058 107.985 -59.0136L607.979 444.358C647.071 483.451 646.589 547.156 607.496 586.249L26.9051 1162.5C-12.187 1201.59 -75.8928 1201.59 -114.985 1162.01Z" stroke="#2A5392" stroke-width="0.3529" stroke-miterlimit="10"/>
<path d="M-152.629 1171.67L-625.114 695.803C-663.723 656.711 -663.723 593.97 -624.631 555.361L5.18716 -69.1488C44.2793 -107.758 107.02 -107.758 145.629 -68.6662L618.114 407.197C656.723 446.289 656.723 509.029 617.631 547.639L-12.1871 1172.15C-51.2793 1210.76 -114.02 1210.76 -152.629 1171.67Z" stroke="#2A5392" stroke-width="0.3529" stroke-miterlimit="10"/>
<path d="M-190.274 1181.8L-634.766 733.93C-672.893 695.32 -672.893 633.062 -634.284 594.936L44.2793 -78.8013C82.8888 -116.928 145.147 -116.928 183.274 -78.3186L627.766 369.552C665.893 408.162 665.893 470.42 627.283 508.547L-51.2794 1182.28C-89.889 1220.41 -152.147 1219.93 -190.274 1181.8Z" stroke="#2A5392" stroke-width="0.3529" stroke-miterlimit="10"/>
<path d="M-227.918 1191.45L-644.901 771.574C-682.546 733.447 -682.546 672.155 -644.419 634.028L83.3715 -88.9362C121.498 -126.58 182.791 -126.58 220.918 -88.4536L637.901 331.425C675.546 369.552 675.546 430.845 637.419 468.972L-90.3715 1191.94C-128.498 1229.58 -189.791 1229.58 -227.918 1191.45Z" stroke="#2A5392" stroke-width="0.3529" stroke-miterlimit="10"/>
<path d="M-265.562 1201.11L-655.036 808.736C-692.681 771.092 -692.198 710.282 -654.554 672.637L122.464 -98.5885C160.108 -136.233 220.918 -135.75 258.563 -98.1058L648.036 294.264C685.681 331.908 685.198 392.718 647.554 430.362L-129.464 1201.59C-167.108 1239.23 -227.918 1238.75 -265.562 1201.11Z" stroke="#2A5392" stroke-width="0.3529" stroke-miterlimit="10"/>
<path d="M-303.207 1210.76L-665.171 846.38C-702.333 809.219 -701.85 748.891 -664.689 711.73L161.556 -108.241C198.718 -145.403 259.045 -144.92 296.207 -107.758L658.171 256.619C695.333 293.781 694.851 354.109 657.689 391.27L-168.556 1211.24C-205.718 1248.4 -266.045 1247.92 -303.207 1210.76Z" stroke="#2A5392" stroke-width="0.3529" stroke-miterlimit="10"/>
<path d="M-340.851 1220.41L-674.824 884.025C-711.503 847.345 -711.02 787.501 -674.341 750.822L200.648 -117.893C237.327 -154.572 297.172 -154.09 333.851 -117.411L668.306 219.458C704.985 256.137 704.503 315.981 667.824 352.661L-207.165 1221.38C-244.327 1257.57 -304.172 1257.57 -340.851 1220.41Z" stroke="#2A5392" stroke-width="0.3529" stroke-miterlimit="10"/>
<path d="M-378.495 1230.54L-684.959 921.669C-721.155 884.989 -721.155 826.11 -684.476 789.913L239.74 -127.546C276.419 -163.742 335.299 -163.742 371.495 -127.063L677.959 181.813C714.155 218.492 714.155 277.372 677.476 313.568L-246.74 1231.03C-283.419 1267.22 -342.299 1266.74 -378.495 1230.54Z" stroke="#2A5392" stroke-width="0.3529" stroke-miterlimit="10"/>
<path d="M-416.14 1240.2L-695.094 959.313C-730.808 923.117 -730.808 864.72 -694.611 829.006L278.833 -137.681C315.029 -173.395 373.426 -173.395 409.14 -137.198L688.094 143.686C723.808 179.883 723.808 238.28 687.611 273.994L-285.832 1240.68C-322.029 1276.39 -379.943 1276.39 -416.14 1240.2Z" stroke="#2A5392" stroke-width="0.3529" stroke-miterlimit="10"/>
<path d="M-453.784 1249.85L-705.229 996.475C-740.46 960.761 -740.46 903.329 -704.746 867.615L317.925 -147.333C353.639 -182.565 411.07 -182.565 446.784 -146.851L698.229 106.524C733.46 142.238 733.46 199.67 697.746 235.384L-324.924 1250.33C-360.638 1286.05 -418.07 1285.56 -453.784 1249.85Z" stroke="#2A5392" stroke-width="0.3529" stroke-miterlimit="10"/>
<path d="M-491.428 1259.5L-715.364 1034.12C-750.595 998.888 -750.112 941.939 -714.881 906.708L357.017 -156.986C392.248 -192.217 449.197 -191.734 484.428 -156.503L708.364 68.8803C743.595 104.111 743.112 161.061 707.881 196.292L-364.017 1259.98C-399.248 1295.22 -456.197 1294.73 -491.428 1259.5Z" stroke="#2A5392" stroke-width="0.3529" stroke-miterlimit="10"/>
<path d="M-529.072 1269.64L-725.016 1072.25C-759.765 1037.5 -759.282 981.031 -724.533 946.282L396.109 -166.638C430.858 -201.387 487.324 -200.904 522.073 -166.155L718.016 31.2359C752.765 65.9845 752.282 122.451 717.534 157.2L-403.109 1270.12C-437.857 1304.39 -494.324 1304.39 -529.072 1269.64Z" stroke="#2A5392" stroke-width="0.3529" stroke-miterlimit="10"/>
<path d="M-566.717 1279.29L-735.151 1109.41C-769.417 1075.14 -769.417 1019.16 -734.668 984.892L435.201 -176.29C469.467 -210.556 525.451 -210.556 559.717 -175.808L728.151 -5.92554C762.417 28.3404 762.417 84.3243 727.669 118.59L-442.201 1279.77C-476.467 1314.04 -532.451 1313.56 -566.717 1279.29Z" stroke="#2A5392" stroke-width="0.3529" stroke-miterlimit="10"/>
<path d="M-604.361 1288.94L-745.286 1147.05C-779.07 1112.79 -779.07 1057.77 -744.804 1023.98L474.293 -186.426C508.559 -220.209 563.578 -220.209 597.361 -185.943L738.286 -44.0529C772.069 -9.78687 772.069 45.2317 737.803 79.0151L-481.293 1289.42C-515.077 1323.21 -570.578 1323.21 -604.361 1288.94Z" stroke="#2A5392" stroke-width="0.3529" stroke-miterlimit="10"/>
<path d="M-642.006 1298.59L-755.421 1184.7C-788.722 1150.91 -788.722 1096.38 -754.938 1063.08L513.386 -196.078C547.169 -229.378 601.705 -229.378 635.006 -195.595L748.421 -81.2142C781.722 -47.4308 781.722 7.10518 747.939 40.4059L-520.385 1299.08C-554.169 1332.38 -608.222 1332.38 -642.006 1298.59Z" stroke="#2A5392" stroke-width="0.3529" stroke-miterlimit="10"/>
</g>
<defs>
<clipPath id="clip0_1621_6930">
<rect width="774" height="702" fill="white"/>
</clipPath>
</defs>
</svg>
