<svg width="44" height="45" viewBox="0 0 44 45" fill="none" xmlns="http://www.w3.org/2000/svg">
<circle cx="22" cy="22" r="22" fill="#E2F5F6"/>
<path d="M11.2634 1.62395C12.2771 0.605915 13.6537 0.0322732 15.0903 0.0292165L28.8161 1.22789e-05C30.2528 -0.0030445 31.6318 0.564736 32.6498 1.57845L42.376 11.2634C43.3941 12.2771 43.9677 13.6537 43.9708 15.0903L44 28.8161C44.003 30.2528 43.4353 31.6318 42.4216 32.6498L32.7366 42.376C31.7229 43.3941 30.3463 43.9677 28.9097 43.9708L15.1839 44C13.7472 44.003 12.3682 43.4353 11.3502 42.4216L1.62395 32.7366C0.605915 31.7229 0.0322732 30.3463 0.0292165 28.9097L1.22789e-05 15.1839C-0.0030445 13.7472 0.564736 12.3682 1.57845 11.3502L11.2634 1.62395Z" fill="#D9E5F8"/>
<path d="M29.0817 14.7715L22.8588 11.1782C21.8426 10.5915 20.5855 10.5915 19.5588 11.1782L13.3464 14.7715C12.3302 15.3582 11.7017 16.4477 11.7017 17.6315V24.7972C11.7017 25.9705 12.3302 27.0601 13.3464 27.6572L19.5693 31.2505C20.5855 31.8372 21.8426 31.8372 22.8693 31.2505L29.0921 27.6572C30.1083 27.0705 30.7369 25.981 30.7369 24.7972V17.6315C30.7264 16.4477 30.0979 15.3686 29.0817 14.7715ZM21.214 16.3324C22.5655 16.3324 23.655 17.422 23.655 18.7734C23.655 20.1248 22.5655 21.2143 21.214 21.2143C19.8626 21.2143 18.7731 20.1248 18.7731 18.7734C18.7731 17.4324 19.8626 16.3324 21.214 16.3324ZM24.0217 26.0963H18.4064C17.5579 26.0963 17.0655 25.1534 17.5369 24.4515C18.2493 23.3934 19.6321 22.681 21.214 22.681C22.7959 22.681 24.1788 23.3934 24.8912 24.4515C25.3626 25.1429 24.8598 26.0963 24.0217 26.0963Z" fill="#3F7CDB"/>
<path fill-rule="evenodd" clip-rule="evenodd" d="M0.00506998 15.321C0.00153109 15.4028 -0.000162611 15.4848 1.22789e-05 15.567L0.0292165 29.2928C0.0322732 30.7294 0.605915 32.106 1.62395 33.1197L11.3502 42.8047C12.3682 43.8184 13.7472 44.3862 15.1839 44.3831L28.9097 44.3539C30.3463 44.3508 31.7229 43.7772 32.7366 42.7592L42.4216 33.0329C43.4353 32.0149 44.003 30.6359 44 29.1992L43.9949 26.8221C43.9366 28.1694 43.3773 29.4501 42.4216 30.4099L32.7366 40.1361C31.7229 41.1541 30.3463 41.7278 28.9097 41.7308L15.1839 41.76C13.7472 41.7631 12.3682 41.1953 11.3502 40.1816L1.62395 30.4967C0.605915 29.483 0.0322732 28.1064 0.0292165 26.6697L0.00506998 15.321Z" fill="#0B1C56"/>
</svg>
