<svg width="518" height="460" viewBox="0 0 518 460" fill="none" xmlns="http://www.w3.org/2000/svg">
<path d="M142.003 225.289C142.003 196.515 144.685 168.463 150.048 141.958C155.514 114.525 163.558 89.7731 173.974 68.5279C184.288 47.4889 196.354 30.8847 209.864 19.1276L210.277 18.7151C224.612 6.54552 239.773 0.254471 255.552 0.048208C271.331 -0.158055 286.698 5.72047 301.239 17.5807C315.265 28.9252 327.95 45.4263 338.882 66.3621C349.814 87.2979 358.581 111.843 364.769 139.07C371.266 167.328 374.669 197.443 375.082 228.382C375.494 259.425 372.813 289.54 367.141 318.004C361.675 345.437 353.527 370.189 343.214 391.434C332.901 412.473 320.834 429.181 307.221 440.834L306.808 441.247C292.576 453.417 277.416 459.708 261.637 459.914C245.857 460.12 230.491 454.242 215.949 442.381C201.923 430.934 189.238 414.536 178.203 393.6C167.271 372.664 158.505 348.222 152.317 320.892C145.819 292.634 142.416 262.622 142.003 231.476C142.003 229.517 142.003 227.454 142.003 225.289ZM147.573 156.706C143.757 180.735 141.9 205.9 142.313 231.58C142.725 259.116 145.51 285.827 150.563 311.198C145.51 286.033 142.725 259.219 142.313 231.58C141.9 205.797 143.757 180.529 147.573 156.706ZM374.772 228.589L374.772 228.486C373.947 167.122 361.056 109.678 338.573 66.5684C315.987 23.5623 286.491 0.0482094 255.552 0.460736C239.669 0.666999 224.509 7.06118 210.174 19.437C196.767 31.0909 184.7 47.6952 174.387 68.7341C153.76 110.915 142.519 166.297 142.519 225.289C142.519 227.351 142.519 229.414 142.519 231.476C143.344 292.84 156.236 350.285 178.718 393.394C201.201 436.4 230.697 459.914 261.74 459.501C292.679 459.089 321.556 434.853 342.905 391.228C363.531 349.047 374.772 293.665 374.772 234.674C374.772 232.714 374.772 230.651 374.772 228.589ZM192.641 38.1039C185.938 46.8701 179.853 57.0802 174.181 68.631C166.961 83.2757 160.877 99.5706 156.029 117.309C160.877 99.7769 166.961 83.3789 174.181 68.631C179.853 57.1833 186.041 46.9733 192.641 38.1039ZM201.407 427.943C193.26 418.455 185.525 407.007 178.615 393.6C170.468 378.13 163.661 360.701 158.195 342.034C163.764 361.01 170.571 378.233 178.615 393.6C185.525 406.904 193.157 418.455 201.407 427.943ZM295.464 449.498C284.738 456.098 273.394 459.604 261.74 459.811C249.879 460.017 238.226 456.614 227.087 450.116C238.329 456.82 249.879 460.017 261.637 459.914C273.29 459.708 284.635 456.201 295.464 449.498ZM284.738 7.06119C275.25 2.42025 265.452 0.0482085 255.552 0.254472C249.88 0.357604 244.31 1.18266 238.741 2.83277C244.207 1.18266 249.88 0.357604 255.552 0.254472C265.452 0.15134 275.25 2.42025 284.738 7.06119ZM374.979 234.674C374.979 232.611 374.979 230.548 374.979 228.486C374.566 197.546 371.06 167.431 364.665 139.173C358.478 111.843 349.711 87.401 338.779 66.4652C331.973 53.5737 324.547 42.3323 316.606 32.9473C324.547 42.2292 331.973 53.4706 338.779 66.4652C361.365 109.574 374.154 167.019 375.082 228.382L375.082 228.486C375.391 253.65 373.741 278.298 370.131 301.606C373.329 280.052 374.979 257.672 374.979 234.674ZM360.54 345.128C355.796 361.835 349.918 377.408 343.111 391.434C336.614 404.635 329.497 416.083 321.762 425.674C329.497 416.083 336.717 404.635 343.111 391.434C349.918 377.408 355.796 361.938 360.54 345.128Z" fill="#9FBEED"/>
<path d="M135.194 233.639C135.194 177.948 146.023 122.05 165.102 79.4568C174.9 57.4896 186.348 40.1635 199.136 27.8908C200.477 26.6532 201.714 25.5187 202.849 24.4874C215.225 13.7617 228.219 8.29567 241.523 8.08941C256.271 7.88315 272.669 13.5554 288.758 24.3843C304.743 35.2131 320.419 50.9923 333.93 69.9686C348.059 89.8731 359.919 113.387 368.066 138.036C377.039 165.056 381.886 193.211 382.195 221.779C382.195 223.738 382.195 225.595 382.195 227.554C382.195 283.246 371.366 339.143 352.287 381.737C342.489 403.704 331.042 421.03 318.253 433.303C304.846 446.194 290.511 452.898 275.866 453.104C261.118 453.31 244.72 447.638 228.632 436.809C212.646 425.98 196.97 410.201 183.46 391.225C169.331 371.32 157.471 347.806 149.323 323.158C140.351 296.137 135.504 267.879 135.194 239.414C135.194 237.455 135.194 235.495 135.194 233.639ZM202.952 24.5905C201.817 25.6218 200.58 26.7563 199.239 27.9939C186.451 40.2666 175.106 57.5928 165.206 79.5599C146.126 122.153 135.4 177.948 135.4 233.639C135.4 235.599 135.4 237.455 135.4 239.414C135.607 257.359 137.566 275.098 141.279 292.527C137.669 275.201 135.71 257.359 135.4 239.414C135.4 237.558 135.4 235.599 135.4 233.742C135.4 178.051 146.229 122.153 165.206 79.663C175.003 57.6959 186.451 40.3697 199.136 28.2001C212.543 15.3086 226.672 8.7082 241.317 8.50194C245.855 8.39881 250.496 8.91447 255.24 9.94579C250.496 8.91447 245.855 8.39881 241.317 8.50194C228.219 8.39881 215.225 13.8648 202.952 24.5905ZM381.886 227.554C381.886 225.595 381.886 223.738 381.886 221.779C381.164 166.81 364.044 112.975 333.62 70.1749C305.878 31.0878 271.432 7.98628 241.523 8.39881C226.982 8.60507 212.853 15.2055 199.445 28.097C186.76 40.3697 175.313 57.5928 165.515 79.5599C145.817 123.597 134.988 181.764 135.71 239.311C136.432 294.281 153.552 348.116 183.976 390.915C211.718 430.002 246.164 453.104 276.072 452.691C289.273 452.485 302.165 447.019 314.438 436.397C315.675 435.262 316.913 434.128 318.15 432.993C330.836 420.721 342.283 403.394 352.081 381.53C371.057 339.04 381.886 283.246 381.886 227.554ZM198.414 409.479C193.361 403.807 188.513 397.619 183.769 391.019C180.057 385.862 176.653 380.499 173.353 375.033C176.653 380.602 180.16 385.862 183.769 391.019C188.41 397.619 193.257 403.807 198.414 409.479ZM314.541 436.603C302.268 447.225 289.273 452.795 276.072 452.898C271.328 453.001 266.584 452.485 261.634 451.351C266.584 452.485 271.328 453.001 276.072 452.898C290.717 452.691 304.846 446.091 318.253 433.2C331.042 420.927 342.386 403.601 352.287 381.634C371.985 337.596 382.917 279.327 382.092 221.779C381.886 203.525 379.823 185.373 376.007 167.531C379.823 185.27 381.886 203.421 382.092 221.779C382.814 279.327 371.985 337.596 352.287 381.634C342.489 403.601 331.042 420.927 318.253 433.096C317.016 434.334 315.778 435.468 314.541 436.603ZM344.243 86.2635C340.943 80.6943 337.436 75.2283 333.723 70.0717C328.36 62.5431 322.688 55.427 316.706 49.0328C322.585 55.427 328.257 62.44 333.62 70.0717C337.436 75.3315 340.943 80.7975 344.243 86.2635Z" fill="#9FBEED"/>
<path d="M128.388 242.408C128.388 216.316 130.76 190.017 135.298 164.234C140.042 137.523 147.262 111.946 156.131 90.1851C165.31 67.5992 176.035 49.6542 187.792 36.8658C190.061 34.3907 192.433 32.1218 195.012 29.8529C205.428 20.7772 216.36 16.1363 227.395 16.0332C241.318 15.8269 258.232 21.0866 276.28 31.1936C294.534 41.4037 312.788 56.1515 328.98 73.5808C346.513 92.5571 361.157 114.524 371.367 137.007C382.918 162.584 389.003 188.882 389.416 215.078C389.725 242.82 387.456 270.666 382.506 297.893C377.762 324.604 370.542 350.181 361.673 371.942C352.494 394.528 341.769 412.576 330.011 425.261C317.429 438.874 304.125 445.887 290.512 446.094C276.589 446.3 259.675 441.04 241.627 430.933C223.373 420.723 205.222 406.078 188.927 388.546C171.394 369.57 156.75 347.706 146.54 325.12C134.886 299.543 128.904 273.244 128.492 246.946C128.388 245.502 128.388 243.955 128.388 242.408ZM128.904 226.01C128.698 233.023 128.595 240.036 128.595 247.049C128.698 257.775 129.832 268.603 131.895 279.329C129.935 269.119 128.801 258.29 128.595 247.049C128.595 240.139 128.698 233.126 128.904 226.01ZM388.9 220.75C388.9 218.894 388.9 217.037 388.9 215.181C387.972 148.042 350.741 97.92 328.671 73.8902C312.479 56.3578 294.328 41.7131 276.177 31.503C258.232 21.396 241.421 16.2394 227.498 16.3426C213.988 16.5488 200.787 23.4587 188.308 37.0721C176.551 49.7573 165.928 67.7023 156.75 90.2882C139.011 133.707 129.007 188.47 129.007 241.377C129.007 243.233 129.007 245.089 129.007 246.946C129.935 314.085 167.166 364.207 189.236 388.237C205.428 405.769 223.579 420.414 241.834 430.521C259.779 440.628 276.589 445.784 290.512 445.681C301.444 445.578 312.17 440.937 322.586 431.965C325.061 429.799 327.433 427.427 329.702 425.055C341.459 412.37 352.082 394.425 361.26 371.839C378.896 328.42 388.9 273.657 388.9 220.75ZM195.218 30.0591C192.743 32.2249 190.268 34.5969 188.102 37.0721C176.242 49.7573 165.619 67.7023 156.337 90.2882C152.624 99.3638 149.221 109.161 146.127 119.475C149.221 109.368 152.624 99.5701 156.337 90.2882C165.619 67.5992 176.242 49.7573 187.999 36.969C200.581 23.3555 213.782 16.3426 227.395 16.2394C241.318 16.0332 258.232 21.2929 276.177 31.3999C294.431 41.6099 312.582 56.2547 328.774 73.7871C339.19 85.1316 353.01 102.252 364.767 124.322C355.176 106.377 342.903 89.1538 328.774 73.7871C312.582 56.2547 294.431 41.6099 276.177 31.3999C258.232 21.2929 241.318 16.0332 227.395 16.2394C216.36 16.3426 205.531 20.9835 195.218 30.0591ZM373.636 335.742C370.13 348.428 366.005 360.597 361.364 371.942C352.082 394.631 341.459 412.576 329.702 425.261C327.433 427.736 325.061 430.005 322.586 432.171C312.17 441.143 301.341 445.784 290.409 445.991C276.486 446.197 259.572 440.937 241.627 430.83C223.373 420.62 205.222 405.975 189.03 388.443C180.573 379.264 169.847 366.269 159.844 349.975C168.197 363.588 177.995 376.686 189.03 388.546C205.222 406.078 223.373 420.723 241.627 430.933C259.572 441.04 276.486 446.3 290.409 446.094C303.919 445.887 317.223 438.874 329.805 425.364C341.562 412.576 352.288 394.631 361.467 372.045C365.901 360.804 370.027 348.531 373.636 335.742ZM389.106 220.75C389.106 244.78 387.043 269.222 383.124 292.84C387.456 267.263 389.416 241.17 389.106 215.181C388.9 203.012 387.559 190.739 384.878 178.569C387.353 190.12 388.9 202.29 389.003 215.181C389.106 217.037 389.106 218.894 389.106 220.75Z" fill="#9FBEED"/>
<path d="M121.582 249.731C121.582 200.022 131.07 144.846 147.261 101.118C155.925 77.8101 165.722 59.2463 176.551 45.9423C179.542 42.2296 182.945 38.7231 186.452 35.6291C195.115 28.1005 204.19 24.1815 213.163 24.0783C226.157 23.8721 244.102 28.9255 263.698 38.1043C284.324 47.9018 305.157 61.4121 323.823 77.3976C344.759 95.2394 362.189 115.556 374.461 136.183C388.59 160.109 396.016 184.552 396.325 208.685C397.047 259.632 387.456 317.18 370.645 362.454C361.982 385.762 352.185 404.326 341.356 417.63C329.599 431.965 317.223 439.391 304.641 439.494C291.646 439.7 273.701 434.647 254.106 425.468C233.48 415.774 212.647 402.16 193.98 386.175C173.044 368.333 155.615 348.016 143.342 327.39C129.213 303.463 121.788 279.124 121.478 254.888C121.582 253.135 121.582 251.381 121.582 249.731ZM186.658 35.7322C183.048 38.9293 179.748 42.3327 176.757 46.0454C165.928 59.2463 156.028 77.8101 147.468 101.118C131.276 144.846 121.788 200.022 121.788 249.628C121.788 251.381 121.788 253.031 121.788 254.785C121.994 266.439 123.747 278.196 127.151 289.953C123.954 278.814 121.994 267.16 121.788 254.785C121.788 253.031 121.788 251.381 121.788 249.628C121.788 199.918 131.276 144.846 147.468 101.118C155.925 78.1195 166.135 59.0401 176.757 46.0454C188.514 31.7101 200.787 24.3877 213.266 24.1815C226.261 23.9752 244.206 29.0287 263.698 38.2074C284.324 47.9018 305.157 61.5153 323.72 77.3976C336.715 88.4327 354.041 105.346 368.48 126.798C356.826 109.472 341.562 92.4549 323.72 77.2945C305.053 61.4121 284.324 47.7987 263.698 38.1043C244.206 28.9255 226.261 23.9752 213.266 24.0783C204.293 24.3877 195.321 28.2036 186.658 35.7322ZM395.913 213.635C395.913 211.882 395.913 210.232 395.913 208.478C395.088 147.527 350.328 100.293 323.617 77.6038C304.95 61.7215 284.221 48.1081 263.594 38.4137C244.102 29.2349 226.261 24.2846 213.266 24.3877C200.787 24.594 188.617 31.9164 176.963 46.1486C166.341 59.1432 156.131 78.2226 147.674 101.118C131.482 144.846 121.994 199.918 121.994 249.628C121.994 251.381 121.994 253.031 121.994 254.785C122.922 315.839 167.682 363.073 194.29 385.762C212.957 401.645 233.686 415.258 254.312 424.952C273.804 434.131 291.646 439.082 304.641 438.978C313.613 438.875 322.483 434.956 331.043 427.531C334.652 424.437 337.953 420.93 340.943 417.218C351.566 404.223 361.776 385.144 370.233 362.248C386.425 318.417 395.913 263.345 395.913 213.635ZM331.249 427.634C322.586 435.163 313.716 438.978 304.744 439.082C291.749 439.288 273.804 434.234 254.312 425.056C233.686 415.361 212.853 401.748 194.29 385.865C178.82 372.665 157.059 351.11 141.486 323.367C142.208 324.605 142.93 325.946 143.755 327.183C155.925 347.81 173.457 368.024 194.29 385.865C212.957 401.748 233.686 415.361 254.416 425.056C273.908 434.234 291.853 439.185 304.847 439.082C317.326 438.875 329.599 431.553 341.356 417.218C352.185 404.017 362.085 385.453 370.645 362.145C386.837 318.417 396.325 263.241 396.325 213.532C396.325 211.779 396.325 210.128 396.325 208.375C396.222 198.887 394.985 189.399 392.716 179.808C394.881 188.883 396.222 198.475 396.325 208.375C396.325 210.128 396.325 211.779 396.325 213.532C396.325 263.241 386.837 318.314 370.645 362.042C362.189 385.04 351.978 404.12 341.356 417.114C338.159 421.033 334.859 424.437 331.249 427.634Z" fill="#9FBEED"/>
<path d="M114.775 257.877C114.775 211.468 123.644 155.983 138.392 111.945C146.23 88.2251 155.615 68.63 165.412 55.0166C168.919 50.0663 172.941 45.5285 177.479 41.5063C184.595 35.3184 191.917 32.1213 199.24 32.0182C211.306 31.8119 230.282 36.556 251.321 44.9097C274.114 53.8822 298.04 66.7737 318.873 81.0059C343.521 97.8164 363.323 116.071 377.658 135.047C394.365 157.22 403.028 179.703 403.338 201.98C403.338 203.527 403.338 205.074 403.338 206.724C403.338 253.133 394.469 308.618 379.721 352.656C371.883 376.376 362.498 395.971 352.7 409.584C341.768 424.642 330.424 432.377 318.873 432.583C306.806 432.789 287.83 428.045 266.791 419.691C243.999 410.719 220.072 397.827 199.24 383.595C174.591 366.785 154.79 348.53 140.454 329.554C123.747 307.381 115.084 284.898 114.775 262.724C114.775 261.074 114.775 259.424 114.775 257.877ZM173.972 45.1159C170.878 48.2099 168.094 51.6132 165.515 55.2229C155.718 68.7332 146.436 88.4314 138.495 112.049C123.85 156.086 114.981 211.571 114.981 257.98C114.981 259.527 114.981 261.177 114.981 262.724C115.29 284.898 123.953 307.381 140.661 329.451C154.996 348.427 174.797 366.578 199.446 383.492C220.279 397.724 244.308 410.513 266.997 419.485C288.036 427.839 306.909 432.48 318.976 432.377C330.527 432.274 341.768 424.539 352.7 409.481C362.498 395.971 371.779 376.273 379.721 352.656C394.365 308.618 403.235 253.133 403.235 206.724C403.235 205.177 403.235 203.527 403.235 201.98C402.925 179.806 394.262 157.324 377.555 135.253C363.22 116.277 343.418 98.1258 318.77 81.2121C297.937 66.9799 273.907 54.1916 251.218 45.2191C230.179 36.8654 211.203 32.2244 199.24 32.3276C191.917 32.4307 184.698 35.6278 177.582 41.8157C177.273 42.1251 176.963 42.4345 176.551 42.7439C183.976 36.0403 191.505 32.5338 199.24 32.4307C211.203 32.2244 230.179 36.9685 251.218 45.3222C273.907 54.2947 297.937 67.0831 318.77 81.3153C349.916 102.664 402.41 146.598 403.132 202.083C403.132 203.63 403.132 205.177 403.132 206.827C403.132 253.236 394.262 308.721 379.514 352.759C371.573 376.479 362.291 396.177 352.494 409.584C348.987 414.535 344.965 419.073 340.53 422.992C333.414 429.18 326.195 432.274 318.873 432.377C306.909 432.583 287.933 427.839 266.894 419.485C244.102 410.41 220.072 397.621 199.343 383.492C168.197 362.144 115.703 318.209 114.981 262.724C114.981 261.177 114.981 259.527 114.981 257.877C114.981 211.468 123.85 156.086 138.598 112.152C146.539 88.4314 155.821 68.7332 165.619 55.326C168.3 51.3039 171.188 47.9005 173.972 45.1159ZM403.028 206.621C403.028 205.074 403.028 203.424 403.028 201.877C402.307 146.495 349.916 102.56 318.77 81.3153C297.834 67.0831 273.907 54.2947 251.115 45.3222C230.076 36.9685 211.203 32.3276 199.137 32.5338C187.689 32.7401 176.447 40.3719 165.619 55.326C155.924 68.7332 146.539 88.4314 138.701 112.152C124.056 156.086 115.084 211.468 115.084 257.877C115.084 259.527 115.084 261.074 115.084 262.724C115.806 318.106 168.197 362.041 199.343 383.286C220.072 397.415 243.999 410.306 266.791 419.279C287.83 427.633 306.703 432.273 318.77 432.067C325.989 431.964 333.208 428.767 340.324 422.682C344.759 418.66 348.781 414.122 352.288 409.275C361.982 395.868 371.367 376.17 379.205 352.449C394.056 308.412 403.028 253.03 403.028 206.621Z" fill="#9FBEED"/>
<path d="M107.967 265.923C107.967 245.297 109.824 221.886 113.33 197.65C117.146 171.351 122.715 145.362 129.522 122.776C136.741 98.437 145.301 78.12 154.17 64.0941C158.605 57.1842 163.143 51.6151 167.681 47.6961C173.456 42.6426 179.335 40.1675 185.213 40.0643C196.558 39.9612 216.153 44.1896 238.945 51.8214C264.831 60.4845 290.098 71.6227 314.025 84.7205C342.077 100.19 364.663 116.795 381.061 134.121C400.347 154.541 410.35 175.064 410.557 195.381C410.866 216.833 409.01 241.997 405.194 268.089C401.378 294.388 395.809 320.274 389.002 342.963C381.783 367.302 373.223 387.619 364.353 401.645C354.35 417.424 343.933 425.572 333.311 425.675C321.966 425.778 302.371 421.55 279.579 413.918C253.693 405.255 228.425 394.116 204.499 381.019C176.344 365.549 153.861 348.945 137.463 331.618C118.177 311.301 108.174 290.675 107.967 270.358C107.967 268.914 107.967 267.367 107.967 265.923ZM305.878 80.4921C284.323 69.2507 261.84 59.6594 238.842 51.9245C216.05 44.2927 196.558 40.0643 185.213 40.1675C179.438 40.2706 173.559 42.8489 167.784 47.7992C163.246 51.7182 158.708 57.1842 154.377 64.0941C145.507 78.12 136.947 98.437 129.728 122.673C123.025 145.362 117.352 171.248 113.64 197.547C109.824 223.433 108.07 248.597 108.277 270.255C108.586 290.469 118.487 310.992 137.772 331.412C154.17 348.635 176.653 365.24 204.705 380.709C228.632 393.807 253.899 404.842 279.785 413.608C302.577 421.24 322.172 425.469 333.414 425.262C343.933 425.159 354.247 417.115 364.25 401.336C373.12 387.31 381.68 367.096 388.899 342.757C395.706 320.068 401.275 294.182 404.987 267.883C408.803 241.791 410.557 216.626 410.35 195.175C410.041 174.961 400.14 154.438 380.855 134.018C365.075 117.413 343.624 101.428 317.016 86.4737C343.624 101.428 365.179 117.516 380.855 134.121C400.14 154.438 410.041 174.961 410.247 195.175C410.247 196.619 410.247 198.063 410.247 199.506C410.247 242.719 401.894 298.41 388.796 342.654C381.577 367.096 373.017 387.31 364.147 401.233C359.713 408.142 355.278 413.608 350.74 417.527C344.965 422.478 339.189 425.056 333.311 425.056C321.966 425.159 302.474 420.931 279.682 413.402C253.796 404.739 228.529 393.704 204.705 380.503C176.653 365.033 154.067 348.429 137.772 331.206C118.487 310.889 108.586 290.366 108.38 270.152C108.38 268.708 108.38 267.264 108.38 265.82C108.38 222.505 116.733 166.917 129.831 122.673C137.051 98.2308 145.611 78.0169 154.48 64.0941C164.484 48.3149 174.797 40.2706 185.316 40.1675C196.661 40.0643 216.153 44.2927 238.945 51.8214C261.737 59.6594 284.323 69.2507 305.878 80.4921ZM410.041 199.61C410.041 198.166 410.041 196.722 410.041 195.278C409.732 175.064 399.934 154.644 380.648 134.327C364.353 117.104 341.768 100.5 313.716 85.0299C289.789 71.9321 264.522 60.897 238.739 52.2339C215.947 44.7053 196.455 40.3737 185.213 40.58C174.797 40.6831 164.484 48.7274 154.583 64.4035C145.714 78.3263 137.257 98.5402 129.934 122.982C116.734 167.226 108.483 222.814 108.483 266.13C108.483 267.574 108.483 269.017 108.483 270.461C108.792 290.675 118.59 311.095 137.876 331.412C154.17 348.635 176.756 365.24 204.808 380.709C228.735 393.807 254.002 404.842 279.785 413.505C302.577 421.034 322.069 425.365 333.311 425.159C339.086 425.056 344.862 422.581 350.534 417.631C355.072 413.712 359.506 408.246 363.941 401.336C372.81 387.413 381.267 367.199 388.589 342.757C401.79 298.41 410.041 242.822 410.041 199.61Z" fill="#9FBEED"/>
<path d="M101.162 273.964C101.162 254.988 102.812 232.505 106.009 208.682C109.515 182.486 114.466 156.497 120.55 133.498C127.151 108.437 134.886 87.5015 142.827 73.0631C147.468 64.6062 152.315 58.212 157.059 54.0868C161.597 50.1677 166.341 48.1051 170.982 48.002C181.398 47.8988 202.128 51.8179 226.261 58.5214C254.313 66.3595 282.158 76.3633 308.766 88.2235C340.325 102.353 365.695 117.41 383.95 132.88C405.814 151.443 417.055 170.11 417.261 188.468C417.468 208.166 415.921 232.196 412.517 257.772C409.011 283.968 404.06 309.957 397.976 332.956C391.375 358.017 383.64 378.953 375.699 393.391C366.52 409.892 357.135 418.349 347.544 418.452C337.128 418.555 316.398 414.636 292.265 407.933C264.213 400.095 236.368 390.091 209.76 378.231C178.201 364.102 152.831 349.044 134.576 333.574C112.712 315.011 101.471 296.344 101.265 277.986C101.162 276.749 101.162 275.408 101.162 273.964ZM157.265 54.293C152.418 58.5214 147.674 64.8125 143.033 73.2693C135.092 87.7078 127.357 108.644 120.757 133.705C114.672 156.703 109.619 182.692 106.215 208.888C103.018 232.711 101.368 255.091 101.368 274.067C101.368 275.408 101.368 276.852 101.368 278.193C101.574 296.55 112.816 315.217 134.68 333.678C153.037 349.147 178.304 364.205 209.863 378.334C236.471 390.194 264.316 400.095 292.368 408.036C316.501 414.739 337.231 418.761 347.647 418.555C357.135 418.452 366.52 409.995 375.596 393.597C383.537 379.159 391.272 358.223 397.872 333.162C403.957 310.164 409.011 284.174 412.414 257.979C415.817 232.299 417.468 208.372 417.158 188.674C416.952 170.317 405.71 151.65 383.846 133.189C365.489 117.719 340.222 102.662 308.663 88.5329C281.952 76.6727 254.21 66.772 226.158 58.8308C201.922 52.1273 181.295 48.1051 170.879 48.3114C166.444 48.3114 161.803 50.374 157.265 54.293ZM101.368 274.067C101.368 233.846 109 178.051 120.757 133.705C127.357 108.644 135.092 87.8109 143.033 73.2693C152.212 56.7682 161.597 48.4145 171.085 48.3114C181.501 48.2082 202.128 52.1273 226.364 58.8308C254.416 66.6689 282.158 76.6727 308.87 88.5329C340.428 102.662 365.695 117.719 384.053 133.189C405.917 151.65 417.055 170.317 417.364 188.674C417.88 229.102 410.145 287.165 397.976 333.162C391.375 358.223 383.64 379.056 375.699 393.597C371.058 402.054 366.211 408.448 361.467 412.574C356.929 416.493 352.288 418.555 347.75 418.555C337.334 418.658 316.708 414.739 292.472 408.036C264.42 400.198 236.677 390.194 209.966 378.334C178.408 364.205 153.14 349.147 134.783 333.678C112.919 315.217 101.78 296.55 101.471 278.193C101.368 276.749 101.368 275.408 101.368 274.067ZM417.055 192.593C417.055 191.252 417.055 189.912 417.055 188.571C416.849 170.317 405.607 151.753 383.846 133.292C365.592 117.822 340.222 102.765 308.766 88.636C282.158 76.7758 254.313 66.8751 226.261 58.934C202.128 52.2304 181.501 48.2082 171.085 48.4145C161.7 48.5176 152.315 56.8713 143.343 73.2693C135.402 87.7078 127.667 108.54 121.066 133.602C109.309 177.948 101.677 233.743 101.677 273.964C101.677 275.305 101.677 276.646 101.677 277.986C101.884 296.241 113.125 314.908 134.886 333.265C153.243 348.735 178.511 363.792 209.966 377.921C236.574 389.781 264.42 399.682 292.472 407.623C316.708 414.327 337.334 418.349 347.647 418.143C352.185 418.04 356.723 416.08 361.261 412.161C366.005 408.036 370.852 401.642 375.493 393.288C383.434 378.849 391.169 358.017 397.769 332.956C409.423 288.506 417.055 232.815 417.055 192.593Z" fill="#9FBEED"/>
<path d="M94.3524 282.114C94.3524 244.884 101.365 189.089 111.679 144.433C117.66 118.65 124.57 97.0956 131.686 82.2445C136.43 72.2407 141.381 65.0215 146.228 60.7931C149.734 57.6991 153.344 56.1521 156.954 56.049C166.545 55.9459 188.306 59.5555 213.882 65.434C244.306 72.447 274.524 81.4195 303.917 91.939C338.982 104.624 367.033 118.134 387.35 131.954C411.793 148.558 424.272 165.369 424.581 181.973C424.581 183.211 424.581 184.448 424.581 185.686C424.581 222.917 417.568 278.711 407.255 323.367C401.273 349.15 394.363 370.705 387.247 385.556C378.997 402.779 370.54 411.648 361.877 411.751C352.286 411.854 330.525 408.245 304.948 402.366C274.524 395.353 244.306 386.381 214.914 375.861C179.849 363.176 151.797 349.666 131.48 335.846C107.038 319.242 94.5587 302.431 94.2493 285.827C94.3524 284.59 94.3524 283.352 94.3524 282.114ZM146.331 60.8962C141.484 65.1246 136.533 72.3439 131.789 82.2445C124.673 97.0956 117.763 118.65 111.782 144.433C101.469 189.089 94.4556 244.884 94.4556 282.011C94.4556 283.249 94.4556 284.59 94.4556 285.827C94.6618 302.328 107.141 319.036 131.583 335.64C151.9 349.46 179.952 362.867 215.017 375.655C244.409 386.175 274.627 395.147 305.051 402.16C330.628 408.039 352.389 411.648 361.98 411.545C370.437 411.442 378.894 402.676 387.144 385.453C394.26 370.499 401.17 349.047 407.152 323.264C417.465 278.608 424.478 222.813 424.478 185.583C424.478 184.345 424.478 183.005 424.478 181.87C424.272 165.369 411.793 148.662 387.35 132.057C367.033 118.238 338.982 104.83 303.917 92.0421C274.524 81.5226 244.306 72.6533 213.882 65.5372C188.306 59.6586 166.545 56.049 156.954 56.1522C153.447 56.2553 149.837 57.9054 146.331 60.8962ZM94.5587 282.114C94.5587 244.987 101.572 189.089 111.885 144.433C117.867 118.65 124.776 97.1987 131.892 82.2445C140.04 65.1246 148.497 56.3584 157.057 56.2553C166.648 56.1521 188.409 59.6586 213.986 65.6403C244.41 72.6533 274.627 81.6258 304.02 92.1452C338.982 104.83 367.137 118.341 387.454 132.16C411.793 148.765 424.272 165.472 424.581 181.973C425.097 219.101 417.981 277.164 407.255 323.367C401.273 349.15 394.363 370.602 387.247 385.556C382.503 395.456 377.656 402.676 372.706 406.904C369.199 409.895 365.59 411.545 362.083 411.545C352.595 411.648 330.731 408.039 305.154 402.16C274.833 395.147 244.513 386.175 215.12 375.655C180.158 362.97 152.003 349.46 131.686 335.64C107.347 319.036 94.8681 302.328 94.5587 285.827C94.5587 284.693 94.5587 283.455 94.5587 282.114ZM424.169 185.686C424.169 184.448 424.169 183.108 424.169 181.87C423.962 165.472 411.483 148.765 387.144 132.264C366.827 118.444 338.775 105.037 303.814 92.3515C274.524 81.832 244.203 72.9627 213.882 65.8466C188.409 59.968 166.545 56.3584 157.057 56.4615C148.703 56.5647 140.246 65.3309 132.099 82.3477C124.983 97.1987 118.073 118.753 112.194 144.433C101.881 189.089 94.8681 244.884 94.8681 282.011C94.8681 283.249 94.8681 284.486 94.8681 285.724C95.0743 302.122 107.553 318.829 131.892 335.331C152.209 349.15 180.261 362.557 215.223 375.243C244.513 385.762 274.833 394.735 305.154 401.748C330.731 407.626 352.492 411.236 361.98 411.133C365.486 411.029 368.993 409.482 372.499 406.492L372.603 406.595L372.499 406.492C377.347 402.263 382.194 395.147 386.938 385.143C394.054 370.292 400.964 348.738 406.842 323.058C417.156 278.711 424.169 222.917 424.169 185.686Z" fill="#9FBEED"/>
<path d="M87.5499 290.157C87.5499 255.711 93.841 199.917 102.71 155.261C105.392 142.06 109.723 122.671 115.292 105.448C121.584 86.0592 128.081 73.374 134.681 67.5986C137.363 65.2266 140.147 64.0921 142.829 63.989C158.917 63.7827 230.491 75.5398 298.867 95.5474C337.336 106.789 368.172 118.649 390.552 130.819C417.572 145.566 431.392 160.521 431.598 175.165C432.011 208.993 425.617 267.262 416.438 313.568C409.631 347.499 395.399 404.531 376.32 404.84C360.025 405.047 288.451 393.186 220.281 373.179C181.813 361.937 150.976 350.077 128.7 337.908C101.679 323.16 87.8593 308.206 87.653 293.561C87.5499 292.53 87.5499 291.292 87.5499 290.157ZM134.888 67.8049C128.287 73.5803 121.79 86.2655 115.499 105.551C109.93 122.774 105.598 142.06 102.917 155.261C93.9441 199.814 87.7562 255.711 87.7562 290.054C87.7562 291.292 87.7562 292.426 87.7562 293.561C87.9624 308.206 101.782 323.057 128.7 337.701C150.976 349.871 181.813 361.731 220.281 372.973C288.451 392.877 360.025 404.737 376.32 404.531C384.673 404.428 392.924 393.289 400.865 371.632C407.775 352.759 413.035 329.554 416.335 313.465C425.307 268.706 431.495 212.912 431.495 178.672C431.495 177.434 431.495 176.3 431.495 175.165C431.289 160.521 417.469 145.67 390.552 131.025C368.275 118.855 337.439 106.995 298.971 95.7537C230.491 75.8492 159.02 63.989 142.932 64.1952C140.25 64.2984 137.466 65.4328 134.888 67.8049ZM87.7562 290.157C87.7562 255.918 94.0472 200.02 103.02 155.364C108.279 128.859 114.364 106.789 120.655 91.4221C127.875 73.5803 135.403 64.4015 142.932 64.2984C159.124 64.0921 230.594 75.9523 298.867 95.8568C337.336 107.098 368.172 118.958 390.449 131.128C417.366 145.876 431.186 160.727 431.392 175.268C431.392 176.403 431.392 177.537 431.392 178.775C431.392 213.015 425.101 268.809 416.232 313.568C410.972 340.073 404.784 362.144 398.596 377.51C393.852 389.061 389.108 396.899 384.364 401.128C381.682 403.396 379.001 404.634 376.32 404.634C360.128 404.84 288.657 393.083 220.384 373.076C181.916 361.834 151.079 349.974 128.803 337.804C101.885 323.057 88.0656 308.206 87.8593 293.664C87.7562 292.53 87.7562 291.292 87.7562 290.157ZM431.186 178.775C431.186 177.537 431.186 176.403 431.186 175.268C430.98 160.727 417.263 145.979 390.346 131.231C368.069 119.061 337.233 107.201 298.764 95.9599C230.594 76.0554 159.124 64.2984 142.932 64.5046C135.506 64.6078 128.081 73.6834 120.862 91.4221C114.674 106.789 108.486 128.859 103.226 155.364C94.2535 200.123 88.0656 255.918 88.0656 290.157C88.0656 291.292 88.0656 292.53 88.0656 293.664C88.2718 308.206 101.988 322.953 128.906 337.701C151.182 349.871 182.019 361.731 220.487 372.973C288.76 392.98 360.231 404.737 376.423 404.531C379.001 404.531 381.682 403.293 384.261 401.024C389.005 396.899 393.749 388.958 398.493 377.51C404.681 362.144 410.869 340.073 416.129 313.568C424.895 268.809 431.186 213.015 431.186 178.775Z" fill="#9FBEED"/>
<path d="M80.7429 298.512C80.7429 271.285 85.1775 217.038 93.8406 166.091C98.791 137.007 109.104 86.5759 122.821 74.6126C124.78 72.8594 126.843 72.0343 128.802 72.0343C142.725 71.8281 219.559 81.935 293.917 99.2612C359.715 114.628 438.301 139.07 438.611 168.669C439.023 194.658 434.486 250.968 425.513 303.978C422.625 320.686 417.984 344.612 412.003 364.001C405.093 386.484 397.771 397.931 390.551 398.035C376.629 398.241 299.795 388.134 225.437 370.808C159.639 355.441 81.0523 330.999 80.7429 301.4C80.7429 300.472 80.7429 299.544 80.7429 298.512ZM96.0064 155.365C95.2845 159.181 94.6657 162.791 94.0469 166.194C85.3838 217.141 80.9491 271.389 80.9491 298.615C80.9491 299.647 80.9491 300.575 80.9491 301.503C81.1554 314.704 97.1409 328.111 128.699 341.312C152.626 351.419 185.216 361.216 225.54 370.601C299.898 387.928 376.732 398.035 390.655 397.828C393.955 397.828 397.152 395.353 400.143 391.228C399.008 392.878 397.771 394.219 396.533 395.25C394.574 396.9 392.614 397.828 390.655 397.828C376.732 398.035 299.898 387.928 225.54 370.601C183.565 360.804 149.944 350.491 125.708 339.971C96.2126 327.183 81.1554 314.188 80.9491 301.4C80.5366 273.451 85.3838 221.06 92.2936 176.816C93.5312 169.288 94.7688 162.172 96.0064 155.365ZM438.198 171.866C438.198 170.732 438.198 169.7 438.198 168.669C437.992 155.984 423.038 143.092 393.542 130.304C369.306 119.784 335.788 109.471 293.814 99.6737C219.559 82.3475 142.725 72.2406 128.802 72.4469C126.843 72.4469 124.987 73.2719 123.027 74.922C98.791 95.961 81.1554 242.615 81.1554 298.1C81.1554 299.234 81.1554 300.265 81.1554 301.297C81.3617 313.982 96.3158 326.874 125.812 339.662C150.048 350.181 183.565 360.495 225.54 370.292C299.898 387.618 376.629 397.725 390.551 397.519C392.408 397.519 394.367 396.694 396.327 394.941C420.563 374.005 438.198 227.454 438.198 171.866ZM438.508 171.763C438.508 170.732 438.508 169.7 438.508 168.669C438.095 139.276 359.715 114.834 293.917 99.4675C219.455 82.1413 142.725 72.0343 128.802 72.2406C127.255 72.2406 125.708 72.8594 124.265 73.8907C125.812 72.8594 127.359 72.3437 128.802 72.3437C142.725 72.1375 219.559 82.2444 293.917 99.5706C335.891 109.368 369.512 119.681 393.748 130.201C423.244 142.989 438.302 155.984 438.508 168.772C438.508 169.803 438.508 170.835 438.508 171.969C438.508 200.64 433.867 250.762 427.163 293.356C425.513 303.566 423.863 313.157 422.11 322.129C423.347 315.735 424.482 309.547 425.41 303.978C433.97 252.928 438.508 198.887 438.508 171.763Z" fill="#9FBEED"/>
<path d="M73.9318 306.557C73.9318 281.496 78.0571 226.32 84.9669 176.92C88.9891 148.559 93.3206 125.767 97.9615 109.369C102.087 94.8271 106.315 85.5453 110.544 81.8325C111.988 80.5949 113.328 79.9761 114.772 79.9761C127.87 79.7699 211.51 88.7423 288.962 102.871C360.329 115.866 445.413 136.699 445.723 161.966C445.723 162.791 445.723 163.719 445.723 164.648C445.723 189.709 441.597 244.781 434.688 294.181C430.665 322.543 426.334 345.335 421.693 361.733C416.227 381.122 410.555 391.022 404.882 391.125C391.785 391.332 308.145 382.359 230.692 368.23C159.325 355.235 74.2412 334.403 73.9318 309.239C73.9318 308.31 73.9318 307.485 73.9318 306.557ZM445.516 164.648C445.516 163.719 445.516 162.791 445.516 161.966C445.413 150.725 427.984 139.277 393.847 128.036C367.858 119.476 332.587 111.122 288.962 103.078C211.51 88.9486 127.87 79.9761 114.772 80.1824C113.431 80.1824 111.988 80.8012 110.647 82.0388C106.418 85.7515 102.19 94.9303 98.1678 109.472C93.5269 125.87 89.1953 148.559 85.1732 177.023C77.9539 228.177 73.8286 285.518 74.138 309.239C74.3443 320.48 91.6705 331.928 125.807 343.169C151.796 351.729 187.068 360.083 230.692 368.127C308.145 382.256 391.785 391.229 404.882 391.022C410.452 390.919 416.021 381.122 421.487 361.836C426.128 345.438 430.459 322.749 434.481 294.284C441.391 244.781 445.516 189.812 445.516 164.648ZM74.138 306.454C74.138 281.29 78.2633 226.217 85.1732 177.023C93.9394 114.835 104.459 80.4918 114.772 80.2855C127.87 80.0793 211.51 89.0517 288.962 103.181C360.226 116.175 445.207 136.905 445.516 161.966C445.516 162.791 445.516 163.719 445.516 164.648C445.516 189.709 441.391 244.781 434.481 294.078C426.849 348.326 417.98 381.122 409.008 388.96C407.667 390.094 406.326 390.713 404.986 390.713C391.888 390.919 308.248 381.947 230.796 367.818C159.531 354.823 74.5506 334.093 74.2412 309.032C74.138 308.31 74.138 307.382 74.138 306.454ZM445.31 164.648C445.31 163.719 445.31 162.791 445.31 161.966C445.104 150.828 427.778 139.38 393.744 128.242C367.755 119.682 332.484 111.328 288.962 103.387C211.51 89.258 127.87 80.2855 114.772 80.4918C104.562 80.5949 94.1457 114.938 85.3795 177.023C78.1602 228.074 74.0349 285.415 74.3443 309.135C74.5506 320.274 91.8768 331.721 125.91 342.86C151.9 351.42 187.171 359.773 230.692 367.714C308.145 381.844 391.681 390.816 404.779 390.61C406.12 390.61 407.358 389.991 408.698 388.856C413.133 385.041 417.568 374.934 421.899 358.845C426.231 342.756 430.356 320.892 434.172 294.078C441.185 244.781 445.31 189.812 445.31 164.648Z" fill="#9FBEED"/>
<path d="M67.1292 314.393C67.1292 291.498 70.6357 235.704 76.1017 187.747C79.4019 158.561 83.0115 135.253 86.7242 118.443C90.3339 102.354 94.0466 92.5565 97.8625 89.2563C98.5844 88.5344 99.6158 88.0187 100.75 88.0187C110.032 87.9156 197.591 94.6192 284.016 106.583C333.004 113.389 372.091 120.505 400.246 127.828C435.001 136.903 452.637 146.082 452.843 155.261C453.152 176.403 449.543 234.569 443.87 284.382C440.57 313.568 436.961 336.876 433.248 353.687C428.71 373.798 424.069 384.008 419.325 384.111C409.94 384.214 322.175 377.51 236.059 365.547C187.072 358.74 147.985 351.624 119.83 344.302C85.0741 335.226 67.4386 326.047 67.2323 316.869C67.1292 316.044 67.1292 315.219 67.1292 314.393ZM452.533 157.839C452.533 157.014 452.533 156.189 452.533 155.364C452.43 146.288 434.795 137.11 400.142 128.137C371.987 120.815 332.9 113.699 283.913 106.892C197.488 94.8254 109.929 88.1219 100.647 88.225C99.6158 88.3281 98.6876 88.7407 97.9656 89.4626C94.2529 92.7628 90.5401 102.457 86.9305 118.546C83.1146 135.356 79.6081 158.664 76.3079 187.851C70.945 235.807 67.3354 291.498 67.3354 314.393C67.3354 315.322 67.3354 316.147 67.3354 316.869C67.4386 325.944 85.0741 335.123 119.726 344.095C147.882 351.418 186.969 358.534 235.956 365.341C322.072 377.304 409.837 384.008 419.222 383.904C423.863 383.801 428.504 373.694 432.938 353.584C436.754 336.773 440.261 313.465 443.561 284.279C449.027 236.529 452.533 180.734 452.533 157.839ZM67.3354 314.497C67.3354 291.498 70.8419 235.601 76.3079 187.747C79.6081 158.664 83.2178 135.356 86.9305 118.443C91.3652 98.4351 96.0061 88.225 100.647 88.225C110.032 88.1219 197.694 94.8254 283.913 106.789C360.643 117.411 452.224 134.531 452.533 155.261C452.843 176.609 449.233 234.776 443.664 284.382C440.364 313.465 436.754 336.876 433.042 353.687C429.432 369.775 425.719 379.47 422.006 382.77C421.284 383.492 420.253 383.904 419.325 384.008C409.94 384.111 322.278 377.407 236.059 365.444C189.031 358.946 151.079 352.037 123.13 345.024C86.3117 335.742 67.5417 326.357 67.4385 316.972C67.3354 316.147 67.3354 315.322 67.3354 314.497ZM452.327 157.736C452.327 156.911 452.327 156.086 452.327 155.364C452.224 146.082 433.557 136.697 396.842 127.518C368.893 120.505 330.941 113.595 283.913 107.098C197.694 95.1348 110.032 88.4313 100.647 88.5344C96.1093 88.6375 91.5714 98.7445 87.1368 118.649C83.3209 135.459 79.8144 158.767 76.5142 187.954C71.1513 235.807 67.5417 291.704 67.5417 314.703C67.5417 315.528 67.5417 316.353 67.5417 317.075C67.6448 326.357 86.3117 335.742 123.027 344.921C150.975 351.934 188.928 358.843 235.956 365.341C322.175 377.304 409.837 384.008 419.222 383.904C420.15 383.801 421.078 383.389 421.8 382.77C425.513 379.573 429.123 369.879 432.732 353.79C436.548 336.979 440.055 313.672 443.355 284.485C448.821 236.632 452.327 180.631 452.327 157.736Z" fill="#9FBEED"/>
<path d="M60.3203 322.438C60.3203 303.771 62.7955 249.008 67.127 198.577C70.7367 155.983 76.8215 103.695 84.7626 96.7855C85.2783 96.2699 85.897 96.0636 86.5158 95.9605C95.3852 95.8573 188.204 101.117 278.96 110.193C331.454 115.452 373.326 121.022 403.441 126.797C440.774 133.913 459.751 141.235 459.854 148.661C460.06 165.059 457.482 222.194 453.047 274.688C450.572 303.256 447.89 326.461 445.106 343.374C441.393 365.754 437.577 377.201 433.555 377.201C424.583 377.305 331.661 372.045 241.111 362.969C188.617 357.709 146.745 352.14 116.63 346.365C79.2966 339.249 60.3203 331.927 60.2172 324.501C60.3203 323.985 60.3203 323.263 60.3203 322.438ZM459.647 150.827C459.647 150.002 459.647 149.383 459.647 148.661C459.544 141.442 440.671 134.119 403.441 127.003C373.326 121.228 331.454 115.659 278.96 110.399C188.307 101.323 95.4883 96.0636 86.619 96.2699C86.0002 96.2699 85.3814 96.5792 84.9689 96.9918C80.6373 100.808 74.0369 121.434 67.4364 198.68C62.8986 251.277 60.4235 308.412 60.6297 324.707C60.7329 331.926 79.606 339.249 116.837 346.365C146.848 352.14 188.72 357.709 241.317 362.969C331.764 372.045 424.789 377.305 433.658 377.201C440.465 377.098 447.168 341.724 452.841 274.791C457.069 224.36 459.647 169.597 459.647 150.827ZM60.5266 322.438C60.5266 303.668 63.0018 249.008 67.3333 198.577C70.6335 160.418 77.4402 96.373 86.5158 96.1667C95.4883 96.0636 188.41 101.323 278.857 110.399C361.156 118.65 459.235 132.057 459.441 148.558C459.441 149.177 459.441 149.899 459.441 150.724C459.441 169.39 456.966 224.05 452.634 274.585C450.056 304.7 447.272 328.833 444.281 346.159C441.29 363.485 438.196 373.592 435.102 376.273C434.69 376.686 434.071 376.995 433.452 376.995C424.686 377.098 332.176 371.942 241.111 362.763C158.811 354.512 60.7328 341.105 60.5266 324.604C60.5266 323.985 60.5266 323.263 60.5266 322.438ZM459.338 150.827C459.338 150.105 459.338 149.383 459.338 148.661C459.235 139.585 427.78 125.662 278.857 110.708C188.513 101.633 95.4883 96.373 86.619 96.4761C82.8031 96.4761 75.2745 109.883 67.6427 198.68C63.3111 249.111 60.836 303.771 60.836 322.541C60.836 323.367 60.836 324.088 60.836 324.707C60.9391 333.783 92.3944 347.706 241.317 362.66C332.383 371.839 424.892 377.098 433.658 376.892C434.277 376.892 434.793 376.583 435.205 376.17C441.29 370.91 447.478 334.814 452.634 274.688C456.863 224.154 459.338 169.494 459.338 150.827Z" fill="#9FBEED"/>
<path d="M53.5114 330.584C53.5114 315.217 55.2647 260.557 58.2555 209.507C60.1119 178.877 62.0714 154.331 64.2372 136.696C66.6092 117.307 68.8781 106.788 71.4564 104.622C71.7658 104.312 72.0752 104.209 72.4877 104.209C78.4694 104.106 176.342 107.613 274.008 114.11C330.008 117.823 374.664 121.845 406.635 126.073C425.509 128.548 440.153 131.024 450.157 133.602C461.399 136.49 466.864 139.274 466.864 142.265C467.071 154.331 465.318 211.57 462.12 265.198C460.264 295.829 458.305 320.374 456.139 338.01C453.56 359.873 450.776 370.496 447.888 370.599C441.7 370.702 342.9 367.093 246.368 360.699C190.368 356.986 145.711 352.964 113.741 348.735C94.8674 346.26 80.2226 343.785 70.2188 341.207C58.9774 338.319 53.5114 335.534 53.5114 332.543C53.5114 331.822 53.5114 331.203 53.5114 330.584ZM466.658 144.018C466.658 143.296 466.658 142.574 466.658 142.059C466.658 139.171 461.192 136.386 450.157 133.602C440.153 131.024 425.509 128.548 406.635 126.073C374.561 121.948 330.008 117.926 274.008 114.11C176.342 107.613 78.4694 104.106 72.5908 104.209C72.2815 104.209 71.9721 104.415 71.6627 104.622C69.1875 106.788 66.8155 117.204 64.5466 136.593C62.3808 154.228 60.4213 178.774 58.5649 209.404C55.471 260.454 53.8208 315.217 53.8208 330.481C53.8208 331.203 53.8208 331.822 53.8208 332.337C53.8208 335.225 59.2868 338.009 70.322 340.794C80.3258 343.372 94.9705 345.848 113.844 348.323C145.815 352.448 190.471 356.47 246.471 360.286C343.003 366.783 441.7 370.29 447.888 370.187C450.673 370.187 453.354 359.255 455.932 337.803C458.098 320.065 460.058 295.622 461.914 264.992C465.008 213.839 466.658 159.385 466.658 144.018ZM53.7177 330.481C53.7177 315.011 55.4709 260.351 58.4618 209.404C60.6276 172.586 65.2685 110.088 71.5595 104.622C71.7658 104.415 72.0752 104.209 72.4877 104.209C78.4694 104.106 176.651 107.613 274.008 114.11C336.609 118.338 384.875 122.773 417.464 127.517C450.054 132.261 466.658 137.108 466.658 141.956C466.658 142.471 466.658 143.09 466.658 143.812C466.658 159.282 464.905 214.045 461.914 264.889C459.748 301.707 455.107 364.205 448.816 369.671C448.61 369.877 448.301 370.084 447.888 370.084C441.803 370.187 343.622 366.68 246.368 360.183C183.767 355.954 135.501 351.52 102.912 346.776C70.322 342.032 53.7177 337.184 53.7177 332.337C53.7177 331.822 53.7177 331.203 53.7177 330.481ZM466.452 143.915C466.452 143.193 466.452 142.574 466.452 142.059C466.349 137.315 449.848 132.467 417.361 127.826C384.875 123.186 336.609 118.648 273.905 114.419C176.548 107.922 78.4694 104.415 72.4877 104.519C72.1783 104.519 71.9721 104.622 71.7658 104.828C67.1249 108.85 62.4839 145.978 58.7712 209.507C55.6772 260.454 54.0271 315.114 54.0271 330.584C54.0271 331.306 54.0271 331.925 54.0271 332.44C54.1302 337.184 70.6313 342.032 103.118 346.673C135.708 351.417 183.87 355.851 246.575 360.08C343.725 366.577 442.01 370.084 447.991 369.98C448.301 369.98 448.507 369.877 448.713 369.671C453.354 365.649 457.995 328.521 461.708 264.992C464.699 214.148 466.452 159.385 466.452 143.915Z" fill="#9FBEED"/>
<path d="M46.7058 338.526C46.7058 326.666 47.5308 273.553 49.3872 220.234C50.5217 188.675 51.6561 163.511 52.9968 145.566C53.7188 135.15 54.5439 127.003 55.472 121.33C56.2971 115.967 57.1221 112.977 57.9472 112.152C58.0503 112.048 58.2566 111.945 58.4629 111.945C62.3819 111.945 167.164 113.699 269.058 117.514C336.61 119.99 388.279 122.774 422.416 125.765C457.068 128.756 473.982 131.85 473.982 135.356C474.085 142.782 473.26 198.782 471.3 255.196C470.166 286.754 469.031 311.918 467.691 329.863C466.866 340.486 466.041 348.736 465.215 354.099C463.978 362.35 462.947 363.484 462.225 363.484C458.409 363.587 354.555 361.731 251.629 357.915C184.078 355.44 132.408 352.655 98.2718 349.665C63.6195 346.674 46.7058 343.58 46.7058 340.073C46.7058 339.764 46.7058 339.248 46.7058 338.526ZM460.368 130.509C451.808 128.962 439.02 127.518 422.313 125.971C388.176 122.98 336.61 120.299 268.955 117.721C167.061 113.905 62.3819 112.048 58.3597 112.152C58.2566 112.152 58.0503 112.255 57.9472 112.358C57.1221 113.08 56.2971 116.071 55.5751 121.33C54.7501 127.003 53.925 135.15 53.2031 145.566C51.8624 163.511 50.728 188.572 49.5935 220.131C47.634 276.441 46.8089 332.442 46.9121 339.97C46.9121 340.073 46.9121 340.28 47.0152 340.383C46.9121 340.28 46.9121 340.073 46.9121 339.97C46.9121 339.661 46.9121 339.145 46.9121 338.629C46.9121 327.079 47.7371 273.244 49.5935 220.131C51.8624 153.301 54.8532 115.039 58.0503 112.255C58.1535 112.152 58.2566 112.048 58.4629 112.048C62.485 112.048 167.37 113.802 269.058 117.618C335.579 120.093 386.938 122.877 421.487 125.765C438.711 127.518 451.705 128.962 460.368 130.509ZM473.466 137.11C473.466 136.388 473.466 135.872 473.466 135.459C473.466 133.294 464.39 129.993 421.384 126.281C386.835 123.29 335.475 120.608 268.955 118.133C167.37 114.317 62.3819 112.461 58.3597 112.564C58.2566 112.564 58.1535 112.564 58.0503 112.667C54.9564 115.349 51.9655 153.611 49.6966 220.337C47.7371 276.028 46.9121 332.441 47.0152 340.176C47.0152 342.342 56.0908 345.642 99.0969 349.355C133.646 352.346 184.903 355.027 251.526 357.503C354.658 361.318 458.306 363.175 462.121 363.072C462.225 363.072 462.328 362.969 462.328 362.969C465.422 360.287 468.309 322.025 470.681 255.299C472.641 201.98 473.466 149.073 473.466 137.11ZM462.637 363.072C462.534 363.175 462.431 363.278 462.225 363.278C458.409 363.381 354.761 361.525 251.629 357.709C185.006 355.234 133.749 352.449 99.2 349.561C87.1335 348.53 77.1297 347.499 69.2917 346.467C77.0266 347.499 86.721 348.53 98.3749 349.561C132.512 352.552 184.078 355.234 251.732 357.812C354.658 361.628 458.512 363.484 462.328 363.381C463.359 363.381 464.287 360.39 465.112 354.202C465.937 348.736 466.762 340.589 467.587 329.966C468.928 312.021 470.063 286.96 471.197 255.402C473.157 198.989 473.982 142.988 473.879 135.563C473.879 135.15 473.569 134.634 472.847 134.222C473.466 134.634 473.879 135.15 473.879 135.563C473.982 143.091 473.157 199.092 471.197 255.402C468.722 322.025 465.731 360.39 462.637 363.072Z" fill="#9FBEED"/>
<path d="M39.9025 341.105C39.9025 323.882 40.0056 277.06 40.5213 231.063C40.9338 187.026 41.6557 155.571 42.3777 137.626C43.0996 122.672 43.7184 120.403 44.1309 120.093C44.2341 119.99 44.3372 119.99 44.3372 119.99C46.3998 119.99 154.07 120.093 264.008 121.228C327.228 121.847 377.35 122.775 413.137 123.806C480.998 125.766 480.998 127.931 480.998 128.756C480.998 132.16 480.998 188.986 480.482 245.502C479.967 292.839 479.348 325.532 478.42 342.652C477.698 356.678 477.079 356.678 476.563 356.678C474.501 356.678 366.728 356.575 256.892 355.441C193.982 354.822 143.86 353.894 107.866 352.862C40.0056 350.903 40.0056 348.737 40.0056 347.912C39.9025 347.293 39.9025 344.921 39.9025 341.105ZM44.234 120.3C42.5839 121.743 41.4495 160.005 40.7276 231.167C40.1088 287.167 40.1087 344.405 40.1087 347.912C40.1087 348.221 40.1088 348.84 48.4624 349.768C58.8788 350.8 78.8864 351.831 107.763 352.656C143.756 353.687 193.982 354.512 256.789 355.234C366.625 356.369 474.398 356.575 476.46 356.472C478.11 356.472 479.348 319.138 480.173 245.605C480.792 189.089 480.792 132.263 480.689 128.86C480.689 128.55 480.689 127.931 472.335 127.003C461.919 125.972 441.911 124.941 413.034 124.116C377.35 123.084 327.125 122.259 264.008 121.537C154.07 120.403 46.3998 120.196 44.3372 120.3C44.234 120.196 44.234 120.196 44.234 120.3ZM40.1087 339.971C40.1087 322.129 40.2119 277.163 40.7276 231.476C41.0369 199.608 41.4495 173.825 41.9652 155.158C42.5839 132.263 43.409 120.506 44.3372 120.3C47.1217 120.3 155.513 120.403 264.008 121.537C326.506 122.156 376.628 123.084 413.137 124.116C434.382 124.734 450.884 125.456 462.228 126.178C474.604 127.003 480.792 127.828 480.792 128.86C480.792 132.263 480.792 188.573 480.276 245.296C479.967 277.37 479.554 303.05 479.039 321.613C478.42 343.58 477.595 355.647 476.77 356.369L476.666 356.369C474.604 356.369 367.243 356.266 256.995 355.131C194.807 354.512 144.685 353.584 107.97 352.553C86.6213 351.934 70.1202 351.212 58.8788 350.49C46.5029 349.665 40.315 348.84 40.315 347.809C40.1088 347.19 40.1087 344.405 40.1087 339.971ZM480.586 136.285C480.586 132.057 480.586 129.375 480.586 128.756C480.586 128.447 479.245 127.416 462.228 126.281C450.884 125.559 434.382 124.837 413.137 124.219C376.628 123.187 326.506 122.259 264.111 121.64C155.513 120.506 47.1217 120.3 44.4403 120.403C44.1309 120.506 43.2027 124.219 42.2745 155.055C41.7589 173.825 41.3464 199.505 41.037 231.373C40.4182 288.508 40.4182 344.509 40.5213 347.809C40.5213 348.118 41.862 349.15 58.8788 350.284C70.1202 351.006 86.6213 351.728 107.97 352.347C144.685 353.378 194.807 354.306 256.995 354.925C367.037 356.059 474.088 356.163 476.666 356.163C477.079 355.853 478.007 351.831 478.832 321.51C479.348 302.946 479.76 277.267 480.07 245.192C480.379 199.505 480.586 154.024 480.586 136.285Z" fill="#9FBEED"/>
<path d="M30 128.036L30.2063 128.036L488.009 121.951L488.009 122.157L491 349.77L490.794 349.77L32.9908 355.855L32.9908 355.648L30 128.036ZM487.803 122.054L30.2063 128.139L33.1971 355.545L490.794 349.46L487.803 122.054ZM30.3094 128.242L30.4125 128.242L487.803 122.054L487.803 122.157L490.897 349.46L490.794 349.46L33.4034 355.648L33.4034 355.545L30.3094 128.242ZM487.597 122.364L30.5157 128.448L33.5065 355.442L490.587 349.254L487.597 122.364Z" fill="#9FBEED"/>
<g clip-path="url(#clip0_2384_18945)">
<path d="M146.099 280.095H0.699219C5.9504 251.389 27.6553 228.517 55.7783 221.632L56.5951 221.749C57.7621 228.751 64.0635 234.118 71.6485 234.118C79.7003 234.118 86.1185 228.167 86.7019 220.582C116.809 226.3 140.614 249.989 146.099 280.095Z" fill="#2D72B0"/>
<path d="M99.187 176.239V173.205C102.104 174.022 104.205 177.289 104.205 181.14C104.205 185.458 101.521 188.959 98.1367 189.192C98.8369 186.858 99.187 184.291 99.187 181.724V176.239Z" fill="#73C7D1"/>
<path d="M57.2962 205.061C57.2962 205.061 57.1795 205.061 57.2962 205.061C55.4291 203.894 53.7954 202.61 52.2784 201.093C49.011 197.826 46.5604 193.742 45.2768 189.191C44.5766 186.857 44.2266 184.29 44.2266 181.722V176.354C44.2266 176.354 45.0434 175.654 46.2103 174.137C48.5442 171.22 52.2784 165.502 53.4453 157.333C53.6787 155.933 54.9623 155 56.3626 155.233C59.8634 155.933 66.1648 157.1 71.7661 157.1C77.3674 157.1 83.6688 155.933 87.1696 155.233C88.5699 155 89.8535 155.933 90.0869 157.333C91.2538 165.502 94.8713 171.103 97.3219 174.021C98.3721 175.304 99.1889 176.121 99.3056 176.238V181.606C99.3056 184.173 98.9556 186.74 98.2554 189.074C96.3883 195.842 91.954 201.443 86.236 205.061C82.0351 207.628 77.134 209.145 71.7661 209.145C66.3982 209.145 61.3804 207.628 57.2962 205.061ZM84.6023 175.538C84.6023 174.721 83.9022 174.021 83.0853 174.021C82.2685 174.021 81.5683 174.721 81.5683 175.538C81.5683 176.354 82.2685 177.055 83.0853 177.055C83.9022 177.171 84.6023 176.471 84.6023 175.538ZM61.8472 175.538C61.8472 174.721 61.147 174.021 60.3302 174.021C59.5133 174.021 58.8132 174.721 58.8132 175.538C58.8132 176.354 59.5133 177.055 60.3302 177.055C61.147 177.171 61.8472 176.471 61.8472 175.538Z" fill="#73C7D1"/>
<path d="M99.1884 173.088V176.122C98.9551 176.005 98.2549 175.189 97.2047 173.905C94.8708 170.988 91.1366 165.27 89.9697 157.218C89.7363 155.818 88.4527 154.884 87.0524 155.117C83.5516 155.818 77.2502 156.985 71.6489 156.985C66.0477 156.985 59.7462 155.818 56.2454 155.117C54.8451 154.884 53.5615 155.818 53.3281 157.218C52.1612 165.386 48.427 171.104 46.0932 174.022C44.9262 175.422 44.1094 176.239 44.1094 176.239V173.088V160.135C44.1094 144.965 56.4788 132.596 71.6489 132.596C86.819 132.596 99.1884 144.965 99.1884 160.135V173.088Z" fill="#242752"/>
<path d="M86.701 220.817C86.1175 228.402 79.6994 234.353 71.6476 234.353C64.0625 234.353 57.7611 228.985 56.5942 221.983L55.7773 221.867L56.4775 221.75V220.933V219.65L57.1777 205.18C61.3786 207.747 66.2797 209.264 71.5309 209.264C76.7821 209.264 81.7999 207.747 86.0008 205.18L86.701 219.766C86.701 220 86.701 220.466 86.701 220.817Z" fill="#73C7D1"/>
<path d="M82.9682 177.055C83.806 177.055 84.4852 176.376 84.4852 175.538C84.4852 174.701 83.806 174.021 82.9682 174.021C82.1304 174.021 81.4512 174.701 81.4512 175.538C81.4512 176.376 82.1304 177.055 82.9682 177.055Z" fill="#020203"/>
<path d="M60.3315 177.055C61.1693 177.055 61.8485 176.376 61.8485 175.538C61.8485 174.701 61.1693 174.021 60.3315 174.021C59.4936 174.021 58.8145 174.701 58.8145 175.538C58.8145 176.376 59.4936 177.055 60.3315 177.055Z" fill="#020203"/>
<path d="M44.1096 181.606C44.1096 184.174 44.4597 186.741 45.1598 189.075C41.7757 188.725 39.0918 185.224 39.0918 181.023C39.0918 177.172 41.1923 174.021 44.1096 173.088V176.239V181.606V181.606Z" fill="#73C7D1"/>
<path d="M57.2954 204.83V205.063L56.5952 219.65L56.4785 220.817V221.634" stroke="#1E1E3E" stroke-width="1.16693" stroke-miterlimit="10" stroke-linecap="round"/>
<path d="M86.7021 219.647L86.002 205.061" stroke="#1E1E3E" stroke-width="1.16693" stroke-miterlimit="10" stroke-linecap="round"/>
<path d="M44.1096 173.088C41.1923 173.905 39.0918 177.172 39.0918 181.023C39.0918 185.341 41.7757 188.841 45.1598 189.075" stroke="#1E1E3E" stroke-width="1.16693" stroke-miterlimit="10" stroke-linecap="round"/>
<path d="M99.187 173.088C102.104 173.905 104.205 177.172 104.205 181.023C104.205 185.341 101.521 188.841 98.1367 189.075" stroke="#1E1E3E" stroke-width="1.16693" stroke-miterlimit="10" stroke-linecap="round"/>
<path d="M99.1884 173.088V160.135C99.1884 144.965 86.819 132.596 71.6489 132.596C56.4788 132.596 44.1094 144.965 44.1094 160.135V173.088V176.239V181.607C44.1094 184.174 44.4595 186.741 45.1596 189.075C46.4432 193.626 48.8938 197.71 52.1612 200.978C53.6782 202.495 55.4286 203.895 57.179 204.945C61.3799 207.513 66.281 209.03 71.5322 209.03C76.7834 209.03 81.8012 207.513 86.0021 204.945C91.8368 201.328 96.1544 195.727 98.0215 188.958C98.7217 186.625 99.0718 184.057 99.0718 181.49V176.122V173.088H99.1884Z" stroke="#1E1E3E" stroke-width="1.16693" stroke-miterlimit="10" stroke-linecap="round"/>
<path d="M76.7848 186.742C76.7848 186.742 74.6843 190.243 70.4833 188.959C69.7832 188.726 69.3164 188.026 69.3164 187.209L71.767 171.922" stroke="#1E1E3E" stroke-width="1.16693" stroke-miterlimit="10" stroke-linecap="round"/>
<path d="M56.9453 171.104C56.9453 171.104 60.3294 168.537 63.5968 171.104" stroke="#1E1E3E" stroke-width="1.16693" stroke-miterlimit="10" stroke-linecap="round"/>
<path d="M79.6992 171.104C79.6992 171.104 82.9666 168.537 86.3507 171.104" stroke="#1E1E3E" stroke-width="1.16693" stroke-miterlimit="10" stroke-linecap="round"/>
<path d="M99.188 176.238C98.9546 176.004 98.2544 175.304 97.0875 174.021C94.7536 171.103 91.0194 165.385 89.8525 157.333C89.6191 155.933 88.3355 155 86.9352 155.233C83.4344 155.933 77.133 157.1 71.5317 157.1C65.9305 157.1 59.629 155.933 56.1283 155.233C54.7279 155 53.4443 155.933 53.2109 157.333C52.044 165.502 48.3098 171.22 45.976 174.137C44.809 175.538 43.9922 176.354 43.9922 176.354" stroke="#1E1E3E" stroke-width="1.16693" stroke-miterlimit="10" stroke-linecap="round"/>
<path d="M67.2148 197.127C67.2148 197.127 71.5325 200.978 77.6005 197.127" stroke="#1E1E3E" stroke-width="1.16693" stroke-miterlimit="10"/>
<path d="M86.702 219.648C86.702 219.999 86.702 220.465 86.5853 220.815C86.0018 228.4 79.5837 234.352 71.5319 234.352C63.9469 234.352 57.6454 228.984 56.4785 221.982" stroke="#1E1E3E" stroke-width="1.16693" stroke-miterlimit="10"/>
<path d="M86.0018 220.699C86.2352 220.699 86.4685 220.816 86.5852 220.816C116.692 226.3 140.497 249.989 145.982 280.096H0.699219C5.9504 251.389 27.6553 228.518 55.7783 221.633L56.4785 221.516" stroke="#1E1E3E" stroke-width="1.16693" stroke-miterlimit="10"/>
<path d="M517.298 280.095H371.898C377.15 251.389 398.854 228.517 426.977 221.632L427.794 221.749C428.961 228.751 435.263 234.118 442.848 234.118C450.9 234.118 457.318 228.167 457.901 220.582C488.008 226.3 511.697 249.989 517.298 280.095Z" fill="#2D72B0"/>
<path d="M470.386 176.239V173.205C473.303 174.022 475.404 177.289 475.404 181.14C475.404 185.458 472.72 188.959 469.336 189.192C470.036 186.858 470.386 184.291 470.386 181.724V176.239Z" fill="#73C7D1"/>
<path d="M428.378 205.061C426.511 203.894 424.877 202.61 423.36 201.093C420.093 197.826 417.642 193.742 416.359 189.191C415.659 186.857 415.309 184.29 415.309 181.722V176.354C415.309 176.354 416.125 175.654 417.292 174.137C419.626 171.22 423.36 165.502 424.527 157.333C424.761 155.933 426.044 155 427.445 155.233C430.945 155.933 437.247 157.1 442.848 157.1C448.449 157.1 454.751 155.933 458.252 155.233C459.652 155 460.936 155.933 461.169 157.333C462.336 165.502 466.07 171.103 468.404 174.021C469.454 175.304 470.271 176.121 470.388 176.238V181.606C470.388 184.173 470.038 186.74 469.337 189.074C467.47 195.842 463.036 201.443 457.318 205.061C453.117 207.628 448.216 209.145 442.848 209.145C437.48 209.145 432.579 207.628 428.378 205.061ZM455.801 175.538C455.801 174.721 455.101 174.021 454.284 174.021C453.467 174.021 452.767 174.721 452.767 175.538C452.767 176.354 453.467 177.055 454.284 177.055C455.101 177.055 455.801 176.471 455.801 175.538ZM433.046 175.538C433.046 174.721 432.346 174.021 431.529 174.021C430.712 174.021 430.012 174.721 430.012 175.538C430.012 176.354 430.712 177.055 431.529 177.055C432.346 177.171 433.046 176.471 433.046 175.538Z" fill="#73C7D1"/>
<path d="M470.388 173.088V176.122C470.271 176.005 469.454 175.189 468.404 173.905C466.07 170.988 462.336 165.27 461.169 157.218C460.936 155.818 459.652 154.884 458.252 155.117C454.751 155.818 448.449 156.985 442.848 156.985C437.247 156.985 430.945 155.818 427.445 155.117C426.044 154.884 424.761 155.818 424.527 157.218C423.36 165.386 419.626 171.104 417.292 174.022C416.125 175.422 415.309 176.239 415.309 176.239V173.088V160.135C415.309 144.965 427.678 132.596 442.848 132.596C458.018 132.596 470.388 144.965 470.388 160.135V173.088V173.088Z" fill="#242752"/>
<path d="M457.785 220.817C457.201 228.402 450.667 234.353 442.732 234.353C435.147 234.353 428.845 228.985 427.678 221.983L426.861 221.867L427.561 221.75V220.933V219.65L428.262 205.18C432.463 207.747 437.364 209.264 442.615 209.264C447.866 209.264 452.884 207.747 457.085 205.18L457.785 219.766C457.902 220 457.902 220.466 457.785 220.817Z" fill="#73C7D1"/>
<path d="M454.167 177.055C455.005 177.055 455.684 176.376 455.684 175.538C455.684 174.701 455.005 174.021 454.167 174.021C453.33 174.021 452.65 174.701 452.65 175.538C452.65 176.376 453.33 177.055 454.167 177.055Z" fill="#020203"/>
<path d="M431.531 177.055C432.368 177.055 433.048 176.376 433.048 175.538C433.048 174.701 432.368 174.021 431.531 174.021C430.693 174.021 430.014 174.701 430.014 175.538C430.014 176.376 430.693 177.055 431.531 177.055Z" fill="#020203"/>
<path d="M415.309 181.606C415.309 184.174 415.659 186.741 416.359 189.075C412.975 188.725 410.291 185.224 410.291 181.023C410.291 177.172 412.391 174.021 415.309 173.088V176.239V181.606Z" fill="#73C7D1"/>
<path d="M428.378 204.83V205.063L427.794 219.65L427.678 220.817V221.634" stroke="#1E1E3E" stroke-width="1.16693" stroke-miterlimit="10" stroke-linecap="round"/>
<path d="M457.901 219.649L457.201 205.062" stroke="#1E1E3E" stroke-width="1.16693" stroke-miterlimit="10" stroke-linecap="round"/>
<path d="M415.309 173.088C412.391 173.905 410.291 177.172 410.291 181.023C410.291 185.341 412.975 188.841 416.359 189.075" stroke="#1E1E3E" stroke-width="1.16693" stroke-miterlimit="10" stroke-linecap="round"/>
<path d="M470.386 173.088C473.303 173.905 475.404 177.172 475.404 181.023C475.404 185.341 472.72 188.841 469.336 189.075" stroke="#1E1E3E" stroke-width="1.16693" stroke-miterlimit="10" stroke-linecap="round"/>
<path d="M470.388 173.088V160.135C470.388 144.965 458.018 132.596 442.848 132.596C427.678 132.596 415.309 144.965 415.309 160.135V173.088V176.239V181.607C415.309 184.174 415.659 186.741 416.359 189.075C417.642 193.626 420.093 197.71 423.36 200.978C424.877 202.495 426.628 203.895 428.378 204.945C432.579 207.513 437.48 209.03 442.731 209.03C447.983 209.03 453 207.513 457.201 204.945C463.036 201.328 467.354 195.727 469.221 188.958C469.921 186.625 470.271 184.057 470.271 181.49V176.122V173.088H470.388Z" stroke="#1E1E3E" stroke-width="1.16693" stroke-miterlimit="10" stroke-linecap="round"/>
<path d="M447.865 186.742C447.865 186.742 445.764 190.243 441.563 188.959C440.863 188.726 440.396 188.026 440.396 187.209L442.847 171.922" stroke="#1E1E3E" stroke-width="1.16693" stroke-miterlimit="10" stroke-linecap="round"/>
<path d="M428.145 171.104C428.145 171.104 431.529 168.537 434.796 171.104" stroke="#1E1E3E" stroke-width="1.16693" stroke-miterlimit="10" stroke-linecap="round"/>
<path d="M450.898 171.104C450.898 171.104 454.166 168.537 457.55 171.104" stroke="#1E1E3E" stroke-width="1.16693" stroke-miterlimit="10" stroke-linecap="round"/>
<path d="M470.387 176.238C470.154 176.004 469.454 175.304 468.287 174.021C465.953 171.103 462.219 165.385 461.052 157.333C460.818 155.933 459.535 155 458.134 155.233C454.634 155.933 448.332 157.1 442.731 157.1C437.13 157.1 430.828 155.933 427.328 155.233C425.927 155 424.644 155.933 424.41 157.333C423.243 165.502 419.509 171.22 417.175 174.137C416.008 175.538 415.191 176.354 415.191 176.354" stroke="#1E1E3E" stroke-width="1.16693" stroke-miterlimit="10" stroke-linecap="round"/>
<path d="M438.414 197.127C438.414 197.127 442.732 200.978 448.8 197.127" stroke="#1E1E3E" stroke-width="1.16693" stroke-miterlimit="10"/>
<path d="M457.902 219.648C457.902 219.999 457.902 220.465 457.902 220.815C457.318 228.4 450.783 234.352 442.848 234.352C435.263 234.352 428.962 228.984 427.795 221.982" stroke="#1E1E3E" stroke-width="1.16693" stroke-miterlimit="10"/>
<path d="M457.201 220.699C457.434 220.699 457.668 220.816 457.784 220.816C487.891 226.3 511.697 249.989 517.181 280.096H371.898C377.15 251.389 398.854 228.518 426.977 221.633L427.678 221.516" stroke="#1E1E3E" stroke-width="1.16693" stroke-miterlimit="10"/>
<path d="M246.922 302.966H167.688L157.186 250.571L165.237 241.469L172.939 244.969L176.79 228.982C212.615 237.618 240.271 266.558 246.922 302.966Z" fill="#1D1D3C"/>
<path d="M187.644 167.953C191.262 169.003 193.946 173.088 193.946 177.872C193.946 183.24 190.562 187.674 186.244 188.141C187.178 185.107 187.528 181.956 187.528 178.689V171.921V167.953H187.644Z" fill="#56B5BB"/>
<path d="M134.781 208.212C132.447 206.812 130.347 205.062 128.363 203.195C124.279 199.11 121.128 193.859 119.495 188.141C118.561 185.107 118.211 181.956 118.211 178.689V171.921V167.953V161.185H119.611C119.611 161.185 123.812 186.741 131.164 194.676C132.331 195.96 134.431 195.96 135.715 194.909L137.582 193.276C138.165 192.809 138.982 192.459 139.799 192.459C144.7 190.942 149.718 190.125 154.736 190.125C159.17 190.125 163.721 190.708 168.039 191.992L169.789 192.459C170.723 192.459 171.54 192.809 172.123 193.392C172.823 194.092 173.64 194.326 174.457 194.326C175.741 194.326 176.907 193.626 177.491 192.342C179.708 187.324 185.893 177.522 186.126 161.068H187.527V167.837V171.687V178.456C187.527 181.723 187.06 184.874 186.243 187.908C183.909 196.31 178.308 203.545 170.956 207.979C165.705 211.246 159.404 213.113 152.752 213.113C146.217 213.347 140.033 211.48 134.781 208.212Z" fill="#116B6B"/>
<path d="M187.644 151.616V161.185H186.243C186.01 177.639 179.825 187.441 177.608 192.459C177.025 193.742 175.741 194.443 174.574 194.443C173.757 194.443 172.94 194.093 172.24 193.509C171.657 192.926 170.723 192.576 169.906 192.576L168.156 192.109C163.838 190.942 159.287 190.242 154.853 190.242C149.835 190.242 144.817 191.059 139.916 192.576C139.099 192.576 138.283 192.809 137.699 193.392L135.832 195.026C134.548 196.193 132.448 196.076 131.281 194.793C123.929 186.858 119.728 161.302 119.728 161.302H118.328V151.616C118.328 132.479 133.848 116.842 153.103 116.842C172.124 116.842 187.644 132.362 187.644 151.616ZM169.323 168.07C169.323 167.02 168.389 166.086 167.339 166.086C166.289 166.086 165.355 167.02 165.355 168.07C165.355 169.12 166.289 170.054 167.339 170.054C168.389 170.054 169.323 169.12 169.323 168.07ZM140.616 168.07C140.616 167.02 139.683 166.086 138.633 166.086C137.582 166.086 136.649 167.02 136.649 168.07C136.649 169.12 137.582 170.054 138.633 170.054C139.8 170.054 140.616 169.12 140.616 168.07Z" fill="#56B5BB"/>
<path d="M172.007 228.05C173.641 228.4 175.391 228.75 176.908 229.101L173.058 245.087L165.356 241.587L152.986 235.869L171.19 227.934C171.424 227.934 171.657 228.05 172.007 228.05Z" fill="#242752"/>
<path d="M171.189 208.213L172.006 228.051C171.773 228.051 171.423 227.934 171.189 227.934L152.985 235.869L133.848 229.101V228.167L133.964 226.65L134.781 208.33C140.032 211.597 146.217 213.464 152.985 213.464C159.637 213.347 165.822 211.48 171.189 208.213Z" fill="#56B5BB"/>
<path d="M157.186 250.572L167.688 302.967H140.615L151.234 249.988L154.735 253.489L157.186 250.572Z" fill="#EB5F60"/>
<path d="M167.339 166.086C168.389 166.086 169.323 167.019 169.323 168.07C169.323 169.12 168.389 170.053 167.339 170.053C166.289 170.053 165.355 169.12 165.355 168.07C165.355 166.903 166.172 166.086 167.339 166.086Z" fill="#020203"/>
<path d="M157.185 250.572L154.735 253.49L151.234 249.989L142.832 241.587L152.984 235.869L165.354 241.587L157.185 250.572Z" fill="#EB5F60"/>
<path d="M152.987 235.868L142.834 241.586L133.849 246.604L129.064 230.384C130.348 230.034 131.632 229.684 132.915 229.333L133.849 229.217L152.987 235.868Z" fill="#242752"/>
<path d="M151.235 249.989L140.616 302.967H63.3652C69.7833 268.076 95.4558 240.07 128.947 230.268L133.731 246.488L142.716 241.47L151.235 249.989Z" fill="#1D1D3C"/>
<path d="M138.634 166.086C139.684 166.086 140.618 167.019 140.618 168.07C140.618 169.12 139.684 170.053 138.634 170.053C137.584 170.053 136.65 169.12 136.65 168.07C136.65 166.903 137.584 166.086 138.634 166.086Z" fill="#020203"/>
<path d="M118.211 178.572C118.211 181.839 118.678 184.99 119.495 188.024C115.177 187.674 111.793 183.239 111.793 177.755C111.793 172.97 114.477 168.886 118.094 167.836V171.803V178.572H118.211Z" fill="#56B5BB"/>
<path d="M134.781 207.979V208.212L133.964 226.649L133.848 228.166V229.1" stroke="#1E1E3E" stroke-width="1.16693" stroke-miterlimit="10" stroke-linecap="round"/>
<path d="M172.006 228.049L171.189 208.211" stroke="#1E1E3E" stroke-width="1.16693" stroke-miterlimit="10" stroke-linecap="round"/>
<path d="M118.21 167.953C114.592 169.003 111.908 173.088 111.908 177.872C111.908 183.24 115.292 187.674 119.61 188.141" stroke="#1E1E3E" stroke-width="1.16693" stroke-miterlimit="10" stroke-linecap="round"/>
<path d="M187.644 167.953C191.262 169.003 193.946 173.088 193.946 177.872C193.946 183.24 190.562 187.674 186.244 188.141" stroke="#1E1E3E" stroke-width="1.16693" stroke-miterlimit="10" stroke-linecap="round"/>
<path d="M187.645 161.185V151.499C187.645 132.361 172.125 116.725 152.87 116.725C133.616 116.725 118.096 132.245 118.096 151.499V161.185V167.953V171.92V178.689C118.096 181.956 118.562 185.107 119.379 188.141C121.013 193.859 124.047 199.11 128.248 203.194C130.232 205.178 132.332 206.812 134.666 208.212C139.917 211.479 146.102 213.346 152.87 213.346C159.522 213.346 165.823 211.479 171.074 208.212C178.426 203.778 183.911 196.543 186.361 188.141C187.295 185.107 187.645 181.956 187.645 178.689V171.92V168.07V161.185V161.185Z" stroke="#1E1E3E" stroke-width="1.16693" stroke-miterlimit="10" stroke-linecap="round"/>
<path d="M159.403 182.073C159.403 182.073 156.836 186.508 151.468 184.874C150.535 184.64 149.951 183.707 149.951 182.657L153.102 163.402" stroke="#1E1E3E" stroke-width="1.16693" stroke-miterlimit="10" stroke-linecap="round"/>
<path d="M134.432 162.351C134.432 162.351 138.633 159.201 142.834 162.351" stroke="#1E1E3E" stroke-width="1.16693" stroke-miterlimit="10" stroke-linecap="round"/>
<path d="M163.139 162.351C163.139 162.351 167.34 159.201 171.541 162.351" stroke="#1E1E3E" stroke-width="1.16693" stroke-miterlimit="10" stroke-linecap="round"/>
<path d="M147.385 198.178C147.385 198.178 152.869 202.962 160.454 198.178" stroke="#1E1E3E" stroke-width="1.16693" stroke-miterlimit="10"/>
<path d="M152.985 235.869L171.19 227.934C171.423 227.934 171.773 228.05 172.006 228.05C173.64 228.4 175.39 228.75 176.907 229.101C212.616 237.619 240.272 266.559 246.923 302.967H167.689H140.616H63.3652C69.7833 268.076 95.4558 240.07 128.947 230.267C130.23 229.917 131.514 229.567 132.798 229.217L133.731 229.101L152.985 235.869Z" stroke="#1E1E3E" stroke-width="1.16693" stroke-miterlimit="10"/>
<path d="M118.211 161.185H119.611C119.611 161.185 123.812 186.741 131.164 194.676C132.331 195.96 134.431 195.96 135.715 194.909L137.582 193.276C138.165 192.809 138.982 192.459 139.799 192.459C144.7 190.942 149.718 190.125 154.736 190.125C159.17 190.125 163.721 190.708 168.039 191.992L169.789 192.459C170.723 192.459 171.54 192.809 172.123 193.392C172.823 194.092 173.64 194.326 174.457 194.326C175.741 194.326 176.907 193.626 177.491 192.342C179.708 187.324 185.893 177.522 186.126 161.068H187.527" stroke="#1E1E3E" stroke-width="1.16693" stroke-miterlimit="10" stroke-linecap="round"/>
<path d="M128.945 230.267L133.846 246.487L142.832 241.586L152.984 235.868L165.354 241.586L173.055 245.087L176.906 229.1" stroke="#1E1E3E" stroke-width="1.16693" stroke-miterlimit="10" stroke-linecap="round"/>
<path d="M142.832 241.586L151.234 249.988L154.735 253.489L157.185 250.571L165.354 241.586" stroke="#1E1E3E" stroke-width="1.16693" stroke-miterlimit="10" stroke-linecap="round"/>
<path d="M151.234 249.986L140.615 302.965" stroke="#1E1E3E" stroke-width="1.16693" stroke-miterlimit="10"/>
<path d="M157.07 249.986L157.187 250.57L167.689 302.965" stroke="#1E1E3E" stroke-width="1.16693" stroke-miterlimit="10"/>
<path d="M457.317 302.967H267.225C273.759 267.376 299.665 238.669 333.623 228.167C333.623 228.167 337.007 236.102 335.373 245.904C332.339 263.642 359.996 243.104 359.996 243.104C360.229 243.104 360.462 243.104 360.696 243.104C360.696 243.104 388.352 263.642 385.318 245.904C383.684 236.102 386.952 227 386.952 227C422.893 236.335 450.666 265.975 457.317 302.967ZM363.496 253.023C363.496 251.155 361.979 249.522 359.996 249.522C358.128 249.522 356.495 251.039 356.495 253.023C356.495 254.89 358.012 256.523 359.996 256.523C361.979 256.523 363.496 254.89 363.496 253.023Z" fill="#EB5F60"/>
<path d="M397.336 183.124C396.519 183.591 395.586 183.824 394.652 183.941C395.586 180.79 396.053 177.523 396.053 174.139V167.02V164.686V163.053C399.787 164.103 402.587 168.304 402.587 173.322C402.587 177.756 400.487 181.607 397.336 183.124Z" fill="#56B5BB"/>
<path d="M341.208 204.828C338.757 203.311 336.54 201.56 334.557 199.576C330.239 195.259 327.088 189.891 325.338 183.94C324.404 180.789 323.938 177.522 323.938 174.137V167.136V163.052V153.833C329.072 141.347 342.725 132.361 358.829 132.361C379.25 132.361 395.937 146.831 395.937 164.685V167.019V174.137C395.937 177.522 395.47 180.789 394.537 183.94C392.086 192.692 386.368 200.16 378.783 204.828C373.299 208.212 366.881 210.196 359.996 210.196C353.111 210.079 346.693 208.212 341.208 204.828ZM376.916 166.202C376.916 165.035 375.983 164.102 374.816 164.102C373.649 164.102 372.715 165.035 372.715 166.202C372.715 167.369 373.649 168.303 374.816 168.303C375.983 168.303 376.916 167.369 376.916 166.202ZM347.276 166.202C347.276 165.035 346.343 164.102 345.176 164.102C344.009 164.102 343.075 165.035 343.075 166.202C343.075 167.369 344.009 168.303 345.176 168.303C346.343 168.303 347.276 167.369 347.276 166.202Z" fill="#56B5BB"/>
<path d="M396.052 163.052V164.686C396.052 146.832 379.482 132.362 358.944 132.362C342.84 132.362 329.071 141.347 324.053 153.834V146.015C324.053 133.879 330.004 123.143 339.223 116.609C345.057 112.408 352.292 109.957 359.994 109.957C369.33 109.957 377.731 113.458 384.15 119.292C391.385 125.827 395.936 135.396 395.936 146.015V163.052H396.052Z" fill="#242752"/>
<path d="M385.2 245.787C388.234 263.524 360.578 242.986 360.578 242.986C370.73 242.636 378.782 235.051 379.599 225.365C382.05 225.832 384.5 226.299 386.834 226.999C386.951 226.882 383.567 235.984 385.2 245.787Z" fill="white"/>
<path d="M386.952 108.206C386.952 112.29 386.018 116.025 384.268 119.409C377.85 113.574 369.448 110.073 360.113 110.073C352.294 110.073 345.176 112.524 339.341 116.725C338.408 114.041 337.824 111.24 337.824 108.206C337.824 94.6698 348.793 83.584 362.446 83.584C375.866 83.584 386.952 94.5531 386.952 108.206Z" fill="#242752"/>
<path d="M379.715 225.366C379.015 235.051 370.846 242.636 360.694 242.986C360.461 242.986 360.227 242.986 359.994 242.986C350.075 242.986 341.79 235.985 340.273 226.766L339.223 226.533L340.156 226.416V225.366L340.273 223.732L341.09 204.711C346.574 208.095 352.992 210.079 359.877 210.079C366.762 210.079 373.297 208.095 378.665 204.711L379.482 223.732C379.715 224.315 379.715 224.899 379.715 225.366Z" fill="#56B5BB"/>
<path d="M374.932 164.219C376.099 164.219 377.033 165.152 377.033 166.319C377.033 167.486 376.099 168.42 374.932 168.42C373.766 168.42 372.832 167.486 372.832 166.319C372.832 165.036 373.766 164.219 374.932 164.219Z" fill="#020203"/>
<path d="M359.995 249.521C361.862 249.521 363.496 251.038 363.496 253.022C363.496 254.889 361.979 256.523 359.995 256.523C358.128 256.523 356.494 255.006 356.494 253.022C356.611 251.155 358.128 249.521 359.995 249.521Z" fill="white"/>
<path d="M340.275 226.767C341.792 235.985 350.077 242.987 359.996 242.987C359.996 242.987 332.339 263.525 335.373 245.788C337.007 235.985 333.623 228.05 333.623 228.05C335.49 227.467 337.357 227 339.224 226.533L340.275 226.767Z" fill="white"/>
<path d="M345.175 164.219C346.342 164.219 347.275 165.152 347.275 166.319C347.275 167.486 346.342 168.42 345.175 168.42C344.008 168.42 343.074 167.486 343.074 166.319C343.191 165.036 344.124 164.219 345.175 164.219Z" fill="#020203"/>
<path d="M322.887 183.241C319.62 181.724 317.402 177.873 317.402 173.322C317.402 168.304 320.203 164.103 323.937 163.053V167.137V174.139C323.937 177.523 324.404 180.79 325.337 183.941C324.521 183.824 323.704 183.591 322.887 183.241Z" fill="#56B5BB"/>
<path d="M341.208 204.479V204.829L340.275 223.85V225.483L340.158 226.417" stroke="#1E1E3E" stroke-width="1.16693" stroke-miterlimit="10" stroke-linecap="round"/>
<path d="M379.715 223.849L378.898 204.828" stroke="#1E1E3E" stroke-width="1.16693" stroke-miterlimit="10" stroke-linecap="round"/>
<path d="M324.052 163.053C320.318 164.103 317.518 168.304 317.518 173.322C317.518 177.873 319.851 181.724 323.002 183.241C323.819 183.591 324.636 183.824 325.453 183.941" stroke="#1E1E3E" stroke-width="1.16693" stroke-miterlimit="10" stroke-linecap="round"/>
<path d="M396.053 163.053C399.787 164.103 402.587 168.304 402.587 173.322C402.587 177.756 400.37 181.49 397.336 183.124C396.519 183.591 395.586 183.824 394.652 183.941" stroke="#1E1E3E" stroke-width="1.16693" stroke-miterlimit="10" stroke-linecap="round"/>
<path d="M384.15 119.41C377.731 113.575 369.33 110.074 359.994 110.074C352.176 110.074 345.057 112.525 339.223 116.726C330.004 123.261 324.053 133.996 324.053 146.132V153.951V163.17V167.254V174.255C324.053 177.639 324.519 180.907 325.453 184.058C327.087 190.009 330.354 195.377 334.672 199.694C336.656 201.678 338.873 203.429 341.323 204.946C346.808 208.33 353.226 210.313 360.111 210.313C366.996 210.313 373.531 208.33 378.898 204.946C386.483 200.278 392.201 192.926 394.652 184.058C395.586 180.907 396.052 177.639 396.052 174.255V167.02V164.687V163.053V146.016C396.052 135.513 391.501 125.944 384.15 119.41Z" stroke="#1E1E3E" stroke-width="1.16693" stroke-miterlimit="10" stroke-linecap="round"/>
<path d="M366.646 180.789C366.646 180.789 363.962 185.34 358.477 183.706C357.543 183.356 356.843 182.423 356.96 181.372L360.227 161.418" stroke="#1E1E3E" stroke-width="1.16693" stroke-miterlimit="10" stroke-linecap="round"/>
<path d="M340.742 160.368C340.742 160.368 345.06 157.101 349.377 160.368" stroke="#1E1E3E" stroke-width="1.16693" stroke-miterlimit="10" stroke-linecap="round"/>
<path d="M370.615 160.368C370.615 160.368 374.933 157.101 379.251 160.368" stroke="#1E1E3E" stroke-width="1.16693" stroke-miterlimit="10" stroke-linecap="round"/>
<path d="M354.16 194.326C354.16 194.326 359.878 199.344 367.697 194.326" stroke="#1E1E3E" stroke-width="1.16693" stroke-miterlimit="10"/>
<path d="M379.717 223.85C379.717 224.316 379.717 224.9 379.6 225.367C378.9 235.052 370.732 242.637 360.579 242.987C360.346 242.987 360.113 242.987 359.879 242.987C349.96 242.987 341.675 235.986 340.158 226.767" stroke="#1E1E3E" stroke-width="1.16693" stroke-miterlimit="10"/>
<path d="M378.783 225.133C379.016 225.133 379.367 225.25 379.6 225.25C382.05 225.716 384.501 226.183 386.835 226.883C422.776 236.335 450.549 265.975 457.317 302.85H267.225C273.759 267.259 299.665 238.553 333.623 228.05C335.49 227.467 337.357 227 339.224 226.533L340.158 226.416" stroke="#1E1E3E" stroke-width="1.16693" stroke-miterlimit="10"/>
<path d="M324.053 153.833C329.187 141.347 342.84 132.361 358.944 132.361C379.365 132.361 396.052 146.831 396.052 164.685" stroke="#1E1E3E" stroke-width="1.16693" stroke-miterlimit="10" stroke-linecap="round"/>
<path d="M339.224 116.725C338.291 114.041 337.707 111.24 337.707 108.206C337.707 94.6698 348.676 83.584 362.329 83.584C375.866 83.584 386.951 94.5531 386.951 108.206C386.951 112.29 386.018 116.025 384.268 119.409" stroke="#1E1E3E" stroke-width="1.16693" stroke-miterlimit="10" stroke-linecap="round"/>
<path d="M397.338 179.973V183.123V193.859" stroke="white" stroke-width="1.16693" stroke-miterlimit="10" stroke-linecap="round"/>
<path d="M322.887 179.973V183.24V193.859" stroke="white" stroke-width="1.16693" stroke-miterlimit="10" stroke-linecap="round"/>
<path d="M320.086 191.059L325.454 197.01" stroke="white" stroke-width="1.16693" stroke-miterlimit="10" stroke-linecap="round"/>
<path d="M394.652 191.643L400.02 197.127" stroke="white" stroke-width="1.16693" stroke-miterlimit="10" stroke-linecap="round"/>
<path d="M359.88 242.986C359.88 242.986 332.224 263.523 335.258 245.786C336.892 235.984 333.508 228.049 333.508 228.049" stroke="#1E1E3E" stroke-width="1.16693" stroke-miterlimit="10" stroke-linecap="round"/>
<path d="M360.695 242.986C360.695 242.986 388.352 263.524 385.318 245.787C383.684 235.985 386.951 226.883 386.951 226.883" stroke="#1E1E3E" stroke-width="1.16693" stroke-miterlimit="10" stroke-linecap="round"/>
<path d="M356.611 253.022C356.611 251.155 358.128 249.521 360.112 249.521C361.979 249.521 363.613 251.038 363.613 253.022C363.613 254.889 362.096 256.523 360.112 256.523C358.128 256.523 356.611 254.889 356.611 253.022Z" stroke="#1E1E3E" stroke-width="1.16693" stroke-miterlimit="10" stroke-linecap="round"/>
<path d="M385.903 350.809H133.146C142.249 300.981 180.057 261.189 228.835 249.286L230.235 249.519C232.219 261.772 243.188 271.108 256.374 271.108C270.261 271.108 281.58 260.839 282.63 247.652C335.025 257.104 376.335 298.414 385.903 350.809Z" fill="#2D72B0"/>
<path d="M304.334 170.169V164.801C309.352 166.318 313.086 171.919 313.086 178.571C313.086 186.039 308.418 192.107 302.467 192.69C303.75 188.489 304.334 184.172 304.334 179.621V170.169Z" fill="#73C7D1"/>
<path d="M278.896 97.1194C280.646 95.8358 282.747 95.1356 284.964 95.1356C290.215 95.1356 294.649 98.9865 295.349 104.121H295.466C295.933 104.121 296.283 104.121 296.75 104.238C303.285 104.938 307.019 112.173 304.451 118.241L304.101 119.058C307.836 120.691 310.519 124.426 310.519 128.743C310.519 131.077 309.703 133.178 308.536 134.928C309.819 136.678 310.519 138.779 310.519 141.113C310.519 145.314 307.952 149.048 304.335 150.681V164.918V170.286C304.101 170.053 302.701 168.769 300.834 166.435C296.75 161.301 290.332 151.498 288.348 137.378C287.998 134.928 285.664 133.294 283.33 133.761C277.262 135.045 266.293 137.028 256.491 137.028C246.805 137.028 235.836 135.045 229.768 133.761C227.317 133.294 225.1 134.928 224.75 137.378C222.766 151.615 216.232 161.417 212.147 166.552C210.047 169.119 208.647 170.403 208.647 170.403V165.035V152.082C204.212 150.915 200.828 146.831 200.828 141.93C200.828 139.362 201.762 137.028 203.162 135.278C201.762 133.528 200.828 131.194 200.828 128.627C200.828 125.242 202.462 122.208 205.029 120.225C203.979 118.591 203.279 116.607 203.279 114.507C203.279 108.672 207.946 104.004 213.781 104.004H216.698C218.332 100.504 221.95 98.053 226.15 98.053C227.784 98.053 229.418 98.403 230.702 99.1032C231.402 95.369 233.969 92.2183 237.82 91.0514C238.87 90.7013 239.92 90.5846 241.087 90.5846L243.654 90.2345C246.455 87.3172 251.356 85.8002 256.374 86.9671C258.474 87.4339 260.458 88.3674 262.092 89.4177L262.559 90.1178C264.309 88.8342 266.293 88.2507 268.627 88.2507C273.761 88.2507 278.196 92.1016 278.896 97.1194Z" fill="#242752"/>
<path d="M256.023 167.252H261.741C261.741 175.42 268.393 182.072 276.561 182.072C284.73 182.072 291.381 175.42 291.381 167.252L300.833 166.318C302.7 168.652 303.984 169.936 304.334 170.169V179.621C304.334 184.172 303.751 188.49 302.467 192.691C299.2 204.36 291.615 214.162 281.462 220.347C274.227 224.782 265.592 227.465 256.373 227.465C247.155 227.465 238.636 224.898 231.284 220.464C228.134 218.48 225.1 216.146 222.532 213.462C216.814 207.744 212.614 200.626 210.396 192.691C209.229 188.49 208.529 184.172 208.529 179.621V170.286C208.529 170.286 209.93 169.002 212.03 166.435L221.716 167.252C221.716 175.42 228.367 182.072 236.536 182.072C244.704 182.072 251.356 175.42 251.356 167.252H256.023Z" fill="#73C7D1"/>
<path d="M256.023 167.252H251.472C251.472 159.083 244.821 152.432 236.652 152.432C228.483 152.432 221.832 159.083 221.832 167.252L212.146 166.435C216.231 161.417 222.649 151.498 224.749 137.262C225.099 134.811 227.317 133.177 229.767 133.644C235.835 134.928 246.804 136.912 256.49 136.912C266.175 136.912 277.261 134.928 283.329 133.644C285.78 133.177 287.997 134.811 288.347 137.262C290.331 151.381 296.749 161.3 300.833 166.318L291.381 167.252C291.381 159.083 284.73 152.432 276.561 152.432C268.392 152.432 261.741 159.083 261.741 167.252H256.023Z" fill="#73C7D1"/>
<path d="M261.74 167.252C261.74 159.083 268.392 152.432 276.56 152.432C284.729 152.432 291.38 159.083 291.38 167.252C291.38 175.42 284.729 182.072 276.56 182.072C268.392 182.072 261.74 175.42 261.74 167.252ZM279.011 169.002C279.011 167.485 277.844 166.318 276.327 166.318C274.81 166.318 273.643 167.485 273.643 169.002C273.643 170.519 274.81 171.686 276.327 171.686C277.844 171.686 279.011 170.519 279.011 169.002Z" fill="#73C7D1"/>
<path d="M282.631 247.654C281.581 260.841 270.379 271.11 256.375 271.11C243.189 271.11 232.22 261.774 230.236 249.521L228.836 249.288L230.12 249.171V247.888L230.236 245.787L231.403 220.582C238.638 225.016 247.273 227.583 256.492 227.583C265.711 227.583 274.229 225.016 281.581 220.465L282.748 245.787C282.748 246.254 282.631 246.954 282.631 247.654Z" fill="#73C7D1"/>
<path d="M276.33 166.318C277.847 166.318 279.014 167.485 279.014 169.002C279.014 170.519 277.847 171.686 276.33 171.686C274.813 171.686 273.646 170.403 273.646 169.002C273.529 167.485 274.813 166.318 276.33 166.318Z" fill="#020203"/>
<path d="M236.654 152.432C244.822 152.432 251.474 159.083 251.474 167.252C251.474 175.42 244.822 182.072 236.654 182.072C228.485 182.072 221.834 175.42 221.834 167.252C221.834 159.083 228.485 152.432 236.654 152.432ZM239.571 169.002C239.571 167.485 238.404 166.318 236.887 166.318C235.37 166.318 234.203 167.485 234.203 169.002C234.203 170.519 235.37 171.686 236.887 171.686C238.404 171.686 239.571 170.519 239.571 169.002Z" fill="#73C7D1"/>
<path d="M236.887 166.318C238.404 166.318 239.571 167.485 239.571 169.002C239.571 170.519 238.404 171.686 236.887 171.686C235.37 171.686 234.203 170.403 234.203 169.002C234.086 167.485 235.37 166.318 236.887 166.318Z" fill="#020203"/>
<path d="M208.647 179.506C208.647 184.057 209.23 188.374 210.514 192.575C204.562 191.992 199.895 185.924 199.895 178.455C199.895 171.804 203.629 166.203 208.647 164.686V170.053V179.506Z" fill="#73C7D1"/>
<path d="M231.517 219.881V220.348L230.351 245.553L230.234 247.77L230.117 249.054" stroke="#1E1E3E" stroke-width="1.16693" stroke-miterlimit="10" stroke-linecap="round"/>
<path d="M282.747 245.67L281.58 220.348" stroke="#1E1E3E" stroke-width="1.16693" stroke-miterlimit="10" stroke-linecap="round"/>
<path d="M208.647 164.801C203.629 166.318 199.895 171.919 199.895 178.571C199.895 186.039 204.562 192.107 210.514 192.69" stroke="#1E1E3E" stroke-width="1.16693" stroke-miterlimit="10" stroke-linecap="round"/>
<path d="M304.334 164.801C309.352 166.318 313.086 171.919 313.086 178.571C313.086 186.039 308.418 192.107 302.467 192.69" stroke="#1E1E3E" stroke-width="1.16693" stroke-miterlimit="10" stroke-linecap="round"/>
<path d="M208.646 152.081V164.801V170.169V179.504C208.646 184.055 209.23 188.373 210.514 192.574C212.731 200.509 217.048 207.627 222.65 213.345C225.334 216.029 228.251 218.363 231.402 220.347C238.637 224.781 247.272 227.348 256.491 227.348C265.709 227.348 274.228 224.781 281.58 220.23C291.615 214.045 299.317 204.127 302.584 192.574C303.868 188.373 304.451 184.055 304.451 179.504V170.052V164.684V150.564" stroke="#1E1E3E" stroke-width="1.16693" stroke-miterlimit="10" stroke-linecap="round"/>
<path d="M265.359 188.373C265.359 188.373 261.742 194.441 254.507 192.224C253.223 191.874 252.406 190.474 252.406 189.19L255.907 167.252L256.607 162.584" stroke="#1E1E3E" stroke-width="1.16693" stroke-miterlimit="10" stroke-linecap="round"/>
<path d="M230.936 161.185C230.936 161.185 236.654 156.867 242.488 161.185" stroke="#1E1E3E" stroke-width="1.16693" stroke-miterlimit="10" stroke-linecap="round"/>
<path d="M270.494 161.185C270.494 161.185 276.212 156.867 282.047 161.185" stroke="#1E1E3E" stroke-width="1.16693" stroke-miterlimit="10" stroke-linecap="round"/>
<path d="M203.279 135.277C201.879 137.028 200.945 139.362 200.945 141.929C200.945 146.713 204.213 150.798 208.764 152.081" stroke="#1E1E3E" stroke-width="1.16693" stroke-miterlimit="10" stroke-linecap="round"/>
<path d="M203.279 135.278C201.879 133.528 200.945 131.194 200.945 128.627C200.945 125.242 202.579 122.208 205.146 120.225" stroke="#1E1E3E" stroke-width="1.16693" stroke-miterlimit="10" stroke-linecap="round"/>
<path d="M205.03 120.341C203.979 118.708 203.279 116.724 203.279 114.623C203.279 108.789 207.947 104.121 213.782 104.121H216.699" stroke="#1E1E3E" stroke-width="1.16693" stroke-miterlimit="10" stroke-linecap="round"/>
<path d="M216.697 104.121C218.331 100.62 221.948 98.1699 226.149 98.1699C227.783 98.1699 229.417 98.52 230.7 99.2202C230.817 99.2202 230.934 99.3369 230.934 99.3369" stroke="#1E1E3E" stroke-width="1.16693" stroke-miterlimit="10" stroke-linecap="round"/>
<path d="M230.701 99.5693C230.701 99.4526 230.701 99.336 230.818 99.1026C231.518 95.3684 234.085 92.2177 237.936 91.0508C238.986 90.7007 240.037 90.584 241.204 90.584C241.787 90.584 242.37 90.584 243.071 90.7007" stroke="#1E1E3E" stroke-width="1.16693" stroke-miterlimit="10" stroke-linecap="round"/>
<path d="M243.654 90.2345C246.455 87.3172 251.356 85.8002 256.374 86.9671C258.474 87.4339 260.458 88.3674 262.092 89.4177" stroke="#1E1E3E" stroke-width="1.16693" stroke-miterlimit="10" stroke-linecap="round"/>
<path d="M278.545 97.3519C278.662 97.2352 278.778 97.1185 278.895 97.1185C280.645 95.8349 282.746 95.1348 284.963 95.1348C290.214 95.1348 294.649 98.9856 295.349 104.12" stroke="#1E1E3E" stroke-width="1.16693" stroke-miterlimit="10" stroke-linecap="round"/>
<path d="M262.094 90.5844C262.21 90.4677 262.444 90.351 262.561 90.2343C264.311 88.9507 266.295 88.3672 268.629 88.3672C273.88 88.3672 278.197 92.2181 279.014 97.1192C279.014 97.2359 279.014 97.2359 279.014 97.2359" stroke="#1E1E3E" stroke-width="1.16693" stroke-miterlimit="10" stroke-linecap="round"/>
<path d="M304.102 118.941C307.836 120.575 310.52 124.309 310.52 128.627C310.52 130.961 309.703 133.061 308.536 134.812" stroke="#1E1E3E" stroke-width="1.16693" stroke-miterlimit="10" stroke-linecap="round"/>
<path d="M308.535 134.811C309.819 136.561 310.519 138.661 310.519 140.995C310.519 145.196 307.951 148.93 304.334 150.564" stroke="#1E1E3E" stroke-width="1.16693" stroke-miterlimit="10" stroke-linecap="round"/>
<path d="M295.465 104.121C296.048 104.121 296.398 104.121 296.865 104.238C303.4 104.938 307.134 112.173 304.567 118.241L304.217 119.058" stroke="#1E1E3E" stroke-width="1.16693" stroke-miterlimit="10" stroke-linecap="round"/>
<path d="M300.834 166.318C296.75 161.184 290.332 151.381 288.348 137.262C287.998 134.811 285.664 133.177 283.33 133.644C277.262 134.928 266.293 136.912 256.491 136.912C246.805 136.912 235.836 134.928 229.768 133.644C227.317 133.177 225.1 134.811 224.75 137.262C222.766 151.498 216.232 161.3 212.147 166.435C210.047 169.002 208.646 170.286 208.646 170.286" stroke="#1E1E3E" stroke-width="1.16693" stroke-miterlimit="10" stroke-linecap="round"/>
<path d="M304.452 170.169C304.102 169.819 302.702 168.536 300.951 166.318" stroke="#1E1E3E" stroke-width="1.16693" stroke-miterlimit="10" stroke-linecap="round"/>
<path d="M248.789 206.344C248.789 206.344 256.374 212.995 266.876 206.344" stroke="#1E1E3E" stroke-width="1.16693" stroke-miterlimit="10"/>
<path d="M282.746 245.67C282.746 246.37 282.746 246.954 282.63 247.654C281.579 260.84 270.377 271.109 256.374 271.109C243.187 271.109 232.218 261.774 230.234 249.521" stroke="#1E1E3E" stroke-width="1.16693" stroke-miterlimit="10"/>
<path d="M281.463 247.42C281.813 247.42 282.163 247.537 282.513 247.653C334.909 257.105 376.218 298.415 385.787 350.81H133.146C142.249 300.982 180.057 261.19 228.835 249.287L230.118 249.17" stroke="#1E1E3E" stroke-width="1.16693" stroke-miterlimit="10"/>
<path d="M236.654 182.072C244.839 182.072 251.474 175.437 251.474 167.252C251.474 159.067 244.839 152.432 236.654 152.432C228.469 152.432 221.834 159.067 221.834 167.252C221.834 175.437 228.469 182.072 236.654 182.072Z" stroke="#1E1E3E" stroke-width="1.16693" stroke-miterlimit="10" stroke-linecap="round"/>
<path d="M276.56 182.072C284.745 182.072 291.38 175.437 291.38 167.252C291.38 159.067 284.745 152.432 276.56 152.432C268.375 152.432 261.74 159.067 261.74 167.252C261.74 175.437 268.375 182.072 276.56 182.072Z" stroke="#1E1E3E" stroke-width="1.16693" stroke-miterlimit="10" stroke-linecap="round"/>
<path d="M263.144 167.252H261.744H256.026H251.475" stroke="#1E1E3E" stroke-width="1.16693" stroke-miterlimit="10" stroke-linecap="round"/>
<path d="M300.833 166.318L291.381 167.252" stroke="#1E1E3E" stroke-width="1.16693" stroke-miterlimit="10" stroke-linecap="round"/>
<path d="M221.832 167.252L212.147 166.318H211.33" stroke="#1E1E3E" stroke-width="1.16693" stroke-miterlimit="10" stroke-linecap="round"/>
</g>
<defs>
<clipPath id="clip0_2384_18945">
<rect width="518" height="268.394" fill="white" transform="translate(0 83)"/>
</clipPath>
</defs>
</svg>
