<svg width="44" height="45" viewBox="0 0 44 45" fill="none" xmlns="http://www.w3.org/2000/svg">
<circle cx="22" cy="22" r="22" fill="#E2F5F6"/>
<path d="M11.2634 1.62395C12.2771 0.605915 13.6537 0.0322732 15.0903 0.0292165L28.8161 1.22789e-05C30.2528 -0.0030445 31.6318 0.564736 32.6498 1.57845L42.376 11.2634C43.3941 12.2771 43.9677 13.6537 43.9708 15.0903L44 28.8161C44.003 30.2528 43.4353 31.6318 42.4216 32.6498L32.7366 42.376C31.7229 43.3941 30.3463 43.9677 28.9097 43.9708L15.1839 44C13.7472 44.003 12.3682 43.4353 11.3502 42.4216L1.62395 32.7366C0.605915 31.7229 0.0322732 30.3463 0.0292165 28.9097L1.22789e-05 15.1839C-0.0030445 13.7472 0.564736 12.3682 1.57845 11.3502L11.2634 1.62395Z" fill="#D9E5F8"/>
<path d="M29.5949 14.9286V15.1801H24.2207C21.1092 15.1801 19.6635 16.6258 19.6635 19.7372V25.0905H18.8568V28.8096H19.6635V30.381H13.8283C13.3987 30.381 13.0426 30.0248 13.0426 29.5953C13.0426 29.1658 13.3987 28.8096 13.8283 28.8096H17.2854V25.0905H14.9283C11.6492 25.0905 10.7692 24.2839 10.7378 21.1096V14.9286C10.7378 11.5763 11.5759 10.7382 14.9283 10.7382H25.4045C28.7568 10.7382 29.5949 11.5763 29.5949 14.9286Z" fill="#3F7CDB"/>
<path d="M29.5949 16.8038C29.333 16.7724 29.0291 16.7515 28.7044 16.7515H24.2206C21.9787 16.7515 21.2349 17.4953 21.2349 19.7372V28.8096C21.2453 29.4591 21.3187 29.9724 21.4758 30.381C21.8425 31.3343 22.6701 31.6905 24.2206 31.6905H28.7044C30.9463 31.6905 31.6901 30.9467 31.6901 28.7048V19.7372C31.6901 17.82 31.1453 17.0029 29.5949 16.8038ZM26.4625 19.2134C27.3739 19.2134 28.1072 19.9467 28.1072 20.8581C28.1072 21.7696 27.3739 22.5029 26.4625 22.5029C25.5511 22.5029 24.8177 21.7696 24.8177 20.8581C24.8177 19.9467 25.5511 19.2134 26.4625 19.2134ZM26.4625 28.7048C25.2263 28.7048 24.2206 27.6991 24.2206 26.4629C24.2206 25.9496 24.3987 25.4677 24.692 25.0905C25.1006 24.5667 25.7396 24.221 26.4625 24.221C27.0282 24.221 27.5415 24.4305 27.9291 24.7658C28.4006 25.1848 28.7044 25.7924 28.7044 26.4629C28.7044 27.6991 27.6987 28.7048 26.4625 28.7048Z" fill="#3F7CDB"/>
<path d="M29.5949 16.8038C29.333 16.7724 29.0291 16.7515 28.7044 16.7515H24.2206C21.9787 16.7515 21.2349 17.4953 21.2349 19.7372V28.8096C21.2453 29.4591 21.3187 29.9724 21.4758 30.381C21.8425 31.3343 22.6701 31.6905 24.2206 31.6905H28.7044C30.9463 31.6905 31.6901 30.9467 31.6901 28.7048V19.7372C31.6901 17.82 31.1453 17.0029 29.5949 16.8038ZM26.4625 19.2134C27.3739 19.2134 28.1072 19.9467 28.1072 20.8581C28.1072 21.7696 27.3739 22.5029 26.4625 22.5029C25.5511 22.5029 24.8177 21.7696 24.8177 20.8581C24.8177 19.9467 25.5511 19.2134 26.4625 19.2134ZM26.4625 28.7048C25.2263 28.7048 24.2206 27.6991 24.2206 26.4629C24.2206 25.9496 24.3987 25.4677 24.692 25.0905C25.1006 24.5667 25.7396 24.221 26.4625 24.221C27.0282 24.221 27.5415 24.4305 27.9291 24.7658C28.4006 25.1848 28.7044 25.7924 28.7044 26.4629C28.7044 27.6991 27.6987 28.7048 26.4625 28.7048Z" fill="#3F7CDB"/>
<path fill-rule="evenodd" clip-rule="evenodd" d="M0.00506998 15.321C0.00153109 15.4028 -0.000162611 15.4848 1.22789e-05 15.567L0.0292165 29.2928C0.0322732 30.7294 0.605915 32.106 1.62395 33.1197L11.3502 42.8047C12.3682 43.8184 13.7472 44.3862 15.1839 44.3831L28.9097 44.3539C30.3463 44.3508 31.7229 43.7772 32.7366 42.7592L42.4216 33.0329C43.4353 32.0149 44.003 30.6359 44 29.1992L43.9949 26.8221C43.9366 28.1694 43.3773 29.4501 42.4216 30.4099L32.7366 40.1361C31.7229 41.1541 30.3463 41.7278 28.9097 41.7308L15.1839 41.76C13.7472 41.7631 12.3682 41.1953 11.3502 40.1816L1.62395 30.4967C0.605915 29.483 0.0322732 28.1064 0.0292165 26.6697L0.00506998 15.321Z" fill="#0B1C56"/>
</svg>
