<svg width="543" height="617" viewBox="0 0 543 617" fill="none" xmlns="http://www.w3.org/2000/svg">
<path d="M261.591 496.325C230.729 496.325 200.642 493.449 172.213 487.697C142.789 481.834 116.242 473.206 93.4547 462.034C70.889 450.972 53.0798 438.03 40.4696 423.539L40.0271 423.097C26.9744 407.721 20.2269 391.461 20.0056 374.536C19.7844 357.612 26.0895 341.13 38.8104 325.533C50.9781 310.49 68.6767 296.884 91.1317 285.159C113.587 273.433 139.913 264.031 169.116 257.394C199.425 250.425 231.725 246.775 264.91 246.332C298.205 245.89 330.505 248.766 361.035 254.85C390.459 260.712 417.007 269.451 439.794 280.513C462.359 291.574 480.279 304.516 492.779 319.118L493.221 319.56C506.274 334.825 513.021 351.086 513.243 368.01C513.464 384.934 507.159 401.416 494.438 417.013C482.159 432.057 464.572 445.662 442.116 457.498C419.661 469.224 393.445 478.626 364.132 485.263C333.823 492.232 301.634 495.882 268.228 496.325C266.126 496.325 263.914 496.325 261.591 496.325ZM188.031 490.351C213.805 494.444 240.795 496.435 268.339 495.993C297.873 495.55 326.523 492.564 353.734 487.143C326.744 492.564 297.984 495.55 268.339 495.993C240.685 496.435 213.584 494.444 188.031 490.351ZM265.131 246.664H265.02C199.204 247.549 137.59 261.376 91.353 285.49C45.2261 309.715 20.0056 341.352 20.4481 374.536C20.6693 391.571 27.5275 407.832 40.8014 423.207C53.3011 437.587 71.1102 450.53 93.6759 461.591C138.918 483.714 198.319 495.772 261.591 495.772C263.803 495.772 266.016 495.772 268.228 495.772C334.045 494.887 395.658 481.06 441.895 456.945C488.022 432.831 513.243 401.195 512.8 367.899C512.358 334.715 486.363 303.742 439.572 280.845C394.33 258.721 334.929 246.664 271.657 246.664C269.555 246.664 267.343 246.664 265.131 246.664ZM60.8229 442.012C70.2253 449.202 81.1763 455.729 93.5653 461.812C109.273 469.556 126.75 476.082 145.776 481.281C126.971 476.082 109.383 469.556 93.5653 461.812C81.2869 455.729 70.3359 449.092 60.8229 442.012ZM478.952 432.61C468.775 441.348 456.497 449.645 442.116 457.056C425.524 465.795 406.83 473.095 386.808 478.958C407.162 472.985 425.635 465.684 442.116 457.056C456.386 449.645 468.775 441.459 478.952 432.61ZM502.07 331.728C509.15 343.232 512.911 355.4 513.132 367.899C513.353 380.62 509.703 393.12 502.734 405.066C509.924 393.009 513.353 380.62 513.243 368.01C513.021 355.51 509.26 343.343 502.07 331.728ZM27.5275 343.232C22.5498 353.409 20.0056 363.917 20.2269 374.536C20.3375 380.62 21.2224 386.594 22.9923 392.567C21.2224 386.704 20.3375 380.62 20.2269 374.536C20.1162 363.917 22.5498 353.409 27.5275 343.232ZM271.657 246.443C269.445 246.443 267.232 246.443 265.02 246.443C231.835 246.885 199.535 250.646 169.227 257.505C139.913 264.142 113.697 273.544 91.2424 285.269C77.4154 292.57 65.3582 300.534 55.2921 309.052C65.2476 300.534 77.3047 292.57 91.2424 285.269C137.48 261.044 199.093 247.328 264.91 246.332H265.02C292.01 246.001 318.448 247.77 343.447 251.642C320.328 248.213 296.324 246.443 271.657 246.443ZM390.127 261.929C408.047 267.018 424.75 273.323 439.794 280.623C453.952 287.592 466.231 295.225 476.518 303.521C466.231 295.225 453.952 287.482 439.794 280.623C424.75 273.323 408.157 267.018 390.127 261.929Z" fill="#9FBEED"/>
<path d="M270.551 503.625C210.818 503.625 150.864 492.01 105.18 471.546C81.6188 461.038 63.0353 448.76 49.872 435.043C48.5446 433.605 47.3279 432.278 46.2217 431.061C34.7176 417.787 28.855 403.849 28.6338 389.58C28.4125 373.762 34.4964 356.174 46.1111 338.918C57.7258 321.772 74.65 304.959 95.0034 290.468C116.352 275.314 141.573 262.593 168.01 253.854C196.991 244.231 227.19 239.032 257.83 238.7C259.932 238.7 261.923 238.7 264.025 238.7C323.757 238.7 383.711 250.314 429.396 270.778C452.957 281.287 471.54 293.565 484.704 307.282C498.531 321.662 505.721 337.037 505.942 352.745C506.163 368.563 500.079 386.151 488.465 403.407C476.85 420.552 459.926 437.366 439.572 451.857C418.223 467.011 393.003 479.732 366.566 488.471C337.584 498.094 307.276 503.293 276.746 503.625C274.644 503.625 272.542 503.625 270.551 503.625ZM46.3323 430.95C47.4385 432.167 48.6553 433.495 49.9827 434.933C63.146 448.649 81.7295 460.817 105.291 471.436C150.975 491.9 210.818 503.404 270.551 503.404C272.653 503.404 274.644 503.404 276.746 503.404C295.993 503.183 315.019 501.081 333.713 497.099C315.129 500.97 295.993 503.072 276.746 503.404C274.754 503.404 272.653 503.404 270.662 503.404C210.929 503.404 150.975 491.789 105.401 471.436C81.8401 460.927 63.2566 448.649 50.2039 435.043C36.3769 420.663 29.2975 405.509 29.0762 389.801C28.9656 384.934 29.5187 379.956 30.6248 374.868C29.5187 379.956 28.9656 384.934 29.0762 389.801C28.9656 403.849 34.8283 417.787 46.3323 430.95ZM264.025 239.032C261.923 239.032 259.932 239.032 257.83 239.032C198.872 239.806 141.13 258.168 95.2246 290.8C53.3011 320.556 28.5231 357.501 28.9656 389.58C29.1868 405.177 36.2663 420.331 50.0933 434.711C63.2566 448.317 81.7295 460.595 105.291 471.104C152.524 492.232 214.911 503.846 276.635 503.072C335.593 502.298 393.335 483.935 439.24 451.304C481.164 421.548 505.942 384.602 505.499 352.524C505.278 338.365 499.416 324.538 488.022 311.374C486.805 310.047 485.589 308.72 484.372 307.392C471.209 293.787 452.625 281.508 429.174 271C383.601 250.646 323.757 239.032 264.025 239.032ZM459.151 435.818C453.067 441.238 446.431 446.437 439.351 451.525C433.82 455.507 428.068 459.157 422.206 462.697C428.179 459.157 433.82 455.397 439.351 451.525C446.431 446.547 453.067 441.348 459.151 435.818ZM488.243 311.264C499.637 324.427 505.61 338.365 505.721 352.524C505.831 357.612 505.278 362.7 504.061 368.01C505.278 362.7 505.831 357.612 505.721 352.524C505.5 336.816 498.42 321.662 484.593 307.282C471.43 293.565 452.846 281.397 429.285 270.778C382.052 249.651 319.554 237.925 257.83 238.81C238.251 239.032 218.783 241.244 199.646 245.337C218.672 241.244 238.141 239.032 257.83 238.81C319.554 238.036 382.052 249.651 429.285 270.778C452.846 281.287 471.43 293.565 484.482 307.282C485.81 308.609 487.027 309.936 488.243 311.264ZM112.481 279.406C106.507 282.946 100.645 286.707 95.114 290.689C87.039 296.441 79.4065 302.525 72.5483 308.941C79.4065 302.636 86.9284 296.552 95.114 290.8C100.755 286.707 106.618 282.946 112.481 279.406Z" fill="#9FBEED"/>
<path d="M279.953 510.926C251.967 510.926 223.76 508.382 196.106 503.515C167.456 498.426 140.024 490.683 116.684 481.17C92.4588 471.325 73.2116 459.821 59.4952 447.211C56.8405 444.777 54.4069 442.233 51.9733 439.468C42.2391 428.296 37.2614 416.57 37.1508 404.734C36.9296 389.801 42.571 371.66 53.4114 352.302C64.3623 332.723 80.1804 313.144 98.8746 295.778C119.228 276.973 142.789 261.265 166.903 250.314C194.336 237.925 222.543 231.399 250.64 230.957C280.395 230.625 310.262 233.058 339.464 238.368C368.114 243.456 395.547 251.199 418.887 260.712C443.112 270.557 462.469 282.061 476.075 294.671C490.677 308.167 498.198 322.436 498.42 337.037C498.641 351.971 492.999 370.112 482.159 389.469C471.208 409.048 455.501 428.517 436.696 445.994C416.343 464.799 392.892 480.506 368.667 491.457C341.234 503.957 313.027 510.373 284.82 510.815C283.271 510.926 281.612 510.926 279.953 510.926ZM262.365 510.373C269.887 510.594 277.409 510.705 284.931 510.705C296.435 510.594 308.049 509.377 319.554 507.165C308.603 509.267 296.988 510.483 284.931 510.705C277.519 510.705 269.998 510.594 262.365 510.373ZM256.724 231.51C254.733 231.51 252.741 231.51 250.75 231.51C178.739 232.505 124.98 272.438 99.2064 296.109C80.4017 313.476 64.6942 332.945 53.7432 352.413C42.9028 371.66 37.372 389.691 37.4826 404.624C37.7039 419.114 45.1152 433.273 59.7165 446.658C73.3222 459.268 92.5694 470.662 116.794 480.506C163.364 499.532 222.101 510.262 278.847 510.262C280.838 510.262 282.829 510.262 284.82 510.262C356.831 509.267 410.591 469.334 436.364 445.662C455.169 428.296 470.876 408.827 481.717 389.248C492.557 370.001 498.088 351.971 497.977 337.037C497.867 325.312 492.889 313.808 483.265 302.636C480.942 299.981 478.398 297.437 475.854 295.003C462.248 282.393 443.001 271 418.776 261.155C372.207 242.239 313.47 231.51 256.724 231.51ZM52.1946 439.247C54.5175 441.901 57.0617 444.556 59.7165 446.879C73.3222 459.6 92.5694 470.993 116.794 480.949C126.529 484.931 137.037 488.581 148.099 491.9C137.258 488.581 126.75 484.931 116.794 480.949C92.4588 470.993 73.3222 459.6 59.6059 446.99C45.0045 433.495 37.4826 419.336 37.372 404.734C37.1508 389.801 42.7922 371.66 53.6326 352.413C64.5836 332.834 80.2911 313.366 99.0958 295.999C111.264 284.827 129.626 270.004 153.298 257.394C134.05 267.681 115.578 280.844 99.0958 295.999C80.2911 313.366 64.5836 332.834 53.6326 352.413C42.7922 371.66 37.1508 389.801 37.372 404.734C37.4826 416.57 42.4604 428.185 52.1946 439.247ZM380.061 247.881C393.666 251.642 406.719 256.066 418.887 261.044C443.222 271 462.469 282.393 476.075 295.003C478.73 297.437 481.164 299.981 483.487 302.636C493.11 313.808 498.088 325.423 498.309 337.148C498.53 352.081 492.889 370.222 482.049 389.469C471.098 409.048 455.39 428.517 436.585 445.884C426.741 454.954 412.803 466.458 395.326 477.188C409.927 468.228 423.975 457.719 436.696 445.884C455.501 428.517 471.208 409.048 482.159 389.469C492.999 370.222 498.641 352.081 498.42 337.148C498.198 322.657 490.677 308.388 476.186 294.893C462.469 282.282 443.222 270.778 418.997 260.934C406.94 256.177 393.777 251.752 380.061 247.881ZM256.724 231.288C282.497 231.288 308.713 233.501 334.044 237.704C306.611 233.058 278.626 230.957 250.75 231.288C237.698 231.51 224.534 232.948 211.482 235.824C223.871 233.169 236.923 231.51 250.75 231.399C252.741 231.288 254.733 231.288 256.724 231.288Z" fill="#9FBEED"/>
<path d="M287.807 518.226C234.49 518.226 175.31 508.05 128.409 490.683C103.41 481.391 83.499 470.883 69.2296 459.268C65.2474 456.06 61.4865 452.41 58.168 448.649C50.093 439.357 45.8896 429.623 45.779 419.999C45.5577 406.062 50.9779 386.814 60.8228 365.797C71.3313 343.674 85.822 321.33 102.967 301.308C122.104 278.853 143.895 260.159 166.019 246.996C191.682 231.841 217.898 223.877 243.782 223.545C298.426 222.771 360.15 233.058 408.71 251.089C433.709 260.38 453.62 270.889 467.89 282.504C483.265 295.114 491.23 308.388 491.34 321.883C491.562 335.82 486.141 355.068 476.297 376.085C465.899 398.208 451.297 420.552 434.152 440.574C415.015 463.029 393.224 481.723 371.101 494.886C345.438 510.041 319.332 518.005 293.338 518.337C291.457 518.226 289.577 518.226 287.807 518.226ZM58.2786 448.428C61.7077 452.299 65.358 455.839 69.3402 459.047C83.499 470.661 103.41 481.281 128.409 490.462C175.31 507.828 234.49 518.005 287.696 518.005C289.577 518.005 291.347 518.005 293.227 518.005C305.727 517.784 318.337 515.903 330.947 512.253C319.001 515.682 306.501 517.784 293.227 518.005C291.347 518.005 289.577 518.005 287.696 518.005C234.379 518.005 175.31 507.828 128.409 490.462C103.742 481.391 83.2778 470.44 69.3402 459.047C53.9646 446.437 46.1108 433.273 45.8896 419.889C45.6684 405.951 51.0885 386.704 60.9334 365.797C71.3313 343.674 85.9326 321.33 102.967 301.419C114.803 287.481 132.944 268.898 155.953 253.412C137.369 265.911 119.117 282.282 102.857 301.419C85.822 321.44 71.2207 343.674 60.8228 365.797C50.9779 386.704 45.6684 405.951 45.779 419.889C46.1108 429.512 50.2036 439.136 58.2786 448.428ZM249.091 223.988C247.211 223.988 245.441 223.988 243.56 223.988C178.186 224.873 127.524 272.88 103.189 301.529C86.1538 321.551 71.5525 343.785 61.1546 365.908C51.3098 386.814 46.0002 405.951 46.1108 419.889C46.3321 433.273 54.1858 446.326 69.4508 458.826C83.3884 470.219 103.852 481.17 128.409 490.24C175.31 507.607 234.379 517.784 287.696 517.784C289.577 517.784 291.347 517.784 293.227 517.784C358.712 516.788 409.374 468.781 433.709 440.242C450.744 420.221 465.346 397.987 475.744 375.863C485.588 354.957 490.898 335.82 490.787 321.883C490.677 312.259 486.473 302.746 478.509 293.565C475.19 289.694 471.43 286.154 467.447 282.946C453.51 271.553 433.046 260.602 408.489 251.531C361.477 234.164 302.408 223.988 249.091 223.988ZM478.62 293.344C486.695 302.636 490.787 312.149 490.898 321.772C491.119 335.71 485.699 354.957 475.854 375.863C465.456 397.987 450.855 420.331 433.82 440.242C419.661 456.834 396.542 480.174 366.787 496.877C368.114 496.103 369.552 495.329 370.88 494.444C393.003 481.391 414.683 462.586 433.82 440.242C450.855 420.221 465.456 397.987 475.854 375.753C485.699 354.846 491.009 335.599 490.898 321.662C490.677 308.277 482.823 295.114 467.447 282.504C453.288 270.889 433.378 260.27 408.378 251.089C361.477 233.722 302.298 223.545 248.981 223.545C247.1 223.545 245.33 223.545 243.45 223.545C233.273 223.656 223.096 224.983 212.809 227.417C222.543 225.094 232.831 223.656 243.45 223.545C245.33 223.545 247.1 223.545 248.981 223.545C302.298 223.545 361.367 233.722 408.268 251.089C432.935 260.159 453.399 271.11 467.337 282.504C471.54 285.933 475.19 289.472 478.62 293.344Z" fill="#9FBEED"/>
<path d="M296.546 525.527C246.769 525.527 187.257 516.014 140.024 500.196C114.583 491.789 93.5657 481.723 78.9643 471.215C73.6548 467.454 68.7877 463.14 64.4736 458.273C57.8367 450.64 54.4076 442.786 54.297 434.933C54.0757 421.99 59.1641 401.637 68.124 379.071C77.7476 354.625 91.5746 328.962 106.84 306.618C124.87 280.181 144.449 258.942 164.802 243.567C188.585 225.647 212.699 216.355 236.592 216.023C238.251 216.023 239.911 216.023 241.681 216.023C291.458 216.023 350.969 225.536 398.202 241.355C423.644 249.761 444.661 259.827 459.262 270.336C475.412 282.061 483.708 294.229 483.93 306.618C484.151 319.56 479.063 339.913 470.103 362.479C460.479 386.925 446.652 412.588 431.387 434.933C413.357 461.37 393.778 482.608 373.424 497.984C349.642 515.904 325.527 525.195 301.745 525.527C299.975 525.527 298.205 525.527 296.546 525.527ZM68.3452 462.034C71.6637 465.352 75.314 468.339 79.1856 471.104C93.6763 481.613 114.804 491.568 140.135 500.085C187.368 515.793 246.879 525.306 296.657 525.306C298.316 525.306 300.086 525.306 301.745 525.306C325.527 524.974 349.642 515.682 373.314 497.763C393.667 482.387 413.135 461.149 431.276 434.711C446.541 412.367 460.258 386.593 469.881 362.258C478.841 339.692 483.819 319.449 483.708 306.507C483.598 294.118 475.302 282.061 459.152 270.336C444.661 259.827 423.533 249.872 398.202 241.355C350.969 225.647 291.458 216.134 241.681 216.134C240.021 216.134 238.251 216.134 236.592 216.134C212.81 216.466 188.695 225.758 165.024 243.677C144.67 259.053 125.202 280.291 107.061 306.729C91.7958 329.073 78.0794 354.847 68.4558 379.182C59.4959 401.748 54.5182 422.101 54.6288 434.933C54.7394 442.786 58.1685 450.529 64.8055 458.162C65.1373 458.494 65.4692 458.826 65.801 459.268C58.611 451.304 54.85 443.229 54.7394 434.933C54.5182 422.101 59.6065 401.748 68.5664 379.182C78.19 354.847 91.9064 329.073 107.171 306.729C130.069 273.323 177.191 217.019 236.703 216.245C238.362 216.245 240.021 216.245 241.791 216.245C291.568 216.245 351.08 225.758 398.313 241.576C423.755 250.093 444.882 260.049 459.262 270.557C464.572 274.318 469.439 278.632 473.642 283.389C480.279 291.021 483.598 298.764 483.708 306.618C483.93 319.449 478.841 339.803 469.881 362.368C460.147 386.815 446.431 412.588 431.276 434.822C408.379 468.228 361.256 524.532 301.745 525.306C300.086 525.306 298.316 525.306 296.546 525.306C246.769 525.306 187.368 515.793 140.246 499.975C114.804 491.457 93.6763 481.502 79.2962 470.993C74.9822 468.117 71.3318 465.02 68.3452 462.034ZM241.57 216.355C239.911 216.355 238.141 216.355 236.482 216.355C177.081 217.13 129.958 273.323 107.171 306.729C91.9064 329.184 78.19 354.847 68.5664 379.293C59.6065 401.858 54.6288 422.101 54.85 435.043C55.0713 447.322 63.2569 459.379 79.2962 470.993C93.6763 481.391 114.804 491.457 140.246 499.864C187.368 515.572 246.769 525.195 296.546 525.195C298.316 525.195 299.975 525.195 301.745 525.195C361.146 524.421 408.268 468.228 431.055 434.822C446.21 412.588 460.037 386.925 469.66 362.479C478.62 339.913 483.598 319.671 483.377 306.729C483.266 298.985 479.837 291.242 473.311 283.61C468.996 278.853 464.129 274.539 458.93 270.778C444.55 260.38 423.423 250.314 397.981 241.908C350.748 225.979 291.347 216.355 241.57 216.355Z" fill="#9FBEED"/>
<path d="M305.174 532.828C283.051 532.828 257.941 530.837 231.946 527.076C203.739 522.983 175.864 517.01 151.639 509.709C125.534 501.966 103.742 492.785 88.6984 483.272C81.2871 478.515 75.3138 473.648 71.1104 468.781C65.6902 462.587 63.0354 456.281 62.9248 449.976C62.8142 437.809 67.3495 416.791 75.5351 392.345C84.8268 364.581 96.7733 337.48 110.822 311.817C127.414 281.729 145.223 257.504 163.807 239.916C185.709 219.231 207.721 208.501 229.513 208.28C252.521 207.948 279.511 209.94 307.497 214.032C335.704 218.125 363.469 224.098 387.804 231.399C413.91 239.142 435.701 248.323 450.745 257.836C467.669 268.566 476.408 279.738 476.518 291.132C476.629 303.299 472.094 324.316 463.908 348.763C454.616 376.527 442.67 403.628 428.621 429.291C412.029 459.489 394.22 483.604 375.636 501.192C353.845 521.877 331.722 532.606 309.93 532.828C308.382 532.828 306.723 532.828 305.174 532.828ZM106.286 320.556C94.2292 343.674 83.9419 367.789 75.6457 392.456C67.4601 416.902 62.9248 437.809 63.0354 449.976C63.1461 456.171 65.9115 462.476 71.221 468.67C75.4244 473.538 81.2871 478.405 88.6984 483.05C103.742 492.563 125.534 501.745 151.528 509.488C175.864 516.678 203.628 522.762 231.836 526.744C259.6 530.837 286.59 532.717 309.82 532.496C331.501 532.164 353.513 521.545 375.415 500.86C393.888 483.272 411.697 459.157 428.29 429.07C442.338 403.407 454.174 376.306 463.576 348.541C471.762 324.095 476.297 303.078 476.076 291.021C475.965 279.738 467.337 268.677 450.413 257.947C435.369 248.434 413.688 239.253 387.583 231.51C363.247 224.209 335.483 218.236 307.276 214.254C279.29 210.161 252.299 208.28 229.291 208.501C207.611 208.833 185.598 219.452 163.696 240.138C145.887 257.062 128.741 280.07 112.702 308.609C128.741 280.07 145.997 256.951 163.807 240.138C185.598 219.452 207.611 208.833 229.291 208.612C230.84 208.612 232.389 208.612 233.937 208.612C280.285 208.612 340.018 217.572 387.472 231.62C413.688 239.363 435.369 248.545 450.302 258.057C457.713 262.814 463.576 267.57 467.78 272.438C473.089 278.632 475.855 284.827 475.855 291.132C475.965 303.299 471.43 324.206 463.355 348.652C454.063 376.417 442.227 403.518 428.068 429.07C411.476 459.157 393.667 483.382 375.194 500.86C353.403 521.545 331.39 532.164 309.709 532.385C308.161 532.385 306.612 532.385 305.063 532.385C258.605 532.385 198.983 523.425 151.528 509.377C125.312 501.634 103.632 492.453 88.6984 482.94C71.7741 472.21 63.1461 461.149 63.0354 449.866C62.9248 437.698 67.4601 416.791 75.5351 392.345C83.9419 367.899 94.2292 343.674 106.286 320.556ZM234.048 208.833C232.499 208.833 230.951 208.833 229.402 208.833C207.721 209.165 185.819 219.674 164.028 240.359C145.555 257.836 127.746 282.061 111.153 312.149C97.1052 337.812 85.2693 364.913 75.9775 392.567C67.9025 417.013 63.2567 437.919 63.4779 449.976C63.5885 461.149 72.2166 472.21 89.0302 482.829C103.963 492.342 125.644 501.413 151.86 509.267C199.314 523.425 258.936 532.275 305.395 532.275C306.944 532.275 308.492 532.275 310.041 532.275C331.722 531.943 353.624 521.434 375.415 500.749C393.888 483.272 411.697 459.047 428.29 428.959C442.338 403.296 454.174 376.195 463.465 348.541C471.54 324.095 476.186 303.189 475.965 291.132C475.855 284.937 473.2 278.743 467.89 272.659C463.687 267.792 457.824 263.035 450.413 258.279C435.48 248.766 413.799 239.695 387.583 231.841C340.018 217.683 280.396 208.833 234.048 208.833Z" fill="#9FBEED"/>
<path d="M313.801 540.128C293.448 540.128 269.334 538.359 243.781 534.929C215.685 531.169 187.81 525.859 163.142 519.333C136.263 512.253 113.808 503.957 98.3213 495.44C89.2508 490.462 82.3926 485.263 77.9679 480.175C73.7645 475.307 71.5522 470.219 71.4416 465.241C71.331 454.069 75.5344 431.835 82.7244 405.951C91.1312 375.864 101.861 345.997 114.582 317.458C129.736 283.61 145.886 256.398 162.479 236.819C182.389 213.369 202.411 201.312 222.101 201.09C243.228 200.869 269.002 202.528 296.435 206.179C324.531 209.94 352.406 215.249 377.074 221.775C403.953 228.855 426.408 237.151 441.895 245.669C459.593 255.513 468.664 265.579 468.774 275.867C468.885 287.039 464.682 309.273 457.492 335.157C449.085 365.244 438.355 395.111 425.634 423.65C410.48 457.498 394.33 484.71 377.737 504.289C357.827 527.739 337.805 539.797 318.115 540.018C316.788 540.128 315.35 540.128 313.801 540.128ZM78.1892 479.953C82.7244 485.152 89.472 490.241 98.5425 495.218C114.029 503.736 136.484 512.032 163.364 519.111C188.031 525.638 215.906 531.058 244.003 534.708C269.555 538.137 293.559 539.907 313.912 539.907C315.35 539.907 316.899 539.907 318.337 539.907C338.026 539.686 358.048 527.629 377.848 504.178C394.44 484.489 410.59 457.388 425.745 423.539C438.466 395 449.085 365.134 457.602 335.046C464.792 309.162 469.106 286.928 468.885 275.756C468.774 265.579 459.704 255.513 442.116 245.779C426.63 237.262 404.175 228.966 377.295 221.886C352.628 215.36 324.752 209.94 296.656 206.289C269.112 202.639 243.45 200.869 222.322 201.201C202.632 201.422 182.611 213.479 162.81 236.93C146.218 256.62 130.068 283.72 114.914 317.569C102.193 346.219 91.5737 375.974 83.0563 406.062C75.8662 432.057 71.5522 454.18 71.7734 465.352C71.7734 470.108 73.9858 475.086 78.1892 479.953ZM313.912 539.907C270.772 539.907 210.928 531.722 163.364 519.111C136.484 512.032 114.139 503.736 98.5425 495.218C80.8439 485.373 71.884 475.307 71.7734 465.131C71.6628 453.959 75.8662 431.835 83.0563 405.841C91.4631 375.753 102.193 345.997 114.914 317.348C130.068 283.499 146.218 256.398 162.81 236.709C182.611 213.258 202.632 201.312 222.322 200.98C265.683 200.427 327.96 208.723 377.295 221.775C404.175 228.855 426.519 237.151 442.116 245.669C451.186 250.646 458.045 255.845 462.469 260.934C466.673 265.801 468.885 270.778 468.885 275.645C468.996 286.818 464.792 308.941 457.602 334.936C449.195 365.023 438.466 394.779 425.745 423.429C410.59 457.277 394.44 484.378 377.848 504.068C358.048 527.518 338.026 539.465 318.337 539.797C316.788 539.907 315.35 539.907 313.912 539.907ZM226.525 201.312C225.087 201.312 223.649 201.312 222.211 201.312C202.632 201.533 182.721 213.59 162.921 236.93C146.329 256.509 130.179 283.72 115.024 317.458C102.303 345.997 91.6843 375.864 83.1669 405.951C75.9768 431.835 71.6628 453.959 71.884 465.131C71.9947 475.197 80.9546 485.263 98.5425 494.886C114.029 503.404 136.373 511.7 163.253 518.78C210.818 531.39 270.661 539.575 313.801 539.575C315.239 539.575 316.677 539.575 318.115 539.575C337.694 539.354 357.716 527.297 377.406 503.957C393.998 484.267 410.148 457.166 425.302 423.429C438.023 394.89 448.642 365.023 457.16 334.936C464.35 308.941 468.664 286.818 468.443 275.756C468.332 270.889 466.23 266.022 462.027 261.155C457.602 256.066 450.744 250.867 441.784 245.89C426.298 237.372 403.953 229.076 377.074 221.997C329.398 209.497 269.666 201.312 226.525 201.312Z" fill="#9FBEED"/>
<path d="M322.541 547.429C282.609 547.429 222.765 539.907 174.869 528.846C147.215 522.43 124.096 515.019 108.167 507.386C97.4374 502.298 89.6943 496.988 85.159 491.789C81.8405 488.028 80.1813 484.157 80.0707 480.285C79.9601 469.998 83.8316 446.658 90.1367 419.225C97.6586 386.594 107.282 354.183 118.565 322.657C132.171 285.048 146.662 254.96 161.484 233.169C179.293 206.953 197.324 193.569 215.133 193.237C216.46 193.237 217.788 193.237 219.115 193.237C259.047 193.237 318.891 200.759 366.787 211.82C394.441 218.236 417.56 225.647 433.489 233.28C451.962 242.129 461.475 251.199 461.585 260.491C461.696 270.779 457.824 294.119 451.519 321.551C443.997 354.183 434.374 386.594 423.091 418.119C409.485 455.729 394.995 485.816 380.172 507.607C362.363 533.823 344.332 547.208 326.523 547.54C325.196 547.429 323.868 547.429 322.541 547.429ZM85.2696 491.679C89.8049 496.878 97.548 502.187 108.167 507.276C124.096 514.908 147.215 522.319 174.869 528.735C222.765 539.797 282.609 547.319 322.43 547.319C323.758 547.319 325.196 547.319 326.523 547.319C344.222 547.097 362.142 533.713 379.951 507.497C394.773 485.705 409.153 455.618 422.87 418.008C434.153 386.483 443.776 354.072 451.298 321.441C457.603 294.008 461.475 270.668 461.364 260.381C461.254 251.31 451.851 242.24 433.378 233.39C417.339 225.758 394.331 218.347 366.677 211.931C318.78 200.869 258.937 193.347 219.004 193.347C217.677 193.347 216.239 193.347 215.022 193.347C197.324 193.569 179.404 206.953 161.595 233.169C146.772 254.96 132.392 285.048 118.676 322.657C107.393 354.183 97.8798 386.594 90.2473 419.225C83.9422 446.658 80.0707 469.998 80.1813 480.285C80.2919 484.046 82.0618 487.918 85.2696 491.679ZM322.541 547.208C282.719 547.208 222.765 539.686 174.869 528.625C147.215 522.209 124.206 514.798 108.167 507.165C89.8049 498.426 80.4025 489.356 80.2919 480.175C80.1813 469.887 83.9422 446.547 90.358 419.115C97.8798 386.483 107.503 354.072 118.786 322.547C132.392 285.048 146.883 254.85 161.705 233.058C179.514 206.953 197.434 193.569 215.133 193.237C254.955 192.684 317.231 200.316 366.787 211.82C394.441 218.236 417.45 225.647 433.489 233.28C444.108 238.368 451.851 243.567 456.386 248.877C459.594 252.638 461.364 256.509 461.364 260.27C461.475 270.447 457.603 293.897 451.298 321.33C443.776 353.851 434.153 386.372 422.87 417.898C409.264 455.397 394.773 485.595 379.951 507.386C362.142 533.492 344.222 546.876 326.523 547.208C325.306 547.208 323.979 547.208 322.541 547.208ZM219.115 193.679C217.788 193.679 216.35 193.679 215.022 193.679C197.434 193.9 179.514 207.285 161.816 233.39C146.993 255.182 132.613 285.269 119.008 322.768C107.725 354.183 98.2117 386.704 90.5792 419.225C84.2741 446.547 80.4025 469.998 80.5131 480.175C80.6237 489.135 90.0261 498.205 108.278 506.944C124.206 514.576 147.325 521.988 174.869 528.293C222.765 539.354 282.609 546.876 322.43 546.876C323.758 546.876 325.085 546.876 326.413 546.876C344.001 546.655 361.92 533.27 379.619 507.165C394.441 485.374 408.821 455.286 422.427 417.787C433.71 386.372 443.334 353.851 450.856 321.33C457.161 293.897 461.032 270.557 460.922 260.381C460.811 256.62 459.152 252.859 455.944 249.098L456.055 248.987L455.944 249.098C451.409 243.899 443.776 238.7 433.046 233.612C417.118 225.979 393.999 218.568 366.456 212.263C318.891 201.201 259.047 193.679 219.115 193.679Z" fill="#9FBEED"/>
<path d="M331.169 554.73C294.223 554.73 234.38 547.982 186.483 538.469C172.324 535.593 151.528 530.947 133.055 524.974C112.26 518.226 98.6539 511.258 92.4594 504.178C89.9152 501.302 88.6984 498.316 88.5878 495.44C88.3666 478.183 100.977 401.416 122.436 328.077C134.493 286.818 147.214 253.743 160.267 229.74C176.085 200.758 192.124 185.936 207.832 185.715C244.114 185.272 306.612 192.13 356.279 201.975C392.671 209.276 453.842 224.541 454.174 245.005C454.395 262.482 441.674 339.25 420.215 412.367C408.158 453.627 395.437 486.701 382.384 510.594C366.566 539.575 350.527 554.398 334.819 554.619C333.713 554.73 332.386 554.73 331.169 554.73ZM92.6806 503.957C98.8751 511.036 112.481 518.005 133.166 524.753C151.639 530.726 172.324 535.372 186.483 538.248C234.269 547.871 294.223 554.508 331.058 554.508C332.386 554.508 333.602 554.508 334.819 554.508C350.527 554.287 366.455 539.465 382.163 510.594C395.215 486.701 407.936 453.627 419.993 412.367C441.342 339.25 454.063 262.482 453.842 245.005C453.731 236.045 441.785 227.196 418.555 218.678C398.313 211.267 373.424 205.625 356.168 202.086C308.161 192.462 248.317 185.825 211.593 185.825C210.265 185.825 209.049 185.825 207.832 185.825C192.124 186.046 176.196 200.869 160.488 229.74C147.436 253.633 134.715 286.707 122.658 327.967C101.309 401.416 88.5878 478.073 88.8091 495.329C88.9197 498.205 90.1364 501.192 92.6806 503.957ZM331.169 554.508C294.444 554.508 234.49 547.761 186.594 538.137C158.165 532.496 134.493 525.97 118.012 519.222C98.8751 511.479 89.0303 503.404 88.9197 495.329C88.6984 477.962 101.419 401.305 122.768 328.077C134.825 286.818 147.546 253.743 160.599 229.85C176.417 200.98 192.346 186.157 207.943 185.936C209.159 185.936 210.376 185.936 211.703 185.936C248.428 185.936 308.271 192.683 356.279 202.196C384.707 207.838 408.379 214.475 424.861 221.112C437.25 226.2 445.656 231.288 450.192 236.377C452.625 239.253 453.953 242.129 453.953 245.005C454.174 262.371 441.564 339.028 420.104 412.256C408.047 453.516 395.326 486.59 382.273 510.483C366.455 539.354 350.527 554.177 334.93 554.398C333.713 554.508 332.386 554.508 331.169 554.508ZM211.703 186.157C210.376 186.157 209.159 186.157 207.943 186.157C192.346 186.378 176.528 201.09 160.709 229.961C147.657 253.854 134.936 286.928 122.879 328.188C101.53 401.305 88.9197 477.962 89.1409 495.329C89.2515 503.293 98.9857 511.258 118.012 519.001C134.493 525.638 158.165 532.275 186.594 537.916C234.601 547.54 294.444 554.177 331.169 554.177C332.386 554.177 333.713 554.177 334.93 554.177C350.527 553.955 366.345 539.243 382.163 510.373C395.215 486.48 407.936 453.405 419.993 412.146C441.453 338.918 454.063 262.261 453.842 244.894C453.842 242.129 452.515 239.253 450.081 236.487C445.656 231.399 437.139 226.311 424.861 221.222C408.379 214.585 384.707 207.948 356.279 202.307C308.271 192.905 248.428 186.157 211.703 186.157Z" fill="#9FBEED"/>
<path d="M340.129 562.03C310.926 562.03 252.742 557.274 198.098 547.982C166.904 542.673 112.813 531.611 99.9816 516.899C98.1011 514.797 97.2162 512.585 97.2162 510.483C96.995 495.55 107.835 413.141 126.419 333.387C142.901 262.814 169.117 178.525 200.863 178.193C228.739 177.75 289.135 182.617 345.992 192.241C363.911 195.338 389.574 200.316 410.37 206.732C434.485 214.143 446.763 221.997 446.874 229.74C447.095 244.673 436.254 327.082 417.671 406.836C401.189 477.409 374.973 561.699 343.226 562.03C342.231 562.03 341.235 562.03 340.129 562.03ZM186.594 545.659C190.687 546.434 194.558 547.097 198.209 547.761C252.853 557.053 311.037 561.809 340.24 561.809C341.346 561.809 342.341 561.809 343.337 561.809C357.496 561.588 371.876 544.442 386.035 510.594C396.875 484.931 407.384 449.976 417.45 406.725C436.033 326.971 446.874 244.562 446.652 229.629C446.652 226.089 443.997 222.66 439.573 219.453C441.343 220.669 442.781 221.997 443.887 223.324C445.657 225.426 446.652 227.527 446.652 229.629C446.874 244.562 436.033 326.971 417.45 406.725C406.941 451.746 395.88 487.807 384.597 513.802C370.88 545.438 356.943 561.588 343.226 561.809C313.249 562.252 257.056 557.053 209.602 549.641C201.527 548.314 193.895 546.987 186.594 545.659ZM204.293 178.635C203.076 178.635 201.97 178.635 200.863 178.635C187.258 178.856 173.431 194.896 159.714 226.532C148.431 252.527 137.37 288.477 126.861 333.498C108.278 413.141 97.4374 495.55 97.6587 510.483C97.6587 512.585 98.5436 514.576 100.313 516.678C122.879 542.673 280.175 561.588 339.687 561.588C340.903 561.588 342.01 561.588 343.116 561.588C356.721 561.367 370.548 545.327 384.265 513.691C395.548 487.696 406.609 451.746 417.118 406.725C435.701 326.971 446.542 244.673 446.32 229.74C446.32 227.749 445.436 225.647 443.555 223.545C421.1 197.551 263.915 178.635 204.293 178.635ZM204.182 178.303C203.076 178.303 201.97 178.303 200.863 178.303C169.338 178.746 143.122 262.814 126.64 333.387C108.057 413.252 97.2162 495.55 97.4374 510.483C97.4374 512.143 98.1011 513.802 99.2073 515.35C98.1011 513.691 97.5481 512.032 97.5481 510.483C97.3268 495.55 108.167 413.141 126.751 333.387C137.259 288.366 148.321 252.305 159.604 226.311C173.32 194.675 187.258 178.525 200.974 178.303C202.08 178.303 203.186 178.303 204.403 178.303C235.154 178.303 288.914 183.281 334.598 190.471C345.549 192.241 355.837 194.011 365.46 195.891C358.602 194.564 351.965 193.347 345.992 192.352C291.237 183.17 233.274 178.303 204.182 178.303Z" fill="#9FBEED"/>
<path d="M348.757 569.331C321.877 569.331 262.697 564.906 209.712 557.495C179.293 553.181 154.847 548.535 137.259 543.557C121.662 539.133 111.706 534.597 107.724 530.062C106.397 528.514 105.733 527.076 105.733 525.527C105.512 511.479 115.136 421.769 130.29 338.696C144.228 262.15 166.572 170.892 193.673 170.56C194.558 170.56 195.553 170.56 196.549 170.56C223.429 170.56 282.498 174.985 335.483 182.396C365.902 186.71 390.348 191.356 407.936 196.334C428.732 202.196 439.351 208.28 439.462 214.364C439.683 228.412 430.059 318.122 414.905 401.195C400.967 477.741 378.623 568.999 351.633 569.331C350.637 569.331 349.752 569.331 348.757 569.331ZM196.549 170.781C195.553 170.781 194.558 170.781 193.673 170.781C181.616 170.892 169.337 189.586 157.28 226.2C148.099 254.075 139.139 291.906 130.511 338.696C115.357 421.769 105.733 511.479 105.954 525.527C105.954 526.965 106.618 528.514 107.946 529.952C111.928 534.487 121.773 539.022 137.369 543.336C154.957 548.314 179.293 552.96 209.823 557.274C264.688 565.017 326.191 569.442 351.633 569.11C363.69 568.888 375.968 550.305 388.025 513.691C397.207 485.816 406.166 447.985 414.794 401.195C429.949 318.122 439.572 228.412 439.351 214.364C439.241 208.391 428.732 202.417 408.047 196.555C390.459 191.577 366.123 186.931 335.593 182.617C282.498 175.206 223.539 170.781 196.549 170.781ZM348.646 569.11C321.656 569.11 262.587 564.685 209.823 557.274C143.121 547.871 106.286 536.589 106.065 525.527C105.844 511.479 115.467 421.769 130.622 338.696C144.559 262.261 166.793 171.113 193.673 170.781C194.558 170.781 195.553 170.781 196.549 170.781C223.429 170.781 282.498 175.206 335.372 182.617C393.556 190.803 428.732 200.316 437.139 209.939C438.356 211.377 439.019 212.815 439.019 214.253C439.241 228.302 429.617 318.011 414.463 401.084C400.525 477.52 378.291 568.667 351.411 568.999C350.637 569.11 349.642 569.11 348.646 569.11ZM196.549 171.003C195.553 171.003 194.558 171.003 193.673 171.003C181.726 171.224 169.448 189.807 157.502 226.311C148.32 254.186 139.36 292.016 130.843 338.696C115.689 421.769 106.065 511.479 106.286 525.527C106.397 536.478 143.232 547.65 209.823 557.052C264.578 564.796 326.08 569.22 351.522 568.888C363.469 568.667 375.747 550.084 387.694 513.58C396.875 485.705 405.835 447.874 414.352 401.195C429.506 318.122 439.13 228.523 438.909 214.475C438.909 213.037 438.245 211.709 437.028 210.271C432.935 205.515 422.095 200.758 404.839 196.112C387.583 191.466 364.132 187.042 335.372 182.949C282.498 175.427 223.539 171.003 196.549 171.003Z" fill="#9FBEED"/>
<path d="M357.163 576.631C332.606 576.631 272.763 572.871 221.326 567.008C190.022 563.468 165.023 559.597 146.992 555.614C129.736 551.743 119.228 547.761 115.688 543.668C114.914 542.894 114.361 541.787 114.361 540.571C114.25 530.615 121.44 436.702 134.272 344.006C141.572 291.463 149.205 249.54 157.058 219.342C166.793 182.064 176.637 163.149 186.482 162.927C209.159 162.596 271.546 166.467 324.974 172.551C356.278 176.091 381.277 179.962 399.308 183.945C420.878 188.812 431.829 193.789 431.939 198.878C432.05 208.944 424.86 303.078 412.028 395.442C404.728 447.985 397.095 489.909 389.241 520.107C379.507 557.384 369.662 576.3 359.818 576.521C358.933 576.631 358.048 576.631 357.163 576.631ZM189.248 163.259C188.363 163.259 187.478 163.259 186.593 163.259C176.859 163.37 167.014 182.285 157.39 219.452C149.537 249.65 141.904 291.574 134.603 344.117C121.661 436.813 114.471 530.726 114.582 540.681C114.692 541.787 115.135 542.783 115.909 543.557C119.449 547.539 129.847 551.522 147.103 555.393C165.133 559.486 190.133 563.247 221.437 566.787C272.873 572.539 332.606 576.41 357.163 576.41C358.158 576.41 359.043 576.41 359.818 576.41C369.552 576.3 379.397 557.384 389.02 520.217C396.874 490.019 404.507 448.096 411.807 395.553C424.639 303.189 431.829 209.054 431.718 198.988C431.607 194.011 420.767 189.033 399.197 184.276C381.167 180.184 356.167 176.423 324.863 172.883C273.648 167.02 213.804 163.259 189.248 163.259ZM357.273 576.41C332.606 576.41 272.652 572.649 221.326 566.787C190.133 563.247 165.133 559.375 146.992 555.393C125.533 550.637 114.582 545.659 114.582 540.681C114.471 530.615 121.661 436.592 134.493 344.117C145.886 261.818 164.248 163.591 186.482 163.259C209.38 162.927 271.767 166.799 324.974 172.772C356.167 176.312 381.277 180.184 399.308 184.166C416.564 188.037 426.962 192.02 430.501 196.002C431.276 196.776 431.718 197.882 431.829 198.878C431.939 208.944 424.749 302.967 411.918 395.442C404.949 445.883 397.538 486.59 390.016 516.567C380.06 556.057 369.994 576.189 359.928 576.3C359.043 576.41 358.158 576.41 357.273 576.41ZM189.137 163.481C188.252 163.481 187.367 163.481 186.593 163.481C176.637 163.591 166.571 183.613 156.727 222.992C149.205 252.969 141.793 293.676 134.825 344.117C121.993 436.592 114.803 530.615 114.914 540.681C115.024 545.548 125.865 550.415 147.214 555.172C165.244 559.265 190.243 563.026 221.548 566.565C272.873 572.317 332.827 576.189 357.495 576.189C358.38 576.189 359.265 576.189 360.039 576.189C369.994 576.078 380.06 556.057 389.905 516.678C397.427 486.701 404.838 445.994 411.807 395.553C424.639 303.078 431.829 209.054 431.718 198.988C431.607 197.993 431.165 196.997 430.501 196.223C427.072 192.241 416.674 188.369 399.418 184.498C381.388 180.405 356.389 176.644 325.084 173.104C273.758 167.242 213.694 163.481 189.137 163.481Z" fill="#9FBEED"/>
<path d="M365.791 583.932C345.77 583.932 287.033 581.278 232.942 576.632C187.257 572.76 131.175 566.234 123.763 557.716C123.21 557.163 122.989 556.5 122.879 555.836C122.768 546.323 128.409 446.769 138.144 349.426C143.785 293.123 149.758 248.213 155.953 215.913C163.585 175.87 171.439 155.517 179.403 155.406C196.991 155.185 258.273 157.95 314.576 162.707C345.217 165.361 370.105 168.237 388.246 171.224C412.25 175.206 424.528 179.299 424.528 183.613C424.639 193.237 418.998 292.902 409.263 390.023C403.622 446.326 397.649 491.236 391.454 523.536C383.822 563.579 375.968 583.932 368.004 584.043C367.451 583.932 366.676 583.932 365.791 583.932ZM181.726 155.627C180.841 155.627 180.178 155.627 179.403 155.627C171.66 155.738 163.806 175.98 156.174 215.913C149.979 248.213 144.006 293.123 138.365 349.426C128.631 446.658 122.989 546.212 123.21 555.725C123.21 556.389 123.542 557.053 123.985 557.495C128.078 562.141 150.201 569.221 233.052 576.3C289.466 581.167 350.748 583.822 368.225 583.601C375.968 583.49 383.822 563.247 391.454 523.315C397.649 491.126 403.622 446.215 409.263 389.801C418.998 292.791 424.639 193.015 424.528 183.502C424.418 176.202 386.477 169.012 314.687 162.928C260.596 158.393 201.858 155.627 181.726 155.627ZM365.791 583.711C345.659 583.711 287.033 581.056 232.942 576.411C192.014 572.871 123.321 565.57 123.1 555.836C122.989 546.212 128.631 446.547 138.365 349.537C147.214 261.265 161.594 156.07 179.293 155.848C179.956 155.848 180.731 155.848 181.616 155.848C201.637 155.848 260.264 158.503 314.466 163.149C346.765 165.914 372.65 168.901 391.233 172.109C409.817 175.317 420.657 178.635 423.533 181.954C423.975 182.396 424.307 183.06 424.307 183.724C424.418 193.126 418.887 292.349 409.042 390.023C400.193 478.294 385.813 583.49 368.114 583.711C367.451 583.711 366.676 583.711 365.791 583.711ZM181.726 155.959C180.952 155.959 180.178 155.959 179.403 155.959C169.669 156.07 154.736 189.807 138.697 349.537C128.962 446.437 123.321 546.212 123.432 555.725C123.432 559.818 137.812 567.893 233.052 576.079C287.143 580.725 345.77 583.379 365.902 583.379C366.787 583.379 367.561 583.379 368.225 583.379C377.959 583.269 392.892 549.531 408.932 389.801C418.776 292.127 424.418 192.905 424.197 183.502C424.197 182.839 423.865 182.286 423.422 181.843C417.781 175.317 379.065 168.68 314.576 163.149C260.374 158.614 201.748 155.959 181.726 155.959Z" fill="#9FBEED"/>
<path d="M374.53 591.233C358.048 591.233 299.422 589.353 244.667 586.145C211.814 584.154 185.487 582.052 166.572 579.729C145.776 577.185 134.493 574.751 132.17 571.986C131.839 571.654 131.728 571.322 131.728 570.88C131.617 564.464 135.378 459.49 142.347 354.736C146.329 294.672 150.643 246.775 155.179 212.484C157.833 192.241 160.488 176.534 163.254 165.804C166.351 153.747 169.337 147.884 172.545 147.884C185.487 147.663 246.879 149.543 304.4 152.973C337.253 154.964 363.579 157.065 382.495 159.388C405.945 162.154 417.339 165.14 417.449 168.238C417.56 174.875 413.688 280.845 406.83 384.381C402.848 444.446 398.534 492.343 393.999 526.634C391.344 546.876 388.689 562.584 385.924 573.314C382.826 585.371 379.84 591.233 376.632 591.233C375.858 591.233 375.194 591.233 374.53 591.233ZM174.426 148.105C173.651 148.105 172.877 148.105 172.324 148.105C169.227 148.105 166.24 153.968 163.254 165.804C160.488 176.534 157.833 192.241 155.179 212.484C150.754 246.886 146.44 294.672 142.347 354.736C135.378 459.49 131.617 564.464 131.728 570.769C131.728 571.101 131.949 571.433 132.17 571.765C134.493 574.42 145.666 576.964 166.461 579.397C185.377 581.72 211.703 583.822 244.556 585.813C299.311 589.132 358.048 590.901 374.42 590.901C375.194 590.901 375.858 590.901 376.411 590.901C379.508 590.901 382.494 585.039 385.481 573.203C388.247 562.473 390.901 546.766 393.556 526.523C397.981 492.232 402.295 444.335 406.388 384.271C413.356 280.734 417.117 174.875 417.007 168.238C417.007 165.251 405.281 162.375 382.273 159.61C363.247 157.287 337.031 155.185 304.178 153.194C249.313 149.875 190.908 148.105 174.426 148.105ZM374.42 591.012C357.827 591.012 299.201 589.132 244.556 585.924C205.066 583.601 138.033 578.623 132.17 571.876C131.949 571.654 131.728 571.322 131.728 570.88C131.617 564.464 135.378 459.158 142.347 354.736C146.882 287.592 151.639 235.824 156.727 200.869C161.816 165.915 167.014 148.105 172.213 148.105C172.767 148.105 173.43 148.105 174.205 148.105C190.797 148.105 249.534 149.986 304.068 153.194C343.558 155.517 410.591 160.494 416.454 167.242C416.675 167.463 416.896 167.795 416.896 168.238C417.007 174.764 413.246 280.07 406.277 384.381C401.742 451.525 396.985 503.294 391.897 538.248C386.809 573.203 381.61 591.012 376.411 591.012C375.858 591.012 375.194 591.012 374.42 591.012ZM174.315 148.327C173.541 148.327 172.877 148.327 172.324 148.327C167.236 148.437 162.037 166.136 157.059 200.98C152.081 235.824 147.214 287.592 142.679 354.847C135.71 459.268 131.949 564.464 132.06 570.88C132.06 571.212 132.17 571.433 132.392 571.654C136.706 576.632 176.527 581.61 244.667 585.592C299.311 588.91 357.938 590.68 374.53 590.68C375.304 590.68 375.968 590.68 376.521 590.68C381.61 590.57 386.809 572.871 391.786 538.027C396.875 503.072 401.631 451.415 406.166 384.16C413.135 279.96 416.896 174.543 416.785 168.127C416.785 167.795 416.675 167.574 416.454 167.353C412.14 162.375 372.318 157.397 304.178 153.415C249.645 150.207 190.908 148.327 174.315 148.327Z" fill="#9FBEED"/>
<path d="M383.047 598.534C370.326 598.534 313.359 597.649 256.17 595.658C222.322 594.441 195.331 593.224 176.084 591.786C164.912 591.012 156.173 590.127 150.089 589.131C144.337 588.246 141.13 587.361 140.245 586.476C140.134 586.366 140.023 586.145 140.023 585.923C140.023 581.72 141.904 469.334 145.997 360.045C148.651 287.592 151.638 232.173 154.846 195.559C158.054 158.392 161.372 140.251 165.133 140.251C173.098 140.141 233.162 141.026 293.669 143.127C327.518 144.344 354.508 145.561 373.755 146.999C385.149 147.884 393.998 148.769 399.75 149.654C408.599 150.981 409.816 152.087 409.816 152.862C409.927 156.954 407.935 268.345 403.843 378.74C401.188 451.193 398.201 506.612 394.993 543.226C391.786 580.393 388.467 598.534 384.706 598.534C384.374 598.534 383.821 598.534 383.047 598.534ZM159.934 154.853C158.275 164.034 156.726 177.75 155.067 195.67C151.859 232.284 148.983 287.592 146.218 360.156C142.125 469.445 140.134 581.72 140.245 586.034C140.245 586.145 140.355 586.366 140.466 586.476C141.24 587.361 144.448 588.246 150.089 589.021C156.173 589.906 164.912 590.791 176.084 591.565C195.331 593.003 222.211 594.22 256.06 595.436C316.456 597.538 376.521 598.423 384.596 598.312C384.706 598.312 384.927 598.312 385.038 598.202C384.927 598.312 384.706 598.312 384.596 598.312C384.264 598.312 383.711 598.312 383.157 598.312C370.768 598.312 313.027 597.427 256.06 595.436C184.38 593.003 143.342 589.795 140.355 586.366C140.245 586.255 140.134 586.145 140.134 585.923C140.134 581.609 142.015 469.113 146.107 360.045C148.762 288.698 151.749 233.611 154.846 196.555C156.726 178.082 158.275 164.144 159.934 154.853ZM167.014 140.804C166.239 140.804 165.686 140.804 165.244 140.804C162.921 140.804 159.381 150.539 155.399 196.666C152.191 233.722 149.315 288.809 146.66 360.156C142.568 469.113 140.577 581.72 140.687 586.034C140.687 586.145 140.687 586.255 140.798 586.366C143.674 589.684 184.712 592.892 256.281 595.326C316.014 597.427 376.521 598.312 384.817 598.202C387.14 598.202 390.679 588.468 394.662 542.341C397.869 505.284 400.745 450.308 403.4 378.85C407.493 268.234 409.484 157.065 409.373 152.972C409.373 152.862 409.263 152.751 409.263 152.751C406.387 149.432 365.348 146.335 293.78 143.791C236.591 141.689 179.845 140.804 167.014 140.804ZM409.373 152.419C409.484 152.53 409.595 152.64 409.595 152.862C409.705 156.954 407.714 268.124 403.621 378.74C400.967 450.198 397.98 505.174 394.883 542.23C393.777 555.172 392.67 565.902 391.564 574.309C392.67 566.013 393.777 555.615 394.883 543.115C398.091 506.501 400.967 451.193 403.732 378.629C407.825 268.234 409.816 156.844 409.705 152.751C409.705 151.645 406.497 150.649 399.861 149.764C393.998 148.879 385.259 147.994 373.866 147.11C354.619 145.672 327.739 144.455 293.89 143.238C233.383 141.136 173.319 140.251 165.355 140.362C164.912 140.362 164.359 140.694 163.917 141.468C164.359 140.804 164.912 140.362 165.355 140.362C173.429 140.251 233.494 141.136 293.89 143.238C365.348 145.893 406.497 149.101 409.373 152.419Z" fill="#9FBEED"/>
<path d="M385.813 605.835C367.34 605.835 317.121 605.724 267.786 605.171C220.553 604.729 186.815 603.954 167.568 603.18C151.528 602.406 149.095 601.742 148.763 601.299C148.652 601.189 148.652 601.078 148.652 601.078C148.652 598.866 148.763 483.383 149.98 365.466C150.643 297.659 151.639 243.899 152.745 205.515C154.847 132.73 157.17 132.73 158.055 132.73C161.705 132.73 222.654 132.73 283.272 133.283C334.045 133.836 369.11 134.5 387.472 135.495C402.516 136.27 402.516 136.933 402.516 137.486C402.516 139.699 402.406 255.293 401.189 373.099C400.525 440.574 399.53 494.334 398.423 532.939C396.322 605.724 393.999 605.724 393.114 605.724C392.45 605.835 389.906 605.835 385.813 605.835ZM148.984 601.189C150.533 602.959 191.571 604.176 267.896 604.95C327.961 605.614 389.353 605.614 393.114 605.614C393.446 605.614 394.109 605.614 395.105 596.654C396.211 585.481 397.317 564.022 398.202 533.049C399.308 494.444 400.193 440.574 400.968 373.209C402.184 255.403 402.406 139.809 402.295 137.597C402.295 135.827 362.252 134.5 283.383 133.615C222.765 132.951 161.816 132.951 158.165 133.062C157.833 133.062 157.17 133.062 156.174 142.022C155.068 153.194 153.962 174.653 153.077 205.626C151.971 243.899 151.086 297.769 150.312 365.466C149.095 483.383 148.874 598.866 148.984 601.078C148.874 601.189 148.874 601.189 148.984 601.189ZM384.596 605.614C365.46 605.614 317.231 605.503 268.228 604.95C234.048 604.618 206.394 604.176 186.372 603.622C161.816 602.959 149.205 602.074 148.984 601.078C148.984 598.092 149.095 481.834 150.312 365.466C150.975 298.433 151.971 244.673 153.077 205.515C153.741 182.728 154.515 165.03 155.289 152.862C156.174 139.588 157.059 132.951 158.165 132.951C161.816 132.951 222.212 132.951 283.051 133.504C317.452 133.836 344.996 134.279 364.907 134.832C388.468 135.495 401.41 136.38 402.184 137.265V137.376C402.184 139.588 402.074 254.739 400.857 372.988C400.193 439.689 399.198 493.449 398.091 532.828C397.428 555.726 396.653 573.424 395.879 585.481C394.994 598.755 394.109 605.392 393.003 605.392C392.339 605.614 389.353 605.614 384.596 605.614ZM166.13 133.172C161.594 133.172 158.718 133.172 158.055 133.172C157.723 133.172 156.617 134.61 155.4 152.862C154.626 165.03 153.851 182.728 153.188 205.515C152.081 244.673 151.086 298.433 150.422 365.356C149.205 481.834 148.984 598.092 149.095 600.968C149.205 601.3 153.188 602.295 186.262 603.291C206.394 603.844 233.937 604.286 268.118 604.618C329.399 605.282 389.463 605.282 393.003 605.171C393.335 605.171 394.441 603.733 395.658 585.481C396.432 573.424 397.207 555.726 397.87 532.828C398.976 493.449 399.972 439.689 400.636 372.988C401.852 254.961 401.963 140.141 401.963 137.376C401.631 136.933 397.317 135.938 364.796 135.053C344.885 134.5 317.342 134.057 282.94 133.726C233.937 133.394 185.156 133.172 166.13 133.172Z" fill="#9FBEED"/>
<path d="M157.28 616.454V616.232L150.754 125.208H150.975L395.105 122V122.221L401.631 613.246H401.41L157.28 616.454ZM150.865 125.429L157.391 616.232L401.299 613.025L394.773 122.221L150.865 125.429ZM157.501 616.122V616.011L150.865 125.429H150.975L394.773 122.111V122.221L401.41 612.803H401.299L157.501 616.122ZM151.196 125.65L157.723 615.901L401.189 612.693L394.552 122.442L151.196 125.65Z" fill="#9FBEED"/>
<g clip-path="url(#clip0_2270_28603)">
<path d="M513.224 550.477L510.517 563.11L159.217 488.983L161.795 477.123L304.765 507.031L351.562 516.829L513.224 550.477Z" fill="#2D72B0"/>
<path d="M515.542 539.518L513.222 550.476L351.56 516.829L354.009 505.484L496.72 535.522L515.542 539.518Z" fill="#206692"/>
<path d="M542.621 317.652L496.597 535.522L353.886 505.355L306.96 495.429L186.164 469.903L232.188 252.033L542.621 317.652ZM485.768 526.369L528.569 323.84L242.759 263.506L199.958 466.036L485.768 526.369Z" fill="#2D72B0"/>
<path d="M242.756 263.533L200.002 466.102L485.819 526.426L528.573 323.857L242.756 263.533Z" fill="#1E1E3E"/>
<path d="M354.014 505.485L351.565 516.829L304.768 507.032L307.088 495.558L354.014 505.485Z" fill="#2978A0"/>
<path d="M307.086 495.558L304.765 507.031L161.796 477.123L164.245 465.391L186.29 470.032L307.086 495.558Z" fill="#206692"/>
<path d="M186.292 470.032L232.315 252.162L542.62 317.652L496.725 535.522" stroke="white" stroke-width="0.644587" stroke-miterlimit="10"/>
<path d="M242.756 263.534L200.002 466.103L485.819 526.427L528.573 323.858L242.756 263.534Z" stroke="white" stroke-width="0.644587" stroke-miterlimit="10"/>
<path d="M354.011 505.484L496.722 535.522L515.544 539.519L513.224 550.477L510.517 563.11L159.217 488.983L161.795 477.123L164.245 465.391L186.289 470.032L307.085 495.558" stroke="white" stroke-width="0.644587" stroke-miterlimit="10" stroke-linecap="round" stroke-linejoin="round"/>
<path d="M161.796 477.122L304.765 507.031L351.562 516.829L513.225 550.476" stroke="white" stroke-width="0.644587" stroke-miterlimit="10" stroke-linecap="round" stroke-linejoin="round"/>
<path d="M304.768 507.032L307.088 495.558L354.014 505.485L351.565 516.829" stroke="white" stroke-width="0.644587" stroke-miterlimit="10"/>
<path d="M177.142 520.309C179.592 519.793 182.041 521.34 182.557 523.789C183.073 526.239 181.526 528.688 179.076 529.204C176.627 529.72 174.177 528.172 173.662 525.723C173.146 523.145 174.693 520.824 177.142 520.309Z" fill="white"/>
<path d="M252.557 255.126L305.8 506.902L54.0241 560.145L0.78125 308.369L252.557 255.126ZM283.884 492.592L237.602 273.562L22.0526 319.198L68.334 538.1L283.884 492.592ZM182.555 523.79C182.039 521.341 179.59 519.794 177.14 520.31C174.691 520.825 173.144 523.275 173.659 525.724C174.175 528.173 176.625 529.72 179.074 529.205C181.523 528.56 183.07 526.24 182.555 523.79Z" fill="#73C7D1"/>
<path d="M237.561 273.538L22.0225 319.144L68.3492 538.088L283.888 492.482L237.561 273.538Z" fill="#1E1F40"/>
<path d="M252.516 255.126L0.78125 308.391L54.0463 560.126L305.782 506.861L252.516 255.126Z" stroke="white" stroke-width="1.28917" stroke-miterlimit="10"/>
<path d="M237.548 273.537L22.0088 319.143L68.3355 538.087L283.874 492.481L237.548 273.537Z" stroke="white" stroke-width="1.28917" stroke-miterlimit="10"/>
<path d="M173.652 525.595C173.136 523.146 174.683 520.696 177.133 520.181C179.582 519.665 182.031 521.212 182.547 523.661C183.063 526.111 181.516 528.56 179.066 529.076C176.617 529.592 174.167 528.045 173.652 525.595Z" stroke="white" stroke-width="1.28917" stroke-miterlimit="10"/>
<path d="M114.74 291.223L135.625 286.839" stroke="white" stroke-width="1.28917" stroke-miterlimit="10"/>
<path d="M377.983 152.38H167.074V495.043H377.983V152.38Z" fill="#1F2142" stroke="white" stroke-width="0.644587" stroke-miterlimit="10"/>
<path d="M377.983 115.123H167.074V152.38H377.983V115.123Z" fill="#1F2142" stroke="white" stroke-width="0.644587" stroke-miterlimit="10"/>
<path d="M187.186 141.036C189.678 141.036 191.698 139.016 191.698 136.524C191.698 134.032 189.678 132.012 187.186 132.012C184.694 132.012 182.674 134.032 182.674 136.524C182.674 139.016 184.694 141.036 187.186 141.036Z" stroke="white" stroke-width="0.644587" stroke-miterlimit="10"/>
<path d="M187.193 138.071C188.048 138.071 188.74 137.378 188.74 136.524C188.74 135.67 188.048 134.977 187.193 134.977C186.339 134.977 185.646 135.67 185.646 136.524C185.646 137.378 186.339 138.071 187.193 138.071Z" fill="white"/>
<path d="M270.342 487.566C277.177 487.566 282.718 482.025 282.718 475.19C282.718 468.354 277.177 462.813 270.342 462.813C263.507 462.813 257.966 468.354 257.966 475.19C257.966 482.025 263.507 487.566 270.342 487.566Z" fill="white"/>
<path d="M258.351 133.944H294.963" stroke="white" stroke-width="2.57835" stroke-miterlimit="10"/>
<path d="M273.692 87.6638C297.9 87.6638 317.524 68.0396 317.524 43.8319C317.524 19.6242 297.9 0 273.692 0C249.485 0 229.86 19.6242 229.86 43.8319C229.86 68.0396 249.485 87.6638 273.692 87.6638Z" fill="#2D72B0"/>
<path d="M262.478 65.8771L245.074 42.5431L253.196 36.3551L264.283 51.3095L298.059 24.1079L304.505 32.1008L262.478 65.8771Z" fill="white"/>
<path d="M461.522 266.343C476.83 266.343 489.239 253.934 489.239 238.626C489.239 223.318 476.83 210.909 461.522 210.909C446.214 210.909 433.805 223.318 433.805 238.626C433.805 253.934 446.214 266.343 461.522 266.343Z" fill="#2D72B0"/>
<path d="M454.435 252.55L443.348 237.724L448.504 233.986L455.595 243.397L476.866 226.122L480.863 231.149L454.435 252.55Z" fill="white"/>
<path d="M87.0161 266.343C102.324 266.343 114.733 253.934 114.733 238.626C114.733 223.318 102.324 210.909 87.0161 210.909C71.7083 210.909 59.2988 223.318 59.2988 238.626C59.2988 253.934 71.7083 266.343 87.0161 266.343Z" fill="#2D72B0"/>
<path d="M79.9297 252.55L68.9717 237.724L74.1284 233.986L81.0899 243.397L102.49 226.122L106.487 231.149L79.9297 252.55Z" fill="white"/>
<path d="M273.692 225.864C245.846 225.864 223.156 248.425 223.156 276.4C223.156 315.591 273.047 370.896 273.047 370.896C273.047 370.896 322.552 321.908 324.099 276.4C325.13 248.554 301.538 225.864 273.692 225.864ZM273.692 305.922C256.675 305.922 242.752 292.128 242.752 274.982C242.752 257.836 256.546 244.042 273.692 244.042C290.838 244.042 304.632 257.836 304.632 274.982C304.632 291.999 290.838 305.922 273.692 305.922Z" fill="white"/>
</g>
<defs>
<clipPath id="clip0_2270_28603">
<rect width="543" height="563.369" fill="white"/>
</clipPath>
</defs>
</svg>
