<svg width="20" height="20" viewBox="0 0 20 20" fill="none" xmlns="http://www.w3.org/2000/svg">
<path d="M15.8333 2.5H4.16667C3.24583 2.5 2.5 3.24583 2.5 4.16667V15.8333C2.5 16.7542 3.24583 17.5 4.16667 17.5H15.8333C16.7542 17.5 17.5 16.7542 17.5 15.8333V4.16667C17.5 3.24583 16.7542 2.5 15.8333 2.5ZM6.44833 14.1667C5.8675 14.1667 5.39667 13.6958 5.39667 13.115V9.38417C5.3975 8.80417 5.86833 8.33333 6.44833 8.33333C7.02917 8.33333 7.5 8.80417 7.5 9.385V13.1158C7.5 13.6958 7.02917 14.1667 6.44833 14.1667ZM6.41167 7.26417C5.76917 7.26417 5.34 6.83583 5.34 6.26417C5.34 5.6925 5.76833 5.26417 6.4825 5.26417C7.125 5.26417 7.55417 5.6925 7.55417 6.26417C7.55417 6.83583 7.12583 7.26417 6.41167 7.26417ZM13.9825 14.1667C13.4208 14.1667 12.965 13.7108 12.965 13.1492V10.9783C12.965 10.0967 12.4225 10 12.2192 10C12.0158 10 11.3375 10.0292 11.3375 10.9783V13.1492C11.3375 13.7108 10.8817 14.1667 10.32 14.1667H10.2525C9.69083 14.1667 9.235 13.7108 9.235 13.1492V9.385C9.235 8.80417 9.70583 8.33333 10.2867 8.33333C10.8675 8.33333 11.3383 8.80417 11.3383 9.385C11.3383 9.385 11.5733 8.33333 13.17 8.33333C14.1858 8.33333 15 9.1475 15 10.9783V13.1492C15 13.7108 14.5442 14.1667 13.9825 14.1667Z" fill="#9CBBEF"/>
</svg>
