<svg width="44" height="45" viewBox="0 0 44 45" fill="none" xmlns="http://www.w3.org/2000/svg">
<circle cx="22" cy="22" r="22" fill="#E2F5F6"/>
<path d="M11.2634 1.62395C12.2771 0.605915 13.6537 0.0322732 15.0903 0.0292165L28.8161 1.22789e-05C30.2528 -0.0030445 31.6318 0.564736 32.6498 1.57845L42.376 11.2634C43.3941 12.2771 43.9677 13.6537 43.9708 15.0903L44 28.8161C44.003 30.2528 43.4353 31.6318 42.4216 32.6498L32.7366 42.376C31.7229 43.3941 30.3463 43.9677 28.9097 43.9708L15.1839 44C13.7472 44.003 12.3682 43.4353 11.3502 42.4216L1.62395 32.7366C0.605915 31.7229 0.0322732 30.3463 0.0292165 28.9097L1.22789e-05 15.1839C-0.0030445 13.7472 0.564736 12.3682 1.57845 11.3502L11.2634 1.62395Z" fill="#D9E5F8"/>
<path d="M21.214 10.7382C15.4311 10.7382 10.7378 15.4315 10.7378 21.2143C10.7378 26.9972 15.4311 31.6905 21.214 31.6905C26.9968 31.6905 31.6902 26.9972 31.6902 21.2143C31.6902 15.4315 26.9968 10.7382 21.214 10.7382ZM17.7045 24.1163C17.5892 24.4305 17.2854 24.6296 16.9711 24.6296C16.8768 24.6296 16.793 24.6191 16.6987 24.5772C15.8502 24.2629 15.1378 23.6448 14.6873 22.8382C13.6397 20.9524 14.2892 18.4905 16.1226 17.3486L18.574 15.8296C19.4749 15.2744 20.533 15.1067 21.5387 15.3686C22.5445 15.6305 23.393 16.2905 23.9064 17.2124C24.954 19.0982 24.3045 21.5601 22.4711 22.702L22.1987 22.901C21.8426 23.1524 21.3502 23.0686 21.0987 22.7229C20.8473 22.3667 20.9311 21.8744 21.2768 21.6229L21.6016 21.3924C22.7749 20.6591 23.173 19.1401 22.534 17.9772C22.2302 17.4324 21.7378 17.0448 21.1511 16.8877C20.5645 16.7305 19.9464 16.8248 19.4121 17.1601L16.9397 18.6896C15.8083 19.3915 15.4102 20.9105 16.0492 22.0839C16.3111 22.5553 16.7302 22.922 17.233 23.1105C17.6416 23.2572 17.8511 23.7077 17.7045 24.1163ZM26.3683 25.0382L23.9168 26.5572C23.2987 26.9448 22.6073 27.1334 21.9054 27.1334C21.5911 27.1334 21.2664 27.0915 20.9521 27.0077C19.9464 26.7458 19.0978 26.0858 18.5949 25.1639C17.5473 23.2782 18.1968 20.8163 20.0302 19.6743L20.3026 19.4753C20.6587 19.2239 21.1511 19.3077 21.4026 19.6534C21.654 20.0096 21.5702 20.502 21.2245 20.7534L20.8997 20.9839C19.7264 21.7172 19.3283 23.2363 19.9673 24.3991C20.2711 24.9439 20.7635 25.3315 21.3502 25.4886C21.9368 25.6458 22.5549 25.5515 23.0892 25.2163L25.5407 23.6972C26.6721 22.9953 27.0702 21.4763 26.4311 20.3029C26.1692 19.8315 25.7502 19.4648 25.2473 19.2763C24.8387 19.1296 24.6292 18.6791 24.7864 18.2705C24.933 17.862 25.394 17.6524 25.7921 17.8096C26.6407 18.1239 27.353 18.742 27.8035 19.5486C28.8407 21.4344 28.2016 23.8963 26.3683 25.0382Z" fill="#3F7CDB"/>
<path fill-rule="evenodd" clip-rule="evenodd" d="M0.00506998 15.321C0.00153109 15.4028 -0.000162611 15.4848 1.22789e-05 15.567L0.0292165 29.2928C0.0322732 30.7294 0.605915 32.106 1.62395 33.1197L11.3502 42.8047C12.3682 43.8184 13.7472 44.3862 15.1839 44.3831L28.9097 44.3539C30.3463 44.3508 31.7229 43.7772 32.7366 42.7592L42.4216 33.0329C43.4353 32.0149 44.003 30.6359 44 29.1992L43.9949 26.8221C43.9366 28.1694 43.3773 29.4501 42.4216 30.4099L32.7366 40.1361C31.7229 41.1541 30.3463 41.7278 28.9097 41.7308L15.1839 41.76C13.7472 41.7631 12.3682 41.1953 11.3502 40.1816L1.62395 30.4967C0.605915 29.483 0.0322732 28.1064 0.0292165 26.6697L0.00506998 15.321Z" fill="#0B1C56"/>
</svg>
