<svg width="40" height="40" viewBox="0 0 40 40" fill="none" xmlns="http://www.w3.org/2000/svg">
<circle opacity="0.5" cx="20" cy="20" r="20" fill="#D9E5F8"/>
<path d="M19.9998 11.6665C15.3998 11.6665 11.6665 15.3998 11.6665 19.9998C11.6665 24.5998 15.3998 28.3332 19.9998 28.3332C24.5998 28.3332 28.3332 24.5998 28.3332 19.9998C28.3332 15.3998 24.5998 11.6665 19.9998 11.6665ZM17.2082 22.3082C17.1165 22.5582 16.8748 22.7165 16.6248 22.7165C16.5498 22.7165 16.4832 22.7082 16.4082 22.6748C15.7332 22.4248 15.1665 21.9332 14.8082 21.2915C13.9748 19.7915 14.4915 17.8332 15.9498 16.9248L17.8998 15.7165C18.6165 15.2748 19.4582 15.1415 20.2582 15.3498C21.0582 15.5582 21.7332 16.0832 22.1415 16.8165C22.9748 18.3165 22.4582 20.2748 20.9998 21.1832L20.7832 21.3415C20.4998 21.5415 20.1082 21.4748 19.9082 21.1998C19.7082 20.9165 19.7748 20.5248 20.0498 20.3248L20.3082 20.1415C21.2415 19.5582 21.5582 18.3498 21.0498 17.4248C20.8082 16.9915 20.4165 16.6832 19.9498 16.5582C19.4832 16.4332 18.9915 16.5082 18.5665 16.7748L16.5998 17.9915C15.6998 18.5498 15.3832 19.7582 15.8915 20.6915C16.0998 21.0665 16.4332 21.3582 16.8332 21.5082C17.1582 21.6248 17.3248 21.9832 17.2082 22.3082ZM24.0998 23.0415L22.1498 24.2498C21.6582 24.5582 21.1082 24.7082 20.5498 24.7082C20.2998 24.7082 20.0415 24.6748 19.7915 24.6082C18.9915 24.3998 18.3165 23.8748 17.9165 23.1415C17.0832 21.6415 17.5998 19.6832 19.0582 18.7748L19.2748 18.6165C19.5582 18.4165 19.9498 18.4832 20.1498 18.7582C20.3498 19.0415 20.2832 19.4332 20.0082 19.6332L19.7498 19.8165C18.8165 20.3998 18.4998 21.6082 19.0082 22.5332C19.2498 22.9665 19.6415 23.2748 20.1082 23.3998C20.5748 23.5248 21.0665 23.4498 21.4915 23.1832L23.4415 21.9748C24.3415 21.4165 24.6582 20.2082 24.1498 19.2748C23.9415 18.8998 23.6082 18.6082 23.2082 18.4582C22.8832 18.3415 22.7165 17.9832 22.8415 17.6582C22.9582 17.3332 23.3248 17.1665 23.6415 17.2915C24.3165 17.5415 24.8832 18.0332 25.2415 18.6748C26.0665 20.1748 25.5582 22.1332 24.0998 23.0415Z" fill="#3F7CDB"/>
</svg>
