<svg width="44" height="45" viewBox="0 0 44 45" fill="none" xmlns="http://www.w3.org/2000/svg">
<circle cx="22" cy="22" r="22" fill="#E2F5F6"/>
<path d="M11.2634 1.62395C12.2771 0.605915 13.6537 0.0322732 15.0903 0.0292165L28.8161 1.22789e-05C30.2528 -0.0030445 31.6318 0.564736 32.6498 1.57845L42.376 11.2634C43.3941 12.2771 43.9677 13.6537 43.9708 15.0903L44 28.8161C44.003 30.2528 43.4353 31.6318 42.4216 32.6498L32.7366 42.376C31.7229 43.3941 30.3463 43.9677 28.9097 43.9708L15.1839 44C13.7472 44.003 12.3682 43.4353 11.3502 42.4216L1.62395 32.7366C0.605915 31.7229 0.0322732 30.3463 0.0292165 28.9097L1.22789e-05 15.1839C-0.0030445 13.7472 0.564736 12.3682 1.57845 11.3502L11.2634 1.62395Z" fill="#D9E5F8"/>
<path d="M31.6902 21.2143C31.6902 15.442 26.9864 10.7382 21.214 10.7382C15.4416 10.7382 10.7378 15.442 10.7378 21.2143C10.7378 24.2524 12.0473 26.9867 14.1216 28.9039C14.1216 28.9144 14.1216 28.9144 14.1111 28.9248C14.2159 29.0296 14.3416 29.1134 14.4464 29.2077C14.5092 29.2601 14.5616 29.3124 14.6245 29.3544C14.813 29.5115 15.0226 29.6582 15.2216 29.8048C15.2949 29.8572 15.3578 29.8991 15.4311 29.9515C15.6302 30.0877 15.8397 30.2134 16.0597 30.3286C16.133 30.3705 16.2168 30.4229 16.2902 30.4648C16.4997 30.5801 16.7197 30.6848 16.9502 30.7791C17.034 30.821 17.1178 30.8629 17.2016 30.8944C17.4321 30.9886 17.6626 31.0724 17.893 31.1458C17.9768 31.1772 18.0607 31.2086 18.1445 31.2296C18.3959 31.3029 18.6473 31.3658 18.8987 31.4286C18.9721 31.4496 19.0454 31.4705 19.1292 31.481C19.4226 31.5439 19.7159 31.5858 20.0197 31.6172C20.0616 31.6172 20.1035 31.6277 20.1454 31.6382C20.5016 31.6696 20.8578 31.6905 21.214 31.6905C21.5702 31.6905 21.9264 31.6696 22.2721 31.6382C22.314 31.6382 22.3559 31.6277 22.3978 31.6172C22.7016 31.5858 22.9949 31.5439 23.2883 31.481C23.3616 31.4705 23.4349 31.4391 23.5187 31.4286C23.7702 31.3658 24.0321 31.3134 24.273 31.2296C24.3568 31.1982 24.4407 31.1667 24.5245 31.1458C24.7549 31.062 24.9959 30.9886 25.2159 30.8944C25.2997 30.8629 25.3835 30.821 25.4673 30.7791C25.6873 30.6848 25.9073 30.5801 26.1273 30.4648C26.2111 30.4229 26.2845 30.3705 26.3578 30.3286C26.5673 30.2029 26.7768 30.0877 26.9864 29.9515C27.0597 29.9096 27.1226 29.8572 27.1959 29.8048C27.4054 29.6582 27.6045 29.5115 27.793 29.3544C27.8559 29.302 27.9083 29.2496 27.9711 29.2077C28.0864 29.1134 28.2016 29.0191 28.3064 28.9248C28.3064 28.9144 28.3064 28.9144 28.2959 28.9039C30.3807 26.9867 31.6902 24.2524 31.6902 21.2143ZM26.3892 26.421C23.5502 24.5143 18.8987 24.5143 16.0387 26.421C15.5778 26.7248 15.2007 27.081 14.8864 27.4686C13.294 25.8553 12.3092 23.6448 12.3092 21.2143C12.3092 16.301 16.3007 12.3096 21.214 12.3096C26.1273 12.3096 30.1187 16.301 30.1187 21.2143C30.1187 23.6448 29.134 25.8553 27.5416 27.4686C27.2378 27.081 26.8502 26.7248 26.3892 26.421Z" fill="#3F7CDB"/>
<path d="M21.2142 15.903C19.0456 15.903 17.2856 17.663 17.2856 19.8315C17.2856 21.9582 18.9514 23.6868 21.1618 23.7496C21.1933 23.7496 21.2352 23.7496 21.2561 23.7496C21.2771 23.7496 21.3085 23.7496 21.3295 23.7496C21.3399 23.7496 21.3504 23.7496 21.3504 23.7496C23.4666 23.6763 25.1323 21.9582 25.1428 19.8315C25.1428 17.663 23.3828 15.903 21.2142 15.903Z" fill="#3F7CDB"/>
<path fill-rule="evenodd" clip-rule="evenodd" d="M0.00506998 15.321C0.00153109 15.4028 -0.000162611 15.4848 1.22789e-05 15.567L0.0292165 29.2928C0.0322732 30.7294 0.605915 32.106 1.62395 33.1197L11.3502 42.8047C12.3682 43.8184 13.7472 44.3862 15.1839 44.3831L28.9097 44.3539C30.3463 44.3508 31.7229 43.7772 32.7366 42.7592L42.4216 33.0329C43.4353 32.0149 44.003 30.6359 44 29.1992L43.9949 26.8221C43.9366 28.1694 43.3773 29.4501 42.4216 30.4099L32.7366 40.1361C31.7229 41.1541 30.3463 41.7278 28.9097 41.7308L15.1839 41.76C13.7472 41.7631 12.3682 41.1953 11.3502 40.1816L1.62395 30.4967C0.605915 29.483 0.0322732 28.1064 0.0292165 26.6697L0.00506998 15.321Z" fill="#0B1C56"/>
</svg>
