<svg width="56" height="57" viewBox="0 0 56 57" fill="none" xmlns="http://www.w3.org/2000/svg">
<circle cx="28" cy="28" r="28" fill="#E2F5F6"/>
<path d="M14.3352 2.06685C15.6254 0.771165 17.3774 0.041075 19.2059 0.0371846L36.675 1.56277e-05C38.5035 -0.00387481 40.2586 0.718754 41.5543 2.00893L53.9331 14.3352C55.2288 15.6254 55.9589 17.3774 55.9628 19.2059L56 36.675C56.0039 38.5035 55.2812 40.2586 53.9911 41.5543L41.6648 53.9331C40.3746 55.2288 38.6226 55.9589 36.7941 55.9628L19.325 56C17.4965 56.0039 15.7414 55.2812 14.4457 53.9911L2.06685 41.6648C0.771165 40.3746 0.041075 38.6226 0.0371846 36.7941L1.56277e-05 19.325C-0.00387481 17.4965 0.718754 15.7414 2.00893 14.4457L14.3352 2.06685Z" fill="white"/>
<path d="M40.3332 39.3335H38.9998V31.0001C38.9998 24.3735 33.6265 19.0001 26.9998 19.0001C20.3732 19.0001 14.9998 24.3735 14.9998 31.0001V39.3335H13.6665C13.1198 39.3335 12.6665 39.7868 12.6665 40.3335C12.6665 40.8801 13.1198 41.3335 13.6665 41.3335H40.3332C40.8798 41.3335 41.3332 40.8801 41.3332 40.3335C41.3332 39.7868 40.8798 39.3335 40.3332 39.3335Z" fill="#3F7CDB"/>
<path d="M27 16.0001C26.4533 16.0001 26 15.5467 26 15.0001V13.6667C26 13.1201 26.4533 12.6667 27 12.6667C27.5467 12.6667 28 13.1201 28 13.6667V15.0001C28 15.5467 27.5467 16.0001 27 16.0001Z" fill="#3F7CDB"/>
<path d="M17.6664 18.6668C17.4131 18.6668 17.1598 18.5735 16.9598 18.3735L15.6264 17.0401C15.2398 16.6535 15.2398 16.0135 15.6264 15.6268C16.0131 15.2401 16.6531 15.2401 17.0398 15.6268L18.3731 16.9601C18.7598 17.3468 18.7598 17.9868 18.3731 18.3735C18.1731 18.5735 17.9198 18.6668 17.6664 18.6668Z" fill="#3F7CDB"/>
<path d="M36.3331 18.6668C36.0798 18.6668 35.8264 18.5735 35.6264 18.3735C35.2398 17.9868 35.2398 17.3468 35.6264 16.9601L36.9598 15.6268C37.3464 15.2401 37.9864 15.2401 38.3731 15.6268C38.7598 16.0135 38.7598 16.6535 38.3731 17.0401L37.0398 18.3735C36.8398 18.5735 36.5864 18.6668 36.3331 18.6668Z" fill="#3F7CDB"/>
<path fill-rule="evenodd" clip-rule="evenodd" d="M0.00645321 19.5C0.00194882 19.6041 -0.000206967 19.7084 1.56277e-05 19.8131L0.0371846 37.2822C0.041075 39.1107 0.771165 40.8627 2.06685 42.1529L14.4457 54.4792C15.7414 55.7693 17.4965 56.492 19.325 56.4881L36.7941 56.4509C38.6226 56.447 40.3746 55.7169 41.6648 54.4212L53.9911 42.0424C55.2812 40.7467 56.0039 38.9916 56 37.1631L55.9935 34.1375C55.9193 35.8523 55.2074 37.4822 53.9911 38.7037L41.6648 51.0826C40.3746 52.3783 38.6226 53.1083 36.7941 53.1122L19.325 53.1494C17.4965 53.1533 15.7414 52.4307 14.4457 51.1405L2.06685 38.8142C0.771165 37.524 0.041075 35.772 0.0371846 33.9435L0.00645321 19.5Z" fill="#0B1C56"/>
</svg>
