<svg width="40" height="41" viewBox="0 0 40 41" fill="none" xmlns="http://www.w3.org/2000/svg">
<circle cx="20" cy="20" r="20" fill="#E2F5F6"/>
<path d="M10.2394 1.47632C11.161 0.550832 12.4124 0.0293393 13.7185 0.0265604L26.1965 1.11627e-05C27.5025 -0.00276772 28.7562 0.513396 29.6817 1.43495L38.5237 10.2394C39.4492 11.161 39.9707 12.4124 39.9734 13.7185L40 26.1965C40.0028 27.5025 39.4866 28.7562 38.565 29.6817L29.7606 38.5237C28.839 39.4492 27.5876 39.9707 26.2815 39.9734L13.8035 40C12.4975 40.0028 11.2438 39.4866 10.3183 38.565L1.47632 29.7606C0.550832 28.839 0.0293393 27.5876 0.0265604 26.2815L1.11627e-05 13.8035C-0.00276772 12.4975 0.513396 11.2438 1.43495 10.3183L10.2394 1.47632Z" fill="white"/>
<path d="M22.3498 8.99951H17.6498C16.6098 8.99951 15.7598 9.83951 15.7598 10.8795V11.8195C15.7598 12.8595 16.5998 13.6995 17.6398 13.6995H22.3498C23.3898 13.6995 24.2298 12.8595 24.2298 11.8195V10.8795C24.2398 9.83951 23.3898 8.99951 22.3498 8.99951Z" fill="#3F7CDB"/>
<path d="M25.24 11.82C25.24 13.41 23.94 14.71 22.35 14.71H17.65C16.06 14.71 14.76 13.41 14.76 11.82C14.76 11.26 14.16 10.91 13.66 11.17C12.25 11.92 11.29 13.41 11.29 15.12V24.53C11.29 26.99 13.3 29 15.76 29H24.24C26.7 29 28.71 26.99 28.71 24.53V15.12C28.71 13.41 27.75 11.92 26.34 11.17C25.84 10.91 25.24 11.26 25.24 11.82ZM23.34 19.73L19.34 23.73C19.19 23.88 19 23.95 18.81 23.95C18.62 23.95 18.43 23.88 18.28 23.73L16.78 22.23C16.49 21.94 16.49 21.46 16.78 21.17C17.07 20.88 17.55 20.88 17.84 21.17L18.81 22.14L22.28 18.67C22.57 18.38 23.05 18.38 23.34 18.67C23.63 18.96 23.63 19.44 23.34 19.73Z" fill="#3F7CDB"/>
<path fill-rule="evenodd" clip-rule="evenodd" d="M0.00460907 13.9282C0.0013919 14.0026 -0.000147828 14.0771 1.11627e-05 14.1518L0.0265604 26.6298C0.0293393 27.9358 0.550832 29.1873 1.47632 30.1089L10.3183 38.9133C11.2438 39.8349 12.4975 40.3511 13.8035 40.3483L26.2815 40.3217C27.5876 40.3189 28.839 39.7974 29.7606 38.872L38.565 30.0299C39.4866 29.1045 40.0028 27.8508 40 26.5447L39.9954 24.3837C39.9424 25.6086 39.4339 26.7728 38.565 27.6454L29.7606 36.4874C28.839 37.4129 27.5876 37.9344 26.2815 37.9371L13.8035 37.9637C12.4975 37.9665 11.2438 37.4503 10.3183 36.5287L1.47632 27.7243C0.550832 26.8027 0.0293393 25.5513 0.0265604 24.2452L0.00460907 13.9282Z" fill="#0B1C56"/>
</svg>
