<svg width="42" height="43" viewBox="0 0 42 43" fill="none" xmlns="http://www.w3.org/2000/svg">
<circle cx="21" cy="21" r="21" fill="#E2F5F6"/>
<path d="M10.7514 1.55013C11.719 0.578374 13.0331 0.0308063 14.4044 0.0278884L27.5063 1.17208e-05C28.8776 -0.00290611 30.194 0.539066 31.1657 1.5067L40.4499 10.7514C41.4216 11.719 41.9692 13.0331 41.9721 14.4044L42 27.5063C42.0029 28.8776 41.4609 30.194 40.4933 31.1657L31.2486 40.4499C30.281 41.4216 28.9669 41.9692 27.5956 41.9721L14.4937 42C13.1224 42.0029 11.806 41.4609 10.8343 40.4933L1.55013 31.2486C0.578374 30.281 0.0308063 28.9669 0.0278884 27.5956L1.17208e-05 14.4937C-0.00290611 13.1224 0.539066 11.806 1.5067 10.8343L10.7514 1.55013Z" fill="#D9E5F8"/>
<path fill-rule="evenodd" clip-rule="evenodd" d="M0.00483941 14.625C0.00146146 14.703 -0.000155217 14.7813 1.17208e-05 14.8598L0.0278884 27.9616C0.0308063 29.333 0.578374 30.647 1.55013 31.6147L10.8343 40.8594C11.806 41.827 13.1224 42.369 14.4937 42.366L27.5956 42.3382C28.9669 42.3353 30.281 41.7877 31.2486 40.8159L40.4933 31.5318C41.4609 30.56 42.0029 29.2437 42 27.8723L41.9952 25.6034C41.9395 26.8894 41.4056 28.1119 40.4933 29.028L31.2486 38.3122C30.281 39.2839 28.9669 39.8315 27.5956 39.8344L14.4937 39.8623C13.1224 39.8652 11.806 39.3232 10.8343 38.3556L1.55013 29.1109C0.578374 28.1433 0.0308063 26.8292 0.0278884 25.4579L0.00483941 14.625Z" fill="#0B1C56"/>
<path d="M20.87 26.78C17.1367 26.78 15.17 25.0933 14.97 21.72L18.35 21.54C18.4967 23.1667 19.2967 23.98 20.75 23.98C21.39 23.98 21.9033 23.8333 22.29 23.54C22.69 23.2467 22.89 22.8 22.89 22.2C22.89 21.08 22.1833 20.52 20.77 20.52H19.57V18.24H20.67C22.0433 18.24 22.73 17.6933 22.73 16.6C22.73 16.08 22.5633 15.6867 22.23 15.42C21.8967 15.1533 21.4367 15.02 20.85 15.02C19.53 15.02 18.7833 15.7133 18.61 17.1L15.05 16.9C15.2767 15.3267 15.9033 14.1533 16.93 13.38C17.97 12.6067 19.3367 12.22 21.03 12.22C22.7367 12.22 24.05 12.5867 24.97 13.32C25.9033 14.04 26.37 14.9533 26.37 16.06C26.37 16.8067 26.15 17.46 25.71 18.02C25.2833 18.5667 24.6633 18.9667 23.85 19.22C25.69 19.6467 26.61 20.7467 26.61 22.52C26.61 23.9467 26.0833 25.0133 25.03 25.72C23.9767 26.4267 22.59 26.78 20.87 26.78Z" fill="black"/>
</svg>
