<svg width="42" height="43" viewBox="0 0 42 43" fill="none" xmlns="http://www.w3.org/2000/svg">
<circle cx="21" cy="21" r="21" fill="#E2F5F6"/>
<path d="M10.7514 1.55013C11.719 0.578374 13.0331 0.0308063 14.4044 0.0278884L27.5063 1.17208e-05C28.8776 -0.00290611 30.194 0.539066 31.1657 1.5067L40.4499 10.7514C41.4216 11.719 41.9692 13.0331 41.9721 14.4044L42 27.5063C42.0029 28.8776 41.4609 30.194 40.4933 31.1657L31.2486 40.4499C30.281 41.4216 28.9669 41.9692 27.5956 41.9721L14.4937 42C13.1224 42.0029 11.806 41.4609 10.8343 40.4933L1.55013 31.2486C0.578374 30.281 0.0308063 28.9669 0.0278884 27.5956L1.17208e-05 14.4937C-0.00290611 13.1224 0.539066 11.806 1.5067 10.8343L10.7514 1.55013Z" fill="#D9E5F8"/>
<path fill-rule="evenodd" clip-rule="evenodd" d="M0.00483941 14.625C0.00146146 14.703 -0.000155217 14.7813 1.17208e-05 14.8598L0.0278884 27.9616C0.0308063 29.333 0.578374 30.647 1.55013 31.6147L10.8343 40.8594C11.806 41.827 13.1224 42.369 14.4937 42.366L27.5956 42.3382C28.9669 42.3353 30.281 41.7877 31.2486 40.8159L40.4933 31.5318C41.4609 30.56 42.0029 29.2437 42 27.8723L41.9952 25.6034C41.9395 26.8894 41.4056 28.1119 40.4933 29.028L31.2486 38.3122C30.281 39.2839 28.9669 39.8315 27.5956 39.8344L14.4937 39.8623C13.1224 39.8652 11.806 39.3232 10.8343 38.3556L1.55013 29.1109C0.578374 28.1433 0.0308063 26.8292 0.0278884 25.4579L0.00483941 14.625Z" fill="#0B1C56"/>
<path d="M14.99 25.36C14.99 24.0267 15.31 22.9333 15.95 22.08C16.59 21.2267 17.5433 20.5067 18.81 19.92L20.33 19.22C21.2767 18.8067 21.93 18.42 22.29 18.06C22.6633 17.7 22.85 17.26 22.85 16.74C22.85 16.2067 22.6833 15.7933 22.35 15.5C22.03 15.1933 21.57 15.04 20.97 15.04C20.3033 15.04 19.77 15.2333 19.37 15.62C18.9833 16.0067 18.7767 16.5667 18.75 17.3L15.19 17.12C15.55 13.8533 17.51 12.22 21.07 12.22C22.8567 12.22 24.21 12.62 25.13 13.42C26.05 14.2067 26.51 15.28 26.51 16.64C26.51 17.7467 26.2033 18.66 25.59 19.38C24.9767 20.1 24.0367 20.7333 22.77 21.28L21.19 21.98C20.4167 22.3533 19.8633 22.68 19.53 22.96C19.21 23.2267 19.0167 23.4933 18.95 23.76H26.09V26.5H14.99V25.36Z" fill="black"/>
</svg>
