<svg width="40" height="41" viewBox="0 0 40 41" fill="none" xmlns="http://www.w3.org/2000/svg">
<circle cx="20" cy="20" r="20" fill="#E2F5F6"/>
<path d="M10.2394 1.47632C11.161 0.550832 12.4124 0.0293393 13.7185 0.0265604L26.1965 1.11627e-05C27.5025 -0.00276772 28.7562 0.513396 29.6817 1.43495L38.5237 10.2394C39.4492 11.161 39.9707 12.4124 39.9734 13.7185L40 26.1965C40.0028 27.5025 39.4866 28.7562 38.565 29.6817L29.7606 38.5237C28.839 39.4492 27.5876 39.9707 26.2815 39.9734L13.8035 40C12.4975 40.0028 11.2438 39.4866 10.3183 38.565L1.47632 29.7606C0.550832 28.839 0.0293393 27.5876 0.0265604 26.2815L1.11627e-05 13.8035C-0.00276772 12.4975 0.513396 11.2438 1.43495 10.3183L10.2394 1.47632Z" fill="white"/>
<path d="M24.0002 14.9995H16.0002V22.9995H24.0002V14.9995Z" fill="#3F7CDB"/>
<path d="M10.0002 26.0005C10.0002 27.6505 11.3502 29.0005 13.0002 29.0005C14.6502 29.0005 16.0002 27.6505 16.0002 26.0005V23.0005H13.0002C11.3502 23.0005 10.0002 24.3505 10.0002 26.0005Z" fill="#3F7CDB"/>
<path d="M13.0002 8.99951C11.3502 8.99951 10.0002 10.3495 10.0002 11.9995C10.0002 13.6495 11.3502 14.9995 13.0002 14.9995H16.0002V11.9995C16.0002 10.3495 14.6502 8.99951 13.0002 8.99951Z" fill="#3F7CDB"/>
<path d="M29.9998 11.9995C29.9998 10.3495 28.6498 8.99951 26.9998 8.99951C25.3498 8.99951 23.9998 10.3495 23.9998 11.9995V14.9995H26.9998C28.6498 14.9995 29.9998 13.6495 29.9998 11.9995Z" fill="#3F7CDB"/>
<path d="M26.9998 23.0005H23.9998V26.0005C23.9998 27.6505 25.3498 29.0005 26.9998 29.0005C28.6498 29.0005 29.9998 27.6505 29.9998 26.0005C29.9998 24.3505 28.6498 23.0005 26.9998 23.0005Z" fill="#3F7CDB"/>
<path fill-rule="evenodd" clip-rule="evenodd" d="M0.00460907 13.9282C0.0013919 14.0026 -0.000147828 14.0771 1.11627e-05 14.1518L0.0265604 26.6298C0.0293393 27.9358 0.550832 29.1873 1.47632 30.1089L10.3183 38.9133C11.2438 39.8349 12.4975 40.3511 13.8035 40.3483L26.2815 40.3217C27.5876 40.3189 28.839 39.7974 29.7606 38.872L38.565 30.0299C39.4866 29.1045 40.0028 27.8508 40 26.5447L39.9954 24.3837C39.9424 25.6086 39.4339 26.7728 38.565 27.6454L29.7606 36.4874C28.839 37.4129 27.5876 37.9344 26.2815 37.9371L13.8035 37.9637C12.4975 37.9665 11.2438 37.4503 10.3183 36.5287L1.47632 27.7243C0.550832 26.8027 0.0293393 25.5513 0.0265604 24.2452L0.00460907 13.9282Z" fill="#0B1C56"/>
</svg>
