<svg width="56" height="57" viewBox="0 0 56 57" fill="none" xmlns="http://www.w3.org/2000/svg">
<circle cx="28" cy="28" r="28" fill="#E2F5F6"/>
<path d="M14.3352 2.06685C15.6254 0.771165 17.3774 0.041075 19.2059 0.0371846L36.675 1.56277e-05C38.5035 -0.00387481 40.2586 0.718754 41.5543 2.00893L53.9331 14.3352C55.2288 15.6254 55.9589 17.3774 55.9628 19.2059L56 36.675C56.0039 38.5035 55.2812 40.2586 53.9911 41.5543L41.6648 53.9331C40.3746 55.2288 38.6226 55.9589 36.7941 55.9628L19.325 56C17.4965 56.0039 15.7414 55.2812 14.4457 53.9911L2.06685 41.6648C0.771165 40.3746 0.041075 38.6226 0.0371846 36.7941L1.56277e-05 19.325C-0.00387481 17.4965 0.718754 15.7414 2.00893 14.4457L14.3352 2.06685Z" fill="white"/>
<path d="M40.3998 25.0001H15.1998C14.4298 25.0001 13.7998 25.6301 13.7998 26.4001V33.6661C13.7998 33.9461 13.8138 34.2261 13.8418 34.5061C14.1218 38.8181 16.7818 41.4781 21.0938 41.7581C21.3738 41.7861 21.6538 41.8001 21.9338 41.8001H33.6658C33.9458 41.8001 34.2258 41.7861 34.5058 41.7581C38.8178 41.4781 41.4778 38.8181 41.7578 34.5061C41.7858 34.2261 41.7998 33.9461 41.7998 33.6661V26.4001C41.7998 25.6301 41.1698 25.0001 40.3998 25.0001ZM22.1998 33.6101C22.6758 34.3101 23.3198 34.8841 24.0618 35.2621C24.5938 35.5141 24.8038 36.1441 24.5378 36.6761C24.3558 37.0401 23.9778 37.2501 23.5998 37.2501C23.4458 37.2501 23.2778 37.2081 23.1378 37.1381C22.0458 36.6061 21.1218 35.7801 20.4638 34.7861C19.9038 33.9461 19.9038 32.8541 20.4638 32.0141C21.1218 31.0201 22.0458 30.1941 23.1378 29.6621C23.6558 29.3961 24.2858 29.6061 24.5378 30.1241C24.8038 30.6561 24.5938 31.2861 24.0618 31.5381C23.3198 31.9161 22.6758 32.4901 22.1998 33.1901C22.1158 33.3161 22.1158 33.4841 22.1998 33.6101ZM35.4298 34.7861C34.7578 35.7801 33.8338 36.6061 32.7558 37.1381C32.6018 37.2081 32.4478 37.2501 32.2938 37.2501C31.9018 37.2501 31.5378 37.0401 31.3558 36.6761C31.0898 36.1441 31.2998 35.5141 31.8178 35.2621C32.5738 34.8841 33.2178 34.3101 33.6798 33.6101C33.7778 33.4841 33.7778 33.3161 33.6798 33.1901C33.2178 32.4901 32.5738 31.9161 31.8178 31.5381C31.2998 31.2861 31.0898 30.6561 31.3558 30.1241C31.6078 29.6061 32.2378 29.3961 32.7558 29.6621C33.8338 30.1941 34.7578 31.0201 35.4298 32.0141C35.9898 32.8541 35.9898 33.9461 35.4298 34.7861Z" fill="#3F7CDB"/>
<path d="M41.7998 21.9342V22.2002C41.7998 22.9702 41.1698 23.6002 40.3998 23.6002L15.1998 23.6142C14.4298 23.6142 13.7998 22.9842 13.7998 22.2142V21.9342C13.7998 21.6542 13.8138 21.3742 13.8418 21.0942C14.1218 16.7822 16.7818 14.1222 21.0938 13.8422C21.3738 13.8142 21.6538 13.8002 21.9338 13.8002H33.6658C33.9458 13.8002 34.2258 13.8142 34.5058 13.8422C38.8178 14.1222 41.4778 16.7822 41.7578 21.0942C41.7858 21.3742 41.7998 21.6542 41.7998 21.9342Z" fill="#3F7CDB"/>
<path fill-rule="evenodd" clip-rule="evenodd" d="M0.0064527 19.4995C0.00194866 19.6036 -0.000206959 19.7079 1.56277e-05 19.8126L0.0371846 37.2817C0.041075 39.1102 0.771165 40.8622 2.06685 42.1524L14.4457 54.4787C15.7414 55.7688 17.4965 56.4915 19.325 56.4876L36.7941 56.4504C38.6226 56.4465 40.3746 55.7164 41.6648 54.4207L53.9911 42.0419C55.2812 40.7462 56.0039 38.9911 56 37.1626L55.9935 34.1373C55.9193 35.852 55.2074 37.4819 53.9911 38.7035L41.6648 51.0823C40.3746 52.378 38.6226 53.1081 36.7941 53.112L19.325 53.1492C17.4965 53.153 15.7414 52.4304 14.4457 51.1402L2.06685 38.814C0.771165 37.5238 0.041075 35.7717 0.0371846 33.9433L0.0064527 19.4995Z" fill="#0B1C56"/>
</svg>
