<svg width="115" height="22" viewBox="0 0 115 22" fill="none" xmlns="http://www.w3.org/2000/svg">
<g clip-path="url(#clip0_2019_10076)">
<path d="M0 6.19864H6.79111V0L0 6.19864Z" fill="#22BE87"/>
<path d="M2.45557 12.3172H12.6543V3.01193L2.45557 12.3172Z" fill="#22BE87"/>
<path d="M4.86621 21.5744H21.8959V6.05112L4.86621 21.5744Z" fill="#22BE87"/>
<path d="M40.9875 16.3645C39.3588 17.8229 37.1664 18.64 34.8828 18.64C32.599 18.64 30.4066 17.8229 28.7779 16.3645C27.966 15.6401 27.3254 14.7719 26.8958 13.8133C26.4663 12.8548 26.2567 11.8262 26.2801 10.7911C26.257 9.75599 26.4667 8.72754 26.8962 7.76903C27.3258 6.81052 27.9662 5.94225 28.7779 5.21765C30.4066 3.75931 32.599 2.94214 34.8828 2.94214C37.1664 2.94214 39.3588 3.75931 40.9875 5.21765C41.8022 5.94073 42.4453 6.8085 42.8768 7.76721C43.3082 8.72592 43.5189 9.75514 43.496 10.7911C43.5193 11.827 43.3087 12.8563 42.8771 13.8151C42.4456 14.7739 41.8024 15.6416 40.9875 16.3645ZM31.0629 14.3363C32.0905 15.2291 33.4561 15.7272 34.8761 15.7272C36.2961 15.7272 37.6616 15.2291 38.6893 14.3363C39.1993 13.8727 39.5991 13.3186 39.8641 12.7083C40.1291 12.0981 40.2535 11.4446 40.2295 10.7886C40.253 10.131 40.1286 9.47582 39.8638 8.86361C39.5988 8.25139 39.1992 7.69507 38.6893 7.22893C37.6658 6.32886 36.2986 5.82584 34.8761 5.82584C33.4534 5.82584 32.0864 6.32886 31.0629 7.22893C30.5535 7.69528 30.1543 8.25168 29.8899 8.86389C29.6254 9.4761 29.5015 10.1311 29.5254 10.7886C29.5009 11.4445 29.6247 12.0978 29.8892 12.7081C30.1537 13.3184 30.5532 13.8726 31.0629 14.3363Z" fill="#22BE87"/>
<path d="M53.5832 7.55075H56.6369V18.339H53.5832V17.1273C52.8402 18.1338 51.6635 18.6371 50.0533 18.6371C49.4571 18.6532 48.8639 18.5557 48.3114 18.3507C47.7589 18.1459 47.2596 17.8381 46.8453 17.4473C45.9994 16.654 45.5774 15.5603 45.5791 14.1661V7.55075H48.6328V13.8293C48.6328 14.5482 48.8457 15.0983 49.2713 15.4795C49.4991 15.6739 49.7674 15.8245 50.0603 15.9228C50.3531 16.0209 50.6646 16.0647 50.9764 16.0514C51.3261 16.0662 51.6755 16.0143 52.0021 15.8992C52.3286 15.784 52.6253 15.6081 52.873 15.3826C53.3464 14.9368 53.5832 14.268 53.5832 13.3762V7.55075Z" fill="#22BE87"/>
<path d="M62.4835 9.40743C62.7351 8.75311 63.2352 8.20224 63.8933 7.85414C64.5588 7.50555 65.3149 7.32644 66.0826 7.33557V10.4421C65.2083 10.3305 64.3195 10.5151 63.5847 10.9607C62.8506 11.4066 62.4835 12.1473 62.4835 13.1828V18.3395H59.4297V7.55123H62.4835V9.40743Z" fill="#22BE87"/>
<path d="M74.1907 3.2374C74.9343 3.22187 75.6735 3.34377 76.3639 3.59574C77.0542 3.84771 77.6814 4.22454 78.2075 4.70346C78.7384 5.16867 79.1579 5.729 79.4395 6.34916C79.721 6.9693 79.8585 7.63585 79.8434 8.30681C79.8584 8.97775 79.7207 9.64425 79.4392 10.2644C79.1577 10.8845 78.7383 11.4449 78.2075 11.9101C77.6811 12.3886 77.0539 12.7651 76.3635 13.0171C75.6733 13.269 74.9342 13.3912 74.1907 13.3762H71.2914V18.339H68.0088V3.2374H74.1907ZM74.1907 10.5919C74.5135 10.6 74.8345 10.5456 75.1326 10.4324C75.4306 10.3192 75.699 10.1498 75.9198 9.93522C76.1472 9.71872 76.3254 9.46339 76.4442 9.18393C76.5628 8.90446 76.6197 8.60637 76.6115 8.30681C76.6226 8.00551 76.5677 7.70522 76.4498 7.42353C76.3319 7.14183 76.1536 6.88438 75.9252 6.66628C75.7025 6.45435 75.4337 6.28728 75.1359 6.17584C74.8381 6.06439 74.5179 6.01106 74.1961 6.01927H71.2914V10.5919H74.1907Z" fill="#22BE87"/>
<path d="M90.0551 7.55054H93.1009V18.3388H90.0551V17.0642C89.1365 18.1159 87.8498 18.6409 86.1953 18.6392C85.4281 18.6449 84.6685 18.5005 83.9677 18.2158C83.267 17.9312 82.6415 17.5129 82.1334 16.989C81.0062 15.8967 80.3974 14.4434 80.439 12.9447C80.3974 11.4459 81.0062 9.99265 82.1334 8.90028C82.6402 8.37776 83.2641 7.96014 83.9628 7.6755C84.6617 7.39086 85.4192 7.2458 86.1846 7.25006C87.841 7.25006 89.1276 7.77429 90.0444 8.82274L90.0551 7.55054ZM84.4184 15.1329C84.7225 15.4159 85.0879 15.6386 85.4912 15.7866C85.8946 15.9347 86.3272 16.005 86.7619 15.9931C87.1971 16.0032 87.63 15.9321 88.034 15.7842C88.4378 15.6363 88.8043 15.4146 89.1107 15.1329C89.4212 14.8463 89.6644 14.5051 89.8254 14.1302C89.9864 13.7553 90.0618 13.3543 90.047 12.9519C90.0612 12.5495 89.9855 12.1488 89.8245 11.774C89.6635 11.3991 89.4207 11.0578 89.1107 10.771C88.8025 10.4901 88.4343 10.2698 88.029 10.1235C87.6236 9.97719 87.1897 9.9081 86.7539 9.92046C86.3201 9.90774 85.8881 9.97672 85.4848 10.1231C85.0816 10.2694 84.7157 10.49 84.4104 10.771C84.1033 11.0592 83.8633 11.4009 83.7047 11.7757C83.5461 12.1504 83.4721 12.5505 83.4873 12.9519C83.4726 13.3539 83.5475 13.7544 83.7074 14.1294C83.8675 14.5042 84.1094 14.8456 84.4184 15.1329Z" fill="#22BE87"/>
<path d="M98.5992 10.6138C98.5992 10.9021 98.8066 11.1372 99.2268 11.3165C99.7178 11.5221 100.229 11.6843 100.754 11.8012C101.364 11.94 101.965 12.1123 102.552 12.3173C103.159 12.53 103.688 12.8925 104.081 13.3641C104.513 13.8931 104.734 14.5399 104.709 15.1985C104.735 15.6944 104.624 16.1884 104.386 16.6351C104.148 17.0817 103.791 17.4668 103.347 17.755C102.348 18.3757 101.157 18.689 99.9478 18.6492C97.5164 18.6492 95.8593 17.7939 94.9761 16.083L97.6361 14.7236C97.982 15.6589 98.7552 16.1267 99.9557 16.1267C101.046 16.1267 101.589 15.8165 101.589 15.1985C101.589 14.9102 101.382 14.6775 100.961 14.4957C100.469 14.2932 99.9581 14.1311 99.4344 14.0111C98.8171 13.8622 98.2105 13.6794 97.6175 13.4635C97.0186 13.2488 96.4914 12.8954 96.088 12.4384C95.6586 11.9375 95.4372 11.3144 95.4629 10.6792C95.4409 10.1968 95.5467 9.71661 95.7712 9.27925C95.9958 8.84189 96.3325 8.46016 96.7531 8.1663C97.6763 7.53643 98.8083 7.2132 99.9611 7.25031C100.878 7.23963 101.783 7.4432 102.589 7.84158C103.371 8.23787 104.016 8.82539 104.451 9.53785L101.874 10.8294C101.721 10.4905 101.457 10.2029 101.118 10.0059C100.779 9.80899 100.381 9.71236 99.9797 9.72928C99.6332 9.71889 99.2913 9.80329 98.9981 9.9716C98.8761 10.0378 98.775 10.1318 98.7051 10.2444C98.635 10.3571 98.5986 10.4844 98.5992 10.6138Z" fill="#22BE87"/>
<path d="M108.886 10.6141C108.886 10.9025 109.096 11.1375 109.514 11.3169C110.006 11.522 110.518 11.6843 111.043 11.8015C111.654 11.9403 112.254 12.1128 112.842 12.3177C113.448 12.5298 113.977 12.8925 114.369 13.3646C114.802 13.8927 115.023 14.5401 114.996 15.1989C115.023 15.6949 114.912 16.1889 114.674 16.6357C114.436 17.0824 114.078 17.4674 113.634 17.7554C112.636 18.3764 111.446 18.6898 110.238 18.6496C107.806 18.6496 106.148 17.7942 105.263 16.0833L107.923 14.7239C108.278 15.6594 109.052 16.127 110.245 16.127C111.334 16.127 111.879 15.8177 111.879 15.1989C111.879 14.9105 111.669 14.678 111.251 14.4962C110.759 14.2936 110.248 14.1314 109.724 14.0116C109.112 13.8652 108.511 13.6855 107.923 13.4735C107.325 13.2587 106.799 12.9054 106.396 12.4485C105.966 11.9479 105.744 11.3247 105.769 10.6892C105.747 10.2069 105.853 9.72689 106.078 9.28959C106.302 8.85229 106.638 8.47051 107.059 8.17637C107.983 7.54702 109.116 7.22389 110.269 7.26038C111.186 7.24971 112.091 7.45327 112.897 7.85166C113.68 8.24743 114.325 8.83507 114.76 9.54792L112.155 10.8419C112.003 10.503 111.739 10.2154 111.4 10.0184C111.061 9.8215 110.663 9.72485 110.261 9.74177C109.914 9.73135 109.571 9.81573 109.277 9.9841C109.158 10.0501 109.06 10.1426 108.992 10.2529C108.923 10.3631 108.887 10.4875 108.886 10.6141Z" fill="#22BE87"/>
</g>
<defs>
<clipPath id="clip0_2019_10076">
<rect width="115" height="22" fill="white"/>
</clipPath>
</defs>
</svg>
