<svg width="315" height="664" viewBox="0 0 315 664" fill="none" xmlns="http://www.w3.org/2000/svg">
<g clip-path="url(#clip0_2135_13325)">
<path d="M-419.354 -18.0504L-364.26 -72.6795C-347.988 -88.7196 -321.719 -88.7196 -305.679 -72.4471L300.588 538.469C316.628 554.742 316.628 581.01 300.355 597.05L245.261 651.679C228.989 667.719 202.72 667.719 186.68 651.447L-419.587 40.5306C-435.627 24.2581 -435.627 -1.77793 -419.354 -18.0504Z" stroke="#9FBEED" stroke-width="0.3529" stroke-miterlimit="10"/>
<path d="M-414.704 0.0823925L-346.36 -67.7972C-329.855 -84.0697 -303.354 -84.0697 -287.081 -67.5647L295.939 519.64C312.212 536.145 312.212 562.646 295.707 578.919L227.362 646.798C210.857 663.071 184.356 663.071 168.084 646.566L-414.937 59.3608C-431.209 43.0883 -430.977 16.3549 -414.704 0.0823925Z" stroke="#9FBEED" stroke-width="0.3529" stroke-miterlimit="10"/>
<path d="M-410.055 18.2142L-328.227 -62.9158C-311.722 -79.4208 -284.757 -79.4208 -268.252 -62.6833L291.29 500.81C307.795 517.315 307.795 544.281 291.057 560.786L209.23 641.916C192.725 658.421 165.759 658.421 149.254 641.683L-410.055 78.19C-426.56 61.6851 -426.56 34.7192 -410.055 18.2142Z" stroke="#9FBEED" stroke-width="0.3529" stroke-miterlimit="10"/>
<path d="M-405.173 36.3463L-310.095 -58.0342C-293.358 -74.7717 -266.159 -74.5392 -249.422 -57.8018L286.641 481.98C303.378 498.718 303.146 525.916 286.408 542.654L191.33 637.034C174.593 653.771 147.395 653.539 130.657 636.802L-405.406 97.0195C-422.143 80.282 -422.143 53.0837 -405.173 36.3463Z" stroke="#9FBEED" stroke-width="0.3529" stroke-miterlimit="10"/>
<path d="M-400.525 54.4791L-291.964 -53.3843C-274.994 -70.3542 -247.563 -70.1217 -230.594 -53.1518L281.99 463.151C298.96 480.121 298.728 507.552 281.758 524.522L173.197 632.385C156.227 649.355 128.796 649.123 111.826 632.153L-400.757 115.85C-417.727 98.8798 -417.495 71.449 -400.525 54.4791Z" stroke="#9FBEED" stroke-width="0.3529" stroke-miterlimit="10"/>
<path d="M-395.876 72.6113L-273.832 -48.5027C-256.63 -65.4726 -228.966 -65.4726 -211.764 -48.2702L277.108 444.322C294.078 461.524 294.078 489.187 276.876 506.39L154.832 627.504C137.63 644.473 109.967 644.473 92.7643 627.271L-396.108 134.679C-413.078 117.477 -413.078 89.8136 -395.876 72.6113Z" stroke="#9FBEED" stroke-width="0.3529" stroke-miterlimit="10"/>
<path d="M-391.226 90.7431L-255.931 -43.6213C-238.497 -60.8236 -210.368 -60.8236 -193.166 -43.3888L272.228 425.492C289.43 442.927 289.43 471.055 271.995 488.257L136.701 622.621C119.266 639.824 91.1379 639.824 73.9355 622.389L-391.458 153.508C-408.66 136.074 -408.428 108.178 -391.226 90.7431Z" stroke="#9FBEED" stroke-width="0.3529" stroke-miterlimit="10"/>
<path d="M-386.343 108.875L-237.566 -38.7399C-219.899 -56.1747 -191.538 -56.1747 -174.103 -38.5074L267.811 406.662C285.246 424.329 285.246 452.69 267.579 470.124L118.802 617.739C101.134 635.174 72.7736 635.174 55.3388 617.507L-386.576 172.338C-404.011 154.67 -404.011 126.31 -386.343 108.875Z" stroke="#9FBEED" stroke-width="0.3529" stroke-miterlimit="10"/>
<path d="M-381.694 127.008L-219.667 -33.8574C-202 -51.5247 -173.174 -51.2922 -155.507 -33.6249L262.929 387.833C280.596 405.5 280.364 434.326 262.697 451.993L100.669 613.091C83.0018 630.758 54.1762 630.526 36.5089 612.858L-381.927 191.401C-399.594 173.501 -399.594 144.675 -381.694 127.008Z" stroke="#9FBEED" stroke-width="0.3529" stroke-miterlimit="10"/>
<path d="M-377.046 145.14L-201.536 -29.2084C-183.636 -47.1082 -154.578 -46.8757 -136.678 -28.976L258.279 369.003C276.178 386.903 275.946 415.961 258.046 433.86L82.5357 608.209C64.6359 626.109 35.5779 625.876 17.6781 607.976L-377.279 209.997C-395.178 192.098 -394.946 163.04 -377.046 145.14Z" stroke="#9FBEED" stroke-width="0.3529" stroke-miterlimit="10"/>
<path d="M-372.397 163.272L-183.404 -24.3271C-165.271 -42.4593 -135.981 -42.2268 -117.849 -24.0946L253.629 350.173C271.761 368.305 271.529 397.596 253.397 415.728L64.4034 603.327C46.2711 621.459 16.9807 621.226 -1.15156 603.094L-372.629 228.827C-390.529 210.694 -390.529 181.404 -372.397 163.272Z" stroke="#9FBEED" stroke-width="0.3529" stroke-miterlimit="10"/>
<path d="M-367.747 181.404L-165.503 -19.4454C-147.138 -37.5776 -117.615 -37.5776 -99.2506 -19.2129L248.749 331.343C266.881 349.708 266.881 379.231 248.516 397.596L46.2721 598.445C27.9074 616.577 -1.6156 616.577 -19.9803 598.212L-367.979 247.656C-386.112 229.291 -385.879 199.768 -367.747 181.404Z" stroke="#9FBEED" stroke-width="0.3529" stroke-miterlimit="10"/>
<path d="M-362.865 199.536L-147.138 -14.564C-128.541 -32.9287 -98.5529 -32.9287 -80.1882 -14.3315L244.332 312.513C262.697 331.11 262.697 361.098 244.1 379.463L28.3726 593.563C9.77548 611.927 -20.2124 611.927 -38.5771 593.33L-363.097 266.485C-381.462 247.888 -381.462 217.9 -362.865 199.536Z" stroke="#9FBEED" stroke-width="0.3529" stroke-miterlimit="10"/>
<path d="M-358.216 217.668L-129.006 -9.91407C-110.176 -28.5112 -79.956 -28.5112 -61.3589 -9.6816L239.682 293.684C258.279 312.514 258.279 342.734 239.45 361.331L10.2401 588.914C-8.58951 607.511 -38.8099 607.511 -57.407 588.682L-358.448 285.316C-377.045 266.486 -377.045 236.266 -358.216 217.668Z" stroke="#9FBEED" stroke-width="0.3529" stroke-miterlimit="10"/>
<path d="M-353.566 235.8L-111.106 -4.80013C-92.2759 -23.6297 -61.5906 -23.3973 -42.761 -4.56767L234.801 275.087C253.631 293.916 253.399 324.602 234.569 343.431L-7.89133 584.032C-26.7209 602.861 -57.4063 602.629 -76.2359 583.799L-353.798 304.145C-372.628 285.315 -372.395 254.63 -353.566 235.8Z" stroke="#9FBEED" stroke-width="0.3529" stroke-miterlimit="10"/>
<path d="M-95.0658 578.917L-349.149 322.974C-368.211 303.912 -367.979 272.994 -348.917 253.932L-92.9736 -0.151177C-73.9115 -19.2132 -42.9938 -18.9808 -23.9317 0.0812841L230.152 256.024C249.214 275.087 248.981 306.004 229.919 325.066L-26.0238 579.15C-45.0859 598.212 -76.0037 597.979 -95.0658 578.917Z" stroke="#9FBEED" stroke-width="0.3529" stroke-miterlimit="10"/>
<path d="M-113.198 583.567L-353.798 341.107C-372.628 322.277 -372.395 291.592 -353.566 272.762L-74.1437 -4.80013C-55.3141 -23.6297 -24.6288 -23.3973 -5.7992 -4.56767L235.034 237.893C253.863 256.722 253.631 287.408 234.801 306.237L-44.8532 583.799C-63.6828 602.629 -94.3681 602.629 -113.198 583.567Z" stroke="#9FBEED" stroke-width="0.3529" stroke-miterlimit="10"/>
<path d="M-131.331 588.216L-358.913 359.007C-377.51 340.177 -377.51 309.957 -358.681 291.36L-55.3147 -9.44923C-36.4851 -28.0464 -6.26473 -28.0464 12.3324 -9.21677L239.915 219.993C258.512 238.823 258.512 269.043 239.682 287.64L-63.6834 588.449C-82.513 607.046 -112.733 607.046 -131.331 588.216Z" stroke="#9FBEED" stroke-width="0.3529" stroke-miterlimit="10"/>
<path d="M-149.462 593.098L-363.562 377.371C-381.927 358.774 -381.927 328.786 -363.33 310.421L-36.4848 -14.0992C-17.8876 -32.4638 12.1003 -32.4638 30.4649 -13.8667L244.564 201.86C262.929 220.457 262.929 250.445 244.332 268.81L-82.5127 593.33C-101.11 611.695 -131.098 611.462 -149.462 593.098Z" stroke="#9FBEED" stroke-width="0.3529" stroke-miterlimit="10"/>
<path d="M-167.594 597.747L-368.443 395.503C-386.576 377.139 -386.576 347.616 -368.211 329.251L-17.6548 -18.9805C0.709911 -37.1128 30.2329 -37.1128 48.5976 -18.7481L249.447 183.496C267.579 201.861 267.579 231.384 249.214 249.748L-101.342 597.98C-119.707 616.112 -149.23 616.112 -167.594 597.747Z" stroke="#9FBEED" stroke-width="0.3529" stroke-miterlimit="10"/>
<path d="M-185.726 602.397L-373.325 413.403C-391.457 395.271 -391.225 365.98 -373.093 347.848L1.1749 -23.6298C19.3071 -41.762 48.5976 -41.5295 66.7298 -23.3973L254.329 165.596C272.461 183.728 272.228 213.019 254.096 231.151L-120.171 602.629C-138.304 620.761 -167.594 620.529 -185.726 602.397Z" stroke="#9FBEED" stroke-width="0.3529" stroke-miterlimit="10"/>
<path d="M-203.86 607.046L-378.208 431.536C-396.108 413.636 -395.876 384.578 -377.976 366.678L20.003 -28.2787C37.9027 -46.1785 66.9607 -45.946 84.8605 -28.0463L259.209 147.464C277.109 165.364 276.876 194.422 258.976 212.322L-139.003 607.279C-156.902 625.178 -185.96 624.946 -203.86 607.046Z" stroke="#9FBEED" stroke-width="0.3529" stroke-miterlimit="10"/>
<path d="M-221.992 611.696L-382.857 449.668C-400.525 432.001 -400.292 403.175 -382.625 385.508L38.8329 -32.9277C56.5002 -50.595 85.3258 -50.3625 102.993 -32.6952L264.091 129.565C281.758 147.232 281.526 176.058 263.858 193.725L-157.599 612.161C-175.499 629.595 -204.325 629.595 -221.992 611.696Z" stroke="#9FBEED" stroke-width="0.3529" stroke-miterlimit="10"/>
<path d="M-240.123 616.577L-387.738 467.8C-405.173 450.132 -405.173 421.772 -387.505 404.337L57.6636 -37.5778C75.3309 -55.0126 103.692 -55.0126 121.126 -37.3453L268.741 111.432C286.176 129.099 286.176 157.46 268.509 174.895L-176.66 616.809C-194.328 634.244 -222.688 634.011 -240.123 616.577Z" stroke="#9FBEED" stroke-width="0.3529" stroke-miterlimit="10"/>
<path d="M-258.257 621.226L-392.621 485.932C-409.824 468.497 -409.824 440.369 -392.389 423.167L76.4917 -42.4592C93.9265 -59.6615 122.055 -59.6615 139.257 -42.2267L273.621 93.0675C290.824 110.502 290.824 138.631 273.389 155.833L-195.492 621.459C-212.926 638.661 -240.822 638.661 -258.257 621.226Z" stroke="#9FBEED" stroke-width="0.3529" stroke-miterlimit="10"/>
<path d="M-276.389 625.876L-397.503 503.832C-414.473 486.63 -414.473 458.967 -397.27 441.764L95.3217 -47.1081C112.524 -64.078 140.187 -64.078 157.39 -46.8757L278.504 75.1681C295.473 92.3704 295.473 120.034 278.271 137.236L-214.321 626.108C-231.523 643.311 -259.186 643.078 -276.389 625.876Z" stroke="#9FBEED" stroke-width="0.3529" stroke-miterlimit="10"/>
<path d="M-294.521 630.525L-402.384 521.964C-419.354 504.995 -419.122 477.564 -402.152 460.594L114.151 -51.7574C131.121 -68.7272 158.552 -68.4948 175.522 -51.5249L283.385 57.0359C300.355 74.0058 300.123 101.437 283.153 118.406L-233.15 630.758C-250.12 647.728 -277.551 647.495 -294.521 630.525Z" stroke="#9FBEED" stroke-width="0.3529" stroke-miterlimit="10"/>
<path d="M-312.653 635.407L-407.033 540.329C-423.771 523.591 -423.538 496.393 -406.801 479.655L132.981 -56.4073C149.719 -73.1447 176.917 -72.9122 193.654 -56.1748L288.035 38.9031C304.772 55.6405 304.54 82.8389 287.803 99.5763L-251.98 635.639C-268.717 652.144 -295.915 652.144 -312.653 635.407Z" stroke="#9FBEED" stroke-width="0.3529" stroke-miterlimit="10"/>
<path d="M-330.786 640.056L-411.916 558.229C-428.421 541.724 -428.421 514.758 -411.683 498.253L151.81 -61.0564C168.315 -77.5614 195.281 -77.5614 211.786 -60.824L292.916 21.0035C309.421 37.5084 309.421 64.4743 292.683 80.9793L-270.81 640.288C-287.315 656.793 -314.281 656.561 -330.786 640.056Z" stroke="#9FBEED" stroke-width="0.3529" stroke-miterlimit="10"/>
<path d="M-348.918 644.706L-416.797 576.361C-433.07 559.856 -433.07 533.355 -416.565 517.083L170.64 -65.9378C187.145 -82.2103 213.646 -82.2103 229.919 -65.7053L297.798 2.63917C314.071 19.1441 314.071 45.6451 297.566 61.9176L-289.639 644.938C-305.912 661.211 -332.645 661.211 -348.918 644.706Z" stroke="#9FBEED" stroke-width="0.3529" stroke-miterlimit="10"/>
<path d="M-367.049 649.354L-421.679 594.492C-437.719 578.22 -437.719 551.952 -421.446 535.912L189.47 -70.5877C205.743 -86.6278 232.011 -86.6278 248.051 -70.3553L302.68 -15.2612C318.72 1.01125 318.72 27.2797 302.448 43.3198L-308.468 649.587C-324.741 665.627 -350.777 665.627 -367.049 649.354Z" stroke="#9FBEED" stroke-width="0.3529" stroke-miterlimit="10"/>
</g>
<defs>
<clipPath id="clip0_2135_13325">
<rect width="315" height="664" fill="white"/>
</clipPath>
</defs>
</svg>
