<svg width="44" height="45" viewBox="0 0 44 45" fill="none" xmlns="http://www.w3.org/2000/svg">
<circle cx="22" cy="22" r="22" fill="#E2F5F6"/>
<path d="M11.2634 1.62395C12.2771 0.605915 13.6537 0.0322732 15.0903 0.0292165L28.8161 1.22789e-05C30.2528 -0.0030445 31.6318 0.564736 32.6498 1.57845L42.376 11.2634C43.3941 12.2771 43.9677 13.6537 43.9708 15.0903L44 28.8161C44.003 30.2528 43.4353 31.6318 42.4216 32.6498L32.7366 42.376C31.7229 43.3941 30.3463 43.9677 28.9097 43.9708L15.1839 44C13.7472 44.003 12.3682 43.4353 11.3502 42.4216L1.62395 32.7366C0.605915 31.7229 0.0322732 30.3463 0.0292165 28.9097L1.22789e-05 15.1839C-0.0030445 13.7472 0.564736 12.3682 1.57845 11.3502L11.2634 1.62395Z" fill="#D9E5F8"/>
<path d="M25.6559 10.7382H16.7721C13.8806 10.7382 12.833 11.7858 12.833 14.7296V27.6991C12.833 30.6429 13.8806 31.6905 16.7721 31.6905H25.6454C28.5473 31.6905 29.5949 30.6429 29.5949 27.6991V14.7296C29.5949 11.7858 28.5473 10.7382 25.6559 10.7382ZM21.214 28.862C20.2082 28.862 19.3806 28.0343 19.3806 27.0286C19.3806 26.0229 20.2082 25.1953 21.214 25.1953C22.2197 25.1953 23.0473 26.0229 23.0473 27.0286C23.0473 28.0343 22.2197 28.862 21.214 28.862ZM23.3092 15.1905H19.1187C18.6892 15.1905 18.333 14.8344 18.333 14.4048C18.333 13.9753 18.6892 13.6191 19.1187 13.6191H23.3092C23.7387 13.6191 24.0949 13.9753 24.0949 14.4048C24.0949 14.8344 23.7387 15.1905 23.3092 15.1905Z" fill="#3F7CDB"/>
<path fill-rule="evenodd" clip-rule="evenodd" d="M0.00506998 15.321C0.00153109 15.4028 -0.000162611 15.4848 1.22789e-05 15.567L0.0292165 29.2928C0.0322732 30.7294 0.605915 32.106 1.62395 33.1197L11.3502 42.8047C12.3682 43.8184 13.7472 44.3862 15.1839 44.3831L28.9097 44.3539C30.3463 44.3508 31.7229 43.7772 32.7366 42.7592L42.4216 33.0329C43.4353 32.0149 44.003 30.6359 44 29.1992L43.9949 26.8221C43.9366 28.1694 43.3773 29.4501 42.4216 30.4099L32.7366 40.1361C31.7229 41.1541 30.3463 41.7278 28.9097 41.7308L15.1839 41.76C13.7472 41.7631 12.3682 41.1953 11.3502 40.1816L1.62395 30.4967C0.605915 29.483 0.0322732 28.1064 0.0292165 26.6697L0.00506998 15.321Z" fill="#0B1C56"/>
</svg>
