<svg width="52" height="53" viewBox="0 0 52 53" fill="none" xmlns="http://www.w3.org/2000/svg">
<path d="M13.3113 1.91921C14.5093 0.716082 16.1362 0.0381411 17.834 0.0345285L34.0554 1.45115e-05C35.7533 -0.00359804 37.383 0.667415 38.5862 1.86544L50.0808 13.3113C51.2839 14.5093 51.9619 16.1362 51.9655 17.834L52 34.0554C52.0036 35.7533 51.3326 37.383 50.1346 38.5862L38.6887 50.0808C37.4907 51.2839 35.8638 51.9619 34.166 51.9655L17.9446 52C16.2467 52.0036 14.617 51.3326 13.4138 50.1346L1.91921 38.6887C0.716082 37.4907 0.0381411 35.8638 0.0345285 34.166L1.45115e-05 17.9446C-0.00359804 16.2467 0.667415 14.617 1.86544 13.4138L13.3113 1.91921Z" fill="#D9E5F8"/>
<path fill-rule="evenodd" clip-rule="evenodd" d="M0.00397353 18.1581C0.00116926 18.2377 -0.000155541 18.3174 1.45115e-05 18.3974L0.0345285 34.6187C0.0381411 36.3166 0.716082 37.9435 1.91921 39.1415L13.4138 50.5873C14.617 51.7853 16.2467 52.4563 17.9446 52.4527L34.166 52.4182C35.8638 52.4146 37.4907 51.7367 38.6887 50.5335L50.1346 39.0389C51.3326 37.8358 52.0036 36.206 52 34.5081L51.996 32.6474C51.9393 34.2585 51.2762 35.7924 50.1346 36.9389L38.6887 48.4335C37.4907 49.6367 35.8638 50.3146 34.166 50.3182L17.9446 50.3527C16.2467 50.3564 14.617 49.6853 13.4138 48.4873L1.91921 37.0415C0.716082 35.8435 0.0381411 34.2166 0.0345285 32.5187L0.00397353 18.1581Z" fill="#9FBEED"/>
<path d="M33.0833 24.4916H30.6749C28.6999 24.4916 27.0916 22.8833 27.0916 20.9083V18.5C27.0916 18.0416 26.7166 17.6666 26.2583 17.6666H22.7249C20.1583 17.6666 18.0833 19.3333 18.0833 22.3083V29.6916C18.0833 32.6666 20.1583 34.3333 22.7249 34.3333H29.2749C31.8416 34.3333 33.9166 32.6666 33.9166 29.6916V25.325C33.9166 24.8666 33.5416 24.4916 33.0833 24.4916Z" fill="#3F7CDB"/>
<path d="M29.1667 17.8417C28.8251 17.5 28.2334 17.7334 28.2334 18.2084V21.1167C28.2334 22.3334 29.2667 23.3417 30.5251 23.3417C31.3167 23.35 32.4167 23.35 33.3584 23.35C33.8334 23.35 34.0834 22.7917 33.7501 22.4584C32.5501 21.25 30.4001 19.075 29.1667 17.8417Z" fill="#3F7CDB"/>
<path d="M27.25 27.4584H22.25C21.9083 27.4584 21.625 27.175 21.625 26.8334C21.625 26.4917 21.9083 26.2084 22.25 26.2084H27.25C27.5917 26.2084 27.875 26.4917 27.875 26.8334C27.875 27.175 27.5917 27.4584 27.25 27.4584Z" fill="white"/>
<path d="M25.5833 30.7916H22.25C21.9083 30.7916 21.625 30.5083 21.625 30.1666C21.625 29.825 21.9083 29.5416 22.25 29.5416H25.5833C25.925 29.5416 26.2083 29.825 26.2083 30.1666C26.2083 30.5083 25.925 30.7916 25.5833 30.7916Z" fill="white"/>
</svg>
