<svg width="1440" height="520" viewBox="0 0 1440 520" fill="none" xmlns="http://www.w3.org/2000/svg">
<g clip-path="url(#clip0_2096_13172)">
<path d="M925.405 -1034.01L1039.79 -1147.42C1073.57 -1180.72 1128.11 -1180.72 1161.41 -1146.94L2420.08 121.385C2453.38 155.169 2453.38 209.705 2419.59 243.005L2305.21 356.421C2271.43 389.722 2216.89 389.722 2183.59 355.938L924.922 -912.386C891.622 -946.169 891.622 -1000.22 925.405 -1034.01Z" stroke="#9FBEED" stroke-width="0.3529" stroke-miterlimit="10"/>
<path d="M935.058 -996.362L1076.95 -1137.29C1111.21 -1171.07 1166.23 -1171.07 1200.02 -1136.8L2410.43 82.2925C2444.21 116.558 2444.21 171.577 2409.94 205.36L2268.05 346.285C2233.79 380.069 2178.77 380.069 2144.98 345.803L934.575 -873.294C900.792 -907.077 901.274 -962.579 935.058 -996.362Z" stroke="#9FBEED" stroke-width="0.3529" stroke-miterlimit="10"/>
<path d="M944.709 -958.717L1114.59 -1127.15C1148.86 -1161.42 1204.84 -1161.42 1239.11 -1126.67L2400.77 43.2007C2435.04 77.4667 2435.04 133.45 2400.29 167.716L2230.41 336.151C2196.14 370.417 2140.16 370.417 2105.89 335.668L944.709 -834.202C910.443 -868.467 910.443 -924.451 944.709 -958.717Z" stroke="#9FBEED" stroke-width="0.3529" stroke-miterlimit="10"/>
<path d="M954.844 -921.073L1152.24 -1117.02C1186.98 -1151.77 1243.45 -1151.28 1278.2 -1116.53L2391.12 4.10852C2425.87 38.8571 2425.39 95.3237 2390.64 130.072L2193.25 326.016C2158.5 360.764 2102.03 360.282 2067.28 325.533L954.362 -795.109C919.613 -829.858 919.613 -886.324 954.844 -921.073Z" stroke="#9FBEED" stroke-width="0.3529" stroke-miterlimit="10"/>
<path d="M964.497 -883.428L1189.88 -1107.36C1225.11 -1142.59 1282.06 -1142.11 1317.29 -1106.88L2381.47 -34.9831C2416.7 0.248071 2416.22 57.1972 2380.98 92.4284L2155.6 316.364C2120.37 351.595 2063.42 351.112 2028.19 315.881L964.014 -756.017C928.783 -791.248 929.266 -848.197 964.497 -883.428Z" stroke="#9FBEED" stroke-width="0.3529" stroke-miterlimit="10"/>
<path d="M974.15 -845.784L1227.52 -1097.23C1263.24 -1132.46 1320.67 -1132.46 1356.38 -1096.75L2371.33 -74.075C2406.56 -38.3612 2406.56 19.0705 2370.85 54.7843L2117.48 306.229C2081.76 341.46 2024.33 341.46 1988.62 305.747L973.667 -716.924C938.436 -752.638 938.436 -810.07 974.15 -845.784Z" stroke="#9FBEED" stroke-width="0.3529" stroke-miterlimit="10"/>
<path d="M983.801 -808.14L1264.69 -1087.09C1300.88 -1122.81 1359.28 -1122.81 1394.99 -1086.61L2361.2 -113.168C2396.91 -76.9713 2396.91 -18.5743 2360.71 17.1395L2079.83 296.093C2043.63 331.807 1985.24 331.807 1949.52 295.611L983.319 -677.833C947.605 -714.029 948.088 -771.943 983.801 -808.14Z" stroke="#9FBEED" stroke-width="0.3529" stroke-miterlimit="10"/>
<path d="M993.937 -770.496L1302.81 -1076.96C1339.49 -1113.16 1398.37 -1113.16 1434.57 -1076.48L2352.03 -152.261C2388.22 -115.582 2388.22 -56.7021 2351.55 -20.5057L2042.67 285.958C2005.99 322.154 1947.11 322.154 1910.91 285.475L993.455 -638.741C957.258 -675.42 957.258 -734.3 993.937 -770.496Z" stroke="#9FBEED" stroke-width="0.3529" stroke-miterlimit="10"/>
<path d="M1003.59 -732.851L1339.97 -1066.82C1376.65 -1103.5 1436.5 -1103.02 1473.18 -1066.34L2341.89 -191.352C2378.57 -154.673 2378.09 -94.8279 2341.41 -58.1488L2005.02 276.306C1968.35 312.985 1908.5 312.503 1871.82 275.824L1003.11 -599.165C966.427 -636.327 966.427 -696.172 1003.59 -732.851Z" stroke="#9FBEED" stroke-width="0.3529" stroke-miterlimit="10"/>
<path d="M1013.24 -695.207L1377.62 -1057.17C1414.78 -1094.33 1475.11 -1093.85 1512.27 -1056.69L2332.24 -230.444C2369.4 -193.283 2368.92 -132.955 2331.76 -95.7935L1967.38 266.171C1930.22 303.333 1869.89 302.85 1832.73 265.689L1012.76 -560.556C975.597 -597.718 976.08 -658.045 1013.24 -695.207Z" stroke="#9FBEED" stroke-width="0.3529" stroke-miterlimit="10"/>
<path d="M1022.89 -657.562L1415.26 -1047.04C1452.91 -1084.68 1513.72 -1084.2 1551.36 -1046.55L2322.59 -269.536C2360.23 -231.892 2359.75 -171.082 2322.11 -133.437L1929.74 256.036C1892.09 293.681 1831.28 293.198 1793.64 255.554L1022.41 -521.464C985.25 -559.108 985.25 -619.918 1022.89 -657.562Z" stroke="#9FBEED" stroke-width="0.3529" stroke-miterlimit="10"/>
<path d="M1032.55 -619.918L1452.42 -1036.9C1490.55 -1074.55 1551.84 -1074.55 1589.97 -1036.42L2312.45 -308.628C2350.1 -270.501 2350.1 -209.209 2311.97 -171.082L1892.09 245.902C1853.96 283.546 1792.67 283.546 1754.54 245.419L1032.06 -482.371C994.419 -520.498 994.902 -581.791 1032.55 -619.918Z" stroke="#9FBEED" stroke-width="0.3529" stroke-miterlimit="10"/>
<path d="M1042.68 -582.274L1490.55 -1026.77C1529.16 -1064.89 1591.42 -1064.89 1629.55 -1026.28L2303.28 -347.721C2341.41 -309.111 2341.41 -246.853 2302.8 -208.727L1854.93 235.766C1816.32 273.893 1754.06 273.893 1715.94 235.283L1042.2 -443.28C1004.07 -481.889 1004.07 -544.147 1042.68 -582.274Z" stroke="#9FBEED" stroke-width="0.3529" stroke-miterlimit="10"/>
<path d="M1052.33 -544.629L1528.2 -1017.11C1567.29 -1055.72 1630.03 -1055.72 1668.64 -1016.63L2293.63 -386.813C2332.24 -347.72 2332.24 -284.98 2293.15 -246.37L1817.29 226.114C1778.19 264.724 1715.45 264.724 1676.84 225.631L1051.85 -404.187C1013.24 -443.279 1013.24 -506.02 1052.33 -544.629Z" stroke="#9FBEED" stroke-width="0.3529" stroke-miterlimit="10"/>
<path d="M1061.99 -506.985L1565.36 -1006.5C1604.45 -1045.59 1668.16 -1045.11 1707.25 -1006.01L2283.5 -425.423C2322.59 -386.33 2322.11 -322.625 2283.01 -283.532L1779.64 215.979C1740.55 255.071 1676.84 254.588 1637.75 215.496L1061.5 -365.095C1022.41 -404.187 1022.89 -467.893 1061.99 -506.985Z" stroke="#9FBEED" stroke-width="0.3529" stroke-miterlimit="10"/>
<path d="M1598.66 205.361L1071.16 -326.003C1031.58 -365.578 1032.06 -429.766 1071.64 -469.341L1603 -996.844C1642.58 -1036.42 1706.77 -1035.94 1746.34 -996.362L2273.84 -464.998C2313.42 -425.423 2312.94 -361.234 2273.36 -321.66L1742 205.844C1702.42 245.418 1638.23 244.936 1598.66 205.361Z" stroke="#9FBEED" stroke-width="0.3529" stroke-miterlimit="10"/>
<path d="M1561.01 215.014L1061.5 -288.359C1022.41 -327.451 1022.89 -391.157 1061.99 -430.249L1642.09 -1006.5C1681.19 -1045.59 1744.89 -1045.11 1783.98 -1006.01L2283.98 -502.642C2323.07 -463.549 2322.59 -399.844 2283.5 -360.751L1702.9 215.496C1663.81 254.588 1600.11 254.588 1561.01 215.014Z" stroke="#9FBEED" stroke-width="0.3529" stroke-miterlimit="10"/>
<path d="M1523.37 224.666L1050.89 -251.197C1012.28 -290.289 1012.28 -353.03 1051.37 -391.639L1681.19 -1016.15C1720.28 -1054.76 1783.02 -1054.76 1821.63 -1015.67L2294.11 -539.803C2332.72 -500.711 2332.72 -437.971 2293.63 -399.361L1663.81 225.148C1624.72 263.758 1561.98 263.758 1523.37 224.666Z" stroke="#9FBEED" stroke-width="0.3529" stroke-miterlimit="10"/>
<path d="M1485.73 234.801L1041.23 -213.07C1003.11 -251.679 1003.11 -313.937 1041.72 -352.064L1720.28 -1025.8C1758.89 -1063.93 1821.15 -1063.93 1859.27 -1025.32L2303.77 -577.447C2341.89 -538.838 2341.89 -476.58 2303.28 -438.453L1624.72 235.284C1586.11 273.411 1523.85 272.928 1485.73 234.801Z" stroke="#9FBEED" stroke-width="0.3529" stroke-miterlimit="10"/>
<path d="M1448.08 244.453L1031.1 -175.426C993.455 -213.553 993.455 -274.845 1031.58 -312.972L1759.37 -1035.94C1797.5 -1073.58 1858.79 -1073.58 1896.92 -1035.45L2313.9 -615.575C2351.55 -577.448 2351.55 -516.155 2313.42 -478.028L1585.63 244.936C1547.5 282.58 1486.21 282.58 1448.08 244.453Z" stroke="#9FBEED" stroke-width="0.3529" stroke-miterlimit="10"/>
<path d="M1410.44 254.105L1020.96 -138.264C983.319 -175.909 983.802 -236.719 1021.45 -274.363L1798.46 -1045.59C1836.11 -1083.23 1896.92 -1082.75 1934.56 -1045.11L2324.04 -652.737C2361.68 -615.092 2361.2 -554.282 2323.55 -516.638L1546.54 254.588C1508.89 292.232 1448.08 291.75 1410.44 254.105Z" stroke="#9FBEED" stroke-width="0.3529" stroke-miterlimit="10"/>
<path d="M1372.79 263.758L1010.83 -100.62C973.667 -137.781 974.149 -198.109 1011.31 -235.27L1837.56 -1055.24C1874.72 -1092.4 1935.04 -1091.92 1972.21 -1054.76L2334.17 -690.381C2371.33 -653.219 2370.85 -592.891 2333.69 -555.73L1507.44 264.241C1470.28 301.402 1409.95 300.92 1372.79 263.758Z" stroke="#9FBEED" stroke-width="0.3529" stroke-miterlimit="10"/>
<path d="M1335.15 273.411L1001.18 -62.975C964.497 -99.6541 964.98 -159.499 1001.66 -196.178L1876.65 -1064.89C1913.33 -1101.57 1973.17 -1101.09 2009.85 -1064.41L2344.31 -727.542C2380.99 -690.863 2380.5 -631.018 2343.82 -594.339L1468.83 274.376C1431.67 310.572 1371.83 310.572 1335.15 273.411Z" stroke="#9FBEED" stroke-width="0.3529" stroke-miterlimit="10"/>
<path d="M1297.5 283.545L991.041 -25.331C954.845 -62.0101 954.845 -120.89 991.524 -157.086L1915.74 -1074.55C1952.42 -1110.74 2011.3 -1110.74 2047.5 -1074.06L2353.96 -765.186C2390.16 -728.507 2390.16 -669.628 2353.48 -633.431L1429.26 284.028C1392.58 320.224 1333.7 319.742 1297.5 283.545Z" stroke="#9FBEED" stroke-width="0.3529" stroke-miterlimit="10"/>
<path d="M1259.86 293.198L980.906 12.3132C945.192 -23.8832 945.192 -82.2802 981.389 -117.994L1954.83 -1084.68C1991.03 -1120.39 2049.43 -1120.39 2085.14 -1084.2L2364.09 -803.314C2399.81 -767.117 2399.81 -708.72 2363.61 -673.006L1390.17 293.68C1353.97 329.394 1296.06 329.394 1259.86 293.198Z" stroke="#9FBEED" stroke-width="0.3529" stroke-miterlimit="10"/>
<path d="M1222.22 302.849L970.771 49.4743C935.539 13.7605 935.539 -43.6712 971.253 -79.3851L1993.92 -1094.33C2029.64 -1129.57 2087.07 -1129.57 2122.78 -1093.85L2374.23 -840.476C2409.46 -804.762 2409.46 -747.33 2373.75 -711.617L1351.07 303.332C1315.36 339.046 1257.93 338.563 1222.22 302.849Z" stroke="#9FBEED" stroke-width="0.3529" stroke-miterlimit="10"/>
<path d="M1184.57 312.502L960.636 87.1192C925.405 51.888 925.888 -5.06116 961.119 -40.2924L2033.02 -1103.99C2068.25 -1139.22 2125.2 -1138.73 2160.43 -1103.5L2384.36 -878.12C2419.6 -842.889 2419.11 -785.939 2383.88 -750.708L1311.98 312.985C1276.75 348.216 1219.8 347.734 1184.57 312.502Z" stroke="#9FBEED" stroke-width="0.3529" stroke-miterlimit="10"/>
<path d="M1146.93 322.638L950.984 125.247C916.235 90.498 916.718 34.0315 951.466 -0.717093L2072.11 -1113.64C2106.86 -1148.39 2163.32 -1147.9 2198.07 -1113.15L2394.02 -915.764C2428.76 -881.015 2428.28 -824.549 2393.53 -789.8L1272.89 323.121C1238.14 357.387 1181.68 357.387 1146.93 322.638Z" stroke="#9FBEED" stroke-width="0.3529" stroke-miterlimit="10"/>
<path d="M1109.28 332.29L940.848 162.408C906.582 128.142 906.582 72.1582 941.331 37.8922L2111.2 -1123.29C2145.47 -1157.56 2201.45 -1157.56 2235.72 -1122.81L2404.15 -952.926C2438.42 -918.66 2438.42 -862.676 2403.67 -828.41L1233.8 332.773C1199.53 367.039 1143.55 366.556 1109.28 332.29Z" stroke="#9FBEED" stroke-width="0.3529" stroke-miterlimit="10"/>
<path d="M1071.64 341.942L930.714 200.052C896.931 165.786 896.931 110.767 931.197 76.984L2150.29 -1133.43C2184.56 -1167.21 2239.58 -1167.21 2273.36 -1132.94L2414.29 -991.053C2448.07 -956.787 2448.07 -901.768 2413.8 -867.985L1194.71 342.425C1160.92 376.208 1105.42 376.208 1071.64 341.942Z" stroke="#9FBEED" stroke-width="0.3529" stroke-miterlimit="10"/>
<path d="M1033.99 351.595L920.579 237.696C887.278 203.913 887.278 149.377 921.061 116.076L2189.39 -1143.08C2223.17 -1176.38 2277.7 -1176.38 2311.01 -1142.59L2424.42 -1028.21C2457.72 -994.431 2457.72 -939.895 2423.94 -906.594L1155.61 352.077C1121.83 385.378 1067.78 385.378 1033.99 351.595Z" stroke="#9FBEED" stroke-width="0.3529" stroke-miterlimit="10"/>
</g>
<g clip-path="url(#clip1_2096_13172)">
<path d="M-942.594 239.994L-828.213 126.579C-794.43 93.2779 -739.894 93.2779 -706.593 127.061L552.078 1395.39C585.379 1429.17 585.379 1483.7 551.596 1517.01L437.215 1630.42C403.432 1663.72 348.896 1663.72 315.595 1629.94L-943.077 361.614C-976.377 327.831 -976.377 273.778 -942.594 239.994Z" stroke="#9FBEED" stroke-width="0.3529" stroke-miterlimit="10"/>
<path d="M-932.941 277.638L-791.051 136.713C-756.785 102.93 -701.767 102.93 -667.983 137.196L542.426 1356.29C576.21 1390.56 576.21 1445.58 541.944 1479.36L400.054 1620.29C365.788 1654.07 310.769 1654.07 276.986 1619.8L-933.424 400.706C-967.207 366.923 -966.725 311.421 -932.941 277.638Z" stroke="#9FBEED" stroke-width="0.3529" stroke-miterlimit="10"/>
<path d="M-923.289 315.283L-753.407 146.848C-719.141 112.582 -663.157 112.582 -628.891 147.331L532.774 1317.2C567.04 1351.47 567.04 1407.45 532.291 1441.72L362.409 1610.15C328.143 1644.42 272.159 1644.42 237.893 1609.67L-923.289 439.798C-957.555 405.533 -957.555 349.549 -923.289 315.283Z" stroke="#9FBEED" stroke-width="0.3529" stroke-miterlimit="10"/>
<path d="M-913.155 352.927L-715.763 156.984C-681.015 122.235 -624.548 122.718 -589.8 157.466L523.121 1278.11C557.87 1312.86 557.387 1369.32 522.638 1404.07L325.247 1600.02C290.498 1634.76 234.032 1634.28 199.283 1599.53L-913.637 478.891C-948.386 444.142 -948.386 387.676 -913.155 352.927Z" stroke="#9FBEED" stroke-width="0.3529" stroke-miterlimit="10"/>
<path d="M-903.502 390.572L-678.119 166.636C-642.888 131.405 -585.938 131.888 -550.707 167.119L513.469 1239.02C548.7 1274.25 548.217 1331.2 512.986 1366.43L287.603 1590.36C252.372 1625.6 195.422 1625.11 160.191 1589.88L-903.985 517.983C-939.216 482.752 -938.733 425.803 -903.502 390.572Z" stroke="#9FBEED" stroke-width="0.3529" stroke-miterlimit="10"/>
<path d="M-893.849 428.216L-640.474 176.772C-604.76 141.54 -547.329 141.54 -511.615 177.254L503.334 1199.92C538.565 1235.64 538.565 1293.07 502.851 1328.78L249.476 1580.23C213.762 1615.46 156.331 1615.46 120.617 1579.75L-894.332 557.076C-929.563 521.362 -929.563 463.93 -893.849 428.216Z" stroke="#9FBEED" stroke-width="0.3529" stroke-miterlimit="10"/>
<path d="M-884.199 465.86L-603.314 186.906C-567.118 151.192 -508.721 151.192 -473.007 187.389L493.197 1160.83C528.911 1197.03 528.911 1255.43 492.715 1291.14L211.83 1570.09C175.634 1605.81 117.237 1605.81 81.5229 1569.61L-884.681 596.167C-920.395 559.971 -919.912 502.057 -884.199 465.86Z" stroke="#9FBEED" stroke-width="0.3529" stroke-miterlimit="10"/>
<path d="M-874.063 503.505L-565.186 197.041C-528.507 160.845 -469.628 160.845 -433.431 197.524L484.028 1121.74C520.225 1158.42 520.225 1217.3 483.546 1253.5L174.669 1559.96C137.99 1596.16 79.1106 1596.16 42.9141 1559.48L-874.545 635.26C-910.742 598.581 -910.742 539.701 -874.063 503.505Z" stroke="#9FBEED" stroke-width="0.3529" stroke-miterlimit="10"/>
<path d="M-864.41 541.149L-528.024 207.176C-491.345 170.497 -431.5 170.98 -394.821 207.659L473.894 1082.65C510.573 1119.33 510.09 1179.17 473.411 1215.85L137.026 1550.31C100.346 1586.99 40.5016 1586.5 3.82254 1549.82L-864.893 674.835C-901.572 637.673 -901.572 577.828 -864.41 541.149Z" stroke="#9FBEED" stroke-width="0.3529" stroke-miterlimit="10"/>
<path d="M-854.757 578.793L-490.38 216.828C-453.218 179.667 -392.89 180.149 -355.729 217.311L464.242 1043.56C501.403 1080.72 500.921 1141.04 463.759 1178.21L99.3813 1540.17C62.2196 1577.33 1.89224 1576.85 -35.2695 1539.69L-855.24 713.444C-892.402 676.282 -891.919 615.955 -854.757 578.793Z" stroke="#9FBEED" stroke-width="0.3529" stroke-miterlimit="10"/>
<path d="M-845.105 616.438L-452.735 226.964C-415.091 189.319 -354.281 189.802 -316.636 227.446L454.589 1004.46C492.234 1042.11 491.751 1102.92 454.107 1140.56L61.7373 1530.04C24.093 1567.68 -36.717 1567.2 -74.3614 1529.55L-845.587 752.536C-882.749 714.892 -882.749 654.082 -845.105 616.438Z" stroke="#9FBEED" stroke-width="0.3529" stroke-miterlimit="10"/>
<path d="M-835.454 654.082L-415.575 237.099C-377.448 199.455 -316.155 199.455 -278.028 237.582L444.453 965.372C482.097 1003.5 482.097 1064.79 443.97 1102.92L24.0914 1519.9C-14.0355 1557.55 -75.3282 1557.55 -113.455 1519.42L-835.937 791.629C-873.581 753.502 -873.098 692.209 -835.454 654.082Z" stroke="#9FBEED" stroke-width="0.3529" stroke-miterlimit="10"/>
<path d="M-825.318 691.726L-377.447 247.233C-338.838 209.106 -276.58 209.106 -238.453 247.716L435.284 926.279C473.411 964.889 473.411 1027.15 434.801 1065.27L-13.0696 1509.77C-51.6792 1547.89 -113.937 1547.89 -152.064 1509.28L-825.801 830.72C-863.928 792.111 -863.928 729.853 -825.318 691.726Z" stroke="#9FBEED" stroke-width="0.3529" stroke-miterlimit="10"/>
<path d="M-815.665 729.371L-339.802 256.886C-300.71 218.277 -237.97 218.277 -199.36 257.369L425.632 887.187C464.241 926.28 464.242 989.02 425.149 1027.63L-50.7133 1500.11C-89.8055 1538.72 -152.546 1538.72 -191.156 1499.63L-816.148 869.813C-854.757 830.721 -854.757 767.98 -815.665 729.371Z" stroke="#9FBEED" stroke-width="0.3529" stroke-miterlimit="10"/>
<path d="M-806.013 767.015L-302.641 267.504C-263.548 228.412 -199.843 228.894 -160.75 267.986L415.497 848.577C454.589 887.67 454.107 951.375 415.015 990.468L-88.3575 1489.98C-127.45 1529.07 -191.156 1528.59 -230.248 1489.5L-806.495 908.905C-845.587 869.813 -845.105 806.107 -806.013 767.015Z" stroke="#9FBEED" stroke-width="0.3529" stroke-miterlimit="10"/>
<path d="M-269.339 1479.36L-796.842 947.997C-836.417 908.422 -835.934 844.234 -796.36 804.659L-264.996 277.156C-225.421 237.581 -161.232 238.064 -121.658 277.638L405.846 809.002C445.42 848.577 444.938 912.766 405.363 952.34L-126.001 1479.84C-165.576 1519.42 -229.764 1518.94 -269.339 1479.36Z" stroke="#9FBEED" stroke-width="0.3529" stroke-miterlimit="10"/>
<path d="M-306.984 1489.01L-806.495 985.641C-845.587 946.549 -845.105 882.843 -806.013 843.751L-225.904 267.504C-186.812 228.412 -123.106 228.894 -84.0141 267.986L415.98 771.358C455.072 810.451 454.589 874.156 415.497 913.249L-165.094 1489.5C-204.186 1528.59 -267.892 1528.59 -306.984 1489.01Z" stroke="#9FBEED" stroke-width="0.3529" stroke-miterlimit="10"/>
<path d="M-344.628 1498.67L-817.113 1022.8C-855.722 983.711 -855.722 920.97 -816.63 882.361L-186.812 257.851C-147.719 219.242 -84.9789 219.242 -46.3693 258.334L426.115 734.197C464.725 773.289 464.725 836.029 425.632 874.639L-204.186 1499.15C-243.278 1537.76 -306.019 1537.76 -344.628 1498.67Z" stroke="#9FBEED" stroke-width="0.3529" stroke-miterlimit="10"/>
<path d="M-382.273 1508.8L-826.766 1060.93C-864.893 1022.32 -864.893 960.063 -826.283 921.936L-147.72 248.199C-109.11 210.072 -46.8525 210.072 -8.72557 248.682L435.767 696.553C473.894 735.162 473.894 797.42 435.284 835.547L-243.279 1509.28C-281.888 1547.41 -344.146 1546.93 -382.273 1508.8Z" stroke="#9FBEED" stroke-width="0.3529" stroke-miterlimit="10"/>
<path d="M-419.918 1518.45L-836.901 1098.57C-874.545 1060.45 -874.545 999.155 -836.418 961.028L-108.628 238.064C-70.5013 200.42 -9.2086 200.42 28.9183 238.546L445.902 658.425C483.546 696.552 483.546 757.845 445.419 795.972L-282.371 1518.94C-320.498 1556.58 -381.791 1556.58 -419.918 1518.45Z" stroke="#9FBEED" stroke-width="0.3529" stroke-miterlimit="10"/>
<path d="M-457.56 1528.11L-847.034 1135.74C-884.679 1098.09 -884.196 1037.28 -846.552 999.637L-69.5342 228.411C-31.8899 190.767 28.9202 191.249 66.5645 228.894L456.038 621.263C493.683 658.908 493.2 719.718 455.556 757.362L-321.462 1528.59C-359.106 1566.23 -419.916 1565.75 -457.56 1528.11Z" stroke="#9FBEED" stroke-width="0.3529" stroke-miterlimit="10"/>
<path d="M-495.205 1537.76L-857.17 1173.38C-894.331 1136.22 -893.849 1075.89 -856.687 1038.73L-30.4423 218.759C6.71936 181.597 67.0468 182.08 104.208 219.242L466.173 583.619C503.335 620.781 502.852 681.109 465.691 718.27L-360.554 1538.24C-397.716 1575.4 -458.043 1574.92 -495.205 1537.76Z" stroke="#9FBEED" stroke-width="0.3529" stroke-miterlimit="10"/>
<path d="M-532.85 1547.41L-866.823 1211.03C-903.502 1174.35 -903.019 1114.5 -866.34 1077.82L8.64913 209.107C45.3282 172.428 105.173 172.911 141.852 209.59L476.307 546.458C512.986 583.137 512.504 642.982 475.825 679.661L-399.164 1548.38C-436.326 1584.57 -496.171 1584.57 -532.85 1547.41Z" stroke="#9FBEED" stroke-width="0.3529" stroke-miterlimit="10"/>
<path d="M-570.494 1557.55L-876.958 1248.67C-913.154 1211.99 -913.154 1153.11 -876.475 1116.91L47.7412 199.454C84.4203 163.258 143.3 163.258 179.496 199.937L485.96 508.814C522.156 545.493 522.156 604.372 485.477 640.569L-438.739 1558.03C-475.418 1594.22 -534.298 1593.74 -570.494 1557.55Z" stroke="#9FBEED" stroke-width="0.3529" stroke-miterlimit="10"/>
<path d="M-608.139 1567.2L-887.093 1286.31C-922.807 1250.12 -922.807 1191.72 -886.61 1156.01L86.8332 189.319C123.03 153.605 181.427 153.605 217.141 189.802L496.094 470.686C531.808 506.883 531.808 565.28 495.612 600.994L-477.832 1567.68C-514.028 1603.39 -571.942 1603.39 -608.139 1567.2Z" stroke="#9FBEED" stroke-width="0.3529" stroke-miterlimit="10"/>
<path d="M-645.784 1576.85L-897.228 1323.48C-932.46 1287.76 -932.46 1230.33 -896.746 1194.62L125.925 179.667C161.639 144.436 219.071 144.436 254.784 180.15L506.229 433.525C541.46 469.239 541.46 526.671 505.747 562.384L-516.924 1577.33C-552.638 1613.05 -610.07 1612.56 -645.784 1576.85Z" stroke="#9FBEED" stroke-width="0.3529" stroke-miterlimit="10"/>
<path d="M-683.428 1586.5L-907.364 1361.12C-942.595 1325.89 -942.112 1268.94 -906.881 1233.71L165.017 170.014C200.248 134.783 257.197 135.266 292.428 170.497L516.364 395.88C551.595 431.111 551.112 488.061 515.881 523.292L-556.017 1586.98C-591.248 1622.22 -648.197 1621.73 -683.428 1586.5Z" stroke="#9FBEED" stroke-width="0.3529" stroke-miterlimit="10"/>
<path d="M-721.071 1596.64L-917.015 1399.25C-951.763 1364.5 -951.281 1308.03 -916.532 1273.28L204.11 160.362C238.859 125.614 295.326 126.096 330.074 160.845L526.018 358.236C560.766 392.985 560.284 449.451 525.535 484.2L-595.107 1597.12C-629.856 1631.39 -686.322 1631.39 -721.071 1596.64Z" stroke="#9FBEED" stroke-width="0.3529" stroke-miterlimit="10"/>
<path d="M-758.715 1606.29L-927.15 1436.41C-961.416 1402.14 -961.416 1346.16 -926.667 1311.89L243.203 150.71C277.469 116.444 333.452 116.444 367.718 151.192L536.153 321.074C570.419 355.34 570.419 411.324 535.67 445.59L-634.2 1606.77C-668.466 1641.04 -724.449 1640.56 -758.715 1606.29Z" stroke="#9FBEED" stroke-width="0.3529" stroke-miterlimit="10"/>
<path d="M-796.36 1615.94L-937.285 1474.05C-971.068 1439.79 -971.068 1384.77 -936.802 1350.98L282.294 140.574C316.56 106.791 371.579 106.791 405.362 141.057L546.287 282.947C580.071 317.213 580.071 372.232 545.805 406.015L-673.292 1616.42C-707.076 1650.21 -762.577 1650.21 -796.36 1615.94Z" stroke="#9FBEED" stroke-width="0.3529" stroke-miterlimit="10"/>
<path d="M-834.005 1625.59L-947.42 1511.7C-980.721 1477.91 -980.721 1423.38 -946.938 1390.08L321.386 130.922C355.17 97.6216 409.706 97.6217 443.006 131.405L556.422 245.786C589.723 279.569 589.723 334.105 555.939 367.406L-712.385 1626.08C-746.168 1659.38 -800.221 1659.38 -834.005 1625.59Z" stroke="#9FBEED" stroke-width="0.3529" stroke-miterlimit="10"/>
</g>
<defs>
<clipPath id="clip0_2096_13172">
<rect width="545" height="382" fill="white" transform="translate(895)"/>
</clipPath>
<clipPath id="clip1_2096_13172">
<rect width="582" height="419" fill="white" transform="translate(0 101)"/>
</clipPath>
</defs>
</svg>
