<svg width="1194" height="516" viewBox="0 0 1194 516" fill="none" xmlns="http://www.w3.org/2000/svg">
<g clip-path="url(#clip0_2099_12476)">
<path d="M892.405 -1083.01L1006.79 -1196.42C1040.57 -1229.72 1095.11 -1229.72 1128.41 -1195.94L2387.08 72.3854C2420.38 106.169 2420.38 160.705 2386.59 194.005L2272.21 307.421C2238.43 340.722 2183.89 340.722 2150.59 306.938L891.922 -961.386C858.622 -995.169 858.622 -1049.22 892.405 -1083.01Z" stroke="#9FBEED" stroke-width="0.3529" stroke-miterlimit="10"/>
<path d="M902.058 -1045.36L1043.95 -1186.29C1078.21 -1220.07 1133.23 -1220.07 1167.02 -1185.8L2377.43 33.2925C2411.21 67.5584 2411.21 122.577 2376.94 156.36L2235.05 297.285C2200.79 331.069 2145.77 331.069 2111.98 296.803L901.575 -922.294C867.792 -956.077 868.274 -1011.58 902.058 -1045.36Z" stroke="#9FBEED" stroke-width="0.3529" stroke-miterlimit="10"/>
<path d="M911.709 -1007.72L1081.59 -1176.15C1115.86 -1210.42 1171.84 -1210.42 1206.11 -1175.67L2367.77 -5.79933C2402.04 28.4667 2402.04 84.4505 2367.29 118.716L2197.41 287.151C2163.14 321.417 2107.16 321.417 2072.89 286.668L911.709 -883.202C877.443 -917.467 877.443 -973.451 911.709 -1007.72Z" stroke="#9FBEED" stroke-width="0.3529" stroke-miterlimit="10"/>
<path d="M921.844 -970.073L1119.24 -1166.02C1153.98 -1200.77 1210.45 -1200.28 1245.2 -1165.53L2358.12 -44.8915C2392.87 -10.1429 2392.39 46.3237 2357.64 81.0723L2160.25 277.016C2125.5 311.764 2069.03 311.282 2034.28 276.533L921.362 -844.109C886.613 -878.858 886.613 -935.324 921.844 -970.073Z" stroke="#9FBEED" stroke-width="0.3529" stroke-miterlimit="10"/>
<path d="M931.497 -932.428L1156.88 -1156.36C1192.11 -1191.59 1249.06 -1191.11 1284.29 -1155.88L2348.47 -83.9831C2383.7 -48.7519 2383.22 8.19721 2347.98 43.4284L2122.6 267.364C2087.37 302.595 2030.42 302.112 1995.19 266.881L931.014 -805.017C895.783 -840.248 896.266 -897.197 931.497 -932.428Z" stroke="#9FBEED" stroke-width="0.3529" stroke-miterlimit="10"/>
<path d="M941.15 -894.784L1194.52 -1146.23C1230.24 -1181.46 1287.67 -1181.46 1323.38 -1145.75L2338.33 -123.075C2373.56 -87.3612 2373.56 -29.9295 2337.85 5.78435L2084.48 257.229C2048.76 292.46 1991.33 292.46 1955.62 256.747L940.667 -765.924C905.436 -801.638 905.436 -859.07 941.15 -894.784Z" stroke="#9FBEED" stroke-width="0.3529" stroke-miterlimit="10"/>
<path d="M950.801 -857.14L1231.69 -1136.09C1267.88 -1171.81 1326.28 -1171.81 1361.99 -1135.61L2328.2 -162.168C2363.91 -125.971 2363.91 -67.5743 2327.71 -31.8605L2046.83 247.093C2010.63 282.807 1952.24 282.807 1916.52 246.611L950.319 -726.833C914.605 -763.029 915.088 -820.943 950.801 -857.14Z" stroke="#9FBEED" stroke-width="0.3529" stroke-miterlimit="10"/>
<path d="M960.937 -819.495L1269.81 -1125.96C1306.49 -1162.16 1365.37 -1162.16 1401.57 -1125.48L2319.03 -201.26C2355.22 -164.581 2355.22 -105.701 2318.55 -69.5047L2009.67 236.959C1972.99 273.155 1914.11 273.155 1877.91 236.476L960.455 -687.74C924.258 -724.419 924.258 -783.299 960.937 -819.495Z" stroke="#9FBEED" stroke-width="0.3529" stroke-miterlimit="10"/>
<path d="M970.589 -781.851L1306.97 -1115.82C1343.65 -1152.5 1403.5 -1152.02 1440.18 -1115.34L2308.89 -240.352C2345.57 -203.673 2345.09 -143.828 2308.41 -107.149L1972.02 227.306C1935.35 263.985 1875.5 263.503 1838.82 226.824L970.107 -648.165C933.427 -685.327 933.427 -745.172 970.589 -781.851Z" stroke="#9FBEED" stroke-width="0.3529" stroke-miterlimit="10"/>
<path d="M980.242 -744.207L1344.62 -1106.17C1381.78 -1143.33 1442.11 -1142.85 1479.27 -1105.69L2299.24 -279.444C2336.4 -242.283 2335.92 -181.955 2298.76 -144.793L1934.38 217.171C1897.22 254.333 1836.89 253.85 1799.73 216.689L979.759 -609.556C942.597 -646.718 943.08 -707.045 980.242 -744.207Z" stroke="#9FBEED" stroke-width="0.3529" stroke-miterlimit="10"/>
<path d="M989.894 -706.562L1382.26 -1096.04C1419.91 -1133.68 1480.72 -1133.2 1518.36 -1095.55L2289.59 -318.536C2327.23 -280.892 2326.75 -220.082 2289.11 -182.437L1896.74 207.036C1859.09 244.681 1798.28 244.198 1760.64 206.554L989.412 -570.464C952.25 -608.108 952.25 -668.918 989.894 -706.562Z" stroke="#9FBEED" stroke-width="0.3529" stroke-miterlimit="10"/>
<path d="M999.546 -668.918L1419.42 -1085.9C1457.55 -1123.55 1518.84 -1123.55 1556.97 -1085.42L2279.45 -357.628C2317.1 -319.501 2317.1 -258.209 2278.97 -220.082L1859.09 196.902C1820.96 234.546 1759.67 234.546 1721.54 196.419L999.063 -531.371C961.419 -569.498 961.902 -630.791 999.546 -668.918Z" stroke="#9FBEED" stroke-width="0.3529" stroke-miterlimit="10"/>
<path d="M1009.68 -631.274L1457.55 -1075.77C1496.16 -1113.89 1558.42 -1113.89 1596.55 -1075.28L2270.28 -396.721C2308.41 -358.111 2308.41 -295.853 2269.8 -257.727L1821.93 186.766C1783.32 224.893 1721.06 224.893 1682.94 186.283L1009.2 -492.28C971.072 -530.889 971.072 -593.147 1009.68 -631.274Z" stroke="#9FBEED" stroke-width="0.3529" stroke-miterlimit="10"/>
<path d="M1019.33 -593.629L1495.2 -1066.11C1534.29 -1104.72 1597.03 -1104.72 1635.64 -1065.63L2260.63 -435.813C2299.24 -396.72 2299.24 -333.98 2260.15 -295.37L1784.29 177.114C1745.19 215.724 1682.45 215.724 1643.84 176.631L1018.85 -453.187C980.242 -492.279 980.242 -555.02 1019.33 -593.629Z" stroke="#9FBEED" stroke-width="0.3529" stroke-miterlimit="10"/>
<path d="M1028.99 -555.985L1532.36 -1055.5C1571.45 -1094.59 1635.16 -1094.11 1674.25 -1055.01L2250.5 -474.423C2289.59 -435.33 2289.11 -371.625 2250.01 -332.532L1746.64 166.979C1707.55 206.071 1643.84 205.588 1604.75 166.496L1028.5 -414.095C989.412 -453.187 989.894 -516.893 1028.99 -555.985Z" stroke="#9FBEED" stroke-width="0.3529" stroke-miterlimit="10"/>
<path d="M1565.66 156.361L1038.16 -375.003C998.581 -414.578 999.064 -478.766 1038.64 -518.341L1570 -1045.84C1609.58 -1085.42 1673.77 -1084.94 1713.34 -1045.36L2240.84 -513.998C2280.42 -474.423 2279.94 -410.234 2240.36 -370.66L1709 156.844C1669.42 196.418 1605.23 195.936 1565.66 156.361Z" stroke="#9FBEED" stroke-width="0.3529" stroke-miterlimit="10"/>
<path d="M1528.01 166.014L1028.5 -337.359C989.412 -376.451 989.894 -440.157 1028.99 -479.249L1609.09 -1055.5C1648.19 -1094.59 1711.89 -1094.11 1750.98 -1055.01L2250.98 -551.642C2290.07 -512.549 2289.59 -448.844 2250.5 -409.751L1669.9 166.496C1630.81 205.588 1567.11 205.588 1528.01 166.014Z" stroke="#9FBEED" stroke-width="0.3529" stroke-miterlimit="10"/>
<path d="M1490.37 175.666L1017.89 -300.197C979.277 -339.289 979.277 -402.03 1018.37 -440.639L1648.19 -1065.15C1687.28 -1103.76 1750.02 -1103.76 1788.63 -1064.67L2261.11 -588.803C2299.72 -549.711 2299.72 -486.971 2260.63 -448.361L1630.81 176.148C1591.72 214.758 1528.98 214.758 1490.37 175.666Z" stroke="#9FBEED" stroke-width="0.3529" stroke-miterlimit="10"/>
<path d="M1452.73 185.801L1008.23 -262.07C970.106 -300.679 970.106 -362.937 1008.72 -401.064L1687.28 -1074.8C1725.89 -1112.93 1788.15 -1112.93 1826.27 -1074.32L2270.77 -626.447C2308.89 -587.838 2308.89 -525.58 2270.28 -487.453L1591.72 186.284C1553.11 224.411 1490.85 223.928 1452.73 185.801Z" stroke="#9FBEED" stroke-width="0.3529" stroke-miterlimit="10"/>
<path d="M1415.08 195.453L998.099 -224.426C960.455 -262.553 960.455 -323.845 998.582 -361.972L1726.37 -1084.94C1764.5 -1122.58 1825.79 -1122.58 1863.92 -1084.45L2280.9 -664.575C2318.55 -626.448 2318.55 -565.155 2280.42 -527.028L1552.63 195.936C1514.5 233.58 1453.21 233.58 1415.08 195.453Z" stroke="#9FBEED" stroke-width="0.3529" stroke-miterlimit="10"/>
<path d="M1377.44 205.105L987.964 -187.264C950.319 -224.909 950.802 -285.719 988.446 -323.363L1765.46 -1094.59C1803.11 -1132.23 1863.92 -1131.75 1901.56 -1094.11L2291.04 -701.737C2328.68 -664.092 2328.2 -603.282 2290.55 -565.638L1513.54 205.588C1475.89 243.232 1415.08 242.75 1377.44 205.105Z" stroke="#9FBEED" stroke-width="0.3529" stroke-miterlimit="10"/>
<path d="M1339.79 214.758L977.828 -149.62C940.667 -186.781 941.149 -247.109 978.311 -284.27L1804.56 -1104.24C1841.72 -1141.4 1902.04 -1140.92 1939.21 -1103.76L2301.17 -739.381C2338.33 -702.219 2337.85 -641.891 2300.69 -604.73L1474.44 215.241C1437.28 252.402 1376.95 251.92 1339.79 214.758Z" stroke="#9FBEED" stroke-width="0.3529" stroke-miterlimit="10"/>
<path d="M1302.15 224.411L968.176 -111.975C931.497 -148.654 931.98 -208.499 968.659 -245.178L1843.65 -1113.89C1880.33 -1150.57 1940.17 -1150.09 1976.85 -1113.41L2311.31 -776.542C2347.99 -739.863 2347.5 -680.018 2310.82 -643.339L1435.83 225.376C1398.67 261.572 1338.83 261.572 1302.15 224.411Z" stroke="#9FBEED" stroke-width="0.3529" stroke-miterlimit="10"/>
<path d="M1264.5 234.545L958.041 -74.331C921.845 -111.01 921.845 -169.89 958.524 -206.086L1882.74 -1123.55C1919.42 -1159.74 1978.3 -1159.74 2014.5 -1123.06L2320.96 -814.186C2357.16 -777.507 2357.16 -718.628 2320.48 -682.431L1396.26 235.028C1359.58 271.224 1300.7 270.742 1264.5 234.545Z" stroke="#9FBEED" stroke-width="0.3529" stroke-miterlimit="10"/>
<path d="M1226.86 244.198L947.906 -36.6868C912.192 -72.8832 912.192 -131.28 948.389 -166.994L1921.83 -1133.68C1958.03 -1169.39 2016.43 -1169.39 2052.14 -1133.2L2331.09 -852.314C2366.81 -816.117 2366.81 -757.72 2330.61 -722.006L1357.17 244.68C1320.97 280.394 1263.06 280.394 1226.86 244.198Z" stroke="#9FBEED" stroke-width="0.3529" stroke-miterlimit="10"/>
<path d="M1189.22 253.85L937.771 0.475297C902.539 -35.2385 902.539 -92.6702 938.253 -128.384L1960.92 -1143.33C1996.64 -1178.56 2054.07 -1178.56 2089.78 -1142.85L2341.23 -889.475C2376.46 -853.761 2376.46 -796.329 2340.75 -760.616L1318.07 254.333C1282.36 290.047 1224.93 289.564 1189.22 253.85Z" stroke="#9FBEED" stroke-width="0.3529" stroke-miterlimit="10"/>
<path d="M1151.57 263.502L927.636 38.1192C892.405 2.88797 892.888 -54.0612 928.119 -89.2924L2000.02 -1152.99C2035.25 -1188.22 2092.2 -1187.73 2127.43 -1152.5L2351.36 -927.12C2386.6 -891.889 2386.11 -834.939 2350.88 -799.708L1278.98 263.985C1243.75 299.216 1186.8 298.734 1151.57 263.502Z" stroke="#9FBEED" stroke-width="0.3529" stroke-miterlimit="10"/>
<path d="M1113.93 273.638L917.984 76.2466C883.235 41.498 883.718 -14.9685 918.466 -49.7171L2039.11 -1162.64C2073.86 -1197.39 2130.32 -1196.9 2165.07 -1162.15L2361.02 -964.764C2395.76 -930.015 2395.28 -873.549 2360.53 -838.8L1239.89 274.121C1205.14 308.387 1148.68 308.387 1113.93 273.638Z" stroke="#9FBEED" stroke-width="0.3529" stroke-miterlimit="10"/>
<path d="M1076.28 283.29L907.848 113.408C873.582 79.1422 873.582 23.1582 908.331 -11.1078L2078.2 -1172.29C2112.47 -1206.56 2168.45 -1206.56 2202.72 -1171.81L2371.15 -1001.93C2405.42 -967.66 2405.42 -911.676 2370.67 -877.41L1200.8 283.773C1166.53 318.039 1110.55 317.556 1076.28 283.29Z" stroke="#9FBEED" stroke-width="0.3529" stroke-miterlimit="10"/>
<path d="M1038.64 292.942L897.714 151.052C863.931 116.786 863.931 61.7674 898.197 27.984L2117.29 -1182.43C2151.56 -1216.21 2206.58 -1216.21 2240.36 -1181.94L2381.29 -1040.05C2415.07 -1005.79 2415.07 -950.768 2380.8 -916.985L1161.71 293.425C1127.92 327.208 1072.42 327.208 1038.64 292.942Z" stroke="#9FBEED" stroke-width="0.3529" stroke-miterlimit="10"/>
<path d="M1000.99 302.595L887.579 188.696C854.278 154.913 854.278 100.377 888.061 67.0764L2156.39 -1192.08C2190.17 -1225.38 2244.7 -1225.38 2278.01 -1191.59L2391.42 -1077.21C2424.72 -1043.43 2424.72 -988.895 2390.94 -955.594L1122.61 303.077C1088.83 336.378 1034.78 336.378 1000.99 302.595Z" stroke="#9FBEED" stroke-width="0.3529" stroke-miterlimit="10"/>
</g>
<g clip-path="url(#clip1_2099_12476)">
<path d="M-1336.59 286.994L-1222.21 173.579C-1188.43 140.278 -1133.89 140.278 -1100.59 174.061L158.078 1442.39C191.379 1476.17 191.379 1530.7 157.596 1564.01L43.2149 1677.42C9.43157 1710.72 -45.1045 1710.72 -78.4052 1676.94L-1337.08 408.614C-1370.38 374.831 -1370.38 320.778 -1336.59 286.994Z" stroke="#9FBEED" stroke-width="0.3529" stroke-miterlimit="10"/>
<path d="M-1326.94 324.638L-1185.05 183.714C-1150.79 149.93 -1095.77 149.93 -1061.98 184.196L148.426 1403.29C182.21 1437.56 182.21 1492.58 147.944 1526.36L6.05353 1667.29C-28.2124 1701.07 -83.2311 1701.07 -117.014 1666.8L-1327.42 447.706C-1361.21 413.923 -1360.72 358.422 -1326.94 324.638Z" stroke="#9FBEED" stroke-width="0.3529" stroke-miterlimit="10"/>
<path d="M-1317.29 362.283L-1147.41 193.848C-1113.14 159.582 -1057.16 159.582 -1022.89 194.331L138.774 1364.2C173.04 1398.47 173.04 1454.45 138.291 1488.72L-31.5906 1657.15C-65.8566 1691.42 -121.841 1691.42 -156.107 1656.67L-1317.29 486.798C-1351.55 452.533 -1351.55 396.549 -1317.29 362.283Z" stroke="#9FBEED" stroke-width="0.3529" stroke-miterlimit="10"/>
<path d="M-1307.15 399.927L-1109.76 203.984C-1075.01 169.235 -1018.55 169.718 -983.8 204.466L129.121 1325.11C163.87 1359.86 163.387 1416.32 128.638 1451.07L-68.753 1647.02C-103.502 1681.76 -159.968 1681.28 -194.717 1646.53L-1307.64 525.891C-1342.39 491.142 -1342.39 434.676 -1307.15 399.927Z" stroke="#9FBEED" stroke-width="0.3529" stroke-miterlimit="10"/>
<path d="M-1297.5 437.571L-1072.12 213.636C-1036.89 178.405 -979.938 178.887 -944.707 214.119L119.469 1286.02C154.7 1321.25 154.217 1378.2 118.986 1413.43L-106.397 1637.36C-141.628 1672.59 -198.578 1672.11 -233.809 1636.88L-1297.98 564.983C-1333.22 529.752 -1332.73 472.803 -1297.5 437.571Z" stroke="#9FBEED" stroke-width="0.3529" stroke-miterlimit="10"/>
<path d="M-1287.85 475.216L-1034.47 223.771C-998.76 188.54 -941.329 188.54 -905.615 224.254L109.334 1246.92C144.565 1282.64 144.565 1340.07 108.851 1375.78L-144.524 1627.23C-180.238 1662.46 -237.669 1662.46 -273.383 1626.75L-1288.33 604.075C-1323.56 568.361 -1323.56 510.93 -1287.85 475.216Z" stroke="#9FBEED" stroke-width="0.3529" stroke-miterlimit="10"/>
<path d="M-1278.2 512.86L-997.314 233.906C-961.118 198.192 -902.721 198.192 -867.007 234.389L99.1973 1207.83C134.911 1244.03 134.911 1302.43 98.7148 1338.14L-182.17 1617.09C-218.366 1652.81 -276.763 1652.81 -312.477 1616.61L-1278.68 643.167C-1314.4 606.971 -1313.91 549.057 -1278.2 512.86Z" stroke="#9FBEED" stroke-width="0.3529" stroke-miterlimit="10"/>
<path d="M-1268.06 550.504L-959.186 244.041C-922.507 207.844 -863.628 207.844 -827.431 244.524L90.0283 1168.74C126.225 1205.42 126.225 1264.3 89.5456 1300.49L-219.331 1606.96C-256.01 1643.15 -314.889 1643.15 -351.086 1606.48L-1268.55 682.259C-1304.74 645.58 -1304.74 586.701 -1268.06 550.504Z" stroke="#9FBEED" stroke-width="0.3529" stroke-miterlimit="10"/>
<path d="M-1258.41 588.149L-922.024 254.176C-885.345 217.497 -825.5 217.979 -788.821 254.659L79.8939 1129.65C116.573 1166.33 116.09 1226.17 79.4114 1262.85L-256.974 1597.31C-293.654 1633.98 -353.498 1633.5 -390.177 1596.82L-1258.89 721.834C-1295.57 684.673 -1295.57 624.828 -1258.41 588.149Z" stroke="#9FBEED" stroke-width="0.3529" stroke-miterlimit="10"/>
<path d="M-1248.76 625.793L-884.38 263.828C-847.218 226.667 -786.89 227.149 -749.729 264.311L70.2417 1090.56C107.403 1127.72 106.921 1188.04 69.7592 1225.21L-294.619 1587.17C-331.78 1624.33 -392.108 1623.85 -429.269 1586.69L-1249.24 760.444C-1286.4 723.282 -1285.92 662.955 -1248.76 625.793Z" stroke="#9FBEED" stroke-width="0.3529" stroke-miterlimit="10"/>
<path d="M-1239.1 663.438L-846.735 273.964C-809.091 236.319 -748.281 236.802 -710.636 274.446L60.5894 1051.46C98.2337 1089.11 97.7512 1149.92 60.1069 1187.56L-332.263 1577.04C-369.907 1614.68 -430.717 1614.2 -468.361 1576.55L-1239.59 799.536C-1276.75 761.892 -1276.75 701.082 -1239.1 663.438Z" stroke="#9FBEED" stroke-width="0.3529" stroke-miterlimit="10"/>
<path d="M-1229.45 701.082L-809.575 284.098C-771.448 246.454 -710.155 246.454 -672.028 284.581L50.453 1012.37C88.0974 1050.5 88.0973 1111.79 49.9704 1149.92L-369.909 1566.9C-408.036 1604.55 -469.328 1604.55 -507.455 1566.42L-1229.94 838.628C-1267.58 800.501 -1267.1 739.209 -1229.45 701.082Z" stroke="#9FBEED" stroke-width="0.3529" stroke-miterlimit="10"/>
<path d="M-1219.32 738.726L-771.447 294.233C-732.838 256.106 -670.58 256.106 -632.453 294.716L41.2839 973.279C79.4108 1011.89 79.411 1074.15 40.8014 1112.27L-407.07 1556.77C-445.679 1594.89 -507.937 1594.89 -546.064 1556.28L-1219.8 877.72C-1257.93 839.111 -1257.93 776.853 -1219.32 738.726Z" stroke="#9FBEED" stroke-width="0.3529" stroke-miterlimit="10"/>
<path d="M-1209.67 776.37L-733.802 303.886C-694.71 265.276 -631.97 265.276 -593.36 304.369L31.6319 934.187C70.2414 973.279 70.2416 1036.02 31.1494 1074.63L-444.713 1547.11C-483.806 1585.72 -546.546 1585.72 -585.156 1546.63L-1210.15 916.813C-1248.76 877.72 -1248.76 814.98 -1209.67 776.37Z" stroke="#9FBEED" stroke-width="0.3529" stroke-miterlimit="10"/>
<path d="M-1200.01 814.015L-696.641 314.504C-657.548 275.412 -593.843 275.894 -554.75 314.986L21.4972 895.577C60.5894 934.67 60.1067 998.375 21.0146 1037.47L-482.358 1536.98C-521.45 1576.07 -585.156 1575.59 -624.248 1536.5L-1200.5 955.905C-1239.59 916.813 -1239.1 853.107 -1200.01 814.015Z" stroke="#9FBEED" stroke-width="0.3529" stroke-miterlimit="10"/>
<path d="M-663.339 1526.36L-1190.84 994.997C-1230.42 955.422 -1229.93 891.234 -1190.36 851.659L-658.996 324.156C-619.421 284.581 -555.232 285.064 -515.658 324.638L11.8455 856.002C51.4203 895.577 50.9377 959.766 11.3629 999.34L-520.001 1526.84C-559.576 1566.42 -623.764 1565.94 -663.339 1526.36Z" stroke="#9FBEED" stroke-width="0.3529" stroke-miterlimit="10"/>
<path d="M-700.984 1536.01L-1200.5 1032.64C-1239.59 993.549 -1239.1 929.843 -1200.01 890.751L-619.904 314.504C-580.812 275.412 -517.106 275.894 -478.014 314.986L21.9796 818.358C61.0718 857.451 60.5893 921.156 21.4971 960.249L-559.094 1536.5C-598.186 1575.59 -661.892 1575.59 -700.984 1536.01Z" stroke="#9FBEED" stroke-width="0.3529" stroke-miterlimit="10"/>
<path d="M-738.628 1545.67L-1211.11 1069.8C-1249.72 1030.71 -1249.72 967.97 -1210.63 929.361L-580.812 304.851C-541.719 266.242 -478.979 266.242 -440.369 305.334L32.1151 781.197C70.7247 820.289 70.7246 883.029 31.6325 921.639L-598.186 1546.15C-637.278 1584.76 -700.019 1584.76 -738.628 1545.67Z" stroke="#9FBEED" stroke-width="0.3529" stroke-miterlimit="10"/>
<path d="M-776.273 1555.8L-1220.77 1107.93C-1258.89 1069.32 -1258.89 1007.06 -1220.28 968.936L-541.72 295.199C-503.11 257.072 -440.853 257.072 -402.726 295.681L41.7669 743.552C79.8938 782.162 79.8938 844.42 41.2842 882.547L-637.279 1556.28C-675.888 1594.41 -738.146 1593.93 -776.273 1555.8Z" stroke="#9FBEED" stroke-width="0.3529" stroke-miterlimit="10"/>
<path d="M-813.918 1565.45L-1230.9 1145.57C-1268.55 1107.45 -1268.55 1046.15 -1230.42 1008.03L-502.628 285.064C-464.501 247.42 -403.209 247.42 -365.082 285.546L51.9016 705.425C89.5459 743.552 89.5459 804.845 51.419 842.972L-676.371 1565.94C-714.498 1603.58 -775.791 1603.58 -813.918 1565.45Z" stroke="#9FBEED" stroke-width="0.3529" stroke-miterlimit="10"/>
<path d="M-851.56 1575.11L-1241.03 1182.74C-1278.68 1145.09 -1278.2 1084.28 -1240.55 1046.64L-463.534 275.411C-425.89 237.767 -365.08 238.249 -327.436 275.894L62.0384 668.263C99.6827 705.908 99.2001 766.718 61.5558 804.362L-715.462 1575.59C-753.106 1613.23 -813.916 1612.75 -851.56 1575.11Z" stroke="#9FBEED" stroke-width="0.3529" stroke-miterlimit="10"/>
<path d="M-889.205 1584.76L-1251.17 1220.38C-1288.33 1183.22 -1287.85 1122.89 -1250.69 1085.73L-424.442 265.759C-387.281 228.597 -326.953 229.08 -289.792 266.242L72.1732 630.619C109.335 667.781 108.852 728.109 71.6905 765.27L-754.554 1585.24C-791.716 1622.4 -852.043 1621.92 -889.205 1584.76Z" stroke="#9FBEED" stroke-width="0.3529" stroke-miterlimit="10"/>
<path d="M-926.85 1594.41L-1260.82 1258.02C-1297.5 1221.35 -1297.02 1161.5 -1260.34 1124.82L-385.351 256.107C-348.672 219.428 -288.827 219.91 -252.148 256.589L82.3073 593.458C118.986 630.137 118.504 689.981 81.8248 726.661L-793.164 1595.38C-830.326 1631.57 -890.171 1631.57 -926.85 1594.41Z" stroke="#9FBEED" stroke-width="0.3529" stroke-miterlimit="10"/>
<path d="M-964.494 1604.54L-1270.96 1295.67C-1307.15 1258.99 -1307.15 1200.11 -1270.47 1163.91L-346.259 246.454C-309.58 210.258 -250.7 210.258 -214.504 246.937L91.9596 555.813C128.156 592.492 128.156 651.372 91.4771 687.568L-832.739 1605.03C-869.418 1641.22 -928.298 1640.74 -964.494 1604.54Z" stroke="#9FBEED" stroke-width="0.3529" stroke-miterlimit="10"/>
<path d="M-1002.14 1614.2L-1281.09 1333.31C-1316.81 1297.12 -1316.81 1238.72 -1280.61 1203.01L-307.167 236.319C-270.97 200.605 -212.573 200.605 -176.859 236.802L102.094 517.686C137.808 553.883 137.808 612.28 101.612 647.994L-871.832 1614.68C-908.028 1650.39 -965.942 1650.39 -1002.14 1614.2Z" stroke="#9FBEED" stroke-width="0.3529" stroke-miterlimit="10"/>
<path d="M-1039.78 1623.85L-1291.23 1370.47C-1326.46 1334.76 -1326.46 1277.33 -1290.75 1241.62L-268.075 226.667C-232.361 191.435 -174.929 191.435 -139.216 227.149L112.229 480.524C147.46 516.238 147.46 573.67 111.747 609.384L-910.924 1624.33C-946.638 1660.05 -1004.07 1659.56 -1039.78 1623.85Z" stroke="#9FBEED" stroke-width="0.3529" stroke-miterlimit="10"/>
<path d="M-1077.43 1633.5L-1301.36 1408.12C-1336.59 1372.89 -1336.11 1315.94 -1300.88 1280.71L-228.983 217.014C-193.752 181.783 -136.803 182.266 -101.572 217.497L122.364 442.88C157.595 478.111 157.112 535.061 121.881 570.292L-950.017 1633.98C-985.248 1669.22 -1042.2 1668.73 -1077.43 1633.5Z" stroke="#9FBEED" stroke-width="0.3529" stroke-miterlimit="10"/>
<path d="M-1115.07 1643.64L-1311.01 1446.25C-1345.76 1411.5 -1345.28 1355.03 -1310.53 1320.28L-189.89 207.362C-155.141 172.613 -98.6743 173.096 -63.9257 207.845L132.018 405.236C166.766 439.985 166.284 496.451 131.535 531.2L-989.107 1644.12C-1023.86 1678.39 -1080.32 1678.39 -1115.07 1643.64Z" stroke="#9FBEED" stroke-width="0.3529" stroke-miterlimit="10"/>
<path d="M-1152.72 1653.29L-1321.15 1483.41C-1355.42 1449.14 -1355.42 1393.16 -1320.67 1358.89L-150.797 197.71C-116.531 163.444 -60.5476 163.444 -26.2816 198.192L142.153 368.074C176.419 402.34 176.419 458.324 141.67 492.59L-1028.2 1653.77C-1062.47 1688.04 -1118.45 1687.56 -1152.72 1653.29Z" stroke="#9FBEED" stroke-width="0.3529" stroke-miterlimit="10"/>
<path d="M-1190.36 1662.94L-1331.28 1521.05C-1365.07 1486.79 -1365.07 1431.77 -1330.8 1397.98L-111.706 187.574C-77.4396 153.791 -22.421 153.791 11.3624 188.057L152.287 329.947C186.071 364.213 186.071 419.232 151.805 453.015L-1067.29 1663.42C-1101.08 1697.21 -1156.58 1697.21 -1190.36 1662.94Z" stroke="#9FBEED" stroke-width="0.3529" stroke-miterlimit="10"/>
<path d="M-1228 1672.59L-1341.42 1558.7C-1374.72 1524.91 -1374.72 1470.38 -1340.94 1437.08L-72.6136 177.922C-38.8303 144.622 15.7056 144.622 49.0063 178.405L162.422 292.786C195.723 326.569 195.723 381.105 161.939 414.406L-1106.38 1673.08C-1140.17 1706.38 -1194.22 1706.38 -1228 1672.59Z" stroke="#9FBEED" stroke-width="0.3529" stroke-miterlimit="10"/>
</g>
<circle opacity="0.05" cx="885" cy="258" r="210" fill="black"/>
<defs>
<clipPath id="clip0_2099_12476">
<rect width="332" height="333" fill="white" transform="translate(862)"/>
</clipPath>
<clipPath id="clip1_2099_12476">
<rect width="188" height="368" fill="white" transform="translate(0 148)"/>
</clipPath>
</defs>
</svg>
