<svg width="1440" height="362" viewBox="0 0 1440 362" fill="none" xmlns="http://www.w3.org/2000/svg">
<g clip-path="url(#clip0_2118_13233)">
<path d="M909.405 -1034.01L1023.79 -1147.42C1057.57 -1180.72 1112.11 -1180.72 1145.41 -1146.94L2404.08 121.385C2437.38 155.169 2437.38 209.705 2403.59 243.005L2289.21 356.421C2255.43 389.722 2200.89 389.722 2167.59 355.938L908.922 -912.386C875.622 -946.169 875.622 -1000.22 909.405 -1034.01Z" stroke="#9FBEED" stroke-width="0.3529" stroke-miterlimit="10"/>
<path d="M919.058 -996.362L1060.95 -1137.29C1095.21 -1171.07 1150.23 -1171.07 1184.02 -1136.8L2394.43 82.2925C2428.21 116.558 2428.21 171.577 2393.94 205.36L2252.05 346.285C2217.79 380.069 2162.77 380.069 2128.98 345.803L918.575 -873.294C884.792 -907.077 885.274 -962.579 919.058 -996.362Z" stroke="#9FBEED" stroke-width="0.3529" stroke-miterlimit="10"/>
<path d="M928.709 -958.717L1098.59 -1127.15C1132.86 -1161.42 1188.84 -1161.42 1223.11 -1126.67L2384.77 43.2007C2419.04 77.4667 2419.04 133.45 2384.29 167.716L2214.41 336.151C2180.14 370.417 2124.16 370.417 2089.89 335.668L928.709 -834.202C894.443 -868.467 894.443 -924.451 928.709 -958.717Z" stroke="#9FBEED" stroke-width="0.3529" stroke-miterlimit="10"/>
<path d="M938.844 -921.073L1136.24 -1117.02C1170.98 -1151.77 1227.45 -1151.28 1262.2 -1116.53L2375.12 4.10852C2409.87 38.8571 2409.39 95.3237 2374.64 130.072L2177.25 326.016C2142.5 360.764 2086.03 360.282 2051.28 325.533L938.362 -795.109C903.613 -829.858 903.613 -886.324 938.844 -921.073Z" stroke="#9FBEED" stroke-width="0.3529" stroke-miterlimit="10"/>
<path d="M948.497 -883.428L1173.88 -1107.36C1209.11 -1142.59 1266.06 -1142.11 1301.29 -1106.88L2365.47 -34.9831C2400.7 0.248071 2400.22 57.1972 2364.98 92.4284L2139.6 316.364C2104.37 351.595 2047.42 351.112 2012.19 315.881L948.014 -756.017C912.783 -791.248 913.266 -848.197 948.497 -883.428Z" stroke="#9FBEED" stroke-width="0.3529" stroke-miterlimit="10"/>
<path d="M958.15 -845.784L1211.52 -1097.23C1247.24 -1132.46 1304.67 -1132.46 1340.38 -1096.75L2355.33 -74.075C2390.56 -38.3612 2390.56 19.0705 2354.85 54.7843L2101.48 306.229C2065.76 341.46 2008.33 341.46 1972.62 305.747L957.667 -716.924C922.436 -752.638 922.436 -810.07 958.15 -845.784Z" stroke="#9FBEED" stroke-width="0.3529" stroke-miterlimit="10"/>
<path d="M967.801 -808.14L1248.69 -1087.09C1284.88 -1122.81 1343.28 -1122.81 1378.99 -1086.61L2345.2 -113.168C2380.91 -76.9713 2380.91 -18.5743 2344.71 17.1395L2063.83 296.093C2027.63 331.807 1969.24 331.807 1933.52 295.611L967.319 -677.833C931.605 -714.029 932.088 -771.943 967.801 -808.14Z" stroke="#9FBEED" stroke-width="0.3529" stroke-miterlimit="10"/>
<path d="M977.937 -770.496L1286.81 -1076.96C1323.49 -1113.16 1382.37 -1113.16 1418.57 -1076.48L2336.03 -152.261C2372.22 -115.582 2372.22 -56.7021 2335.55 -20.5057L2026.67 285.958C1989.99 322.154 1931.11 322.154 1894.91 285.475L977.455 -638.741C941.258 -675.42 941.258 -734.3 977.937 -770.496Z" stroke="#9FBEED" stroke-width="0.3529" stroke-miterlimit="10"/>
<path d="M987.589 -732.851L1323.97 -1066.82C1360.65 -1103.5 1420.5 -1103.02 1457.18 -1066.34L2325.89 -191.352C2362.57 -154.673 2362.09 -94.8279 2325.41 -58.1488L1989.02 276.306C1952.35 312.985 1892.5 312.503 1855.82 275.824L987.107 -599.165C950.427 -636.327 950.427 -696.172 987.589 -732.851Z" stroke="#9FBEED" stroke-width="0.3529" stroke-miterlimit="10"/>
<path d="M997.242 -695.207L1361.62 -1057.17C1398.78 -1094.33 1459.11 -1093.85 1496.27 -1056.69L2316.24 -230.444C2353.4 -193.283 2352.92 -132.955 2315.76 -95.7935L1951.38 266.171C1914.22 303.333 1853.89 302.85 1816.73 265.689L996.759 -560.556C959.597 -597.718 960.08 -658.045 997.242 -695.207Z" stroke="#9FBEED" stroke-width="0.3529" stroke-miterlimit="10"/>
<path d="M1006.89 -657.562L1399.26 -1047.04C1436.91 -1084.68 1497.72 -1084.2 1535.36 -1046.55L2306.59 -269.536C2344.23 -231.892 2343.75 -171.082 2306.11 -133.437L1913.74 256.036C1876.09 293.681 1815.28 293.198 1777.64 255.554L1006.41 -521.464C969.25 -559.108 969.25 -619.918 1006.89 -657.562Z" stroke="#9FBEED" stroke-width="0.3529" stroke-miterlimit="10"/>
<path d="M1016.55 -619.918L1436.42 -1036.9C1474.55 -1074.55 1535.84 -1074.55 1573.97 -1036.42L2296.45 -308.628C2334.1 -270.501 2334.1 -209.209 2295.97 -171.082L1876.09 245.902C1837.96 283.546 1776.67 283.546 1738.54 245.419L1016.06 -482.371C978.419 -520.498 978.902 -581.791 1016.55 -619.918Z" stroke="#9FBEED" stroke-width="0.3529" stroke-miterlimit="10"/>
<path d="M1026.68 -582.274L1474.55 -1026.77C1513.16 -1064.89 1575.42 -1064.89 1613.55 -1026.28L2287.28 -347.721C2325.41 -309.111 2325.41 -246.853 2286.8 -208.727L1838.93 235.766C1800.32 273.893 1738.06 273.893 1699.94 235.283L1026.2 -443.28C988.072 -481.889 988.072 -544.147 1026.68 -582.274Z" stroke="#9FBEED" stroke-width="0.3529" stroke-miterlimit="10"/>
<path d="M1036.33 -544.629L1512.2 -1017.11C1551.29 -1055.72 1614.03 -1055.72 1652.64 -1016.63L2277.63 -386.813C2316.24 -347.72 2316.24 -284.98 2277.15 -246.37L1801.29 226.114C1762.19 264.724 1699.45 264.724 1660.84 225.631L1035.85 -404.187C997.242 -443.279 997.242 -506.02 1036.33 -544.629Z" stroke="#9FBEED" stroke-width="0.3529" stroke-miterlimit="10"/>
<path d="M1045.99 -506.985L1549.36 -1006.5C1588.45 -1045.59 1652.16 -1045.11 1691.25 -1006.01L2267.5 -425.423C2306.59 -386.33 2306.11 -322.625 2267.01 -283.532L1763.64 215.979C1724.55 255.071 1660.84 254.588 1621.75 215.496L1045.5 -365.095C1006.41 -404.187 1006.89 -467.893 1045.99 -506.985Z" stroke="#9FBEED" stroke-width="0.3529" stroke-miterlimit="10"/>
<path d="M1582.66 205.361L1055.16 -326.003C1015.58 -365.578 1016.06 -429.766 1055.64 -469.341L1587 -996.844C1626.58 -1036.42 1690.77 -1035.94 1730.34 -996.362L2257.84 -464.998C2297.42 -425.423 2296.94 -361.234 2257.36 -321.66L1726 205.844C1686.42 245.418 1622.23 244.936 1582.66 205.361Z" stroke="#9FBEED" stroke-width="0.3529" stroke-miterlimit="10"/>
<path d="M1545.01 215.014L1045.5 -288.359C1006.41 -327.451 1006.89 -391.157 1045.99 -430.249L1626.09 -1006.5C1665.19 -1045.59 1728.89 -1045.11 1767.98 -1006.01L2267.98 -502.642C2307.07 -463.549 2306.59 -399.844 2267.5 -360.751L1686.9 215.496C1647.81 254.588 1584.11 254.588 1545.01 215.014Z" stroke="#9FBEED" stroke-width="0.3529" stroke-miterlimit="10"/>
<path d="M1507.37 224.666L1034.89 -251.197C996.277 -290.289 996.277 -353.03 1035.37 -391.639L1665.19 -1016.15C1704.28 -1054.76 1767.02 -1054.76 1805.63 -1015.67L2278.11 -539.803C2316.72 -500.711 2316.72 -437.971 2277.63 -399.361L1647.81 225.148C1608.72 263.758 1545.98 263.758 1507.37 224.666Z" stroke="#9FBEED" stroke-width="0.3529" stroke-miterlimit="10"/>
<path d="M1469.73 234.801L1025.23 -213.07C987.106 -251.679 987.106 -313.937 1025.72 -352.064L1704.28 -1025.8C1742.89 -1063.93 1805.15 -1063.93 1843.27 -1025.32L2287.77 -577.447C2325.89 -538.838 2325.89 -476.58 2287.28 -438.453L1608.72 235.284C1570.11 273.411 1507.85 272.928 1469.73 234.801Z" stroke="#9FBEED" stroke-width="0.3529" stroke-miterlimit="10"/>
<path d="M1432.08 244.453L1015.1 -175.426C977.455 -213.553 977.455 -274.845 1015.58 -312.972L1743.37 -1035.94C1781.5 -1073.58 1842.79 -1073.58 1880.92 -1035.45L2297.9 -615.575C2335.55 -577.448 2335.55 -516.155 2297.42 -478.028L1569.63 244.936C1531.5 282.58 1470.21 282.58 1432.08 244.453Z" stroke="#9FBEED" stroke-width="0.3529" stroke-miterlimit="10"/>
<path d="M1394.44 254.105L1004.96 -138.264C967.319 -175.909 967.802 -236.719 1005.45 -274.363L1782.46 -1045.59C1820.11 -1083.23 1880.92 -1082.75 1918.56 -1045.11L2308.04 -652.737C2345.68 -615.092 2345.2 -554.282 2307.55 -516.638L1530.54 254.588C1492.89 292.232 1432.08 291.75 1394.44 254.105Z" stroke="#9FBEED" stroke-width="0.3529" stroke-miterlimit="10"/>
<path d="M1356.79 263.758L994.828 -100.62C957.667 -137.781 958.149 -198.109 995.311 -235.27L1821.56 -1055.24C1858.72 -1092.4 1919.04 -1091.92 1956.21 -1054.76L2318.17 -690.381C2355.33 -653.219 2354.85 -592.891 2317.69 -555.73L1491.44 264.241C1454.28 301.402 1393.95 300.92 1356.79 263.758Z" stroke="#9FBEED" stroke-width="0.3529" stroke-miterlimit="10"/>
<path d="M1319.15 273.411L985.176 -62.975C948.497 -99.6541 948.98 -159.499 985.659 -196.178L1860.65 -1064.89C1897.33 -1101.57 1957.17 -1101.09 1993.85 -1064.41L2328.31 -727.542C2364.99 -690.863 2364.5 -631.018 2327.82 -594.339L1452.83 274.376C1415.67 310.572 1355.83 310.572 1319.15 273.411Z" stroke="#9FBEED" stroke-width="0.3529" stroke-miterlimit="10"/>
<path d="M1281.5 283.545L975.041 -25.331C938.845 -62.0101 938.845 -120.89 975.524 -157.086L1899.74 -1074.55C1936.42 -1110.74 1995.3 -1110.74 2031.5 -1074.06L2337.96 -765.186C2374.16 -728.507 2374.16 -669.628 2337.48 -633.431L1413.26 284.028C1376.58 320.224 1317.7 319.742 1281.5 283.545Z" stroke="#9FBEED" stroke-width="0.3529" stroke-miterlimit="10"/>
<path d="M1243.86 293.198L964.906 12.3132C929.192 -23.8832 929.192 -82.2802 965.389 -117.994L1938.83 -1084.68C1975.03 -1120.39 2033.43 -1120.39 2069.14 -1084.2L2348.09 -803.314C2383.81 -767.117 2383.81 -708.72 2347.61 -673.006L1374.17 293.68C1337.97 329.394 1280.06 329.394 1243.86 293.198Z" stroke="#9FBEED" stroke-width="0.3529" stroke-miterlimit="10"/>
<path d="M1206.22 302.849L954.771 49.4743C919.539 13.7605 919.539 -43.6712 955.253 -79.3851L1977.92 -1094.33C2013.64 -1129.57 2071.07 -1129.57 2106.78 -1093.85L2358.23 -840.476C2393.46 -804.762 2393.46 -747.33 2357.75 -711.617L1335.07 303.332C1299.36 339.046 1241.93 338.563 1206.22 302.849Z" stroke="#9FBEED" stroke-width="0.3529" stroke-miterlimit="10"/>
<path d="M1168.57 312.502L944.636 87.1192C909.405 51.888 909.888 -5.06116 945.119 -40.2924L2017.02 -1103.99C2052.25 -1139.22 2109.2 -1138.73 2144.43 -1103.5L2368.36 -878.12C2403.6 -842.889 2403.11 -785.939 2367.88 -750.708L1295.98 312.985C1260.75 348.216 1203.8 347.734 1168.57 312.502Z" stroke="#9FBEED" stroke-width="0.3529" stroke-miterlimit="10"/>
<path d="M1130.93 322.638L934.984 125.247C900.235 90.498 900.718 34.0315 935.466 -0.717093L2056.11 -1113.64C2090.86 -1148.39 2147.32 -1147.9 2182.07 -1113.15L2378.02 -915.764C2412.76 -881.015 2412.28 -824.549 2377.53 -789.8L1256.89 323.121C1222.14 357.387 1165.68 357.387 1130.93 322.638Z" stroke="#9FBEED" stroke-width="0.3529" stroke-miterlimit="10"/>
<path d="M1093.28 332.29L924.848 162.408C890.582 128.142 890.582 72.1582 925.331 37.8922L2095.2 -1123.29C2129.47 -1157.56 2185.45 -1157.56 2219.72 -1122.81L2388.15 -952.926C2422.42 -918.66 2422.42 -862.676 2387.67 -828.41L1217.8 332.773C1183.53 367.039 1127.55 366.556 1093.28 332.29Z" stroke="#9FBEED" stroke-width="0.3529" stroke-miterlimit="10"/>
<path d="M1055.64 341.942L914.714 200.052C880.931 165.786 880.931 110.767 915.197 76.984L2134.29 -1133.43C2168.56 -1167.21 2223.58 -1167.21 2257.36 -1132.94L2398.29 -991.053C2432.07 -956.787 2432.07 -901.768 2397.8 -867.985L1178.71 342.425C1144.92 376.208 1089.42 376.208 1055.64 341.942Z" stroke="#9FBEED" stroke-width="0.3529" stroke-miterlimit="10"/>
<path d="M1017.99 351.595L904.579 237.696C871.278 203.913 871.278 149.377 905.061 116.076L2173.39 -1143.08C2207.17 -1176.38 2261.7 -1176.38 2295.01 -1142.59L2408.42 -1028.21C2441.72 -994.431 2441.72 -939.895 2407.94 -906.594L1139.61 352.077C1105.83 385.378 1051.78 385.378 1017.99 351.595Z" stroke="#9FBEED" stroke-width="0.3529" stroke-miterlimit="10"/>
</g>
<g clip-path="url(#clip1_2118_13233)">
<path d="M-958.595 239.994L-844.214 126.579C-810.431 93.2779 -755.895 93.2779 -722.594 127.061L536.077 1395.39C569.378 1429.17 569.378 1483.7 535.595 1517.01L421.214 1630.42C387.431 1663.72 332.895 1663.72 299.594 1629.94L-959.078 361.614C-992.378 327.831 -992.378 273.778 -958.595 239.994Z" stroke="#9FBEED" stroke-width="0.3529" stroke-miterlimit="10"/>
<path d="M-948.942 277.638L-807.052 136.713C-772.786 102.93 -717.768 102.93 -683.984 137.196L526.425 1356.29C560.209 1390.56 560.209 1445.58 525.943 1479.36L384.053 1620.29C349.787 1654.07 294.768 1654.07 260.985 1619.8L-949.425 400.706C-983.208 366.923 -982.726 311.421 -948.942 277.638Z" stroke="#9FBEED" stroke-width="0.3529" stroke-miterlimit="10"/>
<path d="M-939.291 315.283L-769.409 146.848C-735.143 112.582 -679.159 112.582 -644.893 147.331L516.772 1317.2C551.038 1351.47 551.038 1407.45 516.289 1441.72L346.407 1610.15C312.141 1644.42 256.158 1644.42 221.892 1609.67L-939.291 439.798C-973.557 405.533 -973.557 349.549 -939.291 315.283Z" stroke="#9FBEED" stroke-width="0.3529" stroke-miterlimit="10"/>
<path d="M-929.156 352.927L-731.764 156.984C-697.016 122.235 -640.549 122.718 -605.801 157.466L507.12 1278.11C541.869 1312.86 541.386 1369.32 506.637 1404.07L309.246 1600.02C274.497 1634.76 218.031 1634.28 183.282 1599.53L-929.638 478.891C-964.387 444.142 -964.387 387.676 -929.156 352.927Z" stroke="#9FBEED" stroke-width="0.3529" stroke-miterlimit="10"/>
<path d="M-919.503 390.572L-694.12 166.636C-658.889 131.405 -601.939 131.888 -566.708 167.119L497.468 1239.02C532.699 1274.25 532.216 1331.2 496.985 1366.43L271.602 1590.36C236.371 1625.6 179.421 1625.11 144.19 1589.88L-919.986 517.983C-955.217 482.752 -954.734 425.803 -919.503 390.572Z" stroke="#9FBEED" stroke-width="0.3529" stroke-miterlimit="10"/>
<path d="M-909.85 428.216L-656.475 176.772C-620.761 141.54 -563.329 141.54 -527.616 177.254L487.333 1199.92C522.564 1235.64 522.564 1293.07 486.85 1328.78L233.475 1580.23C197.761 1615.46 140.33 1615.46 104.616 1579.75L-910.333 557.076C-945.564 521.362 -945.564 463.93 -909.85 428.216Z" stroke="#9FBEED" stroke-width="0.3529" stroke-miterlimit="10"/>
<path d="M-900.199 465.86L-619.314 186.906C-583.118 151.192 -524.721 151.192 -489.007 187.389L477.197 1160.83C512.911 1197.03 512.911 1255.43 476.715 1291.14L195.83 1570.09C159.634 1605.81 101.237 1605.81 65.5229 1569.61L-900.681 596.167C-936.395 559.971 -935.912 502.057 -900.199 465.86Z" stroke="#9FBEED" stroke-width="0.3529" stroke-miterlimit="10"/>
<path d="M-890.063 503.505L-581.186 197.041C-544.507 160.845 -485.628 160.845 -449.431 197.524L468.028 1121.74C504.225 1158.42 504.225 1217.3 467.546 1253.5L158.669 1559.96C121.99 1596.16 63.1106 1596.16 26.9141 1559.48L-890.545 635.26C-926.742 598.581 -926.742 539.701 -890.063 503.505Z" stroke="#9FBEED" stroke-width="0.3529" stroke-miterlimit="10"/>
<path d="M-880.411 541.149L-544.025 207.176C-507.346 170.497 -447.501 170.98 -410.822 207.659L457.893 1082.65C494.572 1119.33 494.089 1179.17 457.41 1215.85L121.025 1550.31C84.3455 1586.99 24.5006 1586.5 -12.1784 1549.82L-880.893 674.835C-917.573 637.673 -917.573 577.828 -880.411 541.149Z" stroke="#9FBEED" stroke-width="0.3529" stroke-miterlimit="10"/>
<path d="M-870.758 578.793L-506.381 216.828C-469.219 179.667 -408.891 180.149 -371.73 217.311L448.241 1043.56C485.402 1080.72 484.92 1141.04 447.758 1178.21L83.3804 1540.17C46.2187 1577.33 -14.1087 1576.85 -51.2704 1539.69L-871.241 713.444C-908.403 676.282 -907.92 615.955 -870.758 578.793Z" stroke="#9FBEED" stroke-width="0.3529" stroke-miterlimit="10"/>
<path d="M-861.106 616.438L-468.736 226.964C-431.092 189.319 -370.282 189.802 -332.637 227.446L438.588 1004.46C476.233 1042.11 475.75 1102.92 438.106 1140.56L45.7363 1530.04C8.09202 1567.68 -52.718 1567.2 -90.3623 1529.55L-861.588 752.536C-898.75 714.892 -898.75 654.082 -861.106 616.438Z" stroke="#9FBEED" stroke-width="0.3529" stroke-miterlimit="10"/>
<path d="M-851.454 654.082L-431.575 237.099C-393.448 199.455 -332.155 199.455 -294.028 237.582L428.453 965.372C466.097 1003.5 466.097 1064.79 427.97 1102.92L8.09141 1519.9C-30.0355 1557.55 -91.3282 1557.55 -129.455 1519.42L-851.937 791.629C-889.581 753.502 -889.098 692.209 -851.454 654.082Z" stroke="#9FBEED" stroke-width="0.3529" stroke-miterlimit="10"/>
<path d="M-841.318 691.726L-393.447 247.233C-354.838 209.106 -292.58 209.106 -254.453 247.716L419.284 926.279C457.411 964.889 457.411 1027.15 418.801 1065.27L-29.0696 1509.77C-67.6792 1547.89 -129.937 1547.89 -168.064 1509.28L-841.801 830.72C-879.928 792.111 -879.928 729.853 -841.318 691.726Z" stroke="#9FBEED" stroke-width="0.3529" stroke-miterlimit="10"/>
<path d="M-831.666 729.371L-355.803 256.886C-316.711 218.277 -253.971 218.277 -215.361 257.369L409.631 887.187C448.24 926.28 448.241 989.02 409.148 1027.63L-66.7143 1500.11C-105.806 1538.72 -168.547 1538.72 -207.157 1499.63L-832.149 869.813C-870.758 830.721 -870.758 767.98 -831.666 729.371Z" stroke="#9FBEED" stroke-width="0.3529" stroke-miterlimit="10"/>
<path d="M-822.014 767.015L-318.642 267.504C-279.549 228.412 -215.844 228.894 -176.751 267.986L399.496 848.577C438.588 887.67 438.106 951.375 399.014 990.468L-104.359 1489.98C-143.451 1529.07 -207.157 1528.59 -246.249 1489.5L-822.496 908.905C-861.588 869.813 -861.106 806.107 -822.014 767.015Z" stroke="#9FBEED" stroke-width="0.3529" stroke-miterlimit="10"/>
<path d="M-285.341 1479.36L-812.844 947.997C-852.419 908.422 -851.936 844.234 -812.362 804.659L-280.998 277.156C-241.423 237.581 -177.234 238.064 -137.66 277.638L389.844 809.002C429.418 848.577 428.936 912.766 389.361 952.34L-142.003 1479.84C-181.578 1519.42 -245.766 1518.94 -285.341 1479.36Z" stroke="#9FBEED" stroke-width="0.3529" stroke-miterlimit="10"/>
<path d="M-322.985 1489.01L-822.496 985.641C-861.588 946.549 -861.106 882.843 -822.014 843.751L-241.905 267.504C-202.813 228.412 -139.107 228.894 -100.015 267.986L399.979 771.358C439.071 810.451 438.588 874.156 399.496 913.249L-181.095 1489.5C-220.187 1528.59 -283.893 1528.59 -322.985 1489.01Z" stroke="#9FBEED" stroke-width="0.3529" stroke-miterlimit="10"/>
<path d="M-360.629 1498.67L-833.114 1022.8C-871.723 983.711 -871.723 920.97 -832.631 882.361L-202.813 257.851C-163.72 219.242 -100.98 219.242 -62.3703 258.334L410.114 734.197C448.724 773.289 448.724 836.029 409.631 874.639L-220.187 1499.15C-259.279 1537.76 -322.02 1537.76 -360.629 1498.67Z" stroke="#9FBEED" stroke-width="0.3529" stroke-miterlimit="10"/>
<path d="M-398.274 1508.8L-842.767 1060.93C-880.894 1022.32 -880.894 960.063 -842.284 921.936L-163.721 248.199C-125.111 210.072 -62.8535 210.072 -24.7265 248.682L419.766 696.553C457.893 735.162 457.893 797.42 419.283 835.547L-259.28 1509.28C-297.889 1547.41 -360.147 1546.93 -398.274 1508.8Z" stroke="#9FBEED" stroke-width="0.3529" stroke-miterlimit="10"/>
<path d="M-435.918 1518.45L-852.901 1098.57C-890.545 1060.45 -890.545 999.155 -852.418 961.028L-124.628 238.064C-86.5013 200.42 -25.2086 200.42 12.9183 238.546L429.902 658.425C467.546 696.552 467.546 757.845 429.419 795.972L-298.371 1518.94C-336.498 1556.58 -397.791 1556.58 -435.918 1518.45Z" stroke="#9FBEED" stroke-width="0.3529" stroke-miterlimit="10"/>
<path d="M-473.562 1528.11L-863.036 1135.74C-900.681 1098.09 -900.198 1037.28 -862.554 999.637L-85.5362 228.411C-47.8918 190.767 12.9182 191.249 50.5625 228.894L440.036 621.263C477.681 658.908 477.198 719.718 439.554 757.362L-337.464 1528.59C-375.108 1566.23 -435.918 1565.75 -473.562 1528.11Z" stroke="#9FBEED" stroke-width="0.3529" stroke-miterlimit="10"/>
<path d="M-511.207 1537.76L-873.172 1173.38C-910.333 1136.22 -909.851 1075.89 -872.689 1038.73L-46.4443 218.759C-9.2826 181.597 51.0448 182.08 88.2065 219.242L450.171 583.619C487.333 620.781 486.85 681.109 449.689 718.27L-376.556 1538.24C-413.718 1575.4 -474.045 1574.92 -511.207 1537.76Z" stroke="#9FBEED" stroke-width="0.3529" stroke-miterlimit="10"/>
<path d="M-548.851 1547.41L-882.824 1211.03C-919.503 1174.35 -919.02 1114.5 -882.341 1077.82L-7.35185 209.107C29.3272 172.428 89.1721 172.911 125.851 209.59L460.306 546.458C496.985 583.137 496.503 642.982 459.824 679.661L-415.165 1548.38C-452.327 1584.57 -512.172 1584.57 -548.851 1547.41Z" stroke="#9FBEED" stroke-width="0.3529" stroke-miterlimit="10"/>
<path d="M-586.495 1557.55L-892.959 1248.67C-929.155 1211.99 -929.155 1153.11 -892.476 1116.91L31.7402 199.454C68.4193 163.258 127.299 163.258 163.495 199.937L469.959 508.814C506.155 545.493 506.155 604.372 469.476 640.569L-454.74 1558.03C-491.419 1594.22 -550.299 1593.74 -586.495 1557.55Z" stroke="#9FBEED" stroke-width="0.3529" stroke-miterlimit="10"/>
<path d="M-624.14 1567.2L-903.094 1286.31C-938.808 1250.12 -938.808 1191.72 -902.611 1156.01L70.8323 189.319C107.029 153.605 165.426 153.605 201.14 189.802L480.093 470.686C515.807 506.883 515.807 565.28 479.611 600.994L-493.833 1567.68C-530.029 1603.39 -587.943 1603.39 -624.14 1567.2Z" stroke="#9FBEED" stroke-width="0.3529" stroke-miterlimit="10"/>
<path d="M-661.785 1576.85L-913.229 1323.48C-948.461 1287.76 -948.461 1230.33 -912.747 1194.62L109.924 179.667C145.638 144.436 203.07 144.436 238.783 180.15L490.228 433.525C525.459 469.239 525.459 526.671 489.746 562.384L-532.925 1577.33C-568.639 1613.05 -626.071 1612.56 -661.785 1576.85Z" stroke="#9FBEED" stroke-width="0.3529" stroke-miterlimit="10"/>
<path d="M-699.428 1586.5L-923.364 1361.12C-958.595 1325.89 -958.112 1268.94 -922.881 1233.71L149.017 170.014C184.248 134.783 241.197 135.266 276.428 170.497L500.364 395.88C535.595 431.111 535.112 488.061 499.881 523.292L-572.017 1586.98C-607.248 1622.22 -664.197 1621.73 -699.428 1586.5Z" stroke="#9FBEED" stroke-width="0.3529" stroke-miterlimit="10"/>
<path d="M-737.073 1596.64L-933.016 1399.25C-967.765 1364.5 -967.282 1308.03 -932.534 1273.28L188.109 160.362C222.857 125.614 279.324 126.096 314.072 160.845L510.016 358.236C544.764 392.985 544.282 449.451 509.533 484.2L-611.109 1597.12C-645.858 1631.39 -702.324 1631.39 -737.073 1596.64Z" stroke="#9FBEED" stroke-width="0.3529" stroke-miterlimit="10"/>
<path d="M-774.717 1606.29L-943.152 1436.41C-977.418 1402.14 -977.418 1346.16 -942.669 1311.89L227.201 150.71C261.467 116.444 317.45 116.444 351.716 151.192L520.151 321.074C554.417 355.34 554.417 411.324 519.668 445.59L-650.202 1606.77C-684.467 1641.04 -740.451 1640.56 -774.717 1606.29Z" stroke="#9FBEED" stroke-width="0.3529" stroke-miterlimit="10"/>
<path d="M-812.361 1615.94L-953.286 1474.05C-987.069 1439.79 -987.069 1384.77 -952.803 1350.98L266.293 140.574C300.559 106.791 355.578 106.791 389.361 141.057L530.286 282.947C564.07 317.213 564.07 372.232 529.804 406.015L-689.293 1616.42C-723.076 1650.21 -778.578 1650.21 -812.361 1615.94Z" stroke="#9FBEED" stroke-width="0.3529" stroke-miterlimit="10"/>
<path d="M-850.006 1625.59L-963.421 1511.7C-996.722 1477.91 -996.722 1423.38 -962.939 1390.08L305.385 130.922C339.169 97.6216 393.705 97.6217 427.005 131.405L540.421 245.786C573.722 279.569 573.722 334.105 539.938 367.406L-728.386 1626.08C-762.169 1659.38 -816.222 1659.38 -850.006 1625.59Z" stroke="#9FBEED" stroke-width="0.3529" stroke-miterlimit="10"/>
</g>
<defs>
<clipPath id="clip0_2118_13233">
<rect width="561" height="362" fill="white" transform="translate(879)"/>
</clipPath>
<clipPath id="clip1_2118_13233">
<rect width="566" height="261" fill="white" transform="translate(0 101)"/>
</clipPath>
</defs>
</svg>
