<svg width="56" height="57" viewBox="0 0 56 57" fill="none" xmlns="http://www.w3.org/2000/svg">
<circle cx="28" cy="28" r="28" fill="#E2F5F6"/>
<path d="M14.3352 2.06685C15.6254 0.771165 17.3774 0.041075 19.2059 0.0371846L36.675 1.56277e-05C38.5035 -0.00387481 40.2586 0.718754 41.5543 2.00893L53.9331 14.3352C55.2288 15.6254 55.9589 17.3774 55.9628 19.2059L56 36.675C56.0039 38.5035 55.2812 40.2586 53.9911 41.5543L41.6648 53.9331C40.3746 55.2288 38.6226 55.9589 36.7941 55.9628L19.325 56C17.4965 56.0039 15.7414 55.2812 14.4457 53.9911L2.06685 41.6648C0.771165 40.3746 0.041075 38.6226 0.0371846 36.7941L1.56277e-05 19.325C-0.00387481 17.4965 0.718754 15.7414 2.00893 14.4457L14.3352 2.06685Z" fill="white"/>
<path d="M36 21.6667V24.4667C35.4133 24.3867 34.7467 24.3467 34 24.3334V21.6667C34 17.4667 32.8133 14.6667 27 14.6667C21.1867 14.6667 20 17.4667 20 21.6667V24.3334C19.2533 24.3467 18.5867 24.3867 18 24.4667V21.6667C18 17.8001 18.9333 12.6667 27 12.6667C35.0667 12.6667 36 17.8001 36 21.6667Z" fill="#3F7CDB"/>
<path d="M35.9998 24.4668C35.4132 24.3868 34.7465 24.3468 33.9998 24.3335H19.9998C19.2532 24.3468 18.5865 24.3868 17.9998 24.4668C14.5998 24.8802 13.6665 26.5468 13.6665 31.0002V33.6668C13.6665 39.0002 14.9998 40.3335 20.3332 40.3335H33.6665C38.9998 40.3335 40.3332 39.0002 40.3332 33.6668V31.0002C40.3332 26.5468 39.3998 24.8802 35.9998 24.4668ZM22.6132 33.2802C22.3598 33.5202 22.0132 33.6668 21.6665 33.6668C21.4932 33.6668 21.3198 33.6268 21.1598 33.5602C20.9865 33.4935 20.8532 33.4002 20.7198 33.2802C20.4798 33.0268 20.3332 32.6802 20.3332 32.3335C20.3332 32.1602 20.3732 31.9868 20.4398 31.8268C20.5065 31.6668 20.5998 31.5202 20.7198 31.3868C20.8532 31.2668 20.9865 31.1735 21.1598 31.1068C21.6532 30.8935 22.2398 31.0135 22.6132 31.3868C22.7332 31.5202 22.8265 31.6668 22.8932 31.8268C22.9598 31.9868 22.9998 32.1602 22.9998 32.3335C22.9998 32.6802 22.8532 33.0268 22.6132 33.2802ZM28.2265 32.8402C28.1598 33.0002 28.0665 33.1468 27.9465 33.2802C27.6932 33.5202 27.3465 33.6668 26.9998 33.6668C26.6398 33.6668 26.3065 33.5202 26.0532 33.2802C25.9332 33.1468 25.8398 33.0002 25.7732 32.8402C25.7065 32.6802 25.6665 32.5068 25.6665 32.3335C25.6665 31.9735 25.8132 31.6402 26.0532 31.3868C26.5465 30.8935 27.4398 30.8935 27.9465 31.3868C28.1865 31.6402 28.3332 31.9735 28.3332 32.3335C28.3332 32.5068 28.2932 32.6802 28.2265 32.8402ZM33.2798 33.2802C33.0265 33.5202 32.6798 33.6668 32.3332 33.6668C31.9865 33.6668 31.6398 33.5202 31.3865 33.2802C31.1465 33.0268 30.9998 32.6935 30.9998 32.3335C30.9998 31.9735 31.1465 31.6402 31.3865 31.3868C31.8932 30.8935 32.7865 30.8935 33.2798 31.3868C33.3332 31.4535 33.3865 31.5202 33.4398 31.6002C33.4932 31.6668 33.5332 31.7468 33.5598 31.8268C33.5998 31.9068 33.6265 31.9868 33.6398 32.0668C33.6532 32.1602 33.6665 32.2535 33.6665 32.3335C33.6665 32.6802 33.5198 33.0268 33.2798 33.2802Z" fill="#3F7CDB"/>
<path fill-rule="evenodd" clip-rule="evenodd" d="M0.00645321 19.5C0.00194882 19.6041 -0.000206967 19.7084 1.56277e-05 19.8131L0.0371846 37.2822C0.041075 39.1107 0.771165 40.8627 2.06685 42.1529L14.4457 54.4792C15.7414 55.7693 17.4965 56.492 19.325 56.4881L36.7941 56.4509C38.6226 56.447 40.3746 55.7169 41.6648 54.4212L53.9911 42.0424C55.2812 40.7467 56.0039 38.9916 56 37.1631L55.9935 34.1375C55.9193 35.8523 55.2074 37.4822 53.9911 38.7037L41.6648 51.0826C40.3746 52.3783 38.6226 53.1083 36.7941 53.1122L19.325 53.1494C17.4965 53.1533 15.7414 52.4307 14.4457 51.1405L2.06685 38.8142C0.771165 37.524 0.041075 35.772 0.0371846 33.9435L0.00645321 19.5Z" fill="#0B1C56"/>
</svg>
