<svg width="52" height="53" viewBox="0 0 52 53" fill="none" xmlns="http://www.w3.org/2000/svg">
<circle cx="26" cy="26" r="26" fill="#E2F5F6"/>
<path d="M13.3113 1.91921C14.5093 0.716082 16.1362 0.0381411 17.834 0.0345285L34.0554 1.45115e-05C35.7533 -0.00359804 37.383 0.667415 38.5862 1.86544L50.0808 13.3113C51.2839 14.5093 51.9619 16.1362 51.9655 17.834L52 34.0554C52.0036 35.7533 51.3326 37.383 50.1346 38.5862L38.6887 50.0808C37.4907 51.2839 35.8638 51.9619 34.166 51.9655L17.9446 52C16.2467 52.0036 14.617 51.3326 13.4138 50.1346L1.91921 38.6887C0.716082 37.4907 0.0381411 35.8638 0.0345285 34.166L1.45115e-05 17.9446C-0.00359804 16.2467 0.667415 14.617 1.86544 13.4138L13.3113 1.91921Z" fill="#D9E5F8"/>
<path fill-rule="evenodd" clip-rule="evenodd" d="M0.00599179 18.1064C0.00180947 18.2031 -0.000192176 18.3 1.45115e-05 18.3971L0.0345285 34.6185C0.0381411 36.3164 0.716082 37.9433 1.91921 39.1413L13.4138 50.5871C14.617 51.7851 16.2467 52.4561 17.9446 52.4525L34.166 52.418C35.8638 52.4144 37.4907 51.7364 38.6887 50.5333L50.1346 39.0387C51.3326 37.8356 52.0036 36.2058 52 34.5079L51.994 31.6986C51.9251 33.2909 51.264 34.8044 50.1346 35.9387L38.6887 47.4333C37.4907 48.6365 35.8638 49.3144 34.166 49.318L17.9446 49.3525C16.2467 49.3562 14.617 48.6851 13.4138 47.4871L1.91921 36.0413C0.716082 34.8433 0.0381411 33.2164 0.0345285 31.5185L0.00599179 18.1064Z" fill="#0B1C56"/>
<path d="M19 22C17.34 22 16 23.34 16 25V33C16 34.66 17.34 36 19 36H20.5C21.6 36 22.5 35.1 22.5 34V24C22.5 22.9 21.6 22 20.5 22H19ZM20 31C20 31.41 19.66 31.75 19.25 31.75C18.84 31.75 18.5 31.41 18.5 31V27C18.5 26.59 18.84 26.25 19.25 26.25C19.66 26.25 20 26.59 20 27V31Z" fill="#0B1C56"/>
<path d="M33 16H27C25.34 16 24 17.34 24 19V33C24 34.66 25.34 36 27 36H27.5C27.78 36 28 35.78 28 35.5V32C28 31.45 28.45 31 29 31H31C31.55 31 32 31.45 32 32V35.5C32 35.78 32.22 36 32.5 36H33C34.66 36 36 34.66 36 33V19C36 17.34 34.66 16 33 16ZM28.75 27C28.75 27.41 28.41 27.75 28 27.75C27.59 27.75 27.25 27.41 27.25 27V22C27.25 21.59 27.59 21.25 28 21.25C28.41 21.25 28.75 21.59 28.75 22V27ZM32.75 27C32.75 27.41 32.41 27.75 32 27.75C31.59 27.75 31.25 27.41 31.25 27V22C31.25 21.59 31.59 21.25 32 21.25C32.41 21.25 32.75 21.59 32.75 22V27Z" fill="#0B1C56"/>
</svg>
