<svg width="56" height="57" viewBox="0 0 56 57" fill="none" xmlns="http://www.w3.org/2000/svg">
<circle cx="28" cy="28" r="28" fill="#E2F5F6"/>
<path d="M14.3352 2.06685C15.6254 0.771165 17.3774 0.041075 19.2059 0.0371846L36.675 1.56277e-05C38.5035 -0.00387481 40.2586 0.718754 41.5543 2.00893L53.9331 14.3352C55.2288 15.6254 55.9589 17.3774 55.9628 19.2059L56 36.675C56.0039 38.5035 55.2812 40.2586 53.9911 41.5543L41.6648 53.9331C40.3746 55.2288 38.6226 55.9589 36.7941 55.9628L19.325 56C17.4965 56.0039 15.7414 55.2812 14.4457 53.9911L2.06685 41.6648C0.771165 40.3746 0.041075 38.6226 0.0371846 36.7941L1.56277e-05 19.325C-0.00387481 17.4965 0.718754 15.7414 2.00893 14.4457L14.3352 2.06685Z" fill="white"/>
<path d="M39.5998 29.1868V30.5201C39.5998 30.8801 39.3198 31.1735 38.9465 31.1868H36.9998C36.2932 31.1868 35.6532 30.6668 35.5998 29.9735C35.5598 29.5601 35.7198 29.1735 35.9865 28.9068C36.2265 28.6535 36.5598 28.5201 36.9198 28.5201H38.9332C39.3198 28.5335 39.5998 28.8268 39.5998 29.1868Z" fill="#3F7CDB"/>
<path d="M34.9864 27.9201C34.3197 28.5734 33.9997 29.5468 34.2664 30.5601C34.613 31.8001 35.8264 32.5868 37.1064 32.5868H38.2664C38.9997 32.5868 39.5997 33.1868 39.5997 33.9201V34.1734C39.5997 36.9334 37.3464 39.1868 34.5864 39.1868H19.2797C16.5197 39.1868 14.2664 36.9334 14.2664 34.1734V25.2001C14.2664 23.5601 15.053 22.1068 16.2664 21.2001C17.1064 20.5601 18.1464 20.1868 19.2797 20.1868H34.5864C37.3464 20.1868 39.5997 22.4401 39.5997 25.2001V25.7868C39.5997 26.5201 38.9997 27.1201 38.2664 27.1201H36.9064C36.1597 27.1201 35.4797 27.4134 34.9864 27.9201Z" fill="#3F7CDB"/>
<path d="M32.5997 17.4267C32.9597 17.7867 32.653 18.3467 32.1463 18.3467L21.9063 18.3334C21.3197 18.3334 21.013 17.6134 21.4397 17.2001L23.5997 15.0267C25.4263 13.2134 28.3863 13.2134 30.213 15.0267L32.5463 17.3867C32.5597 17.4001 32.5863 17.4134 32.5997 17.4267Z" fill="#3F7CDB"/>
<path fill-rule="evenodd" clip-rule="evenodd" d="M0.0064527 19.4995C0.00194866 19.6036 -0.000206959 19.7079 1.56277e-05 19.8126L0.0371846 37.2817C0.041075 39.1102 0.771165 40.8622 2.06685 42.1524L14.4457 54.4787C15.7414 55.7688 17.4965 56.4915 19.325 56.4876L36.7941 56.4504C38.6226 56.4465 40.3746 55.7164 41.6648 54.4207L53.9911 42.0419C55.2812 40.7462 56.0039 38.9911 56 37.1626L55.9935 34.1373C55.9193 35.852 55.2074 37.4819 53.9911 38.7035L41.6648 51.0823C40.3746 52.378 38.6226 53.1081 36.7941 53.112L19.325 53.1492C17.4965 53.153 15.7414 52.4304 14.4457 51.1402L2.06685 38.814C0.771165 37.5238 0.041075 35.7717 0.0371846 33.9433L0.0064527 19.4995Z" fill="#0B1C56"/>
</svg>
