<svg width="56" height="57" viewBox="0 0 56 57" fill="none" xmlns="http://www.w3.org/2000/svg">
<circle cx="28" cy="28" r="28" fill="#E2F5F6"/>
<path d="M14.3352 2.06685C15.6254 0.771165 17.3774 0.041075 19.2059 0.0371846L36.675 1.56277e-05C38.5035 -0.00387481 40.2586 0.718754 41.5543 2.00893L53.9331 14.3352C55.2288 15.6254 55.9589 17.3774 55.9628 19.2059L56 36.675C56.0039 38.5035 55.2812 40.2586 53.9911 41.5543L41.6648 53.9331C40.3746 55.2288 38.6226 55.9589 36.7941 55.9628L19.325 56C17.4965 56.0039 15.7414 55.2812 14.4457 53.9911L2.06685 41.6648C0.771165 40.3746 0.041075 38.6226 0.0371846 36.7941L1.56277e-05 19.325C-0.00387481 17.4965 0.718754 15.7414 2.00893 14.4457L14.3352 2.06685Z" fill="white"/>
<path d="M28.0001 14.91C21.3081 14.91 15.8621 20.356 15.8621 27.048C15.8621 33.74 21.3081 39.2 28.0001 39.2C34.6921 39.2 40.1381 33.754 40.1381 27.062C40.1381 20.37 34.6921 14.91 28.0001 14.91ZM29.0501 26.6C29.0501 27.174 28.5741 27.65 28.0001 27.65C27.4261 27.65 26.9501 27.174 26.9501 26.6V19.6C26.9501 19.026 27.4261 18.55 28.0001 18.55C28.5741 18.55 29.0501 19.026 29.0501 19.6V26.6Z" fill="#3F7CDB"/>
<path d="M32.046 13.2301H23.954C23.394 13.2301 22.946 12.7821 22.946 12.2221C22.946 11.6621 23.394 11.2001 23.954 11.2001H32.046C32.606 11.2001 33.054 11.6481 33.054 12.2081C33.054 12.7681 32.606 13.2301 32.046 13.2301Z" fill="#3F7CDB"/>
<path fill-rule="evenodd" clip-rule="evenodd" d="M0.0064527 19.4995C0.00194866 19.6036 -0.000206959 19.7079 1.56277e-05 19.8126L0.0371846 37.2817C0.041075 39.1102 0.771165 40.8622 2.06685 42.1524L14.4457 54.4787C15.7414 55.7688 17.4965 56.4915 19.325 56.4876L36.7941 56.4504C38.6226 56.4465 40.3746 55.7164 41.6648 54.4207L53.9911 42.0419C55.2812 40.7462 56.0039 38.9911 56 37.1626L55.9935 34.1373C55.9193 35.852 55.2074 37.4819 53.9911 38.7035L41.6648 51.0823C40.3746 52.378 38.6226 53.1081 36.7941 53.112L19.325 53.1492C17.4965 53.153 15.7414 52.4304 14.4457 51.1402L2.06685 38.814C0.771165 37.5238 0.041075 35.7717 0.0371846 33.9433L0.0064527 19.4995Z" fill="#0B1C56"/>
</svg>
