<svg width="620" height="578" viewBox="0 0 620 578" fill="none" xmlns="http://www.w3.org/2000/svg">
<path d="M282.123 437.124C246.083 437.124 210.948 433.765 177.75 427.048C143.39 420.202 112.388 410.126 85.7781 397.08C59.4266 384.162 38.6296 369.049 23.9038 352.127L23.3871 351.61C8.14453 333.655 0.264917 314.667 0.0065688 294.903C-0.251779 275.139 7.11114 255.893 21.9661 237.679C36.1753 220.111 56.8431 204.223 83.0655 190.53C109.288 176.838 140.031 165.858 174.133 158.108C209.527 149.97 247.246 145.707 285.998 145.19C324.879 144.674 362.598 148.032 398.25 155.137C432.61 161.983 463.612 172.188 490.222 185.105C516.573 198.023 537.5 213.136 552.096 230.187L552.613 230.704C567.855 248.53 575.735 267.518 575.993 287.282C576.252 307.045 568.889 326.292 554.034 344.506C539.696 362.074 519.157 377.962 492.935 391.784C466.712 405.476 436.098 416.456 401.867 424.206C366.473 432.344 328.884 436.607 289.873 437.124C287.419 437.124 284.835 437.124 282.123 437.124ZM196.222 430.148C226.319 434.928 257.838 437.253 290.002 436.736C324.492 436.219 357.948 432.732 389.725 426.402C358.206 432.732 324.621 436.219 290.002 436.736C257.709 437.253 226.061 434.928 196.222 430.148ZM286.256 145.578H286.127C209.268 146.611 137.319 162.758 83.3238 190.918C29.4582 219.207 0.0065688 256.151 0.523265 294.903C0.781613 314.796 8.7904 333.784 24.2913 351.74C38.8879 368.532 59.685 383.646 86.0365 396.563C138.869 422.398 208.235 436.478 282.123 436.478C284.706 436.478 287.29 436.478 289.873 436.478C366.732 435.444 438.682 419.298 492.676 391.138C546.542 362.978 575.993 326.034 575.477 287.153C574.96 248.4 544.604 212.232 489.964 185.493C437.131 159.658 367.765 145.578 293.877 145.578C291.423 145.578 288.84 145.578 286.256 145.578ZM47.6718 373.699C58.6516 382.096 71.4398 389.717 85.9073 396.821C104.25 405.864 124.659 413.485 146.877 419.556C124.918 413.485 104.379 405.864 85.9073 396.821C71.569 389.717 58.7807 381.966 47.6718 373.699ZM535.95 362.719C524.066 372.924 509.727 382.612 492.935 391.267C473.558 401.472 451.728 409.997 428.348 416.843C452.116 409.868 473.688 401.342 492.935 391.267C509.598 382.612 524.066 373.053 535.95 362.719ZM562.947 244.913C571.214 258.347 575.606 272.556 575.864 287.153C576.123 302.008 571.86 316.604 563.722 330.555C572.118 316.475 576.123 302.008 575.993 287.282C575.735 272.685 571.343 258.476 562.947 244.913ZM8.7904 258.347C2.97757 270.231 0.0065688 282.502 0.264917 294.903C0.394091 302.008 1.42748 308.983 3.49427 315.958C1.42748 309.112 0.394091 302.008 0.264917 294.903C0.135743 282.502 2.97757 270.231 8.7904 258.347ZM293.877 145.32C291.294 145.32 288.71 145.32 286.127 145.32C247.375 145.836 209.656 150.228 174.262 158.237C140.031 165.987 109.417 176.967 83.1946 190.66C67.0479 199.185 52.9679 208.486 41.2131 218.432C52.8387 208.486 66.9187 199.185 83.1946 190.66C137.189 162.371 209.139 146.353 285.998 145.19H286.127C317.645 144.803 348.518 146.87 377.711 151.391C350.714 147.386 322.683 145.32 293.877 145.32ZM432.223 163.404C453.149 169.346 472.654 176.709 490.222 185.234C506.756 193.372 521.095 202.285 533.108 211.973C521.095 202.285 506.756 193.243 490.222 185.234C472.654 176.709 453.278 169.346 432.223 163.404Z" fill="#3F7CDB"/>
<path d="M292.587 445.65C222.833 445.65 152.82 432.087 99.4714 408.19C71.9573 395.918 50.2561 381.58 34.8844 365.562C33.3343 363.883 31.9134 362.333 30.6216 360.912C17.1875 345.411 10.3413 329.135 10.083 312.472C9.82463 294 16.9292 273.461 30.4925 253.31C44.0557 233.288 63.8194 213.654 87.5874 196.732C112.518 179.035 141.97 164.18 172.842 153.975C206.686 142.737 241.95 136.666 277.732 136.278C280.186 136.278 282.511 136.278 284.965 136.278C354.719 136.278 424.732 149.842 478.08 173.739C505.595 186.01 527.296 200.349 542.667 216.366C558.814 233.159 567.21 251.114 567.469 269.457C567.727 287.929 560.623 308.467 547.059 328.618C533.496 348.64 513.732 368.275 489.964 385.197C465.034 402.893 435.582 417.748 404.71 427.953C370.866 439.191 335.472 445.263 299.82 445.65C297.366 445.65 294.912 445.65 292.587 445.65ZM30.7508 360.783C32.0426 362.204 33.4635 363.754 35.0136 365.433C50.3853 381.451 72.0865 395.66 99.6006 408.06C152.949 431.958 222.833 445.392 292.587 445.392C295.041 445.392 297.366 445.392 299.82 445.392C322.297 445.133 344.515 442.679 366.345 438.029C344.644 442.55 322.297 445.004 299.82 445.392C297.495 445.392 295.041 445.392 292.716 445.392C222.962 445.392 152.949 431.828 99.7297 408.06C72.2157 395.789 50.5144 381.451 35.2719 365.562C19.1252 348.77 10.858 331.073 10.5997 312.73C10.4705 307.046 11.1164 301.234 12.4081 295.292C11.1164 301.234 10.4705 307.046 10.5997 312.73C10.4705 329.135 17.3167 345.411 30.7508 360.783ZM284.965 136.666C282.511 136.666 280.186 136.666 277.732 136.666C208.882 137.57 141.453 159.013 87.8457 197.119C38.8888 231.867 9.9538 275.011 10.4705 312.472C10.7288 330.685 18.996 348.382 35.1427 365.175C50.5144 381.063 72.0865 395.401 99.6006 407.673C154.758 432.345 227.612 445.908 299.691 445.004C368.541 444.1 435.97 422.657 489.577 384.551C538.534 349.803 567.469 306.659 566.952 269.198C566.694 252.664 559.848 236.517 546.543 221.146C545.122 219.596 543.701 218.045 542.28 216.495C526.908 200.607 505.207 186.269 477.822 173.997C424.602 150.229 354.719 136.666 284.965 136.666ZM512.828 366.466C505.724 372.796 497.973 378.867 489.706 384.809C483.247 389.459 476.53 393.722 469.684 397.856C476.66 393.722 483.247 389.33 489.706 384.809C497.973 378.996 505.724 372.925 512.828 366.466ZM546.801 221.016C560.106 236.388 567.081 252.664 567.211 269.198C567.34 275.14 566.694 281.082 565.273 287.283C566.694 281.082 567.34 275.14 567.211 269.198C566.952 250.856 558.685 233.159 542.538 216.366C527.167 200.349 505.465 186.139 477.951 173.739C422.794 149.067 349.811 135.374 277.732 136.407C254.868 136.666 232.133 139.249 209.786 144.029C232.004 139.249 254.739 136.666 277.732 136.407C349.811 135.503 422.794 149.067 477.951 173.739C505.465 186.01 527.167 200.349 542.409 216.366C543.959 217.916 545.38 219.466 546.801 221.016ZM107.997 183.814C101.021 187.948 94.1753 192.34 87.7166 196.99C78.2869 203.707 69.3738 210.812 61.3651 218.304C69.3738 210.941 78.1577 203.836 87.7166 197.119C94.3044 192.34 101.151 187.948 107.997 183.814Z" fill="#3F7CDB"/>
<path d="M303.566 454.176C270.885 454.176 237.945 451.205 205.652 445.522C172.196 439.58 140.161 430.538 112.905 419.429C84.6158 407.932 62.1395 394.498 46.122 379.772C43.0218 376.93 40.1799 373.959 37.3381 370.73C25.9708 357.683 20.158 343.991 20.0288 330.169C19.7705 312.731 26.3583 291.546 39.0174 268.941C51.8056 246.077 70.2775 223.213 92.1079 202.933C115.876 180.973 143.39 162.631 171.55 149.842C203.585 135.375 236.524 127.754 269.335 127.237C304.082 126.849 338.959 129.691 373.061 135.892C406.517 141.834 438.553 150.876 465.808 161.985C494.097 173.481 516.703 186.915 532.591 201.641C549.642 217.4 558.426 234.064 558.684 251.115C558.943 268.553 552.355 289.738 539.696 312.343C526.908 335.207 508.565 357.942 486.605 378.351C462.837 400.311 435.452 418.654 407.163 431.442C375.128 446.038 342.189 453.531 309.249 454.047C307.441 454.176 305.503 454.176 303.566 454.176ZM283.027 453.531C291.811 453.789 300.595 453.918 309.379 453.918C322.813 453.789 336.376 452.368 349.81 449.785C337.022 452.239 323.459 453.66 309.379 453.918C300.724 453.918 291.94 453.789 283.027 453.531ZM276.439 127.883C274.114 127.883 271.789 127.883 269.464 127.883C185.372 129.045 122.593 175.677 92.4954 203.32C70.5358 223.601 52.1931 246.335 39.4049 269.07C26.7458 291.546 20.2871 312.602 20.4163 330.04C20.6747 346.962 29.3293 363.496 46.3803 379.126C62.2687 393.852 84.745 407.157 113.034 418.654C167.416 440.872 236.008 453.401 302.274 453.401C304.599 453.401 306.924 453.401 309.249 453.401C393.342 452.239 456.12 405.607 486.218 377.964C508.177 357.683 526.52 334.949 539.179 312.085C551.838 289.609 558.297 268.553 558.168 251.115C558.039 237.422 552.226 223.988 540.988 210.942C538.275 207.842 535.304 204.871 532.333 202.029C516.445 187.303 493.968 173.998 465.679 162.502C411.297 140.413 342.705 127.883 276.439 127.883ZM37.5965 370.472C40.3091 373.572 43.2801 376.672 46.3803 379.385C62.2687 394.24 84.745 407.545 113.034 419.17C124.401 423.821 136.673 428.083 149.59 431.958C136.931 428.083 124.66 423.821 113.034 419.17C84.6158 407.545 62.2687 394.24 46.2511 379.514C29.2002 363.755 20.4163 347.22 20.2871 330.169C20.0288 312.731 26.6167 291.546 39.2757 269.07C52.064 246.206 70.4067 223.472 92.3662 203.191C106.575 190.145 128.018 172.835 155.662 158.11C133.185 170.123 111.613 185.494 92.3662 203.191C70.4067 223.472 52.064 246.206 39.2757 269.07C26.6167 291.546 20.0288 312.731 20.2871 330.169C20.4163 343.991 26.2292 357.554 37.5965 370.472ZM420.468 147.001C436.357 151.393 451.599 156.559 465.808 162.372C494.227 173.998 516.703 187.303 532.591 202.029C535.691 204.871 538.533 207.842 541.246 210.942C552.484 223.988 558.297 237.552 558.555 251.244C558.814 268.683 552.226 289.867 539.567 312.343C526.778 335.207 508.436 357.942 486.476 378.222C474.98 388.814 458.704 402.248 438.294 414.778C455.345 404.315 471.75 392.044 486.605 378.222C508.565 357.942 526.908 335.207 539.696 312.343C552.355 289.867 558.943 268.683 558.684 251.244C558.426 234.322 549.642 217.659 532.72 201.9C516.703 187.174 494.227 173.74 465.938 162.243C451.858 156.689 436.486 151.522 420.468 147.001ZM276.439 127.625C306.537 127.625 337.151 130.208 366.732 135.117C334.697 129.691 302.016 127.237 269.464 127.625C254.221 127.883 238.85 129.562 223.607 132.921C238.075 129.82 253.317 127.883 269.464 127.754C271.789 127.625 274.114 127.625 276.439 127.625Z" fill="#3F7CDB"/>
<path d="M312.737 462.702C250.475 462.702 181.367 450.818 126.597 430.538C97.404 419.687 74.1526 407.416 57.4892 393.853C52.8389 390.107 48.447 385.844 44.5718 381.452C35.1421 370.601 30.2335 359.234 30.1043 347.996C29.8459 331.72 36.1755 309.244 47.672 284.701C59.9435 258.866 76.8653 232.773 96.8873 209.392C119.234 183.17 144.682 161.339 170.516 145.968C200.485 128.271 231.099 118.97 261.326 118.583C325.138 117.679 397.217 129.692 453.924 150.747C483.118 161.598 506.369 173.869 523.032 187.433C540.988 202.158 550.288 217.659 550.417 233.418C550.676 249.694 544.346 272.171 532.85 296.714C520.707 322.549 503.656 348.642 483.634 372.022C461.287 398.245 435.84 420.075 410.005 435.447C380.037 453.143 349.552 462.444 319.196 462.832C317 462.702 314.804 462.702 312.737 462.702ZM44.701 381.194C48.7053 385.715 52.9681 389.848 57.6184 393.594C74.1526 407.158 97.404 419.558 126.597 430.28C181.367 450.56 250.475 462.444 312.608 462.444C314.804 462.444 316.871 462.444 319.067 462.444C333.663 462.186 348.389 459.99 363.115 455.727C349.164 459.731 334.567 462.186 319.067 462.444C316.871 462.444 314.804 462.444 312.608 462.444C250.346 462.444 181.367 450.56 126.597 430.28C97.7915 419.687 73.8943 406.899 57.6184 393.594C39.6632 378.868 30.4918 363.497 30.2335 347.867C29.9751 331.591 36.3046 309.114 47.8011 284.701C59.9435 258.866 76.9945 232.773 96.8873 209.521C110.709 193.245 131.893 171.544 158.762 153.46C137.06 168.056 115.747 187.174 96.7581 209.521C76.8653 232.902 59.8143 258.866 47.672 284.701C36.1755 309.114 29.9751 331.591 30.1043 347.867C30.4918 359.105 35.2712 370.343 44.701 381.194ZM267.526 119.099C265.33 119.099 263.263 119.099 261.067 119.099C184.726 120.133 125.564 176.194 97.1456 209.65C77.2528 233.031 60.2018 258.995 48.0595 284.83C36.563 309.244 30.3626 331.591 30.4918 347.867C30.7502 363.497 39.9215 378.739 57.7475 393.336C74.0235 406.641 97.9207 419.429 126.597 430.021C181.367 450.302 250.346 462.186 312.608 462.186C314.804 462.186 316.871 462.186 319.067 462.186C395.538 461.023 454.699 404.962 483.118 371.635C503.01 348.254 520.061 322.29 532.204 296.455C543.7 272.042 549.901 249.694 549.771 233.418C549.642 222.18 544.734 211.071 535.433 200.35C531.558 195.829 527.166 191.695 522.516 187.949C506.24 174.644 482.343 161.856 453.666 151.264C398.767 130.984 329.788 119.099 267.526 119.099ZM535.562 200.092C544.992 210.942 549.771 222.051 549.901 233.289C550.159 249.565 543.829 272.042 532.333 296.455C520.191 322.29 503.14 348.383 483.247 371.635C466.712 391.011 439.715 418.266 404.967 437.772C406.517 436.868 408.197 435.963 409.747 434.93C435.582 419.687 460.9 397.728 483.247 371.635C503.14 348.254 520.191 322.29 532.333 296.326C543.829 271.912 550.03 249.436 549.901 233.16C549.642 217.53 540.471 202.158 522.516 187.433C505.981 173.869 482.73 161.469 453.537 150.747C398.767 130.467 329.659 118.583 267.397 118.583C265.201 118.583 263.134 118.583 260.938 118.583C249.054 118.712 237.17 120.262 225.157 123.104C236.524 120.391 248.538 118.712 260.938 118.583C263.134 118.583 265.201 118.583 267.397 118.583C329.659 118.583 398.638 130.467 453.408 150.747C482.213 161.339 506.111 174.128 522.386 187.433C527.295 191.437 531.558 195.57 535.562 200.092Z" fill="#3F7CDB"/>
<path d="M322.941 471.227C264.813 471.227 195.317 460.118 140.16 441.646C110.45 431.829 85.9069 420.074 68.8559 407.802C62.6555 403.41 56.9719 398.373 51.9341 392.689C44.1837 383.776 40.1793 374.605 40.0501 365.433C39.7917 350.32 45.7337 326.552 56.1968 300.2C67.435 271.653 83.5817 241.685 101.408 215.591C122.463 184.719 145.327 159.917 169.095 141.962C196.867 121.036 225.027 110.185 252.929 109.798C254.866 109.798 256.804 109.798 258.871 109.798C316.999 109.798 386.495 120.907 441.652 139.379C471.362 149.196 495.905 160.951 512.956 173.222C531.816 186.915 541.504 201.124 541.762 215.591C542.02 230.705 536.078 254.473 525.615 280.824C514.377 309.372 498.23 339.34 480.404 365.433C459.349 396.306 436.485 421.107 412.717 439.062C384.945 459.989 356.785 470.839 329.012 471.227C326.946 471.227 324.879 471.227 322.941 471.227ZM56.4552 397.081C60.3304 400.956 64.5931 404.444 69.1142 407.673C86.036 419.945 110.708 431.57 140.289 441.517C195.446 459.859 264.942 470.968 323.07 470.968C325.008 470.968 327.075 470.968 329.012 470.968C356.785 470.581 384.945 459.73 412.588 438.804C436.356 420.849 459.091 396.047 480.275 365.175C498.101 339.082 514.119 308.984 525.357 280.566C535.82 254.214 541.633 230.576 541.504 215.462C541.374 200.995 531.686 186.915 512.827 173.222C495.905 160.951 471.233 149.325 441.652 139.379C386.495 121.036 316.999 109.927 258.871 109.927C256.933 109.927 254.866 109.927 252.929 109.927C225.156 110.315 196.997 121.165 169.353 142.091C145.585 160.047 122.851 184.848 101.666 215.721C83.8401 241.814 67.8225 271.911 56.5844 300.33C46.1213 326.681 40.3084 350.449 40.4376 365.433C40.5668 374.605 44.5712 383.647 52.3216 392.56C52.7091 392.947 53.0967 393.335 53.4842 393.852C45.0879 384.551 40.696 375.121 40.5668 365.433C40.3084 350.449 46.2504 326.681 56.7135 300.33C67.9517 271.911 83.9692 241.814 101.795 215.721C128.534 176.71 183.562 110.96 253.058 110.056C254.996 110.056 256.933 110.056 259 110.056C317.128 110.056 386.624 121.165 441.781 139.637C471.491 149.583 496.163 161.209 512.956 173.481C519.156 177.873 524.84 182.91 529.749 188.465C537.499 197.378 541.374 206.42 541.504 215.591C541.762 230.576 535.82 254.344 525.357 280.695C513.99 309.243 497.972 339.34 480.275 365.304C453.536 404.315 398.508 470.064 329.012 470.968C327.075 470.968 325.008 470.968 322.941 470.968C264.813 470.968 195.446 459.859 140.418 441.388C110.708 431.441 86.036 419.815 69.2434 407.544C64.2056 404.185 59.9429 400.569 56.4552 397.081ZM258.742 110.185C256.804 110.185 254.737 110.185 252.8 110.185C183.433 111.09 128.405 176.71 101.795 215.721C83.9692 241.943 67.9517 271.911 56.7135 300.459C46.2504 326.81 40.4376 350.449 40.696 365.562C40.9543 379.901 50.5132 393.981 69.2434 407.544C86.036 419.686 110.708 431.441 140.418 441.258C195.446 459.601 264.813 470.839 322.941 470.839C325.008 470.839 326.946 470.839 329.012 470.839C398.379 469.935 453.407 404.315 480.017 365.304C497.714 339.34 513.86 309.372 525.098 280.824C535.562 254.473 541.374 230.834 541.116 215.721C540.987 206.678 536.982 197.636 529.361 188.723C524.323 183.169 518.64 178.131 512.569 173.739C495.776 161.597 471.104 149.842 441.394 140.025C386.236 121.424 316.87 110.185 258.742 110.185Z" fill="#3F7CDB"/>
<path d="M333.015 479.752C307.181 479.752 277.858 477.427 247.502 473.035C214.563 468.256 182.011 461.28 153.722 452.755C123.237 443.713 97.7896 432.991 80.2219 421.882C71.5673 416.328 64.5919 410.644 59.6833 404.96C53.3537 397.727 50.2536 390.364 50.1244 383.001C49.9952 368.792 55.2913 344.249 64.8502 315.701C75.7008 283.278 89.6516 251.631 106.057 221.662C125.433 186.527 146.23 158.238 167.931 137.699C193.508 113.544 219.213 101.014 244.66 100.755C271.529 100.368 303.047 102.693 335.728 107.473C368.667 112.252 401.09 119.227 429.508 127.753C459.994 136.795 485.441 147.516 503.008 158.625C522.772 171.155 532.977 184.202 533.106 197.507C533.235 211.716 527.939 236.259 518.38 264.807C507.53 297.229 493.579 328.877 477.174 358.845C457.798 394.11 437.001 422.27 415.299 442.808C389.852 466.964 364.017 479.494 338.57 479.752C336.762 479.752 334.824 479.752 333.015 479.752ZM100.761 231.867C86.6806 258.864 74.6674 287.024 64.9794 315.83C55.4205 344.378 50.1244 368.792 50.2536 383.001C50.3827 390.234 53.6121 397.597 59.8124 404.831C64.721 410.515 71.5673 416.198 80.2219 421.624C97.7896 432.733 123.237 443.454 153.593 452.496C182.011 460.893 214.434 467.997 247.373 472.648C279.796 477.427 311.314 479.623 338.441 479.365C363.759 478.977 389.465 466.576 415.041 442.421C436.613 421.882 457.41 393.722 476.786 358.587C493.191 328.618 507.013 296.971 517.993 264.548C527.552 236.001 532.848 211.458 532.589 197.378C532.46 184.202 522.385 171.284 502.621 158.755C485.053 147.646 459.735 136.924 429.25 127.882C400.832 119.357 368.409 112.381 335.47 107.731C302.789 102.951 271.27 100.755 244.402 101.014C219.084 101.401 193.378 113.802 167.802 137.958C147.005 157.721 126.983 184.589 108.253 217.916C126.983 184.589 147.134 157.592 167.931 137.958C193.378 113.802 219.084 101.401 244.402 101.143C246.211 101.143 248.019 101.143 249.827 101.143C303.951 101.143 373.705 111.606 429.121 128.011C459.735 137.053 485.053 147.775 502.492 158.884C511.146 164.438 517.993 169.993 522.901 175.676C529.102 182.91 532.331 190.144 532.331 197.507C532.46 211.716 527.164 236.13 517.734 264.677C506.884 297.1 493.062 328.748 476.528 358.587C457.152 393.722 436.355 422.011 414.783 442.421C389.335 466.576 363.63 478.977 338.312 479.235C336.503 479.235 334.695 479.235 332.886 479.235C278.633 479.235 209.008 468.772 153.593 452.367C122.979 443.325 97.6604 432.604 80.2219 421.495C60.4583 408.965 50.3827 396.047 50.2536 382.872C50.1244 368.662 55.4205 344.249 64.8502 315.701C74.6674 287.154 86.6806 258.864 100.761 231.867ZM249.957 101.401C248.148 101.401 246.34 101.401 244.531 101.401C219.213 101.789 193.637 114.06 168.189 138.216C146.617 158.625 125.82 186.915 106.444 222.05C90.0392 252.018 76.2175 283.666 65.3669 315.959C55.9372 344.507 50.5119 368.921 50.7702 383.001C50.8994 396.047 60.975 408.965 80.6095 421.365C98.0479 432.474 123.366 443.067 153.98 452.238C209.396 468.772 279.021 479.106 333.274 479.106C335.082 479.106 336.891 479.106 338.699 479.106C364.017 478.719 389.594 466.447 415.041 442.292C436.613 421.882 457.41 393.593 476.786 358.458C493.191 328.489 507.013 296.842 517.863 264.548C527.293 236.001 532.719 211.587 532.46 197.507C532.331 190.273 529.231 183.039 523.03 175.935C518.122 170.251 511.276 164.697 502.621 159.142C485.182 148.033 459.864 137.441 429.25 128.27C373.705 111.735 304.08 101.401 249.957 101.401Z" fill="#3F7CDB"/>
<path d="M343.093 488.278C319.325 488.278 291.165 486.211 261.326 482.207C228.516 477.815 195.964 471.615 167.158 463.993C135.769 455.726 109.546 446.038 91.4621 436.092C80.8698 430.279 72.861 424.208 67.6941 418.266C62.7855 412.582 60.202 406.64 60.0728 400.827C59.9436 387.781 64.8522 361.817 73.2486 331.59C83.0658 296.455 95.5957 261.578 110.451 228.251C128.148 188.724 147.007 156.947 166.383 134.083C189.634 106.698 213.015 92.6181 236.008 92.3598C260.68 92.1014 290.778 94.039 322.813 98.3018C355.623 102.694 388.175 108.894 416.981 116.515C448.37 124.782 474.592 134.471 492.677 144.417C513.344 155.913 523.937 167.668 524.066 179.681C524.195 192.728 519.286 218.692 510.89 248.919C501.073 284.054 488.543 318.931 473.688 352.258C455.991 391.785 437.132 423.562 417.756 446.426C394.504 473.811 371.124 487.891 348.131 488.149C346.581 488.278 344.902 488.278 343.093 488.278ZM67.9524 418.007C73.2485 424.079 81.1282 430.021 91.7204 435.833C109.805 445.78 136.027 455.468 167.416 463.735C196.222 471.356 228.774 477.686 261.584 481.949C291.423 485.953 319.454 488.02 343.222 488.02C344.902 488.02 346.71 488.02 348.389 488.02C371.382 487.761 394.763 473.681 417.885 446.297C437.261 423.304 456.12 391.656 473.817 352.129C488.672 318.802 501.073 283.925 511.019 248.79C519.416 218.563 524.453 192.599 524.195 179.552C524.066 167.668 513.474 155.913 492.935 144.546C474.851 134.6 448.628 124.912 417.239 116.645C388.433 109.023 355.881 102.694 323.071 98.431C290.907 94.1682 260.938 92.1014 236.266 92.489C213.273 92.7473 189.893 106.827 166.771 134.212C147.394 157.205 128.535 188.853 110.838 228.38C95.9832 261.836 83.5825 296.584 73.6361 331.719C65.2398 362.075 60.202 387.91 60.4603 400.956C60.4603 406.511 63.0438 412.324 67.9524 418.007ZM343.222 488.02C292.844 488.02 222.961 478.461 167.416 463.735C136.027 455.468 109.934 445.78 91.7204 435.833C71.0526 424.337 60.5895 412.582 60.4603 400.698C60.3311 387.652 65.2398 361.817 73.6361 331.461C83.4533 296.326 95.9832 261.578 110.838 228.122C128.535 188.594 147.394 156.947 166.771 133.954C189.893 106.569 213.273 92.6181 236.266 92.2306C286.902 91.5847 359.627 101.273 417.239 116.515C448.628 124.782 474.721 134.471 492.935 144.417C503.527 150.23 511.536 156.301 516.703 162.243C521.612 167.927 524.195 173.739 524.195 179.423C524.324 192.47 519.416 218.304 511.019 248.66C501.202 283.796 488.672 318.543 473.817 352C456.12 391.527 437.261 423.174 417.885 446.167C394.763 473.552 371.382 487.503 348.389 487.891C346.581 488.02 344.902 488.02 343.222 488.02ZM241.175 92.6181C239.496 92.6181 237.816 92.6181 236.137 92.6181C213.273 92.8765 190.022 106.956 166.9 134.212C147.524 157.076 128.664 188.853 110.967 228.251C96.1124 261.578 83.7116 296.455 73.7652 331.59C65.3689 361.817 60.3311 387.652 60.5895 400.698C60.7187 412.453 71.1818 424.208 91.7204 435.446C109.805 445.392 135.898 455.08 167.287 463.348C222.832 478.073 292.715 487.632 343.093 487.632C344.772 487.632 346.452 487.632 348.131 487.632C370.995 487.374 394.375 473.294 417.368 446.038C436.744 423.045 455.604 391.398 473.3 352C488.155 318.673 500.556 283.796 510.503 248.66C518.899 218.304 523.937 192.47 523.678 179.552C523.549 173.869 521.095 168.185 516.186 162.501C511.019 156.559 503.01 150.488 492.547 144.675C474.463 134.729 448.37 125.041 416.981 116.774C361.307 102.177 291.553 92.6181 241.175 92.6181Z" fill="#3F7CDB"/>
<path d="M353.298 496.801C306.666 496.801 236.783 488.018 180.85 475.1C148.557 467.608 121.559 458.953 102.958 450.04C90.4285 444.098 81.3863 437.898 76.0902 431.827C72.215 427.435 70.2774 422.914 70.1482 418.393C70.019 406.38 74.5401 379.124 81.903 347.089C90.6869 308.982 101.925 271.134 115.101 234.32C130.989 190.401 147.911 155.265 165.22 129.818C186.017 99.2038 207.073 83.5738 227.87 83.1862C229.42 83.1862 230.97 83.1862 232.52 83.1862C279.152 83.1862 349.035 91.9701 404.967 104.887C437.261 112.38 464.258 121.034 482.859 129.947C504.431 140.281 515.54 150.873 515.669 161.724C515.799 173.737 511.277 200.993 503.915 233.028C495.131 271.134 483.893 308.982 470.717 345.797C454.828 389.716 437.907 424.852 420.597 450.299C399.8 480.913 378.745 496.543 357.948 496.931C356.398 496.801 354.848 496.801 353.298 496.801ZM76.2194 431.698C81.5155 437.769 90.5577 443.969 102.958 449.911C121.559 458.824 148.557 467.479 180.85 474.971C236.783 487.888 306.666 496.672 353.168 496.672C354.719 496.672 356.398 496.672 357.948 496.672C378.616 496.414 399.542 480.784 420.339 450.17C437.648 424.722 454.441 389.587 470.458 345.668C483.634 308.853 494.872 271.005 503.656 232.899C511.019 200.864 515.54 173.608 515.411 161.595C515.282 151.003 504.302 140.41 482.73 130.076C464 121.163 437.132 112.509 404.838 105.017C348.906 92.0993 279.023 83.3154 232.391 83.3154C230.841 83.3154 229.161 83.3154 227.74 83.3154C207.073 83.5738 186.146 99.2038 165.349 129.818C148.04 155.265 131.248 190.401 115.23 234.32C102.054 271.134 90.9452 308.982 82.0322 347.089C74.6693 379.124 70.1482 406.38 70.2774 418.393C70.4066 422.785 72.4733 427.306 76.2194 431.698ZM353.298 496.543C306.795 496.543 236.783 487.759 180.85 474.842C148.557 467.35 121.689 458.695 102.958 449.782C81.5155 439.577 70.5357 428.985 70.4066 418.264C70.2774 406.25 74.6693 378.995 82.1614 346.96C90.9452 308.853 102.183 271.005 115.359 234.191C131.248 190.401 148.169 155.136 165.479 129.689C186.276 99.2038 207.202 83.5738 227.87 83.1862C274.372 82.5404 347.097 91.4534 404.967 104.887C437.261 112.38 464.129 121.034 482.859 129.947C495.26 135.889 504.302 141.96 509.598 148.161C513.344 152.553 515.411 157.074 515.411 161.466C515.54 173.35 511.019 200.735 503.656 232.77C494.872 270.747 483.634 308.724 470.458 345.539C454.57 389.329 437.648 424.593 420.339 450.04C399.542 480.526 378.616 496.156 357.948 496.543C356.527 496.543 354.977 496.543 353.298 496.543ZM232.52 83.7029C230.97 83.7029 229.291 83.7029 227.74 83.7029C207.202 83.9613 186.276 99.5913 165.608 130.076C148.298 155.524 131.506 190.659 115.617 234.449C102.442 271.134 91.3327 309.112 82.4197 347.089C75.0568 378.995 70.5357 406.38 70.6649 418.264C70.7941 428.727 81.7739 439.319 103.088 449.524C121.689 458.437 148.686 467.091 180.85 474.454C236.783 487.372 306.666 496.156 353.168 496.156C354.719 496.156 356.269 496.156 357.819 496.156C378.357 495.897 399.284 480.267 419.951 449.782C437.261 424.335 454.053 389.199 469.942 345.409C483.117 308.724 494.356 270.747 503.139 232.77C510.502 200.735 515.023 173.479 514.894 161.595C514.765 157.203 512.828 152.811 509.081 148.419L509.211 148.29L509.081 148.419C503.785 142.348 494.872 136.277 482.342 130.335C463.741 121.422 436.744 112.767 404.58 105.404C349.035 92.4868 279.152 83.7029 232.52 83.7029Z" fill="#3F7CDB"/>
<path d="M363.372 505.33C320.228 505.33 250.345 497.45 194.412 486.341C177.878 482.983 153.593 477.558 132.021 470.582C107.736 462.703 91.848 454.565 84.6143 446.297C81.6433 442.939 80.2224 439.451 80.0932 436.093C79.8348 415.942 94.5607 326.295 119.62 240.652C133.7 192.471 148.555 153.847 163.798 125.817C182.27 91.9731 201 74.6638 219.343 74.4055C261.712 73.8888 334.695 81.8976 392.694 93.3941C435.193 101.92 506.626 119.746 507.013 143.643C507.272 164.052 492.417 253.699 467.357 339.083C453.277 387.265 438.422 425.888 423.179 453.79C404.708 487.633 385.977 504.942 367.635 505.201C366.343 505.33 364.793 505.33 363.372 505.33ZM84.8726 446.039C92.1064 454.306 107.995 462.444 132.15 470.324C153.722 477.299 177.878 482.725 194.412 486.083C250.215 497.321 320.228 505.072 363.243 505.072C364.793 505.072 366.214 505.072 367.635 505.072C385.977 504.813 404.578 487.504 422.921 453.79C438.164 425.888 453.019 387.265 467.099 339.083C492.029 253.699 506.884 164.052 506.626 143.643C506.497 133.18 492.546 122.846 465.419 112.899C441.78 104.245 412.716 97.6568 392.565 93.5232C336.504 82.2851 266.62 74.5346 223.735 74.5346C222.185 74.5346 220.764 74.5346 219.343 74.5346C201 74.793 182.399 92.1023 164.056 125.817C148.814 153.718 133.959 192.341 119.879 240.523C94.9482 326.295 80.0932 415.812 80.3515 435.964C80.4807 439.322 81.9016 442.81 84.8726 446.039ZM363.372 505.072C320.486 505.072 250.474 497.192 194.541 485.954C161.344 479.366 133.7 471.745 114.453 463.865C92.1064 454.823 80.6099 445.393 80.4807 435.964C80.2224 415.683 95.0774 326.166 120.008 240.652C134.088 192.471 148.943 153.847 164.185 125.946C182.657 92.2315 201.258 74.9222 219.472 74.6638C220.893 74.6638 222.314 74.6638 223.864 74.6638C266.75 74.6638 336.633 82.5434 392.694 93.6524C425.892 100.24 453.535 107.991 472.782 115.741C487.25 121.683 497.067 127.625 502.363 133.567C505.205 136.926 506.755 140.284 506.755 143.643C507.013 163.923 492.288 253.441 467.228 338.954C453.148 387.136 438.293 425.759 423.05 453.66C404.578 487.375 385.977 504.684 367.764 504.942C366.343 505.072 364.793 505.072 363.372 505.072ZM223.864 74.9222C222.314 74.9222 220.893 74.9222 219.472 74.9222C201.258 75.1805 182.787 92.3607 164.315 126.075C149.072 153.977 134.217 192.6 120.137 240.782C95.2065 326.166 80.4807 415.683 80.7391 435.964C80.8682 445.264 92.2355 454.565 114.453 463.607C133.7 471.357 161.344 479.108 194.541 485.696C250.603 496.934 320.486 504.684 363.372 504.684C364.793 504.684 366.343 504.684 367.764 504.684C385.977 504.426 404.449 487.246 422.921 453.531C438.164 425.63 453.019 387.007 467.099 338.825C492.158 253.311 506.884 163.794 506.626 143.514C506.626 140.284 505.076 136.926 502.234 133.696C497.067 127.754 487.121 121.812 472.782 115.87C453.535 108.12 425.892 100.369 392.694 93.7816C336.633 82.8018 266.75 74.9222 223.864 74.9222Z" fill="#3F7CDB"/>
<path d="M373.837 513.854C339.735 513.854 271.79 508.3 207.978 497.449C171.55 491.249 108.384 478.331 93.4002 461.151C91.2043 458.697 90.1709 456.113 90.1709 453.659C89.9125 436.22 102.572 339.986 124.273 246.851C143.52 164.438 174.134 66.0078 211.207 65.6202C243.759 65.1035 314.288 70.7872 380.683 82.0253C401.609 85.6422 431.578 91.455 455.862 98.9471C484.022 107.602 498.361 116.773 498.49 125.815C498.748 143.254 486.089 239.488 464.388 332.623C445.141 415.036 414.527 513.466 377.454 513.854C376.291 513.854 375.129 513.854 373.837 513.854ZM194.543 494.736C199.323 495.64 203.844 496.416 208.107 497.191C271.919 508.041 339.864 513.596 373.966 513.596C375.258 513.596 376.42 513.596 377.583 513.596C394.117 513.337 410.91 493.315 427.444 453.788C440.103 423.82 452.375 383.001 464.13 332.494C485.831 239.359 498.49 143.125 498.232 125.686C498.232 121.553 495.131 117.548 489.964 113.802C492.031 115.223 493.71 116.773 495.002 118.323C497.069 120.778 498.232 123.232 498.232 125.686C498.49 143.125 485.831 239.359 464.13 332.494C451.858 385.068 438.941 427.178 425.765 457.534C409.747 494.478 393.471 513.337 377.454 513.596C342.448 514.112 276.827 508.041 221.412 499.387C211.982 497.836 203.069 496.286 194.543 494.736ZM215.211 66.1369C213.79 66.1369 212.499 66.1369 211.207 66.1369C195.319 66.3953 179.172 85.1255 163.154 122.069C149.978 152.425 137.061 194.407 124.789 246.981C103.088 339.986 90.4292 436.22 90.6876 453.659C90.6876 456.113 91.721 458.438 93.7877 460.893C120.139 491.249 303.825 513.337 373.32 513.337C374.741 513.337 376.033 513.337 377.325 513.337C393.213 513.079 409.36 494.349 425.377 457.405C438.553 427.049 451.471 385.068 463.742 332.494C485.443 239.359 498.102 143.254 497.844 125.815C497.844 123.49 496.811 121.036 494.615 118.582C468.392 88.2257 284.836 66.1369 215.211 66.1369ZM215.082 65.7494C213.79 65.7494 212.499 65.7494 211.207 65.7494C174.392 66.2661 143.778 164.438 124.531 246.851C102.83 340.115 90.1709 436.22 90.4292 453.659C90.4292 455.597 91.2043 457.534 92.496 459.343C91.2043 457.405 90.5584 455.467 90.5584 453.659C90.3 436.22 102.959 339.986 124.66 246.851C136.932 194.278 149.849 152.167 163.025 121.811C179.043 84.8672 195.319 66.0078 211.336 65.7494C212.628 65.7494 213.92 65.7494 215.34 65.7494C251.251 65.7494 314.029 71.5622 367.378 79.9585C380.167 82.0253 392.18 84.0921 403.418 86.2881C395.409 84.738 387.659 83.3171 380.683 82.1545C316.742 71.4331 249.055 65.7494 215.082 65.7494Z" fill="#3F7CDB"/>
<path d="M383.912 522.38C352.523 522.38 283.415 517.213 221.54 508.559C186.017 503.521 157.47 498.096 136.931 492.283C118.718 487.116 107.092 481.82 102.442 476.524C100.892 474.715 100.117 473.036 100.117 471.227C99.8583 454.822 111.096 350.062 128.793 253.053C145.069 163.664 171.162 57.0955 202.81 56.708C203.843 56.708 205.006 56.708 206.169 56.708C237.558 56.708 306.537 61.875 368.411 70.5296C403.934 75.5674 432.481 80.9927 453.02 86.8055C477.305 93.6518 489.705 100.756 489.835 107.861C490.093 124.266 478.855 229.026 461.158 326.036C444.882 415.424 418.789 521.993 387.27 522.38C386.108 522.38 385.075 522.38 383.912 522.38ZM206.169 56.9664C205.006 56.9664 203.843 56.9664 202.81 56.9664C188.73 57.0955 174.392 78.9259 160.312 121.683C149.59 154.234 139.127 198.412 129.052 253.053C111.355 350.062 100.117 454.822 100.375 471.227C100.375 472.907 101.15 474.715 102.7 476.394C107.35 481.691 118.847 486.987 137.06 492.024C157.599 497.837 186.017 503.263 221.669 508.3C285.74 517.343 357.56 522.51 387.27 522.122C401.35 521.864 415.689 500.162 429.769 457.406C440.49 424.854 450.953 380.676 461.029 326.036C478.726 229.026 489.964 124.266 489.705 107.861C489.576 100.886 477.305 93.9101 453.149 87.0639C432.611 81.2511 404.192 75.8258 368.54 70.788C306.537 62.1333 237.687 56.9664 206.169 56.9664ZM383.783 522.122C352.264 522.122 283.285 516.955 221.669 508.3C143.777 497.321 100.763 484.145 100.504 471.227C100.246 454.822 111.484 350.062 129.181 253.053C145.457 163.793 171.421 57.3539 202.81 56.9664C203.843 56.9664 205.006 56.9664 206.169 56.9664C237.558 56.9664 306.537 62.1333 368.282 70.788C436.227 80.3469 477.305 91.4558 487.122 102.694C488.543 104.373 489.318 106.052 489.318 107.732C489.576 124.137 478.338 228.897 460.641 325.907C444.365 415.166 418.401 521.605 387.012 521.993C386.108 522.122 384.945 522.122 383.783 522.122ZM206.169 57.2247C205.006 57.2247 203.843 57.2247 202.81 57.2247C188.859 57.483 174.521 79.1843 160.57 121.812C149.849 154.364 139.386 198.541 129.439 253.053C111.742 350.062 100.504 454.822 100.763 471.227C100.892 484.016 143.907 497.062 221.669 508.042C285.611 517.084 357.431 522.251 387.141 521.864C401.092 521.605 415.43 499.904 429.381 457.277C440.103 424.725 450.566 380.547 460.512 326.036C478.209 229.026 489.447 124.395 489.189 107.99C489.189 106.311 488.414 104.761 486.993 103.081C482.213 97.527 469.554 91.9725 449.403 86.5472C429.252 81.1219 401.867 75.9549 368.282 71.1755C306.537 62.3917 237.687 57.2247 206.169 57.2247Z" fill="#3F7CDB"/>
<path d="M393.73 530.905C365.053 530.905 295.17 526.513 235.104 519.667C198.548 515.534 169.355 511.013 148.299 506.362C128.148 501.841 115.877 497.191 111.743 492.412C110.839 491.507 110.193 490.216 110.193 488.795C110.064 477.169 118.46 367.5 133.444 259.252C141.97 197.895 150.883 148.938 160.054 113.673C171.421 70.1417 182.918 48.0529 194.414 47.7946C220.895 47.4071 293.749 51.9281 356.14 59.0327C392.696 63.1663 421.89 67.6874 442.945 72.3376C468.134 78.0213 480.922 83.8341 481.051 89.7761C481.181 101.531 472.784 211.458 457.8 319.318C449.275 380.676 440.362 429.633 431.19 464.897C419.823 508.429 408.327 530.518 396.83 530.776C395.797 530.905 394.763 530.905 393.73 530.905ZM197.644 48.1821C196.61 48.1821 195.577 48.1821 194.544 48.1821C183.176 48.3113 171.68 70.4 160.442 113.802C151.27 149.067 142.357 198.024 133.832 259.382C118.718 367.629 110.322 477.298 110.451 488.924C110.58 490.216 111.097 491.378 112.001 492.282C116.135 496.933 128.277 501.583 148.428 506.104C169.484 510.883 198.677 515.275 235.233 519.409C295.299 526.126 365.053 530.647 393.73 530.647C394.892 530.647 395.926 530.647 396.83 530.647C408.197 530.518 419.694 508.429 430.932 465.027C440.103 429.762 449.016 380.805 457.542 319.448C472.526 211.587 480.922 101.66 480.793 89.9053C480.664 84.0925 468.005 78.2796 442.816 72.7252C421.761 67.9457 392.567 63.5538 356.011 59.4202C296.203 52.574 226.32 48.1821 197.644 48.1821ZM393.859 530.647C365.053 530.647 295.041 526.255 235.104 519.409C198.677 515.275 169.484 510.754 148.299 506.104C123.239 500.55 110.451 494.737 110.451 488.924C110.322 477.169 118.718 367.371 133.703 259.382C147.007 163.276 168.45 48.5696 194.414 48.1821C221.153 47.7946 294.008 52.3157 356.14 59.2911C392.567 63.4246 421.89 67.9457 442.945 72.596C463.096 77.1171 475.239 81.7673 479.372 86.4176C480.276 87.3218 480.793 88.6136 480.922 89.7761C481.051 101.531 472.655 211.329 457.671 319.318C449.533 378.222 440.878 425.758 432.095 460.764C420.469 506.879 408.714 530.389 396.959 530.518C395.926 530.647 394.892 530.647 393.859 530.647ZM197.514 48.4404C196.481 48.4404 195.448 48.4404 194.544 48.4404C182.918 48.5696 171.163 71.9501 159.667 117.936C150.883 152.942 142.228 200.478 134.09 259.382C119.106 367.371 110.71 477.169 110.839 488.924C110.968 494.608 123.627 500.291 148.558 505.846C169.613 510.625 198.806 515.017 235.362 519.151C295.299 525.868 365.312 530.389 394.117 530.389C395.151 530.389 396.184 530.389 397.088 530.389C408.714 530.26 420.469 506.879 431.965 460.893C440.749 425.887 449.404 378.351 457.542 319.448C472.526 211.458 480.922 101.66 480.793 89.9053C480.664 88.7427 480.147 87.5802 479.372 86.676C475.368 82.0257 463.225 77.5046 443.074 72.9835C422.019 68.2041 392.826 63.8121 356.269 59.6786C296.333 52.8324 226.191 48.4404 197.514 48.4404Z" fill="#3F7CDB"/>
<path d="M403.805 539.431C380.424 539.431 311.833 536.33 248.667 530.905C195.318 526.384 129.827 518.763 121.172 508.816C120.526 508.17 120.268 507.395 120.139 506.62C120.009 495.511 126.597 379.255 137.965 265.582C144.552 199.832 151.528 147.387 158.762 109.669C167.675 62.9077 176.846 39.1397 186.147 39.0105C206.685 38.7522 278.248 41.9815 343.997 47.536C379.778 50.6362 408.843 53.9947 430.027 57.4824C458.058 62.1327 472.396 66.9121 472.396 71.9499C472.525 83.188 465.937 199.574 454.57 312.989C447.982 378.738 441.007 431.183 433.773 468.902C424.86 515.663 415.689 539.431 406.388 539.56C405.742 539.431 404.838 539.431 403.805 539.431ZM188.859 39.2689C187.826 39.2689 187.051 39.2689 186.147 39.2689C177.104 39.398 167.933 63.0369 159.02 109.669C151.786 147.387 144.811 199.832 138.223 265.582C126.856 379.126 120.268 495.382 120.526 506.491C120.526 507.266 120.914 508.041 121.43 508.558C126.21 513.983 152.045 522.25 248.796 530.518C314.675 536.201 386.237 539.301 406.647 539.043C415.689 538.914 424.86 515.275 433.773 468.643C441.007 431.054 447.982 378.609 454.57 312.73C465.937 199.445 472.525 82.9297 472.396 71.8207C472.267 63.2952 427.96 54.8989 344.126 47.7943C280.96 42.4982 212.369 39.2689 188.859 39.2689ZM403.805 539.172C380.295 539.172 311.833 536.072 248.667 530.647C200.872 526.513 120.655 517.988 120.397 506.62C120.268 495.382 126.856 378.996 138.223 265.711C148.557 162.63 165.349 39.7855 186.017 39.5272C186.792 39.5272 187.697 39.5272 188.73 39.5272C212.11 39.5272 280.573 42.6274 343.868 48.0527C381.587 51.282 411.814 54.7697 433.515 58.5158C455.216 62.2618 467.875 66.137 471.234 70.0123C471.75 70.529 472.138 71.304 472.138 72.0791C472.267 83.0588 465.808 198.928 454.312 312.989C443.978 416.069 427.185 538.914 406.517 539.172C405.742 539.172 404.838 539.172 403.805 539.172ZM188.859 39.6564C187.955 39.6564 187.051 39.6564 186.147 39.6564C174.779 39.7856 157.341 79.1836 138.61 265.711C127.243 378.867 120.655 495.382 120.784 506.491C120.784 511.271 137.577 520.7 248.796 530.259C311.962 535.685 380.424 538.785 403.934 538.785C404.967 538.785 405.872 538.785 406.647 538.785C418.014 538.656 435.452 499.257 454.183 312.73C465.679 198.67 472.267 82.8005 472.009 71.8207C472.009 71.0457 471.621 70.3998 471.104 69.8831C464.517 62.2618 419.306 54.5114 343.997 48.0527C280.702 42.7566 212.24 39.6564 188.859 39.6564Z" fill="#3F7CDB"/>
<path d="M414.009 547.956C394.762 547.956 326.3 545.76 262.359 542.014C223.994 539.689 193.251 537.235 171.162 534.522C146.878 531.551 133.702 528.709 130.989 525.48C130.602 525.092 130.472 524.705 130.472 524.188C130.343 516.696 134.735 394.11 142.873 271.782C147.523 201.64 152.561 145.708 157.857 105.664C160.958 82.0253 164.058 63.6826 167.287 51.1527C170.904 37.0728 174.392 30.2265 178.138 30.2265C193.251 29.9682 264.943 32.1642 332.113 36.1685C370.478 38.4937 401.221 40.948 423.31 43.6606C450.695 46.89 464 50.3777 464.129 53.9946C464.258 61.745 459.737 185.494 451.728 306.401C447.078 376.542 442.04 432.474 436.744 472.518C433.644 496.157 430.544 514.5 427.314 527.03C423.697 541.11 420.21 547.956 416.464 547.956C415.56 547.956 414.784 547.956 414.009 547.956ZM180.334 30.4849C179.429 30.4849 178.525 30.4849 177.879 30.4849C174.262 30.4849 170.775 37.3311 167.287 51.1527C164.058 63.6826 160.958 82.0253 157.857 105.664C152.69 145.837 147.653 201.64 142.873 271.782C134.735 394.11 130.343 516.696 130.472 524.059C130.472 524.446 130.731 524.834 130.989 525.221C133.702 528.322 146.748 531.293 171.033 534.134C193.122 536.847 223.865 539.301 262.23 541.626C326.171 545.502 394.762 547.568 413.88 547.568C414.784 547.568 415.56 547.568 416.205 547.568C419.822 547.568 423.31 540.722 426.798 526.901C430.027 514.371 433.127 496.028 436.227 472.389C441.394 432.345 446.432 376.413 451.212 306.271C459.349 185.365 463.741 61.745 463.612 53.9946C463.612 50.5069 449.92 47.1483 423.052 43.919C400.834 41.2063 370.219 38.752 331.855 36.4269C267.784 32.5517 199.581 30.4849 180.334 30.4849ZM413.88 547.698C394.504 547.698 326.042 545.502 262.23 541.756C216.115 539.043 137.835 533.23 130.989 525.351C130.731 525.092 130.472 524.705 130.472 524.188C130.343 516.696 134.735 393.722 142.873 271.782C148.169 193.373 153.724 132.92 159.666 92.1009C165.608 51.2819 171.679 30.4849 177.75 30.4849C178.396 30.4849 179.171 30.4849 180.075 30.4849C199.451 30.4849 268.043 32.6809 331.726 36.4269C377.841 39.1396 456.12 44.9524 462.966 52.832C463.225 53.0903 463.483 53.4779 463.483 53.9946C463.612 61.6158 459.22 184.589 451.082 306.401C445.786 384.809 440.232 445.263 434.29 486.082C428.348 526.901 422.277 547.698 416.205 547.698C415.56 547.698 414.784 547.698 413.88 547.698ZM180.204 30.7432C179.3 30.7432 178.525 30.7432 177.879 30.7432C171.937 30.8724 165.866 51.5403 160.053 92.2301C154.241 132.92 148.557 193.373 143.261 271.911C135.123 393.851 130.731 516.696 130.86 524.188C130.86 524.575 130.989 524.834 131.248 525.092C136.285 530.905 182.788 536.718 262.359 541.368C326.171 545.243 394.633 547.31 414.009 547.31C414.914 547.31 415.689 547.31 416.335 547.31C422.277 547.181 428.348 526.513 434.161 485.823C440.103 445.004 445.657 384.68 450.953 306.142C459.091 184.46 463.483 61.3575 463.354 53.8654C463.354 53.4779 463.225 53.2195 462.966 52.9612C457.929 47.1483 411.426 41.3355 331.855 36.6852C268.172 32.9392 199.581 30.7432 180.204 30.7432Z" fill="#3F7CDB"/>
<path d="M423.956 556.482C409.101 556.482 342.577 555.449 275.794 553.124C236.267 551.703 204.748 550.282 182.272 548.603C169.225 547.699 159.021 546.665 151.916 545.503C145.199 544.469 141.453 543.436 140.419 542.402C140.29 542.273 140.161 542.015 140.161 541.757C140.161 536.848 142.357 405.607 147.137 277.983C150.237 193.374 153.724 128.658 157.47 85.9014C161.216 42.499 165.092 21.3144 169.484 21.3144C178.784 21.1853 248.926 22.2186 319.584 24.673C359.111 26.0939 390.63 27.5148 413.106 29.194C426.411 30.2274 436.745 31.2608 443.462 32.2942C453.796 33.8443 455.217 35.1361 455.217 36.0403C455.346 40.8197 453.021 170.898 448.241 299.814C445.141 384.423 441.653 449.139 437.907 491.895C434.161 535.298 430.286 556.482 425.894 556.482C425.507 556.482 424.861 556.482 423.956 556.482ZM163.412 38.3654C161.475 49.0868 159.666 65.1044 157.729 86.0306C153.983 128.787 150.624 193.374 147.395 278.112C142.615 405.736 140.29 536.848 140.419 541.886C140.419 542.015 140.549 542.273 140.678 542.402C141.582 543.436 145.328 544.469 151.916 545.373C159.021 546.407 169.225 547.44 182.272 548.344C204.748 550.024 236.137 551.445 275.665 552.866C346.194 555.32 416.335 556.353 425.765 556.224C425.894 556.224 426.152 556.224 426.282 556.095C426.152 556.224 425.894 556.224 425.765 556.224C425.377 556.224 424.731 556.224 424.086 556.224C409.618 556.224 342.189 555.191 275.665 552.866C191.96 550.024 144.036 546.278 140.549 542.273C140.419 542.144 140.29 542.015 140.29 541.757C140.29 536.719 142.486 405.349 147.266 277.983C150.366 194.666 153.854 130.337 157.47 87.064C159.666 65.4919 161.475 49.216 163.412 38.3654ZM171.68 21.9603C170.775 21.9603 170.13 21.9603 169.613 21.9603C166.9 21.9603 162.767 33.3276 158.116 87.1932C154.37 130.466 151.012 194.795 147.912 278.112C143.132 405.349 140.807 536.848 140.936 541.886C140.936 542.015 140.936 542.144 141.065 542.273C144.424 546.148 192.347 549.895 275.923 552.736C345.677 555.191 416.335 556.224 426.023 556.095C428.736 556.095 432.869 544.728 437.52 490.862C441.266 447.589 444.624 383.389 447.724 299.943C452.504 170.769 454.829 40.9489 454.7 36.1694C454.7 36.0403 454.571 35.9111 454.571 35.9111C451.212 32.0359 403.289 28.419 319.713 25.448C252.93 22.9937 186.664 21.9603 171.68 21.9603ZM454.7 35.5236C454.829 35.6527 454.958 35.7819 454.958 36.0403C455.087 40.8197 452.762 170.64 447.983 299.814C444.883 383.26 441.395 447.46 437.778 490.733C436.486 505.846 435.195 518.376 433.903 528.193C435.195 518.505 436.486 506.363 437.778 491.766C441.524 449.01 444.883 384.423 448.112 299.684C452.891 170.769 455.217 40.6905 455.087 35.9111C455.087 34.6194 451.341 33.4568 443.591 32.4234C436.745 31.39 426.54 30.3566 413.235 29.3232C390.759 27.644 359.369 26.223 319.842 24.8021C249.184 22.3478 179.043 21.3144 169.742 21.4436C169.225 21.4436 168.579 21.8311 168.063 22.7353C168.579 21.9603 169.225 21.4436 169.742 21.4436C179.172 21.3144 249.313 22.3478 319.842 24.8021C403.289 27.9023 451.341 31.6484 454.7 35.5236Z" fill="#3F7CDB"/>
<path d="M427.185 565.008C405.613 565.008 346.968 564.878 289.357 564.232C234.199 563.716 194.801 562.812 172.325 561.907C153.595 561.003 150.753 560.228 150.366 559.711C150.236 559.582 150.236 559.453 150.236 559.453C150.236 556.87 150.365 422.012 151.786 284.312C152.561 205.129 153.724 142.35 155.016 97.5268C157.47 12.5303 160.183 12.5303 161.216 12.5303C165.479 12.5303 236.654 12.5303 307.441 13.1761C366.732 13.822 407.68 14.5971 429.123 15.7596C446.691 16.6638 446.691 17.4389 446.691 18.0848C446.691 20.6682 446.562 155.655 445.141 293.225C444.366 372.022 443.203 434.8 441.911 479.882C439.457 564.878 436.744 564.878 435.711 564.878C434.936 565.008 431.965 565.008 427.185 565.008ZM150.624 559.582C152.432 561.649 200.356 563.07 289.486 563.974C359.627 564.749 431.319 564.749 435.711 564.749C436.098 564.749 436.873 564.749 438.036 554.286C439.328 541.24 440.619 516.18 441.653 480.011C442.945 434.929 443.978 372.022 444.882 293.355C446.303 155.784 446.562 20.7974 446.432 18.2139C446.432 16.1471 399.671 14.5971 307.57 13.5637C236.783 12.7886 165.608 12.7886 161.345 12.9178C160.958 12.9178 160.183 12.9178 159.02 23.3809C157.728 36.4275 156.437 61.4872 155.403 97.6559C154.112 142.35 153.078 205.258 152.174 284.312C150.753 422.012 150.495 556.87 150.624 559.453C150.495 559.582 150.495 559.582 150.624 559.582ZM425.764 564.749C403.417 564.749 347.098 564.62 289.873 563.974C249.959 563.587 217.665 563.07 194.285 562.424C165.608 561.649 150.882 560.616 150.624 559.453C150.624 555.965 150.753 420.203 152.174 284.312C152.949 206.033 154.112 143.254 155.403 97.5268C156.178 70.9169 157.083 50.2491 157.987 36.0399C159.02 20.5391 160.054 12.7886 161.345 12.7886C165.608 12.7886 236.137 12.7886 307.183 13.4345C347.356 13.822 379.52 14.3387 402.771 14.9846C430.286 15.7596 445.399 16.793 446.303 17.8264V17.9556C446.303 20.5391 446.174 155.009 444.753 293.096C443.978 370.988 442.815 433.767 441.524 479.753C440.749 506.492 439.844 527.16 438.94 541.24C437.907 556.74 436.873 564.491 435.582 564.491C434.807 564.749 431.319 564.749 425.764 564.749ZM170.646 13.047C165.35 13.047 161.991 13.047 161.216 13.047C160.829 13.047 159.537 14.7262 158.116 36.0399C157.212 50.2491 156.308 70.9169 155.532 97.5268C154.241 143.254 153.078 206.033 152.303 284.183C150.882 420.203 150.624 555.965 150.753 559.324C150.882 559.711 155.532 560.874 194.155 562.037C217.665 562.682 249.829 563.199 289.744 563.587C361.307 564.362 431.448 564.362 435.582 564.232C435.969 564.232 437.261 562.553 438.682 541.24C439.586 527.16 440.49 506.492 441.265 479.753C442.557 433.767 443.72 370.988 444.495 293.096C445.916 155.268 446.045 21.1849 446.045 17.9556C445.657 17.4389 440.62 16.2763 402.642 15.2429C379.391 14.5971 347.227 14.0804 307.054 13.6928C249.829 13.3053 192.864 13.047 170.646 13.047Z" fill="#3F7CDB"/>
<path d="M160.313 577.408V577.149L152.691 3.74605H152.95L438.037 0V0.258349L445.658 573.662H445.4L160.313 577.408ZM152.821 4.0044L160.442 577.149L445.271 573.403L437.649 0.258349L152.821 4.0044ZM160.571 577.02V576.891L152.821 4.0044H152.95L437.649 0.129175V0.258349L445.4 573.145H445.271L160.571 577.02ZM153.208 4.26274L160.829 576.762L445.141 573.016L437.391 0.516696L153.208 4.26274Z" fill="#3F7CDB"/>
<g clip-path="url(#clip0_2385_21274)">
<path d="M527.279 450.721V469.482H9.54199V450.721H227.2H227.308V455.059H305.717V450.721H305.934H527.279Z" fill="#417DBE"/>
<path d="M527.279 440.743V450.721H305.934H305.717V440.743H483.357H527.279Z" fill="#3174AE"/>
<path d="M227.309 440.743H43.5957V136.543H483.358V440.743H305.718H227.309ZM461.668 425.777V151.509H65.2856V425.777H461.668Z" fill="#417DBE"/>
<path d="M461.776 151.509H65.2852V425.777H461.776V151.509Z" fill="white"/>
<path d="M305.716 450.721V455.058H227.308V450.721V440.743H305.716V450.721Z" fill="#1A5184"/>
<path d="M227.308 440.743V450.721H227.2H9.54199V440.743H43.5951H227.308Z" fill="#3174AE"/>
<path d="M461.776 151.509H65.2852V425.777H461.776V151.509Z" stroke="#242752" stroke-width="1.08449" stroke-miterlimit="10"/>
<path d="M43.5957 440.743V136.543H483.358V440.743" stroke="#242752" stroke-width="1.08449" stroke-miterlimit="10"/>
<path d="M527.279 450.721V469.482H9.54199V450.721V440.743H43.5951H227.308H305.717H483.357H527.279V450.721Z" stroke="#242752" stroke-width="1.08449" stroke-miterlimit="10"/>
<path d="M305.716 440.743V450.721V455.059H227.308V450.721V440.743V440.201" stroke="#242752" stroke-width="1.08449" stroke-miterlimit="10"/>
<path d="M305.934 450.721H527.279" stroke="#242752" stroke-width="1.08449" stroke-miterlimit="10"/>
<path d="M9.54199 450.721H227.2" stroke="#242752" stroke-width="1.08449" stroke-miterlimit="10"/>
<path d="M90.1199 172.375C92.1563 172.375 93.8072 170.724 93.8072 168.687C93.8072 166.651 92.1563 165 90.1199 165C88.0835 165 86.4326 166.651 86.4326 168.687C86.4326 170.724 88.0835 172.375 90.1199 172.375Z" fill="#242752"/>
<rect x="364" y="328" width="66.8709" height="71.867" fill="#ECF1FB"/>
<rect x="364" y="294.248" width="44.9649" height="7.68631" fill="#D9E5F9"/>
<path d="M99.6629 172.375C101.699 172.375 103.35 170.724 103.35 168.687C103.35 166.651 101.699 165 99.6629 165C97.6264 165 95.9756 166.651 95.9756 168.687C95.9756 170.724 97.6264 172.375 99.6629 172.375Z" fill="#EB5F60"/>
<path d="M109.532 172.375C111.568 172.375 113.219 170.724 113.219 168.687C113.219 166.651 111.568 165 109.532 165C107.496 165 105.845 166.651 105.845 168.687C105.845 170.724 107.496 172.375 109.532 172.375Z" fill="#D9E4F6"/>
<rect x="410.887" y="331.459" width="16.5256" height="11.1451" fill="#D9E5F9"/>
<rect x="364" y="217" width="66.8709" height="71.867" fill="#ECF1FB"/>
<path d="M463.943 249.112C494.743 249.112 519.578 274.056 519.578 304.747C519.578 335.438 494.634 360.381 463.943 360.381C462.208 360.381 460.581 360.273 458.954 360.164C430.541 357.67 408.309 333.811 408.309 304.747C408.309 275.682 430.541 251.824 458.954 249.329C460.581 249.221 462.208 249.112 463.943 249.112ZM504.937 304.747C504.937 282.081 486.609 263.753 463.943 263.753C441.277 263.753 422.949 282.081 422.949 304.747C422.949 327.413 441.277 345.741 463.943 345.741C486.609 345.741 504.937 327.413 504.937 304.747Z" fill="#3E7DBE"/>
<path d="M463.944 263.753C486.609 263.753 504.937 282.081 504.937 304.747C504.937 327.413 486.609 345.741 463.944 345.741C441.278 345.741 422.95 327.413 422.95 304.747C422.841 282.081 441.278 263.753 463.944 263.753Z" fill="#1E64A1"/>
<path d="M458.955 360.164V360.381C428.155 360.381 403.32 335.438 403.32 304.747C403.32 274.056 428.264 249.112 458.955 249.112V249.329C430.541 251.824 408.309 275.682 408.309 304.747C408.309 333.811 430.541 357.67 458.955 360.164Z" fill="#1E64A1"/>
<path d="M458.956 360.164C430.543 357.67 408.311 333.811 408.311 304.747C408.311 275.682 430.543 251.824 458.956 249.329C460.583 249.221 462.318 249.112 463.945 249.112C494.745 249.112 519.58 274.056 519.58 304.747C519.58 335.438 494.636 360.381 463.945 360.381C462.21 360.49 460.583 360.381 458.956 360.164Z" stroke="#1D1E3E" stroke-width="0.542247" stroke-miterlimit="10"/>
<path d="M422.842 304.747C422.842 282.081 441.17 263.753 463.836 263.753C486.502 263.753 504.83 282.081 504.83 304.747C504.83 327.413 486.502 345.741 463.836 345.741C441.278 345.741 422.842 327.413 422.842 304.747Z" stroke="#1D1E3E" stroke-width="0.542247" stroke-miterlimit="10"/>
<path d="M458.847 360.49C428.048 360.49 403.213 335.546 403.213 304.855C403.213 274.164 428.156 249.221 458.847 249.221" stroke="#1D1E3E" stroke-width="0.542247" stroke-miterlimit="10"/>
<path d="M481.406 299.217H446.485V303.013H481.406V299.217Z" fill="white"/>
<path d="M451.907 320.797V288.696H456.462L466.765 304.964C469.151 308.759 470.994 312.121 472.513 315.375H472.621C472.187 311.037 472.187 307.133 472.187 302.144V288.696H476.091V320.797H471.862L461.668 304.53C459.39 300.951 457.33 297.264 455.703 293.793H455.594C455.811 297.806 455.92 301.71 455.92 307.024V320.689H451.907V320.797Z" fill="white"/>
<path d="M481.406 308H446.485V311.796H481.406V308Z" fill="white"/>
<path d="M509.343 200.495L433.543 363.913L543.833 415.07L619.633 251.653L509.343 200.495Z" fill="#73C7D1"/>
<path d="M543.98 415.474L543.763 415.366L433.253 364.069L433.361 363.852L509.276 200.202L509.493 200.311L620.003 251.607L619.894 251.824L543.98 415.474ZM433.904 363.744L543.654 414.715L619.244 251.824L509.493 200.853L433.904 363.744Z" fill="#1D1E3E"/>
<path d="M587.251 276.659C593.48 276.659 598.53 271.609 598.53 265.38C598.53 259.151 593.48 254.102 587.251 254.102C581.022 254.102 575.973 259.151 575.973 265.38C575.973 271.609 581.022 276.659 587.251 276.659Z" fill="#EB5F60"/>
<path d="M587.251 276.875C585.625 276.875 583.998 276.55 582.371 275.791C579.551 274.489 577.491 272.212 576.406 269.284C575.322 266.356 575.43 263.211 576.732 260.499C579.443 254.751 586.275 252.257 592.023 254.86C597.771 257.571 600.265 264.403 597.662 270.151C596.361 272.971 594.084 275.031 591.156 276.116C589.963 276.658 588.553 276.875 587.251 276.875ZM587.251 254.426C583.13 254.426 579.118 256.812 577.274 260.825C576.081 263.536 575.864 266.464 576.949 269.175C577.925 271.886 579.985 274.164 582.588 275.357C585.299 276.55 588.227 276.767 590.939 275.682C593.65 274.706 595.927 272.646 597.12 270.043C599.615 264.512 597.229 258.005 591.806 255.511C590.396 254.751 588.77 254.426 587.251 254.426Z" fill="white"/>
<path d="M582.48 286.853C588.709 286.853 593.759 281.804 593.759 275.575C593.759 269.346 588.709 264.296 582.48 264.296C576.251 264.296 571.201 269.346 571.201 275.575C571.201 281.804 576.251 286.853 582.48 286.853Z" fill="white"/>
<path d="M582.479 287.07C580.852 287.07 579.226 286.745 577.599 285.986C571.851 283.275 569.357 276.442 571.96 270.694C573.261 267.875 575.538 265.814 578.466 264.73C581.395 263.645 584.54 263.754 587.251 265.055C590.071 266.356 592.131 268.634 593.216 271.562C594.3 274.49 594.192 277.635 592.89 280.346C591.047 284.684 586.817 287.07 582.479 287.07ZM577.924 285.552C583.455 288.155 589.962 285.66 592.456 280.238C593.649 277.527 593.866 274.599 592.782 271.887C591.806 269.176 589.745 266.899 587.142 265.706C584.431 264.513 581.503 264.296 578.792 265.38C576.081 266.356 573.803 268.417 572.61 271.02C570.007 276.442 572.393 283.058 577.924 285.552Z" fill="white"/>
<path d="M505.302 321.651L491.931 350.478L516.232 361.75L529.603 332.923L505.302 321.651Z" fill="white"/>
<path d="M516.109 362.008H516.001L491.708 350.73C491.6 350.621 491.491 350.513 491.6 350.404L504.939 321.665C505.047 321.557 505.156 321.448 505.264 321.557L529.557 332.835C529.665 332.944 529.774 333.052 529.665 333.161L516.326 361.9C516.326 361.9 516.326 362.008 516.109 362.008C516.218 362.008 516.218 362.008 516.109 362.008ZM492.25 350.404L516.109 361.466L529.232 333.161L505.373 322.099L492.25 350.404Z" fill="white"/>
<path d="M491.601 372.854L494.746 383.698L503.855 378.601L491.601 372.854Z" fill="#2D72B0"/>
<path d="M494.528 384.131L491.166 372.419L504.397 378.601L494.528 384.131ZM492.034 373.395L494.853 383.264L503.204 378.601L492.034 373.395Z" fill="white"/>
<path d="M568.661 305.594L529.323 390.402L536.801 393.871L576.138 309.063L568.661 305.594Z" fill="white"/>
<path d="M536.715 394.11H536.606L529.123 390.64C529.015 390.531 528.906 390.423 529.015 390.314L568.382 305.507C568.49 305.398 568.599 305.29 568.707 305.398L576.19 308.869C576.299 308.869 576.299 308.977 576.299 308.977C576.299 309.086 576.299 309.086 576.299 309.194L536.931 394.002C536.931 394.002 536.823 394.11 536.715 394.11ZM529.665 390.206L536.606 393.459L575.648 309.194L568.707 305.941L529.665 390.206Z" fill="white"/>
<path d="M463.158 335.098L456.724 348.971L470.596 355.405L477.031 341.533L463.158 335.098Z" fill="#2D72B0"/>
<path d="M470.669 355.719L456.245 348.995L462.969 334.571L477.393 341.295L470.669 355.719ZM457.004 348.778L470.452 354.96L476.634 341.512L463.186 335.33L457.004 348.778Z" fill="white"/>
<path d="M560.313 240.533L528.642 308.812L532.577 310.638L564.248 242.359L560.313 240.533Z" fill="white"/>
<path d="M532.484 310.82H532.376L528.472 308.977C528.363 308.868 528.255 308.76 528.363 308.651L560.03 240.328C560.03 240.22 560.139 240.22 560.139 240.22C560.247 240.22 560.247 240.22 560.356 240.22L564.26 242.063C564.368 242.172 564.477 242.28 564.368 242.389L532.701 310.712C532.701 310.82 532.701 310.82 532.484 310.82C532.593 310.82 532.593 310.82 532.484 310.82ZM529.014 308.651L532.376 310.278L563.826 242.497L560.464 240.87L529.014 308.651Z" fill="white"/>
<path d="M481.947 300.301C512.747 300.301 537.582 325.244 537.582 355.935C537.582 386.626 512.638 411.57 481.947 411.57C480.212 411.57 478.585 411.461 476.958 411.353C448.545 408.859 426.312 385 426.312 355.935C426.312 326.871 448.545 303.012 476.958 300.518C478.585 300.301 480.32 300.301 481.947 300.301ZM522.941 355.935C522.941 333.269 504.613 314.941 481.947 314.941C459.281 314.941 440.953 333.269 440.953 355.935C440.953 378.601 459.281 396.929 481.947 396.929C504.613 396.929 522.941 378.601 522.941 355.935Z" fill="#3E7DBE"/>
<path d="M481.947 314.941C504.613 314.941 522.941 333.269 522.941 355.935C522.941 378.601 504.613 396.929 481.947 396.929C459.281 396.929 440.953 378.601 440.953 355.935C440.953 333.269 459.281 314.941 481.947 314.941Z" fill="#1E64A1"/>
<path d="M476.959 411.353V411.57C446.159 411.57 421.324 386.626 421.324 355.935C421.324 325.244 446.268 300.301 476.959 300.301V300.518C448.545 303.012 426.313 326.871 426.313 355.935C426.313 385 448.545 408.859 476.959 411.353Z" fill="#1E64A1"/>
<path d="M476.958 411.353C448.545 408.859 426.312 385 426.312 355.935C426.312 326.871 448.545 303.012 476.958 300.518C478.585 300.409 480.32 300.301 481.947 300.301C512.747 300.301 537.582 325.244 537.582 355.935C537.582 386.626 512.638 411.57 481.947 411.57C480.32 411.57 478.585 411.57 476.958 411.353Z" stroke="#1D1E3E" stroke-width="0.542247" stroke-miterlimit="10"/>
<path d="M440.953 355.935C440.953 333.269 459.281 314.941 481.947 314.941C504.613 314.941 522.941 333.269 522.941 355.935C522.941 378.601 504.613 396.929 481.947 396.929C459.281 396.929 440.953 378.601 440.953 355.935Z" stroke="#1D1E3E" stroke-width="0.542247" stroke-miterlimit="10"/>
<path d="M476.959 411.57C446.159 411.57 421.324 386.626 421.324 355.935C421.324 325.244 446.268 300.301 476.959 300.301" stroke="#1D1E3E" stroke-width="0.542247" stroke-miterlimit="10"/>
<path d="M499.406 350.405H464.485V354.201H499.406V350.405Z" fill="white"/>
<path d="M469.908 371.986V339.885H474.463L484.766 356.152C487.152 359.948 488.995 363.31 490.514 366.563H490.622C490.188 362.225 490.188 358.321 490.188 353.332V339.885H494.092V371.986H489.863L479.669 355.718C477.391 352.14 475.331 348.452 473.704 344.982H473.595C473.812 348.995 473.921 352.899 473.921 358.213V371.877H469.908V371.986Z" fill="white"/>
<path d="M499.406 359.188H464.485V362.984H499.406V359.188Z" fill="white"/>
<path d="M568.598 415.583H421.323L391.934 304.205H595.927L568.598 415.583ZM422.191 414.498H567.73L594.625 305.29H393.452L422.191 414.498Z" fill="#242752"/>
<path d="M442.363 304.746H441.278V415.039H442.363V304.746Z" fill="#242752"/>
<path d="M486.502 304.746H485.418V415.039H486.502V304.746Z" fill="#242752"/>
<path d="M530.641 304.746H529.557V415.039H530.641V304.746Z" fill="#242752"/>
<path d="M574.78 304.746H573.695V390.53H574.78V304.746Z" fill="#242752"/>
<path d="M410.262 304.746H409.178V369.382H410.262V304.746Z" fill="#242752"/>
<path d="M586.602 336.523H401.262V337.608H586.602V336.523Z" fill="#242752"/>
<path d="M579.335 368.841H409.72V369.925H579.335V368.841Z" fill="#242752"/>
<path d="M571.526 401.267H418.287V402.351H571.526V401.267Z" fill="#242752"/>
<path d="M564.802 455.817H559.271V456.902H564.802V455.817Z" fill="#242752"/>
<path d="M530.099 455.817H447.895V456.902H530.099V455.817Z" fill="#242752"/>
<path d="M419.047 456.902H404.948V437.381L405.057 437.164L421.324 414.715L422.192 415.366L406.033 437.706V455.817H419.047V456.902Z" fill="#242752"/>
<path d="M433.471 471.001C441.557 471.001 448.111 464.446 448.111 456.36C448.111 448.275 441.557 441.72 433.471 441.72C425.385 441.72 418.83 448.275 418.83 456.36C418.83 464.446 425.385 471.001 433.471 471.001Z" fill="#242752"/>
<path d="M433.469 463.733C437.542 463.733 440.844 460.432 440.844 456.359C440.844 452.286 437.542 448.984 433.469 448.984C429.396 448.984 426.095 452.286 426.095 456.359C426.095 460.432 429.396 463.733 433.469 463.733Z" fill="white"/>
<path d="M544.739 471.001C552.825 471.001 559.38 464.446 559.38 456.36C559.38 448.275 552.825 441.72 544.739 441.72C536.653 441.72 530.099 448.275 530.099 456.36C530.099 464.446 536.653 471.001 544.739 471.001Z" fill="#242752"/>
<rect x="410.887" y="220.459" width="16.5256" height="11.1451" fill="#D9E5F9"/>
<path d="M392.152 304.964L374.692 247.16L349.531 243.798L349.64 242.714L375.559 246.184L393.236 304.638L392.152 304.964Z" fill="#242752"/>
<path d="M544.74 463.733C548.813 463.733 552.114 460.432 552.114 456.359C552.114 452.286 548.813 448.984 544.74 448.984C540.667 448.984 537.365 452.286 537.365 456.359C537.365 460.432 540.667 463.733 544.74 463.733Z" fill="white"/>
<rect x="364" y="307.314" width="29.5923" height="7.68631" fill="#D9E5F9"/>
<rect x="175" y="217" width="66.8709" height="71.867" fill="#ECF1FB"/>
<rect x="175" y="328" width="66.8709" height="71.867" fill="#ECF1FB"/>
<rect x="265" y="328" width="66.8709" height="71.867" fill="#ECF1FB"/>
<rect x="265" y="217" width="66.8709" height="71.867" fill="#ECF1FB"/>
<rect x="175" y="294.248" width="44.9649" height="7.68631" fill="#D9E5F9"/>
<rect x="265" y="294.248" width="44.9649" height="7.68631" fill="#D9E5F9"/>
<rect x="221.887" y="220.459" width="16.5256" height="11.1451" fill="#D9E5F9"/>
<rect x="221.887" y="331.459" width="16.5256" height="11.1451" fill="#D9E5F9"/>
<rect x="311.887" y="331.459" width="16.5256" height="11.1451" fill="#D9E5F9"/>
<rect x="311.887" y="220.459" width="16.5256" height="11.1451" fill="#D9E5F9"/>
<rect x="175" y="307.314" width="29.5923" height="7.68631" fill="#D9E5F9"/>
<rect x="265" y="307.314" width="29.5923" height="7.68631" fill="#D9E5F9"/>
<rect x="175" y="199" width="123" height="12" fill="#ECF1FB"/>
<rect x="146" y="165" width="116" height="19" fill="#ECF1FB"/>
<rect x="270" y="165" width="163" height="11" fill="#ECF1FB"/>
</g>
<defs>
<clipPath id="clip0_2385_21274">
<rect width="610.895" height="335" fill="white" transform="translate(9 136)"/>
</clipPath>
</defs>
</svg>
