<svg width="20" height="20" viewBox="0 0 20 20" fill="none" xmlns="http://www.w3.org/2000/svg">
<path d="M5.43898 12.0948C5.43744 12.529 5.26422 12.9449 4.95713 13.2519C4.65003 13.5588 4.234 13.7318 3.79981 13.7331C3.36548 13.7318 2.94932 13.5587 2.6422 13.2516C2.33508 12.9445 2.16196 12.5283 2.16064 12.094C2.16064 11.1915 2.89731 10.454 3.79981 10.454H5.43981V12.094L5.43898 12.0948ZM6.26564 12.0948C6.26564 11.1923 7.00231 10.4548 7.90481 10.4548C8.80731 10.4548 9.54481 11.1923 9.54481 12.0948V16.2006C9.54349 16.6351 9.37026 17.0514 9.06296 17.3585C8.75566 17.6657 8.33928 17.8387 7.90481 17.8398C7.47048 17.8385 7.05432 17.6654 6.7472 17.3583C6.44008 17.0511 6.26696 16.635 6.26564 16.2006V12.0948ZM7.90481 5.43898C7.47063 5.43744 7.05468 5.26422 6.74774 4.95713C6.4408 4.65003 6.2678 4.234 6.26648 3.79981C6.26648 2.89731 7.00314 2.16064 7.90564 2.16064C8.80814 2.16064 9.54564 2.89731 9.54564 3.79981V5.43981H7.90481V5.43898ZM7.90481 6.26564C8.80731 6.26564 9.54481 7.00231 9.54481 7.90481C9.54371 8.33943 9.37057 8.75593 9.06325 9.06325C8.75593 9.37057 8.33943 9.54371 7.90481 9.54481H3.79981C3.36534 9.54349 2.94905 9.37026 2.64191 9.06296C2.33477 8.75566 2.16174 8.33928 2.16064 7.90481C2.16064 7.00231 2.89731 6.26564 3.79981 6.26564H7.90564H7.90481ZM14.5606 7.90481C14.5606 7.00231 15.2981 6.26564 16.2006 6.26564C17.1031 6.26564 17.8398 7.00231 17.8398 7.90481C17.8387 8.33928 17.6657 8.75566 17.3585 9.06296C17.0514 9.37026 16.6351 9.54349 16.2006 9.54481H14.5606V7.90481ZM13.734 7.90481C13.7329 8.33928 13.5599 8.75566 13.2527 9.06296C12.9456 9.37026 12.5293 9.54349 12.0948 9.54481C11.6602 9.54371 11.2437 9.37057 10.9364 9.06325C10.629 8.75593 10.4559 8.33943 10.4548 7.90481V3.79981C10.4548 2.89731 11.1923 2.16064 12.0948 2.16064C12.9973 2.16064 13.734 2.89731 13.734 3.79981V7.90564V7.90481ZM12.0948 14.5606C12.9973 14.5606 13.734 15.2981 13.734 16.2006C13.7327 16.635 13.5595 17.0511 13.2524 17.3583C12.9453 17.6654 12.5291 17.8385 12.0948 17.8398C11.6603 17.8387 11.244 17.6657 10.9367 17.3585C10.6294 17.0514 10.4561 16.6351 10.4548 16.2006V14.5606H12.0948ZM12.0948 13.734C11.6603 13.7329 11.244 13.5599 10.9367 13.2527C10.6294 12.9456 10.4561 12.5293 10.4548 12.0948C10.4548 11.1923 11.1923 10.4548 12.0948 10.4548H16.2006C17.1031 10.4548 17.8398 11.1923 17.8398 12.0948C17.8385 12.5291 17.6654 12.9453 17.3583 13.2524C17.0511 13.5595 16.635 13.7327 16.2006 13.734H12.0948Z" fill="#9CBBEF"/>
</svg>
