<svg width="653" height="342" viewBox="0 0 653 342" fill="none" xmlns="http://www.w3.org/2000/svg">
<g clip-path="url(#clip0_2175_12281)">
<path d="M143.99 315.089C119.539 293.652 98.2574 250.778 83.3151 192.397L24.904 191.941C8.60328 130.366 0.000105341 54.6524 0.905703 -23.3419C1.8113 -101.336 11.3201 -177.05 28.5264 -238.624L86.9375 -238.168C103.238 -296.094 124.973 -338.512 149.876 -359.493C174.78 -380.474 201.043 -378.649 225.041 -354.932C249.039 -330.758 269.868 -286.059 283.905 -225.853C298.394 -166.103 305.639 -94.0385 304.734 -20.6053C304.281 52.8279 295.225 124.437 279.83 184.187C264.435 243.937 242.7 288.635 218.249 311.897C194.251 335.614 167.988 336.526 143.99 315.089Z" stroke="#9FBEED" stroke-width="0.3126" stroke-miterlimit="10"/>
<path d="M196.968 315.545C172.517 294.108 151.235 251.234 136.293 192.853L77.882 192.397C62.034 130.822 53.4308 54.6523 54.3364 -23.342C54.7892 -101.336 64.298 -176.594 81.5043 -238.168L140.368 -237.712C156.669 -295.638 178.403 -338.056 203.307 -359.037C228.211 -380.018 254.473 -378.193 278.472 -354.476C302.47 -330.302 323.299 -285.603 337.336 -225.397C351.372 -165.191 359.07 -93.5824 358.164 -20.1492C357.712 53.284 348.656 124.893 333.26 184.643C317.865 244.393 296.131 289.091 271.68 312.353C247.681 336.07 221.419 336.982 196.968 315.545Z" stroke="#9FBEED" stroke-width="0.3282" stroke-miterlimit="10"/>
<path d="M249.945 316.002C225.493 294.565 204.212 251.69 189.27 193.309L130.859 192.853C115.011 131.278 106.407 55.1084 107.313 -22.8859C108.219 -100.88 117.727 -176.594 134.934 -238.168L193.345 -237.712C209.645 -295.638 231.38 -338.056 256.284 -359.037C281.188 -380.018 307.45 -378.193 331.448 -354.476C355.447 -330.302 376.275 -285.603 390.312 -225.397C404.802 -165.647 412.046 -93.5824 411.141 -20.1492C410.688 53.284 401.632 124.893 386.237 184.643C370.842 244.393 349.107 289.091 324.656 312.353C300.658 336.526 274.396 337.439 249.945 316.002Z" stroke="#9FBEED" stroke-width="0.3438" stroke-miterlimit="10"/>
<path d="M303.375 316.914C278.924 295.477 257.643 252.603 242.7 194.221L184.289 193.765C168.441 132.191 159.838 56.0208 160.744 -21.9735C161.649 -99.9678 171.158 -175.682 188.364 -237.256L246.775 -236.8C263.076 -294.725 284.81 -337.143 309.714 -358.124C334.618 -379.105 360.881 -377.281 384.879 -353.563C408.425 -329.39 429.253 -284.691 443.743 -224.485C458.232 -164.735 465.477 -92.6701 464.572 -19.2368C464.119 54.1964 455.063 125.805 439.668 185.555C424.272 245.305 402.538 290.004 378.087 313.265C354.089 336.983 327.826 337.895 303.375 316.914Z" stroke="#9FBEED" stroke-width="0.3594" stroke-miterlimit="10"/>
<path d="M356.353 317.37C331.902 295.933 310.62 253.059 295.678 194.677L237.267 194.221C221.419 132.647 212.816 56.4768 213.721 -21.5175C214.627 -99.5117 224.136 -175.225 241.342 -236.8L299.753 -236.344C316.054 -294.269 337.788 -336.687 362.692 -357.668C387.596 -378.649 413.858 -376.825 437.857 -353.107C461.855 -328.933 482.684 -284.235 496.72 -224.029C511.21 -164.279 518.455 -92.214 517.549 -18.7808C517.096 54.6524 508.04 126.261 492.645 186.011C477.25 245.761 455.516 290.46 431.065 313.721C407.066 337.439 380.804 338.807 356.353 317.37Z" stroke="#9FBEED" stroke-width="0.3751" stroke-miterlimit="10"/>
<path d="M409.782 317.826C385.331 296.389 364.05 253.515 349.107 195.133L290.696 194.677C274.848 133.102 266.245 56.9326 267.151 -21.0617C267.151 -99.056 277.112 -174.77 294.319 -236.344L352.73 -235.888C369.031 -293.814 390.765 -336.232 415.669 -357.212C440.573 -378.193 466.835 -376.369 490.833 -352.651C514.832 -328.478 535.661 -283.779 549.697 -223.573C564.187 -163.823 571.432 -91.7583 570.526 -18.3251C570.073 55.1082 561.017 126.717 545.622 186.467C530.227 246.217 508.493 290.915 484.041 314.177C460.496 337.894 433.781 339.263 409.782 317.826Z" stroke="#9FBEED" stroke-width="0.3907" stroke-miterlimit="10"/>
<path d="M462.76 318.282C438.309 296.845 417.027 253.971 402.085 195.589L343.674 195.133C327.826 133.559 319.223 57.3887 320.128 -20.6056C321.034 -98.5999 330.543 -174.314 347.749 -235.888L406.16 -235.432C422.461 -293.358 444.195 -335.775 469.099 -356.756C494.003 -377.737 520.265 -375.913 544.264 -352.195C568.262 -328.022 589.091 -283.323 603.128 -223.117C617.164 -162.911 624.862 -91.3021 623.956 -17.8689C623.504 55.5643 614.448 127.173 599.052 186.923C583.657 246.673 561.923 291.372 537.472 314.633C513.473 338.351 487.211 339.719 462.76 318.282Z" stroke="#9FBEED" stroke-width="0.4063" stroke-miterlimit="10"/>
<path d="M516.191 318.738C491.74 297.301 470.458 254.427 455.516 196.045L397.105 195.589C381.257 134.015 372.653 57.8447 373.559 -20.1495C374.465 -98.1438 383.973 -173.858 401.18 -235.432L459.591 -234.976C475.892 -292.901 497.626 -335.319 522.53 -356.3C547.434 -377.281 573.696 -375.457 597.694 -351.739C621.693 -327.566 642.522 -282.867 656.558 -222.661C671.048 -162.911 678.293 -90.8461 677.387 -17.4129C676.934 56.0203 667.878 127.629 652.483 187.379C637.088 247.129 615.354 291.828 590.902 315.089C566.451 338.807 540.189 340.175 516.191 318.738Z" stroke="#9FBEED" stroke-width="0.4219" stroke-miterlimit="10"/>
<path d="M569.168 319.194C544.717 297.757 523.436 254.883 508.493 196.501L450.082 196.045C434.234 134.471 425.631 58.3008 426.537 -19.6935C427.442 -97.6877 436.951 -173.401 454.157 -234.976L512.568 -234.52C528.869 -292.445 550.603 -334.863 575.507 -355.844C600.411 -376.825 626.674 -375.001 650.672 -351.283C674.67 -327.11 695.499 -282.411 709.536 -222.205C723.573 -161.999 731.27 -90.39 730.365 -16.9568C729.912 56.4764 720.856 128.085 705.461 187.835C690.065 247.585 668.331 292.284 643.88 315.545C619.882 339.263 593.619 340.631 569.168 319.194Z" stroke="#9FBEED" stroke-width="0.4376" stroke-miterlimit="10"/>
<path d="M622.146 319.65C597.695 298.213 576.413 255.339 561.471 196.957L503.06 196.501C487.212 134.927 478.609 58.7568 479.514 -19.2374C480.42 -97.2317 489.929 -172.945 507.135 -234.52L565.546 -234.064C581.847 -291.989 603.581 -334.407 628.485 -355.388C653.389 -376.369 679.651 -374.545 703.649 -350.827C727.648 -326.653 748.476 -281.955 762.513 -221.749C777.003 -161.999 784.248 -89.934 783.342 -16.5008C782.889 56.9324 773.833 128.541 758.438 188.291C743.043 248.041 721.309 292.74 696.857 316.001C672.859 339.719 646.597 341.087 622.146 319.65Z" stroke="#9FBEED" stroke-width="0.4532" stroke-miterlimit="10"/>
<path d="M675.575 320.107C651.124 298.67 629.843 255.796 614.9 197.414L556.489 196.958C540.641 135.384 532.038 59.2139 532.944 -18.7804C533.849 -96.7747 543.358 -172.488 560.565 -234.063L618.976 -233.607C635.276 -291.532 657.011 -333.95 681.915 -354.931C706.819 -375.912 733.081 -374.088 757.079 -350.37C781.078 -326.196 801.906 -281.498 815.943 -221.292C829.98 -161.086 837.677 -89.477 836.772 -16.0438C836.319 57.3894 827.263 128.998 811.868 188.748C796.473 248.498 774.738 293.197 750.287 316.458C726.289 340.632 700.027 341.544 675.575 320.107Z" stroke="#9FBEED" stroke-width="0.4688" stroke-miterlimit="10"/>
<path d="M728.553 320.563C704.102 299.126 682.82 256.252 667.878 197.87L609.467 197.414C593.619 135.84 585.016 59.6699 585.921 -18.3243C586.827 -96.3186 596.336 -172.032 613.542 -233.607L671.953 -233.151C688.254 -291.076 709.988 -333.494 734.892 -354.475C759.796 -375.456 786.058 -373.632 810.057 -349.914C834.055 -325.74 854.884 -281.042 868.921 -220.836C883.41 -161.086 890.655 -89.0209 889.749 -15.5877C889.297 57.8455 880.241 129.454 864.845 189.204C849.45 248.954 827.716 293.653 803.265 316.914C779.266 341.088 753.004 342 728.553 320.563Z" stroke="#9FBEED" stroke-width="0.4845" stroke-miterlimit="10"/>
<path d="M781.984 321.019C757.532 299.582 736.251 256.708 721.309 198.326L662.898 197.87C647.05 136.296 638.446 60.126 639.352 -17.8683C640.258 -95.8625 649.766 -171.576 666.973 -233.151L725.384 -232.695C741.685 -290.62 763.419 -333.038 788.323 -354.019C813.227 -375 839.489 -373.176 863.487 -349.458C887.486 -325.284 908.314 -280.586 922.351 -220.38C936.388 -160.174 944.086 -88.5648 943.18 -15.1316C942.727 58.3016 933.671 129.91 918.276 189.66C902.881 249.41 881.146 294.109 856.695 317.37C832.244 341.544 805.982 342.456 781.984 321.019Z" stroke="#9FBEED" stroke-width="0.5001" stroke-miterlimit="10"/>
</g>
<defs>
<clipPath id="clip0_2175_12281">
<rect width="653" height="342" fill="white"/>
</clipPath>
</defs>
</svg>
