<svg width="56" height="57" viewBox="0 0 56 57" fill="none" xmlns="http://www.w3.org/2000/svg">
<circle cx="28" cy="28" r="28" fill="#E2F5F6"/>
<path d="M14.3352 2.06685C15.6254 0.771165 17.3774 0.041075 19.2059 0.0371846L36.675 1.56277e-05C38.5035 -0.00387481 40.2586 0.718754 41.5543 2.00893L53.9331 14.3352C55.2288 15.6254 55.9589 17.3774 55.9628 19.2059L56 36.675C56.0039 38.5035 55.2812 40.2586 53.9911 41.5543L41.6648 53.9331C40.3746 55.2288 38.6226 55.9589 36.7941 55.9628L19.325 56C17.4965 56.0039 15.7414 55.2812 14.4457 53.9911L2.06685 41.6648C0.771165 40.3746 0.041075 38.6226 0.0371846 36.7941L1.56277e-05 19.325C-0.00387481 17.4965 0.718754 15.7414 2.00893 14.4457L14.3352 2.06685Z" fill="white"/>
<path d="M28.0003 14.9104C21.3083 14.9104 15.8623 20.3564 15.8623 27.0484C15.8623 33.7404 21.3083 39.2004 28.0003 39.2004C34.6923 39.2004 40.1383 33.7544 40.1383 27.0624C40.1383 20.3704 34.6923 14.9104 28.0003 14.9104ZM29.0503 26.6004C29.0503 27.1744 28.5743 27.6504 28.0003 27.6504C27.4263 27.6504 26.9503 27.1744 26.9503 26.6004V19.6004C26.9503 19.0264 27.4263 18.5504 28.0003 18.5504C28.5743 18.5504 29.0503 19.0264 29.0503 19.6004V26.6004Z" fill="#3F7CDB"/>
<path d="M32.0463 13.2304H23.9543C23.3943 13.2304 22.9463 12.7824 22.9463 12.2224C22.9463 11.6624 23.3943 11.2004 23.9543 11.2004H32.0463C32.6063 11.2004 33.0543 11.6484 33.0543 12.2084C33.0543 12.7684 32.6063 13.2304 32.0463 13.2304Z" fill="#3F7CDB"/>
<path fill-rule="evenodd" clip-rule="evenodd" d="M0.00645321 19.5C0.00194882 19.6041 -0.000206967 19.7084 1.56277e-05 19.8131L0.0371846 37.2822C0.041075 39.1107 0.771165 40.8627 2.06685 42.1529L14.4457 54.4792C15.7414 55.7693 17.4965 56.492 19.325 56.4881L36.7941 56.4509C38.6226 56.447 40.3746 55.7169 41.6648 54.4212L53.9911 42.0424C55.2812 40.7467 56.0039 38.9916 56 37.1631L55.9935 34.1375C55.9193 35.8523 55.2074 37.4822 53.9911 38.7037L41.6648 51.0826C40.3746 52.3783 38.6226 53.1083 36.7941 53.1122L19.325 53.1494C17.4965 53.1533 15.7414 52.4307 14.4457 51.1405L2.06685 38.8142C0.771165 37.524 0.041075 35.772 0.0371846 33.9435L0.00645321 19.5Z" fill="#0B1C56"/>
</svg>
