<svg width="411" height="250" viewBox="0 0 411 250" fill="none" xmlns="http://www.w3.org/2000/svg">
<path d="M26.8785 148.829C29.2976 146.429 32.5827 145.076 36.0111 145.069L68.7657 145C72.1941 144.993 75.485 146.332 77.9144 148.722L101.125 171.56C103.554 173.95 104.923 177.197 104.93 180.584L105 212.951C105.007 216.339 103.652 219.591 101.233 221.991L78.1215 244.926C75.7024 247.327 72.4173 248.68 68.9889 248.687L36.2343 248.756C32.8059 248.763 29.515 247.424 27.0856 245.034L3.87534 222.196C1.44593 219.805 0.0770157 216.559 0.0697211 213.172L2.9302e-05 180.805C-0.00726528 177.417 1.34766 174.165 3.76675 171.765L26.8785 148.829Z" fill="#3F7CDB"/>
<path d="M26.8785 144.829C29.2976 142.429 32.5827 141.076 36.0111 141.069L68.7657 141C72.1941 140.993 75.485 142.332 77.9144 144.722L101.125 167.56C103.554 169.95 104.923 173.197 104.93 176.584L105 208.951C105.007 212.339 103.652 215.591 101.233 217.991L78.1215 240.926C75.7024 243.327 72.4173 244.68 68.9889 244.687L36.2343 244.756C32.8059 244.763 29.515 243.424 27.0856 241.034L3.87534 218.196C1.44593 215.805 0.0770157 212.559 0.0697211 209.172L2.9302e-05 176.805C-0.00726528 173.417 1.34766 170.165 3.76675 167.765L26.8785 144.829Z" fill="#D9E5F8"/>
<mask id="mask0_2217_13082" style="mask-type:alpha" maskUnits="userSpaceOnUse" x="-63" y="94" width="251" height="251">
<g clip-path="url(#clip0_2217_13082)">
<path d="M-58.0923 116.436L-39.6295 98.1292C-34.1764 92.7539 -25.3734 92.7539 -19.9982 98.2071L183.17 302.933C188.545 308.386 188.545 317.189 183.092 322.565L164.629 340.872C159.176 346.247 150.373 346.247 144.998 340.794L-58.1702 136.067C-63.5454 130.614 -63.5454 121.889 -58.0923 116.436Z" stroke="#2A5392" stroke-width="0.3529" stroke-miterlimit="10"/>
<path d="M-56.5341 122.513L-33.6309 99.7657C-28.0999 94.3126 -19.2191 94.3126 -13.7659 99.8436L181.612 296.624C187.065 302.155 187.065 311.036 181.534 316.489L158.631 339.236C153.1 344.689 144.219 344.689 138.766 339.158L-56.612 142.378C-62.0651 136.925 -61.9872 127.966 -56.5341 122.513Z" stroke="#2A5392" stroke-width="0.3529" stroke-miterlimit="10"/>
<path d="M-54.9762 128.588L-27.5548 101.4C-22.0237 95.8693 -12.9871 95.8693 -7.45606 101.478L180.054 290.312C185.585 295.843 185.585 304.88 179.976 310.411L152.554 337.599C147.023 343.13 137.987 343.13 132.456 337.521L-54.9762 148.687C-60.5073 143.156 -60.5073 134.119 -54.9762 128.588Z" stroke="#2A5392" stroke-width="0.3529" stroke-miterlimit="10"/>
<path d="M-53.3403 134.665L-21.4784 103.037C-15.8695 97.4282 -6.75496 97.5061 -1.14602 103.115L178.496 284.003C184.105 289.612 184.027 298.727 178.418 304.336L146.556 335.964C140.947 341.573 131.833 341.495 126.224 335.886L-53.4182 154.998C-59.0272 149.389 -59.0272 140.274 -53.3403 134.665Z" stroke="#2A5392" stroke-width="0.3529" stroke-miterlimit="10"/>
<path d="M-51.7821 140.742L-15.402 104.596C-9.71511 98.9087 -0.522681 98.9866 5.16416 104.673L176.938 277.694C182.625 283.38 182.547 292.573 176.86 298.26L140.48 334.406C134.793 340.093 125.601 340.015 119.914 334.328L-51.86 161.308C-57.5469 155.621 -57.469 146.429 -51.7821 140.742Z" stroke="#2A5392" stroke-width="0.3529" stroke-miterlimit="10"/>
<path d="M-50.2243 146.817L-9.32576 106.23C-3.56102 100.543 5.70931 100.543 11.4741 106.308L175.302 271.382C180.989 277.147 180.989 286.417 175.224 292.182L134.325 332.769C128.561 338.456 119.29 338.456 113.526 332.691L-50.3022 167.617C-55.989 161.852 -55.989 152.582 -50.2243 146.817Z" stroke="#2A5392" stroke-width="0.3529" stroke-miterlimit="10"/>
<path d="M-48.6661 152.894L-3.32719 107.867C2.51546 102.102 11.9416 102.102 17.7063 107.945L173.666 265.073C179.431 270.915 179.431 280.341 173.588 286.106L128.249 331.134C122.407 336.898 112.98 336.898 107.216 331.056L-48.744 173.927C-54.5087 168.085 -54.4308 158.737 -48.6661 152.894Z" stroke="#2A5392" stroke-width="0.3529" stroke-miterlimit="10"/>
<path d="M-47.0303 158.971L2.82695 109.503C8.7475 103.661 18.2515 103.661 24.0942 109.581L172.186 258.763C178.028 264.684 178.028 274.188 172.108 280.03L122.251 329.498C116.33 335.341 106.826 335.341 100.983 329.42L-47.1082 180.238C-52.9508 174.318 -52.9508 164.814 -47.0303 158.971Z" stroke="#2A5392" stroke-width="0.3529" stroke-miterlimit="10"/>
<path d="M-45.4723 165.046L8.8253 111.138C14.7458 105.217 24.4057 105.295 30.3262 111.216L170.55 252.452C176.47 258.373 176.392 268.032 170.472 273.953L116.174 327.939C110.254 333.86 100.594 333.782 94.6732 327.861L-45.5502 186.625C-51.4708 180.626 -51.4708 170.967 -45.4723 165.046Z" stroke="#2A5392" stroke-width="0.3529" stroke-miterlimit="10"/>
<path d="M-43.9142 171.123L14.9018 112.696C20.9002 106.698 30.638 106.776 36.6364 112.774L168.992 246.142C174.99 252.141 174.912 261.879 168.914 267.877L110.098 326.304C104.099 332.302 94.3617 332.224 88.3633 326.226L-43.9921 192.857C-49.9905 186.859 -49.9126 177.121 -43.9142 171.123Z" stroke="#2A5392" stroke-width="0.3529" stroke-miterlimit="10"/>
<path d="M-42.3563 177.2L20.978 114.333C27.0543 108.256 36.87 108.334 42.9463 114.411L167.434 239.833C173.51 245.909 173.432 255.725 167.356 261.801L104.021 324.668C97.945 330.744 88.1294 330.666 82.0531 324.59L-42.4342 199.168C-48.4326 193.092 -48.4326 183.276 -42.3563 177.2Z" stroke="#2A5392" stroke-width="0.3529" stroke-miterlimit="10"/>
<path d="M-40.7981 183.277L26.9765 115.969C33.1308 109.893 43.0243 109.893 49.1786 116.047L165.798 233.523C171.874 239.678 171.874 249.571 165.72 255.726L97.9452 323.033C91.791 329.109 81.8974 329.109 75.7432 322.955L-40.876 205.479C-46.9524 199.325 -46.8745 189.431 -40.7981 183.277Z" stroke="#2A5392" stroke-width="0.3529" stroke-miterlimit="10"/>
<path d="M-39.1623 189.352L33.1307 117.604C39.3628 111.45 49.4122 111.45 55.5664 117.682L164.318 227.212C170.472 233.444 170.472 243.494 164.24 249.648L91.9466 321.395C85.7145 327.55 75.6651 327.55 69.5109 321.318L-39.2402 211.787C-45.3944 205.555 -45.3944 195.506 -39.1623 189.352Z" stroke="#2A5392" stroke-width="0.3529" stroke-miterlimit="10"/>
<path d="M-37.6039 195.428L39.2074 119.162C45.5175 112.93 55.6447 112.93 61.8769 119.24L162.76 220.902C168.992 227.212 168.992 237.34 162.682 243.572L85.8707 319.838C79.5606 326.07 69.4334 326.07 63.2012 319.76L-37.6818 218.098C-43.9139 211.788 -43.9139 201.661 -37.6039 195.428Z" stroke="#2A5392" stroke-width="0.3529" stroke-miterlimit="10"/>
<path d="M-36.0462 201.506L45.2055 120.877C51.5155 114.567 61.7986 114.645 68.1087 120.955L161.124 214.671C167.434 220.981 167.356 231.264 161.046 237.574L79.794 318.203C73.4839 324.513 63.2008 324.435 56.8908 318.125L-36.1241 224.409C-42.4342 218.099 -42.3563 207.816 -36.0462 201.506Z" stroke="#2A5392" stroke-width="0.3529" stroke-miterlimit="10"/>
<path d="M50.5806 316.488L-34.5662 230.718C-40.9541 224.33 -40.8762 213.969 -34.4883 207.581L51.2817 122.434C57.6697 116.046 68.0307 116.124 74.4186 122.512L159.565 208.282C165.953 214.67 165.875 225.031 159.488 231.419L73.7175 316.565C67.3295 322.953 56.9686 322.875 50.5806 316.488Z" stroke="#2A5392" stroke-width="0.3529" stroke-miterlimit="10"/>
<path d="M44.5044 318.047L-36.1241 236.795C-42.4342 230.485 -42.3563 220.202 -36.0462 213.892L57.5919 120.877C63.9019 114.567 74.185 114.645 80.4951 120.955L161.201 202.207C167.511 208.517 167.434 218.8 161.124 225.11L67.4075 318.125C61.0975 324.435 50.8144 324.435 44.5044 318.047Z" stroke="#2A5392" stroke-width="0.3529" stroke-miterlimit="10"/>
<path d="M38.428 319.604L-37.838 242.793C-44.0702 236.483 -44.0702 226.356 -37.7601 220.124L63.9019 119.318C70.2119 113.086 80.3392 113.086 86.5714 119.396L162.837 196.208C169.069 202.518 169.069 212.645 162.759 218.877L61.0974 319.682C54.7874 325.914 44.6601 325.914 38.428 319.604Z" stroke="#2A5392" stroke-width="0.3529" stroke-miterlimit="10"/>
<path d="M32.3517 321.24L-39.396 248.947C-45.5502 242.715 -45.5502 232.666 -39.3181 226.512L70.212 117.761C76.4442 111.606 86.4935 111.606 92.6478 117.838L164.395 190.131C170.55 196.364 170.55 206.413 164.318 212.567L54.7875 321.318C48.5553 327.472 38.506 327.395 32.3517 321.24Z" stroke="#2A5392" stroke-width="0.3529" stroke-miterlimit="10"/>
<path d="M26.2752 322.798L-41.032 255.023C-47.1084 248.869 -47.1084 238.975 -40.9541 232.821L76.522 116.124C82.6762 110.047 92.5698 110.047 98.724 116.202L166.031 183.976C172.108 190.131 172.108 200.024 165.953 206.178L48.4773 322.875C42.323 328.952 32.4295 328.952 26.2752 322.798Z" stroke="#2A5392" stroke-width="0.3529" stroke-miterlimit="10"/>
<path d="M20.1993 324.357L-42.6675 261.023C-48.7439 254.947 -48.666 245.131 -42.5896 239.055L82.8325 114.567C88.9088 108.491 98.7245 108.569 104.801 114.645L167.668 177.979C173.744 184.056 173.666 193.871 167.59 199.948L42.1677 324.435C36.0913 330.511 26.2757 330.434 20.1993 324.357Z" stroke="#2A5392" stroke-width="0.3529" stroke-miterlimit="10"/>
<path d="M14.1228 325.915L-44.3036 267.099C-50.302 261.1 -50.2241 251.363 -44.2257 245.364L89.1424 113.009C95.1409 107.01 104.879 107.088 110.877 113.087L169.304 171.903C175.302 177.901 175.224 187.639 169.226 193.637L35.8575 325.993C29.859 331.991 20.1213 331.913 14.1228 325.915Z" stroke="#2A5392" stroke-width="0.3529" stroke-miterlimit="10"/>
<path d="M8.0466 327.472L-45.8615 273.175C-51.7821 267.254 -51.7042 257.594 -45.7836 251.674L95.4526 111.45C101.373 105.53 111.033 105.608 116.953 111.528L170.94 165.904C176.86 171.824 176.782 181.484 170.862 187.405L29.6254 327.628C23.627 333.471 13.9671 333.471 8.0466 327.472Z" stroke="#2A5392" stroke-width="0.3529" stroke-miterlimit="10"/>
<path d="M1.9699 329.108L-47.4978 279.251C-53.3405 273.33 -53.3405 263.826 -47.4199 257.983L101.762 109.892C107.683 104.049 117.187 104.049 123.029 109.97L172.497 159.827C178.34 165.747 178.34 175.252 172.419 181.094L23.2371 329.186C17.3166 335.028 7.81254 334.95 1.9699 329.108Z" stroke="#2A5392" stroke-width="0.3529" stroke-miterlimit="10"/>
<path d="M-4.10608 330.667L-49.1334 285.328C-54.8981 279.486 -54.8981 270.06 -49.0555 264.295L108.073 108.257C113.915 102.492 123.341 102.492 129.106 108.335L174.134 153.674C179.898 159.517 179.898 168.943 174.056 174.708L16.9274 330.745C11.0848 336.51 1.73656 336.51 -4.10608 330.667Z" stroke="#2A5392" stroke-width="0.3529" stroke-miterlimit="10"/>
<path d="M-10.1826 332.225L-50.7695 291.326C-56.4563 285.562 -56.4563 276.291 -50.6916 270.527L114.383 106.699C120.147 101.012 129.418 101.012 135.182 106.777L175.769 147.675C181.456 153.44 181.456 162.71 175.691 168.475L10.6173 332.303C4.85251 338.067 -4.41781 337.99 -10.1826 332.225Z" stroke="#2A5392" stroke-width="0.3529" stroke-miterlimit="10"/>
<path d="M-16.259 333.783L-52.4055 297.402C-58.0923 291.716 -58.0144 282.523 -52.3276 276.836L120.693 105.14C126.379 99.4536 135.572 99.5315 141.259 105.218L177.405 141.599C183.092 147.285 183.014 156.478 177.327 162.165L4.30714 333.86C-1.3797 339.547 -10.5721 339.469 -16.259 333.783Z" stroke="#2A5392" stroke-width="0.3529" stroke-miterlimit="10"/>
<path d="M-22.3352 335.418L-53.9634 303.556C-59.5723 297.947 -59.4944 288.833 -53.8855 283.224L127.003 103.582C132.612 97.9731 141.726 98.051 147.335 103.66L178.963 135.522C184.572 141.131 184.494 150.245 178.885 155.854L-2.00281 335.496C-7.61175 341.027 -16.7263 341.027 -22.3352 335.418Z" stroke="#2A5392" stroke-width="0.3529" stroke-miterlimit="10"/>
<path d="M-28.4114 336.976L-55.5992 309.554C-61.1302 304.023 -61.1302 294.986 -55.5213 289.455L133.313 102.023C138.844 96.4923 147.881 96.4923 153.412 102.101L180.599 129.523C186.13 135.054 186.13 144.09 180.522 149.621L-8.31274 337.053C-13.8438 342.585 -22.8804 342.507 -28.4114 336.976Z" stroke="#2A5392" stroke-width="0.3529" stroke-miterlimit="10"/>
<path d="M-34.4879 338.535L-57.2353 315.632C-62.6884 310.101 -62.6884 301.22 -57.1574 295.767L139.623 100.389C145.154 94.9356 154.035 94.9356 159.488 100.467L182.235 123.37C187.688 128.901 187.688 137.782 182.157 143.235L-14.6229 338.613C-20.076 344.066 -29.0348 344.066 -34.4879 338.535Z" stroke="#2A5392" stroke-width="0.3529" stroke-miterlimit="10"/>
<path d="M-40.5644 340.093L-58.8713 321.708C-64.2466 316.255 -64.2466 307.452 -58.7934 302.076L145.933 98.8303C151.386 93.4551 160.189 93.4551 165.564 98.9082L183.871 117.371C189.246 122.824 189.246 131.627 183.793 137.002L-20.9331 340.17C-26.3862 345.546 -35.1112 345.546 -40.5644 340.093Z" stroke="#2A5392" stroke-width="0.3529" stroke-miterlimit="10"/>
</g>
</mask>
<g mask="url(#mask0_2217_13082)">
<path d="M26.8785 144.829C29.2976 142.429 32.5827 141.076 36.0111 141.069L68.7657 141C72.1941 140.993 75.485 142.332 77.9144 144.722L101.125 167.56C103.554 169.95 104.923 173.197 104.93 176.584L105 208.951C105.007 212.339 103.652 215.591 101.233 217.991L78.1215 240.926C75.7024 243.327 72.4173 244.68 68.9889 244.687L36.2343 244.756C32.8059 244.763 29.515 243.424 27.0856 241.034L3.87534 218.196C1.44593 215.805 0.0770157 212.559 0.0697211 209.172L2.9302e-05 176.805C-0.00726528 173.417 1.34766 170.165 3.76675 167.765L26.8785 144.829Z" fill="#9FBEED"/>
</g>
<path d="M25.9289 178H28.0349V171.773L32.0519 178H34.4179V168.9H32.3509V174.347L28.9059 168.9H25.9289V178ZM37.982 178.182C39.022 178.182 39.997 177.74 40.335 176.687V178H42.48V173.944C42.467 171.955 41.479 170.993 39.204 170.993C37.176 170.993 36.097 171.786 35.824 173.294L37.839 173.437C37.969 172.735 38.398 172.449 39.126 172.449C39.906 172.449 40.335 172.813 40.335 173.658V174.035C40.036 173.905 39.568 173.814 38.892 173.814C36.682 173.814 35.668 174.724 35.668 176.102C35.668 177.415 36.617 178.182 37.982 178.182ZM37.891 175.868C37.891 175.296 38.372 174.867 39.477 174.867H40.335C40.335 176.05 39.763 176.648 38.866 176.648C38.242 176.648 37.891 176.362 37.891 175.868ZM46.8813 178.13C47.3623 178.13 47.9603 178.078 48.5583 177.961V176.427C48.3113 176.492 47.9993 176.557 47.6353 176.557C46.8683 176.557 46.6083 176.258 46.6083 175.4V172.631H48.6363V171.175H46.6083V169.303L44.4373 170.018V171.175H43.1893V172.631H44.4373V175.569C44.4373 177.389 45.1523 178.13 46.8813 178.13ZM49.628 171.175V178H51.851V171.175H49.628ZM49.433 169.225C49.433 169.953 50.005 170.538 50.733 170.538C51.474 170.538 52.046 169.953 52.046 169.225C52.046 168.497 51.474 167.912 50.733 167.912C50.005 167.912 49.433 168.497 49.433 169.225ZM56.7538 178.182C59.1328 178.182 60.5238 176.778 60.5238 174.594C60.5238 172.41 59.1328 170.993 56.7538 170.993C54.3878 170.993 52.9838 172.41 52.9838 174.594C52.9838 176.765 54.3878 178.182 56.7538 178.182ZM55.3108 174.594C55.3108 173.151 55.8438 172.54 56.7538 172.54C57.6768 172.54 58.1968 173.151 58.1968 174.594C58.1968 176.037 57.6768 176.635 56.7538 176.635C55.8438 176.635 55.3108 176.037 55.3108 174.594ZM61.6632 178H63.8862V174.165C63.8862 173.034 64.3672 172.553 65.1992 172.553C65.9922 172.553 66.3952 172.969 66.3952 174.165V178H68.6182V173.684C68.6182 171.929 67.7082 170.993 66.2262 170.993C65.0822 170.993 64.2372 171.539 63.8862 172.332V171.175H61.6632V178ZM72.0435 178.182C73.0835 178.182 74.0585 177.74 74.3965 176.687V178H76.5415V173.944C76.5285 171.955 75.5405 170.993 73.2655 170.993C71.2375 170.993 70.1585 171.786 69.8855 173.294L71.9005 173.437C72.0305 172.735 72.4595 172.449 73.1875 172.449C73.9675 172.449 74.3965 172.813 74.3965 173.658V174.035C74.0975 173.905 73.6295 173.814 72.9535 173.814C70.7435 173.814 69.7295 174.724 69.7295 176.102C69.7295 177.415 70.6785 178.182 72.0435 178.182ZM71.9525 175.868C71.9525 175.296 72.4335 174.867 73.5385 174.867H74.3965C74.3965 176.05 73.8245 176.648 72.9275 176.648C72.3035 176.648 71.9525 176.362 71.9525 175.868ZM77.9767 168.9V178H80.1997V168.9H77.9767ZM28.176 198H30.62V188.9H28.176V198ZM34.6568 198.182C35.6838 198.182 36.4638 197.714 36.7888 196.843V198H38.9728V188.9H36.7888V192.28C36.4378 191.513 35.7228 190.993 34.6568 190.993C33.0058 190.993 31.7578 192.241 31.7578 194.568C31.7578 196.765 32.8758 198.182 34.6568 198.182ZM34.0068 194.568C34.0068 193.112 34.6178 192.579 35.3978 192.579C36.1908 192.579 36.8018 193.112 36.8018 194.568C36.8018 196.024 36.1908 196.557 35.3978 196.557C34.6178 196.557 34.0068 196.024 34.0068 194.568ZM43.8937 198.182C45.8437 198.182 46.8837 197.22 47.2867 195.946L45.3887 195.608C45.1547 196.31 44.6607 196.635 43.9327 196.635C42.7757 196.635 42.3727 195.842 42.3597 194.997H47.4427C47.5727 192.774 46.4157 190.993 43.8157 190.993C41.6057 190.993 40.1237 192.345 40.1237 194.568C40.1237 196.778 41.5407 198.182 43.8937 198.182ZM42.3597 193.801C42.4117 193.112 42.8797 192.488 43.8157 192.488C44.7647 192.488 45.1807 193.151 45.2067 193.801H42.3597ZM48.5743 198H50.7973V194.165C50.7973 193.034 51.2783 192.553 52.1103 192.553C52.9033 192.553 53.3063 192.969 53.3063 194.165V198H55.5293V193.684C55.5293 191.929 54.6193 190.993 53.1373 190.993C51.9933 190.993 51.1483 191.539 50.7973 192.332V191.175H48.5743V198ZM59.9447 198.13C60.4257 198.13 61.0237 198.078 61.6217 197.961V196.427C61.3747 196.492 61.0627 196.557 60.6987 196.557C59.9317 196.557 59.6717 196.258 59.6717 195.4V192.631H61.6997V191.175H59.6717V189.303L57.5007 190.018V191.175H56.2527V192.631H57.5007V195.569C57.5007 197.389 58.2157 198.13 59.9447 198.13ZM62.6915 191.175V198H64.9145V191.175H62.6915ZM62.4965 189.225C62.4965 189.953 63.0685 190.538 63.7965 190.538C64.5375 190.538 65.1095 189.953 65.1095 189.225C65.1095 188.497 64.5375 187.912 63.7965 187.912C63.0685 187.912 62.4965 188.497 62.4965 189.225ZM69.4662 198.13C69.9472 198.13 70.5452 198.078 71.1432 197.961V196.427C70.8962 196.492 70.5842 196.557 70.2202 196.557C69.4532 196.557 69.1932 196.258 69.1932 195.4V192.631H71.2212V191.175H69.1932V189.303L67.0222 190.018V191.175H65.7742V192.631H67.0222V195.569C67.0222 197.389 67.7372 198.13 69.4662 198.13ZM73.1329 200.652C74.6019 200.652 75.3689 199.898 76.1489 198.039L79.0609 191.175H77.0979L75.5639 195.075L73.9649 191.175H71.5729L74.3939 197.558L74.2639 197.818C73.8349 198.65 73.5099 198.962 72.8729 198.962C72.6519 198.962 72.3399 198.91 71.9629 198.793V200.457C72.4179 200.587 72.7689 200.652 73.1329 200.652ZM38.6558 218.182C41.3988 218.182 42.5688 216.336 42.8158 214.581L40.5278 214.477C40.3328 215.673 39.6178 216.232 38.7078 216.232C37.5768 216.232 36.6928 215.478 36.6928 213.528C36.6928 211.396 37.5248 210.655 38.6688 210.655C39.5398 210.655 40.2678 211.149 40.4888 212.28L42.8288 212.059C42.5558 210.46 41.2948 208.718 38.6818 208.718C35.8608 208.718 34.1838 210.46 34.1838 213.528C34.1838 216.31 35.8738 218.182 38.6558 218.182ZM45.9292 218.182C46.9692 218.182 47.9442 217.74 48.2822 216.687V218H50.4272V213.944C50.4142 211.955 49.4262 210.993 47.1512 210.993C45.1232 210.993 44.0442 211.786 43.7712 213.294L45.7862 213.437C45.9162 212.735 46.3452 212.449 47.0732 212.449C47.8532 212.449 48.2822 212.813 48.2822 213.658V214.035C47.9832 213.905 47.5152 213.814 46.8392 213.814C44.6292 213.814 43.6152 214.724 43.6152 216.102C43.6152 217.415 44.5642 218.182 45.9292 218.182ZM45.8382 215.868C45.8382 215.296 46.3192 214.867 47.4242 214.867H48.2822C48.2822 216.05 47.7102 216.648 46.8132 216.648C46.1892 216.648 45.8382 216.362 45.8382 215.868ZM51.8624 218H54.0854V215.166C54.0854 213.515 54.8264 212.956 55.9574 212.956C56.2304 212.956 56.4774 212.982 56.7374 213.034V211.11C56.5554 211.032 56.3344 210.993 56.0484 210.993C55.2814 210.993 54.4624 211.305 54.0854 212.501V211.175H51.8624V218ZM60.1109 218.182C61.1379 218.182 61.9179 217.714 62.2429 216.843V218H64.4269V208.9H62.2429V212.28C61.8919 211.513 61.1769 210.993 60.1109 210.993C58.4599 210.993 57.2119 212.241 57.2119 214.568C57.2119 216.765 58.3299 218.182 60.1109 218.182ZM59.4609 214.568C59.4609 213.112 60.0719 212.579 60.8519 212.579C61.6449 212.579 62.2559 213.112 62.2559 214.568C62.2559 216.024 61.6449 216.557 60.8519 216.557C60.0719 216.557 59.4609 216.024 59.4609 214.568ZM68.6848 218.182C70.8558 218.182 71.8828 217.376 71.8828 215.972C71.8828 214.815 71.1938 214.139 69.6468 213.84L68.5678 213.619C67.9698 213.489 67.7358 213.294 67.7358 212.982C67.7358 212.618 68.0738 212.397 68.6458 212.397C69.2178 212.397 69.6208 212.605 69.7638 213.19L71.8048 213.021C71.4668 211.565 70.3618 210.993 68.7368 210.993C66.7218 210.993 65.6558 211.838 65.6558 213.151C65.6558 214.321 66.4878 214.932 67.9958 215.244L68.9448 215.439C69.4778 215.556 69.6728 215.777 69.6728 216.115C69.6728 216.583 69.2958 216.804 68.6588 216.804C67.9568 216.804 67.5928 216.544 67.5018 215.946L65.5128 216.076C65.7208 217.584 66.7868 218.182 68.6848 218.182Z" fill="#9FBEED"/>
<path d="M179.878 148.829C182.298 146.429 185.583 145.076 189.011 145.069L221.766 145C225.194 144.993 228.485 146.332 230.914 148.722L254.125 171.56C256.554 173.95 257.923 177.197 257.93 180.584L258 212.951C258.007 216.339 256.652 219.591 254.233 221.991L231.122 244.926C228.702 247.327 225.417 248.68 221.989 248.687L189.234 248.756C185.806 248.763 182.515 247.424 180.086 245.034L156.875 222.196C154.446 219.805 153.077 216.559 153.07 213.172L153 180.805C152.993 177.417 154.348 174.165 156.767 171.765L179.878 148.829Z" fill="#3F7CDB"/>
<path d="M179.878 144.829C182.298 142.429 185.583 141.076 189.011 141.069L221.766 141C225.194 140.993 228.485 142.332 230.914 144.722L254.125 167.56C256.554 169.95 257.923 173.197 257.93 176.584L258 208.951C258.007 212.339 256.652 215.591 254.233 217.991L231.122 240.926C228.702 243.327 225.417 244.68 221.989 244.687L189.234 244.756C185.806 244.763 182.515 243.424 180.086 241.034L156.875 218.196C154.446 215.805 153.077 212.559 153.07 209.172L153 176.805C152.993 173.417 154.348 170.165 156.767 167.765L179.878 144.829Z" fill="#D9E5F8"/>
<mask id="mask1_2217_13082" style="mask-type:alpha" maskUnits="userSpaceOnUse" x="153" y="141" width="105" height="109">
<g clip-path="url(#clip1_2217_13082)">
<path d="M103.908 125.51L122.371 107.203C127.824 101.828 136.627 101.828 142.002 107.281L345.17 312.008C350.545 317.461 350.545 326.264 345.092 331.639L326.629 349.946C321.176 355.321 312.373 355.321 306.998 349.868L103.83 145.142C98.4546 139.688 98.4546 130.963 103.908 125.51Z" stroke="#2A5392" stroke-width="0.3529" stroke-miterlimit="10"/>
<path d="M105.466 131.587L128.369 108.84C133.9 103.387 142.781 103.387 148.234 108.918L343.612 305.698C349.065 311.229 349.065 320.11 343.534 325.563L320.631 348.31C315.1 353.764 306.219 353.764 300.766 348.233L105.388 151.452C99.9349 145.999 100.013 137.04 105.466 131.587Z" stroke="#2A5392" stroke-width="0.3529" stroke-miterlimit="10"/>
<path d="M107.024 137.662L134.445 110.475C139.976 104.943 149.013 104.943 154.544 110.552L342.054 299.387C347.585 304.918 347.585 313.954 341.976 319.485L314.554 346.673C309.023 352.204 299.987 352.204 294.456 346.595L107.024 157.761C101.493 152.23 101.493 143.193 107.024 137.662Z" stroke="#2A5392" stroke-width="0.3529" stroke-miterlimit="10"/>
<path d="M108.66 143.739L140.522 112.111C146.131 106.502 155.245 106.58 160.854 112.189L340.496 293.077C346.105 298.686 346.027 307.801 340.418 313.41L308.556 345.038C302.947 350.647 293.833 350.569 288.224 344.96L108.582 164.072C102.973 158.463 102.973 149.348 108.66 143.739Z" stroke="#2A5392" stroke-width="0.3529" stroke-miterlimit="10"/>
<path d="M110.218 149.816L146.598 113.67C152.285 107.983 161.477 108.061 167.164 113.748L338.938 286.768C344.625 292.455 344.547 301.647 338.86 307.334L302.48 343.48C296.793 349.167 287.601 349.089 281.914 343.402L110.14 170.382C104.453 164.695 104.531 155.503 110.218 149.816Z" stroke="#2A5392" stroke-width="0.3529" stroke-miterlimit="10"/>
<path d="M111.776 155.891L152.674 115.304C158.439 109.617 167.709 109.617 173.474 115.382L337.302 280.456C342.989 286.221 342.989 295.491 337.224 301.256L296.325 341.843C290.561 347.53 281.29 347.53 275.526 341.765L111.698 176.691C106.011 170.926 106.011 161.656 111.776 155.891Z" stroke="#2A5392" stroke-width="0.3529" stroke-miterlimit="10"/>
<path d="M113.334 161.968L158.673 116.941C164.515 111.176 173.942 111.176 179.706 117.019L335.666 274.147C341.431 279.99 341.431 289.416 335.588 295.18L290.249 340.208C284.407 345.972 274.98 345.972 269.216 340.13L113.256 183.002C107.491 177.159 107.569 167.811 113.334 161.968Z" stroke="#2A5392" stroke-width="0.3529" stroke-miterlimit="10"/>
<path d="M114.97 168.045L164.827 118.577C170.748 112.735 180.252 112.735 186.094 118.655L334.186 267.837C340.028 273.758 340.028 283.262 334.108 289.105L284.251 338.572C278.33 344.415 268.826 344.415 262.983 338.494L114.892 189.312C109.049 183.392 109.049 173.888 114.97 168.045Z" stroke="#2A5392" stroke-width="0.3529" stroke-miterlimit="10"/>
<path d="M116.528 174.12L170.825 120.212C176.746 114.292 186.406 114.37 192.326 120.29L332.55 261.526C338.47 267.447 338.392 277.107 332.472 283.027L278.174 337.013C272.254 342.934 262.594 342.856 256.673 336.935L116.45 195.699C110.529 189.701 110.529 180.041 116.528 174.12Z" stroke="#2A5392" stroke-width="0.3529" stroke-miterlimit="10"/>
<path d="M118.086 180.197L176.902 121.771C182.9 115.772 192.638 115.85 198.636 121.849L330.992 255.217C336.99 261.215 336.912 270.953 330.914 276.951L272.098 335.378C266.099 341.376 256.362 341.298 250.363 335.3L118.008 201.932C112.009 195.933 112.087 186.196 118.086 180.197Z" stroke="#2A5392" stroke-width="0.3529" stroke-miterlimit="10"/>
<path d="M119.644 186.274L182.978 123.407C189.054 117.331 198.87 117.408 204.946 123.485L329.434 248.907C335.51 254.983 335.432 264.799 329.356 270.875L266.021 333.742C259.945 339.818 250.129 339.741 244.053 333.664L119.566 208.242C113.567 202.166 113.567 192.35 119.644 186.274Z" stroke="#2A5392" stroke-width="0.3529" stroke-miterlimit="10"/>
<path d="M121.202 192.351L188.977 125.044C195.131 118.967 205.024 118.967 211.179 125.122L327.798 242.598C333.874 248.752 333.874 258.645 327.72 264.8L259.945 332.107C253.791 338.183 243.897 338.183 237.743 332.029L121.124 214.553C115.048 208.399 115.126 198.505 121.202 192.351Z" stroke="#2A5392" stroke-width="0.3529" stroke-miterlimit="10"/>
<path d="M122.838 198.426L195.131 126.678C201.363 120.524 211.412 120.524 217.566 126.756L326.318 236.286C332.472 242.518 332.472 252.568 326.24 258.722L253.947 330.47C247.714 336.624 237.665 336.624 231.511 330.392L122.76 220.862C116.606 214.63 116.606 204.58 122.838 198.426Z" stroke="#2A5392" stroke-width="0.3529" stroke-miterlimit="10"/>
<path d="M124.396 204.503L201.207 128.237C207.517 122.005 217.645 122.005 223.877 128.315L324.76 229.977C330.992 236.287 330.992 246.414 324.682 252.646L247.871 328.912C241.561 335.144 231.433 335.144 225.201 328.834L124.318 227.172C118.086 220.862 118.086 210.735 124.396 204.503Z" stroke="#2A5392" stroke-width="0.3529" stroke-miterlimit="10"/>
<path d="M125.954 210.58L207.205 129.952C213.516 123.642 223.799 123.719 230.109 130.029L323.124 223.745C329.434 230.056 329.356 240.339 323.046 246.649L241.794 327.277C235.484 333.587 225.201 333.509 218.891 327.199L125.876 233.483C119.566 227.173 119.644 216.89 125.954 210.58Z" stroke="#2A5392" stroke-width="0.3529" stroke-miterlimit="10"/>
<path d="M212.581 325.562L127.434 239.792C121.046 233.404 121.124 223.043 127.512 216.655L213.282 131.508C219.67 125.12 230.031 125.198 236.419 131.586L321.565 217.356C327.953 223.744 327.875 234.105 321.488 240.493L235.718 325.64C229.33 332.028 218.969 331.95 212.581 325.562Z" stroke="#2A5392" stroke-width="0.3529" stroke-miterlimit="10"/>
<path d="M206.504 327.121L125.876 245.87C119.566 239.56 119.644 229.277 125.954 222.966L219.592 129.952C225.902 123.642 236.185 123.719 242.495 130.029L323.201 211.281C329.511 217.591 329.434 227.874 323.124 234.184L229.408 327.199C223.097 333.509 212.814 333.509 206.504 327.121Z" stroke="#2A5392" stroke-width="0.3529" stroke-miterlimit="10"/>
<path d="M200.428 328.679L124.162 251.867C117.93 245.557 117.93 235.43 124.24 229.198L225.902 128.393C232.212 122.161 242.339 122.161 248.571 128.471L324.837 205.282C331.069 211.592 331.069 221.719 324.759 227.951L223.097 328.756C216.787 334.989 206.66 334.989 200.428 328.679Z" stroke="#2A5392" stroke-width="0.3529" stroke-miterlimit="10"/>
<path d="M194.352 330.315L122.604 258.022C116.45 251.789 116.45 241.74 122.682 235.586L232.212 126.835C238.444 120.681 248.494 120.681 254.648 126.913L326.395 199.206C332.55 205.438 332.55 215.487 326.318 221.641L216.787 330.392C210.555 336.547 200.506 336.469 194.352 330.315Z" stroke="#2A5392" stroke-width="0.3529" stroke-miterlimit="10"/>
<path d="M188.275 331.872L120.968 264.097C114.892 257.943 114.892 248.049 121.046 241.895L238.522 125.198C244.676 119.122 254.57 119.122 260.724 125.276L328.031 193.051C334.108 199.205 334.108 209.098 327.953 215.253L210.477 331.95C204.323 338.026 194.429 338.026 188.275 331.872Z" stroke="#2A5392" stroke-width="0.3529" stroke-miterlimit="10"/>
<path d="M182.199 333.431L119.332 270.097C113.256 264.021 113.334 254.205 119.41 248.129L244.832 123.642C250.909 117.565 260.724 117.643 266.801 123.719L329.668 187.054C335.744 193.13 335.666 202.946 329.59 209.022L204.168 333.509C198.091 339.586 188.276 339.508 182.199 333.431Z" stroke="#2A5392" stroke-width="0.3529" stroke-miterlimit="10"/>
<path d="M176.123 334.989L117.696 276.173C111.698 270.175 111.776 260.437 117.774 254.438L251.142 122.083C257.141 116.085 266.879 116.163 272.877 122.161L331.304 180.977C337.302 186.975 337.224 196.713 331.226 202.712L197.857 335.067C191.859 341.065 182.121 340.988 176.123 334.989Z" stroke="#2A5392" stroke-width="0.3529" stroke-miterlimit="10"/>
<path d="M170.047 336.546L116.138 282.249C110.218 276.328 110.296 266.668 116.216 260.748L257.453 120.524C263.373 114.604 273.033 114.682 278.953 120.602L332.94 174.978C338.86 180.898 338.782 190.558 332.862 196.479L191.625 336.702C185.627 342.545 175.967 342.545 170.047 336.546Z" stroke="#2A5392" stroke-width="0.3529" stroke-miterlimit="10"/>
<path d="M163.97 338.182L114.502 288.325C108.66 282.404 108.66 272.9 114.58 267.058L263.762 118.966C269.683 113.123 279.187 113.123 285.029 119.044L334.497 168.901C340.34 174.822 340.34 184.326 334.419 190.168L185.237 338.26C179.317 344.103 169.813 344.025 163.97 338.182Z" stroke="#2A5392" stroke-width="0.3529" stroke-miterlimit="10"/>
<path d="M157.894 339.741L112.867 294.403C107.102 288.56 107.102 279.134 112.945 273.369L270.073 117.331C275.915 111.567 285.341 111.567 291.106 117.409L336.134 162.748C341.898 168.591 341.898 178.017 336.056 183.782L178.927 339.819C173.085 345.584 163.737 345.584 157.894 339.741Z" stroke="#2A5392" stroke-width="0.3529" stroke-miterlimit="10"/>
<path d="M151.817 341.299L111.231 300.401C105.544 294.636 105.544 285.366 111.308 279.601L276.383 115.773C282.147 110.086 291.418 110.086 297.182 115.851L337.769 156.749C343.456 162.514 343.456 171.785 337.691 177.549L172.617 341.377C166.853 347.142 157.582 347.064 151.817 341.299Z" stroke="#2A5392" stroke-width="0.3529" stroke-miterlimit="10"/>
<path d="M145.741 342.857L109.595 306.477C103.908 300.79 103.986 291.597 109.672 285.91L282.693 114.215C288.379 108.528 297.572 108.606 303.259 114.293L339.405 150.673C345.092 156.36 345.014 165.552 339.327 171.239L166.307 342.935C160.62 348.622 151.428 348.544 145.741 342.857Z" stroke="#2A5392" stroke-width="0.3529" stroke-miterlimit="10"/>
<path d="M139.665 344.492L108.037 312.63C102.428 307.022 102.506 297.907 108.115 292.298L289.003 112.656C294.612 107.047 303.726 107.125 309.335 112.734L340.963 144.596C346.572 150.205 346.494 159.319 340.885 164.928L159.997 344.57C154.388 350.101 145.274 350.101 139.665 344.492Z" stroke="#2A5392" stroke-width="0.3529" stroke-miterlimit="10"/>
<path d="M133.589 346.05L106.401 318.628C100.87 313.097 100.87 304.061 106.479 298.53L295.313 111.098C300.844 105.567 309.881 105.567 315.412 111.175L342.599 138.597C348.13 144.128 348.13 153.165 342.522 158.696L153.687 346.128C148.156 351.659 139.12 351.581 133.589 346.05Z" stroke="#2A5392" stroke-width="0.3529" stroke-miterlimit="10"/>
<path d="M127.512 347.609L104.765 324.706C99.3116 319.175 99.3116 310.294 104.843 304.841L301.623 109.463C307.154 104.01 316.035 104.01 321.488 109.541L344.235 132.444C349.688 137.975 349.688 146.856 344.157 152.309L147.377 347.687C141.924 353.14 132.965 353.14 127.512 347.609Z" stroke="#2A5392" stroke-width="0.3529" stroke-miterlimit="10"/>
<path d="M121.436 349.167L103.129 330.782C97.7534 325.329 97.7534 316.526 103.207 311.151L307.933 107.905C313.386 102.529 322.189 102.529 327.564 107.982L345.871 126.445C351.246 131.898 351.246 140.701 345.793 146.076L141.067 349.245C135.614 354.62 126.889 354.62 121.436 349.167Z" stroke="#2A5392" stroke-width="0.3529" stroke-miterlimit="10"/>
</g>
</mask>
<g mask="url(#mask1_2217_13082)">
<path d="M179.878 144.904C182.298 142.503 185.583 141.15 189.011 141.143L221.766 141.074C225.194 141.067 228.485 142.406 230.914 144.796L254.125 167.634C256.554 170.025 257.923 173.271 257.93 176.659L258 209.025C258.007 212.413 256.652 215.665 254.233 218.065L231.122 241.001C228.702 243.401 225.417 244.754 221.989 244.761L189.234 244.83C185.806 244.837 182.515 243.498 180.086 241.108L156.875 218.27C154.446 215.88 153.077 212.634 153.07 209.246L153 176.879C152.993 173.491 154.348 170.24 156.767 167.839L179.878 144.904Z" fill="#9FBEED"/>
</g>
<path d="M181.216 187.074V177.974H184.609C186.125 177.974 187.304 178.338 188.145 179.066C188.994 179.794 189.419 180.93 189.419 182.472C189.419 183.998 188.981 185.146 188.106 185.917C187.23 186.689 186.082 187.074 184.661 187.074H181.216ZM183.634 185.28H184.349C185.302 185.28 185.969 185.055 186.351 184.604C186.732 184.154 186.923 183.443 186.923 182.472C186.923 181.51 186.732 180.813 186.351 180.379C185.969 179.946 185.302 179.729 184.349 179.729H183.634V185.28ZM190.658 187.074V180.249H192.881V181.575C193.201 180.57 193.856 180.067 194.844 180.067C195.121 180.067 195.351 180.106 195.533 180.184V182.108C195.273 182.056 195.013 182.03 194.753 182.03C193.505 182.03 192.881 182.767 192.881 184.24V187.074H190.658ZM196.46 180.249H198.683V187.074H196.46V180.249ZM196.642 179.235C196.39 178.975 196.265 178.663 196.265 178.299C196.265 177.935 196.39 177.628 196.642 177.376C196.893 177.116 197.201 176.986 197.565 176.986C197.937 176.986 198.249 177.116 198.501 177.376C198.752 177.628 198.878 177.935 198.878 178.299C198.878 178.663 198.752 178.975 198.501 179.235C198.249 179.487 197.937 179.612 197.565 179.612C197.201 179.612 196.893 179.487 196.642 179.235ZM201.895 187.074L199.503 180.249H201.83L203.338 184.708L204.82 180.249H206.705L204.3 187.074H201.895ZM210.733 187.256C209.563 187.256 208.64 186.931 207.964 186.281C207.297 185.631 206.963 184.752 206.963 183.642C206.963 182.542 207.297 181.671 207.964 181.029C208.64 180.388 209.537 180.067 210.655 180.067C211.903 180.067 212.835 180.444 213.45 181.198C214.074 181.944 214.351 182.901 214.282 184.071H209.199C209.208 184.548 209.338 184.942 209.589 185.254C209.84 185.558 210.235 185.709 210.772 185.709C211.517 185.709 212.003 185.367 212.228 184.682L214.126 185.02C213.909 185.705 213.519 186.251 212.956 186.658C212.401 187.057 211.66 187.256 210.733 187.256ZM209.199 182.875H212.046C212.029 182.511 211.903 182.204 211.669 181.952C211.435 181.692 211.097 181.562 210.655 181.562C210.213 181.562 209.866 181.688 209.615 181.939C209.364 182.191 209.225 182.503 209.199 182.875ZM215.414 187.074V180.249H217.637V181.575C217.957 180.57 218.612 180.067 219.6 180.067C219.877 180.067 220.107 180.106 220.289 180.184V182.108C220.029 182.056 219.769 182.03 219.509 182.03C218.261 182.03 217.637 182.767 217.637 184.24V187.074H215.414ZM221.033 181.692L221.657 180.08C221.267 179.838 221.072 179.487 221.072 179.027C221.072 178.681 221.194 178.386 221.436 178.143C221.679 177.892 221.974 177.766 222.32 177.766C222.667 177.766 222.962 177.892 223.204 178.143C223.456 178.386 223.581 178.681 223.581 179.027C223.581 179.513 223.365 179.872 222.931 180.106L222.099 181.692H221.033ZM227.069 187.256C226.098 187.256 225.353 187.092 224.833 186.762C224.313 186.424 224.001 185.887 223.897 185.15L225.886 185.02C225.973 185.592 226.358 185.878 227.043 185.878C227.719 185.878 228.057 185.649 228.057 185.189C228.057 184.843 227.814 184.617 227.329 184.513L226.38 184.318C225.6 184.154 225.015 183.907 224.625 183.577C224.235 183.248 224.04 182.797 224.04 182.225C224.04 181.558 224.304 181.034 224.833 180.652C225.37 180.262 226.133 180.067 227.121 180.067C228.854 180.067 229.877 180.743 230.189 182.095L228.148 182.264C228.018 181.736 227.645 181.471 227.03 181.471C226.744 181.471 226.519 181.523 226.354 181.627C226.198 181.731 226.12 181.874 226.12 182.056C226.12 182.36 226.397 182.572 226.952 182.693L228.031 182.914C228.802 183.062 229.366 183.309 229.721 183.655C230.085 184.002 230.267 184.466 230.267 185.046C230.267 186.52 229.201 187.256 227.069 187.256ZM181.469 197.974H183.913V205.28H186.825V207.074H181.469V197.974ZM187.839 200.249H190.062V207.074H187.839V200.249ZM188.021 199.235C187.77 198.975 187.644 198.663 187.644 198.299C187.644 197.935 187.77 197.628 188.021 197.376C188.273 197.116 188.58 196.986 188.944 196.986C189.317 196.986 189.629 197.116 189.88 197.376C190.132 197.628 190.257 197.935 190.257 198.299C190.257 198.663 190.132 198.975 189.88 199.235C189.629 199.487 189.317 199.612 188.944 199.612C188.58 199.612 188.273 199.487 188.021 199.235ZM194.9 207.256C193.765 207.256 192.864 206.936 192.196 206.294C191.538 205.653 191.208 204.778 191.208 203.668C191.208 202.55 191.538 201.671 192.196 201.029C192.864 200.388 193.765 200.067 194.9 200.067C195.836 200.067 196.621 200.297 197.253 200.756C197.886 201.207 198.259 201.866 198.371 202.732L196.278 202.849C196.105 202.035 195.667 201.627 194.965 201.627C194.003 201.627 193.522 202.308 193.522 203.668C193.522 205.02 194.003 205.696 194.965 205.696C195.771 205.696 196.209 205.233 196.278 204.305L198.358 204.422C198.28 205.315 197.934 206.013 197.318 206.515C196.712 207.009 195.906 207.256 194.9 207.256ZM202.875 207.256C201.705 207.256 200.782 206.931 200.106 206.281C199.438 205.631 199.105 204.752 199.105 203.642C199.105 202.542 199.438 201.671 200.106 201.029C200.782 200.388 201.679 200.067 202.797 200.067C204.045 200.067 204.976 200.444 205.592 201.198C206.216 201.944 206.493 202.901 206.424 204.071H201.341C201.349 204.548 201.479 204.942 201.731 205.254C201.982 205.558 202.376 205.709 202.914 205.709C203.659 205.709 204.144 205.367 204.37 204.682L206.268 205.02C206.051 205.705 205.661 206.251 205.098 206.658C204.543 207.057 203.802 207.256 202.875 207.256ZM201.341 202.875H204.188C204.17 202.511 204.045 202.204 203.811 201.952C203.577 201.692 203.239 201.562 202.797 201.562C202.355 201.562 202.008 201.688 201.757 201.939C201.505 202.191 201.367 202.503 201.341 202.875ZM207.555 207.074V200.249H209.778V201.406C209.96 200.999 210.255 200.674 210.662 200.431C211.07 200.189 211.555 200.067 212.118 200.067C212.872 200.067 213.457 200.301 213.873 200.769C214.298 201.229 214.51 201.892 214.51 202.758V207.074H212.287V203.239C212.287 202.659 212.188 202.247 211.988 202.004C211.798 201.753 211.499 201.627 211.091 201.627C210.216 201.627 209.778 202.165 209.778 203.239V207.074H207.555ZM218.716 207.256C217.745 207.256 217 207.092 216.48 206.762C215.96 206.424 215.648 205.887 215.544 205.15L217.533 205.02C217.619 205.592 218.005 205.878 218.69 205.878C219.366 205.878 219.704 205.649 219.704 205.189C219.704 204.843 219.461 204.617 218.976 204.513L218.027 204.318C217.247 204.154 216.662 203.907 216.272 203.577C215.882 203.248 215.687 202.797 215.687 202.225C215.687 201.558 215.951 201.034 216.48 200.652C217.017 200.262 217.78 200.067 218.768 200.067C220.501 200.067 221.524 200.743 221.836 202.095L219.795 202.264C219.665 201.736 219.292 201.471 218.677 201.471C218.391 201.471 218.165 201.523 218.001 201.627C217.845 201.731 217.767 201.874 217.767 202.056C217.767 202.36 218.044 202.572 218.599 202.693L219.678 202.914C220.449 203.062 221.012 203.309 221.368 203.655C221.732 204.002 221.914 204.466 221.914 205.046C221.914 206.52 220.848 207.256 218.716 207.256ZM226.488 207.256C225.318 207.256 224.395 206.931 223.719 206.281C223.052 205.631 222.718 204.752 222.718 203.642C222.718 202.542 223.052 201.671 223.719 201.029C224.395 200.388 225.292 200.067 226.41 200.067C227.658 200.067 228.59 200.444 229.205 201.198C229.829 201.944 230.106 202.901 230.037 204.071H224.954C224.963 204.548 225.093 204.942 225.344 205.254C225.595 205.558 225.99 205.709 226.527 205.709C227.272 205.709 227.758 205.367 227.983 204.682L229.881 205.02C229.664 205.705 229.274 206.251 228.711 206.658C228.156 207.057 227.415 207.256 226.488 207.256ZM224.954 202.875H227.801C227.784 202.511 227.658 202.204 227.424 201.952C227.19 201.692 226.852 201.562 226.41 201.562C225.968 201.562 225.621 201.688 225.37 201.939C225.119 202.191 224.98 202.503 224.954 202.875Z" fill="#9FBEED"/>
<path d="M332.878 149.829C335.298 147.429 338.583 146.076 342.011 146.069L374.766 146C378.194 145.993 381.485 147.332 383.914 149.722L407.125 172.56C409.554 174.95 410.923 178.197 410.93 181.584L411 213.951C411.007 217.339 409.652 220.591 407.233 222.991L384.122 245.926C381.702 248.327 378.417 249.68 374.989 249.687L342.234 249.756C338.806 249.763 335.515 248.424 333.086 246.034L309.875 223.196C307.446 220.805 306.077 217.559 306.07 214.172L306 181.805C305.993 178.417 307.348 175.165 309.767 172.765L332.878 149.829Z" fill="#3F7CDB"/>
<path d="M332.878 144.829C335.298 142.429 338.583 141.076 342.011 141.069L374.766 141C378.194 140.993 381.485 142.332 383.914 144.722L407.125 167.56C409.554 169.95 410.923 173.197 410.93 176.584L411 208.951C411.007 212.339 409.652 215.591 407.233 217.991L384.122 240.926C381.702 243.327 378.417 244.68 374.989 244.687L342.234 244.756C338.806 244.763 335.515 243.424 333.086 241.034L309.875 218.196C307.446 215.805 306.077 212.559 306.07 209.172L306 176.805C305.993 173.417 307.348 170.165 309.767 167.765L332.878 144.829Z" fill="#D9E5F8"/>
<mask id="mask2_2217_13082" style="mask-type:alpha" maskUnits="userSpaceOnUse" x="306" y="141" width="105" height="104">
<g clip-path="url(#clip2_2217_13082)">
<path d="M244.908 117.723L263.371 99.4163C268.824 94.041 277.627 94.041 283.002 99.4942L486.17 304.22C491.545 309.674 491.545 318.476 486.092 323.852L467.629 342.159C462.176 347.534 453.373 347.534 447.998 342.081L244.83 137.355C239.455 131.901 239.455 123.176 244.908 117.723Z" stroke="#2A5392" stroke-width="0.3529" stroke-miterlimit="10"/>
<path d="M246.466 123.8L269.369 101.053C274.9 95.5997 283.781 95.5997 289.234 101.131L484.612 297.911C490.065 303.442 490.065 312.323 484.534 317.776L461.631 340.523C456.1 345.976 447.219 345.976 441.766 340.445L246.388 143.665C240.935 138.212 241.013 129.253 246.466 123.8Z" stroke="#2A5392" stroke-width="0.3529" stroke-miterlimit="10"/>
<path d="M248.024 129.875L275.445 102.687C280.976 97.1564 290.013 97.1564 295.544 102.765L483.054 291.6C488.585 297.131 488.585 306.167 482.976 311.698L455.554 338.886C450.023 344.417 440.987 344.417 435.456 338.808L248.024 149.974C242.493 144.443 242.493 135.406 248.024 129.875Z" stroke="#2A5392" stroke-width="0.3529" stroke-miterlimit="10"/>
<path d="M249.66 135.952L281.522 104.324C287.131 98.7153 296.245 98.7932 301.854 104.402L481.496 285.29C487.105 290.899 487.027 300.014 481.418 305.623L449.556 337.251C443.947 342.86 434.833 342.782 429.224 337.173L249.582 156.285C243.973 150.676 243.973 141.561 249.66 135.952Z" stroke="#2A5392" stroke-width="0.3529" stroke-miterlimit="10"/>
<path d="M251.218 142.029L287.598 105.883C293.285 100.196 302.477 100.274 308.164 105.961L479.938 278.981C485.625 284.668 485.547 293.86 479.86 299.547L443.48 335.693C437.793 341.38 428.601 341.302 422.914 335.615L251.14 162.595C245.453 156.908 245.531 147.716 251.218 142.029Z" stroke="#2A5392" stroke-width="0.3529" stroke-miterlimit="10"/>
<path d="M252.776 148.104L293.674 107.517C299.439 101.83 308.709 101.83 314.474 107.595L478.302 272.669C483.989 278.434 483.989 287.704 478.224 293.469L437.325 334.056C431.561 339.743 422.29 339.743 416.526 333.978L252.698 168.904C247.011 163.139 247.011 153.869 252.776 148.104Z" stroke="#2A5392" stroke-width="0.3529" stroke-miterlimit="10"/>
<path d="M254.334 154.181L299.673 109.154C305.515 103.389 314.942 103.389 320.706 109.232L476.666 266.36C482.431 272.202 482.431 281.629 476.588 287.393L431.249 332.421C425.407 338.185 415.98 338.185 410.216 332.343L254.256 175.215C248.491 169.372 248.569 160.024 254.334 154.181Z" stroke="#2A5392" stroke-width="0.3529" stroke-miterlimit="10"/>
<path d="M255.97 160.258L305.827 110.79C311.748 104.948 321.252 104.948 327.094 110.868L475.186 260.05C481.028 265.971 481.028 275.475 475.108 281.318L425.251 330.785C419.33 336.628 409.826 336.628 403.983 330.707L255.892 181.525C250.049 175.605 250.049 166.101 255.97 160.258Z" stroke="#2A5392" stroke-width="0.3529" stroke-miterlimit="10"/>
<path d="M257.528 166.333L311.825 112.425C317.746 106.505 327.406 106.582 333.326 112.503L473.55 253.739C479.47 259.66 479.392 269.32 473.472 275.24L419.174 329.226C413.254 335.147 403.594 335.069 397.673 329.148L257.45 187.912C251.529 181.914 251.529 172.254 257.528 166.333Z" stroke="#2A5392" stroke-width="0.3529" stroke-miterlimit="10"/>
<path d="M259.086 172.41L317.902 113.984C323.9 107.985 333.638 108.063 339.636 114.061L471.992 247.43C477.99 253.428 477.912 263.166 471.914 269.164L413.098 327.591C407.099 333.589 397.362 333.511 391.363 327.513L259.008 194.145C253.009 188.146 253.087 178.408 259.086 172.41Z" stroke="#2A5392" stroke-width="0.3529" stroke-miterlimit="10"/>
<path d="M260.644 178.487L323.978 115.62C330.054 109.543 339.87 109.621 345.946 115.698L470.434 241.12C476.51 247.196 476.432 257.012 470.356 263.088L407.021 325.955C400.945 332.031 391.129 331.953 385.053 325.877L260.566 200.455C254.567 194.379 254.567 184.563 260.644 178.487Z" stroke="#2A5392" stroke-width="0.3529" stroke-miterlimit="10"/>
<path d="M262.202 184.564L329.977 117.257C336.131 111.18 346.024 111.18 352.179 117.334L468.798 234.811C474.874 240.965 474.874 250.858 468.72 257.013L400.945 324.32C394.791 330.396 384.897 330.396 378.743 324.242L262.124 206.766C256.048 200.612 256.126 190.718 262.202 184.564Z" stroke="#2A5392" stroke-width="0.3529" stroke-miterlimit="10"/>
<path d="M263.838 190.639L336.131 118.891C342.363 112.737 352.412 112.737 358.566 118.969L467.318 228.499C473.472 234.731 473.472 244.781 467.24 250.935L394.947 322.683C388.714 328.837 378.665 328.837 372.511 322.605L263.76 213.075C257.606 206.842 257.606 196.793 263.838 190.639Z" stroke="#2A5392" stroke-width="0.3529" stroke-miterlimit="10"/>
<path d="M265.396 196.716L342.207 120.45C348.517 114.217 358.645 114.217 364.877 120.527L465.76 222.189C471.992 228.5 471.992 238.627 465.682 244.859L388.871 321.125C382.561 327.357 372.433 327.357 366.201 321.047L265.318 219.385C259.086 213.075 259.086 202.948 265.396 196.716Z" stroke="#2A5392" stroke-width="0.3529" stroke-miterlimit="10"/>
<path d="M266.954 202.793L348.205 122.164C354.516 115.854 364.799 115.932 371.109 122.242L464.124 215.958C470.434 222.268 470.356 232.551 464.046 238.862L382.794 319.49C376.484 325.8 366.201 325.722 359.891 319.412L266.876 225.696C260.566 219.386 260.644 209.103 266.954 202.793Z" stroke="#2A5392" stroke-width="0.3529" stroke-miterlimit="10"/>
<path d="M353.581 317.775L268.434 232.005C262.046 225.617 262.124 215.256 268.512 208.868L354.282 123.721C360.67 117.333 371.031 117.411 377.419 123.799L462.565 209.569C468.953 215.957 468.875 226.318 462.488 232.706L376.718 317.853C370.33 324.24 359.969 324.163 353.581 317.775Z" stroke="#2A5392" stroke-width="0.3529" stroke-miterlimit="10"/>
<path d="M347.504 319.334L266.876 238.083C260.566 231.772 260.644 221.489 266.954 215.179L360.592 122.164C366.902 115.854 377.185 115.932 383.495 122.242L464.201 203.494C470.511 209.804 470.434 220.087 464.124 226.397L370.408 319.412C364.097 325.722 353.814 325.722 347.504 319.334Z" stroke="#2A5392" stroke-width="0.3529" stroke-miterlimit="10"/>
<path d="M341.428 320.891L265.162 244.08C258.93 237.77 258.93 227.643 265.24 221.411L366.902 120.606C373.212 114.373 383.339 114.373 389.571 120.683L465.837 197.495C472.069 203.805 472.069 213.932 465.759 220.164L364.097 320.969C357.787 327.201 347.66 327.201 341.428 320.891Z" stroke="#2A5392" stroke-width="0.3529" stroke-miterlimit="10"/>
<path d="M335.352 322.527L263.604 250.234C257.45 244.002 257.45 233.953 263.682 227.799L373.212 119.048C379.444 112.893 389.494 112.893 395.648 119.126L467.395 191.419C473.55 197.651 473.55 207.7 467.318 213.854L357.787 322.605C351.555 328.76 341.506 328.682 335.352 322.527Z" stroke="#2A5392" stroke-width="0.3529" stroke-miterlimit="10"/>
<path d="M329.275 324.085L261.968 256.31C255.892 250.156 255.892 240.262 262.046 234.108L379.522 117.411C385.676 111.335 395.57 111.335 401.724 117.489L469.031 185.263C475.108 191.418 475.108 201.311 468.953 207.465L351.477 324.163C345.323 330.239 335.429 330.239 329.275 324.085Z" stroke="#2A5392" stroke-width="0.3529" stroke-miterlimit="10"/>
<path d="M323.199 325.644L260.332 262.31C254.256 256.234 254.334 246.418 260.41 240.342L385.832 115.854C391.909 109.778 401.724 109.856 407.801 115.932L470.668 179.267C476.744 185.343 476.666 195.159 470.59 201.235L345.168 325.722C339.091 331.799 329.276 331.721 323.199 325.644Z" stroke="#2A5392" stroke-width="0.3529" stroke-miterlimit="10"/>
<path d="M317.123 327.202L258.696 268.386C252.698 262.388 252.776 252.65 258.774 246.651L392.142 114.296C398.141 108.298 407.879 108.375 413.877 114.374L472.304 173.19C478.302 179.188 478.224 188.926 472.226 194.925L338.857 327.28C332.859 333.278 323.121 333.2 317.123 327.202Z" stroke="#2A5392" stroke-width="0.3529" stroke-miterlimit="10"/>
<path d="M311.047 328.759L257.138 274.462C251.218 268.541 251.296 258.881 257.216 252.961L398.453 112.737C404.373 106.817 414.033 106.895 419.953 112.815L473.94 167.191C479.86 173.111 479.782 182.771 473.862 188.692L332.625 328.915C326.627 334.758 316.967 334.758 311.047 328.759Z" stroke="#2A5392" stroke-width="0.3529" stroke-miterlimit="10"/>
<path d="M304.97 330.395L255.502 280.538C249.66 274.617 249.66 265.113 255.58 259.27L404.762 111.179C410.683 105.336 420.187 105.336 426.029 111.257L475.497 161.114C481.34 167.035 481.34 176.539 475.419 182.381L326.237 330.473C320.317 336.315 310.813 336.238 304.97 330.395Z" stroke="#2A5392" stroke-width="0.3529" stroke-miterlimit="10"/>
<path d="M298.894 331.954L253.867 286.615C248.102 280.773 248.102 271.347 253.945 265.582L411.073 109.544C416.915 103.78 426.341 103.78 432.106 109.622L477.134 154.961C482.898 160.804 482.898 170.23 477.056 175.995L319.927 332.032C314.085 337.797 304.737 337.797 298.894 331.954Z" stroke="#2A5392" stroke-width="0.3529" stroke-miterlimit="10"/>
<path d="M292.817 333.512L252.231 292.613C246.544 286.849 246.544 277.578 252.308 271.814L417.383 107.986C423.147 102.299 432.418 102.299 438.182 108.064L478.769 148.962C484.456 154.727 484.456 163.997 478.691 169.762L313.617 333.59C307.853 339.355 298.582 339.277 292.817 333.512Z" stroke="#2A5392" stroke-width="0.3529" stroke-miterlimit="10"/>
<path d="M286.741 335.07L250.595 298.689C244.908 293.003 244.986 283.81 250.672 278.123L423.693 106.428C429.379 100.741 438.572 100.819 444.259 106.505L480.405 142.886C486.092 148.572 486.014 157.765 480.327 163.452L307.307 335.148C301.62 340.834 292.428 340.757 286.741 335.07Z" stroke="#2A5392" stroke-width="0.3529" stroke-miterlimit="10"/>
<path d="M280.665 336.705L249.037 304.843C243.428 299.234 243.506 290.12 249.115 284.511L430.003 104.869C435.612 99.2602 444.726 99.3381 450.335 104.947L481.963 136.809C487.572 142.418 487.494 151.532 481.885 157.141L300.997 336.783C295.388 342.314 286.274 342.314 280.665 336.705Z" stroke="#2A5392" stroke-width="0.3529" stroke-miterlimit="10"/>
<path d="M274.589 338.263L247.401 310.841C241.87 305.31 241.87 296.274 247.479 290.742L436.313 103.31C441.844 97.7794 450.881 97.7794 456.412 103.388L483.599 130.81C489.13 136.341 489.13 145.378 483.522 150.909L294.687 338.341C289.156 343.872 280.12 343.794 274.589 338.263Z" stroke="#2A5392" stroke-width="0.3529" stroke-miterlimit="10"/>
<path d="M268.512 339.822L245.765 316.919C240.312 311.388 240.312 302.507 245.843 297.054L442.623 101.676C448.154 96.2227 457.035 96.2227 462.488 101.754L485.235 124.657C490.688 130.188 490.688 139.069 485.157 144.522L288.377 339.9C282.924 345.353 273.965 345.353 268.512 339.822Z" stroke="#2A5392" stroke-width="0.3529" stroke-miterlimit="10"/>
<path d="M262.436 341.38L244.129 322.995C238.753 317.542 238.753 308.739 244.207 303.364L448.933 100.117C454.386 94.7422 463.189 94.7422 468.564 100.195L486.871 118.658C492.246 124.111 492.246 132.914 486.793 138.289L282.067 341.458C276.614 346.833 267.889 346.833 262.436 341.38Z" stroke="#2A5392" stroke-width="0.3529" stroke-miterlimit="10"/>
</g>
</mask>
<g mask="url(#mask2_2217_13082)">
<path d="M332.878 144.119C335.298 141.717 338.583 140.363 342.011 140.356L374.766 140.287C378.194 140.28 381.485 141.62 383.914 144.012L407.125 166.864C409.554 169.255 410.923 172.504 410.93 175.894L411 208.28C411.007 211.67 409.652 214.924 407.233 217.326L384.122 240.276C381.702 242.678 378.417 244.031 374.989 244.038L342.234 244.107C338.806 244.115 335.515 242.775 333.086 240.383L309.875 217.531C307.446 215.139 306.077 211.891 306.07 208.501L306 176.114C305.993 172.724 307.348 169.471 309.767 167.068L332.878 144.119Z" fill="#9FBEED"/>
</g>
<path d="M342.102 187.417C339.424 187.417 338.085 186.1 338.085 183.465V178.187H340.529V183.309C340.529 184.08 340.668 184.644 340.945 184.999C341.231 185.354 341.673 185.532 342.271 185.532C342.861 185.532 343.298 185.354 343.584 184.999C343.87 184.644 344.013 184.08 344.013 183.309V178.187H346.106V183.465C346.106 186.1 344.772 187.417 342.102 187.417ZM350.712 187.417C349.845 187.417 349.221 187.218 348.84 186.819C348.458 186.42 348.268 185.766 348.268 184.856V181.918H347.02V180.462H348.268V179.305L350.439 178.59V180.462H352.467V181.918H350.439V184.687C350.439 185.12 350.512 185.424 350.66 185.597C350.816 185.762 351.084 185.844 351.466 185.844C351.752 185.844 352.059 185.801 352.389 185.714V187.248C351.817 187.361 351.258 187.417 350.712 187.417ZM353.459 180.462H355.682V187.287H353.459V180.462ZM353.641 179.448C353.389 179.188 353.264 178.876 353.264 178.512C353.264 178.148 353.389 177.84 353.641 177.589C353.892 177.329 354.2 177.199 354.564 177.199C354.936 177.199 355.248 177.329 355.5 177.589C355.751 177.84 355.877 178.148 355.877 178.512C355.877 178.876 355.751 179.188 355.5 179.448C355.248 179.699 354.936 179.825 354.564 179.825C354.2 179.825 353.892 179.699 353.641 179.448ZM357.178 178.187H359.401V187.287H357.178V178.187ZM360.911 180.462H363.134V187.287H360.911V180.462ZM361.093 179.448C360.841 179.188 360.716 178.876 360.716 178.512C360.716 178.148 360.841 177.84 361.093 177.589C361.344 177.329 361.652 177.199 362.016 177.199C362.388 177.199 362.7 177.329 362.952 177.589C363.203 177.84 363.329 178.148 363.329 178.512C363.329 178.876 363.203 179.188 362.952 179.448C362.7 179.699 362.388 179.825 362.016 179.825C361.652 179.825 361.344 179.699 361.093 179.448ZM367.685 187.417C366.819 187.417 366.195 187.218 365.813 186.819C365.432 186.42 365.241 185.766 365.241 184.856V181.918H363.993V180.462H365.241V179.305L367.412 178.59V180.462H369.44V181.918H367.412V184.687C367.412 185.12 367.486 185.424 367.633 185.597C367.789 185.762 368.058 185.844 368.439 185.844C368.725 185.844 369.033 185.801 369.362 185.714V187.248C368.79 187.361 368.231 187.417 367.685 187.417ZM371.352 189.939C371.032 189.939 370.642 189.874 370.182 189.744V188.08C370.546 188.193 370.85 188.249 371.092 188.249C371.404 188.249 371.66 188.162 371.859 187.989C372.059 187.824 372.267 187.53 372.483 187.105L372.613 186.845L369.792 180.462H372.184L373.783 184.362L375.317 180.462H377.28L374.368 187.326C373.97 188.271 373.545 188.942 373.094 189.341C372.652 189.74 372.072 189.939 371.352 189.939ZM345.819 207.287V198.187H349.693C350.785 198.187 351.63 198.395 352.228 198.811C352.835 199.218 353.138 199.803 353.138 200.566C353.138 201.58 352.653 202.26 351.682 202.607C352.237 202.772 352.648 203.027 352.917 203.374C353.194 203.712 353.333 204.176 353.333 204.765C353.333 206.446 352.18 207.287 349.875 207.287H345.819ZM348.172 205.48H349.836C350.651 205.48 351.058 205.133 351.058 204.44C351.058 203.738 350.651 203.387 349.836 203.387H348.172V205.48ZM348.172 201.853H349.719C350.074 201.853 350.352 201.771 350.551 201.606C350.75 201.441 350.85 201.203 350.85 200.891C350.85 200.267 350.473 199.955 349.719 199.955H348.172V201.853ZM354.525 200.462H356.748V207.287H354.525V200.462ZM354.707 199.448C354.456 199.188 354.33 198.876 354.33 198.512C354.33 198.148 354.456 197.84 354.707 197.589C354.958 197.329 355.266 197.199 355.63 197.199C356.003 197.199 356.315 197.329 356.566 197.589C356.817 197.84 356.943 198.148 356.943 198.512C356.943 198.876 356.817 199.188 356.566 199.448C356.315 199.699 356.003 199.825 355.63 199.825C355.266 199.825 354.958 199.699 354.707 199.448ZM358.245 198.187H360.468V207.287H358.245V198.187ZM361.977 198.187H364.2V207.287H361.977V198.187ZM368.466 207.469C367.495 207.469 366.75 207.304 366.23 206.975C365.71 206.637 365.398 206.1 365.294 205.363L367.283 205.233C367.369 205.805 367.755 206.091 368.44 206.091C369.116 206.091 369.454 205.861 369.454 205.402C369.454 205.055 369.211 204.83 368.726 204.726L367.777 204.531C366.997 204.366 366.412 204.119 366.022 203.79C365.632 203.461 365.437 203.01 365.437 202.438C365.437 201.771 365.701 201.246 366.23 200.865C366.767 200.475 367.53 200.28 368.518 200.28C370.251 200.28 371.274 200.956 371.586 202.308L369.545 202.477C369.415 201.948 369.042 201.684 368.427 201.684C368.141 201.684 367.915 201.736 367.751 201.84C367.595 201.944 367.517 202.087 367.517 202.269C367.517 202.572 367.794 202.785 368.349 202.906L369.428 203.127C370.199 203.274 370.762 203.521 371.118 203.868C371.482 204.215 371.664 204.678 371.664 205.259C371.664 206.732 370.598 207.469 368.466 207.469Z" fill="#9FBEED"/>
<path d="M124.807 21.9736C126.949 19.8473 129.859 18.6492 132.896 18.6428L161.907 18.5818C164.943 18.5754 167.858 19.7613 170.01 21.8785L190.568 42.1064C192.719 44.2236 193.932 47.0988 193.938 50.0994L194 78.7669C194.006 81.7675 192.806 84.6477 190.664 86.774L170.193 107.088C168.051 109.214 165.141 110.412 162.104 110.419L133.093 110.48C130.057 110.486 127.142 109.3 124.99 107.183L104.432 86.9553C102.281 84.8381 101.068 81.9629 101.062 78.9623L101 50.2948C100.994 47.2942 102.194 44.4139 104.336 42.2877L124.807 21.9736Z" fill="#3F7CDB"/>
<path d="M124.807 17.9736C126.949 15.8473 129.859 14.6492 132.896 14.6428L161.907 14.5818C164.943 14.5754 167.858 15.7613 170.01 17.8785L190.568 38.1064C192.719 40.2236 193.932 43.0988 193.938 46.0994L194 74.7669C194.006 77.7675 192.806 80.6477 190.664 82.774L170.193 103.088C168.051 105.214 165.141 106.412 162.104 106.419L133.093 106.48C130.057 106.486 127.142 105.3 124.99 103.183L104.432 82.9553C102.281 80.8381 101.068 77.9629 101.062 74.9623L101 46.2948C100.994 43.2942 102.194 40.4139 104.336 38.2877L124.807 17.9736Z" fill="#D9E5F8"/>
<mask id="mask3_2217_13082" style="mask-type:alpha" maskUnits="userSpaceOnUse" x="101" y="14" width="92" height="97">
<g clip-path="url(#clip3_2217_13082)">
<path d="M39.9077 -8.60319L58.3705 -26.9101C63.8236 -32.2854 72.6266 -32.2854 78.0018 -26.8322L281.17 177.894C286.545 183.347 286.545 192.15 281.092 197.525L262.629 215.832C257.176 221.207 248.373 221.207 242.998 215.754L39.8298 11.0281C34.4546 5.57496 34.4546 -3.15006 39.9077 -8.60319Z" stroke="#2A5392" stroke-width="0.3529" stroke-miterlimit="10"/>
<path d="M41.4659 -2.52623L64.3691 -25.2736C69.9001 -30.7267 78.7809 -30.7267 84.2341 -25.1957L279.612 171.585C285.065 177.116 285.065 185.996 279.534 191.45L256.631 214.197C251.1 219.65 242.219 219.65 236.766 214.119L41.388 17.3388C35.9349 11.8856 36.0128 2.9269 41.4659 -2.52623Z" stroke="#2A5392" stroke-width="0.3529" stroke-miterlimit="10"/>
<path d="M43.0238 3.54877L70.4452 -23.639C75.9763 -29.17 85.0129 -29.17 90.5439 -23.5611L278.054 165.273C283.585 170.804 283.585 179.841 277.976 185.372L250.554 212.56C245.023 218.091 235.987 218.091 230.456 212.482L43.0238 23.6475C37.4927 18.1164 37.4927 9.07981 43.0238 3.54877Z" stroke="#2A5392" stroke-width="0.3529" stroke-miterlimit="10"/>
<path d="M44.6597 9.62597L76.5216 -22.0022C82.1305 -27.6111 91.245 -27.5332 96.854 -21.9243L276.496 158.964C282.105 164.573 282.027 173.687 276.418 179.296L244.556 210.925C238.947 216.533 229.833 216.456 224.224 210.847L44.5818 29.9584C38.9728 24.3494 38.9728 15.2349 44.6597 9.62597Z" stroke="#2A5392" stroke-width="0.3529" stroke-miterlimit="10"/>
<path d="M46.2179 15.7027L82.598 -20.4438C88.2849 -26.1306 97.4773 -26.0527 103.164 -20.3659L274.938 152.654C280.625 158.341 280.547 167.534 274.86 173.22L238.48 209.367C232.793 215.054 223.601 214.976 217.914 209.289L46.14 36.2688C40.4531 30.582 40.531 21.3895 46.2179 15.7027Z" stroke="#2A5392" stroke-width="0.3529" stroke-miterlimit="10"/>
<path d="M47.7757 21.7777L88.6742 -18.8093C94.439 -24.4961 103.709 -24.4961 109.474 -18.7314L273.302 146.343C278.989 152.108 278.989 161.378 273.224 167.143L232.325 207.73C226.561 213.416 217.29 213.416 211.526 207.652L47.6978 42.5775C42.011 36.8127 42.011 27.5424 47.7757 21.7777Z" stroke="#2A5392" stroke-width="0.3529" stroke-miterlimit="10"/>
<path d="M49.3339 27.8546L94.6728 -17.1727C100.515 -22.9374 109.942 -22.9374 115.706 -17.0948L271.666 140.033C277.431 145.876 277.431 155.302 271.588 161.067L226.249 206.094C220.407 211.859 210.98 211.859 205.216 206.016L49.256 48.8881C43.4913 43.0455 43.5692 33.6973 49.3339 27.8546Z" stroke="#2A5392" stroke-width="0.3529" stroke-miterlimit="10"/>
<path d="M50.9697 33.9316L100.827 -15.5362C106.748 -21.3788 116.252 -21.3788 122.094 -15.4583L270.186 133.724C276.028 139.644 276.028 149.148 270.108 154.991L220.251 204.459C214.33 210.301 204.826 210.302 198.983 204.381L50.8918 55.1988C45.0492 49.2782 45.0492 39.7742 50.9697 33.9316Z" stroke="#2A5392" stroke-width="0.3529" stroke-miterlimit="10"/>
<path d="M52.5277 40.0068L106.825 -13.9013C112.746 -19.8219 122.406 -19.744 128.326 -13.8234L268.55 127.413C274.47 133.333 274.392 142.993 268.472 148.914L214.174 202.9C208.254 208.82 198.594 208.742 192.673 202.822L52.4498 61.5856C46.5292 55.5872 46.5292 45.9273 52.5277 40.0068Z" stroke="#2A5392" stroke-width="0.3529" stroke-miterlimit="10"/>
<path d="M54.0858 46.0835L112.902 -12.3429C118.9 -18.3414 128.638 -18.2634 134.636 -12.265L266.992 121.103C272.99 127.102 272.912 136.839 266.914 142.838L208.098 201.264C202.099 207.263 192.362 207.185 186.363 201.186L54.0079 67.8182C48.0095 61.8197 48.0874 52.082 54.0858 46.0835Z" stroke="#2A5392" stroke-width="0.3529" stroke-miterlimit="10"/>
<path d="M55.6437 52.1603L118.978 -10.7066C125.054 -16.7829 134.87 -16.705 140.946 -10.6287L265.434 114.793C271.51 120.87 271.432 130.685 265.356 136.762L202.021 199.629C195.945 205.705 186.129 205.627 180.053 199.551L55.5658 74.1286C49.5674 68.0523 49.5674 58.2366 55.6437 52.1603Z" stroke="#2A5392" stroke-width="0.3529" stroke-miterlimit="10"/>
<path d="M57.2019 58.2374L124.977 -9.06986C131.131 -15.1462 141.024 -15.1462 147.179 -8.99196L263.798 108.484C269.874 114.638 269.874 124.532 263.72 130.686L195.945 197.993C189.791 204.07 179.897 204.07 173.743 197.916L57.124 80.4395C51.0476 74.2852 51.1255 64.3917 57.2019 58.2374Z" stroke="#2A5392" stroke-width="0.3529" stroke-miterlimit="10"/>
<path d="M58.8377 64.3124L131.131 -7.43526C137.363 -13.5895 147.412 -13.5895 153.566 -7.35736L262.318 102.173C268.472 108.405 268.472 118.454 262.24 124.608L189.947 196.356C183.714 202.51 173.665 202.51 167.511 196.278L58.7598 86.7482C52.6056 80.516 52.6056 70.4667 58.8377 64.3124Z" stroke="#2A5392" stroke-width="0.3529" stroke-miterlimit="10"/>
<path d="M60.3961 70.3891L137.207 -5.87684C143.517 -12.109 153.645 -12.109 159.877 -5.79893L260.76 95.8631C266.992 102.173 266.992 112.3 260.682 118.533L183.871 194.799C177.561 201.031 167.433 201.031 161.201 194.721L60.3182 93.0586C54.0861 86.7486 54.0861 76.6213 60.3961 70.3891Z" stroke="#2A5392" stroke-width="0.3529" stroke-miterlimit="10"/>
<path d="M61.9538 76.4665L143.205 -4.16194C149.516 -10.472 159.799 -10.3941 166.109 -4.08404L259.124 89.6319C265.434 95.942 265.356 106.225 259.046 112.535L177.794 193.164C171.484 199.474 161.201 199.396 154.891 193.086L61.8759 99.3697C55.5658 93.0596 55.6437 82.7766 61.9538 76.4665Z" stroke="#2A5392" stroke-width="0.3529" stroke-miterlimit="10"/>
<path d="M148.581 191.448L63.4338 105.678C57.0459 99.2902 57.1238 88.9293 63.5117 82.5413L149.282 -2.60547C155.67 -8.99343 166.031 -8.91553 172.419 -2.52757L257.565 83.2424C263.953 89.6304 263.875 99.9914 257.488 106.379L171.718 191.526C165.33 197.914 154.969 197.836 148.581 191.448Z" stroke="#2A5392" stroke-width="0.3529" stroke-miterlimit="10"/>
<path d="M142.504 193.008L61.8759 111.756C55.5658 105.446 55.6437 95.163 61.9538 88.8529L155.592 -4.16194C161.902 -10.472 172.185 -10.3941 178.495 -4.08404L259.201 77.1677C265.511 83.4777 265.434 93.7608 259.124 100.071L165.408 193.086C159.097 199.396 148.814 199.396 142.504 193.008Z" stroke="#2A5392" stroke-width="0.3529" stroke-miterlimit="10"/>
<path d="M136.428 194.565L60.162 117.754C53.9298 111.444 53.9298 101.316 60.2399 95.0843L161.902 -5.72083C168.212 -11.953 178.339 -11.953 184.571 -5.64293L260.837 71.1684C267.069 77.4784 267.069 87.6057 260.759 93.8378L159.097 194.643C152.787 200.875 142.66 200.875 136.428 194.565Z" stroke="#2A5392" stroke-width="0.3529" stroke-miterlimit="10"/>
<path d="M130.352 196.201L58.604 123.908C52.4498 117.676 52.4498 107.627 58.6819 101.472L168.212 -7.27877C174.444 -13.433 184.494 -13.433 190.648 -7.20087L262.395 65.0921C268.55 71.3243 268.55 81.3736 262.318 87.5279L152.787 196.279C146.555 202.433 136.506 202.355 130.352 196.201Z" stroke="#2A5392" stroke-width="0.3529" stroke-miterlimit="10"/>
<path d="M124.275 197.758L56.968 129.984C50.8916 123.829 50.8916 113.936 57.0459 107.782L174.522 -8.91556C180.676 -14.9919 190.57 -14.9919 196.724 -8.83766L264.031 58.937C270.108 65.0913 270.108 74.9848 263.953 81.1391L146.477 197.836C140.323 203.912 130.429 203.913 124.275 197.758Z" stroke="#2A5392" stroke-width="0.3529" stroke-miterlimit="10"/>
<path d="M118.199 199.318L55.3325 135.984C49.2561 129.907 49.334 120.092 55.4104 114.015L180.832 -10.472C186.909 -16.5483 196.724 -16.4704 202.801 -10.3941L265.668 52.9402C271.744 59.0165 271.666 68.8322 265.59 74.9085L140.168 199.396C134.091 205.472 124.276 205.394 118.199 199.318Z" stroke="#2A5392" stroke-width="0.3529" stroke-miterlimit="10"/>
<path d="M112.123 200.876L53.6964 142.06C47.698 136.061 47.7759 126.323 53.7743 120.325L187.142 -12.0304C193.141 -18.0289 202.879 -17.9509 208.877 -11.9525L267.304 46.8634C273.302 52.8619 273.224 62.5996 267.226 68.5981L133.857 200.953C127.859 206.952 118.121 206.874 112.123 200.876Z" stroke="#2A5392" stroke-width="0.3529" stroke-miterlimit="10"/>
<path d="M106.047 202.433L52.1385 148.135C46.2179 142.215 46.2958 132.555 52.2164 126.634L193.453 -13.5891C199.373 -19.5096 209.033 -19.4317 214.953 -13.5112L268.94 40.8644C274.86 46.7849 274.782 56.4447 268.862 62.3653L127.625 202.589C121.627 208.431 111.967 208.431 106.047 202.433Z" stroke="#2A5392" stroke-width="0.3529" stroke-miterlimit="10"/>
<path d="M99.9699 204.068L50.5022 154.211C44.6595 148.291 44.6595 138.787 50.5801 132.944L199.762 -15.1475C205.683 -20.9901 215.187 -20.9901 221.029 -15.0696L270.497 34.7876C276.34 40.7082 276.34 50.2122 270.419 56.0549L121.237 204.146C115.317 209.989 105.813 209.911 99.9699 204.068Z" stroke="#2A5392" stroke-width="0.3529" stroke-miterlimit="10"/>
<path d="M93.8939 205.628L48.8666 160.289C43.1019 154.446 43.1019 145.02 48.9445 139.255L206.073 -16.7821C211.915 -22.5468 221.341 -22.5468 227.106 -16.7042L272.134 28.6347C277.898 34.4774 277.898 43.9035 272.056 49.6683L114.927 205.706C109.085 211.471 99.7366 211.471 93.8939 205.628Z" stroke="#2A5392" stroke-width="0.3529" stroke-miterlimit="10"/>
<path d="M87.8174 207.186L47.2305 166.287C41.5437 160.522 41.5437 151.252 47.3084 145.487L212.383 -18.3405C218.147 -24.0273 227.418 -24.0273 233.182 -18.2626L273.769 22.6359C279.456 28.4006 279.456 37.671 273.691 43.4357L108.617 207.263C102.853 213.028 93.5822 212.95 87.8174 207.186Z" stroke="#2A5392" stroke-width="0.3529" stroke-miterlimit="10"/>
<path d="M81.741 208.743L45.5945 172.363C39.9077 166.676 39.9856 157.484 45.6724 151.797L218.693 -19.8989C224.379 -25.5857 233.572 -25.5078 239.259 -19.821L275.405 16.5592C281.092 22.2461 281.014 31.4385 275.327 37.1253L102.307 208.821C96.6203 214.508 87.4279 214.43 81.741 208.743Z" stroke="#2A5392" stroke-width="0.3529" stroke-miterlimit="10"/>
<path d="M75.6648 210.379L44.0366 178.517C38.4277 172.908 38.5056 163.793 44.1145 158.185L225.003 -21.4573C230.612 -27.0662 239.726 -26.9883 245.335 -21.3794L276.963 10.4825C282.572 16.0914 282.494 25.206 276.885 30.8149L95.9972 210.457C90.3883 215.988 81.2737 215.988 75.6648 210.379Z" stroke="#2A5392" stroke-width="0.3529" stroke-miterlimit="10"/>
<path d="M69.5886 211.936L42.4008 184.515C36.8698 178.984 36.8698 169.947 42.4787 164.416L231.313 -23.016C236.844 -28.547 245.881 -28.547 251.412 -22.938L278.599 4.48343C284.13 10.0145 284.13 19.0511 278.522 24.5821L89.6873 212.014C84.1562 217.545 75.1196 217.467 69.5886 211.936Z" stroke="#2A5392" stroke-width="0.3529" stroke-miterlimit="10"/>
<path d="M63.5121 213.496L40.7647 190.592C35.3116 185.061 35.3116 176.181 40.8426 170.727L237.623 -24.6505C243.154 -30.1037 252.035 -30.1037 257.488 -24.5726L280.235 -1.66948C285.688 3.86155 285.688 12.7424 280.157 18.1955L83.3771 213.574C77.924 219.027 68.9652 219.027 63.5121 213.496Z" stroke="#2A5392" stroke-width="0.3529" stroke-miterlimit="10"/>
<path d="M57.4356 215.053L39.1287 196.668C33.7534 191.215 33.7534 182.412 39.2066 177.037L243.933 -26.209C249.386 -31.5842 258.189 -31.5842 263.564 -26.1311L281.871 -7.66832C287.246 -2.21519 287.246 6.58773 281.793 11.963L77.0669 215.131C71.6138 220.506 62.8888 220.506 57.4356 215.053Z" stroke="#2A5392" stroke-width="0.3529" stroke-miterlimit="10"/>
</g>
</mask>
<g mask="url(#mask3_2217_13082)">
<path d="M124.807 17.3546C126.949 15.227 129.859 14.0281 132.896 14.0218L161.907 13.9607C164.943 13.9543 167.858 15.1409 170.01 17.2595L190.568 37.4999C192.719 39.6184 193.932 42.4954 193.938 45.4978L194 74.1831C194.006 77.1856 192.806 80.0676 190.664 82.1952L170.193 102.522C168.051 104.649 165.141 105.848 162.104 105.855L133.093 105.916C130.057 105.922 127.142 104.736 124.99 102.617L104.432 82.3766C102.281 80.258 101.068 77.3811 101.062 74.3786L101 45.6933C100.994 42.6909 102.194 39.8089 104.336 37.6813L124.807 17.3546Z" fill="#9FBEED"/>
</g>
<path d="M128.667 55.9607H131.397L134.452 46.8607H132.242L130.162 53.1657L128.095 46.8607H125.495L128.667 55.9607ZM137.881 56.1427C140.26 56.1427 141.651 54.7387 141.651 52.5547C141.651 50.3707 140.26 48.9537 137.881 48.9537C135.515 48.9537 134.111 50.3707 134.111 52.5547C134.111 54.7257 135.515 56.1427 137.881 56.1427ZM136.438 52.5547C136.438 51.1117 136.971 50.5007 137.881 50.5007C138.804 50.5007 139.324 51.1117 139.324 52.5547C139.324 53.9977 138.804 54.5957 137.881 54.5957C136.971 54.5957 136.438 53.9977 136.438 52.5547ZM145.718 56.0907C146.199 56.0907 146.797 56.0387 147.395 55.9217V54.3877C147.148 54.4527 146.836 54.5177 146.472 54.5177C145.705 54.5177 145.445 54.2187 145.445 53.3607V50.5917H147.473V49.1357H145.445V47.2637L143.274 47.9787V49.1357H142.026V50.5917H143.274V53.5297C143.274 55.3497 143.989 56.0907 145.718 56.0907ZM151.782 56.1427C153.732 56.1427 154.772 55.1807 155.175 53.9067L153.277 53.5687C153.043 54.2707 152.549 54.5957 151.821 54.5957C150.664 54.5957 150.261 53.8027 150.248 52.9577H155.331C155.461 50.7347 154.304 48.9537 151.704 48.9537C149.494 48.9537 148.012 50.3057 148.012 52.5287C148.012 54.7387 149.429 56.1427 151.782 56.1427ZM150.248 51.7617C150.3 51.0727 150.768 50.4487 151.704 50.4487C152.653 50.4487 153.069 51.1117 153.095 51.7617H150.248ZM156.463 55.9607H158.686V53.1267C158.686 51.4757 159.427 50.9167 160.558 50.9167C160.831 50.9167 161.078 50.9427 161.338 50.9947V49.0707C161.156 48.9927 160.935 48.9537 160.649 48.9537C159.882 48.9537 159.063 49.2657 158.686 50.4617V49.1357H156.463V55.9607ZM164.945 56.1427C167.116 56.1427 168.143 55.3367 168.143 53.9327C168.143 52.7757 167.454 52.0997 165.907 51.8007L164.828 51.5797C164.23 51.4497 163.996 51.2547 163.996 50.9427C163.996 50.5787 164.334 50.3577 164.906 50.3577C165.478 50.3577 165.881 50.5657 166.024 51.1507L168.065 50.9817C167.727 49.5257 166.622 48.9537 164.997 48.9537C162.982 48.9537 161.916 49.7987 161.916 51.1117C161.916 52.2817 162.748 52.8927 164.256 53.2047L165.205 53.3997C165.738 53.5167 165.933 53.7377 165.933 54.0757C165.933 54.5437 165.556 54.7647 164.919 54.7647C164.217 54.7647 163.853 54.5047 163.762 53.9067L161.773 54.0367C161.981 55.5447 163.047 56.1427 164.945 56.1427ZM136.211 76.1427C138.954 76.1427 140.124 74.2967 140.371 72.5417L138.083 72.4377C137.888 73.6337 137.173 74.1927 136.263 74.1927C135.132 74.1927 134.248 73.4387 134.248 71.4887C134.248 69.3567 135.08 68.6157 136.224 68.6157C137.095 68.6157 137.823 69.1097 138.044 70.2407L140.384 70.0197C140.111 68.4207 138.85 66.6787 136.237 66.6787C133.416 66.6787 131.739 68.4207 131.739 71.4887C131.739 74.2707 133.429 76.1427 136.211 76.1427ZM143.484 76.1427C144.524 76.1427 145.499 75.7007 145.837 74.6477V75.9607H147.982V71.9047C147.969 69.9157 146.981 68.9537 144.706 68.9537C142.678 68.9537 141.599 69.7467 141.326 71.2547L143.341 71.3977C143.471 70.6957 143.9 70.4097 144.628 70.4097C145.408 70.4097 145.837 70.7737 145.837 71.6187V71.9957C145.538 71.8657 145.07 71.7747 144.394 71.7747C142.184 71.7747 141.17 72.6847 141.17 74.0627C141.17 75.3757 142.119 76.1427 143.484 76.1427ZM143.393 73.8287C143.393 73.2567 143.874 72.8277 144.979 72.8277H145.837C145.837 74.0107 145.265 74.6087 144.368 74.6087C143.744 74.6087 143.393 74.3227 143.393 73.8287ZM149.417 75.9607H151.64V73.1267C151.64 71.4757 152.381 70.9167 153.512 70.9167C153.785 70.9167 154.032 70.9427 154.292 70.9947V69.0707C154.11 68.9927 153.889 68.9537 153.603 68.9537C152.836 68.9537 152.017 69.2657 151.64 70.4617V69.1357H149.417V75.9607ZM157.666 76.1427C158.693 76.1427 159.473 75.6747 159.798 74.8037V75.9607H161.982V66.8607H159.798V70.2407C159.447 69.4737 158.732 68.9537 157.666 68.9537C156.015 68.9537 154.767 70.2017 154.767 72.5287C154.767 74.7257 155.885 76.1427 157.666 76.1427ZM157.016 72.5287C157.016 71.0727 157.627 70.5397 158.407 70.5397C159.2 70.5397 159.811 71.0727 159.811 72.5287C159.811 73.9847 159.2 74.5177 158.407 74.5177C157.627 74.5177 157.016 73.9847 157.016 72.5287Z" fill="#9FBEED"/>
<path d="M267.486 8.48589C270.32 5.67374 274.168 4.08915 278.184 4.08071L316.554 4.00003C320.57 3.99159 324.425 5.55999 327.271 8.3602L354.46 35.1132C357.306 37.9134 358.91 41.716 358.918 45.6846L359 83.5997C359.009 87.5682 357.421 91.3775 354.588 94.1897L327.514 121.057C324.68 123.869 320.832 125.453 316.816 125.462L278.446 125.543C274.43 125.551 270.575 123.983 267.729 121.182L240.54 94.4295C237.694 91.6293 236.09 87.8266 236.082 83.8581L236 45.943C235.991 41.9745 237.579 38.1651 240.412 35.353L267.486 8.48589Z" fill="#3F7CDB"/>
<path d="M267.486 4.48589C270.32 1.67374 274.168 0.0891494 278.184 0.0807056L316.554 3.39185e-05C320.57 -0.00840991 324.425 1.55999 327.271 4.3602L354.46 31.1132C357.306 33.9134 358.91 37.716 358.918 41.6846L359 79.5997C359.009 83.5682 357.421 87.3775 354.588 90.1897L327.514 117.057C324.68 119.869 320.832 121.453 316.816 121.462L278.446 121.543C274.43 121.551 270.575 119.983 267.729 117.182L240.54 90.4295C237.694 87.6293 236.09 83.8266 236.082 79.8581L236 41.943C235.991 37.9745 237.579 34.1651 240.412 31.353L267.486 4.48589Z" fill="#D9E5F8"/>
<mask id="mask4_2217_13082" style="mask-type:alpha" maskUnits="userSpaceOnUse" x="236" y="0" width="123" height="126">
<g clip-path="url(#clip4_2217_13082)">
<path d="M186.908 -15.0658L205.371 -33.3728C210.824 -38.748 219.627 -38.748 225.002 -33.2949L428.17 171.431C433.545 176.885 433.545 185.687 428.092 191.063L409.629 209.37C404.176 214.745 395.373 214.745 389.998 209.292L186.83 4.56545C181.455 -0.887689 181.455 -9.61271 186.908 -15.0658Z" stroke="#2A5392" stroke-width="0.3529" stroke-miterlimit="10"/>
<path d="M188.466 -8.98888L211.369 -31.7362C216.9 -37.1894 225.781 -37.1894 231.234 -31.6583L426.612 165.122C432.065 170.653 432.065 179.534 426.534 184.987L403.631 207.734C398.1 213.187 389.219 213.187 383.766 207.656L188.388 10.8761C182.935 5.42298 183.013 -3.53575 188.466 -8.98888Z" stroke="#2A5392" stroke-width="0.3529" stroke-miterlimit="10"/>
<path d="M190.024 -2.91387L217.445 -30.1016C222.976 -35.6327 232.013 -35.6327 237.544 -30.0237L425.054 158.811C430.585 164.342 430.585 173.378 424.976 178.909L397.554 206.097C392.023 211.628 382.987 211.628 377.456 206.019L190.024 17.1848C184.493 11.6538 184.493 2.61716 190.024 -2.91387Z" stroke="#2A5392" stroke-width="0.3529" stroke-miterlimit="10"/>
<path d="M191.66 3.16332L223.522 -28.4649C229.131 -34.0738 238.245 -33.9959 243.854 -28.387L423.496 152.501C429.105 158.11 429.027 167.225 423.418 172.834L391.556 204.462C385.947 210.071 376.833 209.993 371.224 204.384L191.582 23.4957C185.973 17.8868 185.973 8.77226 191.66 3.16332Z" stroke="#2A5392" stroke-width="0.3529" stroke-miterlimit="10"/>
<path d="M193.218 9.24006L229.598 -26.9064C235.285 -32.5933 244.477 -32.5154 250.164 -26.8285L421.938 146.192C427.625 151.878 427.547 161.071 421.86 166.758L385.48 202.904C379.793 208.591 370.601 208.513 364.914 202.826L193.14 29.8062C187.453 24.1193 187.531 14.9269 193.218 9.24006Z" stroke="#2A5392" stroke-width="0.3529" stroke-miterlimit="10"/>
<path d="M194.776 15.315L235.674 -25.2719C241.439 -30.9587 250.709 -30.9587 256.474 -25.194L420.302 139.88C425.989 145.645 425.989 154.915 420.224 160.68L379.325 201.267C373.561 206.954 364.29 206.954 358.526 201.189L194.698 36.1148C189.011 30.3501 189.011 21.0797 194.776 15.315Z" stroke="#2A5392" stroke-width="0.3529" stroke-miterlimit="10"/>
<path d="M196.334 21.392L241.673 -23.6354C247.515 -29.4001 256.942 -29.4001 262.706 -23.5574L418.666 133.571C424.431 139.413 424.431 148.84 418.588 154.604L373.249 199.632C367.407 205.396 357.98 205.396 352.216 199.554L196.256 42.4255C190.491 36.5828 190.569 27.2346 196.334 21.392Z" stroke="#2A5392" stroke-width="0.3529" stroke-miterlimit="10"/>
<path d="M197.97 27.4689L247.827 -21.9988C253.748 -27.8414 263.252 -27.8414 269.094 -21.9209L417.186 127.261C423.028 133.182 423.028 142.686 417.108 148.528L367.251 197.996C361.33 203.839 351.826 203.839 345.983 197.918L197.892 48.7361C192.049 42.8156 192.049 33.3116 197.97 27.4689Z" stroke="#2A5392" stroke-width="0.3529" stroke-miterlimit="10"/>
<path d="M199.528 33.5442L253.825 -20.364C259.746 -26.2845 269.406 -26.2066 275.326 -20.2861L415.55 120.95C421.47 126.871 421.392 136.531 415.472 142.451L361.174 196.437C355.254 202.358 345.594 202.28 339.673 196.359L199.45 55.123C193.529 49.1245 193.529 39.4647 199.528 33.5442Z" stroke="#2A5392" stroke-width="0.3529" stroke-miterlimit="10"/>
<path d="M201.086 39.6209L259.902 -18.8056C265.9 -24.804 275.638 -24.7261 281.636 -18.7276L413.992 114.64C419.99 120.639 419.912 130.377 413.914 136.375L355.098 194.802C349.099 200.8 339.362 200.722 333.363 194.724L201.008 61.3555C195.009 55.3571 195.087 45.6193 201.086 39.6209Z" stroke="#2A5392" stroke-width="0.3529" stroke-miterlimit="10"/>
<path d="M202.644 45.6976L265.978 -17.1692C272.054 -23.2456 281.87 -23.1677 287.946 -17.0913L412.434 108.331C418.51 114.407 418.432 124.223 412.356 130.299L349.021 193.166C342.945 199.242 333.129 199.164 327.053 193.088L202.566 67.666C196.567 61.5896 196.567 51.774 202.644 45.6976Z" stroke="#2A5392" stroke-width="0.3529" stroke-miterlimit="10"/>
<path d="M204.202 51.7748L271.977 -15.5325C278.131 -21.6089 288.024 -21.6089 294.179 -15.4546L410.798 102.021C416.874 108.176 416.874 118.069 410.72 124.224L342.945 191.531C336.791 197.607 326.897 197.607 320.743 191.453L204.124 73.9768C198.048 67.8226 198.126 57.929 204.202 51.7748Z" stroke="#2A5392" stroke-width="0.3529" stroke-miterlimit="10"/>
<path d="M205.838 57.8498L278.131 -13.8979C284.363 -20.0522 294.412 -20.0522 300.566 -13.82L409.318 95.7101C415.472 101.942 415.472 111.992 409.24 118.146L336.947 189.893C330.714 196.048 320.665 196.048 314.511 189.816L205.76 80.2855C199.606 74.0534 199.606 64.004 205.838 57.8498Z" stroke="#2A5392" stroke-width="0.3529" stroke-miterlimit="10"/>
<path d="M207.396 63.9265L284.207 -12.3395C290.517 -18.5716 300.645 -18.5716 306.877 -12.2616L407.76 89.4004C413.992 95.7105 413.992 105.838 407.682 112.07L330.871 188.336C324.561 194.568 314.433 194.568 308.201 188.258L207.318 86.596C201.086 80.2859 201.086 70.1587 207.396 63.9265Z" stroke="#2A5392" stroke-width="0.3529" stroke-miterlimit="10"/>
<path d="M208.954 70.0039L290.205 -10.6246C296.516 -16.9346 306.799 -16.8567 313.109 -10.5467L406.124 83.1693C412.434 89.4794 412.356 99.7624 406.046 106.072L324.794 186.701C318.484 193.011 308.201 192.933 301.891 186.623L208.876 92.907C202.566 86.597 202.644 76.3139 208.954 70.0039Z" stroke="#2A5392" stroke-width="0.3529" stroke-miterlimit="10"/>
<path d="M295.581 184.986L210.434 99.2156C204.046 92.8276 204.124 82.4666 210.512 76.0787L296.282 -9.06812C302.67 -15.4561 313.031 -15.3782 319.419 -8.99022L404.565 76.7798C410.953 83.1677 410.875 93.5287 404.488 99.9167L318.718 185.063C312.33 191.451 301.969 191.374 295.581 184.986Z" stroke="#2A5392" stroke-width="0.3529" stroke-miterlimit="10"/>
<path d="M289.504 186.545L208.876 105.293C202.566 98.9834 202.644 88.7004 208.954 82.3903L302.592 -10.6246C308.902 -16.9346 319.185 -16.8567 325.495 -10.5467L406.201 70.705C412.511 77.0151 412.434 87.2981 406.124 93.6082L312.408 186.623C306.097 192.933 295.814 192.933 289.504 186.545Z" stroke="#2A5392" stroke-width="0.3529" stroke-miterlimit="10"/>
<path d="M283.428 188.102L207.162 111.291C200.93 104.981 200.93 94.8538 207.24 88.6216L308.902 -12.1835C315.212 -18.4156 325.339 -18.4156 331.571 -12.1056L407.837 64.7057C414.069 71.0158 414.069 81.143 407.759 87.3752L306.097 188.18C299.787 194.412 289.66 194.412 283.428 188.102Z" stroke="#2A5392" stroke-width="0.3529" stroke-miterlimit="10"/>
<path d="M277.352 189.738L205.604 117.445C199.45 111.213 199.45 101.164 205.682 95.0097L315.212 -13.7414C321.444 -19.8957 331.494 -19.8957 337.648 -13.6635L409.395 58.6295C415.55 64.8616 415.55 74.911 409.318 81.0652L299.787 189.816C293.555 195.971 283.506 195.893 277.352 189.738Z" stroke="#2A5392" stroke-width="0.3529" stroke-miterlimit="10"/>
<path d="M271.275 191.296L203.968 123.521C197.892 117.367 197.892 107.473 204.046 101.319L321.522 -15.3782C327.676 -21.4546 337.57 -21.4546 343.724 -15.3003L411.031 52.4744C417.108 58.6286 417.108 68.5222 410.953 74.6764L293.477 191.373C287.323 197.45 277.429 197.45 271.275 191.296Z" stroke="#2A5392" stroke-width="0.3529" stroke-miterlimit="10"/>
<path d="M265.199 192.855L202.332 129.521C196.256 123.445 196.334 113.629 202.41 107.553L327.832 -16.9346C333.909 -23.011 343.724 -22.9331 349.801 -16.8567L412.668 46.4775C418.744 52.5539 418.666 62.3695 412.59 68.4459L287.168 192.933C281.091 199.009 271.276 198.932 265.199 192.855Z" stroke="#2A5392" stroke-width="0.3529" stroke-miterlimit="10"/>
<path d="M259.123 194.413L200.696 135.597C194.698 129.599 194.776 119.861 200.774 113.862L334.142 -18.4931C340.141 -24.4915 349.879 -24.4136 355.877 -18.4151L414.304 40.4008C420.302 46.3993 420.224 56.137 414.226 62.1354L280.857 194.491C274.859 200.489 265.121 200.411 259.123 194.413Z" stroke="#2A5392" stroke-width="0.3529" stroke-miterlimit="10"/>
<path d="M253.047 195.97L199.138 141.673C193.218 135.752 193.296 126.092 199.216 120.172L340.453 -20.0517C346.373 -25.9723 356.033 -25.8944 361.953 -19.9738L415.94 34.4017C421.86 40.3223 421.782 49.9821 415.862 55.9026L274.625 196.126C268.627 201.969 258.967 201.969 253.047 195.97Z" stroke="#2A5392" stroke-width="0.3529" stroke-miterlimit="10"/>
<path d="M246.97 197.606L197.502 147.749C191.66 141.828 191.66 132.324 197.58 126.481L346.762 -21.6101C352.683 -27.4528 362.187 -27.4528 368.029 -21.5322L417.497 28.325C423.34 34.2455 423.34 43.7496 417.419 49.5922L268.237 197.684C262.317 203.526 252.813 203.448 246.97 197.606Z" stroke="#2A5392" stroke-width="0.3529" stroke-miterlimit="10"/>
<path d="M240.894 199.165L195.867 153.826C190.102 147.984 190.102 138.558 195.945 132.793L353.073 -23.2447C358.915 -29.0095 368.341 -29.0095 374.106 -23.1668L419.134 22.1721C424.898 28.0147 424.898 37.4409 419.056 43.2056L261.927 199.243C256.085 205.008 246.737 205.008 240.894 199.165Z" stroke="#2A5392" stroke-width="0.3529" stroke-miterlimit="10"/>
<path d="M234.817 200.723L194.231 159.824C188.544 154.06 188.544 144.789 194.308 139.025L359.383 -24.8032C365.147 -30.49 374.418 -30.49 380.182 -24.7252L420.769 16.1733C426.456 21.938 426.456 31.2083 420.691 36.9731L255.617 200.801C249.853 206.566 240.582 206.488 234.817 200.723Z" stroke="#2A5392" stroke-width="0.3529" stroke-miterlimit="10"/>
<path d="M228.741 202.281L192.595 165.9C186.908 160.214 186.986 151.021 192.672 145.334L365.693 -26.3615C371.379 -32.0484 380.572 -31.9704 386.259 -26.2836L422.405 10.0966C428.092 15.7834 428.014 24.9759 422.327 30.6627L249.307 202.359C243.62 208.045 234.428 207.967 228.741 202.281Z" stroke="#2A5392" stroke-width="0.3529" stroke-miterlimit="10"/>
<path d="M222.665 203.916L191.037 172.054C185.428 166.445 185.506 157.331 191.115 151.722L372.003 -27.9199C377.612 -33.5289 386.726 -33.451 392.335 -27.842L423.963 4.01985C429.572 9.62879 429.494 18.7433 423.885 24.3523L242.997 203.994C237.388 209.525 228.274 209.525 222.665 203.916Z" stroke="#2A5392" stroke-width="0.3529" stroke-miterlimit="10"/>
<path d="M216.589 205.474L189.401 178.052C183.87 172.521 183.87 163.484 189.479 157.953L378.313 -29.4786C383.844 -35.0096 392.881 -35.0096 398.412 -29.4007L425.599 -1.97922C431.13 3.55182 431.13 12.5884 425.522 18.1195L236.687 205.552C231.156 211.083 222.12 211.005 216.589 205.474Z" stroke="#2A5392" stroke-width="0.3529" stroke-miterlimit="10"/>
<path d="M210.512 207.033L187.765 184.13C182.312 178.599 182.312 169.718 187.843 164.265L384.623 -31.1132C390.154 -36.5663 399.035 -36.5663 404.488 -31.0353L427.235 -8.13213C432.688 -2.60109 432.688 6.27973 427.157 11.7329L230.377 207.111C224.924 212.564 215.965 212.564 210.512 207.033Z" stroke="#2A5392" stroke-width="0.3529" stroke-miterlimit="10"/>
<path d="M204.436 208.591L186.129 190.206C180.753 184.753 180.753 175.95 186.207 170.574L390.933 -32.6716C396.386 -38.0469 405.189 -38.0469 410.564 -32.5937L428.871 -14.131C434.246 -8.67783 434.246 0.125085 428.793 5.50032L224.067 208.668C218.614 214.044 209.889 214.044 204.436 208.591Z" stroke="#2A5392" stroke-width="0.3529" stroke-miterlimit="10"/>
</g>
</mask>
<g mask="url(#mask4_2217_13082)">
<path d="M267.486 4.98394C270.32 2.17179 274.168 0.587196 278.184 0.578752L316.554 0.498081C320.57 0.489637 324.425 2.05803 327.271 4.85824L354.46 31.6112C357.306 34.4114 358.91 38.2141 358.918 42.1826L359 80.0977C359.009 84.0662 357.421 87.8756 354.588 90.6877L327.514 117.555C324.68 120.367 320.832 121.952 316.816 121.96L278.446 122.041C274.43 122.049 270.575 120.481 267.729 117.681L240.54 90.9275C237.694 88.1273 236.09 84.3247 236.082 80.3561L236 42.441C235.991 38.4725 237.579 34.6632 240.412 31.851L267.486 4.98394Z" fill="#9FBEED"/>
</g>
<path d="M255.29 55.498H257.734V46.398H255.29V55.498ZM259.324 55.498H261.547V51.663C261.547 50.532 262.028 50.051 262.86 50.051C263.653 50.051 264.056 50.467 264.056 51.663V55.498H266.279V51.182C266.279 49.427 265.369 48.491 263.887 48.491C262.743 48.491 261.898 49.037 261.547 49.83V48.673H259.324V55.498ZM270.694 55.628C271.175 55.628 271.773 55.576 272.371 55.459V53.925C272.124 53.99 271.812 54.055 271.448 54.055C270.681 54.055 270.421 53.756 270.421 52.898V50.129H272.449V48.673H270.421V46.801L268.25 47.516V48.673H267.002V50.129H268.25V53.067C268.25 54.887 268.965 55.628 270.694 55.628ZM276.758 55.68C278.708 55.68 279.748 54.718 280.151 53.444L278.253 53.106C278.019 53.808 277.525 54.133 276.797 54.133C275.64 54.133 275.237 53.34 275.224 52.495H280.307C280.437 50.272 279.28 48.491 276.68 48.491C274.47 48.491 272.988 49.843 272.988 52.066C272.988 54.276 274.405 55.68 276.758 55.68ZM275.224 51.299C275.276 50.61 275.744 49.986 276.68 49.986C277.629 49.986 278.045 50.649 278.071 51.299H275.224ZM281.439 55.498H283.662V52.664C283.662 51.013 284.403 50.454 285.534 50.454C285.807 50.454 286.054 50.48 286.314 50.532V48.608C286.132 48.53 285.911 48.491 285.625 48.491C284.858 48.491 284.039 48.803 283.662 49.999V48.673H281.439V55.498ZM287.241 55.498H289.464V51.663C289.464 50.532 289.945 50.051 290.777 50.051C291.57 50.051 291.973 50.467 291.973 51.663V55.498H294.196V51.182C294.196 49.427 293.286 48.491 291.804 48.491C290.66 48.491 289.815 49.037 289.464 49.83V48.673H287.241V55.498ZM297.621 55.68C298.661 55.68 299.636 55.238 299.974 54.185V55.498H302.119V51.442C302.106 49.453 301.118 48.491 298.843 48.491C296.815 48.491 295.736 49.284 295.463 50.792L297.478 50.935C297.608 50.233 298.037 49.947 298.765 49.947C299.545 49.947 299.974 50.311 299.974 51.156V51.533C299.675 51.403 299.207 51.312 298.531 51.312C296.321 51.312 295.307 52.222 295.307 53.6C295.307 54.913 296.256 55.68 297.621 55.68ZM297.53 53.366C297.53 52.794 298.011 52.365 299.116 52.365H299.974C299.974 53.548 299.402 54.146 298.505 54.146C297.881 54.146 297.53 53.86 297.53 53.366ZM306.52 55.628C307.001 55.628 307.599 55.576 308.197 55.459V53.925C307.95 53.99 307.638 54.055 307.274 54.055C306.507 54.055 306.247 53.756 306.247 52.898V50.129H308.275V48.673H306.247V46.801L304.076 47.516V48.673H302.828V50.129H304.076V53.067C304.076 54.887 304.791 55.628 306.52 55.628ZM309.267 48.673V55.498H311.49V48.673H309.267ZM309.072 46.723C309.072 47.451 309.644 48.036 310.372 48.036C311.113 48.036 311.685 47.451 311.685 46.723C311.685 45.995 311.113 45.41 310.372 45.41C309.644 45.41 309.072 45.995 309.072 46.723ZM316.393 55.68C318.772 55.68 320.163 54.276 320.163 52.092C320.163 49.908 318.772 48.491 316.393 48.491C314.027 48.491 312.623 49.908 312.623 52.092C312.623 54.263 314.027 55.68 316.393 55.68ZM314.95 52.092C314.95 50.649 315.483 50.038 316.393 50.038C317.316 50.038 317.836 50.649 317.836 52.092C317.836 53.535 317.316 54.133 316.393 54.133C315.483 54.133 314.95 53.535 314.95 52.092ZM321.302 55.498H323.525V51.663C323.525 50.532 324.006 50.051 324.838 50.051C325.631 50.051 326.034 50.467 326.034 51.663V55.498H328.257V51.182C328.257 49.427 327.347 48.491 325.865 48.491C324.721 48.491 323.876 49.037 323.525 49.83V48.673H321.302V55.498ZM331.683 55.68C332.723 55.68 333.698 55.238 334.036 54.185V55.498H336.181V51.442C336.168 49.453 335.18 48.491 332.905 48.491C330.877 48.491 329.798 49.284 329.525 50.792L331.54 50.935C331.67 50.233 332.099 49.947 332.827 49.947C333.607 49.947 334.036 50.311 334.036 51.156V51.533C333.737 51.403 333.269 51.312 332.593 51.312C330.383 51.312 329.369 52.222 329.369 53.6C329.369 54.913 330.318 55.68 331.683 55.68ZM331.592 53.366C331.592 52.794 332.073 52.365 333.178 52.365H334.036C334.036 53.548 333.464 54.146 332.567 54.146C331.943 54.146 331.592 53.86 331.592 53.366ZM337.616 46.398V55.498H339.839V46.398H337.616ZM265.16 75.498H267.578V72.222H269.06C271.556 72.222 272.869 71.117 272.869 69.31C272.869 67.503 271.556 66.398 269.242 66.398H265.16V75.498ZM267.578 70.636V68.153H268.761C269.853 68.153 270.373 68.595 270.373 69.401C270.373 70.194 269.853 70.636 268.761 70.636H267.578ZM275.652 75.68C276.692 75.68 277.667 75.238 278.005 74.185V75.498H280.15V71.442C280.137 69.453 279.149 68.491 276.874 68.491C274.846 68.491 273.767 69.284 273.494 70.792L275.509 70.935C275.639 70.233 276.068 69.947 276.796 69.947C277.576 69.947 278.005 70.311 278.005 71.156V71.533C277.706 71.403 277.238 71.312 276.562 71.312C274.352 71.312 273.338 72.222 273.338 73.6C273.338 74.913 274.287 75.68 275.652 75.68ZM275.561 73.366C275.561 72.794 276.042 72.365 277.147 72.365H278.005C278.005 73.548 277.433 74.146 276.536 74.146C275.912 74.146 275.561 73.86 275.561 73.366ZM284.341 75.68C286.512 75.68 287.539 74.874 287.539 73.47C287.539 72.313 286.85 71.637 285.303 71.338L284.224 71.117C283.626 70.987 283.392 70.792 283.392 70.48C283.392 70.116 283.73 69.895 284.302 69.895C284.874 69.895 285.277 70.103 285.42 70.688L287.461 70.519C287.123 69.063 286.018 68.491 284.393 68.491C282.378 68.491 281.312 69.336 281.312 70.649C281.312 71.819 282.144 72.43 283.652 72.742L284.601 72.937C285.134 73.054 285.329 73.275 285.329 73.613C285.329 74.081 284.952 74.302 284.315 74.302C283.613 74.302 283.249 74.042 283.158 73.444L281.169 73.574C281.377 75.082 282.443 75.68 284.341 75.68ZM291.45 75.68C293.621 75.68 294.648 74.874 294.648 73.47C294.648 72.313 293.959 71.637 292.412 71.338L291.333 71.117C290.735 70.987 290.501 70.792 290.501 70.48C290.501 70.116 290.839 69.895 291.411 69.895C291.983 69.895 292.386 70.103 292.529 70.688L294.57 70.519C294.232 69.063 293.127 68.491 291.502 68.491C289.487 68.491 288.421 69.336 288.421 70.649C288.421 71.819 289.253 72.43 290.761 72.742L291.71 72.937C292.243 73.054 292.438 73.275 292.438 73.613C292.438 74.081 292.061 74.302 291.424 74.302C290.722 74.302 290.358 74.042 290.267 73.444L288.278 73.574C288.486 75.082 289.552 75.68 291.45 75.68ZM295.804 77.968H297.975V74.341C298.456 75.225 299.249 75.68 300.276 75.68C302.018 75.68 303.032 74.341 303.032 72.079C303.032 69.817 302.005 68.491 300.276 68.491C299.236 68.491 298.391 68.972 297.949 69.83V68.673H295.804V77.968ZM297.975 72.079C297.975 70.727 298.56 70.077 299.405 70.077C300.237 70.077 300.796 70.727 300.796 72.079C300.796 73.431 300.237 74.081 299.405 74.081C298.56 74.081 297.975 73.431 297.975 72.079ZM307.627 75.68C310.006 75.68 311.397 74.276 311.397 72.092C311.397 69.908 310.006 68.491 307.627 68.491C305.261 68.491 303.857 69.908 303.857 72.092C303.857 74.263 305.261 75.68 307.627 75.68ZM306.184 72.092C306.184 70.649 306.717 70.038 307.627 70.038C308.55 70.038 309.07 70.649 309.07 72.092C309.07 73.535 308.55 74.133 307.627 74.133C306.717 74.133 306.184 73.535 306.184 72.092ZM312.536 75.498H314.759V72.664C314.759 71.013 315.5 70.454 316.631 70.454C316.904 70.454 317.151 70.48 317.411 70.532V68.608C317.229 68.53 317.008 68.491 316.722 68.491C315.955 68.491 315.136 68.803 314.759 69.999V68.673H312.536V75.498ZM321.622 75.628C322.103 75.628 322.701 75.576 323.299 75.459V73.925C323.052 73.99 322.74 74.055 322.376 74.055C321.609 74.055 321.349 73.756 321.349 72.898V70.129H323.377V68.673H321.349V66.801L319.178 67.516V68.673H317.93V70.129H319.178V73.067C319.178 74.887 319.893 75.628 321.622 75.628ZM327.124 75.68C329.295 75.68 330.322 74.874 330.322 73.47C330.322 72.313 329.633 71.637 328.086 71.338L327.007 71.117C326.409 70.987 326.175 70.792 326.175 70.48C326.175 70.116 326.513 69.895 327.085 69.895C327.657 69.895 328.06 70.103 328.203 70.688L330.244 70.519C329.906 69.063 328.801 68.491 327.176 68.491C325.161 68.491 324.095 69.336 324.095 70.649C324.095 71.819 324.927 72.43 326.435 72.742L327.384 72.937C327.917 73.054 328.112 73.275 328.112 73.613C328.112 74.081 327.735 74.302 327.098 74.302C326.396 74.302 326.032 74.042 325.941 73.444L323.952 73.574C324.16 75.082 325.226 75.68 327.124 75.68Z" fill="#9FBEED"/>
<defs>
<clipPath id="clip0_2217_13082">
<rect width="251" height="251" fill="white" transform="translate(-63 94)"/>
</clipPath>
<clipPath id="clip1_2217_13082">
<rect width="105" height="108" fill="white" transform="translate(153 141.074)"/>
</clipPath>
<clipPath id="clip2_2217_13082">
<rect width="105" height="103" fill="white" transform="translate(306 141.287)"/>
</clipPath>
<clipPath id="clip3_2217_13082">
<rect width="92" height="96" fill="white" transform="translate(101 14.9607)"/>
</clipPath>
<clipPath id="clip4_2217_13082">
<rect width="123" height="125" fill="white" transform="translate(236 0.498047)"/>
</clipPath>
</defs>
</svg>
