<svg width="56" height="57" viewBox="0 0 56 57" fill="none" xmlns="http://www.w3.org/2000/svg">
<circle cx="28" cy="28" r="28" fill="#E2F5F6"/>
<path d="M14.3352 2.06685C15.6254 0.771165 17.3774 0.041075 19.2059 0.0371846L36.675 1.56277e-05C38.5035 -0.00387481 40.2586 0.718754 41.5543 2.00893L53.9331 14.3352C55.2288 15.6254 55.9589 17.3774 55.9628 19.2059L56 36.675C56.0039 38.5035 55.2812 40.2586 53.9911 41.5543L41.6648 53.9331C40.3746 55.2288 38.6226 55.9589 36.7941 55.9628L19.325 56C17.4965 56.0039 15.7414 55.2812 14.4457 53.9911L2.06685 41.6648C0.771165 40.3746 0.041075 38.6226 0.0371846 36.7941L1.56277e-05 19.325C-0.00387481 17.4965 0.718754 15.7414 2.00893 14.4457L14.3352 2.06685Z" fill="white"/>
<path d="M38.4303 18.1164V21.6304C38.4303 22.6244 37.4223 23.2684 36.4843 22.9184C35.3083 22.4844 34.0063 22.3164 32.6343 22.4564C29.3023 22.8204 25.8863 26.0264 25.3263 29.3444C24.8643 32.1024 25.7463 34.6784 27.4403 36.4984C28.2103 37.3384 27.6923 38.6964 26.5583 38.8224C25.5923 38.9344 24.6403 38.9064 24.1083 38.5144L16.4083 32.7604C15.4983 32.0744 14.7563 30.5904 14.7563 29.4424V18.1164C14.7563 16.5344 15.9603 14.7984 17.4303 14.2384L25.1303 11.3544C25.9283 11.0604 27.2443 11.0604 28.0423 11.3544L35.7423 14.2384C37.2263 14.7984 38.4303 16.5344 38.4303 18.1164Z" fill="#3F7CDB"/>
<path d="M33.6003 24.5144C30.1283 24.5144 27.3003 27.3424 27.3003 30.8144C27.3003 34.2864 30.1283 37.1144 33.6003 37.1144C37.0723 37.1144 39.9003 34.2864 39.9003 30.8144C39.9003 27.3284 37.0723 24.5144 33.6003 24.5144Z" fill="#3F7CDB"/>
<path d="M40.6002 39.2004C40.2222 39.2004 39.8722 39.0464 39.6062 38.7944C39.5502 38.7244 39.4802 38.6544 39.4382 38.5704C39.3822 38.5004 39.3402 38.4164 39.3122 38.3324C39.2702 38.2484 39.2422 38.1644 39.2282 38.0804C39.2142 37.9824 39.2002 37.8984 39.2002 37.8004C39.2002 37.6184 39.2422 37.4364 39.3122 37.2684C39.3822 37.0864 39.4802 36.9464 39.6062 36.8064C39.9282 36.4844 40.4182 36.3304 40.8662 36.4284C40.9642 36.4424 41.0482 36.4704 41.1322 36.5124C41.2162 36.5404 41.3002 36.5824 41.3702 36.6384C41.4542 36.6804 41.5242 36.7504 41.5942 36.8064C41.7202 36.9464 41.8182 37.0864 41.8882 37.2684C41.9582 37.4364 42.0002 37.6184 42.0002 37.8004C42.0002 38.1644 41.8462 38.5284 41.5942 38.7944C41.5242 38.8504 41.4542 38.9064 41.3702 38.9624C41.3002 39.0184 41.2162 39.0604 41.1322 39.0884C41.0482 39.1304 40.9642 39.1584 40.8662 39.1724C40.7822 39.1864 40.6842 39.2004 40.6002 39.2004Z" fill="#3F7CDB"/>
<path fill-rule="evenodd" clip-rule="evenodd" d="M0.00645321 19.5C0.00194882 19.6041 -0.000206967 19.7084 1.56277e-05 19.8131L0.0371846 37.2822C0.041075 39.1107 0.771165 40.8627 2.06685 42.1529L14.4457 54.4792C15.7414 55.7693 17.4965 56.492 19.325 56.4881L36.7941 56.4509C38.6226 56.447 40.3746 55.7169 41.6648 54.4212L53.9911 42.0424C55.2812 40.7467 56.0039 38.9916 56 37.1631L55.9935 34.1375C55.9193 35.8523 55.2074 37.4822 53.9911 38.7037L41.6648 51.0826C40.3746 52.3783 38.6226 53.1083 36.7941 53.1122L19.325 53.1494C17.4965 53.1533 15.7414 52.4307 14.4457 51.1405L2.06685 38.8142C0.771165 37.524 0.041075 35.772 0.0371846 33.9435L0.00645321 19.5Z" fill="#0B1C56"/>
</svg>
