<svg width="78" height="28" viewBox="0 0 78 28" fill="none" xmlns="http://www.w3.org/2000/svg">
<path fill-rule="evenodd" clip-rule="evenodd" d="M10.9259 0.359884C9.54181 0.988566 1.98354 5.38338 1.19428 6.01847C0.88703 6.26577 0.494702 6.75015 0.322596 7.09499C0.012555 7.71628 0.00976562 7.77685 0.00976562 13.9242V20.1264L0.371689 20.8531C0.570713 21.2528 0.994279 21.7935 1.31311 22.0546C2.05035 22.6588 9.86822 27.2426 10.8884 27.669C11.7791 28.0413 13.0194 28.0971 13.9788 27.8083C14.322 27.7048 15.2577 27.2419 16.0581 26.7792C24.3661 21.977 24.3263 22.004 24.9305 20.7728L25.3236 19.9719L25.316 14.0409C25.3088 8.32389 25.2979 8.08679 25.016 7.46759C24.389 6.09104 24.0294 5.83343 17.7371 2.25125C16.0191 1.27325 14.405 0.385981 14.1502 0.279362C13.4518 -0.0125825 11.6466 0.032493 10.9259 0.359884ZM16.7888 6.82691C18.7841 7.99315 20.5375 9.11083 20.6853 9.31071C20.9262 9.6361 20.9526 9.90447 20.9376 11.8783C20.9286 13.0904 20.8881 14.1358 20.8476 14.2013C20.6897 14.4569 20.272 14.2684 17.852 12.8489C16.4726 12.0399 15.2516 11.3422 15.1385 11.2989C14.9597 11.2302 14.933 11.9138 14.933 16.5619C14.933 21.3367 14.9085 21.9309 14.7022 22.1589C14.5007 22.3818 14.2365 22.4141 12.6201 22.4141C11.1231 22.4141 10.7269 22.3721 10.5497 22.1949C10.3582 22.0032 10.3305 21.309 10.3305 16.6908C10.3305 13.784 10.2834 11.3784 10.226 11.3449C10.1685 11.3115 9.61925 11.5657 9.00557 11.91C8.3919 12.2542 7.12356 12.962 6.18716 13.4827L4.48451 14.4296L4.34839 13.991C4.2735 13.7499 4.2237 12.6948 4.23793 11.6465C4.26346 9.75247 4.26624 9.73731 4.68201 9.22652C4.9682 8.87485 5.98158 8.20597 7.8898 7.10908C12.0085 4.74157 12.4382 4.52498 12.8256 4.62225C13.0103 4.66872 14.7937 5.6608 16.7888 6.82691Z" fill="url(#paint0_linear_2019_10069)"/>
<path d="M37.7416 10.0948V12.8138H34.4357V17.3305C34.4357 17.8698 34.5614 18.2593 34.8129 18.499C35.0792 18.7237 35.4415 18.8361 35.9001 18.8361C36.2551 18.8361 36.5583 18.7986 36.8098 18.7237C37.0612 18.6338 37.2978 18.5065 37.5197 18.3417L37.9191 20.7011C37.5493 20.9558 37.076 21.1656 36.4991 21.3303C35.9371 21.4802 35.3675 21.5551 34.7907 21.5551C33.5187 21.5551 32.5129 21.2854 31.7733 20.7462C31.0485 20.1918 30.6787 19.263 30.6639 17.9597V12.8138H28.7559V10.0948H30.6639V7.57805L34.4357 6.52191V10.0948H37.7416Z" fill="#060A2A"/>
<path d="M38.1523 21.3303V10.0948H41.4804L41.6358 12.5217C41.902 11.6978 42.3087 11.0536 42.8561 10.5891C43.4181 10.1098 44.1355 9.87006 45.0082 9.87006C45.2892 9.87006 45.5259 9.9001 45.7182 9.96001C45.9253 10.0049 46.088 10.0573 46.2062 10.1173L45.8291 13.2633C45.6812 13.2182 45.4889 13.1733 45.2522 13.1284C45.0304 13.0835 44.7567 13.061 44.4313 13.061C43.7509 13.061 43.1592 13.2782 42.6564 13.7127C42.1682 14.1471 41.9241 14.7988 41.9241 15.6676V21.3303H38.1523Z" fill="#060A2A"/>
<path d="M50.9506 9.87006C52.1192 9.87006 53.1398 10.1023 54.0125 10.5667C54.9 11.0311 55.5878 11.6978 56.0758 12.5666C56.5788 13.4355 56.8303 14.4842 56.8303 15.7126C56.8303 16.941 56.5788 17.9897 56.0758 18.8585C55.5878 19.7275 54.9 20.3941 54.0125 20.8584C53.1398 21.3229 52.1192 21.5551 50.9506 21.5551C49.7969 21.5551 48.7763 21.3229 47.8888 20.8584C47.0161 20.3941 46.3283 19.7275 45.8254 18.8585C45.3373 17.9897 45.0933 16.941 45.0933 15.7126C45.0933 14.4842 45.3373 13.4355 45.8254 12.5666C46.3283 11.6978 47.0161 11.0311 47.8888 10.5667C48.7763 10.1023 49.7969 9.87006 50.9506 9.87006ZM50.9506 12.5891C50.2998 12.5891 49.7895 12.8363 49.4197 13.3306C49.0648 13.8101 48.8873 14.604 48.8873 15.7126C48.8873 16.8061 49.0648 17.6002 49.4197 18.0945C49.7895 18.5888 50.2998 18.8361 50.9506 18.8361C51.6163 18.8361 52.1266 18.5888 52.4816 18.0945C52.8513 17.6002 53.0362 16.8061 53.0362 15.7126C53.0362 14.604 52.8513 13.8101 52.4816 13.3306C52.1266 12.8363 51.6163 12.5891 50.9506 12.5891Z" fill="#060A2A"/>
<path d="M64.082 10.0948H67.9869L63.9933 21.3303H59.4893L55.4956 10.0948H59.4671L61.7524 18.6563L64.082 10.0948Z" fill="#060A2A"/>
<path d="M72.641 21.5551C70.792 21.5551 69.3277 21.0457 68.2479 20.027C67.1829 19.0084 66.6504 17.5701 66.6504 15.7126C66.6504 14.4842 66.8944 13.4355 67.3826 12.5666C67.8855 11.6828 68.5659 11.0161 69.4238 10.5667C70.2965 10.1023 71.3098 9.87006 72.4635 9.87006C73.632 9.87006 74.623 10.1023 75.4365 10.5667C76.2648 11.0161 76.8935 11.6453 77.3224 12.4542C77.7514 13.2483 77.9659 14.1621 77.9659 15.1957C77.9659 15.4804 77.9511 15.7575 77.9214 16.0272C77.9067 16.2819 77.8919 16.4991 77.8771 16.6788H70.3113C70.4148 17.4579 70.6663 18.0196 71.0656 18.3642C71.465 18.6938 71.9901 18.8585 72.641 18.8585C73.203 18.8585 73.6468 18.7462 73.9722 18.5215C74.3123 18.2968 74.5638 17.9822 74.7265 17.5777L77.744 18.5888C77.5369 19.233 77.1745 19.7798 76.6568 20.2293C76.1539 20.6637 75.5474 20.9933 74.8375 21.218C74.1423 21.4427 73.4101 21.5551 72.641 21.5551ZM72.4635 12.5442C71.2653 12.5442 70.5553 13.2408 70.3335 14.634H74.3937C74.231 13.2408 73.5876 12.5442 72.4635 12.5442Z" fill="#060A2A"/>
<defs>
<linearGradient id="paint0_linear_2019_10069" x1="0.767247" y1="6.75999" x2="24.2057" y2="20.982" gradientUnits="userSpaceOnUse">
<stop stop-color="#129B8E"/>
<stop offset="1" stop-color="#36EA7E"/>
</linearGradient>
</defs>
</svg>
