<svg width="352" height="352" viewBox="0 0 352 352" fill="none" xmlns="http://www.w3.org/2000/svg">
<rect x="20" y="26" width="312" height="293" rx="8" fill="#F6F9FF"/>
<path d="M90.1069 12.9916C98.2166 4.84732 109.229 0.258186 120.723 0.233732L230.529 9.82316e-05C242.022 -0.024356 253.054 4.51789 261.199 12.6276L339.008 90.1069C347.153 98.2166 351.742 109.229 351.766 120.723L352 230.529C352.024 242.022 347.482 253.054 339.372 261.199L261.893 339.008C253.783 347.153 242.771 351.742 231.277 351.766L121.471 352C109.978 352.024 98.9457 347.482 90.8014 339.372L12.9916 261.893C4.84732 253.783 0.258186 242.771 0.233732 231.277L9.82316e-05 121.471C-0.024356 109.978 4.51789 98.9457 12.6276 90.8014L90.1069 12.9916Z" fill="white"/>
</svg>
