<svg width="358" height="358" viewBox="0 0 358 358" fill="none" xmlns="http://www.w3.org/2000/svg">
<path d="M91.6429 13.2131C99.8908 4.92995 111.091 0.262587 122.781 0.237716L234.458 9.9906e-05C246.147 -0.0247711 257.368 4.59489 265.651 12.8428L344.787 91.6429C353.07 99.8908 357.737 111.091 357.762 122.781L358 234.458C358.025 246.147 353.405 257.368 345.157 265.651L266.357 344.787C258.109 353.07 246.909 357.737 235.219 357.762L123.542 358C111.853 358.025 100.632 353.405 92.3491 345.157L13.2131 266.357C4.92995 258.109 0.262587 246.909 0.237716 235.219L9.9906e-05 123.542C-0.0247711 111.853 4.59489 100.632 12.8428 92.3491L91.6429 13.2131Z" fill="#5F92E1"/>
</svg>
