<svg width="20" height="20" viewBox="0 0 20 20" fill="none" xmlns="http://www.w3.org/2000/svg">
<path d="M10.0002 2.66675C7.2095 2.66675 3.5874 3.36597 3.5874 3.36597L3.57829 3.37638C2.30727 3.57966 1.3335 4.67183 1.3335 6.00008V10.0001V10.0014V14.0001V14.0014C1.33474 14.6357 1.56208 15.2489 1.97469 15.7307C2.38731 16.2125 2.95818 16.5315 3.5848 16.6303L3.5874 16.6342C3.5874 16.6342 7.2095 17.3347 10.0002 17.3347C12.7908 17.3347 16.4129 16.6342 16.4129 16.6342L16.4142 16.6329C17.0415 16.5343 17.613 16.2151 18.026 15.7327C18.4389 15.2503 18.6662 14.6364 18.6668 14.0014V14.0001V10.0014V10.0001V6.00008C18.6659 5.3655 18.4387 4.75205 18.0261 4.26995C17.6134 3.78786 17.0424 3.46872 16.4155 3.36987L16.4129 3.36597C16.4129 3.36597 12.7908 2.66675 10.0002 2.66675ZM8.00016 6.93237L13.3335 10.0001L8.00016 13.0678V6.93237Z" fill="#9CBBEF"/>
</svg>
